<svg width="200" height="35" viewBox="0 0 200 35" fill="none" xmlns="http://www.w3.org/2000/svg">
<g clip-path="url(#clip0_7323_33877)">
<path d="M3.14532 28.5301C3.14532 29.6223 3.38937 30.4609 3.70835 30.9682C4.12658 31.6327 4.75038 31.9142 5.38633 31.9142C6.20658 31.9142 6.95696 31.7143 8.40304 29.7496C9.56152 28.1749 10.9266 25.9646 11.8451 24.5788L13.4005 22.2312C14.481 20.6008 15.7316 18.7883 17.1656 17.5598C18.3362 16.5571 19.599 16 20.8699 16C23.0035 16 25.0359 17.2146 26.5914 19.4926C28.2937 21.9875 29.12 25.1299 29.12 28.3729C29.12 30.3007 28.7332 31.7173 28.0749 32.8364C27.439 33.9187 26.1995 35 24.1144 35V31.9142C25.8997 31.9142 26.3453 30.3027 26.3453 28.4584C26.3453 25.8303 25.7215 22.9136 24.3473 20.8296C23.3722 19.3514 22.1084 18.4481 20.718 18.4481C19.2142 18.4481 18.004 19.5623 16.6441 21.5488C15.921 22.6042 15.1787 23.8905 14.3453 25.3418L13.4278 26.9384C11.5848 30.1485 11.118 30.8797 10.1965 32.0863C8.58127 34.1992 7.20202 35 5.38633 35C3.2324 35 1.87038 34.0838 1.02684 32.7031C0.338228 31.578 0 30.1018 0 28.4196L3.14532 28.5301Z" fill="white"/>
<path d="M2.48047 19.7105C3.92249 17.527 6.00351 16 8.39034 16C9.77262 16 11.1468 16.4019 12.5817 17.5528C14.1514 18.8112 15.8243 20.8833 17.9114 24.2983L18.6597 25.5239C20.4663 28.4803 21.4941 30.0013 22.0957 30.7185C22.8693 31.6397 23.4111 31.9142 24.1149 31.9142C25.9002 31.9142 26.3458 30.3027 26.3458 28.4584L29.1205 28.3729C29.1205 30.3007 28.7336 31.7173 28.0754 32.8364C27.4395 33.9187 26.2 35 24.1149 35C22.8187 35 21.6703 34.7235 20.4005 33.5466C19.4243 32.6434 18.283 31.0388 17.405 29.5964L14.7934 25.311C13.483 23.1603 12.281 21.5568 11.5853 20.8306C10.8369 20.0497 9.8749 19.1066 8.33971 19.1066C7.09718 19.1066 6.04199 19.9631 5.15895 21.2732L2.48047 19.7105Z" fill="white"/>
<path d="M8.33924 19.1066C7.09671 19.1066 6.04152 19.9631 5.15848 21.2732C3.90987 23.1245 3.14532 25.882 3.14532 28.5301C3.14532 29.6223 3.38937 30.4609 3.70835 30.9682L1.02684 32.7031C0.338228 31.578 0 30.1018 0 28.4196C0 25.3607 0.854684 22.1725 2.48 19.7105C3.92203 17.527 6.00304 16 8.38987 16L8.33924 19.1066Z" fill="white"/>
<path d="M35.2344 16.6011H38.8729L45.0592 27.5952L51.2465 16.6011H54.806V34.666H51.8379V20.8209L46.4121 30.4084H43.6273L38.2025 20.8209V34.666H35.2344V16.6011ZM64.1063 23.3366C61.9777 23.3366 60.6956 24.9103 60.3888 26.8591H67.6131C67.4642 24.8517 66.2855 23.3366 64.1063 23.3366ZM57.446 27.9692C57.446 23.8688 60.1437 20.8845 64.1579 20.8845C68.1063 20.8845 70.4637 23.831 70.4637 28.1881V28.9889H60.3888C60.7463 31.1087 62.1782 32.5372 64.487 32.5372C66.3291 32.5372 67.4805 31.9851 68.5721 30.9754L70.1488 32.8724C68.6632 34.2144 66.7736 34.9883 64.3817 34.9883C60.0364 34.9883 57.446 31.8757 57.446 27.9692ZM74.0627 23.5953H71.3306V21.2078H74.0627V17.2596H76.9265V21.2078H81.0774V23.5953H76.9265V29.6464C76.9265 31.7125 77.5989 32.4467 79.2516 32.4467C80.006 32.4467 80.4384 32.383 81.0774 32.2786V34.6401C80.2815 34.861 79.522 34.9624 78.6997 34.9624C75.608 34.9624 74.0627 33.3032 74.0627 29.9817V23.5953ZM93.1361 25.917C92.561 24.4906 91.2779 23.4401 89.3923 23.4401C86.9417 23.4401 85.3731 25.1481 85.3731 27.9304C85.3731 30.6432 86.8172 32.4337 89.2749 32.4337C91.207 32.4337 92.5863 31.3296 93.1361 29.9558V25.917ZM95.9999 34.666H93.1888V32.7819C92.403 33.8911 90.9731 34.9883 88.6572 34.9883C84.9326 34.9883 82.4435 31.9254 82.4435 27.9304C82.4435 23.8977 84.9923 20.8845 88.8151 20.8845C90.7048 20.8845 92.1873 21.6266 93.1888 22.9367V21.2078H95.9999V34.666Z" fill="white"/>
</g>
<defs>
<clipPath id="clip0_7323_33877">
<rect width="96" height="19" fill="white" transform="translate(0 16)"/>
</clipPath>
</defs>
</svg>
