<svg width="200" height="35" viewBox="0 0 200 35" fill="none" xmlns="http://www.w3.org/2000/svg">
<g style="mix-blend-mode:luminosity">
<g clip-path="url(#clip0_7323_33792)">
<path d="M109.125 17C109.125 17 109.125 29.569 109.125 29.569C109.125 30.19 109.477 30.5528 109.84 30.7813C110.23 31.0222 110.802 31.1428 111.572 31.1428C112.06 31.1428 112.704 30.9939 112.704 30.9939C112.704 30.9939 112.704 29.8668 112.704 29.8668C112.51 29.8778 112.339 29.888 112.149 29.888C111.003 29.888 110.833 29.4753 110.833 29.0161C110.833 29.0161 110.833 17 110.833 17L109.125 17ZM73.0346 17.1276C71.7467 17.1276 70.5824 17.4997 69.7557 18.1697C68.953 18.8233 68.5089 19.7254 68.5089 20.7005C68.5089 21.7745 68.9807 22.6136 69.9635 23.2739C70.8303 23.8569 71.9768 24.2333 73.0807 24.5924C74.9997 25.2211 76.7983 25.7949 76.7983 27.3997C76.7983 28.1134 76.5347 28.7253 76.0363 29.1437C75.4883 29.6037 74.6999 29.8242 73.658 29.8242C71.8317 29.8242 70.5022 28.8929 69.7557 27.0807C69.7557 27.0807 68.1163 27.4848 68.1163 27.4848C68.4694 28.2197 69.07 29.2803 69.9405 29.9944C70.8948 30.783 72.0795 31.1641 73.5656 31.1641C75.3256 31.1641 76.6616 30.7459 77.5372 29.9093C78.4449 29.0383 78.6455 27.9237 78.6455 27.1445C78.6455 26.028 78.1331 25.1658 77.0984 24.4861C76.1952 23.8893 75.0263 23.5047 73.8889 23.1463C72.0356 22.5626 70.2671 22.007 70.2868 20.5729C70.2934 19.9042 70.5451 19.3836 71.0026 19.0204C71.4688 18.6514 72.1333 18.4674 72.9884 18.4674C73.8865 18.4675 74.6874 18.6987 75.2974 19.148C75.8584 19.5572 76.2666 20.1646 76.4519 20.8494L78.0451 20.658C77.3462 18.4632 75.6378 17.1276 73.0346 17.1276ZM0 17.319V30.9727H1.70868V18.4887L1.75486 18.5313L5.81875 30.9727H7.1349L11.2219 18.5313L11.245 18.4887V30.9727H12.9536V17.319H10.1135L6.48837 28.293V28.3355L6.46528 28.293L2.8401 17.319H0ZM81.3471 17.5955V20.8707H79.7076V22.1254C79.7076 22.1254 81.3471 22.1254 81.3471 22.1254C81.3471 22.1254 81.3471 29.1433 81.3471 29.569C81.3471 30.19 81.654 30.5528 82.0167 30.7813C82.407 31.0222 82.9772 31.1428 83.7484 31.1428C84.2365 31.1428 84.9029 30.9939 84.903 30.9939C84.903 30.9939 84.9029 29.8668 84.903 29.8668C84.7132 29.8778 84.5147 29.888 84.3257 29.888C83.1773 29.888 83.0557 29.4753 83.0557 29.0161C83.0557 29.0161 83.0557 22.1254 83.0557 22.1254H84.903V20.8707H83.0557V17.5955H81.3471ZM19.8807 20.6793C18.4419 20.6793 17.2225 21.2132 16.371 22.2105C15.5808 23.1412 15.1472 24.4561 15.1472 25.911C15.1472 27.3673 15.5808 28.6798 16.371 29.6115C17.2225 30.6115 18.4419 31.1428 19.8807 31.1428C21.3254 31.1428 22.5412 30.6115 23.3905 29.6115C24.1808 28.6798 24.6142 27.3673 24.6142 25.911C24.6142 24.4561 24.1808 23.1412 23.3905 22.2105C22.5412 21.2132 21.3254 20.6793 19.8807 20.6793ZM118.453 20.7005C117.723 20.7005 117.044 20.8242 116.467 21.0621C115.903 21.2962 115.402 21.6488 115.013 22.1042C114.238 22.9979 113.789 24.3248 113.789 25.9323C113.789 27.7214 114.347 29.0865 115.359 29.9944C116.427 30.9541 117.787 31.1428 118.73 31.1428C121.182 31.1428 122.385 29.921 122.886 28.8034C122.886 28.8034 121.524 28.1866 121.524 28.1866C121.193 28.8671 120.432 29.9093 118.73 29.9093C117.758 29.9093 116.962 29.5426 116.398 28.8672C115.853 28.2136 115.547 27.309 115.544 26.23C115.544 26.23 123.025 26.23 123.025 26.23C123.025 26.23 123.025 25.273 123.025 25.273C123.025 23.6198 122.547 22.387 121.663 21.6363C120.91 20.9986 119.853 20.7005 118.453 20.7005ZM37.3832 20.7218C35.4554 20.7218 32.7189 21.9165 32.7189 25.9323C32.7189 29.8315 35.4469 31.1428 37.2908 31.1428C38.367 31.1428 39.3449 30.5937 40.0155 29.803C40.0154 29.803 40.1078 29.7604 40.1078 29.7604C40.1078 29.7604 40.1078 31.6745 40.1078 31.6745C40.1078 33.0169 38.8463 33.8438 37.4986 33.8438C36.1883 33.8438 35.0283 33.6133 34.0813 33.2057C34.0812 33.2057 34.0813 34.5668 34.0813 34.5668C34.8788 34.8817 36.1766 35.0773 37.2908 35.0773C40.3239 35.0773 41.7703 33.5397 41.7703 31.3129C41.7703 31.3129 41.7703 20.9132 41.7703 20.9132H40.5004L40.1309 21.9766C39.504 21.2243 38.6833 20.7218 37.3832 20.7218ZM48.4203 20.7218C45.9935 20.7218 44.8446 22.0607 44.3564 22.8911L45.7188 23.5504C45.9099 23.0759 46.5982 21.9766 48.4434 21.9766C49.8983 21.9766 50.637 22.568 50.637 23.7418V24.1033C50.637 24.1033 50.6489 24.2132 50.6139 24.2522C50.5599 24.315 50.4066 24.3664 50.0366 24.401C47.9995 24.6104 46.6455 24.9185 45.6495 25.5069C44.5682 26.1471 43.8946 27.0433 43.8946 28.2717C43.8946 29.1443 44.3534 29.8891 44.9568 30.4197C45.5179 30.9083 46.2823 31.1625 47.1273 31.1853C48.9258 31.2385 50.1097 30.549 50.6832 29.7392C50.7277 30.2956 50.9442 30.6136 51.422 30.8451C51.8709 31.0658 52.6069 31.0219 52.9229 30.9514C52.9229 30.9514 52.9229 29.888 52.9229 29.888C52.542 29.8705 52.2995 29.7037 52.2995 29.2713C52.2995 29.2713 52.2995 24.401 52.2995 24.401C52.2995 24.401 52.2995 23.763 52.2995 23.763C52.2995 22.758 51.8712 21.9335 51.0526 21.4023C50.3777 20.9612 49.4345 20.7218 48.4203 20.7218ZM60.1733 20.7218C59.0612 20.7218 57.9232 21.2524 56.9637 22.253V20.9132H55.255V30.9939H56.9637C56.9637 30.9939 56.9637 23.5078 56.9637 23.5078C57.5452 22.9356 58.8484 21.9766 60.0347 21.9766C61.2241 21.9766 61.7434 22.5139 61.7434 23.7205C61.7434 23.7205 61.7434 30.9939 61.7434 30.9939H63.4521V23.678C63.4521 21.4999 61.7704 20.7218 60.1733 20.7218ZM91.0912 20.7218C88.6657 20.7218 87.517 22.0607 87.0273 22.8911C87.0273 22.8911 88.3896 23.5504 88.3896 23.5504C88.5815 23.0759 89.269 21.9766 91.1143 21.9766C92.569 21.9766 93.3078 22.568 93.3078 23.7418C93.3078 23.7418 93.3078 24.1033 93.3078 24.1033C93.3078 24.1033 93.2959 24.2132 93.2616 24.2522C93.2083 24.315 93.0789 24.3664 92.7075 24.401C90.6703 24.61 89.3163 24.9185 88.3203 25.5069C87.2397 26.1471 86.5655 27.0433 86.5655 28.2717C86.5655 29.1443 87.0234 29.8888 87.6276 30.4197C88.1887 30.9083 88.9539 31.1625 89.7981 31.1853C91.5952 31.2385 92.7805 30.549 93.354 29.7392C93.3992 30.2954 93.6142 30.6136 94.0929 30.8451C94.5408 31.0658 95.2771 31.0219 95.5938 30.9514C95.5938 30.9514 95.5938 29.888 95.5938 29.888C95.2136 29.8705 94.9703 29.7037 94.9703 29.2713C94.9703 29.2713 94.9703 24.401 94.9703 24.401C94.9703 24.401 94.9703 23.763 94.9703 23.763C94.9703 22.758 94.5198 21.9335 93.7004 21.4023C93.0247 20.9612 92.1046 20.7218 91.0912 20.7218ZM102.844 20.7218C101.729 20.7218 100.594 21.2524 99.6346 22.253V20.9132H97.9259V30.9939H99.6346C99.6346 30.9939 99.6346 23.5078 99.6346 23.5078C100.217 22.9353 101.518 21.9766 102.706 21.9766C103.893 21.9766 104.414 22.5139 104.414 23.7205V30.9939H106.123V23.678C106.123 21.4999 104.441 20.7218 102.844 20.7218ZM32.0724 20.7643C30.3388 20.7643 29.3114 21.3834 28.4241 22.8485V22.7422V20.9132H26.7155V30.9727H28.4241C28.4241 30.9727 28.4241 25.273 28.4241 25.273C28.846 23.2025 30.0361 22.2318 32.0724 22.2318V20.7643ZM124.18 20.8919L127.989 30.8876C127.989 30.8876 127.989 30.9727 127.989 30.9727C127.762 31.9306 127.103 33.1132 126.512 33.4822C125.989 33.8088 125.423 33.8438 124.988 33.8438C124.777 33.8438 124.343 33.7784 124.156 33.7374C124.156 33.7374 124.156 34.9497 124.156 34.9497C124.393 35.0031 124.938 35.0985 125.288 35.0985C126.102 35.0985 126.789 34.9108 127.366 34.5243C128.057 34.0617 128.822 32.8559 129.19 31.8234L133 20.8919H131.338L128.844 28.6332L128.821 28.8034L128.774 28.6332L125.842 20.8919H124.18ZM19.8807 21.934C21.7202 21.934 22.8132 23.4211 22.8132 25.911C22.8132 28.4016 21.7202 29.888 19.8807 29.888C18.0442 29.888 16.9483 28.4016 16.9483 25.911C16.9483 23.4211 18.0442 21.934 19.8807 21.934ZM37.4986 21.9553C38.4626 21.9553 39.3089 22.3389 40.1078 23.2526C40.1078 23.2526 40.1078 28.059 40.1078 28.059C39.6656 29.2183 38.399 29.888 37.4986 29.888C35.7366 29.888 34.52 28.8774 34.52 25.8472C34.52 23.2992 35.6118 21.9553 37.4986 21.9553ZM118.499 21.9553C120.457 21.9553 121.332 22.9087 121.339 24.9753C121.339 24.9753 115.59 24.9753 115.59 24.9753C115.739 22.9104 116.678 21.9553 118.499 21.9553ZM50.6832 25.5069C50.6832 25.5069 50.6832 28.059 50.6832 28.059C50.6044 28.9401 48.8167 30.0065 47.3582 29.9306C46.5534 29.8899 45.7781 29.2931 45.6957 28.3142C45.5621 26.6785 46.8965 25.9994 49.875 25.6984C50.0822 25.6809 50.4832 25.6131 50.6832 25.5069ZM93.354 25.5069V28.059C93.2752 28.9397 91.4876 30.0065 90.029 29.9306C89.2256 29.8896 88.4467 29.2927 88.3665 28.3142C88.2308 26.6785 89.5667 25.9994 92.5458 25.6984C92.7516 25.6809 93.1555 25.6131 93.354 25.5069Z" fill="white"/>
</g>
</g>
<defs>
<clipPath id="clip0_7323_33792">
<rect width="133" height="18" fill="white" transform="translate(0 17)"/>
</clipPath>
</defs>
</svg>
