<svg width="24" height="25" viewBox="0 0 24 25" fill="none" xmlns="http://www.w3.org/2000/svg">
<rect y="0.840576" width="24" height="24" rx="12" fill="#262626"/>
<path d="M18.2837 10.2568L7.28 6.8818C7.13107 6.83836 6.97407 6.83017 6.82142 6.85787C6.66878 6.88558 6.52467 6.94842 6.4005 7.04142C6.27633 7.13443 6.1755 7.25505 6.10599 7.39375C6.03648 7.53244 6.00019 7.68541 6 7.84055V16.8405C6 17.1058 6.10536 17.3601 6.29289 17.5477C6.48043 17.7352 6.73478 17.8405 7 17.8405C7.09562 17.8406 7.19076 17.8269 7.2825 17.7999L12.5 16.1987V16.8405C12.5 17.1058 12.6054 17.3601 12.7929 17.5477C12.9804 17.7352 13.2348 17.8405 13.5 17.8405H15.5C15.7652 17.8405 16.0196 17.7352 16.2071 17.5477C16.3946 17.3601 16.5 17.1058 16.5 16.8405V14.9718L18.2837 14.4249C18.4902 14.3629 18.6712 14.2362 18.8002 14.0634C18.9292 13.8907 18.9992 13.6811 19 13.4655V11.2155C18.9991 11.0001 18.929 10.7906 18.8 10.618C18.6711 10.4454 18.4901 10.3188 18.2837 10.2568ZM12.5 15.153L7 16.8405V7.84055L12.5 9.52805V15.153ZM15.5 16.8405H13.5V15.8918L15.5 15.278V16.8405ZM18 13.4655H17.9931L13.5 14.8455V9.83555L17.9931 11.2105H18V13.4605V13.4655Z" fill="white"/>
</svg>
