<svg width="40" height="40" viewBox="0 0 40 40" fill="none" xmlns="http://www.w3.org/2000/svg">
<rect x="0.5" y="0.5" width="39" height="39" rx="19.5" stroke="url(#paint0_linear_345_3417)"/>
<path d="M20 16.25C19.2583 16.25 18.5333 16.4699 17.9166 16.882C17.2999 17.294 16.8193 17.8797 16.5355 18.5649C16.2516 19.2502 16.1774 20.0042 16.3221 20.7316C16.4667 21.459 16.8239 22.1272 17.3483 22.6517C17.8728 23.1761 18.541 23.5333 19.2684 23.6779C19.9958 23.8226 20.7498 23.7484 21.4351 23.4645C22.1203 23.1807 22.706 22.7001 23.118 22.0834C23.5301 21.4667 23.75 20.7417 23.75 20C23.75 19.0054 23.3549 18.0516 22.6517 17.3483C21.9484 16.6451 20.9946 16.25 20 16.25ZM20 22.25C19.555 22.25 19.12 22.118 18.75 21.8708C18.38 21.6236 18.0916 21.2722 17.9213 20.861C17.751 20.4499 17.7064 19.9975 17.7932 19.561C17.88 19.1246 18.0943 18.7237 18.409 18.409C18.7237 18.0943 19.1246 17.88 19.561 17.7932C19.9975 17.7064 20.4499 17.751 20.861 17.9213C21.2722 18.0916 21.6236 18.38 21.8708 18.75C22.118 19.12 22.25 19.555 22.25 20C22.25 20.5967 22.0129 21.169 21.591 21.591C21.169 22.0129 20.5967 22.25 20 22.25ZM30.5 13.25H9.5C9.30109 13.25 9.11032 13.329 8.96967 13.4697C8.82902 13.6103 8.75 13.8011 8.75 14V26C8.75 26.1989 8.82902 26.3897 8.96967 26.5303C9.11032 26.671 9.30109 26.75 9.5 26.75H30.5C30.6989 26.75 30.8897 26.671 31.0303 26.5303C31.171 26.3897 31.25 26.1989 31.25 26V14C31.25 13.8011 31.171 13.6103 31.0303 13.4697C30.8897 13.329 30.6989 13.25 30.5 13.25ZM26.1547 25.25H13.8453C13.5935 24.3984 13.1326 23.6233 12.5047 22.9953C11.8767 22.3674 11.1016 21.9065 10.25 21.6547V18.3453C11.1016 18.0935 11.8767 17.6326 12.5047 17.0047C13.1326 16.3767 13.5935 15.6016 13.8453 14.75H26.1547C26.4065 15.6016 26.8674 16.3767 27.4953 17.0047C28.1233 17.6326 28.8984 18.0935 29.75 18.3453V21.6547C28.8984 21.9065 28.1233 22.3674 27.4953 22.9953C26.8674 23.6233 26.4065 24.3984 26.1547 25.25ZM29.75 16.7534C28.8504 16.3666 28.1334 15.6496 27.7466 14.75H29.75V16.7534ZM12.2534 14.75C11.8666 15.6496 11.1496 16.3666 10.25 16.7534V14.75H12.2534ZM10.25 23.2466C11.1496 23.6334 11.8666 24.3504 12.2534 25.25H10.25V23.2466ZM27.7466 25.25C28.1334 24.3504 28.8504 23.6334 29.75 23.2466V25.25H27.7466Z" fill="#090909"/>
<defs>
<linearGradient id="paint0_linear_345_3417" x1="2.53333" y1="12.2223" x2="38.6904" y2="12.3343" gradientUnits="userSpaceOnUse">
<stop stop-color="#39B6D8"/>
<stop offset="0.5" stop-color="#F7D344"/>
<stop offset="1" stop-color="#E38330"/>
</linearGradient>
</defs>
</svg>
