<svg width="40" height="40" viewBox="0 0 40 40" fill="none" xmlns="http://www.w3.org/2000/svg">
<rect x="0.5" y="0.5" width="39" height="39" rx="19.5" stroke="url(#paint0_linear_345_3429)"/>
<path d="M28.0306 14.2194L24.2806 10.4694C24.2109 10.3997 24.1282 10.3445 24.0371 10.3069C23.9461 10.2693 23.8485 10.2499 23.75 10.25H16.25C15.8522 10.25 15.4706 10.408 15.1893 10.6893C14.908 10.9706 14.75 11.3522 14.75 11.75V13.25H13.25C12.8522 13.25 12.4706 13.408 12.1893 13.6893C11.908 13.9706 11.75 14.3522 11.75 14.75V28.25C11.75 28.6478 11.908 29.0294 12.1893 29.3107C12.4706 29.592 12.8522 29.75 13.25 29.75H23.75C24.1478 29.75 24.5294 29.592 24.8107 29.3107C25.092 29.0294 25.25 28.6478 25.25 28.25V26.75H26.75C27.1478 26.75 27.5294 26.592 27.8107 26.3107C28.092 26.0294 28.25 25.6478 28.25 25.25V14.75C28.2501 14.6515 28.2307 14.5539 28.1931 14.4629C28.1555 14.3718 28.1003 14.2891 28.0306 14.2194ZM23.75 28.25H13.25V14.75H20.4397L23.75 18.0603V25.985C23.75 25.9906 23.75 25.9953 23.75 26C23.75 26.0047 23.75 26.0094 23.75 26.015V28.25ZM26.75 25.25H25.25V17.75C25.2501 17.6515 25.2307 17.5539 25.1931 17.4629C25.1555 17.3718 25.1003 17.2891 25.0306 17.2194L21.2806 13.4694C21.2109 13.3997 21.1282 13.3445 21.0371 13.3069C20.9461 13.2693 20.8485 13.2499 20.75 13.25H16.25V11.75H23.4397L26.75 15.0603V25.25ZM21.5 22.25C21.5 22.4489 21.421 22.6397 21.2803 22.7803C21.1397 22.921 20.9489 23 20.75 23H16.25C16.0511 23 15.8603 22.921 15.7197 22.7803C15.579 22.6397 15.5 22.4489 15.5 22.25C15.5 22.0511 15.579 21.8603 15.7197 21.7197C15.8603 21.579 16.0511 21.5 16.25 21.5H20.75C20.9489 21.5 21.1397 21.579 21.2803 21.7197C21.421 21.8603 21.5 22.0511 21.5 22.25ZM21.5 25.25C21.5 25.4489 21.421 25.6397 21.2803 25.7803C21.1397 25.921 20.9489 26 20.75 26H16.25C16.0511 26 15.8603 25.921 15.7197 25.7803C15.579 25.6397 15.5 25.4489 15.5 25.25C15.5 25.0511 15.579 24.8603 15.7197 24.7197C15.8603 24.579 16.0511 24.5 16.25 24.5H20.75C20.9489 24.5 21.1397 24.579 21.2803 24.7197C21.421 24.8603 21.5 25.0511 21.5 25.25Z" fill="#090909"/>
<defs>
<linearGradient id="paint0_linear_345_3429" x1="2.53333" y1="12.2223" x2="38.6904" y2="12.3343" gradientUnits="userSpaceOnUse">
<stop stop-color="#39B6D8"/>
<stop offset="0.5" stop-color="#F7D344"/>
<stop offset="1" stop-color="#E38330"/>
</linearGradient>
</defs>
</svg>
