<svg width="52" height="52" viewBox="0 0 52 52" fill="none" xmlns="http://www.w3.org/2000/svg">
<circle cx="26" cy="26" r="25.375" stroke="url(#paint0_linear_5835_33417)" stroke-width="1.25"/>
<path d="M36.5001 19.25V25.25C36.5001 25.4489 36.421 25.6397 36.2804 25.7803C36.1397 25.921 35.949 26 35.7501 26C35.5511 26 35.3604 25.921 35.2197 25.7803C35.0791 25.6397 35.0001 25.4489 35.0001 25.25V21.0603L27.2807 28.7806C27.211 28.8504 27.1283 28.9057 27.0373 28.9434C26.9462 28.9812 26.8486 29.0006 26.7501 29.0006C26.6515 29.0006 26.5539 28.9812 26.4628 28.9434C26.3718 28.9057 26.2891 28.8504 26.2194 28.7806L23.0001 25.5603L16.7807 31.7806C16.6399 31.9214 16.4491 32.0004 16.2501 32.0004C16.051 32.0004 15.8602 31.9214 15.7194 31.7806C15.5787 31.6399 15.4996 31.449 15.4996 31.25C15.4996 31.051 15.5787 30.8601 15.7194 30.7194L22.4694 23.9694C22.5391 23.8996 22.6218 23.8443 22.7128 23.8066C22.8039 23.7688 22.9015 23.7494 23.0001 23.7494C23.0986 23.7494 23.1962 23.7688 23.2873 23.8066C23.3783 23.8443 23.461 23.8996 23.5307 23.9694L26.7501 27.1897L33.9397 20H29.7501C29.5511 20 29.3604 19.921 29.2197 19.7803C29.0791 19.6397 29.0001 19.4489 29.0001 19.25C29.0001 19.0511 29.0791 18.8603 29.2197 18.7197C29.3604 18.579 29.5511 18.5 29.7501 18.5H35.7501C35.949 18.5 36.1397 18.579 36.2804 18.7197C36.421 18.8603 36.5001 19.0511 36.5001 19.25Z" fill="#090909"/>
<defs>
<linearGradient id="paint0_linear_5835_33417" x1="1.29592e-07" y1="43.875" x2="52.0178" y2="45.0112" gradientUnits="userSpaceOnUse">
<stop stop-color="#39B5D7"/>
<stop offset="0.502211" stop-color="#F7D544"/>
<stop offset="1" stop-color="#E38330"/>
</linearGradient>
</defs>
</svg>
