<svg width="60" height="61" viewBox="0 0 60 61" fill="none" xmlns="http://www.w3.org/2000/svg">
<circle cx="30" cy="30.311" r="30" fill="url(#paint0_linear_8608_74362)"/>
<path d="M38.25 22.061H21.75C21.3522 22.061 20.9706 22.2191 20.6893 22.5004C20.408 22.7817 20.25 23.1632 20.25 23.561V37.061C20.25 37.4589 20.408 37.8404 20.6893 38.1217C20.9706 38.403 21.3522 38.561 21.75 38.561H38.25C38.6478 38.561 39.0294 38.403 39.3107 38.1217C39.592 37.8404 39.75 37.4589 39.75 37.061V23.561C39.75 23.1632 39.592 22.7817 39.3107 22.5004C39.0294 22.2191 38.6478 22.061 38.25 22.061ZM26.25 36.311H23.25C23.0511 36.311 22.8603 36.232 22.7197 36.0914C22.579 35.9507 22.5 35.7599 22.5 35.561V32.561C22.5 32.3621 22.579 32.1714 22.7197 32.0307C22.8603 31.8901 23.0511 31.811 23.25 31.811C23.4489 31.811 23.6397 31.8901 23.7803 32.0307C23.921 32.1714 24 32.3621 24 32.561V34.811H26.25C26.4489 34.811 26.6397 34.8901 26.7803 35.0307C26.921 35.1714 27 35.3621 27 35.561C27 35.7599 26.921 35.9507 26.7803 36.0914C26.6397 36.232 26.4489 36.311 26.25 36.311ZM37.5 28.061C37.5 28.2599 37.421 28.4507 37.2803 28.5914C37.1397 28.732 36.9489 28.811 36.75 28.811C36.5511 28.811 36.3603 28.732 36.2197 28.5914C36.079 28.4507 36 28.2599 36 28.061V25.811H33.75C33.5511 25.811 33.3603 25.732 33.2197 25.5914C33.079 25.4507 33 25.2599 33 25.061C33 24.8621 33.079 24.6714 33.2197 24.5307C33.3603 24.3901 33.5511 24.311 33.75 24.311H36.75C36.9489 24.311 37.1397 24.3901 37.2803 24.5307C37.421 24.6714 37.5 24.8621 37.5 25.061V28.061Z" fill="white"/>
<defs>
<linearGradient id="paint0_linear_8608_74362" x1="60" y1="22.5691" x2="-5.27627" y2="10.9235" gradientUnits="userSpaceOnUse">
<stop stop-color="#F7D344"/>
<stop offset="1" stop-color="#E38330"/>
</linearGradient>
</defs>
</svg>
