<svg width="64" height="65" viewBox="0 0 64 65" fill="none" xmlns="http://www.w3.org/2000/svg">
<circle cx="32" cy="32.689" r="31" fill="white" stroke="#E5E5E5" stroke-width="2"/>
<path d="M40.25 23.75H23.75C23.3522 23.75 22.9706 23.908 22.6893 24.1893C22.408 24.4706 22.25 24.8522 22.25 25.25V38.75C22.25 39.1478 22.408 39.5294 22.6893 39.8107C22.9706 40.092 23.3522 40.25 23.75 40.25H40.25C40.6478 40.25 41.0294 40.092 41.3107 39.8107C41.592 39.5294 41.75 39.1478 41.75 38.75V25.25C41.75 24.8522 41.592 24.4706 41.3107 24.1893C41.0294 23.908 40.6478 23.75 40.25 23.75ZM28.25 38H25.25C25.0511 38 24.8603 37.921 24.7197 37.7803C24.579 37.6397 24.5 37.4489 24.5 37.25V34.25C24.5 34.0511 24.579 33.8603 24.7197 33.7197C24.8603 33.579 25.0511 33.5 25.25 33.5C25.4489 33.5 25.6397 33.579 25.7803 33.7197C25.921 33.8603 26 34.0511 26 34.25V36.5H28.25C28.4489 36.5 28.6397 36.579 28.7803 36.7197C28.921 36.8603 29 37.0511 29 37.25C29 37.4489 28.921 37.6397 28.7803 37.7803C28.6397 37.921 28.4489 38 28.25 38ZM39.5 29.75C39.5 29.9489 39.421 30.1397 39.2803 30.2803C39.1397 30.421 38.9489 30.5 38.75 30.5C38.5511 30.5 38.3603 30.421 38.2197 30.2803C38.079 30.1397 38 29.9489 38 29.75V27.5H35.75C35.5511 27.5 35.3603 27.421 35.2197 27.2803C35.079 27.1397 35 26.9489 35 26.75C35 26.5511 35.079 26.3603 35.2197 26.2197C35.3603 26.079 35.5511 26 35.75 26H38.75C38.9489 26 39.1397 26.079 39.2803 26.2197C39.421 26.3603 39.5 26.5511 39.5 26.75V29.75Z" fill="#D4D4D4"/>
</svg>
