<svg width="40" height="40" viewBox="0 0 40 40" fill="none" xmlns="http://www.w3.org/2000/svg">
<rect x="0.6" y="0.6" width="38.8" height="38.8" rx="19.4" stroke="url(#paint0_linear_11876_7067)" stroke-width="1.2"/>
<path d="M28.75 26.25H27.5V17.5C27.5 17.1684 27.3683 16.8505 27.1339 16.6161C26.8995 16.3817 26.5815 16.25 26.25 16.25H21.25V12.5C21.2501 12.2736 21.1888 12.0515 21.0726 11.8572C20.9563 11.663 20.7895 11.504 20.59 11.3971C20.3904 11.2903 20.1656 11.2397 19.9395 11.2506C19.7134 11.2616 19.4945 11.3337 19.3063 11.4593L13.0562 15.625C12.8848 15.7393 12.7443 15.8944 12.6472 16.0762C12.5502 16.258 12.4996 16.461 12.5 16.6671V26.25H11.25C11.0842 26.25 10.9253 26.3158 10.8081 26.433C10.6908 26.5502 10.625 26.7092 10.625 26.875C10.625 27.0407 10.6908 27.1997 10.8081 27.3169C10.9253 27.4341 11.0842 27.5 11.25 27.5H28.75C28.9158 27.5 29.0747 27.4341 29.1919 27.3169C29.3092 27.1997 29.375 27.0407 29.375 26.875C29.375 26.7092 29.3092 26.5502 29.1919 26.433C29.0747 26.3158 28.9158 26.25 28.75 26.25ZM26.25 17.5V26.25H21.25V17.5H26.25ZM13.75 16.6671L20 12.5V26.25H13.75V16.6671ZM18.75 18.75V20C18.75 20.1657 18.6842 20.3247 18.5669 20.4419C18.4497 20.5591 18.2908 20.625 18.125 20.625C17.9592 20.625 17.8003 20.5591 17.6831 20.4419C17.5658 20.3247 17.5 20.1657 17.5 20V18.75C17.5 18.5842 17.5658 18.4252 17.6831 18.308C17.8003 18.1908 17.9592 18.125 18.125 18.125C18.2908 18.125 18.4497 18.1908 18.5669 18.308C18.6842 18.4252 18.75 18.5842 18.75 18.75ZM16.25 18.75V20C16.25 20.1657 16.1842 20.3247 16.0669 20.4419C15.9497 20.5591 15.7908 20.625 15.625 20.625C15.4592 20.625 15.3003 20.5591 15.1831 20.4419C15.0658 20.3247 15 20.1657 15 20V18.75C15 18.5842 15.0658 18.4252 15.1831 18.308C15.3003 18.1908 15.4592 18.125 15.625 18.125C15.7908 18.125 15.9497 18.1908 16.0669 18.308C16.1842 18.4252 16.25 18.5842 16.25 18.75ZM16.25 23.125V24.375C16.25 24.5407 16.1842 24.6997 16.0669 24.8169C15.9497 24.9341 15.7908 25 15.625 25C15.4592 25 15.3003 24.9341 15.1831 24.8169C15.0658 24.6997 15 24.5407 15 24.375V23.125C15 22.9592 15.0658 22.8002 15.1831 22.683C15.3003 22.5658 15.4592 22.5 15.625 22.5C15.7908 22.5 15.9497 22.5658 16.0669 22.683C16.1842 22.8002 16.25 22.9592 16.25 23.125ZM18.75 23.125V24.375C18.75 24.5407 18.6842 24.6997 18.5669 24.8169C18.4497 24.9341 18.2908 25 18.125 25C17.9592 25 17.8003 24.9341 17.6831 24.8169C17.5658 24.6997 17.5 24.5407 17.5 24.375V23.125C17.5 22.9592 17.5658 22.8002 17.6831 22.683C17.8003 22.5658 17.9592 22.5 18.125 22.5C18.2908 22.5 18.4497 22.5658 18.5669 22.683C18.6842 22.8002 18.75 22.9592 18.75 23.125Z" fill="#090909"/>
<defs>
<linearGradient id="paint0_linear_11876_7067" x1="9.9686e-08" y1="33.75" x2="40.0137" y2="34.624" gradientUnits="userSpaceOnUse">
<stop stop-color="#39B5D7"/>
<stop offset="0.502211" stop-color="#F7D544"/>
<stop offset="1" stop-color="#E38330"/>
</linearGradient>
</defs>
</svg>
