<svg width="40" height="40" viewBox="0 0 40 40" fill="none" xmlns="http://www.w3.org/2000/svg">
<rect x="0.6" y="0.6" width="38.8" height="38.8" rx="19.4" stroke="url(#paint0_linear_11876_7056)" stroke-width="1.2"/>
<path d="M21.875 17.5H18.125C17.9592 17.5 17.8003 17.5658 17.6831 17.6831C17.5658 17.8003 17.5 17.9592 17.5 18.125V21.875C17.5 22.0408 17.5658 22.1997 17.6831 22.3169C17.8003 22.4342 17.9592 22.5 18.125 22.5H21.875C22.0408 22.5 22.1997 22.4342 22.3169 22.3169C22.4342 22.1997 22.5 22.0408 22.5 21.875V18.125C22.5 17.9592 22.4342 17.8003 22.3169 17.6831C22.1997 17.5658 22.0408 17.5 21.875 17.5ZM21.25 21.25H18.75V18.75H21.25V21.25ZM28.125 21.25H26.875V18.75H28.125C28.2908 18.75 28.4497 18.6842 28.5669 18.5669C28.6842 18.4497 28.75 18.2908 28.75 18.125C28.75 17.9592 28.6842 17.8003 28.5669 17.6831C28.4497 17.5658 28.2908 17.5 28.125 17.5H26.875V14.375C26.875 14.0435 26.7433 13.7255 26.5089 13.4911C26.2745 13.2567 25.9565 13.125 25.625 13.125H22.5V11.875C22.5 11.7092 22.4342 11.5503 22.3169 11.4331C22.1997 11.3158 22.0408 11.25 21.875 11.25C21.7092 11.25 21.5503 11.3158 21.4331 11.4331C21.3158 11.5503 21.25 11.7092 21.25 11.875V13.125H18.75V11.875C18.75 11.7092 18.6842 11.5503 18.5669 11.4331C18.4497 11.3158 18.2908 11.25 18.125 11.25C17.9592 11.25 17.8003 11.3158 17.6831 11.4331C17.5658 11.5503 17.5 11.7092 17.5 11.875V13.125H14.375C14.0435 13.125 13.7255 13.2567 13.4911 13.4911C13.2567 13.7255 13.125 14.0435 13.125 14.375V17.5H11.875C11.7092 17.5 11.5503 17.5658 11.4331 17.6831C11.3158 17.8003 11.25 17.9592 11.25 18.125C11.25 18.2908 11.3158 18.4497 11.4331 18.5669C11.5503 18.6842 11.7092 18.75 11.875 18.75H13.125V21.25H11.875C11.7092 21.25 11.5503 21.3158 11.4331 21.4331C11.3158 21.5503 11.25 21.7092 11.25 21.875C11.25 22.0408 11.3158 22.1997 11.4331 22.3169C11.5503 22.4342 11.7092 22.5 11.875 22.5H13.125V25.625C13.125 25.9565 13.2567 26.2745 13.4911 26.5089C13.7255 26.7433 14.0435 26.875 14.375 26.875H17.5V28.125C17.5 28.2908 17.5658 28.4497 17.6831 28.5669C17.8003 28.6842 17.9592 28.75 18.125 28.75C18.2908 28.75 18.4497 28.6842 18.5669 28.5669C18.6842 28.4497 18.75 28.2908 18.75 28.125V26.875H21.25V28.125C21.25 28.2908 21.3158 28.4497 21.4331 28.5669C21.5503 28.6842 21.7092 28.75 21.875 28.75C22.0408 28.75 22.1997 28.6842 22.3169 28.5669C22.4342 28.4497 22.5 28.2908 22.5 28.125V26.875H25.625C25.9565 26.875 26.2745 26.7433 26.5089 26.5089C26.7433 26.2745 26.875 25.9565 26.875 25.625V22.5H28.125C28.2908 22.5 28.4497 22.4342 28.5669 22.3169C28.6842 22.1997 28.75 22.0408 28.75 21.875C28.75 21.7092 28.6842 21.5503 28.5669 21.4331C28.4497 21.3158 28.2908 21.25 28.125 21.25ZM25.625 25.625H14.375V14.375H25.625V21.8648C25.625 21.8648 25.625 21.8719 25.625 21.875C25.625 21.8781 25.625 21.882 25.625 21.8852V25.625Z" fill="#090909"/>
<defs>
<linearGradient id="paint0_linear_11876_7056" x1="9.9686e-08" y1="33.75" x2="40.0137" y2="34.624" gradientUnits="userSpaceOnUse">
<stop stop-color="#39B5D7"/>
<stop offset="0.502211" stop-color="#F7D544"/>
<stop offset="1" stop-color="#E38330"/>
</linearGradient>
</defs>
</svg>
