<svg width="40" height="40" viewBox="0 0 40 40" fill="none" xmlns="http://www.w3.org/2000/svg">
<rect x="0.6" y="0.6" width="38.8" height="38.8" rx="19.4" stroke="url(#paint0_linear_11876_7034)" stroke-width="1.2"/>
<path d="M25.0391 23.3961C25.8294 22.7322 26.4608 21.8995 26.8867 20.9593C27.3126 20.019 27.5222 18.9952 27.5 17.9633C27.4219 14.3922 24.5617 11.4477 20.9969 11.2602C20.0771 11.2101 19.1566 11.3454 18.2901 11.658C17.4236 11.9706 16.6288 12.4541 15.9528 13.0799C15.2769 13.7056 14.7335 14.4609 14.3551 15.3007C13.9767 16.1405 13.7709 17.0478 13.75 17.9688L11.9961 21.3422C11.9891 21.3563 11.982 21.3703 11.9758 21.3844C11.85 21.6775 11.8411 22.0075 11.9507 22.307C12.0604 22.6065 12.2803 22.8527 12.5656 22.9953L12.5851 23.0039L14.375 23.8234V26.25C14.375 26.5815 14.5067 26.8995 14.7411 27.1339C14.9755 27.3683 15.2935 27.5 15.625 27.5H19.375C19.5408 27.5 19.6997 27.4342 19.8169 27.3169C19.9341 27.1997 20 27.0408 20 26.875C20 26.7092 19.9341 26.5503 19.8169 26.4331C19.6997 26.3159 19.5408 26.25 19.375 26.25H15.625V23.4227C15.6251 23.3029 15.5907 23.1856 15.5261 23.0847C15.4614 22.9839 15.3691 22.9038 15.2601 22.8539L13.125 21.875L14.9273 18.4109C14.9743 18.3229 14.9992 18.2248 15 18.125C14.9998 16.8503 15.4326 15.6133 16.2275 14.6167C17.0223 13.6201 18.1321 12.9231 19.375 12.6398V13.8578C18.958 14.0053 18.6065 14.2954 18.3827 14.6769C18.1589 15.0584 18.0772 15.5067 18.152 15.9427C18.2268 16.3786 18.4533 16.774 18.7915 17.0591C19.1296 17.3442 19.5577 17.5006 20 17.5006C20.4423 17.5006 20.8704 17.3442 21.2085 17.0591C21.5467 16.774 21.7732 16.3786 21.848 15.9427C21.9228 15.5067 21.8411 15.0584 21.6173 14.6769C21.3935 14.2954 21.042 14.0053 20.625 13.8578V12.5C20.7266 12.5 20.8281 12.5 20.9297 12.5078C22.038 12.5713 23.103 12.9602 23.9915 13.6258C24.88 14.2914 25.5526 15.2042 25.925 16.25H24.375C24.2833 16.25 24.1927 16.2701 24.1097 16.309C24.0267 16.3479 23.9532 16.4046 23.8945 16.475L21.9016 18.8672C21.4859 18.7123 21.0289 18.7094 20.6113 18.859C20.1937 19.0086 19.8425 19.3011 19.6197 19.6846C19.397 20.0682 19.3171 20.5182 19.3941 20.9551C19.4712 21.3919 19.7002 21.7874 20.0407 22.0716C20.3813 22.3559 20.8113 22.5105 21.2549 22.5082C21.6985 22.506 22.1269 22.3469 22.4645 22.0592C22.8021 21.7714 23.0271 21.3736 23.0996 20.936C23.1722 20.4984 23.0876 20.0492 22.8609 19.668L24.668 17.5H26.2141C26.2328 17.6625 26.2443 17.8266 26.2484 17.9922C26.2679 18.8874 26.0742 19.7744 25.6832 20.5799C25.2923 21.3854 24.7153 22.0864 24 22.625C23.9118 22.6911 23.8427 22.7793 23.7997 22.8807C23.7566 22.9821 23.7411 23.093 23.7547 23.2024L24.3797 28.2024C24.3987 28.3533 24.4721 28.4921 24.5862 28.5928C24.7002 28.6935 24.8471 28.7491 24.9992 28.7492C25.0253 28.7492 25.0514 28.7477 25.0773 28.7445C25.1588 28.7344 25.2375 28.7083 25.3089 28.6677C25.3802 28.6272 25.4429 28.573 25.4933 28.5082C25.5438 28.4434 25.5809 28.3693 25.6027 28.2902C25.6245 28.211 25.6305 28.1283 25.6203 28.0469L25.0391 23.3961ZM20 16.25C19.8764 16.25 19.7555 16.2133 19.6528 16.1447C19.55 16.076 19.4699 15.9784 19.4226 15.8642C19.3753 15.75 19.3629 15.6243 19.387 15.5031C19.4111 15.3818 19.4706 15.2705 19.558 15.1831C19.6455 15.0957 19.7568 15.0361 19.8781 15.012C19.9993 14.9879 20.125 15.0003 20.2392 15.0476C20.3534 15.0949 20.451 15.175 20.5197 15.2778C20.5883 15.3806 20.625 15.5014 20.625 15.625C20.625 15.7908 20.5591 15.9497 20.4419 16.0669C20.3247 16.1842 20.1658 16.25 20 16.25ZM21.25 21.25C21.1264 21.25 21.0055 21.2134 20.9028 21.1447C20.8 21.076 20.7199 20.9784 20.6726 20.8642C20.6253 20.75 20.6129 20.6243 20.637 20.5031C20.6611 20.3818 20.7206 20.2705 20.808 20.1831C20.8955 20.0957 21.0068 20.0361 21.1281 20.012C21.2493 19.9879 21.375 20.0003 21.4892 20.0476C21.6034 20.0949 21.701 20.175 21.7697 20.2778C21.8383 20.3806 21.875 20.5014 21.875 20.625C21.875 20.7908 21.8091 20.9497 21.6919 21.0669C21.5747 21.1842 21.4158 21.25 21.25 21.25Z" fill="#090909"/>
<defs>
<linearGradient id="paint0_linear_11876_7034" x1="9.9686e-08" y1="33.75" x2="40.0137" y2="34.624" gradientUnits="userSpaceOnUse">
<stop stop-color="#39B5D7"/>
<stop offset="0.502211" stop-color="#F7D544"/>
<stop offset="1" stop-color="#E38330"/>
</linearGradient>
</defs>
</svg>
