<svg width="200" height="35" viewBox="0 0 200 35" fill="none" xmlns="http://www.w3.org/2000/svg">
<g style="mix-blend-mode:luminosity">
<path d="M16.9636 0.423125C16.7088 0.478452 16.4308 0.533779 16.3415 0.550051C16.1827 0.579342 16.0999 0.602124 15.8021 0.693251C15.7061 0.722542 15.6035 0.745324 15.5704 0.745324C15.534 0.745324 15.4645 0.768105 15.4116 0.794142C15.362 0.820178 15.2925 0.84296 15.2627 0.84296C15.2031 0.84296 14.9384 0.924323 14.7696 0.992668C14.71 1.0187 14.6372 1.03823 14.6108 1.03823C14.581 1.03823 14.5115 1.05776 14.4552 1.0838C14.3957 1.10658 14.2831 1.15214 14.2004 1.18469C13.6974 1.3767 13.7305 1.35392 13.7669 1.47759C13.8364 1.70216 13.9026 1.93974 13.9224 2.04714C13.9324 2.10897 13.9555 2.17406 13.9688 2.19359C13.982 2.20986 14.0019 2.28472 14.0151 2.35632C14.0283 2.42792 14.0515 2.5223 14.068 2.56786C14.0813 2.61343 14.1177 2.73059 14.1475 2.82822C14.1739 2.92586 14.2236 3.10161 14.2567 3.21551C14.3195 3.43357 14.3692 3.48239 14.4685 3.42055C14.5016 3.39777 14.5479 3.3815 14.571 3.3815C14.6207 3.3815 14.9847 3.2383 15.0178 3.20575C15.0277 3.19599 15.0641 3.18622 15.0972 3.18622C15.1303 3.18622 15.2064 3.1667 15.266 3.14066C15.4381 3.06906 16.0139 2.89332 16.0768 2.89332C16.1098 2.89332 16.1793 2.87053 16.2323 2.8445C16.2819 2.81846 16.3514 2.79568 16.3812 2.79568C16.4143 2.79568 16.5037 2.77615 16.5864 2.75012C17.2879 2.53532 17.6255 2.53532 18.3866 2.75337C18.4793 2.77615 18.6282 2.81846 18.7175 2.8445C19.108 2.9519 19.5846 3.09835 19.6871 3.14066C19.7467 3.1667 19.8228 3.18622 19.8526 3.18622C19.8857 3.18622 19.9254 3.19924 19.9453 3.21226C19.9751 3.2383 20.2332 3.33919 20.4648 3.4173C20.6038 3.46611 20.6534 3.43357 20.6534 3.29362C20.6534 3.25457 20.6667 3.21551 20.6832 3.20575C20.6998 3.19273 20.7229 3.12439 20.7362 3.04628C20.7494 2.97142 20.7759 2.85101 20.8024 2.77941C20.8255 2.70781 20.8719 2.55484 20.9016 2.43768C20.9347 2.32052 20.9811 2.16105 21.0042 2.07968C21.0241 1.99832 21.077 1.82257 21.1134 1.68914C21.1531 1.5557 21.1829 1.42552 21.1829 1.40274C21.1829 1.36368 21.0373 1.28883 20.7693 1.19119C20.6965 1.16516 20.5773 1.12285 20.5045 1.09356C20.2398 0.995923 19.7401 0.84296 19.6871 0.84296C19.6574 0.84296 19.5912 0.820178 19.5415 0.794142C19.4886 0.768105 19.4125 0.745324 19.3695 0.745324C19.3264 0.745324 19.2636 0.729051 19.2272 0.712778C19.1941 0.693251 19.1014 0.66396 19.0253 0.647688C18.9459 0.631415 18.7804 0.59236 18.6514 0.566324C18.2675 0.478452 17.4799 0.322234 17.4501 0.325489C17.4369 0.325489 17.2184 0.371052 16.9636 0.423125Z" fill="white"/>
<path d="M12.6946 1.777C12.6417 1.80629 12.5722 1.84209 12.5457 1.85837C12.5192 1.87138 12.4729 1.89417 12.4464 1.90393C12.3604 1.93647 11.7449 2.2424 11.5364 2.35631C11.4272 2.41489 11.2849 2.493 11.222 2.52554C11.0168 2.6362 10.8448 2.73383 10.7521 2.78916C10.3252 3.04952 9.79572 3.38474 9.66666 3.47912C9.58062 3.54096 9.47473 3.61581 9.43502 3.64185C9.1802 3.81109 8.28009 4.49779 8.06499 4.68655L7.93262 4.80697L8.06168 4.95343C8.20067 5.10964 8.45548 5.38953 9.02798 6.02417C9.21991 6.23571 9.3953 6.4082 9.41847 6.4082C9.44163 6.4082 9.51775 6.35613 9.58724 6.29429C9.90162 6.01115 11.3908 4.95017 11.6522 4.81999C11.6985 4.80046 11.8011 4.73863 11.8839 4.6833C11.9666 4.63123 12.0626 4.57265 12.1023 4.55637C12.1387 4.5401 12.2677 4.4685 12.3836 4.40016C12.4994 4.33181 12.8005 4.17559 13.052 4.05192C13.3035 3.92825 13.5054 3.81109 13.5054 3.78505C13.5054 3.75901 13.4657 3.61256 13.4193 3.45634C13.3697 3.29687 13.3267 3.13414 13.3168 3.08858C13.3068 3.04302 13.2572 2.86076 13.2042 2.68176C13.148 2.50276 13.0818 2.27495 13.0553 2.17731C12.9395 1.76724 12.9263 1.73795 12.8601 1.73144C12.8237 1.72493 12.7509 1.74771 12.6946 1.777Z" fill="white"/>
<path d="M21.9937 1.75097C21.9838 1.76724 21.9606 1.84535 21.9441 1.92346C21.9276 2.00156 21.8912 2.14476 21.8647 2.2424C21.8382 2.34004 21.7985 2.48649 21.7786 2.56785C21.7588 2.64922 21.729 2.73709 21.7125 2.76638C21.6959 2.79567 21.6727 2.87703 21.6595 2.94538C21.6496 3.01698 21.5966 3.20249 21.5437 3.36521C21.3915 3.82736 21.3749 3.79481 21.9044 4.05192C22.1526 4.17559 22.4637 4.33832 22.5927 4.41317C22.7218 4.49128 22.8376 4.55312 22.8475 4.55312C22.8575 4.55312 22.9534 4.60845 23.0593 4.67679C23.1652 4.74839 23.291 4.82325 23.3439 4.84928C23.6053 4.97946 25.1739 6.10879 25.3692 6.30406C25.4254 6.35939 25.4916 6.4082 25.5214 6.4082C25.5677 6.4082 25.7431 6.22595 26.213 5.68895C26.3123 5.57504 26.491 5.37977 26.6035 5.25284C26.7193 5.12917 26.8583 4.97295 26.9113 4.90786L27.0039 4.7907L26.8683 4.68005C26.7921 4.61821 26.6763 4.52383 26.6134 4.47176C26.5142 4.38714 26.0409 4.01938 25.9317 3.94127C25.7332 3.80132 25.5644 3.67765 25.3791 3.54421C25.2567 3.45309 25.1508 3.38149 25.1408 3.38149C25.1309 3.38149 25.0316 3.31965 24.9158 3.24154C24.6411 3.06254 24.6478 3.06905 24.1282 2.76313C23.5656 2.43116 23.6517 2.47673 22.7714 2.03086C22.2122 1.74771 22.0368 1.68262 21.9937 1.75097Z" fill="white"/>
<path d="M17.42 3.55114C17.3439 3.64878 17.2744 3.97097 17.2744 4.23785C17.2711 4.39406 17.2546 4.53076 17.238 4.54052C17.2182 4.55354 17.1321 4.48845 17.0461 4.39732C16.7218 4.05559 16.2883 3.87659 15.8746 3.91565C15.5569 3.94494 15.4312 3.97097 15.3915 4.01654C15.365 4.04908 15.3915 4.07187 15.5106 4.11092C15.5966 4.14021 15.6926 4.16299 15.7191 4.16299C15.7919 4.16625 16.2949 4.41685 16.5166 4.56005C16.6159 4.62514 16.7483 4.73254 16.8111 4.79437C16.9071 4.89201 16.917 4.91154 16.8707 4.93106C16.8376 4.94083 16.7946 4.93757 16.7714 4.91804C16.7218 4.87574 16.5133 4.80088 16.2055 4.70975C16.0169 4.65443 15.9077 4.64792 15.5437 4.65768C15.13 4.66745 15.1003 4.67395 14.8852 4.7781C14.7627 4.83994 14.6105 4.94408 14.5476 5.01243C14.4152 5.15888 14.3954 5.22723 14.5079 5.16539C14.5608 5.1361 14.8322 5.12633 15.5238 5.12633H16.467L16.6159 5.21421C16.6986 5.26302 16.7516 5.30208 16.7317 5.30208C16.4934 5.30533 16.1228 5.38019 15.9474 5.4583C15.6595 5.58522 15.2955 5.98553 15.4676 5.98553C15.4907 5.98553 15.5238 5.97251 15.5437 5.95624C15.6132 5.89115 16.1857 5.72842 16.4273 5.70564C16.649 5.68611 16.6821 5.68937 16.6821 5.73493C16.6821 5.76422 16.6391 5.80979 16.5861 5.83908C16.4438 5.91068 16.2949 6.145 16.2684 6.34028C16.2552 6.4314 16.2552 6.50626 16.2651 6.50626C16.2783 6.50626 16.3379 6.45744 16.3975 6.39886C16.6027 6.20359 16.7152 6.11246 16.8575 6.04737C16.9336 6.01157 17.0229 5.966 17.0527 5.94973C17.1288 5.91068 17.1321 5.91068 17.1917 5.97251C17.238 6.01808 17.2446 6.19708 17.2446 7.45984C17.248 8.54685 17.2579 8.91136 17.2877 8.94716C17.3274 8.99597 17.6285 9.20752 17.6583 9.20752C17.6682 9.20752 17.6748 8.48501 17.6748 7.59978C17.6748 5.80002 17.6682 5.8586 17.8933 5.96275C17.9561 5.9953 18.0223 6.01808 18.0422 6.01808C18.0918 6.01808 18.2937 6.16779 18.4757 6.33702C18.5584 6.41513 18.6445 6.47046 18.661 6.46069C18.714 6.42815 18.6709 6.21009 18.5816 6.07666C18.5386 6.01157 18.4525 5.91719 18.3863 5.86511C18.3235 5.8163 18.2705 5.75446 18.2705 5.72842C18.2705 5.62102 18.9886 5.76097 19.389 5.94322C19.5247 6.00506 19.5479 5.98553 19.4817 5.86511C19.4089 5.72517 19.2004 5.55268 18.9853 5.45179C18.8298 5.38019 18.4558 5.30533 18.2209 5.30208C18.2043 5.30208 18.254 5.26302 18.3367 5.21421L18.4856 5.12633H19.4288C20.127 5.12633 20.3917 5.1361 20.448 5.16539C20.5539 5.22397 20.5373 5.1719 20.4017 5.01568C20.1535 4.72928 19.6108 4.58283 19.0581 4.65117C18.7735 4.68372 18.6114 4.72603 18.4591 4.80088C18.4062 4.82692 18.34 4.84644 18.3069 4.84644C18.2771 4.84644 18.2209 4.86923 18.1845 4.89526C18.1183 4.93757 18.072 4.93106 18.072 4.87899C18.072 4.83343 18.2507 4.68046 18.4823 4.53076C18.7371 4.36477 19.1011 4.20205 19.4056 4.11417C19.5578 4.07187 19.5909 4.05234 19.5611 4.01654C19.5413 3.99376 19.4718 3.96447 19.4023 3.9547C18.7404 3.84405 18.3367 3.96121 17.9197 4.38105C17.8105 4.4917 17.7079 4.57632 17.698 4.5633C17.6848 4.55354 17.6748 4.40383 17.6715 4.23134C17.6715 3.79523 17.5292 3.41445 17.42 3.55114Z" fill="white"/>
<path d="M21.1728 4.70309C21.1629 4.71611 21.1728 4.77469 21.1993 4.83653C21.3118 5.10015 21.239 5.43862 21.0206 5.65016C20.9345 5.73803 20.597 5.92029 20.5242 5.92029C20.5076 5.92029 20.4779 5.94307 20.4547 5.9691C20.4315 5.99514 20.3918 6.01792 20.3687 6.01792C20.2197 6.01792 19.4752 6.62978 19.1442 7.02357C19.045 7.14074 18.9457 7.26116 18.9225 7.28719C18.8133 7.41412 18.6975 7.58986 18.5684 7.81768C18.4923 7.95762 18.4096 8.06828 18.3798 8.06828C18.3533 8.06828 18.264 8.00644 18.1846 7.92834C18.1018 7.85348 18.0191 7.79165 17.9992 7.79165C17.9728 7.79165 17.9628 7.93159 17.9661 8.24728C17.9695 8.64433 17.9761 8.70617 18.029 8.74522C18.0985 8.79404 18.1018 9.00233 18.0356 9.20086C18.0125 9.26595 17.986 9.40915 17.9761 9.51655C17.9628 9.65324 17.943 9.71507 17.9066 9.72158C17.8801 9.72484 17.7742 9.65324 17.6749 9.56211C17.3572 9.27246 16.606 8.83635 16.3016 8.76475C16.2486 8.75173 16.1858 8.7322 16.1692 8.71593C16.1494 8.70291 16.0666 8.68013 15.9872 8.66711C15.9045 8.65735 15.7556 8.62481 15.6563 8.60202C15.4114 8.54019 14.5609 8.54019 14.2697 8.60528C14.1506 8.63131 13.962 8.66711 13.8527 8.68339C13.5748 8.72569 13.2869 8.79729 12.6945 8.96653C11.8143 9.22364 11.298 9.28873 10.9307 9.19109C10.7123 9.13251 10.431 8.97955 10.3119 8.84937C10.249 8.78102 10.2655 8.69966 10.388 8.4751C10.4277 8.40024 10.4409 8.28633 10.4409 7.98692V7.59637L10.3085 7.35879C10.1431 7.05287 10.0968 7.02683 9.92467 7.14399C9.5772 7.38157 9.33563 7.85348 9.33563 8.29935C9.33563 8.59226 9.52425 9.03813 9.75921 9.29198C9.88165 9.42542 10.2291 9.69555 10.2788 9.69555C10.292 9.69555 10.3648 9.72484 10.4409 9.75738C10.7189 9.88431 10.8645 9.90709 11.3642 9.90384C11.8076 9.90384 11.8507 9.90709 11.8507 9.96242C11.8507 9.99171 11.8076 10.0666 11.758 10.1251C11.6455 10.2553 11.3708 10.6947 11.3377 10.8053C11.3245 10.8477 11.2914 10.9127 11.2682 10.9485C11.2418 10.9843 11.2219 11.0429 11.2219 11.0852C11.2219 11.1243 11.2087 11.1633 11.1921 11.1731C11.1756 11.1861 11.1458 11.2642 11.1259 11.3489C11.1061 11.4335 11.0664 11.5734 11.0399 11.6645C11.0134 11.7524 10.9737 11.8924 10.9538 11.9737C10.9307 12.0551 10.8943 12.1657 10.8711 12.2243C10.8446 12.2796 10.8248 12.348 10.8248 12.3773C10.8248 12.4033 10.8049 12.4749 10.7785 12.5335C10.752 12.5921 10.709 12.693 10.6858 12.7548C10.431 13.4187 9.99748 13.9818 9.50109 14.2877C8.96499 14.6197 8.18401 14.6913 7.63137 14.4569C7.0721 14.2226 6.74449 13.8255 6.6055 13.217C6.54593 12.9566 6.54593 12.9371 6.6055 12.6311C6.71801 12.0388 6.93973 11.5962 7.30044 11.2382C7.50892 11.0299 7.73395 10.9062 8.0384 10.8314C8.19394 10.7923 8.24027 10.7956 8.45206 10.8477C8.95176 10.9746 9.28268 11.3228 9.34556 11.7817C9.37865 12.016 9.33894 12.0453 9.05434 11.9835C8.6804 11.9054 8.03178 11.9802 7.84647 12.1202C7.81999 12.143 7.77035 12.169 7.74057 12.1788C7.65453 12.208 7.66777 12.3187 7.76704 12.387C7.88949 12.4717 7.97884 12.5563 7.97884 12.5888C7.97884 12.6051 7.90934 12.6637 7.8233 12.719C7.50892 12.9175 7.39641 13.0445 7.48245 13.0965C7.5354 13.1291 7.87625 13.2104 7.96229 13.2104C8.06157 13.2104 8.1443 13.243 8.1443 13.2788C8.1443 13.2951 8.1079 13.3862 8.06157 13.4773C8.01524 13.5717 7.98545 13.6661 7.99207 13.6889C8.01855 13.7539 8.48515 13.7409 8.73996 13.6693C9.34225 13.4968 9.66324 13.1909 9.98424 12.4782C10.0306 12.374 10.0438 12.2601 10.0405 11.9086C10.0405 11.479 10.0372 11.4628 9.93129 11.2447C9.70295 10.7761 9.43821 10.4994 9.02787 10.2976C8.80615 10.1902 8.76975 10.1642 8.78298 10.1056C8.90543 9.62395 8.91535 9.53282 8.86241 9.28873C8.80946 9.0544 8.6473 8.71593 8.57781 8.69315C8.55465 8.68664 8.54141 8.74522 8.54141 8.85588C8.54141 8.95351 8.50501 9.13577 8.46199 9.2692C8.31307 9.71833 8.04502 9.99496 7.51554 10.2521C6.99599 10.5059 6.56248 10.9062 6.25141 11.4237C6.14882 11.5897 5.98998 11.9867 5.9602 12.1364C5.94365 12.2178 5.91718 12.3415 5.89732 12.4131C5.84437 12.6084 5.85099 13.2462 5.90725 13.4122C5.93372 13.4903 5.9635 13.601 5.97674 13.6628C5.98998 13.7247 6.03631 13.8418 6.08264 13.9232C6.2117 14.1608 6.18853 14.1998 5.89401 14.2226C5.46381 14.2584 5.09979 14.5123 4.87476 14.9321C4.71592 15.225 4.7457 15.251 5.05015 15.0948C5.18914 15.0265 5.32813 14.9679 5.36122 14.9679C5.39101 14.9679 5.43072 14.9549 5.44726 14.9386C5.50683 14.8865 5.87085 14.8377 6.18853 14.8377C6.56579 14.841 6.81067 14.8865 7.16807 15.0297C7.75381 15.2641 7.81668 15.2771 8.39249 15.2771C8.88557 15.2771 8.94183 15.2706 9.19995 15.1859C9.53418 15.0753 9.67317 15.0069 9.98093 14.8117C10.4078 14.5383 10.7718 14.1315 10.9869 13.6889C11.0366 13.5847 11.0829 13.5359 11.116 13.5424C11.1458 13.5489 11.2219 13.6563 11.2881 13.78C11.6356 14.4537 12.2047 14.9061 13.0585 15.1892C13.3067 15.2706 13.3597 15.2771 13.9189 15.2771C14.5775 15.2771 14.6602 15.2608 15.0474 15.0493C15.7986 14.6359 16.1858 13.7995 16.0071 12.9826C15.931 12.6344 15.7456 12.2862 15.5107 12.0583C15.3254 11.8728 15.3287 11.8338 15.5372 11.7296C15.6662 11.6645 15.921 11.4367 16.0269 11.2935C16.1427 11.1341 16.295 10.8086 16.2751 10.7565C16.2453 10.6849 16.0931 10.6914 15.8813 10.7695C15.653 10.8574 15.5603 10.8997 15.4478 10.9746C15.2989 11.0722 15.2592 11.0299 15.2592 10.7793C15.2592 10.5189 15.193 10.2228 15.1103 10.0959L15.0507 10.008L14.9382 10.1349C14.776 10.3204 14.6801 10.4994 14.6139 10.7337C14.5907 10.8151 14.5576 10.8867 14.5345 10.8932C14.5146 10.8997 14.455 10.8574 14.4054 10.7988C14.1373 10.4799 13.7634 10.2195 13.7071 10.3074C13.6575 10.3888 13.7038 10.8119 13.7932 11.0397C13.8395 11.1601 13.866 11.2707 13.8561 11.2805C13.8461 11.2935 13.7071 11.287 13.5483 11.2707C13.2405 11.2349 12.8434 11.2773 12.8203 11.3423C12.7905 11.427 13.2935 11.8761 13.4159 11.8761C13.4391 11.8761 13.492 11.9086 13.5384 11.9444C13.6178 12.0063 13.6178 12.0128 13.5615 12.0486C13.5284 12.0714 13.4126 12.143 13.3067 12.208C13.1148 12.3317 12.8203 12.6604 12.8567 12.7158C12.8898 12.7678 13.2538 12.7874 13.5549 12.7516C13.7171 12.7353 13.8594 12.732 13.8759 12.7483C13.8892 12.7613 13.8825 12.8329 13.8561 12.9013C13.7303 13.2593 13.6972 13.627 13.7866 13.6986C13.8792 13.7735 14.2432 13.4871 14.465 13.1649C14.5709 13.0119 14.6966 12.6832 14.6966 12.5595C14.6999 12.3447 14.8224 12.3545 15.0308 12.5856C15.193 12.7646 15.2757 12.9403 15.3254 13.2039C15.3882 13.5522 15.2493 13.959 14.968 14.2324C14.7727 14.4276 14.6337 14.496 14.3293 14.5611C14.0215 14.6229 13.9322 14.6229 13.5781 14.5578C13.2538 14.4992 13.0949 14.4374 12.7011 14.2291C12.6019 14.177 12.2511 13.8451 12.1253 13.6824C12.0128 13.5392 11.8573 13.2202 11.7712 12.9566C11.6951 12.7223 11.6918 11.9542 11.7646 11.7492C11.7944 11.671 11.8176 11.5799 11.8176 11.5474C11.8176 11.3749 12.2014 10.6719 12.4463 10.3888C12.8931 9.88105 13.3663 9.58815 14.0844 9.38311C14.3723 9.30175 15.2195 9.29849 15.5405 9.37986C15.9144 9.47424 16.3049 9.63371 16.5001 9.76715C16.9899 10.1089 17.3903 10.5482 17.6021 10.9811C17.7709 11.3163 17.8305 11.7524 17.7775 12.2178C17.7113 12.8101 17.5062 13.217 16.9965 13.78C16.6722 14.138 16.5564 14.3007 16.4207 14.5839C16.2222 15.0037 16.1626 15.251 16.1229 15.8141L16.103 16.1233H9.8982H3.69336L3.69998 16.0093C3.7066 15.8434 3.83566 15.2836 3.93494 14.9842C3.95148 14.9288 3.9945 14.7921 4.02429 14.675C4.05738 14.5578 4.13349 14.317 4.19637 14.138C4.25924 13.959 4.33205 13.7539 4.35521 13.6824C4.38168 13.6108 4.43132 13.4708 4.47103 13.3732C4.51075 13.2755 4.55377 13.1584 4.567 13.1128C4.58355 13.0672 4.63319 12.9468 4.68283 12.8492C4.72916 12.7483 4.76887 12.6572 4.76887 12.6442C4.76887 12.6311 4.83505 12.4879 4.91778 12.3252C5.00051 12.1625 5.0667 12.0193 5.0667 12.003C5.0667 11.99 5.10972 11.9021 5.16598 11.811C5.27849 11.6222 5.29173 11.5246 5.209 11.4986C5.14612 11.479 5.10641 11.4628 4.86153 11.3586C4.77549 11.3196 4.68614 11.2903 4.66297 11.2903C4.6365 11.2903 4.6034 11.2773 4.58686 11.261C4.567 11.2447 4.47103 11.1991 4.37176 11.1601C4.27248 11.121 4.14673 11.069 4.09047 11.0462C4.03752 11.0234 3.87206 10.9551 3.72645 10.8965C3.58085 10.8379 3.42862 10.7695 3.38891 10.7435C3.34589 10.7175 3.29294 10.7045 3.26647 10.7142C3.21683 10.7337 2.96533 11.2252 2.73368 11.7524C2.71052 11.811 2.66088 11.9249 2.62447 12.0063C2.55498 12.1592 2.46232 12.3936 2.29024 12.8524C2.23067 13.0054 2.16118 13.1779 2.13471 13.2365C2.11154 13.2951 2.08838 13.3602 2.08838 13.3829C2.08838 13.4318 1.89644 14.0403 1.83687 14.1803C1.8104 14.2389 1.79054 14.3202 1.79054 14.3593C1.79054 14.3983 1.77069 14.4862 1.74422 14.5611C1.69789 14.6913 1.63832 14.9321 1.54566 15.3747C1.51919 15.4984 1.47286 15.7132 1.44307 15.8466C1.39674 16.0679 1.39343 16.7644 1.40005 22.8764L1.40998 29.6621H17.4764H33.5428L33.5527 22.8764C33.5593 17.8058 33.5527 16.0549 33.5229 15.9443C33.5031 15.8629 33.4667 15.6937 33.4435 15.57C33.4203 15.4431 33.374 15.238 33.3442 15.1143C33.3144 14.9874 33.2747 14.8247 33.2582 14.7466C33.2449 14.6717 33.2152 14.5806 33.1953 14.5481C33.1788 14.5123 33.1622 14.4569 33.1622 14.4211C33.1622 14.3853 33.1225 14.2421 33.0762 14.1022C33.0298 13.9622 32.9769 13.793 32.9636 13.7312C32.9372 13.6238 32.7188 13.0152 32.5665 12.6246C32.4441 12.3057 32.3978 12.1885 32.368 12.0941C32.3514 12.0421 32.325 11.9835 32.3084 11.964C32.2919 11.9412 32.2654 11.8891 32.2522 11.8435C32.2389 11.798 32.1264 11.5539 32.0007 11.3C31.8749 11.0494 31.7723 10.8249 31.7723 10.8053C31.7723 10.7858 31.7425 10.7565 31.7094 10.737C31.6598 10.7142 31.587 10.7305 31.3851 10.8184C31.0377 10.9746 31.0211 10.9811 30.8126 11.0625C30.7134 11.0982 30.5942 11.1471 30.5479 11.1666C30.5016 11.1861 30.4155 11.2219 30.3593 11.2447C30.2997 11.2707 30.2004 11.3098 30.1442 11.3358C29.9622 11.4139 29.8066 11.479 29.7471 11.4986C29.6577 11.5246 29.6743 11.6027 29.8496 11.9574C29.939 12.1364 30.0317 12.335 30.0614 12.3968C30.0879 12.4586 30.1475 12.5921 30.1938 12.6897C30.3295 12.9794 30.4983 13.3992 30.6339 13.7963C30.6803 13.9297 30.7299 14.0696 30.7431 14.1054C30.7597 14.1412 30.7928 14.2519 30.8226 14.3495C30.8524 14.4472 30.9152 14.6522 30.9649 14.8052C31.0972 15.2348 31.2428 15.8531 31.2528 16.0256L31.2594 16.1233L25.0413 16.133C18.8563 16.1395 18.8199 16.1395 18.7504 16.0744C18.6677 15.9963 18.4956 15.6644 18.4228 15.4431C18.307 15.0851 18.3699 14.5383 18.5784 14.1315C18.6942 13.9134 18.8166 13.5652 18.8993 13.2528C18.9523 13.0412 18.9655 12.885 18.9655 12.4554C18.9655 11.8924 18.9788 11.9705 18.7273 11.0136C18.6346 10.6524 18.628 9.73135 18.7173 9.37009C18.8166 8.96328 18.9589 8.60853 19.217 8.13337C19.3428 7.9023 19.73 7.42714 19.998 7.17003C20.693 6.50285 21.5368 6.20994 22.3277 6.3564C22.4899 6.38894 22.6686 6.42799 22.7215 6.44752C22.8936 6.50936 23.1153 6.60374 23.1683 6.63628C23.1948 6.65581 23.2477 6.68185 23.2841 6.69812C23.5522 6.81854 24.0121 7.32625 24.2008 7.71028C24.482 8.28308 24.4887 9.04139 24.2206 9.47098C24.1114 9.64673 23.8533 9.87455 23.6547 9.96893C23.5422 10.021 23.4496 10.034 23.1517 10.034C22.8076 10.0373 22.7778 10.0308 22.609 9.93964C22.3906 9.82247 22.1093 9.5556 22.1093 9.46773C22.1093 9.40915 22.1325 9.40264 22.3674 9.40264C22.6024 9.40264 22.7381 9.37335 23.0359 9.26595C23.1617 9.22038 23.5025 9.00558 23.5621 8.93398C23.6514 8.82984 23.2709 8.68664 22.8969 8.68664C22.5991 8.68664 22.5362 8.65409 22.6024 8.54995C22.7381 8.34166 22.8076 8.17242 22.8539 7.96413C22.8936 7.77863 22.8936 7.7233 22.8605 7.70377C22.8043 7.66797 22.7612 7.67123 22.6884 7.7233C22.652 7.74608 22.5825 7.77537 22.5362 7.78514C22.4899 7.79815 22.3443 7.89579 22.2152 8.00319C22.0696 8.12035 21.9703 8.18219 21.9637 8.15941C21.9571 8.13663 21.9306 8.03573 21.9008 7.9381C21.8711 7.84046 21.838 7.7233 21.8247 7.67774C21.8115 7.63217 21.7685 7.5443 21.7288 7.48246C21.689 7.42063 21.6493 7.34252 21.6361 7.30997C21.5997 7.20908 21.5302 7.24488 21.421 7.42063C21.3813 7.48572 21.3482 7.56708 21.3482 7.60288C21.3482 7.63543 21.3316 7.68099 21.3085 7.70377C21.2886 7.7233 21.2622 7.84046 21.2522 7.96088C21.2291 8.22775 21.186 8.24728 21.0007 8.08455C20.8286 7.93484 20.5341 7.78514 20.3885 7.76886L20.2727 7.7591L20.276 7.90881C20.2826 8.06503 20.4382 8.42953 20.5738 8.60853C20.6168 8.66386 20.6433 8.71919 20.6301 8.72895C20.6202 8.74197 20.501 8.75173 20.3653 8.75173C20.041 8.75173 19.6274 8.88517 19.6274 8.99257C19.6307 9.07718 20.2297 9.40264 20.3852 9.40264C20.415 9.40264 20.458 9.41891 20.4812 9.44169C20.511 9.47098 20.4679 9.53282 20.3058 9.70205C20.094 9.92336 19.9054 10.2228 19.9418 10.2814C19.998 10.3725 20.544 10.2814 20.7955 10.1414C20.961 10.0503 21.2158 9.85176 21.2489 9.79318C21.3085 9.68578 21.4243 9.71182 21.4971 9.84851C21.6229 10.0828 21.9703 10.3985 22.2814 10.558C22.4402 10.6394 22.6156 10.7045 22.6686 10.7045C22.8043 10.7045 22.9366 10.7598 22.9366 10.8151C22.9366 10.8639 22.6851 10.9876 22.2748 11.1438C22.0332 11.2349 21.9439 11.2707 21.6096 11.4302C21.4342 11.5148 21.2787 11.5832 21.2622 11.5832C21.2456 11.5832 21.1893 11.606 21.1331 11.6352C20.9941 11.7101 20.4448 11.7101 20.3058 11.6352C20.2528 11.606 20.19 11.5832 20.1734 11.5832C20.1536 11.5832 20.0609 11.5148 19.9649 11.4335C19.869 11.3521 19.7763 11.2968 19.7564 11.3098C19.6969 11.3423 19.7399 11.7101 19.8193 11.8598C19.8888 11.9965 20.0113 12.1202 20.1668 12.2178C20.2164 12.2471 20.2561 12.2894 20.2561 12.3057C20.2561 12.3252 20.1966 12.4261 20.1238 12.527C19.9616 12.7646 19.9021 12.9013 19.8425 13.1909C19.7796 13.4806 19.7796 13.6238 19.8425 13.9102C20.0046 14.6717 20.6102 15.2185 21.3647 15.2803C22.0167 15.3357 22.6454 14.9939 22.9631 14.4146C22.9896 14.3691 23.026 14.2226 23.0491 14.0892C23.1219 13.627 22.9763 13.1323 22.6752 12.8264C22.5362 12.6897 22.4402 12.6507 22.4402 12.732C22.4402 12.7874 22.3476 12.9761 22.3112 12.9989C22.2946 13.0054 22.2119 12.9664 22.1259 12.9078C21.8247 12.706 21.7784 12.6832 21.7585 12.7385C21.7486 12.7646 21.7552 12.898 21.7718 13.038C21.7916 13.1746 21.7983 13.3016 21.7883 13.3178C21.7784 13.3341 21.6924 13.3374 21.5964 13.3244C21.5004 13.3146 21.4111 13.3178 21.4011 13.3341C21.378 13.3732 21.4872 13.6628 21.5997 13.8548C21.6493 13.9395 21.7685 14.0827 21.8644 14.1705C21.9637 14.2617 22.0431 14.3528 22.0431 14.3691C22.0431 14.4341 21.9306 14.4992 21.7221 14.5611C21.5269 14.6164 21.507 14.6164 21.3118 14.5611C21.057 14.4927 20.8915 14.3918 20.7625 14.2291C20.5474 13.9622 20.4779 13.7051 20.5308 13.3667C20.597 12.924 21.0768 12.4424 21.7784 12.1137C22.1854 11.9249 22.3013 11.8761 22.3476 11.8761C22.3741 11.8761 22.4237 11.8533 22.4601 11.8273C22.4932 11.8012 22.5428 11.7784 22.5627 11.7784C22.6024 11.7784 22.834 11.6808 23.1683 11.5246C23.2312 11.4953 23.347 11.4302 23.4264 11.3814C23.5058 11.3326 23.5985 11.2903 23.6382 11.2903C23.6944 11.2903 23.7011 11.3033 23.6812 11.3781C23.668 11.4302 23.6481 11.7589 23.6415 12.1169C23.6283 12.6442 23.6349 12.7906 23.6779 12.9208C23.7077 13.0054 23.7309 13.0998 23.7309 13.1258C23.7309 13.1519 23.7507 13.2235 23.7772 13.282C24.0386 13.8809 24.128 14.138 24.128 14.2942C24.128 14.6001 23.8996 15.0004 23.6382 15.1501C23.4429 15.2641 23.486 15.3064 23.7805 15.2836C24.0982 15.2608 24.3464 15.1436 24.5813 14.9093L24.76 14.7271L24.8494 14.7824C25.1108 14.9451 25.3822 15.0818 25.6237 15.1729C25.8951 15.2706 25.9017 15.2706 26.5603 15.2738C27.2188 15.2738 27.2254 15.2738 27.5861 15.1632C27.788 15.1046 27.9733 15.0427 27.9998 15.0297C28.3009 14.8735 29.1282 14.8312 29.5055 14.9484C29.7239 15.0167 30.0449 15.1599 30.0714 15.2022C30.0813 15.2152 30.1012 15.2283 30.121 15.2283C30.1773 15.2283 30.1508 15.0948 30.0482 14.88C29.9456 14.662 29.6842 14.3723 29.5187 14.2942C29.3169 14.1966 29.1249 14.1217 29.0753 14.1217C28.9859 14.1217 28.9826 14.0371 29.0654 13.8874C29.2077 13.64 29.2573 13.4318 29.2573 13.0998C29.2573 12.9306 29.2441 12.7808 29.2242 12.7711C29.2077 12.7613 29.1911 12.7223 29.1911 12.6865C29.1911 12.553 28.9562 12.1722 28.7642 11.9998C28.5326 11.7882 28.1487 11.5962 27.9038 11.5702C27.6358 11.5441 27.6093 11.5018 27.7053 11.2675C27.7747 11.1048 27.7847 11.0267 27.7814 10.7045C27.7814 10.4018 27.7681 10.3041 27.7152 10.1837L27.6457 10.0405L27.4968 10.187C27.3611 10.3204 27.1791 10.6361 27.1228 10.8249C27.093 10.9258 27.0236 10.9193 26.9507 10.8119C26.7787 10.558 26.322 10.1967 26.2558 10.2618C26.2426 10.2749 26.2293 10.3953 26.2326 10.5255C26.2326 10.7565 26.2724 10.9388 26.3617 11.1471C26.3882 11.2057 26.3981 11.261 26.3882 11.2707C26.3518 11.3033 26.2293 11.2935 26.1863 11.2512C26.1433 11.2089 25.5708 11.1731 25.4351 11.2057C25.3855 11.2187 25.3524 11.248 25.3524 11.287C25.3524 11.4074 25.7793 11.8045 25.9911 11.8858C26.0208 11.8956 26.0473 11.9379 26.0473 11.9737C26.0473 12.0095 26.0208 12.0486 25.9911 12.0583C25.958 12.0681 25.9083 12.0909 25.8819 12.1072C25.8554 12.1234 25.7991 12.1495 25.7561 12.169C25.6668 12.2048 25.3623 12.4814 25.316 12.566C25.2928 12.6116 25.3061 12.6311 25.3822 12.6734C25.5013 12.732 26.0142 12.7418 26.1764 12.6865C26.3286 12.6344 26.365 12.68 26.2955 12.8394C26.226 12.9989 26.1135 13.4285 26.1135 13.5359C26.1135 13.7051 26.1598 13.7247 26.3518 13.6238C26.5272 13.5359 26.8051 13.2983 26.8978 13.1551C26.9838 13.0282 26.9905 13.0347 27.1592 13.4383C27.2585 13.6726 27.4471 13.9264 27.5232 13.9264C27.5464 13.9264 27.5994 13.8581 27.6391 13.7702C27.7019 13.64 27.7119 13.5587 27.7152 13.2267C27.7152 12.8199 27.7086 12.7939 27.5299 12.4424C27.4339 12.2601 27.467 12.2211 27.6986 12.2438C28.1983 12.2862 28.5425 12.6572 28.5392 13.1486C28.5392 13.3211 28.5193 13.4025 28.4333 13.575C28.1421 14.1543 27.5563 14.5481 26.8548 14.6424C25.9778 14.7596 25.0711 14.2812 24.6376 13.4708C24.5251 13.2625 24.4523 13.077 24.3762 12.8036C24.31 12.5628 24.3232 11.7622 24.4026 11.4042C24.482 11.0364 24.5284 10.8574 24.5747 10.7533C24.5979 10.6979 24.6277 10.6198 24.6376 10.5743C24.6574 10.4799 24.8328 9.98845 24.8626 9.93638C24.8759 9.91685 24.899 9.84525 24.9189 9.77365C24.9884 9.484 25.0876 9.25618 25.1439 9.25618C25.1638 9.25618 25.2366 9.30826 25.3094 9.37009C25.8322 9.84525 26.5239 9.92987 27.0103 9.57838C27.0997 9.51655 27.1725 9.43518 27.1725 9.40589C27.1725 9.3408 26.9474 9.12275 26.7754 9.02186C26.5801 8.90795 26.2426 8.83635 25.9977 8.85913C25.7925 8.87866 25.7826 8.8754 25.68 8.77777C25.4219 8.52066 25.2233 8.20172 24.8626 7.44992C24.5416 6.78274 23.9757 6.22621 23.3271 5.93005C22.9631 5.76407 22.5395 5.65993 22.1093 5.63063L21.828 5.61111L21.8181 5.51347C21.8115 5.45814 21.785 5.33773 21.7585 5.24335C21.7023 5.05458 21.507 4.82677 21.325 4.73564C21.2059 4.67706 21.2026 4.67706 21.1728 4.70309ZM6.78089 20.1556C6.7842 20.5331 6.77427 20.8195 6.75772 20.8358C6.74118 20.8521 6.5691 20.8651 6.37385 20.8619C6.14551 20.8586 6.00322 20.8684 5.97343 20.8944C5.93372 20.9269 5.9271 21.2459 5.9271 22.909C5.9271 24.572 5.93372 24.891 5.97343 24.9235C6.00322 24.9495 6.1422 24.9593 6.36723 24.9561C6.55917 24.9528 6.73125 24.9626 6.75111 24.9723C6.81067 25.0081 6.80074 26.2416 6.74118 26.2904C6.68823 26.3327 3.73307 26.3295 3.69005 26.2839C3.65696 26.2514 3.6371 25.3303 3.66358 25.1123L3.68343 24.9593H4.05076C4.25593 24.9593 4.44125 24.9463 4.46442 24.9333C4.52398 24.8942 4.52398 20.9237 4.46111 20.8846C4.44125 20.8716 4.25593 20.8586 4.05076 20.8586H3.68343L3.66358 20.7349C3.6371 20.5689 3.65696 19.5796 3.69005 19.5307C3.70991 19.5015 4.064 19.4917 5.24209 19.4982L6.77096 19.508L6.78089 20.1556ZM11.2848 19.5373C11.3112 19.5665 11.3212 19.7748 11.3146 20.2109L11.3046 20.8423L10.8976 20.8521C10.4972 20.8619 10.4906 20.8619 10.4608 20.9432C10.4409 20.992 10.4277 21.7796 10.4277 22.909C10.4277 24.0383 10.4409 24.8259 10.4608 24.8747C10.4906 24.9561 10.4972 24.9561 10.8976 24.9658L11.3046 24.9756L11.3112 25.5939C11.3179 25.9487 11.3079 26.2318 11.2881 26.2611C11.2418 26.336 8.22372 26.336 8.17739 26.2611C8.14099 26.2025 8.13437 25.0602 8.17077 25.0016C8.18401 24.9788 8.33624 24.9626 8.58112 24.9528C8.79291 24.9495 8.97492 24.9333 8.98816 24.9203C9.00139 24.9072 9.01132 24.0025 9.01132 22.9057C9.00801 21.2947 9.00139 20.9074 8.96499 20.8879C8.94183 20.8716 8.75651 20.8586 8.55465 20.8586C8.24689 20.8586 8.1807 20.8488 8.16415 20.8065C8.15423 20.7772 8.1443 20.4941 8.1443 20.1751C8.1443 19.6902 8.15423 19.5861 8.19725 19.5438C8.24358 19.4982 8.42889 19.4917 9.74597 19.4917C10.9803 19.4917 11.255 19.4982 11.2848 19.5373ZM15.8052 19.5665C15.8317 19.6089 15.8912 19.7521 15.9376 19.8855C15.9839 20.0189 16.0369 20.1556 16.0501 20.1914C16.0666 20.2272 16.1262 20.3867 16.1858 20.5494C16.242 20.7089 16.3115 20.8911 16.338 20.9497C16.3645 21.0083 16.3843 21.0701 16.3843 21.0897C16.3843 21.1092 16.4042 21.171 16.4307 21.2264C16.4571 21.2849 16.4836 21.3598 16.4935 21.3956C16.5035 21.4314 16.5663 21.6071 16.6325 21.7861C16.6987 21.9651 16.7682 22.1637 16.7881 22.2255C16.8046 22.2873 16.8311 22.3524 16.841 22.372C16.8542 22.3882 16.9237 22.5802 16.9998 22.795C17.4168 23.9732 17.4201 23.9862 17.4698 23.9764C17.5161 23.9667 17.5922 23.7812 17.8238 23.1205C17.9364 22.8016 17.986 22.6714 18.0092 22.6323C18.0224 22.6128 18.0423 22.5477 18.0555 22.4859C18.0687 22.424 18.0919 22.3557 18.1051 22.3394C18.1184 22.3199 18.1482 22.2548 18.1647 22.193C18.1846 22.1311 18.2507 21.9391 18.3136 21.7699C18.3765 21.6006 18.4592 21.3663 18.4989 21.2491C18.5386 21.132 18.585 21.0083 18.6015 20.9725C18.6181 20.9367 18.6644 20.813 18.7041 20.6959C18.7405 20.5787 18.7935 20.4388 18.8166 20.3867C18.8398 20.3314 18.9126 20.1393 18.9755 19.9538C19.0383 19.7716 19.1145 19.5926 19.1475 19.5568C19.2071 19.4949 19.2534 19.4917 20.7062 19.4917C22.1656 19.4917 22.2086 19.4949 22.2417 19.5568C22.2649 19.5958 22.2715 19.8464 22.2682 20.2305L22.2582 20.8423L21.8611 20.8586C21.6427 20.8684 21.4442 20.8879 21.4243 20.9009C21.3912 20.9204 21.3813 21.3598 21.3813 22.909C21.3813 24.4581 21.3912 24.8975 21.4243 24.917C21.4442 24.93 21.6427 24.9495 21.8611 24.9593L22.2582 24.9756L22.2682 25.6005C22.2748 26.1342 22.2682 26.2286 22.2218 26.2741C22.1788 26.3197 22.0233 26.3262 20.9511 26.3262C20.233 26.3262 19.6969 26.3132 19.6439 26.2937L19.5612 26.2611L19.5678 25.62L19.5777 24.9756L19.7498 24.9658C19.8425 24.9593 19.9351 24.9365 19.955 24.9137C20.0046 24.8552 19.9914 21.5128 19.9418 21.4997C19.9252 21.4965 19.8723 21.6039 19.8259 21.7373C19.7796 21.8708 19.7333 21.9944 19.72 22.014C19.7101 22.0302 19.687 22.0986 19.6671 22.1604C19.6472 22.2222 19.5777 22.4208 19.5116 22.5998C19.4454 22.7788 19.3626 23.0131 19.3262 23.1205C19.2898 23.2279 19.2468 23.3451 19.2303 23.3809C19.2137 23.4167 19.1674 23.5403 19.1277 23.6575C19.0913 23.7747 19.0383 23.9146 19.0119 23.9732C18.9854 24.0285 18.9655 24.0871 18.9655 24.1001C18.9655 24.1261 18.7802 24.6371 18.7306 24.7478C18.714 24.7836 18.6644 24.9235 18.6181 25.0569C18.5221 25.3401 18.3633 25.7827 18.3103 25.9129C18.2871 25.965 18.2706 26.017 18.2706 26.0333C18.2706 26.1147 18.1482 26.2969 18.0886 26.3132C17.9562 26.3457 16.8178 26.3132 16.7814 26.2741C16.7483 26.2416 16.6292 25.9259 16.4704 25.4638C16.4439 25.3922 16.3777 25.2099 16.3181 25.0569C16.2619 24.904 16.2023 24.7347 16.1825 24.6827C16.1659 24.6273 16.1394 24.5557 16.1229 24.5199C16.103 24.4841 16.0534 24.3442 16.0071 24.2108C15.9144 23.9374 15.7622 23.5045 15.7324 23.4297C15.6828 23.3125 15.5173 22.8504 15.4908 22.7625C15.4577 22.6518 15.3684 22.4045 15.3287 22.3069C15.3154 22.2711 15.279 22.1897 15.2526 22.1279C15.2261 22.066 15.1698 21.9 15.1268 21.7634C14.968 21.2654 14.9613 21.3272 14.9613 23.2019V24.9268L15.0375 24.943C15.0772 24.9495 15.1698 24.9626 15.2426 24.9658L15.375 24.9756L15.3849 25.62L15.3915 26.2611L15.3088 26.2937C15.2559 26.3132 14.7165 26.3262 13.9884 26.3262C12.9791 26.3262 12.7442 26.3164 12.7144 26.2806C12.6879 26.2514 12.678 26.0431 12.6846 25.607L12.6945 24.9756L13.0916 24.9593L13.4887 24.943V22.909V20.8749L13.0916 20.8586L12.6945 20.8423L12.6846 20.2077C12.6813 19.8595 12.6846 19.5568 12.6912 19.534C12.7044 19.5015 13.0254 19.4917 14.23 19.4917H15.7556L15.8052 19.5665ZM29.4492 19.5177C29.479 19.5405 29.4889 19.6967 29.4823 20.1947L29.4724 20.8423L29.1646 20.8521C28.9264 20.8586 28.8536 20.8716 28.837 20.9107C28.8205 20.9562 28.8867 21.1352 29.0654 21.542C29.1018 21.6234 29.1415 21.7178 29.158 21.7536C29.1713 21.7894 29.2176 21.9 29.2573 21.9977C29.297 22.0953 29.3632 22.2483 29.4062 22.3394C29.4459 22.4273 29.5121 22.5835 29.5518 22.6811C29.5915 22.7788 29.6379 22.8894 29.6544 22.9252C29.6809 22.9806 29.7537 23.1498 29.8496 23.3809C29.8662 23.4167 29.9489 23.6152 30.035 23.8202C30.1177 24.0253 30.2104 24.2368 30.2335 24.2921C30.26 24.3442 30.3229 24.4907 30.3791 24.6176C30.4354 24.7413 30.495 24.8682 30.5115 24.8942C30.5314 24.9333 30.6207 24.9463 30.9086 24.9528L31.2759 24.9626L31.2693 25.6363L31.2594 26.3099H29.7206H28.1818L28.1719 25.6623C28.1686 25.2848 28.1785 24.9984 28.195 24.9821C28.2116 24.9658 28.3837 24.9528 28.5756 24.9561C28.8469 24.9626 28.9297 24.9528 28.9462 24.917C28.9661 24.8649 28.6418 24.1099 28.5855 24.0741C28.5624 24.0611 27.9634 24.048 27.2486 24.048H25.9514L25.8852 24.1327C25.8455 24.1815 25.8157 24.2368 25.8157 24.2628C25.8157 24.2856 25.7958 24.3442 25.7693 24.3963C25.7429 24.4451 25.7065 24.5232 25.6899 24.5688C25.6701 24.6143 25.6304 24.7055 25.5973 24.7738C25.5675 24.8421 25.5542 24.9072 25.5642 24.9203C25.5774 24.9333 25.7561 24.9495 25.958 24.9593L26.3286 24.9756L26.3385 25.607C26.3452 26.0431 26.3352 26.2514 26.3088 26.2806C26.279 26.3197 26.0043 26.3262 24.7733 26.3262C23.5422 26.3262 23.2676 26.3197 23.2378 26.2806C23.2113 26.2514 23.2014 26.0431 23.208 25.607L23.2179 24.9756L23.5952 24.9593L23.9724 24.943L24.032 24.8389C24.0651 24.7836 24.1445 24.6078 24.2107 24.4483C24.2802 24.2921 24.353 24.1164 24.3762 24.0643C24.4688 23.8495 24.4953 23.7877 24.6574 23.3971C24.8461 22.948 24.8527 22.9317 24.9553 22.6974C25.0579 22.4631 25.0678 22.4468 25.2531 21.9977C25.3491 21.7731 25.4483 21.542 25.4715 21.4867C25.498 21.4281 25.541 21.3338 25.5675 21.2752C25.5906 21.2166 25.637 21.1124 25.6668 21.0441C25.6965 20.979 25.7098 20.9074 25.6999 20.8911C25.6899 20.8716 25.541 20.8586 25.3689 20.8586H25.0579L25.038 20.7512C25.0248 20.6926 25.0215 20.3997 25.0281 20.1003C25.0347 19.6577 25.0479 19.547 25.0876 19.5242C25.1472 19.4852 29.3864 19.4819 29.4492 19.5177Z" fill="white"/>
<path d="M27.1756 21.0764C27.1326 21.1935 27.0565 21.3758 26.9539 21.5971C26.9274 21.6524 26.9076 21.7045 26.9076 21.7143C26.9076 21.7305 26.8248 21.916 26.6759 22.2415C26.5899 22.427 26.5171 22.6451 26.5336 22.6613C26.57 22.6939 27.9599 22.6841 27.9831 22.6483C27.993 22.632 27.9731 22.5507 27.9334 22.4726C27.897 22.3912 27.8672 22.3196 27.8672 22.3098C27.8672 22.3033 27.8209 22.1959 27.7647 22.0723C27.6323 21.7859 27.6058 21.724 27.4337 21.3074C27.3543 21.1154 27.2716 20.956 27.255 20.956C27.2352 20.956 27.1988 21.0113 27.1756 21.0764Z" fill="white"/>
<path d="M12.4962 5.39644C11.7946 5.61124 11.3578 6.16451 11.3545 6.83494C11.3545 7.50863 11.8079 8.08143 12.516 8.29298C12.6683 8.33854 13.0985 8.33854 13.297 8.29298C13.6081 8.21812 13.9026 8.12699 13.9192 8.0977C13.9324 8.08143 13.9721 8.06841 14.0118 8.06841C14.0515 8.06516 14.1442 8.03912 14.217 8.00332C14.2898 7.96752 14.3692 7.94149 14.3924 7.93823C14.4155 7.93823 14.4586 7.92521 14.4917 7.90894C14.6538 7.82758 14.806 7.77551 14.8821 7.77551C14.9252 7.77551 15.0178 7.75272 15.084 7.72669C15.1701 7.69089 15.3289 7.67787 15.6731 7.67787C16.0172 7.67787 16.1761 7.69089 16.2621 7.72669C16.3283 7.75272 16.4209 7.77551 16.464 7.77551C16.5401 7.77551 16.6923 7.82758 16.8578 7.9122C16.8909 7.92847 16.9306 7.93172 16.9471 7.92196C16.967 7.90894 16.9802 7.74947 16.9802 7.56396C16.9802 7.22549 16.9802 7.22223 16.8909 7.17667C16.8379 7.15389 16.6758 7.10182 16.5268 7.06276C16.143 6.96513 15.1998 6.96513 14.8292 7.05951C14.6935 7.09531 14.5512 7.13762 14.5148 7.15389C14.4784 7.17016 14.3758 7.20922 14.2832 7.23851C14.0151 7.32638 13.757 7.42727 13.7206 7.45656C13.7041 7.46958 13.661 7.4826 13.6213 7.4826C13.5849 7.4826 13.5121 7.50863 13.4559 7.53792C13.3798 7.58023 13.2672 7.59325 12.976 7.59325C12.6054 7.59651 12.5922 7.59325 12.4465 7.49887C12.3671 7.44354 12.2546 7.33289 12.1984 7.25478C12.109 7.12134 12.0991 7.08554 12.0991 6.84145C12.0991 6.50624 12.1322 6.46393 12.3042 6.56807C12.6418 6.76335 12.7047 6.77962 13.1249 6.78287H13.522L13.5121 6.70802C13.5088 6.66571 13.4757 6.59411 13.4393 6.54855C13.4062 6.50624 13.3831 6.45091 13.393 6.42813C13.4095 6.38582 13.5915 6.31097 13.6809 6.31097C13.7107 6.31097 13.7868 6.27842 13.853 6.24262C13.9589 6.18078 13.9655 6.16777 13.9225 6.11895C13.896 6.08966 13.7901 6.02457 13.6875 5.97249C13.5849 5.92368 13.4923 5.85858 13.4823 5.83255C13.4724 5.80651 13.5088 5.73817 13.5717 5.67633C13.6346 5.6145 13.671 5.54615 13.661 5.52011C13.6015 5.36715 12.847 5.28904 12.4962 5.39644Z" fill="white"/>
<path d="M6.93334 5.72501C6.54284 6.09928 6.38069 6.27177 6.05969 6.63628C5.94056 6.76972 5.79495 6.9357 5.73208 7.00404C5.6692 7.06913 5.59309 7.16026 5.56662 7.20257C5.53683 7.24488 5.44748 7.35879 5.36806 7.45317C5.28864 7.5508 5.19598 7.66471 5.16289 7.71028C5.1298 7.75584 5.03714 7.873 4.96102 7.97064C4.8816 8.06827 4.78233 8.20171 4.7393 8.26355C4.69628 8.32538 4.59701 8.46533 4.52089 8.57273C4.34881 8.81356 3.78624 9.70205 3.7366 9.80945C3.68365 9.92661 3.71675 9.96567 3.92854 10.0503C4.03774 10.0893 4.17342 10.1447 4.22968 10.1707C4.28925 10.1967 4.39514 10.2423 4.46133 10.2716C4.53082 10.3009 4.62679 10.3432 4.67643 10.3692C4.72276 10.392 4.77902 10.4115 4.79556 10.4115C4.81542 10.4115 4.93124 10.4571 5.05699 10.5124C5.33166 10.6328 5.44417 10.6817 5.60302 10.7468L5.72546 10.7988L5.8479 10.597C6.27149 9.90058 7.23117 8.59551 7.50253 8.34491C7.51907 8.32538 7.63159 8.20171 7.74741 8.06827C7.86323 7.93484 8.13128 7.65169 8.34307 7.44015C8.55156 7.2286 8.73026 7.04961 8.73357 7.0431C8.75342 7.02357 8.69385 6.94221 8.48868 6.71439C8.37948 6.59072 8.16107 6.34663 8.00222 6.17414C7.84669 5.99839 7.66799 5.80312 7.60511 5.73477C7.54224 5.66643 7.44627 5.55903 7.39332 5.49719L7.29073 5.38654L6.93334 5.72501Z" fill="white"/>
<path d="M27.3808 5.68269C27.2352 5.84216 27.0731 6.01791 27.0201 6.07974C26.9672 6.14158 26.8778 6.24572 26.8183 6.30756C26.1068 7.09516 26.1498 6.97474 26.4774 7.31321C26.6296 7.46943 26.805 7.64517 26.8679 7.70701C26.9308 7.76559 27.0632 7.91204 27.1657 8.03246C27.2683 8.14963 27.4007 8.29933 27.457 8.36117C27.6092 8.52064 28.0526 9.0674 28.1585 9.22362C28.2082 9.29522 28.3438 9.48398 28.463 9.64671C28.5821 9.80618 28.7409 10.034 28.8104 10.1479C28.8832 10.2618 28.9693 10.392 28.9991 10.4408C29.0322 10.4864 29.0719 10.5547 29.0917 10.5905C29.1711 10.7533 29.287 10.8216 29.3399 10.737C29.3498 10.7175 29.3896 10.7044 29.426 10.7044C29.4624 10.7044 29.5484 10.6751 29.6146 10.6393C29.7966 10.545 30.101 10.4115 30.1408 10.4115C30.1606 10.4115 30.2665 10.366 30.3757 10.3139C30.4882 10.2586 30.5875 10.2163 30.5974 10.2163C30.6107 10.2163 30.6669 10.1967 30.7232 10.1707C30.7828 10.1447 30.9151 10.0926 31.0243 10.0503C31.1302 10.008 31.2262 9.95589 31.2328 9.93311C31.2494 9.8908 31.1931 9.75737 31.0839 9.59138C31.0541 9.54257 30.9615 9.39611 30.882 9.26593C30.7298 9.02184 30.4717 8.6313 30.422 8.57272C30.4088 8.55319 30.3459 8.46532 30.2831 8.37744C30.1308 8.15939 29.608 7.47268 29.4425 7.27416C29.2804 7.08539 28.6715 6.38892 28.5986 6.31081C28.4034 6.10252 27.682 5.39955 27.6654 5.39955C27.6522 5.39955 27.5231 5.52647 27.3808 5.68269Z" fill="white"/>
<path d="M17.2446 11.938C17.2446 12.7354 17.2512 12.8818 17.291 12.8655C17.3605 12.8395 17.463 12.5206 17.5094 12.1984C17.559 11.8664 17.516 11.4824 17.3969 11.196C17.2579 10.8607 17.2446 10.9193 17.2446 11.938Z" fill="white"/>
<path d="M4.61664 31.2666C4.31219 31.3674 4.10702 31.5757 4.06069 31.8328C4.03752 31.9598 4.01105 31.976 3.79264 31.9956C3.70991 32.0053 3.69336 32.0184 3.69336 32.0867C3.69336 32.1583 3.70991 32.1713 3.84889 32.1843C3.93493 32.1941 4.01767 32.2136 4.0309 32.2299C4.04414 32.2429 4.06069 32.6465 4.064 33.1216C4.0673 33.6001 4.07392 34.0069 4.07392 34.0264C4.07392 34.085 4.16989 34.1078 4.24269 34.072C4.30226 34.0394 4.30557 33.9939 4.30557 33.1932C4.30557 32.7246 4.31881 32.3145 4.33866 32.269L4.37176 32.1843H5.15605C5.58956 32.1843 5.9635 32.1974 5.98998 32.2136C6.01976 32.2332 6.04292 32.3178 6.05285 32.4414C6.06609 32.6074 6.05947 32.6432 6.00983 32.6595C5.97674 32.6725 5.9271 32.666 5.89732 32.6465C5.57963 32.4187 5.12295 32.4935 4.9244 32.8027C4.8516 32.9166 4.8185 33.2128 4.86483 33.3755C4.97404 33.7725 5.50021 33.9581 5.83444 33.714C5.99329 33.6001 6.04292 33.6326 6.05285 33.8669C6.06278 34.0817 6.10911 34.1338 6.22824 34.072C6.28781 34.0394 6.29112 33.9939 6.29112 33.1477C6.29112 32.4284 6.30105 32.2494 6.33745 32.2201C6.36723 32.1941 6.536 32.1843 6.857 32.1908L7.33353 32.2006V32.3308V32.461L7.16807 32.4772C6.97944 32.5 6.87355 32.5554 6.82391 32.6628C6.76103 32.7962 6.78089 32.8938 6.89671 33.0077C6.98937 33.0989 7.00261 33.1282 6.97613 33.1867C6.95628 33.2258 6.9298 33.2583 6.91657 33.2583C6.87686 33.2583 6.78751 33.4373 6.78751 33.5187C6.78751 33.6293 6.90664 33.8246 7.01253 33.8832C7.08865 33.9288 7.18792 33.9418 7.42619 33.9418C7.72071 33.9418 7.74388 33.9385 7.87956 33.8409C8.01855 33.7433 8.02516 33.74 8.06818 33.7986C8.09466 33.8344 8.10789 33.8865 8.10128 33.9157C8.07811 34.0004 8.15422 34.0785 8.24688 34.0655L8.32631 34.0557L8.34285 33.1607C8.35278 32.6693 8.37263 32.2462 8.38587 32.2234C8.40242 32.1974 8.49839 32.1843 8.65723 32.1843C8.86571 32.1843 8.90873 32.1941 8.93852 32.2462C8.95837 32.2852 8.97161 32.6465 8.97161 33.1867V34.0655L9.06427 34.0817C9.23304 34.1143 9.23635 34.1013 9.23635 33.1444C9.23635 32.4219 9.24628 32.2494 9.28268 32.2201C9.31246 32.1974 9.42167 32.1843 9.57389 32.1908L9.81547 32.2006L9.83201 33.1282C9.84194 33.6391 9.85518 34.0589 9.85849 34.0655C9.8618 34.072 9.92136 34.072 9.99086 34.0655L10.1133 34.0557L10.1298 33.1282L10.1464 32.2006H10.9737H11.801L11.8109 32.4089C11.8242 32.679 11.8043 32.7344 11.7249 32.6628C11.6455 32.5912 11.4039 32.5098 11.2715 32.5098C11.1392 32.5098 10.8943 32.6074 10.8182 32.692C10.7487 32.7734 10.6262 33.0761 10.6262 33.177C10.6262 33.2974 10.752 33.5838 10.8347 33.6521C10.9241 33.7302 11.0697 33.7953 11.2153 33.8214C11.3311 33.8441 11.5992 33.7725 11.6885 33.6944C11.7845 33.6098 11.8143 33.6424 11.8242 33.8507L11.8341 34.0557L11.9599 34.0655C12.026 34.072 12.0856 34.072 12.0889 34.0655C12.0922 34.0589 12.1055 33.6391 12.1154 33.1282L12.1319 32.2006L12.3834 32.1908C12.5655 32.1843 12.6449 32.1941 12.6713 32.2266C12.6978 32.2559 12.7144 32.5554 12.7177 33.1607L12.7276 34.0524L12.8335 34.0752C12.903 34.0882 12.9526 34.0817 12.9758 34.0557C12.9957 34.0329 13.0122 33.6521 13.0155 33.1086L13.0254 32.2006L13.9984 32.1908C14.6867 32.1843 14.9845 32.1941 15.0143 32.2201C15.0706 32.2657 15.0772 32.5781 15.0209 32.6335C14.9944 32.6595 14.819 32.6725 14.455 32.6725C13.9884 32.6725 13.909 32.679 13.7899 32.7409C13.5781 32.8418 13.5053 32.9719 13.5053 33.2421V33.4666L13.6575 33.6066L13.813 33.7465H14.0745C14.3061 33.7465 14.3491 33.7367 14.4484 33.6619C14.6073 33.5447 14.6801 33.3202 14.6271 33.1216C14.5675 32.9101 14.594 32.8678 14.7926 32.8678C15.054 32.8678 15.0606 32.8841 15.0606 33.5024C15.0606 33.9776 15.0672 34.0394 15.1202 34.0655C15.15 34.0817 15.2128 34.085 15.2592 34.072L15.3419 34.0524L15.3585 33.1282C15.3684 32.6172 15.3816 32.1974 15.3849 32.1908C15.3882 32.1876 15.6066 32.1843 15.8714 32.1843C16.4273 32.1843 16.434 32.1876 16.3876 32.4805C16.3545 32.6823 16.2619 32.7799 16.0435 32.8385C15.8482 32.8938 15.8251 32.9296 15.8648 33.1347C15.9078 33.3722 15.9905 33.5154 16.1527 33.6391C16.285 33.7433 16.3016 33.7465 16.606 33.7465C16.8708 33.7465 16.9337 33.7367 17.0032 33.6814C17.0495 33.6456 17.1223 33.6163 17.1653 33.6163C17.2249 33.6163 17.2447 33.6391 17.2613 33.7205C17.2712 33.7791 17.2778 33.8572 17.2745 33.893C17.258 34.0394 17.2778 34.072 17.3705 34.072C17.5392 34.072 17.5426 34.0589 17.5426 33.1412C17.5426 32.6725 17.5525 32.2657 17.5624 32.2364C17.579 32.1941 17.6352 32.1843 17.8272 32.1843C18.0621 32.1843 18.0753 32.1876 18.1051 32.269C18.125 32.3145 18.1382 32.7246 18.1382 33.1932C18.1382 33.9939 18.1415 34.0394 18.2011 34.072C18.2739 34.1078 18.3666 34.085 18.3732 34.0264C18.3765 34.0069 18.3798 33.6098 18.3831 33.1412C18.3864 32.474 18.3963 32.282 18.4327 32.2397C18.4691 32.1908 18.5552 32.1843 18.9986 32.1843C19.4123 32.1843 19.5281 32.1941 19.5612 32.2299C19.5877 32.2657 19.5976 32.4056 19.5877 32.6986C19.5777 33.0598 19.5678 33.1314 19.5149 33.19C19.3792 33.3364 19.131 33.2128 19.131 32.9947C19.131 32.9231 19.1145 32.9003 19.0317 32.8841C18.8994 32.8548 18.8663 32.8841 18.8663 33.0208C18.8663 33.1477 18.9655 33.3299 19.0747 33.4048C19.1873 33.4829 19.5645 33.4699 19.6737 33.3853C19.8326 33.2616 19.859 33.1672 19.859 32.6953C19.859 32.4024 19.8723 32.2494 19.8987 32.2234C19.9219 32.2006 20.0245 32.1843 20.1304 32.1843C20.2826 32.1843 20.3256 32.1974 20.3554 32.2462C20.3753 32.2852 20.3885 32.6465 20.3885 33.1867V34.0655L20.4878 34.0785C20.5407 34.0882 20.6003 34.0785 20.6202 34.0589C20.64 34.0394 20.6532 33.6944 20.6532 33.1216V32.2169L20.7294 32.2006C20.7691 32.1908 20.9014 32.1843 21.0173 32.1908L21.2324 32.2006L21.2489 33.1282C21.2588 33.6391 21.2721 34.0589 21.2754 34.0655C21.2787 34.072 21.3383 34.072 21.4078 34.0655L21.5302 34.0557L21.5401 33.1444C21.5467 32.4675 21.5567 32.2299 21.5898 32.2104C21.6427 32.1778 22.0464 32.1778 22.0994 32.2104C22.1325 32.2299 22.1424 32.4675 22.149 33.1444L22.159 34.0524L22.2549 34.0752C22.4369 34.124 22.4369 34.1143 22.4469 33.1151L22.4568 32.2006L23.1418 32.1908L23.8268 32.1843L23.8798 32.2624C23.946 32.3633 23.9195 32.4707 23.8202 32.4903C23.7805 32.5 23.6283 32.5293 23.486 32.5554C23.2113 32.6074 23.1054 32.6725 23.0161 32.8418C22.9234 33.0175 22.9863 33.3853 23.1219 33.4634C23.1914 33.5024 23.1782 33.6293 23.0955 33.7302C23.0392 33.8018 23.0227 33.8637 23.0227 34.0231C23.0227 34.2412 23.0822 34.3551 23.2609 34.469C23.3768 34.5439 23.6713 34.5471 23.797 34.4755C23.9228 34.4007 23.9989 34.4332 23.9757 34.5536C23.9526 34.6643 24.0221 34.7326 24.1346 34.7164L24.2107 34.7066L24.2206 33.9515C24.2272 33.2225 24.2272 33.1965 24.1611 33.1607C24.1048 33.1314 24.0783 33.1412 24.0121 33.2063C23.9658 33.2518 23.9294 33.3006 23.9294 33.3137C23.9294 33.369 23.7309 33.4536 23.6018 33.4536C23.4926 33.4536 23.4396 33.4308 23.3503 33.3495C23.1683 33.19 23.1914 32.9654 23.4099 32.8027C23.4496 32.7734 23.5952 32.7506 23.807 32.7409L24.1445 32.7213L24.1544 32.4935C24.1611 32.3698 24.1809 32.2494 24.2008 32.2266C24.2272 32.1941 24.4159 32.1843 25.0082 32.1843C25.8885 32.1843 25.8488 32.1713 25.8488 32.4772C25.8488 32.6628 25.8024 32.7051 25.6767 32.6302C25.5245 32.5326 25.3491 32.5065 25.1571 32.5586C24.8957 32.627 24.76 32.7994 24.7336 33.0956C24.6773 33.6912 25.2266 34.0134 25.7263 33.6717C25.8091 33.6163 25.8488 33.6879 25.8488 33.8962C25.8488 34.0589 25.8521 34.0655 25.948 34.0785C26.001 34.0882 26.0606 34.0785 26.0804 34.0589C26.1003 34.0394 26.1135 33.8214 26.1135 33.5187V33.0077L26.2227 32.8841C26.3253 32.7702 26.3485 32.7571 26.5073 32.7571C26.6662 32.7539 26.6893 32.7636 26.7952 32.8743C26.8945 32.985 26.9077 33.0175 26.9077 33.1802C26.9077 33.343 26.8978 33.3722 26.7952 33.4731C26.7092 33.5577 26.6562 33.5838 26.5669 33.5838C26.4775 33.5838 26.4444 33.6001 26.4279 33.6489C26.3617 33.8539 26.729 33.8604 26.9805 33.6619C27.3644 33.3625 27.2287 32.6823 26.7621 32.5488C26.6066 32.5065 26.3749 32.5488 26.2492 32.6465C26.2029 32.6823 26.1565 32.6953 26.14 32.679C26.1234 32.6628 26.1135 32.5488 26.1201 32.4252L26.1301 32.2006L26.9011 32.1908L27.6689 32.1843L27.6986 32.2559C27.7119 32.2982 27.7284 32.7116 27.7284 33.177C27.7317 33.6424 27.735 34.0329 27.735 34.0459C27.735 34.0622 27.788 34.072 27.8509 34.072C27.9402 34.072 27.9667 34.0589 27.9667 34.0134C27.9667 33.9841 27.9667 33.5968 27.9667 33.1574C27.9667 32.6953 27.9799 32.321 27.9965 32.269L28.0329 32.1843H28.6219C29.0356 32.1843 29.2242 32.1974 29.2507 32.2234C29.3136 32.2852 29.297 32.5163 29.2176 32.6725C29.1282 32.845 29.0356 32.8971 28.751 32.9264L28.5458 32.9492L28.5359 33.2876C28.5293 33.574 28.5359 33.6489 28.5921 33.7595C28.6914 33.9548 28.7311 33.9971 28.89 34.0589C29.2474 34.1989 29.6875 33.9678 29.6875 33.6359C29.6875 33.4666 29.479 33.4862 29.4029 33.6651C29.3036 33.8995 29.0885 33.945 28.9065 33.766C28.794 33.6554 28.7907 33.6489 28.8006 33.3983L28.8105 33.1444H29.4558H30.1012L30.1111 33.574C30.1177 33.9873 30.1243 34.0101 30.1971 34.0557C30.2401 34.085 30.2997 34.098 30.3295 34.085C30.3758 34.0687 30.3824 33.9711 30.3824 33.177C30.3824 32.1746 30.3791 32.1843 30.6174 32.1843C30.7431 32.1843 30.7498 32.1778 30.7398 32.0932L30.7299 32.0053L27.4802 31.9956L24.2339 31.9891L24.1776 31.8231C24.1048 31.6083 24.0022 31.4586 23.8798 31.3837C23.4132 31.1038 22.5726 31.1722 22.3079 31.5139C22.2814 31.5497 22.2251 31.6669 22.1887 31.7743L22.1192 31.9728H20.2694H18.4228L18.2739 31.7612C18.0423 31.4228 17.9099 31.3154 17.6981 31.2893C17.4499 31.2568 17.397 31.2731 17.3837 31.3805C17.3771 31.4293 17.3837 31.4683 17.4003 31.4716C17.622 31.4846 17.7213 31.5074 17.7974 31.5595C17.9496 31.6669 18.072 31.8198 18.072 31.9077V31.9891H16.6855C15.6166 31.9891 15.2923 31.9793 15.2658 31.9468C15.2493 31.9272 15.2162 31.8491 15.1963 31.7775C15.1533 31.6148 14.9514 31.413 14.7462 31.3284C14.5444 31.2438 14.316 31.208 13.9553 31.208C13.2041 31.208 12.8203 31.4 12.7276 31.8296C12.7144 31.8914 12.6846 31.95 12.6647 31.963C12.6449 31.976 12.5125 31.9891 12.3735 31.9891C12.122 31.9891 12.1154 31.9858 12.0658 31.8914C12.0393 31.8394 12.0161 31.771 12.0161 31.7417C12.0161 31.6376 11.7878 31.4098 11.5925 31.3186C11.4304 31.2405 11.3543 31.2242 11.0333 31.2145C10.4376 31.1917 10.0868 31.3349 9.91805 31.6669C9.88827 31.7254 9.86511 31.8036 9.86511 31.8426C9.86511 31.8849 9.84525 31.9337 9.81878 31.9533C9.78899 31.9793 9.2893 31.9858 8.02516 31.9826C6.30436 31.9728 6.27457 31.9728 6.26464 31.9077C6.23155 31.7417 6.02307 31.4032 5.95027 31.4032C5.93041 31.4032 5.8907 31.3837 5.86423 31.3609C5.68222 31.2112 4.95749 31.1559 4.61664 31.2666ZM5.63258 31.5139C5.85099 31.6213 5.97012 31.758 5.95358 31.8849L5.94365 31.9728H5.14943H4.35521L4.34528 31.8686C4.32873 31.7157 4.51405 31.5269 4.7457 31.4586C5.01375 31.3772 5.40093 31.4 5.63258 31.5139ZM11.3079 31.4553C11.5164 31.5237 11.6753 31.6408 11.7414 31.7808C11.8407 31.9826 11.8143 31.9891 10.934 31.9891C10.2755 31.9891 10.1596 31.9826 10.1431 31.9402C10.0835 31.7905 10.2953 31.5432 10.5534 31.4586C10.7586 31.3902 11.1028 31.3902 11.3079 31.4553ZM14.4749 31.4683C14.7297 31.5464 14.8521 31.6343 14.9183 31.7873C15.0044 31.9891 15.0011 31.9923 13.9553 31.9826L13.0254 31.9728L13.0155 31.8556C13.0056 31.7515 13.0221 31.7222 13.1413 31.6213C13.2141 31.5595 13.3531 31.4846 13.449 31.4586C13.7071 31.3837 14.2101 31.387 14.4749 31.4683ZM23.4727 31.4586C23.7739 31.5725 23.9956 31.8231 23.8963 31.9402C23.8599 31.9826 23.7573 31.9891 23.155 31.9826L22.4568 31.9728L22.4469 31.8947C22.4336 31.8003 22.5263 31.6246 22.6189 31.566C22.8738 31.4065 23.2245 31.3609 23.4727 31.4586ZM8.0748 32.2559C8.11782 32.3764 8.09135 33.2876 8.04171 33.4373C8.00862 33.522 7.94905 33.5968 7.85308 33.6619C7.73064 33.7465 7.68431 33.7595 7.48576 33.7595C7.27396 33.7628 7.24749 33.7563 7.15483 33.6684C6.95628 33.4796 7.0721 33.2551 7.36993 33.2453C7.6446 33.2388 7.65453 33.0305 7.38317 33.0305C7.23425 33.0305 7.05225 32.9003 7.05225 32.7929C7.05225 32.6758 7.18131 32.5749 7.33022 32.5749C7.56849 32.5749 7.61482 32.5488 7.61482 32.4219C7.61482 32.2266 7.66115 32.1843 7.86632 32.1843C8.02185 32.1843 8.05164 32.1941 8.0748 32.2559ZM17.2249 32.2559C17.2977 32.3731 17.2778 33.0761 17.1918 33.2421C17.0991 33.4308 16.9072 33.548 16.6888 33.5512C16.4075 33.5512 16.2255 33.4276 16.1494 33.1867C16.103 33.0403 16.1361 32.9817 16.285 32.9524C16.5299 32.9068 16.6822 32.6953 16.6822 32.4024C16.6822 32.308 16.6921 32.2169 16.7053 32.2071C16.7152 32.1941 16.8278 32.1843 16.9502 32.1843C17.1488 32.1843 17.1819 32.1941 17.2249 32.2559ZM30.078 32.2234C30.1045 32.2494 30.1177 32.3731 30.1177 32.5651V32.8678H29.8066C29.6345 32.8678 29.4856 32.8548 29.4757 32.8385C29.4658 32.8222 29.479 32.7571 29.5055 32.692C29.532 32.6302 29.5551 32.5065 29.5551 32.4187C29.5551 32.334 29.5717 32.2462 29.5948 32.2234C29.618 32.2006 29.7239 32.1843 29.8364 32.1843C29.9489 32.1843 30.0548 32.2006 30.078 32.2234ZM5.86753 32.819C5.99329 32.9134 6.04623 33.1184 5.99329 33.3039C5.94696 33.4699 5.89401 33.5285 5.72193 33.5968C5.61603 33.6424 5.58294 33.6424 5.44064 33.6001C5.24871 33.5447 5.18583 33.4862 5.11634 33.2941C5.07332 33.1705 5.07332 33.1444 5.11964 33.037C5.1759 32.8971 5.25532 32.806 5.34798 32.7669C5.4605 32.7181 5.77157 32.7506 5.86753 32.819ZM11.6157 32.7832C11.7613 32.858 11.8176 32.9719 11.8176 33.1867C11.8176 33.3527 11.8043 33.3885 11.7282 33.4601C11.5396 33.6326 11.3543 33.6684 11.1623 33.5708C10.9902 33.4829 10.9241 33.369 10.9241 33.164C10.9274 32.9719 10.9638 32.9003 11.1226 32.7929C11.2219 32.7246 11.4866 32.7181 11.6157 32.7832ZM25.594 32.7832C25.7528 32.845 25.8289 32.9817 25.8289 33.19C25.8289 33.3495 25.819 33.3722 25.7065 33.4731C25.6006 33.5675 25.5609 33.5838 25.4186 33.5838C25.2763 33.5838 25.2332 33.5675 25.1307 33.4764C25.0215 33.3755 25.0115 33.3527 25.0115 33.1802C25.0115 33.0142 25.0248 32.9817 25.1207 32.8841C25.2663 32.7376 25.4119 32.7051 25.594 32.7832ZM14.2598 32.9329C14.5609 33.1151 14.4352 33.548 14.0778 33.5512C13.727 33.5545 13.6012 33.0761 13.9123 32.9231C14.0546 32.8548 14.1307 32.8548 14.2598 32.9329ZM23.9724 33.6717C24.0221 33.8344 23.9691 34.124 23.8731 34.2347C23.8003 34.3193 23.7706 34.3323 23.615 34.3323C23.4496 34.3323 23.4297 34.3226 23.337 34.2119C23.2808 34.1436 23.2345 34.0557 23.2345 34.0134C23.2345 33.8344 23.433 33.6489 23.6216 33.6489C23.6746 33.6489 23.7474 33.6261 23.7838 33.6001C23.8765 33.5317 23.9393 33.5545 23.9724 33.6717Z" fill="white"/>
<path d="M30.9883 32.5129C30.8989 32.5454 30.8592 32.6821 30.9088 32.7895C30.9519 32.8806 31.1074 32.8969 31.1901 32.8155C31.339 32.6723 31.1835 32.4413 30.9883 32.5129Z" fill="white"/>
<path d="M30.9713 33.7367C30.9084 33.753 30.8654 33.8669 30.8853 33.9645C30.8919 33.9971 30.9382 34.0426 30.9878 34.0654C31.0673 34.1045 31.0904 34.1012 31.1632 34.0589C31.2791 33.984 31.2757 33.805 31.1599 33.753C31.0706 33.7139 31.064 33.7107 30.9713 33.7367Z" fill="white"/>
<path d="M48.8653 22H47.7593V12.62H48.8653V22ZM52.42 22H51.314V12.62H52.42V22ZM64.9767 12.62V22H63.9127V14.972L60.2167 22H59.6427L55.9327 14.972V22H54.8687V12.62H55.8347L59.9227 20.348L64.0107 12.62H64.9767ZM79.3042 22H78.1142L77.0642 19.62H72.1222L71.0722 22H69.8822L74.0822 12.62H75.1042L79.3042 22ZM76.6302 18.626L74.6002 13.992L72.5562 18.626H76.6302ZM88.5212 12.62V22H87.4152V17.772H81.7872V22H80.6812V12.62H81.7872V16.778H87.4152V12.62H88.5212ZM97.8358 20.992V22H90.9898V12.62H97.8218V13.614H92.0958V16.792H97.4158V17.786H92.0958V20.992H97.8358ZM110.012 12.62V22H108.948V14.972L105.252 22H104.678L100.968 14.972V22H99.9039V12.62H100.87L104.958 20.348L109.046 12.62H110.012ZM112.482 12.62H115.59C118.88 12.62 120.784 14.65 120.784 17.31C120.784 19.956 118.88 22 115.59 22H112.482V12.62ZM113.588 20.992H115.576C118.208 20.992 119.664 19.382 119.664 17.31C119.664 15.224 118.208 13.614 115.576 13.614H113.588V20.992ZM130.875 22H129.685L128.635 19.62H123.693L122.643 22H121.453L125.653 12.62H126.675L130.875 22ZM128.201 18.626L126.171 13.992L124.127 18.626H128.201ZM137.768 17.184V17.226C138.818 17.352 139.658 18.164 139.658 19.452C139.658 20.936 138.636 22 136.746 22H132.252V12.62H136.564C138.328 12.62 139.35 13.614 139.35 15.084C139.35 16.274 138.58 17.072 137.768 17.184ZM133.358 13.572V16.82H136.55C137.6 16.82 138.3 16.148 138.3 15.14C138.3 14.202 137.586 13.572 136.466 13.572H133.358ZM133.358 21.048H136.648C137.824 21.048 138.538 20.362 138.538 19.354C138.538 18.346 137.754 17.716 136.662 17.716H133.358V21.048ZM149.933 22H148.743L147.693 19.62H142.751L141.701 22H140.511L144.711 12.62H145.733L149.933 22ZM147.259 18.626L145.229 13.992L143.185 18.626H147.259ZM151.31 12.62H154.418C157.708 12.62 159.612 14.65 159.612 17.31C159.612 19.956 157.708 22 154.418 22H151.31V12.62ZM152.416 20.992H154.404C157.036 20.992 158.492 19.382 158.492 17.31C158.492 15.224 157.036 13.614 154.404 13.614H152.416V20.992Z" fill="white"/>
</g>
</svg>
