<svg width="25" height="25" viewBox="0 0 25 25" fill="none" xmlns="http://www.w3.org/2000/svg">
<path d="M7.32646 12.7253C7.31437 12.7375 7.22192 13.1088 7.12108 13.5504C7.02025 13.9921 6.95316 14.3583 6.97189 14.3642C6.99067 14.37 7.29519 14.4157 7.64865 14.4657C8.35842 14.566 9.18713 14.8091 9.70542 15.0688C11.3207 15.8783 12.3902 17.3308 12.6682 19.0924L12.739 19.541L13.4525 19.541L14.1661 19.541L14.2339 19.1344C14.6778 16.4706 16.6564 14.734 19.6173 14.4091C19.8106 14.3879 19.9687 14.3625 19.9687 14.3528C19.9687 14.2629 19.6124 12.7743 19.5841 12.7462C19.5637 12.7258 19.3825 12.7409 19.1814 12.7799C16.9552 13.2106 15.1436 14.444 14.3861 16.0446L14.2044 16.4285L14.1902 8.53338L14.1812 3.54102L12.7371 3.54102L12.728 8.54623L12.7137 16.4227L12.4698 15.938C11.8369 14.6806 10.5955 13.685 8.92929 13.0987C8.45459 12.9317 7.37235 12.6796 7.32646 12.7253Z" fill="#090909"/>
</svg>
