<svg width="30" height="30" viewBox="0 0 30 30" fill="none" xmlns="http://www.w3.org/2000/svg">
<circle cx="15" cy="15" r="14.5" stroke="url(#paint0_linear_4618_822)"/>
<path fill-rule="evenodd" clip-rule="evenodd" d="M10.334 7.83331C10.6101 7.83331 10.834 8.05717 10.834 8.33331V9.83331H12.334C12.6101 9.83331 12.834 10.0572 12.834 10.3333C12.834 10.6095 12.6101 10.8333 12.334 10.8333H10.834V12.3333C10.834 12.6095 10.6101 12.8333 10.334 12.8333C10.0578 12.8333 9.83398 12.6095 9.83398 12.3333V10.8333H8.33398C8.05784 10.8333 7.83398 10.6095 7.83398 10.3333C7.83398 10.0572 8.05784 9.83331 8.33398 9.83331H9.83398V8.33331C9.83398 8.05717 10.0578 7.83331 10.334 7.83331ZM19.0735 9.52557C18.7651 9.50037 18.369 9.49998 17.8007 9.49998H15.0007C14.7245 9.49998 14.5007 9.27612 14.5007 8.99998C14.5007 8.72384 14.7245 8.49998 15.0007 8.49998L17.8221 8.49998C18.3639 8.49997 18.801 8.49997 19.155 8.52889C19.5194 8.55866 19.8395 8.62157 20.1356 8.77246C20.606 9.01215 20.9885 9.3946 21.2282 9.865C21.3791 10.1611 21.442 10.4812 21.4717 10.8457C21.5007 11.1996 21.5007 11.6367 21.5007 12.1786V17.8214C21.5007 18.3633 21.5007 18.8004 21.4717 19.1543C21.442 19.5187 21.3791 19.8388 21.2282 20.135C20.9885 20.6054 20.606 20.9878 20.1356 21.2275C19.8395 21.3784 19.5194 21.4413 19.155 21.4711C18.801 21.5 18.364 21.5 17.8221 21.5H12.1792C11.6373 21.5 11.2003 21.5 10.8463 21.4711C10.4819 21.4413 10.1618 21.3784 9.86567 21.2275C9.39527 20.9878 9.01282 20.6054 8.77313 20.135C8.62224 19.8388 8.55933 19.5187 8.52956 19.1543C8.50064 18.8004 8.50065 18.3633 8.50065 17.8214L8.50065 15C8.50065 14.7238 8.72451 14.5 9.00065 14.5C9.27679 14.5 9.50065 14.7238 9.50065 15V17.8C9.50065 18.3683 9.50104 18.7644 9.52624 19.0729C9.55096 19.3754 9.59705 19.5493 9.66414 19.681C9.80795 19.9632 10.0374 20.1927 10.3197 20.3365C10.4513 20.4036 10.6252 20.4497 10.9278 20.4744C11.2362 20.4996 11.6323 20.5 12.2007 20.5H17.8007C18.369 20.5 18.7651 20.4996 19.0735 20.4744C19.3761 20.4497 19.55 20.4036 19.6816 20.3365C19.9639 20.1927 20.1934 19.9632 20.3372 19.681C20.4043 19.5493 20.4503 19.3754 20.4751 19.0729C20.5003 18.7644 20.5007 18.3683 20.5007 17.8V12.2C20.5007 11.6317 20.5003 11.2355 20.4751 10.9271C20.4503 10.6245 20.4043 10.4507 20.3372 10.319C20.1934 10.0368 19.9639 9.80728 19.6816 9.66347C19.55 9.59638 19.3761 9.55029 19.0735 9.52557ZM15.0007 11.1666C15.2768 11.1666 15.5007 11.3905 15.5007 11.6666V18.3333C15.5007 18.6095 15.2768 18.8333 15.0007 18.8333C14.7245 18.8333 14.5007 18.6095 14.5007 18.3333V11.6666C14.5007 11.3905 14.7245 11.1666 15.0007 11.1666ZM17.6673 13.8333C17.9435 13.8333 18.1673 14.0572 18.1673 14.3333V18.3333C18.1673 18.6095 17.9435 18.8333 17.6673 18.8333C17.3912 18.8333 17.1673 18.6095 17.1673 18.3333V14.3333C17.1673 14.0572 17.3912 13.8333 17.6673 13.8333ZM12.334 15.1666C12.6101 15.1666 12.834 15.3905 12.834 15.6666V18.3333C12.834 18.6095 12.6101 18.8333 12.334 18.8333C12.0578 18.8333 11.834 18.6095 11.834 18.3333V15.6666C11.834 15.3905 12.0578 15.1666 12.334 15.1666Z" fill="#090909"/>
<defs>
<linearGradient id="paint0_linear_4618_822" x1="7.47645e-08" y1="25.3125" x2="30.0103" y2="25.968" gradientUnits="userSpaceOnUse">
<stop stop-color="#39B5D7"/>
<stop offset="0.502211" stop-color="#F7D544"/>
<stop offset="1" stop-color="#E38330"/>
</linearGradient>
</defs>
</svg>
