<svg width="30" height="30" viewBox="0 0 30 30" fill="none" xmlns="http://www.w3.org/2000/svg">
<circle cx="15" cy="15" r="14.5" stroke="url(#paint0_linear_4618_828)"/>
<path fill-rule="evenodd" clip-rule="evenodd" d="M20.9402 9.96595C21.0342 9.40193 20.5452 8.91295 19.9812 9.00696L17.3377 9.44754C17.9211 9.88501 18.4846 10.3724 19.0209 10.9087C19.5641 11.4519 20.057 12.0229 20.4988 12.6143L20.9402 9.96595ZM20.1191 13.8081C19.6063 13.0427 19.0039 12.306 18.3138 11.6158C17.63 10.932 16.9005 10.3344 16.1426 9.82469C16.1179 9.84682 16.0941 9.87009 16.0713 9.89446L13.5409 12.5995C13.5372 12.6035 13.5335 12.6075 13.5297 12.6114L11.6626 14.6072C10.8119 15.5166 10.7372 16.8793 11.4247 17.868L15.313 13.9797C15.5083 13.7845 15.8249 13.7845 16.0201 13.9797C16.2154 14.175 16.2154 14.4916 16.0201 14.6868L12.1421 18.5648C13.125 19.2064 14.4497 19.1173 15.3399 18.2845L17.333 16.42C17.3387 16.4144 17.3445 16.4089 17.3505 16.4036L20.0526 13.8758C20.0758 13.8541 20.098 13.8315 20.1191 13.8081ZM18.2588 16.9232L20.7358 14.6061C21.0776 14.2863 21.3045 13.8629 21.3814 13.4013L21.9265 10.1303C22.1334 8.88951 21.0576 7.81376 19.8168 8.02056L16.5458 8.56573C16.0842 8.64266 15.6608 8.86955 15.3411 9.21131L13.0239 11.6883L11.4114 11.1508C11.0252 11.0221 10.5997 11.104 10.2889 11.367L8.38411 12.9787C7.7017 13.5562 7.89557 14.6551 8.73439 14.9641L10.0809 15.4602C9.80047 16.5199 10.012 17.6804 10.7094 18.5833L8.97969 20.3131C8.78442 20.5083 8.78442 20.8249 8.97969 21.0202C9.17495 21.2154 9.49153 21.2154 9.68679 21.0202L11.4239 19.2831C12.3179 19.9442 13.4506 20.1405 14.487 19.8662L14.983 21.2126C15.2921 22.0514 16.3909 22.2453 16.9684 21.5629L18.5801 19.6581C18.8431 19.3473 18.925 18.9218 18.7963 18.5356L18.2588 16.9232ZM17.4553 17.6749L16.023 19.0148C15.8317 19.1938 15.6258 19.348 15.4095 19.4774L15.9214 20.8669C15.9655 20.9867 16.1225 21.0144 16.205 20.9169L17.8167 19.0122C17.8543 18.9678 17.866 18.907 17.8476 18.8518L17.4553 17.6749ZM10.4697 14.5377C10.5991 14.3213 10.7533 14.1154 10.9323 13.9241L12.2722 12.4918L11.0952 12.0995C11.04 12.0811 10.9792 12.0928 10.9348 12.1304L9.03005 13.7421C8.93257 13.8246 8.96026 13.9816 9.08009 14.0258L10.4697 14.5377Z" fill="#090909"/>
<defs>
<linearGradient id="paint0_linear_4618_828" x1="7.47645e-08" y1="25.3125" x2="30.0103" y2="25.968" gradientUnits="userSpaceOnUse">
<stop stop-color="#39B5D7"/>
<stop offset="0.502211" stop-color="#F7D544"/>
<stop offset="1" stop-color="#E38330"/>
</linearGradient>
</defs>
</svg>
