<svg width="60" height="61" viewBox="0 0 60 61" fill="none" xmlns="http://www.w3.org/2000/svg">
<circle cx="30" cy="30.311" r="30" fill="url(#paint0_linear_8608_74359)"/>
<path d="M39.75 34.061H39V25.061C39 24.4643 38.7629 23.892 38.341 23.47C37.919 23.0481 37.3467 22.811 36.75 22.811H23.25C22.6533 22.811 22.081 23.0481 21.659 23.47C21.2371 23.892 21 24.4643 21 25.061V34.061H20.25C20.0511 34.061 19.8603 34.1401 19.7197 34.2807C19.579 34.4214 19.5 34.6121 19.5 34.811V36.311C19.5 36.9078 19.7371 37.4801 20.159 37.902C20.581 38.324 21.1533 38.561 21.75 38.561H38.25C38.8467 38.561 39.419 38.324 39.841 37.902C40.2629 37.4801 40.5 36.9078 40.5 36.311V34.811C40.5 34.6121 40.421 34.4214 40.2803 34.2807C40.1397 34.1401 39.9489 34.061 39.75 34.061ZM28.5 25.061H31.5C31.6989 25.061 31.8897 25.1401 32.0303 25.2807C32.171 25.4214 32.25 25.6121 32.25 25.811C32.25 26.0099 32.171 26.2007 32.0303 26.3414C31.8897 26.482 31.6989 26.561 31.5 26.561H28.5C28.3011 26.561 28.1103 26.482 27.9697 26.3414C27.829 26.2007 27.75 26.0099 27.75 25.811C27.75 25.6121 27.829 25.4214 27.9697 25.2807C28.1103 25.1401 28.3011 25.061 28.5 25.061ZM39 36.311C39 36.5099 38.921 36.7007 38.7803 36.8414C38.6397 36.982 38.4489 37.061 38.25 37.061H21.75C21.5511 37.061 21.3603 36.982 21.2197 36.8414C21.079 36.7007 21 36.5099 21 36.311V35.561H39V36.311Z" fill="white"/>
<defs>
<linearGradient id="paint0_linear_8608_74359" x1="60" y1="22.5691" x2="-2.70464" y2="11.5629" gradientUnits="userSpaceOnUse">
<stop stop-color="#F7D344"/>
<stop offset="1" stop-color="#E38330"/>
</linearGradient>
</defs>
</svg>
