<svg width="48" height="48" viewBox="0 0 48 48" fill="none" xmlns="http://www.w3.org/2000/svg">
<path d="M-4.57764e-05 0H47.9971V48H-4.57764e-05V0Z" fill="#C21F33"/>
<path d="M6.42358 11.1579H3.6665V9.77932L6.05063 4.1748H8.00542V9.83571H8.92049V11.1579H8.00542V13.3275H6.42358V11.1579ZM6.42358 9.83571V5.94866L5.03367 9.83571H6.42358Z" fill="white"/>
<path fill-rule="evenodd" clip-rule="evenodd" d="M21.0272 25.7448V39.5153L12.379 36.9055V20.7513L21.0272 25.7448ZM21.978 25.7779L30.682 20.7517V36.9034L21.978 39.5207V25.7779ZM37.4699 36.6192L36.4479 40.1956L35.4246 36.6192H35.4233V22.2463H37.4699V36.6192ZM32.5398 21.445V38.0078L31.6875 38.2586L22.0469 41.3195H20.9821L10.533 38.4267V21.445L11.4613 20.7124V37.7763L21.0272 40.449H22.0041L31.6127 37.3434V20.7124L32.5398 21.445ZM37.4699 20.3424V21.4449H35.4246V20.3424C35.4246 19.7764 35.8816 19.3189 36.4479 19.3189C37.013 19.3189 37.4699 19.7764 37.4699 20.3424Z" fill="white"/>
<path d="M14.328 8.36278C14.2546 8.32823 14.1768 8.27641 14.0948 8.20732C14.0127 8.13823 13.935 8.0605 13.853 7.96982C13.7753 7.88346 13.7062 7.79709 13.65 7.71073C13.6371 7.71504 13.6241 7.71504 13.6112 7.71504H13.5723C13.3262 7.71504 13.1276 7.66754 12.9808 7.57686C12.834 7.48618 12.7303 7.35231 12.6656 7.17959C12.6008 7.00686 12.5706 6.8039 12.5706 6.5664V5.25798C12.5706 5.02047 12.6008 4.82184 12.6656 4.65343C12.7303 4.48501 12.834 4.35547 12.9808 4.26479C13.1276 4.1741 13.3262 4.13092 13.5723 4.13092C13.8271 4.13092 14.0257 4.1741 14.1725 4.26479C14.3193 4.35547 14.423 4.48501 14.4877 4.65343C14.5525 4.82184 14.5827 5.02047 14.5827 5.25798V6.57072C14.5827 6.73913 14.5654 6.89026 14.5352 7.02413C14.505 7.15799 14.4532 7.2789 14.3798 7.37822C14.3064 7.47754 14.2114 7.55095 14.0948 7.60709C14.1337 7.64595 14.1725 7.68914 14.2114 7.73232C14.2502 7.7755 14.2934 7.81436 14.3323 7.85323C14.3711 7.89209 14.41 7.92232 14.4489 7.94391L14.328 8.36278ZM13.5723 7.24436C13.6803 7.24436 13.758 7.22277 13.8098 7.17527C13.8616 7.12777 13.8962 7.06731 13.9134 6.98527C13.9307 6.90322 13.9393 6.81685 13.9393 6.72185V5.11116C13.9393 5.01184 13.9307 4.92547 13.9134 4.84775C13.8962 4.77002 13.8616 4.70956 13.8098 4.66638C13.758 4.61888 13.6803 4.59729 13.5723 4.59729C13.4687 4.59729 13.391 4.61888 13.3392 4.66638C13.2873 4.70956 13.2528 4.77002 13.2355 4.84775C13.2226 4.92547 13.2139 5.01184 13.2139 5.11116V6.72185C13.2139 6.81685 13.2226 6.90322 13.2355 6.98527C13.2528 7.06731 13.2873 7.12777 13.3392 7.17527C13.391 7.22277 13.4687 7.24436 13.5723 7.24436Z" fill="white"/>
<path d="M15.9904 7.71518C15.7313 7.71518 15.5283 7.66768 15.3858 7.57268C15.2433 7.47768 15.144 7.34382 15.0879 7.16677C15.0318 6.98972 15.0059 6.78245 15.0059 6.53631V4.16992H15.6276V6.60972C15.6276 6.71767 15.6363 6.82131 15.6492 6.92063C15.6622 7.01563 15.6967 7.09336 15.7485 7.15381C15.8047 7.20995 15.8824 7.24018 15.9904 7.24018C16.1026 7.24018 16.1847 7.20995 16.2322 7.15381C16.284 7.09336 16.3185 7.01563 16.3315 6.92063C16.3487 6.82131 16.3574 6.71767 16.3574 6.60972V4.16992H16.9748V6.53631C16.9748 6.78245 16.9489 6.98972 16.8928 7.16677C16.8367 7.34382 16.7374 7.47768 16.5949 7.57268C16.4524 7.66768 16.2537 7.71518 15.9904 7.71518Z" fill="white"/>
<path d="M17.26 7.66768L17.9595 4.16992H18.6418L19.3413 7.66768H18.7497L18.6115 6.86017H18.0027L17.8602 7.66768H17.26ZM18.0675 6.45426H18.5424L18.305 4.98607L18.0675 6.45426Z" fill="white"/>
<path d="M19.665 7.66768V4.16992H20.3041V7.22722H21.1504V7.66768H19.665Z" fill="white"/>
<path d="M22.1048 4.16992H21.4744V7.66768H22.1048V4.16992Z" fill="white"/>
<path d="M22.9684 7.66768V4.64061H22.4114V4.16992H24.1558V4.64061H23.6074V7.66768H22.9684Z" fill="white"/>
<path d="M24.9374 7.66768V6.33335L24.2292 4.16992H24.8251L25.2569 5.55607L25.6628 4.16992H26.2457L25.5462 6.33335V7.66768H24.9374Z" fill="white"/>
<path d="M12.6226 13.3839V9.88611H14.0907V10.3352H13.2616V11.3413H13.9136V11.7861H13.2616V12.9434H14.0993V13.3839H12.6226Z" fill="white"/>
<path d="M14.4448 13.3839V9.88611H15.2696C15.5545 9.88611 15.7748 9.92497 15.9345 10.0027C16.0943 10.0804 16.2109 10.2013 16.2756 10.3611C16.3447 10.5209 16.3793 10.7282 16.3793 10.9743V12.2525C16.3793 12.5073 16.3447 12.7189 16.2756 12.8873C16.2109 13.0557 16.0986 13.1809 15.9388 13.263C15.7834 13.345 15.5675 13.3839 15.2955 13.3839H14.4448ZM15.0839 12.9391H15.2782C15.425 12.9391 15.5286 12.9132 15.5934 12.8614C15.6582 12.8095 15.697 12.7361 15.71 12.6368C15.7229 12.5375 15.7316 12.4123 15.7316 12.2698V10.9311C15.7316 10.7886 15.7229 10.6763 15.7013 10.59C15.6798 10.5036 15.6409 10.4388 15.5761 10.4C15.5114 10.3611 15.412 10.3395 15.2696 10.3395H15.0839V12.9391Z" fill="white"/>
<path d="M17.7826 13.4314C17.5235 13.4314 17.3206 13.3839 17.1781 13.2889C17.0356 13.1939 16.9363 13.06 16.8801 12.883C16.824 12.7059 16.7981 12.4986 16.7981 12.2525V9.88611H17.4199V12.3259C17.4199 12.4339 17.4285 12.5375 17.4415 12.6368C17.4544 12.7318 17.489 12.8095 17.5408 12.87C17.5969 12.9261 17.6746 12.9564 17.7826 12.9564C17.8949 12.9564 17.9769 12.9261 18.0244 12.87C18.0762 12.8095 18.1108 12.7318 18.1237 12.6368C18.141 12.5375 18.1496 12.4339 18.1496 12.3259V9.88611H18.7671V12.2525C18.7671 12.4986 18.7412 12.7059 18.685 12.883C18.6289 13.06 18.5296 13.1939 18.3871 13.2889C18.2446 13.3839 18.046 13.4314 17.7826 13.4314Z" fill="white"/>
<path d="M20.1833 13.4314C19.9286 13.4314 19.7256 13.3795 19.5788 13.2802C19.4363 13.1809 19.3327 13.0427 19.2765 12.87C19.2204 12.6929 19.1902 12.4943 19.1902 12.2654V11.0175C19.1902 10.78 19.2204 10.5727 19.2765 10.3956C19.3327 10.2186 19.4363 10.0847 19.5788 9.98973C19.7256 9.89473 19.9286 9.84723 20.1833 9.84723C20.4251 9.84723 20.6151 9.89041 20.749 9.97246C20.8871 10.0545 20.9864 10.1711 21.0426 10.3222C21.0987 10.4734 21.1289 10.6504 21.1289 10.8534V11.147H20.5158V10.8447C20.5158 10.7454 20.5115 10.6591 20.4985 10.577C20.4899 10.495 20.464 10.4345 20.4165 10.387C20.3733 10.3395 20.2956 10.3136 20.1876 10.3136C20.0797 10.3136 19.9976 10.3395 19.9458 10.3913C19.8983 10.4388 19.8638 10.5079 19.8508 10.5943C19.8379 10.6763 19.8292 10.7713 19.8292 10.8793V12.3993C19.8292 12.5245 19.8379 12.6325 19.8595 12.7145C19.8811 12.7966 19.9156 12.857 19.9674 12.9002C20.0235 12.9391 20.097 12.9607 20.1876 12.9607C20.2956 12.9607 20.369 12.9348 20.4122 12.8873C20.4597 12.8354 20.4856 12.7663 20.4985 12.6843C20.5115 12.6023 20.5158 12.5073 20.5158 12.4036V12.0884H21.1289V12.3691C21.1289 12.5763 21.103 12.762 21.0469 12.9218C20.9908 13.0816 20.8958 13.2068 20.7576 13.2975C20.6237 13.3882 20.4294 13.4314 20.1833 13.4314Z" fill="white"/>
<path d="M21.3706 13.3839L22.0701 9.88611H22.7523L23.4519 13.3839H22.8603L22.7221 12.5764H22.1133L21.9708 13.3839H21.3706ZM22.1781 12.1704H22.653L22.4155 10.7023L22.1781 12.1704Z" fill="white"/>
<path d="M23.9484 13.3839V10.3568H23.3914V9.88611H25.1358V10.3568H24.5874V13.3839H23.9484Z" fill="white"/>
<path d="M26.0772 9.88611H25.4468V13.3839H26.0772V9.88611Z" fill="white"/>
<path d="M27.5411 13.4314C27.2949 13.4314 27.0963 13.3839 26.9495 13.2932C26.8027 13.2025 26.6991 13.0686 26.6343 12.8959C26.5695 12.7232 26.5393 12.5202 26.5393 12.2827V10.9743C26.5393 10.7368 26.5695 10.5381 26.6343 10.3697C26.6991 10.2013 26.8027 10.0718 26.9495 9.98109C27.0963 9.89041 27.2949 9.84723 27.5411 9.84723C27.7958 9.84723 27.9945 9.89041 28.1369 9.98109C28.2838 10.0718 28.3874 10.2013 28.4522 10.3697C28.5169 10.5381 28.5515 10.7368 28.5515 10.9743V12.287C28.5515 12.5202 28.5169 12.7232 28.4522 12.8959C28.3874 13.0643 28.2838 13.1982 28.1369 13.2932C27.9945 13.3839 27.7958 13.4314 27.5411 13.4314ZM27.5411 12.9607C27.649 12.9607 27.7267 12.9391 27.7742 12.8916C27.8261 12.8441 27.8606 12.7836 27.8779 12.7016C27.8951 12.6195 27.9038 12.5332 27.9038 12.4382V10.8275C27.9038 10.7281 27.8951 10.6418 27.8779 10.5641C27.8606 10.4863 27.8261 10.4259 27.7742 10.3827C27.7267 10.3352 27.649 10.3136 27.5411 10.3136C27.4418 10.3136 27.364 10.3352 27.3122 10.3827C27.2604 10.4259 27.2259 10.4863 27.2086 10.5641C27.1913 10.6418 27.1827 10.7281 27.1827 10.8275V12.4382C27.1827 12.5332 27.1913 12.6195 27.2043 12.7016C27.2215 12.7836 27.2561 12.8441 27.3079 12.8916C27.3597 12.9391 27.4374 12.9607 27.5411 12.9607Z" fill="white"/>
<path d="M28.9963 13.3839V9.88611H29.4411L30.2917 11.8811V9.88611H30.8185V13.3839H30.3954L29.5404 11.2938V13.3839H28.9963Z" fill="white"/>
</svg>
