<svg width="49" height="49" viewBox="0 0 49 49" fill="none" xmlns="http://www.w3.org/2000/svg">
<path d="M-4.19617e-05 0H47.9971V48H-4.19617e-05V0Z" fill="#CF8D2A"/>
<path d="M4.12195 5.98267C4.03885 6.02769 3.79797 6.12217 3.3988 6.26512C3.08223 6.37098 2.8829 6.44221 2.80029 6.47981V5.18033C3.05602 5.08239 3.36665 4.93201 3.73218 4.7287C4.09722 4.5249 4.35542 4.34039 4.50628 4.17468H5.87344V13.3274H4.12195V5.98267Z" fill="white"/>
<path d="M6.84375 12.0957L9.05822 8.67214L9.19375 8.46834C9.48014 8.03897 9.69085 7.67985 9.82688 7.38948C9.96191 7.09961 10.0302 6.78154 10.0302 6.43478C10.0302 6.14095 9.97329 5.91687 9.86051 5.76254C9.74773 5.6082 9.58549 5.53103 9.37478 5.53103C9.05822 5.53103 8.83959 5.65124 8.71939 5.89214C8.5987 6.13353 8.53836 6.46496 8.53836 6.88641V7.30489H6.84375V6.85277C6.84375 5.99404 7.04507 5.31437 7.44819 4.81328C7.85082 4.31219 8.48197 4.06189 9.34065 4.06189C10.1316 4.06189 10.7325 4.27064 11.1431 4.68912C11.5536 5.10711 11.7589 5.70021 11.7589 6.46842C11.7589 6.81518 11.706 7.14314 11.6006 7.45181C11.4948 7.76047 11.3706 8.03551 11.2277 8.27641C11.0842 8.5178 10.8621 8.86011 10.5609 9.30481L8.79854 11.9488H11.5215V13.3274H6.84375V12.0957Z" fill="white"/>
<path d="M36.465 24.9091C34.3356 23.2273 31.5142 23.1927 30.481 23.4385L30.3613 23.4662C29.1677 23.7482 27.2723 24.2146 25.0539 26.9679C25.0415 26.9828 25.0286 26.9986 25.0168 27.0144L24.9891 27.0485C24.9673 27.0792 24.952 27.1153 24.952 27.1559C24.952 27.189 24.9599 27.2197 24.9762 27.2479L25.0276 27.3325C25.3061 27.7985 25.6573 28.398 25.9541 28.9505C25.9566 28.9565 25.9595 28.9609 25.962 28.9678C25.9937 29.0287 26.057 29.0717 26.1312 29.0717C26.1826 29.0717 26.2291 29.0514 26.2622 29.0183C26.2761 29.0005 26.2904 28.9812 26.3028 28.9619C28.2719 26.2388 29.8206 25.8623 30.8678 25.616L30.9934 25.5868C31.537 25.4562 33.6041 25.4641 35.0964 26.6419C36.2607 27.5615 36.8518 29.0247 36.8518 30.99C36.8518 34.2874 35.2482 35.5775 33.9023 36.0786C31.8179 36.8582 29.8186 35.8164 29.8038 35.8085L29.7143 35.765C28.5692 35.2673 26.8603 34.233 25.2497 30.9979C22.0035 24.4783 19.2884 23.8639 17.4914 23.4573L17.3955 23.4355C16.5773 23.25 13.7362 23.119 11.5029 24.9017C10.3361 25.8327 8.94617 27.6426 8.94617 30.9771C8.94617 33.0087 9.36364 34.3502 10.436 35.7615C10.6714 36.083 13.0754 39.1717 17.7234 38.2808C18.4673 38.1384 19.4749 37.7832 20.5834 36.9527L21.6063 37.8752C21.673 37.936 21.7794 37.9311 21.8407 37.8638C21.8704 37.8327 21.8823 37.7926 21.8818 37.753V37.7392L22.6198 33.1992L22.6203 33.1487C22.6198 33.1047 22.602 33.0597 22.5654 33.028C22.5342 32.9983 22.4956 32.987 22.457 32.987L22.4254 32.9899L22.3774 32.9949L18.0296 34.2122L17.9504 34.2251C17.9188 34.232 17.8896 34.2483 17.8673 34.2736C17.804 34.3428 17.81 34.4482 17.8797 34.5095L17.9307 34.557L18.9051 35.4365C18.2759 35.8441 17.7274 36.0311 17.3089 36.1122C13.9464 36.7533 12.2859 34.5511 12.2231 34.4645L12.1994 34.4324C11.4183 33.4064 11.1542 32.5348 11.1542 30.9771C11.1542 29.0054 11.7349 27.5417 12.88 26.6271C14.3342 25.4666 16.3399 25.4597 16.9063 25.5888L17.0042 25.6111C18.4767 25.944 20.4938 26.4005 23.2722 31.9823C24.7155 34.88 26.5234 36.7751 28.7982 37.7743C29.0876 37.9217 30.4691 38.5771 32.2611 38.5771C33.011 38.5771 33.8321 38.4624 34.6744 38.1492C35.9926 37.6571 39.0599 35.9757 39.0599 30.99C39.0599 27.658 37.6487 25.844 36.465 24.9091Z" fill="white"/>
<path d="M15.2722 7.66707V4.16931H16.1099C16.3474 4.16931 16.546 4.19954 16.7058 4.25568C16.8699 4.31181 16.9951 4.40681 17.0771 4.54068C17.1635 4.67454 17.2067 4.86023 17.2067 5.09341C17.2067 5.23591 17.1937 5.36114 17.1678 5.47341C17.1419 5.58569 17.0987 5.68069 17.0339 5.76274C16.9735 5.84046 16.8871 5.90092 16.7792 5.9441L17.2671 7.66707H16.6281L16.2049 6.06501H15.9113V7.66707H15.2722ZM15.9113 5.66342H16.1099C16.2351 5.66342 16.3301 5.64614 16.4035 5.6116C16.4769 5.57273 16.5331 5.5166 16.5633 5.43887C16.5935 5.35682 16.6108 5.2575 16.6108 5.13228C16.6108 4.95523 16.5762 4.82568 16.5115 4.73932C16.4467 4.64863 16.3258 4.60545 16.1444 4.60545H15.9113V5.66342Z" fill="white"/>
<path d="M17.5537 7.66701V4.16925H19.0218V4.61835H18.1928V5.62449H18.8448V6.06927H18.1928V7.22655H19.0304V7.66701H17.5537Z" fill="white"/>
<path d="M20.1426 7.71456C19.9311 7.71456 19.7583 7.67569 19.6158 7.59365C19.4734 7.5116 19.3697 7.39069 19.2963 7.23092C19.2229 7.07114 19.1841 6.87682 19.1754 6.64796L19.7238 6.54C19.7281 6.67387 19.7454 6.79478 19.7713 6.89841C19.8015 7.00205 19.8404 7.0841 19.8965 7.14023C19.9526 7.19637 20.0304 7.22228 20.121 7.22228C20.2247 7.22228 20.2981 7.19205 20.3413 7.1316C20.3844 7.06682 20.406 6.9891 20.406 6.89409C20.406 6.74296 20.3715 6.61773 20.3024 6.51841C20.2333 6.41909 20.1426 6.32409 20.026 6.22477L19.5856 5.83613C19.4604 5.72817 19.3611 5.61158 19.2877 5.48204C19.2143 5.34817 19.1797 5.1884 19.1797 4.99408C19.1797 4.71771 19.2618 4.50612 19.4215 4.35498C19.5813 4.20384 19.8015 4.13043 20.0822 4.13043C20.2463 4.13043 20.3844 4.15634 20.4924 4.20816C20.6003 4.25566 20.6867 4.32475 20.7515 4.41543C20.8162 4.50612 20.868 4.60544 20.8983 4.72203C20.9285 4.8343 20.9501 4.95521 20.9587 5.08044L20.4147 5.17544C20.4103 5.06749 20.3974 4.96817 20.3758 4.8818C20.3585 4.79544 20.324 4.72635 20.2765 4.67885C20.229 4.63135 20.1599 4.60544 20.0692 4.60544C19.9742 4.60544 19.9008 4.63566 19.849 4.70044C19.8015 4.76089 19.7756 4.83862 19.7756 4.9293C19.7756 5.0459 19.8015 5.14521 19.849 5.22294C19.8965 5.29635 19.9699 5.37408 20.0606 5.45613L20.4967 5.84045C20.6392 5.96136 20.7644 6.10386 20.8637 6.26795C20.9674 6.42773 21.0192 6.62636 21.0192 6.85523C21.0192 7.02364 20.9803 7.17046 20.9069 7.30001C20.8335 7.42955 20.7342 7.53319 20.6003 7.6066C20.4708 7.68001 20.3197 7.71456 20.1426 7.71456Z" fill="white"/>
<path d="M21.255 7.66707V4.16931H22.2827C22.4943 4.16931 22.6627 4.20818 22.7922 4.2859C22.926 4.36363 23.021 4.47591 23.0815 4.62704C23.1463 4.77386 23.1765 4.95091 23.1765 5.1625C23.1765 5.39137 23.1376 5.57273 23.0599 5.71524C22.9822 5.85342 22.8742 5.95274 22.7317 6.01751C22.5936 6.08228 22.4295 6.11251 22.2395 6.11251H21.8941V7.66707H21.255ZM21.8941 5.66342H22.1359C22.2524 5.66342 22.3388 5.64614 22.4036 5.61592C22.4683 5.58137 22.5158 5.52955 22.5374 5.45614C22.5633 5.38273 22.5763 5.28341 22.5763 5.15818C22.5763 5.03296 22.5677 4.92932 22.5461 4.85159C22.5288 4.76954 22.4899 4.71341 22.4252 4.67454C22.3647 4.63568 22.2697 4.61841 22.1359 4.61841H21.8941V5.66342Z" fill="white"/>
<path d="M24.3394 7.71456C24.0933 7.71456 23.8947 7.66706 23.7479 7.57637C23.601 7.48569 23.4974 7.35183 23.4326 7.1791C23.3679 7.00637 23.3376 6.80341 23.3376 6.56591V5.25749C23.3376 5.01999 23.3679 4.82135 23.4326 4.65294C23.4974 4.48453 23.601 4.35498 23.7479 4.2643C23.8947 4.17361 24.0933 4.13043 24.3394 4.13043C24.5942 4.13043 24.7928 4.17361 24.9353 4.2643C25.0821 4.35498 25.1857 4.48453 25.2505 4.65294C25.3153 4.82135 25.3498 5.01999 25.3498 5.25749V6.57023C25.3498 6.80341 25.3153 7.00637 25.2505 7.1791C25.1857 7.34751 25.0821 7.48137 24.9353 7.57637C24.7928 7.66706 24.5942 7.71456 24.3394 7.71456ZM24.3394 7.24387C24.4474 7.24387 24.5251 7.22228 24.5726 7.17478C24.6244 7.12728 24.6589 7.06682 24.6762 6.98478C24.6935 6.90273 24.7021 6.81637 24.7021 6.72137V5.11067C24.7021 5.01135 24.6935 4.92499 24.6762 4.84726C24.6589 4.76953 24.6244 4.70907 24.5726 4.66589C24.5251 4.61839 24.4474 4.5968 24.3394 4.5968C24.2401 4.5968 24.1624 4.61839 24.1106 4.66589C24.0587 4.70907 24.0242 4.76953 24.0069 4.84726C23.9897 4.92499 23.981 5.01135 23.981 5.11067V6.72137C23.981 6.81637 23.9897 6.90273 24.0026 6.98478C24.0199 7.06682 24.0544 7.12728 24.1062 7.17478C24.1581 7.22228 24.2358 7.24387 24.3394 7.24387Z" fill="white"/>
<path d="M25.6808 7.66707V4.16931H26.1255L26.9762 6.16433V4.16931H27.503V7.66707H27.0798L26.2248 5.57705V7.66707H25.6808Z" fill="white"/>
<path d="M28.774 7.71462C28.5624 7.71462 28.3897 7.67575 28.2472 7.59371C28.1047 7.51166 28.0011 7.39075 27.9277 7.23098C27.8543 7.0712 27.8154 6.87688 27.8068 6.64802L28.3551 6.54006C28.3595 6.67393 28.3767 6.79484 28.4026 6.89847C28.4329 7.00211 28.4717 7.08416 28.5279 7.14029C28.584 7.19643 28.6617 7.22234 28.7524 7.22234C28.856 7.22234 28.9294 7.19211 28.9726 7.13166C29.0158 7.06688 29.0374 6.98916 29.0374 6.89416C29.0374 6.74302 29.0028 6.61779 28.9337 6.51847C28.8647 6.41915 28.774 6.32415 28.6574 6.22483L28.217 5.83619C28.0917 5.72824 27.9924 5.61164 27.919 5.4821C27.8456 5.34823 27.8111 5.18846 27.8111 4.99414C27.8111 4.71777 27.8931 4.50618 28.0529 4.35504C28.2126 4.2039 28.4329 4.13049 28.7135 4.13049C28.8776 4.13049 29.0158 4.1564 29.1237 4.20822C29.2317 4.25572 29.318 4.32481 29.3828 4.4155C29.4476 4.50618 29.4994 4.6055 29.5296 4.72209C29.5598 4.83436 29.5814 4.95527 29.5901 5.0805L29.046 5.1755C29.0417 5.06755 29.0287 4.96823 29.0072 4.88186C28.9899 4.7955 28.9553 4.72641 28.9078 4.67891C28.8603 4.63141 28.7913 4.6055 28.7006 4.6055C28.6056 4.6055 28.5322 4.63573 28.4804 4.7005C28.4329 4.76095 28.407 4.83868 28.407 4.92936C28.407 5.04596 28.4329 5.14528 28.4804 5.223C28.5279 5.29641 28.6013 5.37414 28.6919 5.45619L29.1281 5.84051C29.2705 5.96142 29.3958 6.10392 29.4951 6.26801C29.5987 6.42779 29.6505 6.62643 29.6505 6.85529C29.6505 7.0237 29.6117 7.17052 29.5383 7.30007C29.4649 7.42962 29.3655 7.53325 29.2317 7.60666C29.1021 7.68007 28.951 7.71462 28.774 7.71462Z" fill="white"/>
<path d="M30.5344 4.16968H29.9039V7.66744H30.5344V4.16968Z" fill="white"/>
<path d="M30.9332 7.66701V4.16925H31.7925C31.9479 4.16925 32.0861 4.18221 32.2113 4.21243C32.3366 4.24266 32.4445 4.29016 32.5352 4.35925C32.6259 4.42403 32.6993 4.51471 32.7468 4.6313C32.7943 4.74789 32.8202 4.89039 32.8202 5.06744C32.8202 5.20994 32.7986 5.33085 32.7597 5.43017C32.7209 5.52949 32.6647 5.61154 32.5913 5.67199C32.5179 5.72813 32.4229 5.76699 32.3107 5.78858C32.4488 5.81018 32.5611 5.86199 32.6518 5.9354C32.7424 6.00881 32.8115 6.10381 32.8547 6.22041C32.9022 6.337 32.9238 6.4795 32.9238 6.64791C32.9238 6.81632 32.9022 6.96314 32.859 7.09269C32.8202 7.21792 32.7554 7.32587 32.6734 7.41224C32.5913 7.49428 32.492 7.55906 32.3668 7.60224C32.2459 7.64542 32.1034 7.66701 31.9393 7.66701H30.9332ZM31.5723 7.21792H31.8141C32.0084 7.21792 32.1379 7.17042 32.207 7.07973C32.2761 6.98473 32.3107 6.83791 32.3107 6.64359C32.3107 6.50109 32.2934 6.38882 32.2588 6.30245C32.2286 6.21177 32.1725 6.147 32.0948 6.10381C32.0213 6.06063 31.9177 6.03904 31.7925 6.03904H31.5723V7.21792ZM31.5723 5.59858H31.7882C31.9134 5.59858 32.0127 5.58131 32.0818 5.54245C32.1509 5.50358 32.1984 5.44744 32.2243 5.36972C32.2545 5.29199 32.2675 5.19267 32.2675 5.07608C32.2675 4.95085 32.2459 4.85585 32.2027 4.79107C32.1638 4.72198 32.0991 4.67448 32.017 4.65289C31.935 4.62698 31.827 4.61403 31.6975 4.61403H31.5723V5.59858Z" fill="white"/>
<path d="M33.1978 7.66701V4.16925H33.8368V7.22655H34.6831V7.66701H33.1978Z" fill="white"/>
<path d="M34.8755 7.66707V4.16931H36.3436V4.61841H35.5145V5.62455H36.1666V6.06933H35.5145V7.22661H36.3522V7.66707H34.8755Z" fill="white"/>
<path d="M16.2133 13.4307C15.9586 13.4307 15.7556 13.3789 15.6088 13.2795C15.4663 13.1802 15.3627 13.042 15.3066 12.8693C15.2504 12.6923 15.2202 12.4936 15.2202 12.2648V11.0168C15.2202 10.7793 15.2504 10.572 15.3066 10.395C15.3627 10.2179 15.4663 10.0841 15.6088 9.98906C15.7556 9.89406 15.9586 9.84656 16.2133 9.84656C16.4551 9.84656 16.6451 9.88974 16.779 9.97179C16.9172 10.0538 17.0165 10.1704 17.0726 10.3216C17.1287 10.4727 17.159 10.6497 17.159 10.8527V11.1463H16.5458V10.8441C16.5458 10.7447 16.5415 10.6584 16.5286 10.5763C16.5199 10.4943 16.494 10.4338 16.4465 10.3863C16.4033 10.3388 16.3256 10.3129 16.2177 10.3129C16.1097 10.3129 16.0277 10.3388 15.9759 10.3907C15.9284 10.4382 15.8938 10.5072 15.8809 10.5936C15.8679 10.6757 15.8593 10.7707 15.8593 10.8786V12.3986C15.8593 12.5239 15.8679 12.6318 15.8895 12.7139C15.9111 12.7959 15.9456 12.8564 15.9974 12.8995C16.0536 12.9384 16.127 12.96 16.2177 12.96C16.3256 12.96 16.399 12.9341 16.4422 12.8866C16.4897 12.8348 16.5156 12.7657 16.5286 12.6836C16.5415 12.6016 16.5458 12.5066 16.5458 12.4029V12.0877H17.159V12.3684C17.159 12.5757 17.1331 12.7614 17.0769 12.9211C17.0208 13.0809 16.9258 13.2061 16.7876 13.2968C16.6538 13.3875 16.4595 13.4307 16.2133 13.4307Z" fill="white"/>
<path d="M18.413 13.4307C18.1669 13.4307 17.9683 13.3832 17.8215 13.2925C17.6746 13.2018 17.571 13.068 17.5062 12.8952C17.4415 12.7225 17.4113 12.5195 17.4113 12.282V10.9736C17.4113 10.7361 17.4415 10.5375 17.5062 10.3691C17.571 10.2007 17.6746 10.0711 17.8215 9.98042C17.9683 9.88974 18.1669 9.84656 18.413 9.84656C18.6678 9.84656 18.8664 9.88974 19.0089 9.98042C19.1557 10.0711 19.2593 10.2007 19.3241 10.3691C19.3889 10.5375 19.4234 10.7361 19.4234 10.9736V12.2864C19.4234 12.5195 19.3889 12.7225 19.3241 12.8952C19.2593 13.0636 19.1557 13.1975 19.0089 13.2925C18.8664 13.3832 18.6678 13.4307 18.413 13.4307ZM18.413 12.96C18.521 12.96 18.5987 12.9384 18.6462 12.8909C18.698 12.8434 18.7325 12.7829 18.7498 12.7009C18.7671 12.6189 18.7757 12.5325 18.7757 12.4375V10.8268C18.7757 10.7275 18.7671 10.6411 18.7498 10.5634C18.7325 10.4857 18.698 10.4252 18.6462 10.382C18.5987 10.3345 18.521 10.3129 18.413 10.3129C18.3137 10.3129 18.236 10.3345 18.1842 10.382C18.1324 10.4252 18.0978 10.4857 18.0805 10.5634C18.0633 10.6411 18.0546 10.7275 18.0546 10.8268V12.4375C18.0546 12.5325 18.0633 12.6189 18.0762 12.7009C18.0935 12.7829 18.128 12.8434 18.1798 12.8909C18.2317 12.9384 18.3094 12.96 18.413 12.96Z" fill="white"/>
<path d="M19.7542 13.3833V9.88556H20.1989L21.0495 11.8806V9.88556H21.5763V13.3833H21.1532L20.2982 11.2933V13.3833H19.7542Z" fill="white"/>
<path d="M22.8473 13.431C22.6358 13.431 22.463 13.3922 22.3206 13.3101C22.1781 13.2281 22.0744 13.1072 22.001 12.9474C21.9276 12.7876 21.8888 12.5933 21.8801 12.3644L22.4285 12.2565C22.4328 12.3904 22.4501 12.5113 22.476 12.6149C22.5062 12.7185 22.5451 12.8006 22.6012 12.8567C22.6574 12.9129 22.7351 12.9388 22.8258 12.9388C22.9294 12.9388 23.0028 12.9085 23.046 12.8481C23.0892 12.7833 23.1107 12.7056 23.1107 12.6106C23.1107 12.4594 23.0762 12.3342 23.0071 12.2349C22.938 12.1356 22.8473 12.0406 22.7308 11.9413L22.2903 11.5526C22.1651 11.4447 22.0658 11.3281 21.9924 11.1985C21.919 11.0647 21.8844 10.9049 21.8844 10.7106C21.8844 10.4342 21.9665 10.2226 22.1262 10.0715C22.286 9.92033 22.5062 9.84692 22.7869 9.84692C22.951 9.84692 23.0892 9.87283 23.1971 9.92465C23.305 9.97215 23.3914 10.0412 23.4562 10.1319C23.5209 10.2226 23.5728 10.3219 23.603 10.4385C23.6332 10.5508 23.6548 10.6717 23.6634 10.7969L23.1194 10.8919C23.1151 10.784 23.1021 10.6847 23.0805 10.5983C23.0632 10.5119 23.0287 10.4428 22.9812 10.3953C22.9337 10.3478 22.8646 10.3219 22.7739 10.3219C22.6789 10.3219 22.6055 10.3522 22.5537 10.4169C22.5062 10.4774 22.4803 10.5551 22.4803 10.6458C22.4803 10.7624 22.5062 10.8617 22.5537 10.9394C22.6012 11.0128 22.6746 11.0906 22.7653 11.1726L23.2014 11.5569C23.3439 11.6779 23.4691 11.8204 23.5684 11.9844C23.6721 12.1442 23.7239 12.3429 23.7239 12.5717C23.7239 12.7401 23.685 12.887 23.6116 13.0165C23.5382 13.146 23.4389 13.2497 23.305 13.3231C23.1755 13.3965 23.0244 13.431 22.8473 13.431Z" fill="white"/>
<path d="M24.9178 13.4308C24.6588 13.4308 24.4558 13.3833 24.3133 13.2883C24.1708 13.1933 24.0715 13.0595 24.0154 12.8824C23.9593 12.7054 23.9333 12.4981 23.9333 12.2519V9.88556H24.5551V12.3254C24.5551 12.4333 24.5638 12.5369 24.5767 12.6363C24.5897 12.7313 24.6242 12.809 24.676 12.8695C24.7322 12.9256 24.8099 12.9558 24.9178 12.9558C25.0301 12.9558 25.1121 12.9256 25.1596 12.8695C25.2115 12.809 25.246 12.7313 25.259 12.6363C25.2762 12.5369 25.2849 12.4333 25.2849 12.3254V9.88556H25.9023V12.2519C25.9023 12.4981 25.8764 12.7054 25.8203 12.8824C25.7642 13.0595 25.6648 13.1933 25.5224 13.2883C25.3799 13.3833 25.1812 13.4308 24.9178 13.4308Z" fill="white"/>
<path d="M26.2549 13.3832L26.3153 9.88544H26.976L27.4725 12.308L27.9907 9.88544H28.6298L28.6945 13.3832H28.2195L28.1677 10.952L27.6712 13.3832H27.2869L26.7817 10.9434L26.7342 13.3832H26.2549Z" fill="white"/>
<path d="M29.0729 13.3833V9.88556H30.1005C30.3121 9.88556 30.4805 9.92442 30.6101 10.0022C30.7439 10.0799 30.8389 10.1922 30.8994 10.3433C30.9641 10.4901 30.9944 10.6672 30.9944 10.8788C30.9944 11.1076 30.9555 11.289 30.8778 11.4315C30.8001 11.5697 30.6921 11.669 30.5496 11.7338C30.4114 11.7985 30.2474 11.8288 30.0574 11.8288H29.7119V13.3833H29.0729ZM29.7119 11.3797H29.9537C30.0703 11.3797 30.1567 11.3624 30.2214 11.3322C30.2862 11.2976 30.3337 11.2458 30.3553 11.1724C30.3812 11.099 30.3942 10.9997 30.3942 10.8744C30.3942 10.7492 30.3855 10.6456 30.3639 10.5678C30.3467 10.4858 30.3078 10.4297 30.243 10.3908C30.1826 10.3519 30.0876 10.3347 29.9537 10.3347H29.7119V11.3797Z" fill="white"/>
<path d="M31.5573 13.3831V10.3561H31.0002V9.88538H32.7447V10.3561H32.1963V13.3831H31.5573Z" fill="white"/>
<path d="M33.571 9.88562H32.9406V13.3834H33.571V9.88562Z" fill="white"/>
<path d="M34.9208 13.431C34.6747 13.431 34.4761 13.3835 34.3293 13.2929C34.1825 13.2022 34.0788 13.0683 34.0141 12.8956C33.9493 12.7229 33.9191 12.5199 33.9191 12.2824V10.974C33.9191 10.7365 33.9493 10.5378 34.0141 10.3694C34.0788 10.201 34.1825 10.0715 34.3293 9.98079C34.4761 9.89011 34.6747 9.84692 34.9208 9.84692C35.1756 9.84692 35.3742 9.89011 35.5167 9.98079C35.6635 10.0715 35.7671 10.201 35.8319 10.3694C35.8967 10.5378 35.9312 10.7365 35.9312 10.974V12.2867C35.9312 12.5199 35.8967 12.7229 35.8319 12.8956C35.7671 13.064 35.6635 13.1979 35.5167 13.2929C35.3742 13.3835 35.1756 13.431 34.9208 13.431ZM34.9208 12.9604C35.0288 12.9604 35.1065 12.9388 35.154 12.8913C35.2058 12.8438 35.2404 12.7833 35.2576 12.7013C35.2749 12.6192 35.2835 12.5329 35.2835 12.4379V10.8272C35.2835 10.7278 35.2749 10.6415 35.2576 10.5637C35.2404 10.486 35.2058 10.4256 35.154 10.3824C35.1065 10.3349 35.0288 10.3133 34.9208 10.3133C34.8215 10.3133 34.7438 10.3349 34.692 10.3824C34.6402 10.4256 34.6056 10.486 34.5883 10.5637C34.5711 10.6415 34.5624 10.7278 34.5624 10.8272V12.4379C34.5624 12.5329 34.5711 12.6192 34.584 12.7013C34.6013 12.7833 34.6358 12.8438 34.6877 12.8913C34.7395 12.9388 34.8172 12.9604 34.9208 12.9604Z" fill="white"/>
<path d="M36.2607 13.3833V9.8855H36.7055L37.5561 11.8805V9.8855H38.0829V13.3833H37.6598L36.8048 11.2932V13.3833H36.2607Z" fill="white"/>
<path d="M15.0953 19.0996L15.7948 15.6019H16.4771L17.1766 19.0996H16.585L16.4469 18.2921H15.838L15.6955 19.0996H15.0953ZM15.9028 17.8862H16.3778L16.1403 16.418L15.9028 17.8862Z" fill="white"/>
<path d="M17.3859 19.0996V15.6019H17.8306L18.6812 17.5969V15.6019H19.208V19.0996H18.7849L17.9299 17.0096V19.0996H17.3859Z" fill="white"/>
<path d="M19.5988 19.0998V15.602H20.4235C20.7085 15.602 20.9287 15.6409 21.0884 15.7186C21.2482 15.7963 21.3648 15.9172 21.4296 16.077C21.4986 16.2368 21.5332 16.444 21.5332 16.6902V17.9684C21.5332 18.2232 21.4986 18.4347 21.4296 18.6032C21.3648 18.7716 21.2525 18.8968 21.0928 18.9788C20.9373 19.0609 20.7214 19.0998 20.4494 19.0998H19.5988ZM20.2378 18.655H20.4321C20.5789 18.655 20.6826 18.6291 20.7473 18.5772C20.8121 18.5254 20.851 18.452 20.8639 18.3527C20.8769 18.2534 20.8855 18.1282 20.8855 17.9856V16.647C20.8855 16.5045 20.8769 16.3922 20.8553 16.3059C20.8337 16.2195 20.7948 16.1547 20.7301 16.1159C20.6653 16.077 20.566 16.0554 20.4235 16.0554H20.2378V18.655Z" fill="white"/>
<path d="M22.7726 19.0998V15.602H23.8003C24.0118 15.602 24.1802 15.6409 24.3098 15.7186C24.4436 15.7963 24.5386 15.9086 24.5991 16.0597C24.6638 16.2065 24.6941 16.3836 24.6941 16.5952C24.6941 16.824 24.6552 17.0054 24.5775 17.1479C24.4998 17.2861 24.3918 17.3854 24.2493 17.4502C24.1111 17.515 23.9471 17.5452 23.7571 17.5452H23.4116V19.0998H22.7726ZM23.4116 17.0961H23.6534C23.77 17.0961 23.8564 17.0788 23.9212 17.0486C23.9859 17.014 24.0334 16.9622 24.055 16.8888C24.0809 16.8154 24.0939 16.7161 24.0939 16.5909C24.0939 16.4656 24.0852 16.362 24.0636 16.2843C24.0464 16.2022 24.0075 16.1461 23.9427 16.1072C23.8823 16.0684 23.7873 16.0511 23.6534 16.0511H23.4116V17.0961Z" fill="white"/>
<path d="M24.9073 19.0998V15.602H25.745C25.9825 15.602 26.1811 15.6322 26.3409 15.6884C26.505 15.7445 26.6302 15.8395 26.7122 15.9734C26.7986 16.1072 26.8418 16.2929 26.8418 16.5261C26.8418 16.6686 26.8288 16.7938 26.8029 16.9061C26.777 17.0184 26.7338 17.1134 26.6691 17.1954C26.6086 17.2731 26.5223 17.3336 26.4143 17.3768L26.9022 19.0998H26.2632L25.84 17.4977H25.5464V19.0998H24.9073ZM25.5464 17.0961H25.745C25.8702 17.0961 25.9652 17.0788 26.0386 17.0443C26.1121 17.0054 26.1682 16.9493 26.1984 16.8715C26.2286 16.7895 26.2459 16.6902 26.2459 16.565C26.2459 16.3879 26.2114 16.2584 26.1466 16.172C26.0818 16.0813 25.9609 16.0381 25.7796 16.0381H25.5464V17.0961Z" fill="white"/>
<path d="M28.1262 19.1467C27.88 19.1467 27.6814 19.0992 27.5346 19.0085C27.3878 18.9178 27.2842 18.784 27.2194 18.6112C27.1546 18.4385 27.1244 18.2355 27.1244 17.998V16.6896C27.1244 16.4521 27.1546 16.2535 27.2194 16.0851C27.2842 15.9167 27.3878 15.7871 27.5346 15.6964C27.6814 15.6057 27.88 15.5626 28.1262 15.5626C28.3809 15.5626 28.5795 15.6057 28.722 15.6964C28.8688 15.7871 28.9725 15.9167 29.0372 16.0851C29.102 16.2535 29.1366 16.4521 29.1366 16.6896V18.0024C29.1366 18.2355 29.102 18.4385 29.0372 18.6112C28.9725 18.7796 28.8688 18.9135 28.722 19.0085C28.5795 19.0992 28.3809 19.1467 28.1262 19.1467ZM28.1262 18.676C28.2341 18.676 28.3118 18.6544 28.3593 18.6069C28.4111 18.5594 28.4457 18.499 28.463 18.4169C28.4802 18.3349 28.4889 18.2485 28.4889 18.1535V16.5428C28.4889 16.4435 28.4802 16.3571 28.463 16.2794C28.4457 16.2017 28.4111 16.1412 28.3593 16.098C28.3118 16.0505 28.2341 16.0289 28.1262 16.0289C28.0268 16.0289 27.9491 16.0505 27.8973 16.098C27.8455 16.1412 27.8109 16.2017 27.7937 16.2794C27.7764 16.3571 27.7678 16.4435 27.7678 16.5428V18.1535C27.7678 18.2485 27.7764 18.3349 27.7894 18.4169C27.8066 18.499 27.8412 18.5594 27.893 18.6069C27.9448 18.6544 28.0225 18.676 28.1262 18.676Z" fill="white"/>
<path d="M29.4666 19.0997V15.6019H30.2913C30.5763 15.6019 30.7965 15.6408 30.9562 15.7185C31.116 15.7962 31.2326 15.9172 31.2974 16.0769C31.3664 16.2367 31.401 16.444 31.401 16.6901V17.9683C31.401 18.2231 31.3664 18.4347 31.2974 18.6031C31.2326 18.7715 31.1203 18.8967 30.9606 18.9788C30.8051 19.0608 30.5892 19.0997 30.3172 19.0997H29.4666ZM30.1056 18.6549H30.2999C30.4467 18.6549 30.5504 18.629 30.6151 18.5772C30.6799 18.5254 30.7188 18.452 30.7317 18.3526C30.7447 18.2533 30.7533 18.1281 30.7533 17.9856V16.6469C30.7533 16.5044 30.7447 16.3922 30.7231 16.3058C30.7015 16.2194 30.6626 16.1547 30.5979 16.1158C30.5331 16.0769 30.4338 16.0553 30.2913 16.0553H30.1056V18.6549Z" fill="white"/>
<path d="M32.6909 19.1468C32.4318 19.1468 32.2289 19.0993 32.0864 19.0043C31.9439 18.9093 31.8446 18.7755 31.7885 18.5984C31.7323 18.4214 31.7064 18.2141 31.7064 17.9679V15.6016H32.3282V18.0414C32.3282 18.1493 32.3368 18.253 32.3498 18.3523C32.3627 18.4473 32.3973 18.525 32.4491 18.5855C32.5052 18.6416 32.583 18.6718 32.6909 18.6718C32.8032 18.6718 32.8852 18.6416 32.9327 18.5855C32.9845 18.525 33.0191 18.4473 33.032 18.3523C33.0493 18.253 33.0579 18.1493 33.0579 18.0414V15.6016H33.6754V17.9679C33.6754 18.2141 33.6495 18.4214 33.5934 18.5984C33.5372 18.7755 33.4379 18.9093 33.2954 19.0043C33.1529 19.0993 32.9543 19.1468 32.6909 19.1468Z" fill="white"/>
<path d="M34.9766 19.1468C34.7219 19.1468 34.5189 19.095 34.3721 18.9957C34.2296 18.8964 34.126 18.7582 34.0699 18.5854C34.0137 18.4084 33.9835 18.2098 33.9835 17.9809V16.7329C33.9835 16.4954 34.0137 16.2881 34.0699 16.1111C34.126 15.9341 34.2296 15.8002 34.3721 15.7052C34.5189 15.6102 34.7219 15.5627 34.9766 15.5627C35.2185 15.5627 35.4084 15.6059 35.5423 15.6879C35.6805 15.77 35.7798 15.8865 35.8359 16.0377C35.8921 16.1888 35.9223 16.3659 35.9223 16.5688V16.8625H35.3091V16.5602C35.3091 16.4609 35.3048 16.3745 35.2919 16.2925C35.2832 16.2104 35.2573 16.15 35.2098 16.1025C35.1666 16.055 35.0889 16.0291 34.981 16.0291C34.873 16.0291 34.791 16.055 34.7392 16.1068C34.6917 16.1543 34.6571 16.2234 34.6442 16.3097C34.6312 16.3918 34.6226 16.4868 34.6226 16.5947V18.1148C34.6226 18.24 34.6312 18.3479 34.6528 18.43C34.6744 18.512 34.7089 18.5725 34.7608 18.6157C34.8169 18.6545 34.8903 18.6761 34.981 18.6761C35.0889 18.6761 35.1623 18.6502 35.2055 18.6027C35.253 18.5509 35.2789 18.4818 35.2919 18.3998C35.3048 18.3177 35.3091 18.2227 35.3091 18.1191V17.8038H35.9223V18.0845C35.9223 18.2918 35.8964 18.4775 35.8402 18.6373C35.7841 18.797 35.6891 18.9223 35.5509 19.0129C35.4171 19.1036 35.2228 19.1468 34.9766 19.1468Z" fill="white"/>
<path d="M36.5759 19.0996V16.0726H36.0189V15.6019H37.7634V16.0726H37.215V19.0996H36.5759Z" fill="white"/>
<path d="M38.5915 15.602H37.9611V19.0998H38.5915V15.602Z" fill="white"/>
<path d="M39.9404 19.1467C39.6942 19.1467 39.4956 19.0992 39.3488 19.0085C39.202 18.9178 39.0984 18.784 39.0336 18.6112C38.9688 18.4385 38.9386 18.2355 38.9386 17.998V16.6896C38.9386 16.4521 38.9688 16.2535 39.0336 16.0851C39.0984 15.9167 39.202 15.7871 39.3488 15.6964C39.4956 15.6057 39.6942 15.5626 39.9404 15.5626C40.1951 15.5626 40.3937 15.6057 40.5362 15.6964C40.683 15.7871 40.7867 15.9167 40.8514 16.0851C40.9162 16.2535 40.9508 16.4521 40.9508 16.6896V18.0024C40.9508 18.2355 40.9162 18.4385 40.8514 18.6112C40.7867 18.7796 40.683 18.9135 40.5362 19.0085C40.3937 19.0992 40.1951 19.1467 39.9404 19.1467ZM39.9404 18.676C40.0483 18.676 40.126 18.6544 40.1735 18.6069C40.2253 18.5594 40.2599 18.499 40.2772 18.4169C40.2944 18.3349 40.3031 18.2485 40.3031 18.1535V16.5428C40.3031 16.4435 40.2944 16.3571 40.2772 16.2794C40.2599 16.2017 40.2253 16.1412 40.1735 16.098C40.126 16.0505 40.0483 16.0289 39.9404 16.0289C39.841 16.0289 39.7633 16.0505 39.7115 16.098C39.6597 16.1412 39.6252 16.2017 39.6079 16.2794C39.5906 16.3571 39.582 16.4435 39.582 16.5428V18.1535C39.582 18.2485 39.5906 18.3349 39.6036 18.4169C39.6208 18.499 39.6554 18.5594 39.7072 18.6069C39.759 18.6544 39.8367 18.676 39.9404 18.676Z" fill="white"/>
<path d="M41.2815 19.0996V15.6019H41.7262L42.5769 17.5969V15.6019H43.1037V19.0996H42.6805L41.8256 17.0096V19.0996H41.2815Z" fill="white"/>
<path d="M0.185501 0.190491H48.1826V48.1905H0.185501V0.190491Z" fill="#193667"/>
<path d="M4.36768 6.17371C4.28458 6.21873 4.04369 6.31321 3.64453 6.45616C3.32796 6.56202 3.12862 6.63325 3.04602 6.67085V5.37137C3.30175 5.27343 3.61237 5.12305 3.97791 4.91974C4.34295 4.71594 4.60114 4.53143 4.75201 4.36572H6.11917V13.5184H4.36768V6.17371Z" fill="white"/>
<path d="M9.64447 5.69884H7.15845V4.36572H11.3505V5.50691L9.41842 13.518H7.72381L9.64447 5.69884Z" fill="white"/>
<path d="M36.1536 29.3253C36.1536 25.9388 33.4598 23.1722 30.1042 23.0495C29.2411 20.6118 26.9129 18.8602 24.183 18.8602C21.4536 18.8602 19.1259 20.6118 18.2617 23.0495C14.9062 23.1722 12.2134 25.9393 12.2134 29.3253C12.2134 31.3346 13.1631 33.1258 14.6366 34.2764C14.4768 34.8304 14.3888 35.4146 14.3888 36.0196C14.3888 39.4812 17.2057 42.2988 20.6691 42.2988C21.9834 42.2988 23.2036 41.8922 24.2136 41.1992C25.2113 41.867 26.4098 42.2572 27.6978 42.2572C31.1603 42.2572 33.9777 39.4396 33.9777 35.9775C33.9777 35.3849 33.8936 34.8121 33.7398 34.2689C35.2073 33.1179 36.1536 31.3302 36.1536 29.3253ZM29.199 25.141C29.199 27.6548 27.3382 29.7364 24.9229 30.096C24.8839 29.8442 24.8577 29.5875 24.8577 29.3253C24.8577 26.8109 26.718 24.7289 29.1333 24.3698C29.1723 24.6216 29.199 24.8778 29.199 25.141ZM24.2062 39.5702C23.2674 38.6586 22.6818 37.3858 22.6818 35.9775C22.6818 34.591 23.2481 33.334 24.1602 32.4253C25.0985 33.337 25.6847 34.6103 25.6847 36.0196C25.6847 37.4056 25.1188 38.662 24.2062 39.5702ZM19.2332 24.3698C21.6485 24.7289 23.5093 26.8109 23.5093 29.3253C23.5093 29.5875 23.4826 29.8442 23.4435 30.096C21.0282 29.7364 19.1674 27.6548 19.1674 25.141C19.1674 24.8778 19.1941 24.6216 19.2332 24.3698ZM22.9726 31.5686C22.1476 33.2099 20.452 34.3412 18.4932 34.3412C17.6627 34.3412 16.8797 34.1344 16.1892 33.7753C17.0143 32.1345 18.7104 31.0032 20.6691 31.0032C21.5001 31.0032 22.2821 31.2095 22.9726 31.5686ZM25.3775 31.5349C26.0725 31.1704 26.8599 30.9616 27.6978 30.9616C29.6694 30.9616 31.3744 32.1088 32.194 33.7674C31.4986 34.1319 30.7097 34.3412 29.8737 34.3412C27.9011 34.3412 26.1961 33.194 25.3775 31.5349ZM24.183 20.1251C26.2382 20.1251 28.006 21.3682 28.7806 23.141C26.7402 23.5011 25.0372 24.8476 24.183 26.6704C23.3297 24.8476 21.6262 23.5007 19.5859 23.141C20.36 21.3682 22.1283 20.1251 24.183 20.1251ZM13.4777 29.3253C13.4777 26.7407 15.4418 24.6077 17.9556 24.3381C17.9224 24.6013 17.9031 24.8694 17.9031 25.141C17.9031 26.9766 18.6955 28.6313 19.9549 29.7804C17.8715 30.0178 16.0948 31.2767 15.1396 33.0442C14.1222 32.1256 13.4777 30.8009 13.4777 29.3253ZM15.6535 36.0196C15.6535 35.6629 15.6911 35.3156 15.7629 34.9803C16.5894 35.3804 17.5153 35.6055 18.4932 35.6055C19.5933 35.6055 20.6261 35.3206 21.5258 34.8225C21.4556 35.1969 21.417 35.5833 21.417 35.9775C21.417 37.6742 22.0951 39.2146 23.1922 40.3459C22.4503 40.7807 21.5891 41.0344 20.6691 41.0344C17.9031 41.0344 15.6535 38.7842 15.6535 36.0196ZM32.7134 35.9775C32.7134 38.7427 30.4633 40.9929 27.6978 40.9929C26.7976 40.9929 25.9552 40.7515 25.2247 40.335C26.2916 39.2086 26.949 37.689 26.949 36.0196C26.949 35.6085 26.9079 35.2068 26.8322 34.8175C27.7339 35.3191 28.7702 35.6055 29.8737 35.6055C30.8546 35.6055 31.7845 35.379 32.612 34.9753C32.6788 35.2998 32.7134 35.6347 32.7134 35.9775ZM28.4502 29.7438C29.6872 28.5957 30.4633 26.9578 30.4633 25.141C30.4633 24.8694 30.444 24.6013 30.4109 24.3381C32.9241 24.6077 34.8893 26.7407 34.8893 29.3253C34.8893 30.7935 34.2512 32.1127 33.2412 33.0308C32.2959 31.2599 30.5276 29.9931 28.4502 29.7438Z" fill="white"/>
<path d="M15.5243 7.85738V4.35962H16.552C16.7635 4.35962 16.9319 4.39848 17.0615 4.47621C17.1953 4.55394 17.2903 4.66621 17.3508 4.81735C17.4156 4.96417 17.4458 5.14122 17.4458 5.35281C17.4458 5.58168 17.4069 5.76304 17.3292 5.90554C17.2515 6.04373 17.1435 6.14305 17.001 6.20782C16.8629 6.27259 16.6988 6.30282 16.5088 6.30282H16.1633V7.85738H15.5243ZM16.1633 5.85372H16.4052C16.5217 5.85372 16.6081 5.83645 16.6729 5.80622C16.7376 5.77168 16.7851 5.71986 16.8067 5.64645C16.8326 5.57304 16.8456 5.47372 16.8456 5.34849C16.8456 5.22326 16.8369 5.11963 16.8154 5.0419C16.7981 4.95985 16.7592 4.90372 16.6945 4.86485C16.634 4.82599 16.539 4.80871 16.4052 4.80871H16.1633V5.85372Z" fill="white"/>
<path d="M17.3254 7.85744L18.0249 4.35968H18.7072L19.4067 7.85744H18.8151L18.677 7.04993H18.0681L17.9256 7.85744H17.3254ZM18.1329 6.64402H18.6079L18.3704 5.17582L18.1329 6.64402Z" fill="white"/>
<path d="M19.6538 7.85744V4.35968H20.4915C20.729 4.35968 20.9276 4.38991 21.0874 4.44604C21.2514 4.50218 21.3767 4.59718 21.4587 4.73105C21.5451 4.86491 21.5882 5.0506 21.5882 5.28378C21.5882 5.42628 21.5753 5.55151 21.5494 5.66378C21.5235 5.77606 21.4803 5.87106 21.4155 5.9531C21.3551 6.03083 21.2687 6.09129 21.1608 6.13447L21.6487 7.85744H21.0096L20.5865 6.25538H20.2929V7.85744H19.6538ZM20.2929 5.85379H20.4915C20.6167 5.85379 20.7117 5.83651 20.7851 5.80197C20.8585 5.7631 20.9146 5.70697 20.9449 5.62924C20.9751 5.54719 20.9924 5.44787 20.9924 5.32264C20.9924 5.1456 20.9578 5.01605 20.8931 4.92969C20.8283 4.839 20.7074 4.79582 20.526 4.79582H20.2929V5.85379Z" fill="white"/>
<path d="M22.2628 7.85744V4.83037H21.7058V4.35968H23.4503V4.83037H22.9019V7.85744H22.2628Z" fill="white"/>
<path d="M23.6669 7.85744V4.35968H24.1116L24.9623 6.3547V4.35968H25.489V7.85744H25.0659L24.2109 5.76742V7.85744H23.6669Z" fill="white"/>
<path d="M25.9174 7.85744V4.35968H27.3855V4.80878H26.5564V5.81492H27.2084V6.2597H26.5564V7.41698H27.3941V7.85744H25.9174Z" fill="white"/>
<path d="M27.6626 7.85744V4.35968H28.5003C28.7378 4.35968 28.9364 4.38991 29.0962 4.44604C29.2602 4.50218 29.3855 4.59718 29.4675 4.73105C29.5539 4.86491 29.597 5.0506 29.597 5.28378C29.597 5.42628 29.5841 5.55151 29.5582 5.66378C29.5323 5.77606 29.4891 5.87106 29.4243 5.9531C29.3639 6.03083 29.2775 6.09129 29.1696 6.13447L29.6575 7.85744H29.0184L28.5953 6.25538H28.3017V7.85744H27.6626ZM28.3017 5.85379H28.5003C28.6255 5.85379 28.7205 5.83651 28.7939 5.80197C28.8673 5.7631 28.9234 5.70697 28.9537 5.62924C28.9839 5.54719 29.0012 5.44787 29.0012 5.32264C29.0012 5.1456 28.9666 5.01605 28.9018 4.92969C28.8371 4.839 28.7162 4.79582 28.5348 4.79582H28.3017V5.85379Z" fill="white"/>
<path d="M30.8545 7.90493C30.643 7.90493 30.4703 7.86606 30.3278 7.78402C30.1853 7.70197 30.0816 7.58106 30.0082 7.42128C29.9348 7.26151 29.896 7.06719 29.8873 6.83832L30.4357 6.73037C30.44 6.86423 30.4573 6.98514 30.4832 7.08878C30.5134 7.19242 30.5523 7.27447 30.6084 7.3306C30.6646 7.38674 30.7423 7.41265 30.833 7.41265C30.9366 7.41265 31.01 7.38242 31.0532 7.32197C31.0964 7.25719 31.1179 7.17946 31.1179 7.08446C31.1179 6.93333 31.0834 6.8081 31.0143 6.70878C30.9452 6.60946 30.8545 6.51446 30.738 6.41514L30.2975 6.0265C30.1723 5.91854 30.073 5.80195 29.9996 5.6724C29.9262 5.53854 29.8916 5.37877 29.8916 5.18445C29.8916 4.90808 29.9737 4.69649 30.1335 4.54535C30.2932 4.39421 30.5134 4.3208 30.7941 4.3208C30.9582 4.3208 31.0964 4.34671 31.2043 4.39853C31.3123 4.44603 31.3986 4.51512 31.4634 4.6058C31.5281 4.69649 31.58 4.79581 31.6102 4.9124C31.6404 5.02467 31.662 5.14558 31.6706 5.27081L31.1266 5.36581C31.1223 5.25785 31.1093 5.15854 31.0877 5.07217C31.0704 4.98581 31.0359 4.91672 30.9884 4.86922C30.9409 4.82171 30.8718 4.79581 30.7811 4.79581C30.6861 4.79581 30.6127 4.82603 30.5609 4.89081C30.5134 4.95126 30.4875 5.02899 30.4875 5.11967C30.4875 5.23626 30.5134 5.33558 30.5609 5.41331C30.6084 5.48672 30.6818 5.56445 30.7725 5.64649L31.2086 6.03082C31.3511 6.15173 31.4763 6.29423 31.5756 6.45832C31.6793 6.6181 31.7311 6.81673 31.7311 7.0456C31.7311 7.21401 31.6922 7.36083 31.6188 7.49038C31.5454 7.61992 31.4461 7.72356 31.3123 7.79697C31.1827 7.87038 31.0316 7.90493 30.8545 7.90493Z" fill="white"/>
<path d="M32.0126 7.85744V4.35968H32.6473V5.82356H33.3641V4.35968H33.9988V7.85744H33.3641V6.27697H32.6473V7.85744H32.0126Z" fill="white"/>
<path d="M35.0793 4.35968H34.4489V7.85744H35.0793V4.35968Z" fill="white"/>
<path d="M35.5162 7.85744V4.35968H36.5439C36.7555 4.35968 36.9239 4.39854 37.0534 4.47627C37.1873 4.554 37.2823 4.66627 37.3427 4.81741C37.4075 4.96423 37.4377 5.14128 37.4377 5.35287C37.4377 5.58174 37.3989 5.7631 37.3211 5.9056C37.2434 6.04379 37.1355 6.14311 36.993 6.20788C36.8548 6.27265 36.6907 6.30288 36.5007 6.30288H36.1553V7.85744H35.5162ZM36.1553 5.85379H36.3971C36.5137 5.85379 36.6 5.83651 36.6648 5.80628C36.7296 5.77174 36.7771 5.71992 36.7987 5.64651C36.8246 5.5731 36.8375 5.47378 36.8375 5.34855C36.8375 5.22332 36.8289 5.11969 36.8073 5.04196C36.79 4.95991 36.7512 4.90378 36.6864 4.86491C36.6259 4.82605 36.531 4.80878 36.3971 4.80878H36.1553V5.85379Z" fill="white"/>
<path d="M38.5572 7.90493C38.3456 7.90493 38.1729 7.86606 38.0304 7.78402C37.8879 7.70197 37.7843 7.58106 37.7109 7.42128C37.6375 7.26151 37.5986 7.06719 37.59 6.83832L38.1383 6.73037C38.1427 6.86423 38.1599 6.98514 38.1858 7.08878C38.2161 7.19242 38.2549 7.27447 38.3111 7.3306C38.3672 7.38674 38.4449 7.41265 38.5356 7.41265C38.6392 7.41265 38.7126 7.38242 38.7558 7.32197C38.799 7.25719 38.8206 7.17946 38.8206 7.08446C38.8206 6.93333 38.786 6.8081 38.7169 6.70878C38.6479 6.60946 38.5572 6.51446 38.4406 6.41514L38.0002 6.0265C37.875 5.91854 37.7756 5.80195 37.7022 5.6724C37.6288 5.53854 37.5943 5.37877 37.5943 5.18445C37.5943 4.90808 37.6763 4.69649 37.8361 4.54535C37.9959 4.39421 38.2161 4.3208 38.4967 4.3208C38.6608 4.3208 38.799 4.34671 38.9069 4.39853C39.0149 4.44603 39.1012 4.51512 39.166 4.6058C39.2308 4.69649 39.2826 4.79581 39.3128 4.9124C39.3431 5.02467 39.3646 5.14558 39.3733 5.27081L38.8292 5.36581C38.8249 5.25785 38.8119 5.15854 38.7904 5.07217C38.7731 4.98581 38.7385 4.91672 38.691 4.86922C38.6435 4.82171 38.5745 4.79581 38.4838 4.79581C38.3888 4.79581 38.3154 4.82603 38.2636 4.89081C38.2161 4.95126 38.1902 5.02899 38.1902 5.11967C38.1902 5.23626 38.2161 5.33558 38.2636 5.41331C38.3111 5.48672 38.3845 5.56445 38.4751 5.64649L38.9113 6.03082C39.0537 6.15173 39.179 6.29423 39.2783 6.45832C39.3819 6.6181 39.4337 6.81673 39.4337 7.0456C39.4337 7.21401 39.3949 7.36083 39.3215 7.49038C39.2481 7.61992 39.1487 7.72356 39.0149 7.79697C38.8853 7.87038 38.7342 7.90493 38.5572 7.90493Z" fill="white"/>
<path d="M15.5243 13.5734V10.0757H16.9622V10.5161H16.1633V11.5352H16.8154V11.98H16.1633V13.5734H15.5243Z" fill="white"/>
<path d="M18.1211 13.6211C17.875 13.6211 17.6764 13.5736 17.5296 13.4829C17.3828 13.3922 17.2791 13.2584 17.2144 13.0857C17.1496 12.9129 17.1194 12.71 17.1194 12.4725V11.164C17.1194 10.9265 17.1496 10.7279 17.2144 10.5595C17.2791 10.3911 17.3828 10.2615 17.5296 10.1709C17.6764 10.0802 17.875 10.037 18.1211 10.037C18.3759 10.037 18.5745 10.0802 18.717 10.1709C18.8638 10.2615 18.9675 10.3911 19.0322 10.5595C19.097 10.7279 19.1315 10.9265 19.1315 11.164V12.4768C19.1315 12.71 19.097 12.9129 19.0322 13.0857C18.9675 13.2541 18.8638 13.3879 18.717 13.4829C18.5745 13.5736 18.3759 13.6211 18.1211 13.6211ZM18.1211 13.1504C18.2291 13.1504 18.3068 13.1288 18.3543 13.0813C18.4061 13.0338 18.4407 12.9734 18.4579 12.8913C18.4752 12.8093 18.4839 12.7229 18.4839 12.6279V11.0172C18.4839 10.9179 18.4752 10.8315 18.4579 10.7538C18.4407 10.6761 18.4061 10.6156 18.3543 10.5724C18.3068 10.5249 18.2291 10.5034 18.1211 10.5034C18.0218 10.5034 17.9441 10.5249 17.8923 10.5724C17.8405 10.6156 17.8059 10.6761 17.7887 10.7538C17.7714 10.8315 17.7628 10.9179 17.7628 11.0172V12.6279C17.7628 12.7229 17.7714 12.8093 17.7843 12.8913C17.8016 12.9734 17.8362 13.0338 17.888 13.0813C17.9398 13.1288 18.0175 13.1504 18.1211 13.1504Z" fill="white"/>
<path d="M19.4664 13.5736V10.0758H20.3041C20.5416 10.0758 20.7402 10.106 20.9 10.1622C21.0641 10.2183 21.1893 10.3133 21.2713 10.4472C21.3577 10.581 21.4009 10.7667 21.4009 10.9999C21.4009 11.1424 21.3879 11.2676 21.362 11.3799C21.3361 11.4922 21.2929 11.5872 21.2282 11.6692C21.1677 11.747 21.0813 11.8074 20.9734 11.8506L21.4613 13.5736H20.8223L20.3991 11.9715H20.1055V13.5736H19.4664ZM20.1055 11.5699H20.3041C20.4293 11.5699 20.5243 11.5526 20.5977 11.5181C20.6711 11.4792 20.7273 11.4231 20.7575 11.3454C20.7877 11.2633 20.805 11.164 20.805 11.0388C20.805 10.8617 20.7704 10.7322 20.7057 10.6458C20.6409 10.5551 20.52 10.5119 20.3387 10.5119H20.1055V11.5699Z" fill="white"/>
<path d="M23.0158 13.5736V10.5465H22.4587V10.0758H24.2032V10.5465H23.6548V13.5736H23.0158Z" fill="white"/>
<path d="M24.3953 13.5736V10.0758H25.03V11.5397H25.7468V10.0758H26.3815V13.5736H25.7468V11.9931H25.03V13.5736H24.3953Z" fill="white"/>
<path d="M26.7809 13.5736V10.0758H28.249V10.5249H27.4199V11.531H28.0719V11.9758H27.4199V13.1331H28.2576V13.5736H26.7809Z" fill="white"/>
<path d="M30.2829 13.6211C30.054 13.6211 29.8683 13.5736 29.7345 13.4743C29.6006 13.375 29.5013 13.2368 29.4409 13.0597C29.3847 12.8784 29.3545 12.6668 29.3545 12.4206V11.2461C29.3545 10.9956 29.3847 10.7797 29.4409 10.5984C29.497 10.417 29.6006 10.2788 29.7431 10.1838C29.8899 10.0845 30.0929 10.037 30.3476 10.037C30.5851 10.037 30.7751 10.0759 30.9176 10.1579C31.0601 10.2399 31.1594 10.3565 31.2198 10.5077C31.2846 10.6588 31.3148 10.8402 31.3148 11.0561V11.2375H30.706V11.0388C30.706 10.9265 30.6974 10.8315 30.6801 10.7495C30.6671 10.6674 30.6326 10.607 30.5851 10.5681C30.5376 10.5249 30.4642 10.5034 30.3563 10.5034C30.244 10.5034 30.1619 10.5293 30.1101 10.5854C30.0626 10.6415 30.0281 10.7106 30.0151 10.8013C30.0022 10.892 29.9979 10.987 29.9979 11.095V12.5588C29.9979 12.6797 30.0065 12.7834 30.0281 12.8741C30.0497 12.9647 30.0842 13.0338 30.1404 13.0813C30.1965 13.1288 30.2742 13.1504 30.3735 13.1504C30.4772 13.1504 30.5549 13.1245 30.611 13.0727C30.6671 13.0209 30.7017 12.9475 30.7233 12.8568C30.7449 12.7661 30.7578 12.6538 30.7578 12.5286V12.2004H30.3822V11.7988H31.3321V13.5736H30.9219L30.8744 13.2282C30.8269 13.3447 30.7578 13.4397 30.6628 13.5132C30.5722 13.5866 30.4426 13.6211 30.2829 13.6211Z" fill="white"/>
<path d="M32.634 13.6211C32.3878 13.6211 32.1892 13.5736 32.0424 13.4829C31.8956 13.3922 31.792 13.2584 31.7272 13.0857C31.6624 12.9129 31.6322 12.71 31.6322 12.4725V11.164C31.6322 10.9265 31.6624 10.7279 31.7272 10.5595C31.792 10.3911 31.8956 10.2615 32.0424 10.1709C32.1892 10.0802 32.3878 10.037 32.634 10.037C32.8887 10.037 33.0873 10.0802 33.2298 10.1709C33.3767 10.2615 33.4803 10.3911 33.5451 10.5595C33.6098 10.7279 33.6444 10.9265 33.6444 11.164V12.4768C33.6444 12.71 33.6098 12.9129 33.5451 13.0857C33.4803 13.2541 33.3767 13.3879 33.2298 13.4829C33.0873 13.5736 32.8887 13.6211 32.634 13.6211ZM32.634 13.1504C32.7419 13.1504 32.8196 13.1288 32.8671 13.0813C32.9189 13.0338 32.9535 12.9734 32.9708 12.8913C32.988 12.8093 32.9967 12.7229 32.9967 12.6279V11.0172C32.9967 10.9179 32.988 10.8315 32.9708 10.7538C32.9535 10.6761 32.9189 10.6156 32.8671 10.5724C32.8196 10.5249 32.7419 10.5034 32.634 10.5034C32.5347 10.5034 32.4569 10.5249 32.4051 10.5724C32.3533 10.6156 32.3188 10.6761 32.3015 10.7538C32.2842 10.8315 32.2756 10.9179 32.2756 11.0172V12.6279C32.2756 12.7229 32.2842 12.8093 32.2972 12.8913C32.3144 12.9734 32.349 13.0338 32.4008 13.0813C32.4526 13.1288 32.5303 13.1504 32.634 13.1504Z" fill="white"/>
<path d="M33.7804 13.5736L34.4799 10.0758H35.1621L35.8616 13.5736H35.2701L35.1319 12.7661H34.5231L34.3806 13.5736H33.7804ZM34.5879 12.3601H35.0628L34.8253 10.8919L34.5879 12.3601Z" fill="white"/>
<path d="M36.0753 13.5736V10.0758H36.7144V13.1331H37.5607V13.5736H36.0753Z" fill="white"/>
<path d="M38.6249 13.6211C38.4134 13.6211 38.2406 13.5822 38.0981 13.5002C37.9557 13.4182 37.852 13.2972 37.7786 13.1375C37.7052 12.9777 37.6664 12.7834 37.6577 12.5545L38.2061 12.4466C38.2104 12.5804 38.2277 12.7013 38.2536 12.805C38.2838 12.9086 38.3227 12.9907 38.3788 13.0468C38.4349 13.1029 38.5127 13.1288 38.6033 13.1288C38.707 13.1288 38.7804 13.0986 38.8236 13.0382C38.8667 12.9734 38.8883 12.8957 38.8883 12.8006C38.8883 12.6495 38.8538 12.5243 38.7847 12.425C38.7156 12.3256 38.6249 12.2306 38.5083 12.1313L38.0679 11.7427C37.9427 11.6347 37.8434 11.5181 37.77 11.3886C37.6966 11.2547 37.662 11.095 37.662 10.9006C37.662 10.6243 37.7441 10.4127 37.9038 10.2615C38.0636 10.1104 38.2838 10.037 38.5645 10.037C38.7286 10.037 38.8667 10.0629 38.9747 10.1147C39.0826 10.1622 39.169 10.2313 39.2338 10.322C39.2985 10.4127 39.3503 10.512 39.3806 10.6286C39.4108 10.7409 39.4324 10.8618 39.441 10.987L38.897 11.082C38.8926 10.974 38.8797 10.8747 38.8581 10.7884C38.8408 10.702 38.8063 10.6329 38.7588 10.5854C38.7113 10.5379 38.6422 10.512 38.5515 10.512C38.4565 10.512 38.3831 10.5422 38.3313 10.607C38.2838 10.6674 38.2579 10.7452 38.2579 10.8359C38.2579 10.9525 38.2838 11.0518 38.3313 11.1295C38.3788 11.2029 38.4522 11.2806 38.5429 11.3627L38.979 11.747C39.1215 11.8679 39.2467 12.0104 39.346 12.1745C39.4497 12.3343 39.5015 12.5329 39.5015 12.7618C39.5015 12.9302 39.4626 13.077 39.3892 13.2066C39.3158 13.3361 39.2165 13.4397 39.0826 13.5132C38.9531 13.5866 38.802 13.6211 38.6249 13.6211Z" fill="white"/>
</svg>
