<svg width="48" height="48" viewBox="0 0 48 48" fill="none" xmlns="http://www.w3.org/2000/svg">
<path d="M-4.57764e-05 6.10352e-05H47.9971V48.0001H-4.57764e-05V6.10352e-05Z" fill="#193667"/>
<path d="M4.18225 5.98328C4.09915 6.0283 3.85827 6.12278 3.4591 6.26573C3.14254 6.37159 2.9432 6.44282 2.8606 6.48042V5.18094C3.11632 5.083 3.42695 4.93262 3.79248 4.72931C4.15752 4.52551 4.41572 4.341 4.56658 4.17529H5.93374V13.328H4.18225V5.98328Z" fill="white"/>
<path d="M9.45917 5.50841H6.97314V4.17529H11.1652V5.31648L9.23312 13.3275H7.53851L9.45917 5.50841Z" fill="white"/>
<path d="M35.968 29.1349C35.968 25.7484 33.2743 22.9818 29.9187 22.8591C29.0555 20.4214 26.7273 18.6698 23.9974 18.6698C21.2681 18.6698 18.9403 20.4214 18.0762 22.8591C14.7206 22.9818 12.0278 25.7489 12.0278 29.1349C12.0278 31.1442 12.9775 32.9354 14.451 34.0859C14.2913 34.64 14.2032 35.2242 14.2032 35.8291C14.2032 39.2908 17.0202 42.1084 20.4836 42.1084C21.7978 42.1084 23.0181 41.7017 24.0281 41.0087C25.0258 41.6765 26.2243 42.0668 27.5123 42.0668C30.9747 42.0668 33.7921 39.2492 33.7921 35.7871C33.7921 35.1945 33.708 34.6217 33.5542 34.0785C35.0218 32.9274 35.968 31.1397 35.968 29.1349ZM29.0135 24.9505C29.0135 27.4644 27.1527 29.5459 24.7374 29.9055C24.6983 29.6538 24.6721 29.397 24.6721 29.1349C24.6721 26.6205 26.5324 24.5385 28.9477 24.1793C28.9868 24.4311 29.0135 24.6874 29.0135 24.9505ZM24.0207 39.3798C23.0819 38.4681 22.4962 37.1954 22.4962 35.7871C22.4962 34.4005 23.0626 33.1436 23.9747 32.2349C24.913 33.1466 25.4991 34.4198 25.4991 35.8291C25.4991 37.2152 24.9333 38.4716 24.0207 39.3798ZM19.0477 24.1793C21.4629 24.5385 23.3237 26.6205 23.3237 29.1349C23.3237 29.397 23.297 29.6538 23.258 29.9055C20.8427 29.5459 18.9819 27.4644 18.9819 24.9505C18.9819 24.6874 19.0086 24.4311 19.0477 24.1793ZM22.7871 31.3782C21.962 33.0194 20.2664 34.1507 18.3077 34.1507C17.4772 34.1507 16.6942 33.944 16.0037 33.5848C16.8287 31.944 18.5248 30.8128 20.4836 30.8128C21.3145 30.8128 22.0966 31.019 22.7871 31.3782ZM25.192 31.3445C25.8869 30.98 26.6744 30.7712 27.5123 30.7712C29.4839 30.7712 31.1889 31.9183 32.0085 33.5769C31.313 33.9415 30.5241 34.1507 29.6882 34.1507C27.7156 34.1507 26.0106 33.0036 25.192 31.3445ZM23.9974 19.9346C26.0526 19.9346 27.8204 21.1777 28.595 22.9506C26.5547 23.3107 24.8517 24.6572 23.9974 26.48C23.1442 24.6572 21.4407 23.3102 19.4003 22.9506C20.1744 21.1777 21.9427 19.9346 23.9974 19.9346ZM13.2921 29.1349C13.2921 26.5503 15.2563 24.4173 17.77 24.1477C17.7369 24.4108 17.7176 24.679 17.7176 24.9505C17.7176 26.7862 18.51 28.4409 19.7693 29.59C17.6859 29.8274 15.9092 31.0863 14.9541 32.8537C13.9366 31.9351 13.2921 30.6104 13.2921 29.1349ZM15.468 35.8291C15.468 35.4725 15.5056 35.1252 15.5773 34.7898C16.4038 35.19 17.3298 35.4151 18.3077 35.4151C19.4077 35.4151 20.4405 35.1302 21.3403 34.632C21.27 35.0065 21.2315 35.3928 21.2315 35.7871C21.2315 37.4838 21.9096 39.0241 23.0067 40.1554C22.2647 40.5902 21.4036 40.844 20.4836 40.844C17.7176 40.844 15.468 38.5938 15.468 35.8291ZM32.5279 35.7871C32.5279 38.5522 30.2778 40.8025 27.5123 40.8025C26.6121 40.8025 25.7697 40.5611 25.0391 40.1446C26.1061 39.0182 26.7634 37.4986 26.7634 35.8291C26.7634 35.4181 26.7224 35.0164 26.6467 34.6271C27.5484 35.1287 28.5847 35.4151 29.6882 35.4151C30.669 35.4151 31.5989 35.1885 32.4265 34.7849C32.4932 35.1094 32.5279 35.4443 32.5279 35.7871ZM28.2646 29.5533C29.5017 28.4052 30.2778 26.7674 30.2778 24.9505C30.2778 24.679 30.2585 24.4108 30.2253 24.1477C32.7386 24.4173 34.7037 26.5503 34.7037 29.1349C34.7037 30.603 34.0657 31.9223 33.0556 32.8404C32.1104 31.0695 30.3421 29.8027 28.2646 29.5533Z" fill="white"/>
<path d="M15.3389 7.66695V4.16919H16.3665C16.5781 4.16919 16.7465 4.20805 16.8761 4.28578C17.0099 4.36351 17.1049 4.47578 17.1654 4.62692C17.2301 4.77374 17.2604 4.95079 17.2604 5.16238C17.2604 5.39125 17.2215 5.57261 17.1438 5.71511C17.066 5.8533 16.9581 5.95262 16.8156 6.01739C16.6774 6.08216 16.5133 6.11239 16.3234 6.11239H15.9779V7.66695H15.3389ZM15.9779 5.66329H16.2197C16.3363 5.66329 16.4227 5.64602 16.4874 5.61579C16.5522 5.58125 16.5997 5.52943 16.6213 5.45602C16.6472 5.38261 16.6602 5.28329 16.6602 5.15806C16.6602 5.03283 16.6515 4.9292 16.6299 4.85147C16.6127 4.76942 16.5738 4.71329 16.509 4.67442C16.4486 4.63556 16.3536 4.61828 16.2197 4.61828H15.9779V5.66329Z" fill="white"/>
<path d="M17.1401 7.66701L17.8396 4.16925H18.5219L19.2214 7.66701H18.6298L18.4917 6.8595H17.8828L17.7403 7.66701H17.1401ZM17.9476 6.45359H18.4226L18.1851 4.98539L17.9476 6.45359Z" fill="white"/>
<path d="M19.4683 7.66701V4.16925H20.3059C20.5434 4.16925 20.7421 4.19948 20.9018 4.25561C21.0659 4.31175 21.1911 4.40675 21.2732 4.54062C21.3595 4.67448 21.4027 4.86017 21.4027 5.09335C21.4027 5.23585 21.3897 5.36108 21.3638 5.47335C21.3379 5.58563 21.2948 5.68063 21.23 5.76267C21.1695 5.8404 21.0832 5.90086 20.9752 5.94404L21.4632 7.66701H20.8241L20.4009 6.06495H20.1073V7.66701H19.4683ZM20.1073 5.66336H20.3059C20.4312 5.66336 20.5262 5.64608 20.5996 5.61154C20.673 5.57267 20.7291 5.51654 20.7593 5.43881C20.7896 5.35676 20.8068 5.25744 20.8068 5.13221C20.8068 4.95517 20.7723 4.82562 20.7075 4.73926C20.6427 4.64857 20.5218 4.60539 20.3405 4.60539H20.1073V5.66336Z" fill="white"/>
<path d="M22.0773 7.66701V4.63994H21.5203V4.16925H23.2647V4.63994H22.7163V7.66701H22.0773Z" fill="white"/>
<path d="M23.4814 7.66701V4.16925H23.9262L24.7768 6.16427V4.16925H25.3036V7.66701H24.8805L24.0255 5.57699V7.66701H23.4814Z" fill="white"/>
<path d="M25.7319 7.66701V4.16925H27.2V4.61835H26.371V5.62449H27.023V6.06927H26.371V7.22655H27.2087V7.66701H25.7319Z" fill="white"/>
<path d="M27.4773 7.66701V4.16925H28.315C28.5525 4.16925 28.7511 4.19948 28.9109 4.25561C29.0749 4.31175 29.2002 4.40675 29.2822 4.54062C29.3686 4.67448 29.4117 4.86017 29.4117 5.09335C29.4117 5.23585 29.3988 5.36108 29.3729 5.47335C29.347 5.58563 29.3038 5.68063 29.239 5.76267C29.1786 5.8404 29.0922 5.90086 28.9843 5.94404L29.4722 7.66701H28.8331L28.41 6.06495H28.1164V7.66701H27.4773ZM28.1164 5.66336H28.315C28.4402 5.66336 28.5352 5.64608 28.6086 5.61154C28.682 5.57267 28.7381 5.51654 28.7684 5.43881C28.7986 5.35676 28.8159 5.25744 28.8159 5.13221C28.8159 4.95517 28.7813 4.82562 28.7165 4.73926C28.6518 4.64857 28.5309 4.60539 28.3495 4.60539H28.1164V5.66336Z" fill="white"/>
<path d="M30.6691 7.7145C30.4575 7.7145 30.2848 7.67563 30.1423 7.59359C29.9998 7.51154 29.8962 7.39063 29.8228 7.23085C29.7494 7.07108 29.7105 6.87676 29.7019 6.64789L30.2503 6.53994C30.2546 6.6738 30.2719 6.79471 30.2978 6.89835C30.328 7.00199 30.3669 7.08404 30.423 7.14017C30.4791 7.19631 30.5569 7.22222 30.6475 7.22222C30.7512 7.22222 30.8246 7.19199 30.8677 7.13154C30.9109 7.06676 30.9325 6.98903 30.9325 6.89403C30.9325 6.7429 30.898 6.61767 30.8289 6.51835C30.7598 6.41903 30.6691 6.32403 30.5525 6.22471L30.1121 5.83607C29.9869 5.72811 29.8876 5.61152 29.8142 5.48197C29.7408 5.34811 29.7062 5.18834 29.7062 4.99402C29.7062 4.71765 29.7883 4.50606 29.948 4.35492C30.1078 4.20378 30.328 4.13037 30.6087 4.13037C30.7728 4.13037 30.9109 4.15628 31.0189 4.2081C31.1268 4.2556 31.2132 4.32469 31.278 4.41537C31.3427 4.50606 31.3945 4.60538 31.4248 4.72197C31.455 4.83424 31.4766 4.95515 31.4852 5.08038L30.9412 5.17538C30.9368 5.06743 30.9239 4.96811 30.9023 4.88174C30.885 4.79538 30.8505 4.72629 30.803 4.67879C30.7555 4.63129 30.6864 4.60538 30.5957 4.60538C30.5007 4.60538 30.4273 4.6356 30.3755 4.70038C30.328 4.76083 30.3021 4.83856 30.3021 4.92924C30.3021 5.04583 30.328 5.14515 30.3755 5.22288C30.423 5.29629 30.4964 5.37402 30.5871 5.45607L31.0232 5.84039C31.1657 5.9613 31.2909 6.1038 31.3902 6.26789C31.4939 6.42767 31.5457 6.6263 31.5457 6.85517C31.5457 7.02358 31.5068 7.1704 31.4334 7.29995C31.36 7.42949 31.2607 7.53313 31.1268 7.60654C30.9973 7.67995 30.8462 7.7145 30.6691 7.7145Z" fill="white"/>
<path d="M31.8271 7.66701V4.16925H32.4619V5.63313H33.1787V4.16925H33.8134V7.66701H33.1787V6.08654H32.4619V7.66701H31.8271Z" fill="white"/>
<path d="M34.8938 4.16925H34.2634V7.66701H34.8938V4.16925Z" fill="white"/>
<path d="M35.3308 7.66701V4.16925H36.3585C36.5701 4.16925 36.7385 4.20811 36.868 4.28584C37.0019 4.36357 37.0968 4.47584 37.1573 4.62698C37.2221 4.7738 37.2523 4.95085 37.2523 5.16244C37.2523 5.39131 37.2134 5.57267 37.1357 5.71517C37.058 5.85336 36.95 5.95268 36.8075 6.01745C36.6694 6.08222 36.5053 6.11245 36.3153 6.11245H35.9699V7.66701H35.3308ZM35.9699 5.66336H36.2117C36.3283 5.66336 36.4146 5.64608 36.4794 5.61586C36.5442 5.58131 36.5917 5.52949 36.6132 5.45608C36.6391 5.38267 36.6521 5.28335 36.6521 5.15812C36.6521 5.0329 36.6435 4.92926 36.6219 4.85153C36.6046 4.76948 36.5657 4.71335 36.501 4.67448C36.4405 4.63562 36.3455 4.61835 36.2117 4.61835H35.9699V5.66336Z" fill="white"/>
<path d="M38.3718 7.7145C38.1602 7.7145 37.9875 7.67563 37.845 7.59359C37.7025 7.51154 37.5988 7.39063 37.5254 7.23085C37.452 7.07108 37.4132 6.87676 37.4045 6.64789L37.9529 6.53994C37.9572 6.6738 37.9745 6.79471 38.0004 6.89835C38.0306 7.00199 38.0695 7.08404 38.1256 7.14017C38.1818 7.19631 38.2595 7.22222 38.3502 7.22222C38.4538 7.22222 38.5272 7.19199 38.5704 7.13154C38.6136 7.06676 38.6352 6.98903 38.6352 6.89403C38.6352 6.7429 38.6006 6.61767 38.5315 6.51835C38.4624 6.41903 38.3718 6.32403 38.2552 6.22471L37.8147 5.83607C37.6895 5.72811 37.5902 5.61152 37.5168 5.48197C37.4434 5.34811 37.4089 5.18834 37.4089 4.99402C37.4089 4.71765 37.4909 4.50606 37.6507 4.35492C37.8104 4.20378 38.0306 4.13037 38.3113 4.13037C38.4754 4.13037 38.6136 4.15628 38.7215 4.2081C38.8295 4.2556 38.9158 4.32469 38.9806 4.41537C39.0454 4.50606 39.0972 4.60538 39.1274 4.72197C39.1576 4.83424 39.1792 4.95515 39.1879 5.08038L38.6438 5.17538C38.6395 5.06743 38.6265 4.96811 38.6049 4.88174C38.5877 4.79538 38.5531 4.72629 38.5056 4.67879C38.4581 4.63129 38.389 4.60538 38.2984 4.60538C38.2034 4.60538 38.13 4.6356 38.0781 4.70038C38.0306 4.76083 38.0047 4.83856 38.0047 4.92924C38.0047 5.04583 38.0306 5.14515 38.0781 5.22288C38.1256 5.29629 38.199 5.37402 38.2897 5.45607L38.7258 5.84039C38.8683 5.9613 38.9935 6.1038 39.0929 6.26789C39.1965 6.42767 39.2483 6.6263 39.2483 6.85517C39.2483 7.02358 39.2094 7.1704 39.136 7.29995C39.0626 7.42949 38.9633 7.53313 38.8295 7.60654C38.6999 7.67995 38.5488 7.7145 38.3718 7.7145Z" fill="white"/>
<path d="M15.3389 13.383V9.88525H16.7767V10.3257H15.9779V11.3448H16.6299V11.7896H15.9779V13.383H15.3389Z" fill="white"/>
<path d="M17.9358 13.4307C17.6897 13.4307 17.4911 13.3832 17.3443 13.2925C17.1975 13.2018 17.0938 13.068 17.0291 12.8952C16.9643 12.7225 16.9341 12.5195 16.9341 12.282V10.9736C16.9341 10.7361 16.9643 10.5375 17.0291 10.3691C17.0938 10.2007 17.1975 10.0711 17.3443 9.98042C17.4911 9.88974 17.6897 9.84656 17.9358 9.84656C18.1906 9.84656 18.3892 9.88974 18.5317 9.98042C18.6785 10.0711 18.7822 10.2007 18.8469 10.3691C18.9117 10.5375 18.9462 10.7361 18.9462 10.9736V12.2864C18.9462 12.5195 18.9117 12.7225 18.8469 12.8952C18.7822 13.0636 18.6785 13.1975 18.5317 13.2925C18.3892 13.3832 18.1906 13.4307 17.9358 13.4307ZM17.9358 12.96C18.0438 12.96 18.1215 12.9384 18.169 12.8909C18.2208 12.8434 18.2554 12.7829 18.2726 12.7009C18.2899 12.6189 18.2986 12.5325 18.2986 12.4375V10.8268C18.2986 10.7275 18.2899 10.6411 18.2726 10.5634C18.2554 10.4857 18.2208 10.4252 18.169 10.382C18.1215 10.3345 18.0438 10.3129 17.9358 10.3129C17.8365 10.3129 17.7588 10.3345 17.707 10.382C17.6552 10.4252 17.6206 10.4857 17.6034 10.5634C17.5861 10.6411 17.5775 10.7275 17.5775 10.8268V12.4375C17.5775 12.5325 17.5861 12.6189 17.599 12.7009C17.6163 12.7829 17.6509 12.8434 17.7027 12.8909C17.7545 12.9384 17.8322 12.96 17.9358 12.96Z" fill="white"/>
<path d="M19.281 13.3831V9.88538H20.1187C20.3562 9.88538 20.5548 9.9156 20.7146 9.97174C20.8786 10.0279 21.0039 10.1229 21.0859 10.2567C21.1723 10.3906 21.2154 10.5763 21.2154 10.8095C21.2154 10.952 21.2025 11.0772 21.1766 11.1895C21.1507 11.3018 21.1075 11.3968 21.0427 11.4788C20.9823 11.5565 20.8959 11.617 20.788 11.6602L21.2759 13.3831H20.6368L20.2137 11.7811H19.9201V13.3831H19.281ZM19.9201 11.3795H20.1187C20.2439 11.3795 20.3389 11.3622 20.4123 11.3277C20.4857 11.2888 20.5418 11.2327 20.5721 11.1549C20.6023 11.0729 20.6196 10.9736 20.6196 10.8483C20.6196 10.6713 20.585 10.5417 20.5203 10.4554C20.4555 10.3647 20.3346 10.3215 20.1532 10.3215H19.9201V11.3795Z" fill="white"/>
<path d="M22.8302 13.3831V10.3561H22.2732V9.88538H24.0176V10.3561H23.4693V13.3831H22.8302Z" fill="white"/>
<path d="M24.21 13.3831V9.88538H24.8447V11.3493H25.5615V9.88538H26.1962V13.3831H25.5615V11.8027H24.8447V13.3831H24.21Z" fill="white"/>
<path d="M26.5955 13.3831V9.88538H28.0636V10.3345H27.2345V11.3406H27.8865V11.7854H27.2345V12.9427H28.0722V13.3831H26.5955Z" fill="white"/>
<path d="M30.0973 13.4307C29.8685 13.4307 29.6828 13.3832 29.5489 13.2839C29.4151 13.1845 29.3158 13.0464 29.2553 12.8693C29.1992 12.6879 29.1689 12.4764 29.1689 12.2302V11.0557C29.1689 10.8052 29.1992 10.5893 29.2553 10.4079C29.3114 10.2266 29.4151 10.0884 29.5576 9.99338C29.7044 9.89406 29.9073 9.84656 30.1621 9.84656C30.3996 9.84656 30.5895 9.88542 30.732 9.96747C30.8745 10.0495 30.9738 10.1661 31.0343 10.3172C31.0991 10.4684 31.1293 10.6497 31.1293 10.8657V11.047H30.5205V10.8484C30.5205 10.7361 30.5118 10.6411 30.4946 10.5591C30.4816 10.477 30.4471 10.4166 30.3996 10.3777C30.3521 10.3345 30.2787 10.3129 30.1707 10.3129C30.0584 10.3129 29.9764 10.3388 29.9246 10.395C29.8771 10.4511 29.8425 10.5202 29.8296 10.6109C29.8166 10.7016 29.8123 10.7966 29.8123 10.9045V12.3684C29.8123 12.4893 29.821 12.5929 29.8425 12.6836C29.8641 12.7743 29.8987 12.8434 29.9548 12.8909C30.0109 12.9384 30.0887 12.96 30.188 12.96C30.2916 12.96 30.3693 12.9341 30.4255 12.8823C30.4816 12.8304 30.5161 12.757 30.5377 12.6664C30.5593 12.5757 30.5723 12.4634 30.5723 12.3382V12.01H30.1966V11.6084H31.1466V13.3832H30.7364L30.6889 13.0377C30.6414 13.1543 30.5723 13.2493 30.4773 13.3227C30.3866 13.3961 30.2571 13.4307 30.0973 13.4307Z" fill="white"/>
<path d="M32.4485 13.4307C32.2024 13.4307 32.0038 13.3832 31.857 13.2925C31.7102 13.2018 31.6065 13.068 31.5418 12.8952C31.477 12.7225 31.4468 12.5195 31.4468 12.282V10.9736C31.4468 10.7361 31.477 10.5375 31.5418 10.3691C31.6065 10.2007 31.7102 10.0711 31.857 9.98042C32.0038 9.88974 32.2024 9.84656 32.4485 9.84656C32.7033 9.84656 32.9019 9.88974 33.0444 9.98042C33.1912 10.0711 33.2949 10.2007 33.3596 10.3691C33.4244 10.5375 33.4589 10.7361 33.4589 10.9736V12.2864C33.4589 12.5195 33.4244 12.7225 33.3596 12.8952C33.2949 13.0636 33.1912 13.1975 33.0444 13.2925C32.9019 13.3832 32.7033 13.4307 32.4485 13.4307ZM32.4485 12.96C32.5565 12.96 32.6342 12.9384 32.6817 12.8909C32.7335 12.8434 32.7681 12.7829 32.7853 12.7009C32.8026 12.6189 32.8112 12.5325 32.8112 12.4375V10.8268C32.8112 10.7275 32.8026 10.6411 32.7853 10.5634C32.7681 10.4857 32.7335 10.4252 32.6817 10.382C32.6342 10.3345 32.5565 10.3129 32.4485 10.3129C32.3492 10.3129 32.2715 10.3345 32.2197 10.382C32.1679 10.4252 32.1333 10.4857 32.1161 10.5634C32.0988 10.6411 32.0902 10.7275 32.0902 10.8268V12.4375C32.0902 12.5325 32.0988 12.6189 32.1117 12.7009C32.129 12.7829 32.1636 12.8434 32.2154 12.8909C32.2672 12.9384 32.3449 12.96 32.4485 12.96Z" fill="white"/>
<path d="M33.5952 13.3831L34.2947 9.88538H34.977L35.6765 13.3831H35.0849L34.9467 12.5756H34.3379L34.1954 13.3831H33.5952ZM34.4027 12.1697H34.8776L34.6402 10.7015L34.4027 12.1697Z" fill="white"/>
<path d="M35.8899 13.3831V9.88538H36.5289V12.9427H37.3753V13.3831H35.8899Z" fill="white"/>
<path d="M38.4396 13.4307C38.2281 13.4307 38.0553 13.3918 37.9128 13.3098C37.7704 13.2277 37.6667 13.1068 37.5933 12.947C37.5199 12.7873 37.481 12.5929 37.4724 12.3641L38.0208 12.2561C38.0251 12.39 38.0424 12.5109 38.0683 12.6145C38.0985 12.7182 38.1374 12.8002 38.1935 12.8564C38.2496 12.9125 38.3274 12.9384 38.418 12.9384C38.5217 12.9384 38.5951 12.9082 38.6383 12.8477C38.6814 12.7829 38.703 12.7052 38.703 12.6102C38.703 12.4591 38.6685 12.3339 38.5994 12.2345C38.5303 12.1352 38.4396 12.0402 38.323 11.9409L37.8826 11.5523C37.7574 11.4443 37.6581 11.3277 37.5847 11.1982C37.5113 11.0643 37.4767 10.9045 37.4767 10.7102C37.4767 10.4338 37.5588 10.2222 37.7185 10.0711C37.8783 9.91997 38.0985 9.84656 38.3792 9.84656C38.5433 9.84656 38.6814 9.87247 38.7894 9.92429C38.8973 9.97179 38.9837 10.0409 39.0485 10.1316C39.1132 10.2222 39.165 10.3216 39.1953 10.4382C39.2255 10.5504 39.2471 10.6713 39.2557 10.7966L38.7117 10.8916C38.7073 10.7836 38.6944 10.6843 38.6728 10.5979C38.6555 10.5116 38.621 10.4425 38.5735 10.395C38.526 10.3475 38.4569 10.3216 38.3662 10.3216C38.2712 10.3216 38.1978 10.3518 38.146 10.4166C38.0985 10.477 38.0726 10.5547 38.0726 10.6454C38.0726 10.762 38.0985 10.8613 38.146 10.9391C38.1935 11.0125 38.2669 11.0902 38.3576 11.1723L38.7937 11.5566C38.9362 11.6775 39.0614 11.82 39.1607 11.9841C39.2644 12.1439 39.3162 12.3425 39.3162 12.5714C39.3162 12.7398 39.2773 12.8866 39.2039 13.0161C39.1305 13.1457 39.0312 13.2493 38.8973 13.3227C38.7678 13.3961 38.6167 13.4307 38.4396 13.4307Z" fill="white"/>
</svg>
