<svg width="48" height="48" viewBox="0 0 48 48" fill="none" xmlns="http://www.w3.org/2000/svg">
<path d="M-4.57764e-05 0H47.9971V48H-4.57764e-05V0Z" fill="#2C9B48"/>
<path d="M4.37922 12.7623C3.99539 12.2805 3.80298 11.5984 3.80298 10.7174V10.4008H5.54309V10.706C5.55051 11.173 5.6069 11.5084 5.71226 11.7117C5.81811 11.915 6.01003 12.0164 6.2885 12.0164C6.56748 12.0164 6.75395 11.913 6.84793 11.7057C6.94241 11.499 6.9894 11.1616 6.9894 10.6947C6.9894 10.2049 6.91768 9.84136 6.77473 9.60442C6.63128 9.36698 6.36765 9.2448 5.98381 9.23688C5.96106 9.22946 5.8557 9.22551 5.66725 9.22551V7.94878H5.94968C6.34143 7.94878 6.61249 7.84342 6.76335 7.63269C6.91372 7.42147 6.9894 7.07521 6.9894 6.59292C6.9894 6.20114 6.93449 5.91127 6.82568 5.72281C6.71636 5.53483 6.52197 5.44035 6.24349 5.44035C5.97985 5.44035 5.79882 5.54176 5.70138 5.74556C5.60344 5.94887 5.55051 6.25011 5.54309 6.64931V7.05592H3.80298V6.55878C3.80298 5.7604 4.01567 5.14306 4.44155 4.70578C4.86693 4.26899 5.46742 4.05035 6.24349 4.05035C7.03441 4.05035 7.64479 4.26157 8.07413 4.68303C8.50347 5.10547 8.71814 5.71143 8.71814 6.50239C8.71814 7.0297 8.60882 7.47242 8.3902 7.83006C8.17157 8.1882 7.89309 8.41228 7.55427 8.50231C8.32985 8.78872 8.71814 9.50796 8.71814 10.6605C8.71814 11.542 8.52226 12.233 8.13051 12.7341C7.73877 13.2352 7.11751 13.4855 6.26625 13.4855C5.39223 13.4855 4.76355 13.2446 4.37922 12.7623Z" fill="white"/>
<path fill-rule="evenodd" clip-rule="evenodd" d="M40.1626 30.0258C40.1626 30.7045 39.895 31.3193 39.4627 31.764L39.4652 31.7665L36.0898 35.149L32.71 31.7625C32.2777 31.3178 32.0106 30.7035 32.0106 30.0253C32.0106 28.6679 32.9346 27.5678 34.2533 27.5678C34.9126 27.5678 35.6551 28.2905 36.0869 28.7352C36.5192 28.291 37.3146 27.5688 37.9734 27.5688C39.2921 27.5688 40.1626 28.6689 40.1626 30.0258ZM25.7728 40.6773C25.7614 40.6773 25.7501 40.6768 25.7382 40.6763C25.4815 40.6605 25.2693 40.4701 25.2257 40.2163L23.5089 30.2167L20.9081 35.0387C20.7943 35.2499 20.5564 35.3637 20.3225 35.3216C20.0865 35.2796 19.9045 35.0911 19.8704 34.8542L18.7663 27.137L16.7463 31.674C16.6572 31.8743 16.4584 32.0034 16.2393 32.0034H8.38847C8.0818 32.0034 7.8335 31.7546 7.8335 31.4484C7.8335 31.1417 8.0818 30.8934 8.38847 30.8934H15.8787L18.5358 24.9253C18.6363 24.6993 18.8742 24.5672 19.1195 24.6013C19.3644 24.6354 19.5573 24.8274 19.5924 25.0722L20.7305 33.0299L23.2952 28.2742C23.4075 28.0649 23.64 27.9512 23.8739 27.9898C24.1074 28.0278 24.2909 28.2104 24.331 28.4439L25.9207 37.7049L31.7153 18.4556C31.7811 18.2365 31.975 18.0802 32.203 18.0624C32.4315 18.0456 32.6472 18.1682 32.7466 18.3745L35.7955 24.6958C35.9286 24.9718 35.8128 25.3037 35.5368 25.4368C35.2608 25.5699 34.9289 25.4541 34.7959 25.1781L32.3667 20.1419L26.304 40.2821C26.2333 40.518 26.0162 40.6773 25.7728 40.6773Z" fill="white"/>
<path d="M13.5006 7.71511C13.2718 7.71511 13.0861 7.66761 12.9522 7.56829C12.8184 7.46897 12.7191 7.33078 12.6586 7.15374C12.6025 6.97237 12.5723 6.76078 12.5723 6.51464V5.34008C12.5723 5.08963 12.6025 4.87372 12.6586 4.69235C12.7148 4.51099 12.8184 4.3728 12.9609 4.2778C13.1077 4.17848 13.3106 4.13098 13.5654 4.13098C13.8029 4.13098 13.9929 4.16985 14.1354 4.25189C14.2779 4.33394 14.3772 4.45053 14.4376 4.60167C14.5024 4.75281 14.5326 4.93417 14.5326 5.15008V5.33145H13.9238V5.13281C13.9238 5.02054 13.9151 4.92553 13.8979 4.84349C13.8849 4.76144 13.8504 4.70099 13.8029 4.66212C13.7554 4.61894 13.682 4.59735 13.574 4.59735C13.4618 4.59735 13.3797 4.62326 13.3279 4.6794C13.2804 4.73553 13.2459 4.80462 13.2329 4.89531C13.22 4.98599 13.2156 5.08099 13.2156 5.18895V6.65282C13.2156 6.77373 13.2243 6.87737 13.2459 6.96805C13.2675 7.05874 13.302 7.12783 13.3581 7.17533C13.4143 7.22283 13.492 7.24442 13.5913 7.24442C13.6949 7.24442 13.7727 7.21851 13.8288 7.16669C13.8849 7.11487 13.9195 7.04146 13.9411 6.95078C13.9626 6.8601 13.9756 6.74782 13.9756 6.6226V6.29441H13.5999V5.89282H14.5499V7.66761H14.1397L14.0922 7.32215C14.0447 7.43874 13.9756 7.53374 13.8806 7.60715C13.7899 7.68056 13.6604 7.71511 13.5006 7.71511Z" fill="white"/>
<path d="M15.9822 7.71511C15.7361 7.71511 15.5375 7.66761 15.3907 7.57692C15.2439 7.48624 15.1402 7.35238 15.0755 7.17965C15.0107 7.00692 14.9805 6.80396 14.9805 6.56646V5.25804C14.9805 5.02054 15.0107 4.8219 15.0755 4.65349C15.1402 4.48508 15.2439 4.35553 15.3907 4.26485C15.5375 4.17416 15.7361 4.13098 15.9822 4.13098C16.237 4.13098 16.4356 4.17416 16.5781 4.26485C16.7249 4.35553 16.8285 4.48508 16.8933 4.65349C16.9581 4.8219 16.9926 5.02054 16.9926 5.25804V6.57078C16.9926 6.80396 16.9581 7.00692 16.8933 7.17965C16.8285 7.34806 16.7249 7.48192 16.5781 7.57692C16.4356 7.66761 16.237 7.71511 15.9822 7.71511ZM15.9822 7.24442C16.0902 7.24442 16.1679 7.22283 16.2154 7.17533C16.2672 7.12783 16.3018 7.06737 16.319 6.98533C16.3363 6.90328 16.3449 6.81692 16.3449 6.72192V5.11122C16.3449 5.0119 16.3363 4.92553 16.319 4.84781C16.3018 4.77008 16.2672 4.70962 16.2154 4.66644C16.1679 4.61894 16.0902 4.59735 15.9822 4.59735C15.8829 4.59735 15.8052 4.61894 15.7534 4.66644C15.7016 4.70962 15.667 4.77008 15.6497 4.84781C15.6325 4.92553 15.6238 5.0119 15.6238 5.11122V6.72192C15.6238 6.81692 15.6325 6.90328 15.6454 6.98533C15.6627 7.06737 15.6972 7.12783 15.7491 7.17533C15.8009 7.22283 15.8786 7.24442 15.9822 7.24442Z" fill="white"/>
<path d="M18.4078 7.71511C18.1616 7.71511 17.963 7.66761 17.8162 7.57692C17.6694 7.48624 17.5658 7.35238 17.501 7.17965C17.4362 7.00692 17.406 6.80396 17.406 6.56646V5.25804C17.406 5.02054 17.4362 4.8219 17.501 4.65349C17.5658 4.48508 17.6694 4.35553 17.8162 4.26485C17.963 4.17416 18.1616 4.13098 18.4078 4.13098C18.6625 4.13098 18.8612 4.17416 19.0036 4.26485C19.1505 4.35553 19.2541 4.48508 19.3189 4.65349C19.3836 4.8219 19.4182 5.02054 19.4182 5.25804V6.57078C19.4182 6.80396 19.3836 7.00692 19.3189 7.17965C19.2541 7.34806 19.1505 7.48192 19.0036 7.57692C18.8612 7.66761 18.6625 7.71511 18.4078 7.71511ZM18.4078 7.24442C18.5157 7.24442 18.5934 7.22283 18.6409 7.17533C18.6928 7.12783 18.7273 7.06737 18.7446 6.98533C18.7618 6.90328 18.7705 6.81692 18.7705 6.72192V5.11122C18.7705 5.0119 18.7618 4.92553 18.7446 4.84781C18.7273 4.77008 18.6928 4.70962 18.6409 4.66644C18.5934 4.61894 18.5157 4.59735 18.4078 4.59735C18.3085 4.59735 18.2307 4.61894 18.1789 4.66644C18.1271 4.70962 18.0926 4.77008 18.0753 4.84781C18.058 4.92553 18.0494 5.0119 18.0494 5.11122V6.72192C18.0494 6.81692 18.058 6.90328 18.071 6.98533C18.0882 7.06737 18.1228 7.12783 18.1746 7.17533C18.2264 7.22283 18.3041 7.24442 18.4078 7.24442Z" fill="white"/>
<path d="M19.8831 7.66768V4.16992H20.7078C20.9928 4.16992 21.213 4.20879 21.3727 4.28651C21.5325 4.36424 21.6491 4.48515 21.7139 4.64493C21.783 4.8047 21.8175 5.01198 21.8175 5.25811V6.53631C21.8175 6.79108 21.783 7.00268 21.7139 7.17109C21.6491 7.3395 21.5368 7.46473 21.3771 7.54677C21.2216 7.62882 21.0057 7.66768 20.7337 7.66768H19.8831ZM20.5221 7.22291H20.7164C20.8632 7.22291 20.9669 7.197 21.0316 7.14518C21.0964 7.09336 21.1353 7.01995 21.1482 6.92063C21.1612 6.82131 21.1698 6.69608 21.1698 6.55358V5.21493C21.1698 5.07243 21.1612 4.96016 21.1396 4.87379C21.118 4.78743 21.0791 4.72265 21.0144 4.68379C20.9496 4.64493 20.8503 4.62334 20.7078 4.62334H20.5221V7.22291Z" fill="white"/>
<path d="M23.3347 7.66768V4.16992H23.9695V5.6338H24.6862V4.16992H25.321V7.66768H24.6862V6.08721H23.9695V7.66768H23.3347Z" fill="white"/>
<path d="M25.8511 7.66762V4.16986H27.3192V4.61896H26.4901V5.6251H27.1421V6.06988H26.4901V7.22716H27.3278V7.66762H25.8511Z" fill="white"/>
<path d="M27.5164 7.66768L28.2159 4.16992H28.8981L29.5976 7.66768H29.006L28.8679 6.86017H28.259L28.1166 7.66768H27.5164ZM28.3238 6.45426H28.7988L28.5613 4.98607L28.3238 6.45426Z" fill="white"/>
<path d="M29.9414 7.66762V4.16986H30.5805V7.22716H31.4268V7.66762H29.9414Z" fill="white"/>
<path d="M31.767 7.66768V4.64061H31.21V4.16992H32.9544V4.64061H32.406V7.66768H31.767Z" fill="white"/>
<path d="M33.2766 7.66768V4.16992H33.9113V5.6338H34.6281V4.16992H35.2629V7.66768H34.6281V6.08721H33.9113V7.66768H33.2766Z" fill="white"/>
<path d="M12.447 13.3839L13.1465 9.88611H13.8288L14.5283 13.3839H13.9367L13.7985 12.5764H13.1897L13.0472 13.3839H12.447ZM13.2545 12.1704H13.7295L13.492 10.7023L13.2545 12.1704Z" fill="white"/>
<path d="M14.8726 13.3839V9.88611H15.3173L16.1679 11.8811V9.88611H16.6947V13.3839H16.2716L15.4166 11.2938V13.3839H14.8726Z" fill="white"/>
<path d="M17.2202 13.3839V9.88611H18.0449C18.3299 9.88611 18.5501 9.92497 18.7099 10.0027C18.8697 10.0804 18.9863 10.2013 19.051 10.3611C19.1201 10.5209 19.1547 10.7282 19.1547 10.9743V12.2525C19.1547 12.5073 19.1201 12.7189 19.051 12.8873C18.9863 13.0557 18.874 13.1809 18.7142 13.263C18.5588 13.345 18.3429 13.3839 18.0708 13.3839H17.2202ZM17.8593 12.9391H18.0536C18.2004 12.9391 18.304 12.9132 18.3688 12.8614C18.4336 12.8095 18.4724 12.7361 18.4854 12.6368C18.4983 12.5375 18.507 12.4123 18.507 12.2698V10.9311C18.507 10.7886 18.4983 10.6763 18.4767 10.59C18.4551 10.5036 18.4163 10.4388 18.3515 10.4C18.2867 10.3611 18.1874 10.3395 18.0449 10.3395H17.8593V12.9391Z" fill="white"/>
<path d="M21.0303 13.3839L20.5337 9.88611H21.0691L21.3584 12.1532L21.7211 9.89474H22.1572L22.5286 12.1532L22.8136 9.88611H23.3404L22.8524 13.3839H22.3343L21.9457 11.0391L21.5614 13.3839H21.0303Z" fill="white"/>
<path d="M23.7322 13.3839V9.88611H25.2003V10.3352H24.3712V11.3413H25.0232V11.7861H24.3712V12.9434H25.2089V13.3839H23.7322Z" fill="white"/>
<path d="M25.5745 13.3839V9.88611H26.2135V12.9434H27.0598V13.3839H25.5745Z" fill="white"/>
<path d="M27.3867 13.3839V9.88611H28.0258V12.9434H28.8721V13.3839H27.3867Z" fill="white"/>
<path d="M30.0625 11.92H29.0176V12.3216H30.0625V11.92Z" fill="white"/>
<path d="M30.4758 13.3839V9.88611H31.3351C31.4905 9.88611 31.6287 9.89906 31.7539 9.92929C31.8792 9.95952 31.9871 10.007 32.0778 10.0761C32.1685 10.1409 32.2419 10.2316 32.2894 10.3482C32.3369 10.4648 32.3628 10.6073 32.3628 10.7843C32.3628 10.9268 32.3412 11.0477 32.3023 11.147C32.2635 11.2463 32.2073 11.3284 32.1339 11.3888C32.0605 11.445 31.9655 11.4839 31.8533 11.5054C31.9914 11.527 32.1037 11.5789 32.1944 11.6523C32.285 11.7257 32.3541 11.8207 32.3973 11.9373C32.4448 12.0539 32.4664 12.1964 32.4664 12.3648C32.4664 12.5332 32.4448 12.68 32.4016 12.8095C32.3628 12.9348 32.298 13.0427 32.216 13.1291C32.1339 13.2111 32.0346 13.2759 31.9094 13.3191C31.7885 13.3623 31.646 13.3839 31.4819 13.3839H30.4758ZM31.1149 12.9348H31.3567C31.551 12.9348 31.6805 12.8873 31.7496 12.7966C31.8187 12.7016 31.8533 12.5548 31.8533 12.3605C31.8533 12.2179 31.836 12.1057 31.8014 12.0193C31.7712 11.9286 31.7151 11.8639 31.6374 11.8207C31.564 11.7775 31.4603 11.7559 31.3351 11.7559H31.1149V12.9348ZM31.1149 11.3154H31.3308C31.456 11.3154 31.5553 11.2982 31.6244 11.2593C31.6935 11.2204 31.741 11.1643 31.7669 11.0866C31.7971 11.0088 31.8101 10.9095 31.8101 10.7929C31.8101 10.6677 31.7885 10.5727 31.7453 10.5079C31.7064 10.4388 31.6417 10.3913 31.5596 10.3697C31.4776 10.3438 31.3696 10.3309 31.2401 10.3309H31.1149V11.3154Z" fill="white"/>
<path d="M32.8752 13.3839V9.88611H34.3433V10.3352H33.5143V11.3413H34.1663V11.7861H33.5143V12.9434H34.352V13.3839H32.8752Z" fill="white"/>
<path d="M35.3655 9.88611H34.7351V13.3839H35.3655V9.88611Z" fill="white"/>
<path d="M35.8997 13.3839V9.88611H36.3444L37.195 11.8811V9.88611H37.7218V13.3839H37.2987L36.4437 11.2938V13.3839H35.8997Z" fill="white"/>
<path d="M39.1237 13.4314C38.8948 13.4314 38.7091 13.3839 38.5753 13.2845C38.4414 13.1852 38.3421 13.047 38.2817 12.87C38.2255 12.6886 38.1953 12.477 38.1953 12.2309V11.0563C38.1953 10.8059 38.2255 10.59 38.2817 10.4086C38.3378 10.2272 38.4414 10.089 38.5839 9.99405C38.7307 9.89473 38.9337 9.84723 39.1884 9.84723C39.4259 9.84723 39.6159 9.88609 39.7584 9.96814C39.9009 10.0502 40.0002 10.1668 40.0607 10.3179C40.1254 10.4691 40.1557 10.6504 40.1557 10.8663V11.0477H39.5468V10.8491C39.5468 10.7368 39.5382 10.6418 39.5209 10.5597C39.508 10.4777 39.4734 10.4172 39.4259 10.3784C39.3784 10.3352 39.305 10.3136 39.1971 10.3136C39.0848 10.3136 39.0028 10.3395 38.951 10.3956C38.9035 10.4518 38.8689 10.5209 38.856 10.6116C38.843 10.7022 38.8387 10.7972 38.8387 10.9052V12.3691C38.8387 12.49 38.8473 12.5936 38.8689 12.6843C38.8905 12.775 38.925 12.8441 38.9812 12.8916C39.0373 12.9391 39.115 12.9607 39.2143 12.9607C39.318 12.9607 39.3957 12.9348 39.4518 12.8829C39.508 12.8311 39.5425 12.7577 39.5641 12.667C39.5857 12.5763 39.5986 12.4641 39.5986 12.3388V12.0107H39.223V11.6091H40.1729V13.3839H39.7627L39.7152 13.0384C39.6677 13.155 39.5986 13.25 39.5036 13.3234C39.413 13.3968 39.2834 13.4314 39.1237 13.4314Z" fill="white"/>
</svg>
