<svg width="48" height="48" viewBox="0 0 48 48" fill="none" xmlns="http://www.w3.org/2000/svg">
<path d="M-4.19617e-05 0H47.9971V48H-4.19617e-05V0Z" fill="#8F1737"/>
<path d="M3.75879 10.6839C3.75879 10.1714 3.84931 9.72718 4.02985 9.35025C4.21088 8.97381 4.47798 8.69532 4.83214 8.51427C4.55317 8.31097 4.32762 8.03791 4.154 7.69511C3.98088 7.35231 3.89432 6.9363 3.89432 6.44659C3.89432 5.69322 4.09365 5.10754 4.49332 4.68955C4.89249 4.27106 5.46477 4.06232 6.21068 4.06232C6.95609 4.06232 7.52492 4.26958 7.91667 4.68361C8.30841 5.09814 8.50429 5.67442 8.50429 6.41245C8.50429 6.92492 8.42119 7.35429 8.25549 7.70055C8.08979 8.04731 7.8677 8.31839 7.58922 8.51427C7.94288 8.69532 8.21048 8.98123 8.39102 9.373C8.57205 9.76478 8.66257 10.2283 8.66257 10.763C8.66257 11.6143 8.4667 12.2767 8.07495 12.7515C7.6832 13.2264 7.06194 13.4634 6.21068 13.4634C4.57592 13.4634 3.75879 12.5369 3.75879 10.6839ZM6.80374 11.7627C6.90564 11.4956 6.95609 11.1582 6.95609 10.7516C6.95609 10.2995 6.90564 9.94187 6.80374 9.67821C6.70185 9.41456 6.50449 9.28248 6.21068 9.28248C5.91687 9.28248 5.71902 9.41654 5.61762 9.68365C5.51572 9.95126 5.46477 10.3074 5.46477 10.7516C5.46477 11.1582 5.51572 11.4956 5.61762 11.7627C5.71902 12.0303 5.91687 12.1639 6.21068 12.1639C6.50449 12.1639 6.70185 12.0303 6.80374 11.7627ZM6.85469 6.44659C6.85469 6.11516 6.80177 5.85299 6.69641 5.66106C6.59105 5.46913 6.42881 5.37317 6.21068 5.37317C5.99205 5.37317 5.82635 5.46913 5.71357 5.66106C5.6003 5.85299 5.54392 6.11516 5.54392 6.44659C5.54392 7.38842 5.76601 7.85885 6.21068 7.85885C6.64002 7.85885 6.85469 7.38842 6.85469 6.44659Z" fill="white"/>
<path fill-rule="evenodd" clip-rule="evenodd" d="M33.4292 23.6129C33.7492 23.2948 33.8694 23.5763 33.8694 23.7306V42.043C33.8694 42.1964 33.7447 42.322 33.5909 42.322H28.5283C28.374 42.322 28.2484 42.1964 28.2484 42.043V28.9755C28.2484 28.5951 28.3434 28.4596 28.5283 28.2756L33.4292 23.6129ZM19.3104 29.6873C19.6289 29.3678 19.7506 29.6498 19.7506 29.8041V42.043C19.7506 42.1954 19.626 42.321 19.4716 42.321H14.4091C14.2548 42.321 14.1296 42.1954 14.1296 42.043V35.049C14.1296 34.6686 14.2246 34.5335 14.4091 34.349L19.3104 29.6873ZM35.657 17.9589L35.655 18L34.8305 21.8311L34.83 21.8435C34.8285 21.8771 34.8156 21.9093 34.7889 21.9355C34.7345 21.9914 34.644 21.9914 34.5891 21.9355L33.6888 21.0362L24.0381 30.6876C23.9936 30.7326 23.9223 30.7326 23.8783 30.6876L22.8124 29.6225C22.8074 29.6186 22.8059 29.6136 22.803 29.6092L19.9529 26.7589L13.7359 32.9749C13.6919 33.0194 13.6206 33.0194 13.5771 32.9749L12.5102 31.9084C12.4667 31.8648 12.4667 31.7926 12.5102 31.7486L18.8059 25.4535C18.8059 25.4535 18.8059 25.4521 18.8068 25.4521L19.8723 24.3861C19.9173 24.3415 19.9875 24.3415 20.0321 24.3861L23.9594 28.3142L32.4631 19.8099L31.6059 18.9532L31.5634 18.9106C31.5085 18.8547 31.5085 18.7647 31.5634 18.7088C31.5847 18.689 31.6099 18.6757 31.6366 18.6707L31.7049 18.6633L35.4576 17.8169L35.4977 17.8145L35.5249 17.813C35.5566 17.816 35.5897 17.8273 35.6154 17.8526C35.6456 17.8817 35.659 17.9218 35.657 17.9589ZM26.3975 30.5055C26.7452 30.1573 26.8669 30.4397 26.8669 30.5941V42.0425C26.8669 42.1954 26.7417 42.321 26.5884 42.321H21.5244C21.3705 42.321 21.2469 42.1954 21.2469 42.0425V30.7805C21.2469 30.6267 21.3319 30.3086 21.7252 30.7009L23.8734 32.8908C23.9154 32.9323 23.9812 32.9338 24.0262 32.8967L26.3975 30.5055Z" fill="white"/>
<path d="M12.0973 7.66689V4.16913H12.922C13.207 4.16913 13.4272 4.20799 13.587 4.28572C13.7467 4.36345 13.8633 4.48436 13.9281 4.64413C13.9972 4.80391 14.0317 5.01118 14.0317 5.25732V6.53551C14.0317 6.79029 13.9972 7.00188 13.9281 7.17029C13.8633 7.3387 13.7511 7.46393 13.5913 7.54598C13.4359 7.62803 13.22 7.66689 12.9479 7.66689H12.0973ZM12.7363 7.22211H12.9307C13.0775 7.22211 13.1811 7.1962 13.2459 7.14438C13.3106 7.09257 13.3495 7.01916 13.3624 6.91984C13.3754 6.82052 13.384 6.69529 13.384 6.55279V5.21414C13.384 5.07164 13.3754 4.95936 13.3538 4.873C13.3322 4.78663 13.2934 4.72186 13.2286 4.683C13.1638 4.64413 13.0645 4.62254 12.922 4.62254H12.7363V7.22211Z" fill="white"/>
<path d="M14.3807 7.66677V4.16901H15.8488V4.6181H15.0198V5.62425H15.6718V6.06902H15.0198V7.22631H15.8575V7.66677H14.3807Z" fill="white"/>
<path d="M17.0494 7.71419C16.7946 7.71419 16.5917 7.66237 16.4449 7.56305C16.3024 7.46373 16.1988 7.32555 16.1426 7.15282C16.0865 6.97577 16.0563 6.77714 16.0563 6.54827V5.3003C16.0563 5.0628 16.0865 4.85553 16.1426 4.67848C16.1988 4.50143 16.3024 4.36757 16.4449 4.27257C16.5917 4.17757 16.7946 4.13007 17.0494 4.13007C17.2912 4.13007 17.4812 4.17325 17.6151 4.25529C17.7532 4.33734 17.8525 4.45393 17.9087 4.60507C17.9648 4.75621 17.995 4.93326 17.995 5.13621V5.42985H17.3819V5.12758C17.3819 5.02826 17.3776 4.94189 17.3646 4.85985C17.356 4.7778 17.3301 4.71734 17.2826 4.66984C17.2394 4.62234 17.1617 4.59643 17.0537 4.59643C16.9458 4.59643 16.8637 4.62234 16.8119 4.67416C16.7644 4.72166 16.7299 4.79075 16.7169 4.87712C16.704 4.95916 16.6953 5.05417 16.6953 5.16212V6.68214C16.6953 6.80736 16.704 6.91532 16.7256 6.99737C16.7471 7.07941 16.7817 7.13987 16.8335 7.18305C16.8896 7.22191 16.963 7.2435 17.0537 7.2435C17.1617 7.2435 17.2351 7.2176 17.2783 7.17009C17.3257 7.11828 17.3517 7.04918 17.3646 6.96714C17.3776 6.88509 17.3819 6.79009 17.3819 6.68645V6.37122H17.995V6.65191C17.995 6.85918 17.9691 7.04487 17.913 7.20464C17.8569 7.36441 17.7619 7.48964 17.6237 7.58033C17.4898 7.67101 17.2955 7.71419 17.0494 7.71419Z" fill="white"/>
<path d="M18.3195 7.66683V4.16907H19.7876V4.61816H18.9585V5.62431H19.6105V6.06909H18.9585V7.22637H19.7962V7.66683H18.3195Z" fill="white"/>
<path d="M20.0463 7.66707V4.16931H20.491L21.3416 6.16433V4.16931H21.8684V7.66707H21.4453L20.5903 5.57705V7.66707H20.0463Z" fill="white"/>
<path d="M22.6288 7.66683V4.63975H22.0718V4.16907H23.8162V4.63975H23.2678V7.66683H22.6288Z" fill="white"/>
<path d="M25.3105 7.66683L24.814 4.16907H25.3494L25.6387 6.43613L26.0014 4.1777H26.4375L26.8089 6.43613L27.0938 4.16907H27.6206L27.1327 7.66683H26.6145L26.2259 5.32203L25.8416 7.66683H25.3105Z" fill="white"/>
<path d="M28.8421 7.71425C28.596 7.71425 28.3973 7.66675 28.2505 7.57607C28.1037 7.48539 28.0001 7.35152 27.9353 7.17879C27.8706 7.00606 27.8403 6.80311 27.8403 6.5656V5.25718C27.8403 5.01968 27.8706 4.82104 27.9353 4.65263C28.0001 4.48422 28.1037 4.35467 28.2505 4.26399C28.3973 4.17331 28.596 4.13013 28.8421 4.13013C29.0969 4.13013 29.2955 4.17331 29.438 4.26399C29.5848 4.35467 29.6884 4.48422 29.7532 4.65263C29.818 4.82104 29.8525 5.01968 29.8525 5.25718V6.56992C29.8525 6.80311 29.818 7.00606 29.7532 7.17879C29.6884 7.3472 29.5848 7.48107 29.438 7.57607C29.2955 7.66675 29.0969 7.71425 28.8421 7.71425ZM28.8421 7.24357C28.95 7.24357 29.0278 7.22197 29.0753 7.17447C29.1271 7.12697 29.1616 7.06652 29.1789 6.98447C29.1962 6.90243 29.2048 6.81606 29.2048 6.72106V5.11036C29.2048 5.01104 29.1962 4.92468 29.1789 4.84695C29.1616 4.76922 29.1271 4.70877 29.0753 4.66559C29.0278 4.61809 28.95 4.59649 28.8421 4.59649C28.7428 4.59649 28.6651 4.61809 28.6132 4.66559C28.5614 4.70877 28.5269 4.76922 28.5096 4.84695C28.4923 4.92468 28.4837 5.01104 28.4837 5.11036V6.72106C28.4837 6.81606 28.4923 6.90243 28.5053 6.98447C28.5226 7.06652 28.5571 7.12697 28.6089 7.17447C28.6607 7.22197 28.7385 7.24357 28.8421 7.24357Z" fill="white"/>
<path d="M30.2017 7.66683V4.16907H31.0393C31.2768 4.16907 31.4755 4.19929 31.6352 4.25543C31.7993 4.31157 31.9245 4.40657 32.0066 4.54043C32.0929 4.6743 32.1361 4.85998 32.1361 5.09317C32.1361 5.23567 32.1231 5.3609 32.0972 5.47317C32.0713 5.58544 32.0282 5.68045 31.9634 5.76249C31.9029 5.84022 31.8166 5.90067 31.7086 5.94386L32.1965 7.66683H31.5575L31.1343 6.06477H30.8407V7.66683H30.2017ZM30.8407 5.66317H31.0393C31.1646 5.66317 31.2596 5.6459 31.333 5.61135C31.4064 5.57249 31.4625 5.51635 31.4927 5.43863C31.523 5.35658 31.5402 5.25726 31.5402 5.13203C31.5402 4.95498 31.5057 4.82544 31.4409 4.73907C31.3761 4.64839 31.2552 4.60521 31.0739 4.60521H30.8407V5.66317Z" fill="white"/>
<path d="M32.5038 7.66683V4.16907H33.1428V5.70635L33.8337 4.16907H34.4425L33.7733 5.73226L34.5116 7.66683H33.8769L33.2896 6.0734L33.1428 6.34113V7.66683H32.5038Z" fill="white"/>
<path d="M35.431 7.66689L36.1305 4.16913H36.8128L37.5123 7.66689H36.9207L36.7825 6.85938H36.1737L36.0312 7.66689H35.431ZM36.2385 6.45347H36.7135L36.476 4.98527L36.2385 6.45347Z" fill="white"/>
<path d="M37.7412 7.66677V4.16901H38.186L39.0366 6.16403V4.16901H39.5634V7.66677H39.1402L38.2853 5.57675V7.66677H37.7412Z" fill="white"/>
<path d="M39.9734 7.66683V4.16907H40.7981C41.0831 4.16907 41.3033 4.20793 41.4631 4.28566C41.6228 4.36339 41.7394 4.4843 41.8042 4.64407C41.8733 4.80385 41.9078 5.01112 41.9078 5.25726V6.53545C41.9078 6.79023 41.8733 7.00182 41.8042 7.17023C41.7394 7.33864 41.6272 7.46387 41.4674 7.54592C41.312 7.62796 41.0961 7.66683 40.824 7.66683H39.9734ZM40.6124 7.22205H40.8068C40.9536 7.22205 41.0572 7.19614 41.122 7.14432C41.1867 7.0925 41.2256 7.01909 41.2385 6.91978C41.2515 6.82046 41.2601 6.69523 41.2601 6.55273V5.21408C41.2601 5.07158 41.2515 4.9593 41.2299 4.87294C41.2083 4.78657 41.1695 4.7218 41.1047 4.68294C41.0399 4.64407 40.9406 4.62248 40.7981 4.62248H40.6124V7.22205Z" fill="white"/>
<path d="M12.0973 13.3832V9.88544H13.5654V10.3345H12.7363V11.3407H13.3884V11.7855H12.7363V12.9427H13.574V13.3832H12.0973Z" fill="white"/>
<path d="M14.7956 13.4305C14.5409 13.4305 14.3379 13.3787 14.1911 13.2794C14.0486 13.18 13.945 13.0419 13.8888 12.8691C13.8327 12.6921 13.8025 12.4934 13.8025 12.2646V11.0166C13.8025 10.7791 13.8327 10.5718 13.8888 10.3948C13.945 10.2177 14.0486 10.0839 14.1911 9.98888C14.3379 9.89387 14.5409 9.84637 14.7956 9.84637C15.0374 9.84637 15.2274 9.88956 15.3613 9.9716C15.4994 10.0536 15.5988 10.1702 15.6549 10.3214C15.711 10.4725 15.7412 10.6496 15.7412 10.8525V11.1462H15.1281V10.8439C15.1281 10.7446 15.1238 10.6582 15.1108 10.5762C15.1022 10.4941 15.0763 10.4337 15.0288 10.3862C14.9856 10.3387 14.9079 10.3127 14.7999 10.3127C14.692 10.3127 14.6099 10.3387 14.5581 10.3905C14.5106 10.438 14.4761 10.5071 14.4631 10.5934C14.4502 10.6755 14.4415 10.7705 14.4415 10.8784V12.3984C14.4415 12.5237 14.4502 12.6316 14.4718 12.7137C14.4934 12.7957 14.5279 12.8562 14.5797 12.8994C14.6359 12.9382 14.7093 12.9598 14.7999 12.9598C14.9079 12.9598 14.9813 12.9339 15.0245 12.8864C15.072 12.8346 15.0979 12.7655 15.1108 12.6834C15.1238 12.6014 15.1281 12.5064 15.1281 12.4028V12.0875H15.7412V12.3682C15.7412 12.5755 15.7153 12.7612 15.6592 12.9209C15.6031 13.0807 15.5081 13.206 15.3699 13.2966C15.236 13.3873 15.0417 13.4305 14.7956 13.4305Z" fill="white"/>
<path d="M17.0461 13.4305C16.8 13.4305 16.6013 13.383 16.4545 13.2923C16.3077 13.2016 16.2041 13.0678 16.1393 12.895C16.0745 12.7223 16.0443 12.5194 16.0443 12.2819V10.9734C16.0443 10.7359 16.0745 10.5373 16.1393 10.3689C16.2041 10.2005 16.3077 10.0709 16.4545 9.98024C16.6013 9.88956 16.8 9.84637 17.0461 9.84637C17.3008 9.84637 17.4995 9.88956 17.642 9.98024C17.7888 10.0709 17.8924 10.2005 17.9572 10.3689C18.0219 10.5373 18.0565 10.7359 18.0565 10.9734V12.2862C18.0565 12.5194 18.0219 12.7223 17.9572 12.895C17.8924 13.0635 17.7888 13.1973 17.642 13.2923C17.4995 13.383 17.3008 13.4305 17.0461 13.4305ZM17.0461 12.9598C17.154 12.9598 17.2317 12.9382 17.2792 12.8907C17.3311 12.8432 17.3656 12.7828 17.3829 12.7007C17.4001 12.6187 17.4088 12.5323 17.4088 12.4373V10.8266C17.4088 10.7273 17.4001 10.6409 17.3829 10.5632C17.3656 10.4855 17.3311 10.425 17.2792 10.3818C17.2317 10.3343 17.154 10.3127 17.0461 10.3127C16.9468 10.3127 16.869 10.3343 16.8172 10.3818C16.7654 10.425 16.7309 10.4855 16.7136 10.5632C16.6963 10.6409 16.6877 10.7273 16.6877 10.8266V12.4373C16.6877 12.5323 16.6963 12.6187 16.7093 12.7007C16.7265 12.7828 16.7611 12.8432 16.8129 12.8907C16.8647 12.9382 16.9424 12.9598 17.0461 12.9598Z" fill="white"/>
<path d="M18.436 13.3831V9.88538H18.8808L19.7314 11.8804V9.88538H20.2582V13.3831H19.835L18.9801 11.2931V13.3831H18.436Z" fill="white"/>
<path d="M21.6489 13.4303C21.4027 13.4303 21.2041 13.3828 21.0573 13.2921C20.9105 13.2015 20.8069 13.0676 20.7421 12.8949C20.6773 12.7221 20.6471 12.5192 20.6471 12.2817V10.9732C20.6471 10.7357 20.6773 10.5371 20.7421 10.3687C20.8069 10.2003 20.9105 10.0707 21.0573 9.98006C21.2041 9.88937 21.4027 9.84619 21.6489 9.84619C21.9036 9.84619 22.1022 9.88937 22.2447 9.98006C22.3915 10.0707 22.4952 10.2003 22.5599 10.3687C22.6247 10.5371 22.6593 10.7357 22.6593 10.9732V12.286C22.6593 12.5192 22.6247 12.7221 22.5599 12.8949C22.4952 13.0633 22.3915 13.1971 22.2447 13.2921C22.1022 13.3828 21.9036 13.4303 21.6489 13.4303ZM21.6489 12.9596C21.7568 12.9596 21.8345 12.938 21.882 12.8905C21.9338 12.843 21.9684 12.7826 21.9857 12.7005C22.0029 12.6185 22.0116 12.5321 22.0116 12.4371V10.8264C22.0116 10.7271 22.0029 10.6407 21.9857 10.563C21.9684 10.4853 21.9338 10.4248 21.882 10.3817C21.8345 10.3342 21.7568 10.3126 21.6489 10.3126C21.5495 10.3126 21.4718 10.3342 21.42 10.3817C21.3682 10.4248 21.3336 10.4853 21.3164 10.563C21.2991 10.6407 21.2905 10.7271 21.2905 10.8264V12.4371C21.2905 12.5321 21.2991 12.6185 21.3121 12.7005C21.3293 12.7826 21.3639 12.843 21.4157 12.8905C21.4675 12.938 21.5452 12.9596 21.6489 12.9596Z" fill="white"/>
<path d="M23.0298 13.3831L23.0902 9.88538H23.7509L24.2474 12.3079L24.7656 9.88538H25.4047L25.4694 13.3831H24.9944L24.9426 10.952L24.4461 13.3831H24.0618L23.5566 10.9433L23.5091 13.3831H23.0298Z" fill="white"/>
<path d="M26.5442 9.88538H25.9138V13.3831H26.5442V9.88538Z" fill="white"/>
<path d="M27.9353 13.4305C27.6805 13.4305 27.4776 13.3787 27.3308 13.2794C27.1883 13.18 27.0846 13.0419 27.0285 12.8691C26.9724 12.6921 26.9421 12.4934 26.9421 12.2646V11.0166C26.9421 10.7791 26.9724 10.5718 27.0285 10.3948C27.0846 10.2177 27.1883 10.0839 27.3308 9.98888C27.4776 9.89387 27.6805 9.84637 27.9353 9.84637C28.1771 9.84637 28.3671 9.88956 28.5009 9.9716C28.6391 10.0536 28.7384 10.1702 28.7945 10.3214C28.8507 10.4725 28.8809 10.6496 28.8809 10.8525V11.1462H28.2677V10.8439C28.2677 10.7446 28.2634 10.6582 28.2505 10.5762C28.2418 10.4941 28.2159 10.4337 28.1684 10.3862C28.1253 10.3387 28.0475 10.3127 27.9396 10.3127C27.8316 10.3127 27.7496 10.3387 27.6978 10.3905C27.6503 10.438 27.6157 10.5071 27.6028 10.5934C27.5898 10.6755 27.5812 10.7705 27.5812 10.8784V12.3984C27.5812 12.5237 27.5898 12.6316 27.6114 12.7137C27.633 12.7957 27.6676 12.8562 27.7194 12.8994C27.7755 12.9382 27.8489 12.9598 27.9396 12.9598C28.0475 12.9598 28.1209 12.9339 28.1641 12.8864C28.2116 12.8346 28.2375 12.7655 28.2505 12.6834C28.2634 12.6014 28.2677 12.5064 28.2677 12.4028V12.0875H28.8809V12.3682C28.8809 12.5755 28.855 12.7612 28.7989 12.9209C28.7427 13.0807 28.6477 13.206 28.5096 13.2966C28.3757 13.3873 28.1814 13.4305 27.9353 13.4305Z" fill="white"/>
<path d="M31.0697 13.4305C30.8409 13.4305 30.6552 13.383 30.5213 13.2837C30.3875 13.1844 30.2882 13.0462 30.2277 12.8691C30.1716 12.6878 30.1414 12.4762 30.1414 12.23V11.0555C30.1414 10.805 30.1716 10.5891 30.2277 10.4077C30.2838 10.2264 30.3875 10.0882 30.53 9.99319C30.6768 9.89387 30.8797 9.84637 31.1345 9.84637C31.372 9.84637 31.562 9.88524 31.7045 9.96728C31.8469 10.0493 31.9463 10.1659 32.0067 10.3171C32.0715 10.4682 32.1017 10.6496 32.1017 10.8655V11.0468H31.4929V10.8482C31.4929 10.7359 31.4842 10.6409 31.467 10.5589C31.454 10.4768 31.4195 10.4164 31.372 10.3775C31.3245 10.3343 31.2511 10.3127 31.1431 10.3127C31.0309 10.3127 30.9488 10.3387 30.897 10.3948C30.8495 10.4509 30.815 10.52 30.802 10.6107C30.789 10.7014 30.7847 10.7964 30.7847 10.9043V12.3682C30.7847 12.4891 30.7934 12.5928 30.815 12.6834C30.8365 12.7741 30.8711 12.8432 30.9272 12.8907C30.9834 12.9382 31.0611 12.9598 31.1604 12.9598C31.264 12.9598 31.3417 12.9339 31.3979 12.8821C31.454 12.8303 31.4886 12.7569 31.5101 12.6662C31.5317 12.5755 31.5447 12.4632 31.5447 12.338V12.0098H31.169V11.6082H32.119V13.383H31.7088L31.6613 13.0375C31.6138 13.1541 31.5447 13.2491 31.4497 13.3225C31.359 13.396 31.2295 13.4305 31.0697 13.4305Z" fill="white"/>
<path d="M32.5173 13.3831V9.88538H33.355C33.5925 9.88538 33.7911 9.9156 33.9509 9.97174C34.115 10.0279 34.2402 10.1229 34.3222 10.2567C34.4086 10.3906 34.4518 10.5763 34.4518 10.8095C34.4518 10.952 34.4388 11.0772 34.4129 11.1895C34.387 11.3018 34.3438 11.3968 34.2791 11.4788C34.2186 11.5565 34.1322 11.617 34.0243 11.6602L34.5122 13.3831H33.8732L33.45 11.7811H33.1564V13.3831H32.5173ZM33.1564 11.3795H33.355C33.4802 11.3795 33.5752 11.3622 33.6486 11.3277C33.722 11.2888 33.7782 11.2327 33.8084 11.1549C33.8386 11.0729 33.8559 10.9736 33.8559 10.8483C33.8559 10.6713 33.8214 10.5417 33.7566 10.4554C33.6918 10.3647 33.5709 10.3215 33.3896 10.3215H33.1564V11.3795Z" fill="white"/>
<path d="M35.7848 13.4305C35.5387 13.4305 35.3401 13.383 35.1933 13.2923C35.0465 13.2016 34.9428 13.0678 34.8781 12.895C34.8133 12.7223 34.7831 12.5194 34.7831 12.2819V10.9734C34.7831 10.7359 34.8133 10.5373 34.8781 10.3689C34.9428 10.2005 35.0465 10.0709 35.1933 9.98024C35.3401 9.88956 35.5387 9.84637 35.7848 9.84637C36.0396 9.84637 36.2382 9.88956 36.3807 9.98024C36.5275 10.0709 36.6312 10.2005 36.6959 10.3689C36.7607 10.5373 36.7952 10.7359 36.7952 10.9734V12.2862C36.7952 12.5194 36.7607 12.7223 36.6959 12.895C36.6312 13.0635 36.5275 13.1973 36.3807 13.2923C36.2382 13.383 36.0396 13.4305 35.7848 13.4305ZM35.7848 12.9598C35.8928 12.9598 35.9705 12.9382 36.018 12.8907C36.0698 12.8432 36.1044 12.7828 36.1216 12.7007C36.1389 12.6187 36.1476 12.5323 36.1476 12.4373V10.8266C36.1476 10.7273 36.1389 10.6409 36.1216 10.5632C36.1044 10.4855 36.0698 10.425 36.018 10.3818C35.9705 10.3343 35.8928 10.3127 35.7848 10.3127C35.6855 10.3127 35.6078 10.3343 35.556 10.3818C35.5042 10.425 35.4696 10.4855 35.4524 10.5632C35.4351 10.6409 35.4265 10.7273 35.4265 10.8266V12.4373C35.4265 12.5323 35.4351 12.6187 35.448 12.7007C35.4653 12.7828 35.4999 12.8432 35.5517 12.8907C35.6035 12.9382 35.6812 12.9598 35.7848 12.9598Z" fill="white"/>
<path d="M37.5426 13.3831L37.046 9.88538H37.5814L37.8707 12.1524L38.2335 9.89401H38.6696L39.0409 12.1524L39.3259 9.88538H39.8527L39.3648 13.3831H38.8466L38.458 11.0383L38.0737 13.3831H37.5426Z" fill="white"/>
<path d="M40.5093 13.3831V10.3561H39.9523V9.88538H41.6967V10.3561H41.1483V13.3831H40.5093Z" fill="white"/>
<path d="M41.9333 13.3831V9.88538H42.5681V11.3493H43.2849V9.88538H43.9196V13.3831H43.2849V11.8027H42.5681V13.3831H41.9333Z" fill="white"/>
</svg>
