<svg width="48" height="48" viewBox="0 0 48 48" fill="none" xmlns="http://www.w3.org/2000/svg">
<path d="M-4.19617e-05 0L47.9971 0L47.9971 48L-4.19617e-05 48L-4.19617e-05 0Z" fill="#48773D"/>
<path d="M4.19041 5.99087C4.1072 6.03595 3.86598 6.13056 3.46627 6.27371C3.14977 6.37971 2.94967 6.45104 2.86646 6.48868V5.18744C3.12302 5.08936 3.43408 4.93878 3.80011 4.7352C4.16564 4.53112 4.42419 4.34636 4.57526 4.18042H5.94428V13.3456H4.19041V5.99087Z" fill="white"/>
<path d="M7.42554 12.7793C7.04069 12.2969 6.84851 11.6138 6.84851 10.7316V10.4146H8.591V10.7202C8.59843 11.1878 8.65489 11.5237 8.76039 11.7272C8.86639 11.9308 9.05856 12.0324 9.33742 12.0324C9.61677 12.0324 9.80351 11.9288 9.89761 11.7213C9.99172 11.5142 10.0393 11.1764 10.0393 10.7088C10.0393 10.2184 9.96745 9.85437 9.82431 9.61711C9.68067 9.37935 9.41667 9.257 9.03231 9.24907C9.00953 9.24164 8.90403 9.23768 8.71532 9.23768V7.95922H8.99814C9.39042 7.95922 9.66185 7.85371 9.81292 7.6427C9.96349 7.43119 10.0393 7.08446 10.0393 6.60151C10.0393 6.2092 9.98429 5.91893 9.87483 5.73021C9.76586 5.54198 9.57121 5.44737 9.29235 5.44737C9.02835 5.44737 8.84707 5.54892 8.74949 5.753C8.65093 5.95658 8.59843 6.25824 8.591 6.65797V7.06514H6.84851V6.56782C6.84851 5.76786 7.06149 5.14968 7.48795 4.7118C7.91391 4.27442 8.51521 4.05548 9.29235 4.05548C10.0843 4.05548 10.6956 4.26699 11.1255 4.68951C11.5554 5.11203 11.7704 5.71882 11.7704 6.51086C11.7704 7.03889 11.6609 7.48221 11.442 7.84034C11.2231 8.19896 10.9442 8.42335 10.6049 8.514C11.3815 8.8003 11.7704 9.52052 11.7704 10.6747C11.7704 11.5573 11.5737 12.2493 11.1819 12.7511C10.7897 13.2529 10.1676 13.5035 9.31513 13.5035C8.43993 13.5035 7.81039 13.2623 7.42554 12.7793Z" fill="white"/>
<path fill-rule="evenodd" clip-rule="evenodd" d="M41.6902 30.1434C41.7457 30.2197 41.7913 30.2861 41.8279 30.342C41.7913 30.3995 41.7452 30.4649 41.6897 30.5422C40.4153 32.3239 34.6514 39.4409 23.9553 39.426C13.2577 39.4116 7.51512 32.2793 6.24367 30.4941C6.18968 30.4163 6.14312 30.351 6.10498 30.293C6.14312 30.237 6.18968 30.1712 6.24416 30.0949C7.52056 28.3127 13.2825 21.1962 23.9806 21.2105C34.6762 21.2254 40.4208 28.3572 41.6902 30.1434ZM23.9702 37.8117C25.6691 37.8142 27.2342 37.2465 28.4888 36.292C28.317 36.2271 28.3209 36.1414 27.8098 36.1211C27.0599 36.0919 26.5482 36.7556 26.2946 36.9008C26.042 37.0459 24.4551 36.1414 23.2465 36.2578C22.7047 36.3093 22.0177 36.5436 21.7864 37.1445C21.7264 37.3005 21.7804 37.4308 21.876 37.5091C22.5402 37.7037 23.2421 37.8107 23.9702 37.8117ZM29.2283 35.6496C29.9713 34.9125 30.5587 34.0189 30.9401 33.0233C30.9376 32.8301 30.8777 32.6345 30.8257 32.5379C30.7989 32.4834 30.7692 32.4259 30.7385 32.3655C30.5766 32.042 30.3869 32.5725 29.4913 32.7949C29.1877 32.8697 28.7855 32.9168 28.1382 33.1501C27.6671 33.321 27.102 34.0774 27.3645 34.7416C27.6245 35.4054 27.4626 35.8571 28.0614 35.4663C28.6627 35.0745 28.2352 35.5381 28.4363 35.6129C28.6359 35.6862 28.5879 35.3553 28.9945 35.5629C29.0773 35.6045 29.1535 35.6288 29.2283 35.6496ZM22.9632 32.953C23.4555 32.1629 22.8186 32.1352 22.5239 32.6751C22.4689 32.7741 22.2019 34.0808 22.3911 34.2275C22.5789 34.3736 22.8607 33.1209 22.9632 32.953ZM29.2972 31.4952C29.3794 31.5274 29.68 31.5422 29.68 31.4204C29.68 31.2985 29.4824 31.0702 29.3294 30.9924C29.1793 30.9186 29.0253 31.0226 29.0857 31.2059C29.1461 31.3887 29.2169 31.465 29.2972 31.4952ZM26.0083 31.4778C26.155 31.3451 25.7785 30.9944 25.5279 31.0167C25.416 31.0256 25.1094 31.2668 25.2966 31.413C25.4848 31.5601 25.8612 31.6086 26.0083 31.4778ZM21.616 34.6851C21.7631 34.118 21.9305 34.4528 22.0033 34.066C22.0766 33.6791 22.198 33.6529 22.1742 33.1872C22.1499 32.7236 22.2148 32.6156 22.5536 32.2798C22.8919 31.9464 22.7953 32.1223 22.8939 31.8112C22.9919 31.5016 22.6541 31.4144 22.353 31.2232C21.9993 30.9979 21.6358 30.395 21.671 29.9854C21.6957 29.7016 21.8473 29.9601 22.194 30.3212C22.5402 30.6838 22.6957 30.9672 23.0484 30.8829C23.4025 30.7982 23.887 30.4812 23.7607 30.1211C23.676 29.8784 22.4847 28.9313 22.5387 28.7515C22.6001 28.5465 22.8027 28.701 23.1658 28.9843C23.5274 29.2696 23.9608 29.2221 24.0494 29.7253C24.2139 30.6526 25.2713 30.243 25.9975 31.0776C26.2768 31.3981 26.414 31.0524 26.6042 30.665C26.7954 30.2772 26.4566 30.0954 26.7221 29.9141C26.9886 29.7323 27.3026 29.812 27.4234 30.1216C27.5433 30.4322 27.7122 30.8354 27.8667 31.2475C28.0133 31.6388 28.9029 32.2481 29.0208 32.257C29.5245 32.2897 28.8464 31.512 28.7939 31.2272C28.7414 30.9429 28.9554 30.4109 29.1748 30.3336C29.3953 30.2559 29.4824 30.3306 29.9584 30.0216C30.4354 29.712 29.944 29.6585 29.9341 29.1418C29.9242 28.6257 30.2432 28.9279 30.3185 29.0368C30.6137 29.4698 31.1234 29.2394 31.1912 28.971C31.2076 28.9051 31.2333 28.7882 31.2279 28.6262C30.4473 25.3501 27.5057 22.9105 23.9905 22.9061C22.5125 22.9041 21.136 23.334 19.976 24.0751C20.8403 24.0112 22.5739 23.7199 22.3877 24.4793C22.2232 25.1509 23.4853 25.2619 22.8438 25.5913C22.5714 25.7329 21.7755 26.2857 21.5996 26.1887C21.1058 25.9212 22.6101 25.5809 22.3208 25.3857C22.0305 25.1876 21.453 25.4135 21.0013 25.512C20.7789 25.5621 19.9101 25.5586 19.5927 25.7097C19.2752 25.8632 18.9007 26.0663 19.0052 26.3377C19.1112 26.6097 19.9711 26.8257 20.1157 26.8257C20.2603 26.8261 20.4173 26.791 20.7259 26.413C21.034 26.0331 21.4075 26.3823 21.299 26.4329C21.1915 26.4849 20.9488 26.6567 20.7581 26.8826C20.606 27.0609 20.3227 27.1872 20.0147 27.0317C19.7061 26.8767 19.0166 26.9594 18.8829 27.0362C18.7501 27.1139 18.4178 27.3458 18.3172 27.372C18.2177 27.3988 18.0726 27.474 18.1211 27.5781C18.1691 27.6806 18.1959 27.8044 18.1191 27.8807C18.0438 27.959 17.9051 28.1205 17.713 27.9917C17.5371 27.8743 17.026 27.9253 16.8833 28.0823C16.864 28.1423 16.8462 28.2032 16.8284 28.2636C16.8184 28.5276 16.9329 28.9615 17.3697 28.6361C17.5129 28.5286 18.2266 28.5549 18.6669 28.1383C18.875 27.9421 19.1068 28.1997 19.1568 28.3027C19.2078 28.4068 19.507 29.0477 19.6565 29.0225C19.8056 28.9977 19.4138 28.4068 19.5892 28.381C19.7645 28.3548 19.9879 28.8793 20.0934 28.8055C20.3782 28.6044 20.6135 28.6757 20.6452 28.9744C20.6719 29.2127 20.448 29.3687 20.1618 29.4866C19.766 29.6471 19.086 29.28 18.6545 29.1171C18.13 28.9189 17.4341 28.811 17.4341 28.811L16.9977 28.961C16.9977 28.961 17.0067 29.0705 16.6119 29.5361C16.5946 29.5564 16.5797 29.5807 16.5658 29.6055C16.5421 29.8502 16.5282 30.0973 16.5277 30.349C16.5262 31.3778 16.7333 32.3581 17.1092 33.2502C17.1196 33.2541 17.1245 33.2571 17.1354 33.2606C17.546 33.3903 17.4272 33.3225 17.7164 33.1947C18.0072 33.0644 18.2672 32.7821 18.4743 33.0401C18.6833 33.2982 18.8819 33.216 18.9101 33.6286C18.9374 34.0422 19.3361 33.3581 19.4109 33.9783C19.5283 34.9467 19.7566 34.4702 19.7561 34.6312C19.7556 35.0963 19.8017 36.0008 20.1405 36.0265C20.4788 36.0518 21.0127 35.8209 21.1568 35.6392C21.3015 35.4598 21.4709 35.2548 21.616 34.6851ZM29.6137 31.7245C29.5012 31.7334 29.1951 31.9747 29.3824 32.1208C29.5706 32.2684 29.946 32.3174 30.0926 32.1852C30.2402 32.0524 29.8643 31.7047 29.6137 31.7245ZM31.2744 31.8905C31.3765 31.3991 31.4319 30.8909 31.4324 30.3693C31.4329 30.2242 31.4275 30.08 31.4201 29.9374C31.326 29.6134 31.1333 29.3885 30.7717 29.4163C30.6806 29.4237 31.0124 29.7922 30.902 29.917C30.2397 30.6774 31.0748 31.8355 31.2744 31.8905ZM17.6243 26.467C17.4088 26.8172 17.2231 27.1887 17.0676 27.5746C17.1196 27.6004 17.183 27.6122 17.2598 27.5949C17.4955 27.5434 17.8992 27.0609 18.1568 26.8242C18.2479 26.74 18.7447 26.5161 18.713 26.3932C18.6833 26.2699 18.4361 26.1763 18.2509 26.2075C18.0656 26.2362 17.7977 26.2689 17.6629 26.422C17.6565 26.4304 17.6411 26.4467 17.6243 26.467ZM18.0072 25.7077C17.974 25.7587 18.0423 25.8934 18.2162 25.9207C18.4411 25.9568 18.8502 25.7275 19.0072 25.565C19.0632 25.5081 19.1271 25.1772 19.1077 25.0915C19.0894 25.0063 18.9384 24.9419 18.8249 24.9642C18.71 24.984 18.5461 25.0058 18.4639 25.1118C18.4247 25.1623 18.1038 25.566 18.0072 25.7077Z" fill="white"/>
<path d="M16.3673 7.72438C16.1122 7.72438 15.909 7.67249 15.7619 7.57304C15.6193 7.47359 15.5155 7.33521 15.4593 7.16225C15.4031 6.98496 15.3728 6.78605 15.3728 6.55687V5.30721C15.3728 5.06938 15.4031 4.86183 15.4593 4.68454C15.5155 4.50725 15.6193 4.3732 15.7619 4.27807C15.909 4.18294 16.1122 4.13538 16.3673 4.13538C16.6094 4.13538 16.7997 4.17862 16.9337 4.26077C17.0721 4.34293 17.1715 4.45968 17.2277 4.61103C17.2839 4.76237 17.3142 4.93966 17.3142 5.14289V5.43693H16.7002V5.13424C16.7002 5.03479 16.6959 4.94831 16.6829 4.86615C16.6743 4.78399 16.6483 4.72345 16.6008 4.67589C16.5575 4.62832 16.4797 4.60238 16.3716 4.60238C16.2635 4.60238 16.1814 4.62832 16.1295 4.68021C16.0819 4.72778 16.0473 4.79696 16.0343 4.88345C16.0214 4.9656 16.0127 5.06073 16.0127 5.16884V6.69092C16.0127 6.81632 16.0214 6.92442 16.043 7.00658C16.0646 7.08874 16.0992 7.14928 16.1511 7.19252C16.2073 7.23144 16.2808 7.25306 16.3716 7.25306C16.4797 7.25306 16.5532 7.22711 16.5964 7.17955C16.644 7.12766 16.6699 7.05847 16.6829 6.97631C16.6959 6.89416 16.7002 6.79902 16.7002 6.69525V6.37959H17.3142V6.66065C17.3142 6.86821 17.2883 7.05415 17.232 7.21414C17.1758 7.37413 17.0807 7.49953 16.9424 7.59034C16.8083 7.68114 16.6137 7.72438 16.3673 7.72438Z" fill="white"/>
<path d="M17.6292 7.67709V4.17456H18.2691V7.23603H19.1165V7.67709H17.6292Z" fill="white"/>
<path d="M19.9678 4.17456H19.3365V7.67709H19.9678V4.17456Z" fill="white"/>
<path d="M20.37 7.67702L20.4305 4.1745H21.0921L21.5893 6.60032L22.1082 4.1745H22.7481L22.813 7.67702H22.3373L22.2854 5.24255L21.7882 7.67702H21.4034L20.8975 5.23391L20.8499 7.67702H20.37Z" fill="white"/>
<path d="M23.0256 7.67709L23.7261 4.17456H24.4093L25.1097 7.67709H24.5174L24.379 6.86848H23.7693L23.6266 7.67709H23.0256ZM23.8342 6.46201H24.3098L24.072 4.99182L23.8342 6.46201Z" fill="white"/>
<path d="M25.5028 7.67709V4.64589H24.9451V4.17456H26.6919V4.64589H26.1428V7.67709H25.5028Z" fill="white"/>
<path d="M26.8828 7.67709V4.17456H28.3529V4.62427H27.5227V5.63178H28.1756V6.07717H27.5227V7.23603H28.3616V7.67709H26.8828Z" fill="white"/>
<path d="M15.2461 13.4011L15.9466 9.89856H16.6297L17.3302 13.4011H16.7378L16.5995 12.5925H15.9898L15.8471 13.4011H15.2461ZM16.0546 12.186H16.5303L16.2925 10.7158L16.0546 12.186Z" fill="white"/>
<path d="M18.4677 13.4485C18.2126 13.4485 18.0094 13.3966 17.8624 13.2972C17.7197 13.1977 17.616 13.0593 17.5597 12.8864C17.5035 12.7091 17.4733 12.5102 17.4733 12.281V11.0313C17.4733 10.7935 17.5035 10.5859 17.5597 10.4087C17.616 10.2314 17.7197 10.0973 17.8624 10.0022C18.0094 9.90706 18.2126 9.8595 18.4677 9.8595C18.7099 9.8595 18.9001 9.90274 19.0342 9.9849C19.1725 10.0671 19.272 10.1838 19.3282 10.3351C19.3844 10.4865 19.4147 10.6638 19.4147 10.867V11.1611H18.8007V10.8584C18.8007 10.7589 18.7964 10.6724 18.7834 10.5903C18.7747 10.5081 18.7488 10.4476 18.7012 10.4C18.658 10.3524 18.5802 10.3265 18.4721 10.3265C18.364 10.3265 18.2818 10.3524 18.2299 10.4043C18.1824 10.4519 18.1478 10.5211 18.1348 10.6076C18.1218 10.6897 18.1132 10.7849 18.1132 10.893V12.415C18.1132 12.5404 18.1218 12.6485 18.1435 12.7307C18.1651 12.8129 18.1997 12.8734 18.2516 12.9166C18.3078 12.9556 18.3813 12.9772 18.4721 12.9772C18.5802 12.9772 18.6537 12.9512 18.6969 12.9037C18.7445 12.8518 18.7704 12.7826 18.7834 12.7004C18.7964 12.6183 18.8007 12.5231 18.8007 12.4194V12.1037H19.4147V12.3848C19.4147 12.5923 19.3887 12.7783 19.3325 12.9383C19.2763 13.0983 19.1812 13.2237 19.0428 13.3145C18.9088 13.4053 18.7142 13.4485 18.4677 13.4485Z" fill="white"/>
<path d="M20.0771 13.4011V10.3699H19.5193V9.89856H21.2661V10.3699H20.717V13.4011H20.0771Z" fill="white"/>
<path d="M22.1 9.89856H21.4688V13.4011H22.1V9.89856Z" fill="white"/>
<path d="M23.458 13.4485C23.2115 13.4485 23.0126 13.4009 22.8656 13.3101C22.7186 13.2193 22.6148 13.0853 22.55 12.9123C22.4851 12.7394 22.4548 12.5361 22.4548 12.2983V10.9881C22.4548 10.7503 22.4851 10.5514 22.55 10.3827C22.6148 10.2141 22.7186 10.0844 22.8656 9.99354C23.0126 9.90274 23.2115 9.8595 23.458 9.8595C23.7131 9.8595 23.912 9.90274 24.0546 9.99354C24.2017 10.0844 24.3054 10.2141 24.3703 10.3827C24.4351 10.5514 24.4697 10.7503 24.4697 10.9881V12.3026C24.4697 12.5361 24.4351 12.7394 24.3703 12.9123C24.3054 13.081 24.2017 13.215 24.0546 13.3101C23.912 13.4009 23.7131 13.4485 23.458 13.4485ZM23.458 12.9772C23.5661 12.9772 23.6439 12.9556 23.6914 12.908C23.7433 12.8604 23.7779 12.7999 23.7952 12.7177C23.8125 12.6356 23.8212 12.5491 23.8212 12.454V10.8411C23.8212 10.7416 23.8125 10.6551 23.7952 10.5773C23.7779 10.4995 23.7433 10.4389 23.6914 10.3957C23.6439 10.3481 23.5661 10.3265 23.458 10.3265C23.3585 10.3265 23.2807 10.3481 23.2288 10.3957C23.1769 10.4389 23.1423 10.4995 23.125 10.5773C23.1077 10.6551 23.0991 10.7416 23.0991 10.8411V12.454C23.0991 12.5491 23.1077 12.6356 23.1207 12.7177C23.138 12.7999 23.1726 12.8604 23.2245 12.908C23.2764 12.9556 23.3542 12.9772 23.458 12.9772Z" fill="white"/>
<path d="M24.8069 13.4011V9.89856H25.2522L26.104 11.8963V9.89856H26.6315V13.4011H26.2078L25.3517 11.3082V13.4011H24.8069Z" fill="white"/>
</svg>
