<svg width="24" height="22" viewBox="0 0 24 22" fill="none" xmlns="http://www.w3.org/2000/svg">
<path d="M20.25 2.0625H3.75C3.35218 2.0625 2.97064 2.20737 2.68934 2.46523C2.40804 2.72309 2.25 3.07283 2.25 3.4375V18.5625C2.25 18.9272 2.40804 19.2769 2.68934 19.5348C2.97064 19.7926 3.35218 19.9375 3.75 19.9375H20.25C20.6478 19.9375 21.0294 19.7926 21.3107 19.5348C21.592 19.2769 21.75 18.9272 21.75 18.5625V3.4375C21.75 3.07283 21.592 2.72309 21.3107 2.46523C21.0294 2.20737 20.6478 2.0625 20.25 2.0625ZM9 15.125C9 15.3073 8.92098 15.4822 8.78033 15.6111C8.63968 15.7401 8.44891 15.8125 8.25 15.8125C8.05109 15.8125 7.86032 15.7401 7.71967 15.6111C7.57902 15.4822 7.5 15.3073 7.5 15.125V9.625C7.5 9.44266 7.57902 9.2678 7.71967 9.13886C7.86032 9.00993 8.05109 8.9375 8.25 8.9375C8.44891 8.9375 8.63968 9.00993 8.78033 9.13886C8.92098 9.2678 9 9.44266 9 9.625V15.125ZM8.25 8.25C8.0275 8.25 7.80999 8.18952 7.62498 8.0762C7.43998 7.96289 7.29578 7.80183 7.21064 7.61339C7.12549 7.42496 7.10321 7.21761 7.14662 7.01756C7.19002 6.81752 7.29717 6.63377 7.4545 6.48955C7.61184 6.34532 7.81229 6.24711 8.03052 6.20731C8.24875 6.16752 8.47495 6.18795 8.68052 6.266C8.88609 6.34405 9.06179 6.47623 9.1854 6.64582C9.30902 6.81541 9.375 7.01479 9.375 7.21875C9.375 7.49225 9.25647 7.75456 9.0455 7.94795C8.83452 8.14135 8.54837 8.25 8.25 8.25ZM17.25 15.125C17.25 15.3073 17.171 15.4822 17.0303 15.6111C16.8897 15.7401 16.6989 15.8125 16.5 15.8125C16.3011 15.8125 16.1103 15.7401 15.9697 15.6111C15.829 15.4822 15.75 15.3073 15.75 15.125V12.0312C15.75 11.5754 15.5525 11.1382 15.2008 10.8159C14.8492 10.4936 14.3723 10.3125 13.875 10.3125C13.3777 10.3125 12.9008 10.4936 12.5492 10.8159C12.1975 11.1382 12 11.5754 12 12.0312V15.125C12 15.3073 11.921 15.4822 11.7803 15.6111C11.6397 15.7401 11.4489 15.8125 11.25 15.8125C11.0511 15.8125 10.8603 15.7401 10.7197 15.6111C10.579 15.4822 10.5 15.3073 10.5 15.125V9.625C10.5009 9.4566 10.5693 9.29437 10.692 9.16909C10.8148 9.0438 10.9834 8.96417 11.166 8.94531C11.3485 8.92645 11.5323 8.96966 11.6824 9.06675C11.8325 9.16383 11.9385 9.30805 11.9803 9.47203C12.4877 9.15653 13.0792 8.97368 13.6914 8.9431C14.3036 8.91253 14.9133 9.03539 15.455 9.29849C15.9968 9.56159 16.4501 9.955 16.7664 10.4365C17.0826 10.9179 17.2498 11.4693 17.25 12.0312V15.125Z" fill="white"/>
</svg>
