<svg width="48" height="48" viewBox="0 0 48 48" fill="none" xmlns="http://www.w3.org/2000/svg">
<rect x="0.5" y="0.5" width="47" height="47" rx="23.5" fill="black" fill-opacity="0.15"/>
<rect x="0.5" y="0.5" width="47" height="47" rx="23.5" stroke="url(#paint0_linear_6344_11840)"/>
<path d="M30.875 17.75V30.25C30.875 30.5815 30.7433 30.8995 30.5089 31.1339C30.2745 31.3683 29.9565 31.5 29.625 31.5H26.5C26.1685 31.5 25.8505 31.3683 25.6161 31.1339C25.3817 30.8995 25.25 30.5815 25.25 30.25V17.75C25.25 17.4185 25.3817 17.1005 25.6161 16.8661C25.8505 16.6317 26.1685 16.5 26.5 16.5H29.625C29.9565 16.5 30.2745 16.6317 30.5089 16.8661C30.7433 17.1005 30.875 17.4185 30.875 17.75ZM21.5 16.5H18.375C18.0435 16.5 17.7255 16.6317 17.4911 16.8661C17.2567 17.1005 17.125 17.4185 17.125 17.75V30.25C17.125 30.5815 17.2567 30.8995 17.4911 31.1339C17.7255 31.3683 18.0435 31.5 18.375 31.5H21.5C21.8315 31.5 22.1495 31.3683 22.3839 31.1339C22.6183 30.8995 22.75 30.5815 22.75 30.25V17.75C22.75 17.4185 22.6183 17.1005 22.3839 16.8661C22.1495 16.6317 21.8315 16.5 21.5 16.5Z" fill="white"/>
<defs>
<linearGradient id="paint0_linear_6344_11840" x1="1.19623e-07" y1="40.5" x2="48.0164" y2="41.5488" gradientUnits="userSpaceOnUse">
<stop stop-color="#39B5D7"/>
<stop offset="0.502211" stop-color="#F7D544"/>
<stop offset="1" stop-color="#E38330"/>
</linearGradient>
</defs>
</svg>
