<svg width="48" height="48" viewBox="0 0 48 48" fill="none" xmlns="http://www.w3.org/2000/svg">
<rect x="0.5" y="0.5" width="47" height="47" rx="23.5" fill="black" fill-opacity="0.15"/>
<rect x="0.5" y="0.5" width="47" height="47" rx="23.5" stroke="url(#paint0_linear_5789_32921)"/>
<path d="M32.75 24C32.7505 24.2122 32.6961 24.421 32.5921 24.6059C32.488 24.7909 32.3379 24.9457 32.1562 25.0555L20.9 31.9414C20.7102 32.0576 20.4929 32.1211 20.2704 32.1252C20.0479 32.1293 19.8283 32.074 19.6344 31.9649C19.4423 31.8575 19.2822 31.7008 19.1708 31.5111C19.0593 31.3213 19.0003 31.1053 19 30.8852V17.1149C19.0003 16.8948 19.0593 16.6787 19.1708 16.489C19.2822 16.2992 19.4423 16.1426 19.6344 16.0352C19.8283 15.9261 20.0479 15.8707 20.2704 15.8748C20.4929 15.879 20.7102 15.9424 20.9 16.0586L32.1562 22.9446C32.3379 23.0543 32.488 23.2092 32.5921 23.3941C32.6961 23.5791 32.7505 23.7878 32.75 24Z" fill="white"/>
<defs>
<linearGradient id="paint0_linear_5789_32921" x1="1.19623e-07" y1="40.5" x2="48.0164" y2="41.5488" gradientUnits="userSpaceOnUse">
<stop stop-color="#39B5D7"/>
<stop offset="0.502211" stop-color="#F7D544"/>
<stop offset="1" stop-color="#E38330"/>
</linearGradient>
</defs>
</svg>
