<svg width="60" height="61" viewBox="0 0 60 61" fill="none" xmlns="http://www.w3.org/2000/svg">
<circle cx="30" cy="30.689" r="30" fill="url(#paint0_linear_5835_32201)"/>
<path d="M36 25.75V36.25C36 36.6478 35.842 37.0294 35.5607 37.3107C35.2794 37.592 34.8978 37.75 34.5 37.75H21C20.6022 37.75 20.2206 37.592 19.9393 37.3107C19.658 37.0294 19.5 36.6478 19.5 36.25V25.75C19.5 25.3522 19.658 24.9706 19.9393 24.6893C20.2206 24.408 20.6022 24.25 21 24.25H34.5C34.8978 24.25 35.2794 24.408 35.5607 24.6893C35.842 24.9706 36 25.3522 36 25.75ZM41.4375 25.7734C41.3317 25.7475 41.2216 25.7444 41.1145 25.7641C41.0073 25.7838 40.9056 25.826 40.8159 25.8878L37.6669 27.9869C37.6155 28.0211 37.5734 28.0676 37.5443 28.122C37.5152 28.1765 37.5 28.2373 37.5 28.2991V33.7009C37.5 33.7627 37.5152 33.8235 37.5443 33.878C37.5734 33.9324 37.6155 33.9789 37.6669 34.0131L40.8337 36.1244C40.9523 36.2034 41.0909 36.2471 41.2333 36.2503C41.3758 36.2534 41.5162 36.2159 41.6381 36.1422C41.7509 36.0705 41.8434 35.971 41.9068 35.8533C41.9702 35.7356 42.0022 35.6036 42 35.47V26.5C42.0001 26.3337 41.9449 26.172 41.843 26.0405C41.7412 25.909 41.5986 25.815 41.4375 25.7734Z" fill="white"/>
<defs>
<linearGradient id="paint0_linear_5835_32201" x1="62.7645" y1="180.889" x2="-7.78157" y2="180.889" gradientUnits="userSpaceOnUse">
<stop stop-color="#F7D344"/>
<stop offset="1" stop-color="#E38330"/>
</linearGradient>
</defs>
</svg>
