<svg width="64" height="64" viewBox="0 0 64 64" fill="none" xmlns="http://www.w3.org/2000/svg">
<circle cx="32" cy="32.0002" r="31" fill="white" stroke="#E5E5E5" stroke-width="2"/>
<path d="M41 33.5001V39.5001C41 39.699 40.921 39.8898 40.7803 40.0304C40.6397 40.1711 40.4489 40.2501 40.25 40.2501H23.75C23.5511 40.2501 23.3603 40.1711 23.2197 40.0304C23.079 39.8898 23 39.699 23 39.5001V33.5001C23 33.3012 23.079 33.1104 23.2197 32.9698C23.3603 32.8291 23.5511 32.7501 23.75 32.7501C23.9489 32.7501 24.1397 32.8291 24.2803 32.9698C24.421 33.1104 24.5 33.3012 24.5 33.5001V38.7501H39.5V33.5001C39.5 33.3012 39.579 33.1104 39.7197 32.9698C39.8603 32.8291 40.0511 32.7501 40.25 32.7501C40.4489 32.7501 40.6397 32.8291 40.7803 32.9698C40.921 33.1104 41 33.3012 41 33.5001ZM28.25 27.5001H31.25V33.5001C31.25 33.699 31.329 33.8898 31.4697 34.0304C31.6103 34.1711 31.8011 34.2501 32 34.2501C32.1989 34.2501 32.3897 34.1711 32.5303 34.0304C32.671 33.8898 32.75 33.699 32.75 33.5001V27.5001H35.75C35.8984 27.5002 36.0435 27.4563 36.167 27.3739C36.2904 27.2915 36.3867 27.1743 36.4435 27.0372C36.5003 26.9001 36.5151 26.7492 36.4861 26.6036C36.4572 26.4581 36.3856 26.3244 36.2806 26.2195L32.5306 22.4695C32.461 22.3997 32.3783 22.3444 32.2872 22.3067C32.1962 22.2689 32.0986 22.2495 32 22.2495C31.9014 22.2495 31.8038 22.2689 31.7128 22.3067C31.6217 22.3444 31.539 22.3997 31.4694 22.4695L27.7194 26.2195C27.6144 26.3244 27.5428 26.4581 27.5139 26.6036C27.4849 26.7492 27.4997 26.9001 27.5565 27.0372C27.6133 27.1743 27.7096 27.2915 27.833 27.3739C27.9565 27.4563 28.1016 27.5002 28.25 27.5001Z" fill="#D4D4D4"/>
</svg>
