<svg width="60" height="60" viewBox="0 0 60 60" fill="none" xmlns="http://www.w3.org/2000/svg">
<circle cx="30" cy="30" r="30" fill="url(#paint0_linear_5835_32205)"/>
<path d="M39 31.4999V37.4999C39 37.6988 38.921 37.8895 38.7803 38.0302C38.6397 38.1708 38.4489 38.2499 38.25 38.2499H21.75C21.5511 38.2499 21.3603 38.1708 21.2197 38.0302C21.079 37.8895 21 37.6988 21 37.4999V31.4999C21 31.3009 21.079 31.1102 21.2197 30.9695C21.3603 30.8289 21.5511 30.7499 21.75 30.7499C21.9489 30.7499 22.1397 30.8289 22.2803 30.9695C22.421 31.1102 22.5 31.3009 22.5 31.4999V36.7499H37.5V31.4999C37.5 31.3009 37.579 31.1102 37.7197 30.9695C37.8603 30.8289 38.0511 30.7499 38.25 30.7499C38.4489 30.7499 38.6397 30.8289 38.7803 30.9695C38.921 31.1102 39 31.3009 39 31.4999ZM26.25 25.4999H29.25V31.4999C29.25 31.6988 29.329 31.8895 29.4697 32.0302C29.6103 32.1708 29.8011 32.2499 30 32.2499C30.1989 32.2499 30.3897 32.1708 30.5303 32.0302C30.671 31.8895 30.75 31.6988 30.75 31.4999V25.4999H33.75C33.8984 25.5 34.0435 25.4561 34.167 25.3736C34.2904 25.2912 34.3867 25.1741 34.4435 25.037C34.5003 24.8998 34.5151 24.7489 34.4861 24.6034C34.4572 24.4578 34.3856 24.3241 34.2806 24.2192L30.5306 20.4692C30.461 20.3995 30.3783 20.3442 30.2872 20.3064C30.1962 20.2687 30.0986 20.2493 30 20.2493C29.9014 20.2493 29.8038 20.2687 29.7128 20.3064C29.6217 20.3442 29.539 20.3995 29.4694 20.4692L25.7194 24.2192C25.6144 24.3241 25.5428 24.4578 25.5139 24.6034C25.4849 24.7489 25.4997 24.8998 25.5565 25.037C25.6133 25.1741 25.7096 25.2912 25.833 25.3736C25.9565 25.4561 26.1016 25.5 26.25 25.4999Z" fill="white"/>
<defs>
<linearGradient id="paint0_linear_5835_32205" x1="62.7645" y1="180.2" x2="-7.78157" y2="180.2" gradientUnits="userSpaceOnUse">
<stop stop-color="#F7D344"/>
<stop offset="1" stop-color="#E38330"/>
</linearGradient>
</defs>
</svg>
