<svg width="20" height="20" viewBox="0 0 20 20" fill="none" xmlns="http://www.w3.org/2000/svg">
<path d="M9.55469 5.57818L11.1016 4.0313C11.7565 3.43437 12.6162 3.11274 13.5022 3.13325C14.3881 3.15376 15.232 3.51483 15.8586 4.14143C16.4852 4.76804 16.8463 5.61198 16.8668 6.4979C16.8873 7.38381 16.5657 8.24356 15.9688 8.89849L13.7578 11.1016C13.4392 11.4214 13.0605 11.6752 12.6436 11.8484C12.2266 12.0215 11.7796 12.1107 11.3281 12.1107C10.8767 12.1107 10.4296 12.0215 10.0127 11.8484C9.59573 11.6752 9.21708 11.4214 8.89844 11.1016" stroke="#343434" stroke-linecap="round" stroke-linejoin="round"/>
<path d="M10.4449 14.4219L8.898 15.9688C8.24308 16.5657 7.38332 16.8874 6.49741 16.8668C5.6115 16.8463 4.76755 16.4853 4.14095 15.8587C3.51434 15.2321 3.15327 14.3881 3.13276 13.5022C3.11225 12.6163 3.43388 11.7565 4.03081 11.1016L6.24175 8.89848C6.5604 8.57864 6.93905 8.32486 7.35599 8.1517C7.77294 7.97854 8.21997 7.8894 8.67144 7.8894C9.12291 7.8894 9.56995 7.97854 9.98689 8.1517C10.4038 8.32486 10.7825 8.57864 11.1011 8.89848" stroke="#343434" stroke-linecap="round" stroke-linejoin="round"/>
</svg>
