<svg width="40" height="40" viewBox="0 0 40 40" fill="none" xmlns="http://www.w3.org/2000/svg">
<rect x="0.6" y="0.6" width="38.8" height="38.8" rx="19.4" stroke="#404040" stroke-width="1.2"/>
<path d="M20.6255 16.2501V19.6462L23.4473 21.3392C23.5895 21.4245 23.6919 21.5629 23.732 21.7238C23.7722 21.8846 23.7468 22.0549 23.6614 22.197C23.576 22.3391 23.4377 22.4415 23.2768 22.4817C23.116 22.5218 22.9457 22.4964 22.8036 22.4111L19.6786 20.5361C19.5861 20.4805 19.5096 20.4019 19.4565 20.308C19.4033 20.2141 19.3754 20.108 19.3755 20.0001V16.2501C19.3755 16.0844 19.4413 15.9254 19.5585 15.8082C19.6757 15.691 19.8347 15.6251 20.0005 15.6251C20.1662 15.6251 20.3252 15.691 20.4424 15.8082C20.5596 15.9254 20.6255 16.0844 20.6255 16.2501ZM27.5005 14.3751C27.3347 14.3751 27.1757 14.441 27.0585 14.5582C26.9413 14.6754 26.8755 14.8344 26.8755 15.0001V16.4064C26.3794 15.8314 25.8731 15.2775 25.3036 14.7009C24.2613 13.6585 22.9349 12.9463 21.4902 12.6534C20.0454 12.3605 18.5464 12.4999 17.1805 13.0541C15.8145 13.6083 14.6421 14.5527 13.8098 15.7694C12.9775 16.9861 12.5222 18.421 12.5008 19.895C12.4794 21.369 12.8928 22.8165 13.6894 24.0569C14.486 25.2972 15.6305 26.2753 16.9798 26.8689C18.3291 27.4625 19.8234 27.6454 21.2761 27.3946C22.7287 27.1437 24.0752 26.4704 25.1473 25.4587C25.2071 25.4023 25.2551 25.3346 25.2886 25.2597C25.3222 25.1847 25.3407 25.1038 25.343 25.0217C25.3453 24.9396 25.3314 24.8578 25.3022 24.781C25.2729 24.7043 25.2288 24.634 25.1723 24.5743C25.1159 24.5146 25.0483 24.4666 24.9733 24.433C24.8983 24.3995 24.8175 24.381 24.7353 24.3787C24.6532 24.3764 24.5714 24.3902 24.4947 24.4195C24.4179 24.4488 24.3477 24.4929 24.288 24.5493C23.3943 25.3916 22.2722 25.9519 21.062 26.1603C19.8517 26.3686 18.6069 26.2159 17.483 25.721C16.359 25.2261 15.4058 24.4111 14.7423 23.3778C14.0788 22.3444 13.7344 21.1385 13.7521 19.9105C13.7699 18.6826 14.149 17.4871 14.8421 16.4734C15.5352 15.4596 16.5116 14.6725 17.6494 14.2104C18.7871 13.7482 20.0359 13.6315 21.2396 13.8747C22.4433 14.118 23.5487 14.7105 24.4177 15.5782C25.0536 16.222 25.6106 16.8423 26.1723 17.5001H24.3755C24.2097 17.5001 24.0507 17.566 23.9335 17.6832C23.8163 17.8004 23.7505 17.9594 23.7505 18.1251C23.7505 18.2909 23.8163 18.4498 23.9335 18.5671C24.0507 18.6843 24.2097 18.7501 24.3755 18.7501H27.5005C27.6662 18.7501 27.8252 18.6843 27.9424 18.5671C28.0596 18.4498 28.1255 18.2909 28.1255 18.1251V15.0001C28.1255 14.8344 28.0596 14.6754 27.9424 14.5582C27.8252 14.441 27.6662 14.3751 27.5005 14.3751Z" fill="white"/>
</svg>
