<svg width="49" height="48" viewBox="0 0 49 48" fill="none" xmlns="http://www.w3.org/2000/svg">
<path d="M8.01086e-05 0H47.9972V48H8.01086e-05V0Z" fill="#FDB713"/>
<path d="M6.42449 5.50822H3.93896V4.17511H8.13048V5.31629L6.19844 13.3273H4.50383L6.42449 5.50822Z" fill="white"/>
<path fill-rule="evenodd" clip-rule="evenodd" d="M23.9974 23.3856C27.9 23.3856 31.0637 26.5495 31.0637 30.4528C31.0637 34.3577 27.9 37.521 23.9974 37.521C20.0947 37.521 16.9311 34.3577 16.9311 30.4528C16.9311 26.5495 20.0947 23.3856 23.9974 23.3856ZM23.474 26.1775V28.6038C23.474 28.8383 23.7105 29.0945 24.0003 29.0945C24.2897 29.0945 24.5237 28.8383 24.5237 28.6038V26.1775C24.5237 25.9425 24.2897 25.6833 24.0003 25.6833C23.7105 25.6833 23.474 25.9425 23.474 26.1775ZM23.9984 34.0742C26.0288 34.0742 27.6745 32.429 27.6745 30.3984C27.6745 28.7462 26.5848 27.3493 25.0846 26.8858V28.2531C25.8676 28.6503 26.4047 29.4605 26.4047 30.3984C26.4047 31.7276 25.3279 32.8049 23.9984 32.8049C22.6693 32.8049 21.5925 31.7276 21.5925 30.3984C21.5925 29.463 22.1272 28.6542 22.9062 28.2565V26.8878C21.4094 27.3528 20.3232 28.7487 20.3232 30.3984C20.3232 32.429 21.9689 34.0742 23.9984 34.0742ZM15.8854 30.391C15.8854 30.7125 15.6015 30.9732 15.3423 30.9732H12.2479C11.9867 30.9732 11.7003 30.7125 11.7003 30.391C11.7003 30.0705 11.9867 29.8112 12.2479 29.8112H15.3423C15.6015 29.8112 15.8854 30.0705 15.8854 30.391ZM36.2979 30.391C36.2979 30.7125 36.014 30.9732 35.7548 30.9732H32.6604C32.3992 30.9732 32.1128 30.7125 32.1128 30.391C32.1128 30.0705 32.3992 29.8112 32.6604 29.8112H35.7548C36.014 29.8112 36.2979 30.0705 36.2979 30.391ZM24.0003 42.6913C23.6793 42.6913 23.4177 42.4073 23.4177 42.1481V39.0535C23.4177 38.7928 23.6793 38.5059 24.0003 38.5059C24.3204 38.5059 24.58 38.7928 24.58 39.0535V42.1481C24.58 42.4073 24.3204 42.6913 24.0003 42.6913ZM34.674 36.5006C34.5142 36.7796 34.1383 36.8651 33.9137 36.736L31.2274 35.1991C31.0014 35.0695 30.8821 34.7005 31.0419 34.422C31.2007 34.1435 31.5786 34.0604 31.8051 34.19L34.491 35.7274C34.7155 35.856 34.8328 36.2226 34.674 36.5006ZM17.8911 41.0678C17.6122 40.9085 17.5266 40.5316 17.6552 40.307L19.1925 37.621C19.3216 37.3949 19.6911 37.2757 19.9696 37.435C20.2476 37.5938 20.3307 37.9722 20.2011 38.1982L18.6637 40.8843C18.5351 41.1093 18.1691 41.2266 17.8911 41.0678ZM30.1308 41.0539C29.8523 41.2137 29.4848 41.0979 29.3557 40.8734L27.8134 38.1908C27.6824 37.9643 27.766 37.5858 28.0444 37.4261C28.3224 37.2663 28.6899 37.385 28.8205 37.6111L30.3633 40.2941C30.4924 40.5187 30.4083 40.8941 30.1308 41.0539ZM13.338 36.5243C13.1778 36.2458 13.294 35.8778 13.5186 35.7487L16.201 34.2058C16.427 34.0757 16.8059 34.1593 16.9657 34.4378C17.1259 34.7158 17.0067 35.0834 16.7802 35.2135L14.0978 36.7563C13.8727 36.8854 13.4973 36.8018 13.338 36.5243ZM24.0003 22.278C23.6793 22.278 23.4177 21.9941 23.4177 21.7354V18.6403C23.4177 18.3791 23.6793 18.0927 24.0003 18.0927C24.3204 18.0927 24.58 18.3791 24.58 18.6403V21.7354C24.58 21.9941 24.3204 22.278 24.0003 22.278ZM16.9573 26.3605C16.798 26.6395 16.4221 26.7246 16.197 26.5959L13.5112 25.059C13.2846 24.9289 13.1654 24.5604 13.3252 24.2814C13.4845 24.0034 13.8619 23.9203 14.0884 24.0504L16.7743 25.5873C16.9993 25.7159 17.1165 26.0825 16.9573 26.3605ZM28.0306 23.3505C27.7516 23.1912 27.6661 22.8148 27.7947 22.5897L29.332 19.9037C29.4616 19.6776 29.8306 19.5579 30.1095 19.7177C30.387 19.877 30.4701 20.2544 30.3405 20.4814L28.8032 23.1674C28.6741 23.392 28.3086 23.5093 28.0306 23.3505ZM19.9552 23.3574C19.6763 23.5177 19.3092 23.4014 19.1796 23.1768L17.6374 20.4943C17.5068 20.2677 17.5899 19.8893 17.8689 19.7295C18.1469 19.5698 18.5139 19.688 18.6445 19.9146L20.1872 22.5976C20.3168 22.8222 20.2327 23.1976 19.9552 23.3574ZM31.0335 26.3481C30.8732 26.0701 30.9895 25.7016 31.214 25.5725L33.8969 24.0301C34.1235 23.8995 34.5014 23.9836 34.6616 24.2616C34.8214 24.5396 34.7022 24.9072 34.4756 25.0373L31.7933 26.5801C31.5682 26.7092 31.1933 26.6256 31.0335 26.3481Z" fill="white"/>
<path d="M11.8494 7.66683L12.5489 4.16907H13.2311L13.9306 7.66683H13.3391L13.2009 6.85932H12.5921L12.4496 7.66683H11.8494ZM12.6568 6.45341H13.1318L12.8943 4.98521L12.6568 6.45341Z" fill="white"/>
<path d="M14.1831 7.66683V4.16907H15.621V4.60953H14.8222V5.62863H15.4742V6.0734H14.8222V7.66683H14.1831Z" fill="white"/>
<path d="M15.8694 7.66683V4.16907H17.3073V4.60953H16.5084V5.62863H17.1604V6.0734H16.5084V7.66683H15.8694Z" fill="white"/>
<path d="M18.5042 7.71437C18.2581 7.71437 18.0595 7.66687 17.9126 7.57619C17.7658 7.48551 17.6622 7.35164 17.5974 7.17891C17.5327 7.00619 17.5024 6.80323 17.5024 6.56573V5.25731C17.5024 5.0198 17.5327 4.82116 17.5974 4.65275C17.6622 4.48434 17.7658 4.3548 17.9126 4.26411C18.0595 4.17343 18.2581 4.13025 18.5042 4.13025C18.759 4.13025 18.9576 4.17343 19.1001 4.26411C19.2469 4.3548 19.3505 4.48434 19.4153 4.65275C19.4801 4.82116 19.5146 5.0198 19.5146 5.25731V6.57004C19.5146 6.80323 19.4801 7.00619 19.4153 7.17891C19.3505 7.34732 19.2469 7.48119 19.1001 7.57619C18.9576 7.66687 18.759 7.71437 18.5042 7.71437ZM18.5042 7.24369C18.6122 7.24369 18.6899 7.2221 18.7374 7.1746C18.7892 7.1271 18.8237 7.06664 18.841 6.98459C18.8583 6.90255 18.8669 6.81618 18.8669 6.72118V5.11049C18.8669 5.01117 18.8583 4.9248 18.841 4.84707C18.8237 4.76935 18.7892 4.70889 18.7374 4.66571C18.6899 4.61821 18.6122 4.59662 18.5042 4.59662C18.4049 4.59662 18.3272 4.61821 18.2754 4.66571C18.2235 4.70889 18.189 4.76935 18.1717 4.84707C18.1545 4.9248 18.1458 5.01117 18.1458 5.11049V6.72118C18.1458 6.81618 18.1545 6.90255 18.1674 6.98459C18.1847 7.06664 18.2192 7.1271 18.271 7.1746C18.3229 7.2221 18.4006 7.24369 18.5042 7.24369Z" fill="white"/>
<path d="M19.8895 7.66683V4.16907H20.7272C20.9647 4.16907 21.1633 4.19929 21.3231 4.25543C21.4872 4.31157 21.6124 4.40657 21.6944 4.54043C21.7808 4.6743 21.824 4.85998 21.824 5.09317C21.824 5.23567 21.811 5.3609 21.7851 5.47317C21.7592 5.58544 21.716 5.68045 21.6512 5.76249C21.5908 5.84022 21.5044 5.90068 21.3965 5.94386L21.8844 7.66683H21.2454L20.8222 6.06477H20.5286V7.66683H19.8895ZM20.5286 5.66317H20.7272C20.8524 5.66317 20.9474 5.6459 21.0208 5.61135C21.0942 5.57249 21.1504 5.51635 21.1806 5.43863C21.2108 5.35658 21.2281 5.25726 21.2281 5.13203C21.2281 4.95498 21.1935 4.82544 21.1288 4.73907C21.064 4.64839 20.9431 4.60521 20.7618 4.60521H20.5286V5.66317Z" fill="white"/>
<path d="M22.2134 7.66683V4.16907H23.0381C23.3231 4.16907 23.5433 4.20793 23.7031 4.28566C23.8628 4.36339 23.9794 4.4843 24.0442 4.64407C24.1133 4.80385 24.1478 5.01112 24.1478 5.25726V6.53545C24.1478 6.79023 24.1133 7.00182 24.0442 7.17023C23.9794 7.33864 23.8672 7.46387 23.7074 7.54592C23.5519 7.62796 23.336 7.66683 23.064 7.66683H22.2134ZM22.8524 7.22205H23.0467C23.1936 7.22205 23.2972 7.19614 23.362 7.14432C23.4267 7.0925 23.4656 7.01909 23.4785 6.91978C23.4915 6.82046 23.5001 6.69523 23.5001 6.55273V5.21408C23.5001 5.07158 23.4915 4.9593 23.4699 4.87294C23.4483 4.78657 23.4094 4.7218 23.3447 4.68294C23.2799 4.64407 23.1806 4.62248 23.0381 4.62248H22.8524V7.22205Z" fill="white"/>
<path d="M24.322 7.66683L25.0215 4.16907H25.7038L26.4033 7.66683H25.8117L25.6735 6.85932H25.0647L24.9222 7.66683H24.322ZM25.1295 6.45341H25.6045L25.367 4.98521L25.1295 6.45341Z" fill="white"/>
<path d="M26.6565 7.66683V4.16907H27.5158C27.6712 4.16907 27.8094 4.18202 27.9346 4.21225C28.0598 4.24248 28.1678 4.28998 28.2585 4.35907C28.3491 4.42384 28.4225 4.51453 28.47 4.63112C28.5175 4.74771 28.5434 4.89021 28.5434 5.06726C28.5434 5.20976 28.5218 5.33067 28.483 5.42999C28.4441 5.52931 28.388 5.61135 28.3146 5.67181C28.2412 5.72795 28.1462 5.76681 28.0339 5.7884C28.1721 5.80999 28.2844 5.86181 28.375 5.93522C28.4657 6.00863 28.5348 6.10363 28.578 6.22022C28.6255 6.33682 28.6471 6.47932 28.6471 6.64773C28.6471 6.81614 28.6255 6.96296 28.5823 7.0925C28.5434 7.21773 28.4787 7.32569 28.3966 7.41205C28.3146 7.4941 28.2153 7.55887 28.0901 7.60206C27.9691 7.64524 27.8267 7.66683 27.6626 7.66683H26.6565ZM27.2955 7.21773H27.5374C27.7317 7.21773 27.8612 7.17023 27.9303 7.07955C27.9994 6.98455 28.0339 6.83773 28.0339 6.64341C28.0339 6.50091 28.0166 6.38863 27.9821 6.30227C27.9519 6.21159 27.8957 6.14681 27.818 6.10363C27.7446 6.06045 27.641 6.03886 27.5158 6.03886H27.2955V7.21773ZM27.2955 5.5984H27.5114C27.6367 5.5984 27.736 5.58113 27.8051 5.54226C27.8742 5.5034 27.9217 5.44726 27.9476 5.36953C27.9778 5.29181 27.9907 5.19249 27.9907 5.07589C27.9907 4.95067 27.9691 4.85566 27.926 4.79089C27.8871 4.7218 27.8223 4.6743 27.7403 4.65271C27.6583 4.6268 27.5503 4.61384 27.4208 4.61384H27.2955V5.5984Z" fill="white"/>
<path d="M28.9641 7.66689V4.16913H29.6032V7.22643H30.4495V7.66689H28.9641Z" fill="white"/>
<path d="M30.6868 7.66683V4.16907H32.1549V4.61816H31.3258V5.62431H31.9778V6.06909H31.3258V7.22637H32.1635V7.66683H30.6868Z" fill="white"/>
<path d="M33.2122 7.66683L33.9117 4.16907H34.5939L35.2934 7.66683H34.7018L34.5637 6.85932H33.9548L33.8124 7.66683H33.2122ZM34.0196 6.45341H34.4946L34.2571 4.98521L34.0196 6.45341Z" fill="white"/>
<path d="M35.5458 7.66683V4.16907H35.9905L36.8412 6.16409V4.16907H37.3679V7.66683H36.9448L36.0898 5.57681V7.66683H35.5458Z" fill="white"/>
<path d="M37.8014 7.66689V4.16913H38.6261C38.9111 4.16913 39.1313 4.20799 39.2911 4.28572C39.4508 4.36345 39.5674 4.48436 39.6322 4.64413C39.7013 4.80391 39.7358 5.01118 39.7358 5.25732V6.53551C39.7358 6.79029 39.7013 7.00188 39.6322 7.17029C39.5674 7.3387 39.4552 7.46393 39.2954 7.54598C39.14 7.62803 38.9241 7.66689 38.652 7.66689H37.8014ZM38.4404 7.22211H38.6348C38.7816 7.22211 38.8852 7.1962 38.95 7.14438C39.0147 7.09257 39.0536 7.01916 39.0665 6.91984C39.0795 6.82052 39.0881 6.69529 39.0881 6.55279V5.21414C39.0881 5.07164 39.0795 4.95936 39.0579 4.873C39.0363 4.78663 38.9975 4.72186 38.9327 4.683C38.8679 4.64413 38.7686 4.62254 38.6261 4.62254H38.4404V7.22211Z" fill="white"/>
<path d="M12.9679 13.4307C12.7131 13.4307 12.5102 13.3789 12.3633 13.2795C12.2209 13.1802 12.1172 13.042 12.0611 12.8693C12.005 12.6923 11.9747 12.4936 11.9747 12.2648V11.0168C11.9747 10.7793 12.005 10.572 12.0611 10.395C12.1172 10.2179 12.2209 10.0841 12.3633 9.98906C12.5102 9.89406 12.7131 9.84656 12.9679 9.84656C13.2097 9.84656 13.3997 9.88974 13.5335 9.97179C13.6717 10.0538 13.771 10.1704 13.8271 10.3216C13.8833 10.4727 13.9135 10.6497 13.9135 10.8527V11.1463H13.3003V10.8441C13.3003 10.7447 13.296 10.6584 13.2831 10.5763C13.2744 10.4943 13.2485 10.4338 13.201 10.3863C13.1578 10.3388 13.0801 10.3129 12.9722 10.3129C12.8642 10.3129 12.7822 10.3388 12.7304 10.3907C12.6829 10.4382 12.6483 10.5072 12.6354 10.5936C12.6224 10.6757 12.6138 10.7707 12.6138 10.8786V12.3986C12.6138 12.5239 12.6224 12.6318 12.644 12.7139C12.6656 12.7959 12.7001 12.8564 12.752 12.8995C12.8081 12.9384 12.8815 12.96 12.9722 12.96C13.0801 12.96 13.1535 12.9341 13.1967 12.8866C13.2442 12.8348 13.2701 12.7657 13.2831 12.6836C13.296 12.6016 13.3003 12.5066 13.3003 12.4029V12.0877H13.9135V12.3684C13.9135 12.5757 13.8876 12.7614 13.8314 12.9211C13.7753 13.0809 13.6803 13.2061 13.5421 13.2968C13.4083 13.3875 13.214 13.4307 12.9679 13.4307Z" fill="white"/>
<path d="M14.2605 13.3836V9.88586H14.8996V12.9432H15.7459V13.3836H14.2605Z" fill="white"/>
<path d="M15.9805 13.3833V9.8855H17.4486V10.3346H16.6195V11.3407H17.2715V11.7855H16.6195V12.9428H17.4572V13.3833H15.9805Z" fill="white"/>
<path d="M17.5552 13.3833L18.2547 9.8855H18.9369L19.6364 13.3833H19.0449L18.9067 12.5758H18.2979L18.1554 13.3833H17.5552ZM18.3626 12.1698H18.8376L18.6001 10.7016L18.3626 12.1698Z" fill="white"/>
<path d="M19.8895 13.3833V9.8855H20.3343L21.1849 11.8805V9.8855H21.7117V13.3833H21.2885L20.4336 11.2932V13.3833H19.8895Z" fill="white"/>
<path d="M23.0969 13.3833V9.8855H24.565V10.3346H23.736V11.3407H24.388V11.7855H23.736V12.9428H24.5737V13.3833H23.0969Z" fill="white"/>
<path d="M24.8486 13.3833V9.8855H25.2934L26.144 11.8805V9.8855H26.6708V13.3833H26.2476L25.3927 11.2932V13.3833H24.8486Z" fill="white"/>
<path d="M27.1042 13.3833V9.8855H28.5723V10.3346H27.7433V11.3407H28.3953V11.7855H27.7433V12.9428H28.581V13.3833H27.1042Z" fill="white"/>
<path d="M28.8556 13.3833V9.8855H29.6933C29.9308 9.8855 30.1294 9.91573 30.2891 9.97186C30.4532 10.028 30.5785 10.123 30.6605 10.2569C30.7468 10.3907 30.79 10.5764 30.79 10.8096C30.79 10.9521 30.7771 11.0773 30.7512 11.1896C30.7253 11.3019 30.6821 11.3969 30.6173 11.4789C30.5569 11.5567 30.4705 11.6171 30.3626 11.6603L30.8505 13.3833H30.2114L29.7883 11.7812H29.4946V13.3833H28.8556ZM29.4946 11.3796H29.6933C29.8185 11.3796 29.9135 11.3623 29.9869 11.3278C30.0603 11.2889 30.1164 11.2328 30.1467 11.1551C30.1769 11.073 30.1942 10.9737 30.1942 10.8485C30.1942 10.6714 30.1596 10.5419 30.0948 10.4555C30.0301 10.3648 29.9092 10.3216 29.7278 10.3216H29.4946V11.3796Z" fill="white"/>
<path d="M32.0433 13.4307C31.8145 13.4307 31.6288 13.3832 31.495 13.2839C31.3611 13.1845 31.2618 13.0464 31.2013 12.8693C31.1452 12.6879 31.115 12.4764 31.115 12.2302V11.0557C31.115 10.8052 31.1452 10.5893 31.2013 10.4079C31.2575 10.2266 31.3611 10.0884 31.5036 9.99338C31.6504 9.89406 31.8534 9.84656 32.1081 9.84656C32.3456 9.84656 32.5356 9.88542 32.6781 9.96747C32.8206 10.0495 32.9199 10.1661 32.9803 10.3172C33.0451 10.4684 33.0753 10.6497 33.0753 10.8657V11.047H32.4665V10.8484C32.4665 10.7361 32.4579 10.6411 32.4406 10.5591C32.4276 10.477 32.3931 10.4166 32.3456 10.3777C32.2981 10.3345 32.2247 10.3129 32.1168 10.3129C32.0045 10.3129 31.9224 10.3388 31.8706 10.395C31.8231 10.4511 31.7886 10.5202 31.7756 10.6109C31.7627 10.7016 31.7584 10.7966 31.7584 10.9045V12.3684C31.7584 12.4893 31.767 12.5929 31.7886 12.6836C31.8102 12.7743 31.8447 12.8434 31.9009 12.8909C31.957 12.9384 32.0347 12.96 32.134 12.96C32.2377 12.96 32.3154 12.9341 32.3715 12.8823C32.4276 12.8304 32.4622 12.757 32.4838 12.6664C32.5054 12.5757 32.5183 12.4634 32.5183 12.3382V12.01H32.1427V11.6084H33.0926V13.3832H32.6824L32.6349 13.0377C32.5874 13.1543 32.5183 13.2493 32.4233 13.3227C32.3327 13.3961 32.2031 13.4307 32.0433 13.4307Z" fill="white"/>
<path d="M33.9202 13.3833V12.0489L33.212 9.8855H33.8079L34.2397 11.2716L34.6456 9.8855H35.2285L34.529 12.0489V13.3833H33.9202Z" fill="white"/>
<path d="M0.175735 0H48.1729V48H0.175735V0Z" fill="#2C9B48"/>
<path d="M4.55488 12.7623C4.17105 12.2805 3.97864 11.5984 3.97864 10.7174V10.4008H5.71875V10.706C5.72617 11.173 5.78256 11.5084 5.88792 11.7117C5.99377 11.915 6.18569 12.0164 6.46416 12.0164C6.74314 12.0164 6.92961 11.913 7.02359 11.7057C7.11807 11.499 7.16506 11.1616 7.16506 10.6947C7.16506 10.2049 7.09334 9.84136 6.95039 9.60442C6.80694 9.36698 6.5433 9.2448 6.15947 9.23688C6.13672 9.22946 6.03136 9.22551 5.84291 9.22551V7.94878H6.12534C6.51709 7.94878 6.78815 7.84342 6.93901 7.63269C7.08938 7.42147 7.16506 7.07521 7.16506 6.59292C7.16506 6.20114 7.11015 5.91127 7.00133 5.72281C6.89202 5.53483 6.69763 5.44035 6.41915 5.44035C6.15551 5.44035 5.97448 5.54176 5.87704 5.74556C5.7791 5.94887 5.72617 6.25011 5.71875 6.64931V7.05592H3.97864V6.55878C3.97864 5.7604 4.19133 5.14306 4.61721 4.70578C5.04259 4.26899 5.64307 4.05035 6.41915 4.05035C7.21007 4.05035 7.82044 4.26157 8.24979 4.68303C8.67913 5.10547 8.8938 5.71143 8.8938 6.50239C8.8938 7.0297 8.78448 7.47242 8.56586 7.83006C8.34723 8.1882 8.06875 8.41228 7.72993 8.50231C8.50551 8.78872 8.8938 9.50796 8.8938 10.6605C8.8938 11.542 8.69792 12.233 8.30617 12.7341C7.91443 13.2352 7.29317 13.4855 6.44191 13.4855C5.56789 13.4855 4.93921 13.2446 4.55488 12.7623Z" fill="white"/>
<path fill-rule="evenodd" clip-rule="evenodd" d="M40.3385 30.0258C40.3385 30.7045 40.0709 31.3193 39.6386 31.764L39.6411 31.7665L36.2657 35.149L32.8859 31.7625C32.4536 31.3178 32.1865 30.7035 32.1865 30.0253C32.1865 28.6679 33.1105 27.5678 34.4292 27.5678C35.0885 27.5678 35.831 28.2905 36.2628 28.7352C36.6951 28.291 37.4905 27.5688 38.1493 27.5688C39.468 27.5688 40.3385 28.6689 40.3385 30.0258ZM25.9487 40.6773C25.9373 40.6773 25.926 40.6768 25.9141 40.6763C25.6574 40.6605 25.4452 40.4701 25.4017 40.2163L23.6848 30.2167L21.084 35.0387C20.9702 35.2499 20.7323 35.3637 20.4984 35.3216C20.2624 35.2796 20.0804 35.0911 20.0463 34.8542L18.9423 27.137L16.9222 31.674C16.8331 31.8743 16.6343 32.0034 16.4152 32.0034H8.56438C8.25771 32.0034 8.0094 31.7546 8.0094 31.4484C8.0094 31.1417 8.25771 30.8934 8.56438 30.8934H16.0546L18.7118 24.9253C18.8122 24.6993 19.0501 24.5672 19.2954 24.6013C19.5403 24.6354 19.7332 24.8274 19.7683 25.0722L20.9064 33.0299L23.4711 28.2742C23.5834 28.0649 23.8159 27.9512 24.0498 27.9898C24.2833 28.0278 24.4668 28.2104 24.5069 28.4439L26.0966 37.7049L31.8912 18.4556C31.957 18.2365 32.1509 18.0802 32.3789 18.0624C32.6075 18.0456 32.8231 18.1682 32.9225 18.3745L35.9714 24.6958C36.1045 24.9718 35.9888 25.3037 35.7127 25.4368C35.4367 25.5699 35.1048 25.4541 34.9718 25.1781L32.5427 20.1419L26.4799 40.2821C26.4092 40.518 26.1921 40.6773 25.9487 40.6773Z" fill="white"/>
<path d="M13.6764 7.71511C13.4476 7.71511 13.2619 7.66761 13.128 7.56829C12.9942 7.46897 12.8949 7.33078 12.8344 7.15374C12.7783 6.97237 12.748 6.76078 12.748 6.51464V5.34008C12.748 5.08963 12.7783 4.87372 12.8344 4.69235C12.8905 4.51099 12.9942 4.3728 13.1367 4.2778C13.2835 4.17848 13.4864 4.13098 13.7412 4.13098C13.9787 4.13098 14.1687 4.16985 14.3111 4.25189C14.4536 4.33394 14.5529 4.45053 14.6134 4.60167C14.6782 4.75281 14.7084 4.93417 14.7084 5.15008V5.33145H14.0996V5.13281C14.0996 5.02054 14.0909 4.92553 14.0737 4.84349C14.0607 4.76144 14.0262 4.70099 13.9787 4.66212C13.9312 4.61894 13.8578 4.59735 13.7498 4.59735C13.6375 4.59735 13.5555 4.62326 13.5037 4.6794C13.4562 4.73553 13.4216 4.80462 13.4087 4.89531C13.3957 4.98599 13.3914 5.08099 13.3914 5.18895V6.65282C13.3914 6.77373 13.4001 6.87737 13.4216 6.96805C13.4432 7.05874 13.4778 7.12783 13.5339 7.17533C13.59 7.22283 13.6678 7.24442 13.7671 7.24442C13.8707 7.24442 13.9484 7.21851 14.0046 7.16669C14.0607 7.11487 14.0952 7.04146 14.1168 6.95078C14.1384 6.8601 14.1514 6.74782 14.1514 6.6226V6.29441H13.7757V5.89282H14.7257V7.66761H14.3155L14.268 7.32215C14.2205 7.43874 14.1514 7.53374 14.0564 7.60715C13.9657 7.68056 13.8362 7.71511 13.6764 7.71511Z" fill="white"/>
<path d="M16.1579 7.71511C15.9118 7.71511 15.7131 7.66761 15.5663 7.57692C15.4195 7.48624 15.3159 7.35238 15.2511 7.17965C15.1864 7.00692 15.1561 6.80396 15.1561 6.56646V5.25804C15.1561 5.02054 15.1864 4.8219 15.2511 4.65349C15.3159 4.48508 15.4195 4.35553 15.5663 4.26485C15.7131 4.17416 15.9118 4.13098 16.1579 4.13098C16.4126 4.13098 16.6113 4.17416 16.7538 4.26485C16.9006 4.35553 17.0042 4.48508 17.069 4.65349C17.1337 4.8219 17.1683 5.02054 17.1683 5.25804V6.57078C17.1683 6.80396 17.1337 7.00692 17.069 7.17965C17.0042 7.34806 16.9006 7.48192 16.7538 7.57692C16.6113 7.66761 16.4126 7.71511 16.1579 7.71511ZM16.1579 7.24442C16.2658 7.24442 16.3436 7.22283 16.3911 7.17533C16.4429 7.12783 16.4774 7.06737 16.4947 6.98533C16.512 6.90328 16.5206 6.81692 16.5206 6.72192V5.11122C16.5206 5.0119 16.512 4.92553 16.4947 4.84781C16.4774 4.77008 16.4429 4.70962 16.3911 4.66644C16.3436 4.61894 16.2658 4.59735 16.1579 4.59735C16.0586 4.59735 15.9809 4.61894 15.929 4.66644C15.8772 4.70962 15.8427 4.77008 15.8254 4.84781C15.8081 4.92553 15.7995 5.0119 15.7995 5.11122V6.72192C15.7995 6.81692 15.8081 6.90328 15.8211 6.98533C15.8384 7.06737 15.8729 7.12783 15.9247 7.17533C15.9765 7.22283 16.0543 7.24442 16.1579 7.24442Z" fill="white"/>
<path d="M18.5834 7.71511C18.3373 7.71511 18.1387 7.66761 17.9919 7.57692C17.8451 7.48624 17.7414 7.35238 17.6767 7.17965C17.6119 7.00692 17.5817 6.80396 17.5817 6.56646V5.25804C17.5817 5.02054 17.6119 4.8219 17.6767 4.65349C17.7414 4.48508 17.8451 4.35553 17.9919 4.26485C18.1387 4.17416 18.3373 4.13098 18.5834 4.13098C18.8382 4.13098 19.0368 4.17416 19.1793 4.26485C19.3261 4.35553 19.4297 4.48508 19.4945 4.65349C19.5593 4.8219 19.5938 5.02054 19.5938 5.25804V6.57078C19.5938 6.80396 19.5593 7.00692 19.4945 7.17965C19.4297 7.34806 19.3261 7.48192 19.1793 7.57692C19.0368 7.66761 18.8382 7.71511 18.5834 7.71511ZM18.5834 7.24442C18.6914 7.24442 18.7691 7.22283 18.8166 7.17533C18.8684 7.12783 18.903 7.06737 18.9202 6.98533C18.9375 6.90328 18.9461 6.81692 18.9461 6.72192V5.11122C18.9461 5.0119 18.9375 4.92553 18.9202 4.84781C18.903 4.77008 18.8684 4.70962 18.8166 4.66644C18.7691 4.61894 18.6914 4.59735 18.5834 4.59735C18.4841 4.59735 18.4064 4.61894 18.3546 4.66644C18.3028 4.70962 18.2682 4.77008 18.2509 4.84781C18.2337 4.92553 18.225 5.0119 18.225 5.11122V6.72192C18.225 6.81692 18.2337 6.90328 18.2466 6.98533C18.2639 7.06737 18.2984 7.12783 18.3503 7.17533C18.4021 7.22283 18.4798 7.24442 18.5834 7.24442Z" fill="white"/>
<path d="M20.0587 7.66768V4.16992H20.8834C21.1684 4.16992 21.3886 4.20879 21.5484 4.28651C21.7082 4.36424 21.8248 4.48515 21.8895 4.64493C21.9586 4.8047 21.9932 5.01198 21.9932 5.25811V6.53631C21.9932 6.79108 21.9586 7.00268 21.8895 7.17109C21.8248 7.3395 21.7125 7.46473 21.5527 7.54677C21.3973 7.62882 21.1814 7.66768 20.9094 7.66768H20.0587ZM20.6978 7.22291H20.8921C21.0389 7.22291 21.1425 7.197 21.2073 7.14518C21.2721 7.09336 21.3109 7.01995 21.3239 6.92063C21.3368 6.82131 21.3455 6.69608 21.3455 6.55358V5.21493C21.3455 5.07243 21.3368 4.96016 21.3152 4.87379C21.2936 4.78743 21.2548 4.72265 21.19 4.68379C21.1252 4.64493 21.0259 4.62334 20.8834 4.62334H20.6978V7.22291Z" fill="white"/>
<path d="M23.5105 7.66768V4.16992H24.1452V5.6338H24.862V4.16992H25.4968V7.66768H24.862V6.08721H24.1452V7.66768H23.5105Z" fill="white"/>
<path d="M26.0267 7.66762V4.16986H27.4948V4.61896H26.6658V5.6251H27.3178V6.06988H26.6658V7.22716H27.5035V7.66762H26.0267Z" fill="white"/>
<path d="M27.692 7.66768L28.3915 4.16992H29.0738L29.7733 7.66768H29.1817L29.0435 6.86017H28.4347L28.2922 7.66768H27.692ZM28.4995 6.45426H28.9744L28.737 4.98607L28.4995 6.45426Z" fill="white"/>
<path d="M30.1171 7.66762V4.16986H30.7561V7.22716H31.6024V7.66762H30.1171Z" fill="white"/>
<path d="M31.9425 7.66768V4.64061H31.3855V4.16992H33.1299V4.64061H32.5816V7.66768H31.9425Z" fill="white"/>
<path d="M33.4524 7.66768V4.16992H34.0871V5.6338H34.8039V4.16992H35.4386V7.66768H34.8039V6.08721H34.0871V7.66768H33.4524Z" fill="white"/>
<path d="M12.6228 13.3839L13.3223 9.88611H14.0045L14.7041 13.3839H14.1125L13.9743 12.5764H13.3655L13.223 13.3839H12.6228ZM13.4303 12.1704H13.9052L13.6677 10.7023L13.4303 12.1704Z" fill="white"/>
<path d="M15.0481 13.3839V9.88611H15.4928L16.3435 11.8811V9.88611H16.8703V13.3839H16.4471L15.5922 11.2938V13.3839H15.0481Z" fill="white"/>
<path d="M17.3959 13.3839V9.88611H18.2206C18.5056 9.88611 18.7258 9.92497 18.8856 10.0027C19.0453 10.0804 19.1619 10.2013 19.2267 10.3611C19.2958 10.5209 19.3303 10.7282 19.3303 10.9743V12.2525C19.3303 12.5073 19.2958 12.7189 19.2267 12.8873C19.1619 13.0557 19.0496 13.1809 18.8899 13.263C18.7344 13.345 18.5185 13.3839 18.2465 13.3839H17.3959ZM18.0349 12.9391H18.2292C18.376 12.9391 18.4797 12.9132 18.5444 12.8614C18.6092 12.8095 18.6481 12.7361 18.661 12.6368C18.674 12.5375 18.6826 12.4123 18.6826 12.2698V10.9311C18.6826 10.7886 18.674 10.6763 18.6524 10.59C18.6308 10.5036 18.5919 10.4388 18.5272 10.4C18.4624 10.3611 18.3631 10.3395 18.2206 10.3395H18.0349V12.9391Z" fill="white"/>
<path d="M21.2059 13.3839L20.7094 9.88611H21.2448L21.5341 12.1532L21.8968 9.89474H22.3329L22.7042 12.1532L22.9892 9.88611H23.516L23.0281 13.3839H22.5099L22.1213 11.0391L21.737 13.3839H21.2059Z" fill="white"/>
<path d="M23.9077 13.3839V9.88611H25.3758V10.3352H24.5468V11.3413H25.1988V11.7861H24.5468V12.9434H25.3845V13.3839H23.9077Z" fill="white"/>
<path d="M25.7502 13.3839V9.88611H26.3893V12.9434H27.2356V13.3839H25.7502Z" fill="white"/>
<path d="M27.5624 13.3839V9.88611H28.2014V12.9434H29.0478V13.3839H27.5624Z" fill="white"/>
<path d="M30.2382 11.92H29.1932V12.3216H30.2382V11.92Z" fill="white"/>
<path d="M30.6514 13.3839V9.88611H31.5106C31.6661 9.88611 31.8043 9.89906 31.9295 9.92929C32.0547 9.95952 32.1626 10.007 32.2533 10.0761C32.344 10.1409 32.4174 10.2316 32.4649 10.3482C32.5124 10.4648 32.5383 10.6073 32.5383 10.7843C32.5383 10.9268 32.5167 11.0477 32.4779 11.147C32.439 11.2463 32.3829 11.3284 32.3095 11.3888C32.2361 11.445 32.1411 11.4839 32.0288 11.5054C32.167 11.527 32.2792 11.5789 32.3699 11.6523C32.4606 11.7257 32.5297 11.8207 32.5729 11.9373C32.6203 12.0539 32.6419 12.1964 32.6419 12.3648C32.6419 12.5332 32.6203 12.68 32.5772 12.8095C32.5383 12.9348 32.4735 13.0427 32.3915 13.1291C32.3095 13.2111 32.2101 13.2759 32.0849 13.3191C31.964 13.3623 31.8215 13.3839 31.6574 13.3839H30.6514ZM31.2904 12.9348H31.5322C31.7265 12.9348 31.8561 12.8873 31.9252 12.7966C31.9942 12.7016 32.0288 12.5548 32.0288 12.3605C32.0288 12.2179 32.0115 12.1057 31.977 12.0193C31.9468 11.9286 31.8906 11.8639 31.8129 11.8207C31.7395 11.7775 31.6359 11.7559 31.5106 11.7559H31.2904V12.9348ZM31.2904 11.3154H31.5063C31.6315 11.3154 31.7309 11.2982 31.7999 11.2593C31.869 11.2204 31.9165 11.1643 31.9424 11.0866C31.9727 11.0088 31.9856 10.9095 31.9856 10.7929C31.9856 10.6677 31.964 10.5727 31.9208 10.5079C31.882 10.4388 31.8172 10.3913 31.7352 10.3697C31.6531 10.3438 31.5452 10.3309 31.4156 10.3309H31.2904V11.3154Z" fill="white"/>
<path d="M33.0509 13.3839V9.88611H34.519V10.3352H33.69V11.3413H34.342V11.7861H33.69V12.9434H34.5276V13.3839H33.0509Z" fill="white"/>
<path d="M35.5411 9.88611H34.9106V13.3839H35.5411V9.88611Z" fill="white"/>
<path d="M36.0752 13.3839V9.88611H36.5199L37.3706 11.8811V9.88611H37.8974V13.3839H37.4742L36.6193 11.2938V13.3839H36.0752Z" fill="white"/>
<path d="M39.2993 13.4314C39.0705 13.4314 38.8848 13.3839 38.751 13.2845C38.6171 13.1852 38.5178 13.047 38.4573 12.87C38.4012 12.6886 38.371 12.477 38.371 12.2309V11.0563C38.371 10.8059 38.4012 10.59 38.4573 10.4086C38.5135 10.2272 38.6171 10.089 38.7596 9.99405C38.9064 9.89473 39.1093 9.84723 39.3641 9.84723C39.6016 9.84723 39.7916 9.88609 39.9341 9.96814C40.0766 10.0502 40.1759 10.1668 40.2363 10.3179C40.3011 10.4691 40.3313 10.6504 40.3313 10.8663V11.0477H39.7225V10.8491C39.7225 10.7368 39.7139 10.6418 39.6966 10.5597C39.6836 10.4777 39.6491 10.4172 39.6016 10.3784C39.5541 10.3352 39.4807 10.3136 39.3727 10.3136C39.2605 10.3136 39.1784 10.3395 39.1266 10.3956C39.0791 10.4518 39.0446 10.5209 39.0316 10.6116C39.0187 10.7022 39.0143 10.7972 39.0143 10.9052V12.3691C39.0143 12.49 39.023 12.5936 39.0446 12.6843C39.0662 12.775 39.1007 12.8441 39.1568 12.8916C39.213 12.9391 39.2907 12.9607 39.39 12.9607C39.4936 12.9607 39.5714 12.9348 39.6275 12.8829C39.6836 12.8311 39.7182 12.7577 39.7398 12.667C39.7613 12.5763 39.7743 12.4641 39.7743 12.3388V12.0107H39.3986V11.6091H40.3486V13.3839H39.9384L39.8909 13.0384C39.8434 13.155 39.7743 13.25 39.6793 13.3234C39.5886 13.3968 39.4591 13.4314 39.2993 13.4314Z" fill="white"/>
</svg>
