<svg width="48" height="48" viewBox="0 0 48 48" fill="none" xmlns="http://www.w3.org/2000/svg">
<path d="M-4.57764e-05 0H47.9971V48H-4.57764e-05V0Z" fill="#00ADD8"/>
<path d="M4.46784 12.6379C4.06472 12.0958 3.8634 11.3651 3.8634 10.4461V7.19168C3.8634 6.19741 4.04444 5.42722 4.40601 4.88111C4.7671 4.33451 5.40369 4.06195 6.31529 4.06195C7.12896 4.06195 7.71609 4.25388 8.07767 4.63774C8.43924 5.02209 8.62374 5.60233 8.63116 6.37796L8.64254 6.53625H6.98206C6.98206 6.1143 6.94051 5.81849 6.85741 5.64932C6.77431 5.47965 6.60119 5.39506 6.33805 5.39506C6.14959 5.39506 6.00467 5.45146 5.90277 5.56473C5.80088 5.67752 5.72965 5.86598 5.6881 6.12964C5.64655 6.39329 5.62578 6.76627 5.62578 7.24807V8.17457C5.72371 8.00886 5.882 7.87926 6.10062 7.78478C6.31876 7.69079 6.56756 7.6438 6.84603 7.6438C7.52418 7.6438 8.01584 7.87926 8.32053 8.34968C8.62572 8.8206 8.77807 9.46267 8.77807 10.2764C8.77807 11.286 8.58961 12.0676 8.21369 12.6211C7.83678 13.1746 7.20761 13.4516 6.32667 13.4516C5.49025 13.4516 4.87047 13.1805 4.46784 12.6379ZM6.88561 11.7737C6.98008 11.5215 7.02707 11.1203 7.02707 10.5702C7.02707 10.1859 7.01569 9.88857 6.99294 9.67735C6.97068 9.46662 6.90836 9.29745 6.80646 9.16884C6.70506 9.04122 6.54876 8.97691 6.33805 8.97691C6.17976 8.97691 6.0383 9.01846 5.91415 9.10156C5.79 9.18417 5.69354 9.28212 5.62578 9.3949V10.8527C5.62578 11.7188 5.86666 12.1521 6.34893 12.1521C6.61257 12.1521 6.79163 12.026 6.88561 11.7737Z" fill="white"/>
<path d="M32.9064 19.3875C32.8653 19.343 32.8104 19.3182 32.7481 19.3182H15.2554C15.1946 19.3182 15.1392 19.343 15.0982 19.3875C15.0596 19.4365 15.0447 19.4968 15.0541 19.5532L17.9932 37.3289C18.0096 37.4273 18.0956 37.5005 18.195 37.5005H21.8019L22.0487 40.3953L20.5307 40.3973L24.0624 43.9291L27.6029 40.3893L26.0854 40.3908L26.3317 37.5005H30.0024C30.1033 37.5005 30.1879 37.4273 30.2032 37.3259L32.9529 19.5532C32.9623 19.4919 32.944 19.4335 32.9064 19.3875ZM26.1458 33.6184C26.1458 33.6184 25.3509 34.4351 24.0584 34.3466C22.7625 34.4351 21.9686 33.6184 21.9686 33.6184C20.6583 32.309 21.1257 30.6801 21.5818 29.8382C21.8637 29.3109 23.8769 26.287 24.05 26.0298V26.0095C24.05 26.0095 24.0535 26.0135 24.0584 26.0189L24.0653 26.0095V26.0298C24.2335 26.287 26.2506 29.3109 26.5321 29.8382C26.9891 30.6801 27.455 32.309 26.1458 33.6184ZM31.6945 23.1276C31.2207 22.9189 30.6197 22.9941 30.0425 23.2275C27.872 24.1076 26.3951 24.4241 24.1118 23.7089C22.6744 23.2592 21.329 22.3164 19.7393 22.8907C18.6842 23.2701 17.7009 23.6322 16.5079 23.6228L15.8188 20.0899H32.1902L31.6945 23.1276Z" fill="white"/>
<path d="M13.57 7.71511C13.3153 7.71511 13.1123 7.66329 12.9655 7.56397C12.823 7.46465 12.7194 7.32647 12.6633 7.15374C12.6071 6.97669 12.5769 6.77805 12.5769 6.54919V5.30122C12.5769 5.06372 12.6071 4.85644 12.6633 4.6794C12.7194 4.50235 12.823 4.36848 12.9655 4.27348C13.1123 4.17848 13.3153 4.13098 13.57 4.13098C13.8118 4.13098 14.0018 4.17416 14.1357 4.25621C14.2739 4.33826 14.3732 4.45485 14.4293 4.60599C14.4854 4.75712 14.5157 4.93417 14.5157 5.13713V5.43077H13.9025V5.12849C13.9025 5.02917 13.8982 4.94281 13.8852 4.86076C13.8766 4.77871 13.8507 4.71826 13.8032 4.67076C13.76 4.62326 13.6823 4.59735 13.5743 4.59735C13.4664 4.59735 13.3844 4.62326 13.3325 4.67508C13.285 4.72258 13.2505 4.79167 13.2375 4.87803C13.2246 4.96008 13.216 5.05508 13.216 5.16304V6.68305C13.216 6.80828 13.2246 6.91624 13.2462 6.99828C13.2678 7.08033 13.3023 7.14078 13.3541 7.18396C13.4103 7.22283 13.4837 7.24442 13.5743 7.24442C13.6823 7.24442 13.7557 7.21851 13.7989 7.17101C13.8464 7.11919 13.8723 7.0501 13.8852 6.96805C13.8982 6.88601 13.9025 6.79101 13.9025 6.68737V6.37214H14.5157V6.65282C14.5157 6.8601 14.4898 7.04578 14.4336 7.20556C14.3775 7.36533 14.2825 7.49056 14.1443 7.58124C14.0105 7.67192 13.8162 7.71511 13.57 7.71511Z" fill="white"/>
<path d="M14.9386 7.66768V4.16992H15.5777V7.22722H16.424V7.66768H14.9386Z" fill="white"/>
<path d="M16.7349 7.66762V4.16986H18.203V4.61896H17.3739V5.6251H18.0259V6.06988H17.3739V7.22716H18.2116V7.66762H16.7349Z" fill="white"/>
<path d="M18.3843 7.66768L19.0838 4.16992H19.766L20.4655 7.66768H19.874L19.7358 6.86017H19.127L18.9845 7.66768H18.3843ZM19.1917 6.45426H19.6667L19.4292 4.98607L19.1917 6.45426Z" fill="white"/>
<path d="M20.7937 7.66768V4.16992H21.2384L22.0891 6.16494V4.16992H22.6159V7.66768H22.1927L21.3378 5.57766V7.66768H20.7937Z" fill="white"/>
<path d="M24.5202 7.66768L24.0237 4.16992H24.5591L24.8484 6.43699L25.2111 4.17856H25.6472L26.0186 6.43699L26.3036 4.16992H26.8303L26.3424 7.66768H25.8243L25.4356 5.32289L25.0514 7.66768H24.5202Z" fill="white"/>
<path d="M26.9122 7.66768L27.6117 4.16992H28.294L28.9935 7.66768H28.4019L28.2637 6.86017H27.6549L27.5124 7.66768H26.9122ZM27.7197 6.45426H28.1947L27.9572 4.98607L27.7197 6.45426Z" fill="white"/>
<path d="M29.4945 7.66762V4.64055H28.9375V4.16986H30.6819V4.64055H30.1336V7.66762H29.4945Z" fill="white"/>
<path d="M30.98 7.66762V4.16986H32.4481V4.61896H31.619V5.6251H32.271V6.06988H31.619V7.22716H32.4567V7.66762H30.98Z" fill="white"/>
<path d="M32.8064 7.66768V4.16992H33.6441C33.8816 4.16992 34.0802 4.20015 34.24 4.25629C34.404 4.31242 34.5293 4.40742 34.6113 4.54129C34.6977 4.67515 34.7408 4.86084 34.7408 5.09402C34.7408 5.23652 34.7279 5.36175 34.702 5.47403C34.6761 5.5863 34.6329 5.6813 34.5681 5.76335C34.5077 5.84107 34.4213 5.90153 34.3134 5.94471L34.8013 7.66768H34.1622L33.7391 6.06562H33.4455V7.66768H32.8064ZM33.4455 5.66403H33.6441C33.7693 5.66403 33.8643 5.64675 33.9377 5.61221C34.0111 5.57334 34.0672 5.51721 34.0975 5.43948C34.1277 5.35743 34.145 5.25811 34.145 5.13289C34.145 4.95584 34.1104 4.82629 34.0456 4.73993C33.9809 4.64924 33.86 4.60606 33.6786 4.60606H33.4455V5.66403Z" fill="white"/>
<path d="M12.4519 13.3839L13.1514 9.88617H13.8336L14.5332 13.3839H13.9416L13.8034 12.5764H13.1946L13.0521 13.3839H12.4519ZM13.2594 12.1705H13.7343L13.4968 10.7023L13.2594 12.1705Z" fill="white"/>
<path d="M14.8696 13.3839V9.88611H15.3144L16.165 11.8811V9.88611H16.6918V13.3839H16.2686L15.4137 11.2938V13.3839H14.8696Z" fill="white"/>
<path d="M17.2098 13.3839V9.88611H18.0346C18.3196 9.88611 18.5398 9.92497 18.6995 10.0027C18.8593 10.0804 18.9759 10.2013 19.0406 10.3611C19.1097 10.5209 19.1443 10.7282 19.1443 10.9743V12.2525C19.1443 12.5073 19.1097 12.7189 19.0406 12.8873C18.9759 13.0557 18.8636 13.1809 18.7038 13.263C18.5484 13.345 18.3325 13.3839 18.0605 13.3839H17.2098ZM17.8489 12.9391H18.0432C18.19 12.9391 18.2936 12.9132 18.3584 12.8614C18.4232 12.8095 18.462 12.7361 18.475 12.6368C18.488 12.5375 18.4966 12.4123 18.4966 12.2698V10.9311C18.4966 10.7886 18.488 10.6763 18.4664 10.59C18.4448 10.5036 18.4059 10.4388 18.3411 10.4C18.2764 10.3611 18.1771 10.3395 18.0346 10.3395H17.8489V12.9391Z" fill="white"/>
<path d="M21.5192 13.4314C21.3076 13.4314 21.1349 13.3925 20.9924 13.3104C20.8499 13.2284 20.7463 13.1075 20.6729 12.9477C20.5995 12.7879 20.5606 12.5936 20.552 12.3648L21.1004 12.2568C21.1047 12.3907 21.122 12.5116 21.1479 12.6152C21.1781 12.7188 21.217 12.8009 21.2731 12.857C21.3292 12.9132 21.407 12.9391 21.4976 12.9391C21.6013 12.9391 21.6747 12.9088 21.7178 12.8484C21.761 12.7836 21.7826 12.7059 21.7826 12.6109C21.7826 12.4598 21.7481 12.3345 21.679 12.2352C21.6099 12.1359 21.5192 12.0409 21.4026 11.9416L20.9622 11.5529C20.837 11.445 20.7377 11.3284 20.6643 11.1988C20.5909 11.065 20.5563 10.9052 20.5563 10.7109C20.5563 10.4345 20.6384 10.2229 20.7981 10.0718C20.9579 9.92064 21.1781 9.84723 21.4588 9.84723C21.6229 9.84723 21.761 9.87314 21.869 9.92496C21.9769 9.97246 22.0633 10.0415 22.1281 10.1322C22.1928 10.2229 22.2446 10.3222 22.2749 10.4388C22.3051 10.5511 22.3267 10.672 22.3353 10.7972L21.7913 10.8922C21.7869 10.7843 21.774 10.685 21.7524 10.5986C21.7351 10.5122 21.7006 10.4431 21.6531 10.3956C21.6056 10.3481 21.5365 10.3222 21.4458 10.3222C21.3508 10.3222 21.2774 10.3525 21.2256 10.4172C21.1781 10.4777 21.1522 10.5554 21.1522 10.6461C21.1522 10.7627 21.1781 10.862 21.2256 10.9397C21.2731 11.0131 21.3465 11.0909 21.4372 11.1729L21.8733 11.5572C22.0158 11.6782 22.141 11.8207 22.2403 11.9847C22.3439 12.1445 22.3958 12.3432 22.3958 12.572C22.3958 12.7404 22.3569 12.8873 22.2835 13.0168C22.2101 13.1464 22.1108 13.25 21.9769 13.3234C21.8474 13.3968 21.6963 13.4314 21.5192 13.4314Z" fill="white"/>
<path d="M22.5684 13.3839L23.2679 9.88611H23.9501L24.6496 13.3839H24.058L23.9199 12.5764H23.311L23.1686 13.3839H22.5684ZM23.3758 12.1704H23.8508L23.6133 10.7023L23.3758 12.1704Z" fill="white"/>
<path d="M24.9867 13.3839V9.88611H25.4314L26.2821 11.8811V9.88611H26.8089V13.3839H26.3857L25.5308 11.2938V13.3839H24.9867Z" fill="white"/>
<path d="M27.9745 9.88611H27.3441V13.3839H27.9745V9.88611Z" fill="white"/>
<path d="M28.8511 13.3839V10.3568H28.2941V9.88611H30.0385V10.3568H29.4901V13.3839H28.8511Z" fill="white"/>
<path d="M29.9911 13.3839L30.6906 9.88611H31.3728L32.0723 13.3839H31.4808L31.3426 12.5764H30.7338L30.5913 13.3839H29.9911ZM30.7985 12.1704H31.2735L31.036 10.7023L30.7985 12.1704Z" fill="white"/>
<path d="M32.5818 13.3839V10.3568H32.0248V9.88611H33.7692V10.3568H33.2209V13.3839H32.5818Z" fill="white"/>
<path d="M34.7234 9.88611H34.093V13.3839H34.7234V9.88611Z" fill="white"/>
<path d="M36.2004 13.4314C35.9542 13.4314 35.7556 13.3839 35.6088 13.2932C35.462 13.2025 35.3584 13.0686 35.2936 12.8959C35.2288 12.7232 35.1986 12.5202 35.1986 12.2827V10.9743C35.1986 10.7368 35.2288 10.5381 35.2936 10.3697C35.3584 10.2013 35.462 10.0718 35.6088 9.98109C35.7556 9.89041 35.9542 9.84723 36.2004 9.84723C36.4551 9.84723 36.6538 9.89041 36.7962 9.98109C36.9431 10.0718 37.0467 10.2013 37.1115 10.3697C37.1762 10.5381 37.2108 10.7368 37.2108 10.9743V12.287C37.2108 12.5202 37.1762 12.7232 37.1115 12.8959C37.0467 13.0643 36.9431 13.1982 36.7962 13.2932C36.6538 13.3839 36.4551 13.4314 36.2004 13.4314ZM36.2004 12.9607C36.3083 12.9607 36.386 12.9391 36.4335 12.8916C36.4854 12.8441 36.5199 12.7836 36.5372 12.7016C36.5544 12.6195 36.5631 12.5332 36.5631 12.4382V10.8275C36.5631 10.7281 36.5544 10.6418 36.5372 10.5641C36.5199 10.4863 36.4854 10.4259 36.4335 10.3827C36.386 10.3352 36.3083 10.3136 36.2004 10.3136C36.1011 10.3136 36.0233 10.3352 35.9715 10.3827C35.9197 10.4259 35.8852 10.4863 35.8679 10.5641C35.8506 10.6418 35.842 10.7281 35.842 10.8275V12.4382C35.842 12.5332 35.8506 12.6195 35.8636 12.7016C35.8808 12.7836 35.9154 12.8441 35.9672 12.8916C36.019 12.9391 36.0967 12.9607 36.2004 12.9607Z" fill="white"/>
<path d="M37.6685 13.3839V9.88611H38.1132L38.9638 11.8811V9.88611H39.4906V13.3839H39.0675L38.2125 11.2938V13.3839H37.6685Z" fill="white"/>
</svg>
