<svg width="48" height="48" viewBox="0 0 48 48" fill="none" xmlns="http://www.w3.org/2000/svg">
<path d="M-4.57764e-05 0H47.9971V48H-4.57764e-05V0Z" fill="#F99D25"/>
<path d="M4.18225 5.98298C4.09915 6.02799 3.85827 6.12247 3.4591 6.26543C3.14254 6.37129 2.9432 6.44252 2.8606 6.48011V5.18063C3.11632 5.08269 3.42695 4.93231 3.79248 4.72901C4.15752 4.52521 4.41572 4.3407 4.56658 4.17499H5.93374V13.3277H4.18225V5.98298Z" fill="white"/>
<path d="M8.01221 5.98298C7.92911 6.02799 7.68822 6.12247 7.28906 6.26543C6.97249 6.37129 6.77316 6.44252 6.69055 6.48011V5.18063C6.94628 5.08269 7.25691 4.93231 7.62244 4.72901C7.98748 4.52521 8.24567 4.3407 8.39654 4.17499H9.7637V13.3277H8.01221V5.98298Z" fill="white"/>
<path fill-rule="evenodd" clip-rule="evenodd" d="M7.84296 36.6004C7.74453 36.6004 7.66489 36.5203 7.66489 36.4219C7.66489 36.3853 7.67577 36.3506 7.69506 36.3224L7.74947 36.2562L11.2698 31.6365L11.3034 31.5984L11.3252 31.5732C11.3573 31.546 11.3974 31.5277 11.4419 31.5277C11.4943 31.5277 11.5408 31.5499 11.5735 31.5856L11.6086 31.6241L15.2169 36.2933L15.2268 36.3036C15.2555 36.3353 15.2738 36.3764 15.2738 36.4219C15.2738 36.5203 15.1937 36.6004 15.0957 36.6004H7.84296ZM15.074 37.2588C15.1719 37.2588 15.2516 37.3385 15.2516 37.4369V43.1245C15.2516 43.2225 15.1719 43.3026 15.074 43.3026H12.673V39.7247C12.673 39.6258 12.5934 39.5466 12.495 39.5466H10.3235C10.2251 39.5466 10.146 39.6258 10.146 39.7247V43.3026H7.80685C7.70842 43.3026 7.62878 43.2225 7.62878 43.1245V37.4369C7.62878 37.3385 7.70842 37.2588 7.80685 37.2588H15.074ZM40.1909 35.7699C40.2888 35.7699 40.367 35.8451 40.367 35.9406V43.2042C40.367 43.2987 40.2888 43.3753 40.1909 43.3753H32.998C32.901 43.3753 32.8224 43.2987 32.8224 43.2042V35.9406C32.8224 35.8451 32.901 35.7699 32.998 35.7699H40.1909ZM39.5395 38.0978V36.7909C39.5395 36.6969 39.4613 36.6202 39.3634 36.6202H37.2152C37.1173 36.6202 37.0391 36.6969 37.0391 36.7909V38.0978C37.0391 38.1928 37.1173 38.2694 37.2152 38.2694H39.3634C39.4613 38.2694 39.5395 38.1928 39.5395 38.0978ZM36.2551 38.0978V36.7909C36.2551 36.6969 36.177 36.6202 36.0795 36.6202H33.9308C33.8329 36.6202 33.7543 36.6969 33.7543 36.7909V38.0978C33.7543 38.1928 33.8329 38.2694 33.9308 38.2694H36.0795C36.177 38.2694 36.2551 38.1928 36.2551 38.0978ZM39.5395 40.5117V39.2058C39.5395 39.1104 39.4613 39.0342 39.3634 39.0342H37.2152C37.1173 39.0342 37.0391 39.1104 37.0391 39.2058V40.5117C37.0391 40.6072 37.1173 40.6834 37.2152 40.6834H39.3634C39.4613 40.6834 39.5395 40.6072 39.5395 40.5117ZM36.2551 40.5117V39.2058C36.2551 39.1104 36.177 39.0342 36.0795 39.0342H33.9308C33.8329 39.0342 33.7543 39.1104 33.7543 39.2058V40.5117C33.7543 40.6072 33.8329 40.6834 33.9308 40.6834H36.0795C36.177 40.6834 36.2551 40.6072 36.2551 40.5117ZM23.4704 18.9099C23.5648 18.9099 23.6435 18.9865 23.6435 19.0825V43.1404C23.6435 43.2353 23.5648 43.3125 23.4704 43.3125H16.4313C16.3373 43.3125 16.2591 43.2353 16.2591 43.1404V19.0825C16.2591 18.9865 16.3373 18.9099 16.4313 18.9099H23.4704ZM19.2833 32.3221V30.525C19.2833 30.4741 19.2418 30.4325 19.1908 30.4325H17.5788C17.5279 30.4325 17.4863 30.4741 17.4863 30.525V32.3221C17.4863 32.3726 17.5279 32.4141 17.5788 32.4141H19.1908C19.2418 32.4141 19.2833 32.3726 19.2833 32.3221ZM22.444 24.0721V22.2755C22.444 22.2241 22.4025 22.183 22.351 22.183H20.7395C20.6881 22.183 20.647 22.2241 20.647 22.2755V24.0721C20.647 24.1226 20.6881 24.1641 20.7395 24.1641H22.351C22.4025 24.1641 22.444 24.1226 22.444 24.0721ZM19.2833 40.5716V38.7755C19.2833 38.7245 19.2418 38.6835 19.1908 38.6835H17.5788C17.5279 38.6835 17.4863 38.7245 17.4863 38.7755V40.5716C17.4863 40.6225 17.5279 40.6641 17.5788 40.6641H19.1908C19.2418 40.6641 19.2833 40.6225 19.2833 40.5716ZM22.444 32.3221V30.525C22.444 30.4741 22.4025 30.4325 22.351 30.4325H20.7395C20.6881 30.4325 20.647 30.4741 20.647 30.525V32.3221C20.647 32.3726 20.6881 32.4141 20.7395 32.4141H22.351C22.4025 32.4141 22.444 32.3726 22.444 32.3221ZM22.444 28.1961V26.3995C22.444 26.3486 22.4025 26.3085 22.351 26.3085H20.7395C20.6881 26.3085 20.647 26.3486 20.647 26.3995V28.1961C20.647 28.2476 20.6881 28.2886 20.7395 28.2886H22.351C22.4025 28.2886 22.444 28.2476 22.444 28.1961ZM19.2833 36.4461V34.6505C19.2833 34.5985 19.2418 34.558 19.1908 34.558H17.5788C17.5279 34.558 17.4863 34.5985 17.4863 34.6505V36.4461C17.4863 36.498 17.5279 36.5386 17.5788 36.5386H19.1908C19.2418 36.5386 19.2833 36.498 19.2833 36.4461ZM22.444 36.4461V34.6505C22.444 34.5985 22.4025 34.558 22.351 34.558H20.7395C20.6881 34.558 20.647 34.5985 20.647 34.6505V36.4461C20.647 36.498 20.6881 36.5386 20.7395 36.5386H22.351C22.4025 36.5386 22.444 36.498 22.444 36.4461ZM19.2833 24.0721V22.2755C19.2833 22.2241 19.2418 22.183 19.1908 22.183H17.5788C17.5279 22.183 17.4863 22.2241 17.4863 22.2755V24.0721C17.4863 24.1226 17.5279 24.1641 17.5788 24.1641H19.1908C19.2418 24.1641 19.2833 24.1226 19.2833 24.0721ZM22.444 40.5716V38.7755C22.444 38.7245 22.4025 38.6835 22.351 38.6835H20.7395C20.6881 38.6835 20.647 38.7245 20.647 38.7755V40.5716C20.647 40.6225 20.6881 40.6641 20.7395 40.6641H22.351C22.4025 40.6641 22.444 40.6225 22.444 40.5716ZM19.2833 28.1961V26.3995C19.2833 26.3486 19.2418 26.3085 19.1908 26.3085H17.5788C17.5279 26.3085 17.4863 26.3486 17.4863 26.3995V28.1961C17.4863 28.2476 17.5279 28.2886 17.5788 28.2886H19.1908C19.2418 28.2886 19.2833 28.2476 19.2833 28.1961ZM40.3586 35.0388C40.3586 35.1194 40.2943 35.1837 40.2141 35.1837H32.9742C32.8946 35.1837 32.8298 35.1194 32.8298 35.0388V33.5909C32.8298 33.5113 32.8946 33.4465 32.9742 33.4465H40.2141C40.2943 33.4465 40.3586 33.5113 40.3586 33.5909V35.0388ZM31.9726 23.4528C31.9825 23.4746 31.9894 23.4993 31.9894 23.525V43.1765C31.9894 43.2714 31.9127 43.3481 31.8173 43.3481H24.7851C24.6896 43.3481 24.6125 43.2714 24.6125 43.1765V32.3914C24.614 32.3374 24.6367 32.29 24.6723 32.2543L24.7045 32.2118L31.6224 23.4355L31.6822 23.3603C31.6862 23.3569 31.6907 23.3544 31.6951 23.3514C31.7248 23.3321 31.7579 23.3183 31.796 23.3183C31.8806 23.3183 31.9493 23.3757 31.9726 23.4528ZM31.1723 38.0844V36.7711C31.1723 36.6751 31.0946 36.599 31.0001 36.599H28.9029C28.8069 36.599 28.7298 36.6751 28.7298 36.7711V38.0844C28.7298 38.1799 28.8069 38.2566 28.9029 38.2566H31.0001C31.0946 38.2566 31.1723 38.1799 31.1723 38.0844ZM31.1723 35.6576V34.3438C31.1723 34.2483 31.0946 34.1716 31.0001 34.1716H28.9029C28.8069 34.1716 28.7298 34.2483 28.7298 34.3438V35.6576C28.7298 35.7521 28.8069 35.8293 28.9029 35.8293H31.0001C31.0946 35.8293 31.1723 35.7521 31.1723 35.6576ZM27.971 33.2333V30.2623C27.9522 30.1718 27.8756 30.1016 27.7791 30.1016C27.7168 30.1016 27.6614 30.1303 27.6243 30.1748L27.5733 30.2361C27.0653 30.8594 25.855 32.3498 25.5869 32.7337C25.5805 32.7431 25.5725 32.7539 25.5676 32.7619C25.5622 32.7688 25.5562 32.7767 25.5523 32.7846C25.5458 32.7945 25.5448 32.7975 25.5419 32.8049C25.5335 32.8247 25.5295 32.8464 25.5285 32.8692V33.2333C25.5285 33.3283 25.6057 33.4054 25.7016 33.4054H27.7989C27.8934 33.4054 27.971 33.3283 27.971 33.2333ZM31.1723 30.8035V29.4907C31.1723 29.3942 31.0946 29.3175 31.0001 29.3175H28.9029C28.8069 29.3175 28.7298 29.3942 28.7298 29.4907V30.8035C28.7298 30.899 28.8069 30.9756 28.9029 30.9756H31.0001C31.0946 30.9756 31.1723 30.899 31.1723 30.8035ZM27.9651 40.5107V39.1974C27.9651 39.1024 27.8884 39.0258 27.7934 39.0258H25.6952C25.5998 39.0258 25.5231 39.1024 25.5231 39.1974V40.5107C25.5231 40.6062 25.5998 40.6829 25.6952 40.6829H27.7934C27.8884 40.6829 27.9651 40.6062 27.9651 40.5107ZM27.9651 35.6576V34.3438C27.9651 34.2483 27.8884 34.1716 27.7934 34.1716H25.6952C25.5998 34.1716 25.5231 34.2483 25.5231 34.3438V35.6576C25.5231 35.7521 25.5998 35.8293 25.6952 35.8293H27.7934C27.8884 35.8293 27.9651 35.7521 27.9651 35.6576ZM29.0597 28.2194C29.0355 28.2525 29.0211 28.2936 29.0211 28.3381C29.0211 28.445 29.1062 28.531 29.212 28.536C29.2155 28.536 29.218 28.5375 29.221 28.5375C29.2239 28.5375 29.2264 28.536 29.2299 28.536H30.9586C30.9616 28.536 30.964 28.5375 30.967 28.5375C30.97 28.5375 30.9729 28.536 30.9759 28.536C31.0818 28.531 31.1668 28.445 31.1668 28.3381V26.1176C31.148 26.0261 31.0714 25.9568 30.9749 25.9568C30.9126 25.9568 30.8572 25.9855 30.8201 26.0295L30.7696 26.0909C30.3804 26.5677 29.583 27.5496 29.1092 28.1571L29.0597 28.2194ZM27.9651 38.0844V36.7711C27.9651 36.6751 27.8884 36.599 27.7934 36.599H25.6952C25.5998 36.599 25.5231 36.6751 25.5231 36.7711V38.0844C25.5231 38.1799 25.5998 38.2566 25.6952 38.2566H27.7934C27.8884 38.2566 27.9651 38.1799 27.9651 38.0844ZM31.1723 33.2308V31.9175C31.1723 31.822 31.0946 31.7453 31.0001 31.7453H28.9029C28.8069 31.7453 28.7298 31.822 28.7298 31.9175V33.2308C28.7298 33.3253 28.8069 33.4025 28.9029 33.4025H31.0001C31.0946 33.4025 31.1723 33.3253 31.1723 33.2308ZM31.1723 40.5107V39.1974C31.1723 39.1024 31.0946 39.0258 31.0001 39.0258H28.9029C28.8069 39.0258 28.7298 39.1024 28.7298 39.1974V40.5107C28.7298 40.6062 28.8069 40.6829 28.9029 40.6829H31.0001C31.0946 40.6829 31.1723 40.6062 31.1723 40.5107Z" fill="white"/>
<path d="M13.82 7.71437C13.6084 7.71437 13.4357 7.67551 13.2932 7.59346C13.1507 7.51142 13.0471 7.39051 12.9737 7.23073C12.9003 7.07096 12.8614 6.87664 12.8528 6.64777L13.4012 6.53982C13.4055 6.67368 13.4228 6.79459 13.4487 6.89823C13.4789 7.00187 13.5177 7.08391 13.5739 7.14005C13.63 7.19619 13.7077 7.2221 13.7984 7.2221C13.902 7.2221 13.9754 7.19187 14.0186 7.13141C14.0618 7.06664 14.0834 6.98891 14.0834 6.89391C14.0834 6.74277 14.0489 6.61755 13.9798 6.51823C13.9107 6.41891 13.82 6.32391 13.7034 6.22459L13.263 5.83595C13.1378 5.72799 13.0385 5.6114 12.965 5.48185C12.8916 5.34799 12.8571 5.18821 12.8571 4.99389C12.8571 4.71753 12.9391 4.50593 13.0989 4.3548C13.2587 4.20366 13.4789 4.13025 13.7596 4.13025C13.9236 4.13025 14.0618 4.15616 14.1698 4.20798C14.2777 4.25548 14.3641 4.32457 14.4288 4.41525C14.4936 4.50593 14.5454 4.60525 14.5756 4.72185C14.6059 4.83412 14.6275 4.95503 14.6361 5.08026L14.092 5.17526C14.0877 5.0673 14.0748 4.96798 14.0532 4.88162C14.0359 4.79526 14.0014 4.72616 13.9539 4.67866C13.9064 4.63116 13.8373 4.60525 13.7466 4.60525C13.6516 4.60525 13.5782 4.63548 13.5264 4.70025C13.4789 4.76071 13.453 4.83844 13.453 4.92912C13.453 5.04571 13.4789 5.14503 13.5264 5.22276C13.5739 5.29617 13.6473 5.3739 13.738 5.45594L14.1741 5.84027C14.3166 5.96118 14.4418 6.10368 14.5411 6.26777C14.6447 6.42754 14.6965 6.62618 14.6965 6.85505C14.6965 7.02346 14.6577 7.17028 14.5843 7.29982C14.5109 7.42937 14.4116 7.53301 14.2777 7.60642C14.1482 7.67983 13.997 7.71437 13.82 7.71437Z" fill="white"/>
<path d="M15.8553 7.71445C15.5963 7.71445 15.3933 7.66695 15.2508 7.57195C15.1083 7.47695 15.009 7.34308 14.9529 7.16604C14.8968 6.98899 14.8708 6.78171 14.8708 6.53558V4.16919H15.4926V6.60899C15.4926 6.71694 15.5013 6.82058 15.5142 6.9199C15.5272 7.0149 15.5617 7.09263 15.6135 7.15308C15.6697 7.20922 15.7474 7.23945 15.8553 7.23945C15.9676 7.23945 16.0496 7.20922 16.0971 7.15308C16.149 7.09263 16.1835 7.0149 16.1965 6.9199C16.2137 6.82058 16.2224 6.71694 16.2224 6.60899V4.16919H16.8398V6.53558C16.8398 6.78171 16.8139 6.98899 16.7578 7.16604C16.7017 7.34308 16.6023 7.47695 16.4599 7.57195C16.3174 7.66695 16.1187 7.71445 15.8553 7.71445Z" fill="white"/>
<path d="M18.0466 7.71437C17.835 7.71437 17.6623 7.67551 17.5198 7.59346C17.3773 7.51142 17.2737 7.39051 17.2002 7.23073C17.1268 7.07096 17.088 6.87664 17.0793 6.64777L17.6277 6.53982C17.632 6.67368 17.6493 6.79459 17.6752 6.89823C17.7054 7.00187 17.7443 7.08391 17.8004 7.14005C17.8566 7.19619 17.9343 7.2221 18.025 7.2221C18.1286 7.2221 18.202 7.19187 18.2452 7.13141C18.2884 7.06664 18.31 6.98891 18.31 6.89391C18.31 6.74277 18.2754 6.61755 18.2063 6.51823C18.1372 6.41891 18.0466 6.32391 17.93 6.22459L17.4896 5.83595C17.3643 5.72799 17.265 5.6114 17.1916 5.48185C17.1182 5.34799 17.0837 5.18821 17.0837 4.99389C17.0837 4.71753 17.1657 4.50593 17.3255 4.3548C17.4852 4.20366 17.7054 4.13025 17.9861 4.13025C18.1502 4.13025 18.2884 4.15616 18.3963 4.20798C18.5043 4.25548 18.5906 4.32457 18.6554 4.41525C18.7202 4.50593 18.772 4.60525 18.8022 4.72185C18.8324 4.83412 18.854 4.95503 18.8627 5.08026L18.3186 5.17526C18.3143 5.0673 18.3013 4.96798 18.2797 4.88162C18.2625 4.79526 18.2279 4.72616 18.1804 4.67866C18.1329 4.63116 18.0638 4.60525 17.9732 4.60525C17.8782 4.60525 17.8048 4.63548 17.7529 4.70025C17.7054 4.76071 17.6795 4.83844 17.6795 4.92912C17.6795 5.04571 17.7054 5.14503 17.7529 5.22276C17.8004 5.29617 17.8738 5.3739 17.9645 5.45594L18.4006 5.84027C18.5431 5.96118 18.6683 6.10368 18.7677 6.26777C18.8713 6.42754 18.9231 6.62618 18.9231 6.85505C18.9231 7.02346 18.8842 7.17028 18.8108 7.29982C18.7374 7.42937 18.6381 7.53301 18.5043 7.60642C18.3747 7.67983 18.2236 7.71437 18.0466 7.71437Z" fill="white"/>
<path d="M19.4728 7.66695V4.63988H18.9158V4.16919H20.6602V4.63988H20.1118V7.66695H19.4728Z" fill="white"/>
<path d="M20.4507 7.66695L21.1502 4.16919H21.8324L22.5319 7.66695H21.9404L21.8022 6.85944H21.1934L21.0509 7.66695H20.4507ZM21.2581 6.45353H21.7331L21.4956 4.98533L21.2581 6.45353Z" fill="white"/>
<path d="M23.3541 4.16919H22.7236V7.66695H23.3541V4.16919Z" fill="white"/>
<path d="M23.7185 7.66695V4.16919H24.1633L25.0139 6.16421V4.16919H25.5407V7.66695H25.1175L24.2626 5.57693V7.66695H23.7185Z" fill="white"/>
<path d="M25.7195 7.66695L26.419 4.16919H27.1012L27.8007 7.66695H27.2092L27.071 6.85944H26.4622L26.3197 7.66695H25.7195ZM26.5269 6.45353H27.0019L26.7644 4.98533L26.5269 6.45353Z" fill="white"/>
<path d="M27.9751 7.66695V4.16919H28.8344C28.9898 4.16919 29.128 4.18214 29.2532 4.21237C29.3784 4.2426 29.4864 4.2901 29.5771 4.35919C29.6677 4.42396 29.7411 4.51465 29.7886 4.63124C29.8361 4.74783 29.862 4.89033 29.862 5.06738C29.862 5.20988 29.8404 5.33079 29.8016 5.43011C29.7627 5.52943 29.7066 5.61148 29.6332 5.67193C29.5598 5.72807 29.4648 5.76693 29.3525 5.78852C29.4907 5.81011 29.603 5.86193 29.6936 5.93534C29.7843 6.00875 29.8534 6.10375 29.8966 6.22035C29.9441 6.33694 29.9657 6.47944 29.9657 6.64785C29.9657 6.81626 29.9441 6.96308 29.9009 7.09263C29.862 7.21785 29.7973 7.32581 29.7152 7.41217C29.6332 7.49422 29.5339 7.55899 29.4087 7.60218C29.2878 7.64536 29.1453 7.66695 28.9812 7.66695H27.9751ZM28.6142 7.21785H28.856C29.0503 7.21785 29.1798 7.17035 29.2489 7.07967C29.318 6.98467 29.3525 6.83785 29.3525 6.64353C29.3525 6.50103 29.3352 6.38876 29.3007 6.30239C29.2705 6.21171 29.2143 6.14694 29.1366 6.10375C29.0632 6.06057 28.9596 6.03898 28.8344 6.03898H28.6142V7.21785ZM28.6142 5.59852H28.8301C28.9553 5.59852 29.0546 5.58125 29.1237 5.54238C29.1928 5.50352 29.2403 5.44738 29.2662 5.36966C29.2964 5.29193 29.3093 5.19261 29.3093 5.07602C29.3093 4.95079 29.2878 4.85579 29.2446 4.79101C29.2057 4.72192 29.1409 4.67442 29.0589 4.65283C28.9769 4.62692 28.8689 4.61397 28.7394 4.61397H28.6142V5.59852Z" fill="white"/>
<path d="M30.2048 7.66695V4.16919H30.8439V7.22649H31.6902V7.66695H30.2048Z" fill="white"/>
<path d="M31.8474 7.66695V4.16919H33.3155V4.61828H32.4865V5.62443H33.1385V6.06921H32.4865V7.22649H33.3241V7.66695H31.8474Z" fill="white"/>
<path d="M35.3354 7.71437C35.0807 7.71437 34.8777 7.66256 34.7309 7.56324C34.5884 7.46392 34.4848 7.32573 34.4286 7.153C34.3725 6.97596 34.3423 6.77732 34.3423 6.54845V5.30049C34.3423 5.06299 34.3725 4.85571 34.4286 4.67866C34.4848 4.50162 34.5884 4.36775 34.7309 4.27275C34.8777 4.17775 35.0807 4.13025 35.3354 4.13025C35.5772 4.13025 35.7672 4.17343 35.9011 4.25548C36.0392 4.33752 36.1385 4.45412 36.1947 4.60525C36.2508 4.75639 36.281 4.93344 36.281 5.13639V5.43003H35.6679V5.12776C35.6679 5.02844 35.6636 4.94207 35.6506 4.86003C35.642 4.77798 35.6161 4.71753 35.5686 4.67003C35.5254 4.62253 35.4477 4.59662 35.3397 4.59662C35.2318 4.59662 35.1497 4.62253 35.0979 4.67435C35.0504 4.72185 35.0159 4.79094 35.0029 4.8773C34.99 4.95935 34.9813 5.05435 34.9813 5.1623V6.68232C34.9813 6.80755 34.99 6.9155 35.0116 6.99755C35.0332 7.0796 35.0677 7.14005 35.1195 7.18323C35.1756 7.2221 35.2491 7.24369 35.3397 7.24369C35.4477 7.24369 35.5211 7.21778 35.5643 7.17028C35.6118 7.11846 35.6377 7.04937 35.6506 6.96732C35.6636 6.88528 35.6679 6.79027 35.6679 6.68664V6.37141H36.281V6.65209C36.281 6.85937 36.2551 7.04505 36.199 7.20482C36.1429 7.3646 36.0479 7.48983 35.9097 7.58051C35.7758 7.67119 35.5815 7.71437 35.3354 7.71437Z" fill="white"/>
<path d="M37.198 4.16919H36.5676V7.66695H37.198V4.16919Z" fill="white"/>
<path d="M37.9122 7.66689V4.63981H37.3552V4.16913H39.0997V4.63981H38.5513V7.66689H37.9122Z" fill="white"/>
<path d="M39.8917 4.16919H39.2612V7.66695H39.8917V4.16919Z" fill="white"/>
<path d="M40.2566 7.66689V4.16913H41.7247V4.61822H40.8956V5.62437H41.5477V6.06915H40.8956V7.22643H41.7333V7.66689H40.2566Z" fill="white"/>
<path d="M42.81 7.71437C42.5984 7.71437 42.4257 7.67551 42.2832 7.59346C42.1407 7.51142 42.0371 7.39051 41.9637 7.23073C41.8903 7.07096 41.8514 6.87664 41.8428 6.64777L42.3912 6.53982C42.3955 6.67368 42.4127 6.79459 42.4386 6.89823C42.4689 7.00187 42.5077 7.08391 42.5639 7.14005C42.62 7.19619 42.6977 7.2221 42.7884 7.2221C42.892 7.2221 42.9654 7.19187 43.0086 7.13141C43.0518 7.06664 43.0734 6.98891 43.0734 6.89391C43.0734 6.74277 43.0388 6.61755 42.9698 6.51823C42.9007 6.41891 42.81 6.32391 42.6934 6.22459L42.253 5.83595C42.1278 5.72799 42.0284 5.6114 41.955 5.48185C41.8816 5.34799 41.8471 5.18821 41.8471 4.99389C41.8471 4.71753 41.9291 4.50593 42.0889 4.3548C42.2487 4.20366 42.4689 4.13025 42.7495 4.13025C42.9136 4.13025 43.0518 4.15616 43.1597 4.20798C43.2677 4.25548 43.3541 4.32457 43.4188 4.41525C43.4836 4.50593 43.5354 4.60525 43.5656 4.72185C43.5959 4.83412 43.6174 4.95503 43.6261 5.08026L43.082 5.17526C43.0777 5.0673 43.0648 4.96798 43.0432 4.88162C43.0259 4.79526 42.9913 4.72616 42.9438 4.67866C42.8964 4.63116 42.8273 4.60525 42.7366 4.60525C42.6416 4.60525 42.5682 4.63548 42.5164 4.70025C42.4689 4.76071 42.443 4.83844 42.443 4.92912C42.443 5.04571 42.4689 5.14503 42.5164 5.22276C42.5639 5.29617 42.6373 5.3739 42.728 5.45594L43.1641 5.84027C43.3066 5.96118 43.4318 6.10368 43.5311 6.26777C43.6347 6.42754 43.6865 6.62618 43.6865 6.85505C43.6865 7.02346 43.6477 7.17028 43.5743 7.29982C43.5009 7.42937 43.4016 7.53301 43.2677 7.60642C43.1382 7.67983 42.987 7.71437 42.81 7.71437Z" fill="white"/>
<path d="M12.7622 13.3831L13.4617 9.88531H14.1439L14.8435 13.3831H14.2519L14.1137 12.5756H13.5049L13.3624 13.3831H12.7622ZM13.5697 12.1697H14.0446L13.8071 10.7015L13.5697 12.1697Z" fill="white"/>
<path d="M15.0098 13.3831V9.88531H15.4545L16.3051 11.8803V9.88531H16.8319V13.3831H16.4088L15.5538 11.2931V13.3831H15.0098Z" fill="white"/>
<path d="M17.179 13.383V9.88519H18.0037C18.2887 9.88519 18.5089 9.92406 18.6686 10.0018C18.8284 10.0795 18.945 10.2004 19.0098 10.3602C19.0789 10.52 19.1134 10.7272 19.1134 10.9734V12.2516C19.1134 12.5064 19.0789 12.7179 19.0098 12.8864C18.945 13.0548 18.8327 13.18 18.673 13.262C18.5175 13.3441 18.3016 13.383 18.0296 13.383H17.179ZM17.818 12.9382H18.0123C18.1591 12.9382 18.2628 12.9123 18.3275 12.8604C18.3923 12.8086 18.4312 12.7352 18.4441 12.6359C18.4571 12.5366 18.4657 12.4114 18.4657 12.2689V10.9302C18.4657 10.7877 18.4571 10.6754 18.4355 10.5891C18.4139 10.5027 18.375 10.4379 18.3103 10.3991C18.2455 10.3602 18.1462 10.3386 18.0037 10.3386H17.818V12.9382Z" fill="white"/>
<path d="M21.2082 13.4306C20.9535 13.4306 20.7505 13.3787 20.6037 13.2794C20.4612 13.1801 20.3576 13.0419 20.3014 12.8692C20.2453 12.6921 20.2151 12.4935 20.2151 12.2646V11.0167C20.2151 10.7792 20.2453 10.5719 20.3014 10.3948C20.3576 10.2178 20.4612 10.0839 20.6037 9.98894C20.7505 9.89394 20.9535 9.84644 21.2082 9.84644C21.45 9.84644 21.64 9.88962 21.7739 9.97166C21.912 10.0537 22.0114 10.1703 22.0675 10.3214C22.1236 10.4726 22.1538 10.6496 22.1538 10.8526V11.1462H21.5407V10.8439C21.5407 10.7446 21.5364 10.6583 21.5234 10.5762C21.5148 10.4942 21.4889 10.4337 21.4414 10.3862C21.3982 10.3387 21.3205 10.3128 21.2125 10.3128C21.1046 10.3128 21.0225 10.3387 20.9707 10.3905C20.9232 10.438 20.8887 10.5071 20.8757 10.5935C20.8628 10.6755 20.8541 10.7705 20.8541 10.8785V12.3985C20.8541 12.5237 20.8628 12.6317 20.8844 12.7137C20.906 12.7958 20.9405 12.8562 20.9923 12.8994C21.0485 12.9383 21.1219 12.9599 21.2125 12.9599C21.3205 12.9599 21.3939 12.934 21.4371 12.8865C21.4846 12.8346 21.5105 12.7656 21.5234 12.6835C21.5364 12.6015 21.5407 12.5065 21.5407 12.4028V12.0876H22.1538V12.3683C22.1538 12.5756 22.1279 12.7612 22.0718 12.921C22.0157 13.0808 21.9207 13.206 21.7825 13.2967C21.6486 13.3874 21.4543 13.4306 21.2082 13.4306Z" fill="white"/>
<path d="M23.3648 13.4306C23.1187 13.4306 22.9201 13.3831 22.7732 13.2924C22.6264 13.2017 22.5228 13.0678 22.458 12.8951C22.3933 12.7224 22.363 12.5194 22.363 12.2819V10.9735C22.363 10.736 22.3933 10.5374 22.458 10.3689C22.5228 10.2005 22.6264 10.071 22.7732 9.9803C22.9201 9.88962 23.1187 9.84644 23.3648 9.84644C23.6196 9.84644 23.8182 9.88962 23.9607 9.9803C24.1075 10.071 24.2111 10.2005 24.2759 10.3689C24.3407 10.5374 24.3752 10.736 24.3752 10.9735V12.2862C24.3752 12.5194 24.3407 12.7224 24.2759 12.8951C24.2111 13.0635 24.1075 13.1974 23.9607 13.2924C23.8182 13.3831 23.6196 13.4306 23.3648 13.4306ZM23.3648 12.9599C23.4727 12.9599 23.5505 12.9383 23.598 12.8908C23.6498 12.8433 23.6843 12.7828 23.7016 12.7008C23.7189 12.6187 23.7275 12.5324 23.7275 12.4374V10.8267C23.7275 10.7274 23.7189 10.641 23.7016 10.5633C23.6843 10.4855 23.6498 10.4251 23.598 10.3819C23.5505 10.3344 23.4727 10.3128 23.3648 10.3128C23.2655 10.3128 23.1878 10.3344 23.1359 10.3819C23.0841 10.4251 23.0496 10.4855 23.0323 10.5633C23.015 10.641 23.0064 10.7274 23.0064 10.8267V12.4374C23.0064 12.5324 23.015 12.6187 23.028 12.7008C23.0453 12.7828 23.0798 12.8433 23.1316 12.8908C23.1834 12.9383 23.2612 12.9599 23.3648 12.9599Z" fill="white"/>
<path d="M24.6538 13.3831L24.7143 9.88531H25.3749L25.8715 12.3078L26.3896 9.88531H27.0287L27.0934 13.3831H26.6185L26.5667 10.9519L26.0701 13.3831H25.6858L25.1806 10.9433L25.1331 13.3831H24.6538Z" fill="white"/>
<path d="M27.4194 13.3831L27.4799 9.88531H28.1405L28.6371 12.3078L29.1552 9.88531H29.7943L29.8591 13.3831H29.3841L29.3323 10.9519L28.8357 13.3831H28.4514L27.9462 10.9433L27.8987 13.3831H27.4194Z" fill="white"/>
<path d="M31.1522 13.4306C30.8931 13.4306 30.6902 13.3831 30.5477 13.2881C30.4052 13.1931 30.3059 13.0592 30.2498 12.8822C30.1936 12.7051 30.1677 12.4978 30.1677 12.2517V9.88531H30.7895V12.3251C30.7895 12.4331 30.7981 12.5367 30.8111 12.636C30.8241 12.731 30.8586 12.8088 30.9104 12.8692C30.9665 12.9253 31.0443 12.9556 31.1522 12.9556C31.2645 12.9556 31.3465 12.9253 31.394 12.8692C31.4458 12.8088 31.4804 12.731 31.4933 12.636C31.5106 12.5367 31.5192 12.4331 31.5192 12.3251V9.88531H32.1367V12.2517C32.1367 12.4978 32.1108 12.7051 32.0547 12.8822C31.9985 13.0592 31.8992 13.1931 31.7567 13.2881C31.6142 13.3831 31.4156 13.4306 31.1522 13.4306Z" fill="white"/>
<path d="M32.4541 13.3831V9.88531H32.8988L33.7495 11.8803V9.88531H34.2763V13.3831H33.8531L32.9982 11.2931V13.3831H32.4541Z" fill="white"/>
<path d="M35.2715 9.88531H34.6411V13.3831H35.2715V9.88531Z" fill="white"/>
<path d="M35.9774 13.3831V10.356H35.4204V9.88531H37.1649V10.356H36.6165V13.3831H35.9774Z" fill="white"/>
<path d="M37.9488 9.88531H37.3184V13.3831H37.9488V9.88531Z" fill="white"/>
<path d="M38.3049 13.3831V9.88531H39.773V10.3344H38.944V11.3406H39.596V11.7853H38.944V12.9426H39.7817V13.3831H38.3049Z" fill="white"/>
<path d="M40.8503 13.4306C40.6387 13.4306 40.466 13.3917 40.3235 13.3096C40.181 13.2276 40.0774 13.1067 40.004 12.9469C39.9306 12.7871 39.8917 12.5928 39.8831 12.364L40.4314 12.256C40.4358 12.3899 40.453 12.5108 40.4789 12.6144C40.5092 12.7181 40.548 12.8001 40.6042 12.8562C40.6603 12.9124 40.738 12.9383 40.8287 12.9383C40.9323 12.9383 41.0057 12.9081 41.0489 12.8476C41.0921 12.7828 41.1137 12.7051 41.1137 12.6101C41.1137 12.459 41.0791 12.3337 41.01 12.2344C40.941 12.1351 40.8503 12.0401 40.7337 11.9408L40.2933 11.5521C40.168 11.4442 40.0687 11.3276 39.9953 11.198C39.9219 11.0642 39.8874 10.9044 39.8874 10.7101C39.8874 10.4337 39.9694 10.2221 40.1292 10.071C40.2889 9.91985 40.5092 9.84644 40.7898 9.84644C40.9539 9.84644 41.0921 9.87234 41.2 9.92416C41.308 9.97166 41.3943 10.0408 41.4591 10.1314C41.5239 10.2221 41.5757 10.3214 41.6059 10.438C41.6361 10.5503 41.6577 10.6712 41.6664 10.7964L41.1223 10.8914C41.118 10.7835 41.105 10.6842 41.0834 10.5978C41.0662 10.5114 41.0316 10.4424 40.9841 10.3948C40.9366 10.3473 40.8675 10.3214 40.7769 10.3214C40.6819 10.3214 40.6085 10.3517 40.5567 10.4164C40.5092 10.4769 40.4833 10.5546 40.4833 10.6453C40.4833 10.7619 40.5092 10.8612 40.5567 10.9389C40.6042 11.0124 40.6776 11.0901 40.7682 11.1721L41.2043 11.5565C41.3468 11.6774 41.4721 11.8199 41.5714 11.984C41.675 12.1437 41.7268 12.3424 41.7268 12.5712C41.7268 12.7396 41.688 12.8865 41.6146 13.016C41.5411 13.1456 41.4418 13.2492 41.308 13.3226C41.1784 13.396 41.0273 13.4306 40.8503 13.4306Z" fill="white"/>
</svg>
