<svg width="48" height="48" viewBox="0 0 48 48" fill="none" xmlns="http://www.w3.org/2000/svg">
<path d="M-4.19617e-05 0H47.9971V48H-4.19617e-05V0Z" fill="#F36D24"/>
<path d="M4.45265 12.8698C4.09503 12.482 3.91202 11.8963 3.9046 11.1127V10.9772H5.55419C5.55419 11.3912 5.59772 11.6851 5.68428 11.8582C5.77084 12.0318 5.9499 12.1184 6.22096 12.1184C6.40892 12.1184 6.55038 12.062 6.64486 11.9487C6.73884 11.8359 6.80462 11.6494 6.84222 11.3897C6.87981 11.1296 6.8986 10.7551 6.8986 10.2649V9.33888C6.80067 9.50459 6.64634 9.63419 6.43563 9.72867C6.22491 9.82266 5.97958 9.86965 5.7011 9.86965C5.02345 9.86965 4.52981 9.62084 4.22116 9.1237C3.91202 8.62657 3.75769 7.96768 3.75769 7.14654C3.75769 5.09023 4.57878 4.06183 6.22096 4.06183C7.06431 4.06183 7.68606 4.32153 8.08523 4.84142C8.48439 5.3613 8.68422 6.07708 8.68422 6.98825V10.3218C8.68422 11.3086 8.50121 12.0768 8.13617 12.6269C7.77064 13.1765 7.12861 13.4515 6.20958 13.4515C5.39591 13.4515 4.81027 13.2576 4.45265 12.8698ZM6.8986 8.11805V6.66078C6.8986 6.26159 6.84963 5.94501 6.75219 5.71153C6.65376 5.47805 6.47718 5.3613 6.22096 5.3613C5.9499 5.3613 5.76886 5.48744 5.67884 5.73972C5.58832 5.992 5.54331 6.39317 5.54331 6.94323C5.54331 7.33501 5.55419 7.63428 5.57695 7.84154C5.5997 8.0488 5.66153 8.216 5.76342 8.34412C5.86482 8.47273 6.02113 8.53654 6.23233 8.53654C6.51081 8.53654 6.7329 8.39704 6.8986 8.11805Z" fill="white"/>
<path d="M36.0475 31.584L30.3157 28.2757V21.6576C30.3157 21.5181 30.241 21.389 30.1203 21.3187L24.1941 17.8972C24.073 17.8274 23.9246 17.8274 23.8034 17.8972L17.8767 21.3187C17.7555 21.389 17.6813 21.5181 17.6813 21.6576V28.2757L11.95 31.584C11.8288 31.6537 11.7546 31.7828 11.7546 31.9228V38.7674C11.7546 38.9069 11.8288 39.036 11.95 39.1063L17.8767 42.5274C17.9375 42.562 18.0043 42.5798 18.0721 42.5798C18.1398 42.5798 18.2071 42.562 18.2675 42.5274L23.9988 39.2191L29.7291 42.5274C29.7899 42.562 29.8572 42.5798 29.9244 42.5798C29.9922 42.5798 30.0595 42.562 30.1203 42.5274L36.0475 39.1063C36.1687 39.0365 36.2429 38.9069 36.2429 38.7674V31.9228C36.2429 31.7828 36.1687 31.6537 36.0475 31.584ZM23.608 38.0902L18.8541 35.3454L23.608 32.6V38.0902ZM29.1424 28.5017L24.3895 31.2456V25.7563L29.1424 28.5017ZM23.608 31.2456L18.8541 28.5017L23.608 25.7563V31.2456ZM24.7808 31.9228L29.9244 28.9533L35.0701 31.9228L29.9244 34.8937L24.7808 31.9228ZM29.5337 27.8245L24.7808 25.0792L29.5337 22.3348V27.8245ZM23.2167 25.0792L18.4628 27.8245V22.3348L23.2167 25.0792ZM17.6813 41.5113L12.5367 38.5419V32.6L17.6813 35.5709V41.5113ZM18.4628 41.5113V36.0226L23.2167 38.7674L18.4628 41.5113ZM35.4609 38.5419L30.3157 41.5113V35.5709L35.4609 32.6V38.5419Z" fill="white"/>
<path d="M11.3432 4.10608H10.7128V7.60384H11.3432V4.10608Z" fill="white"/>
<path d="M11.672 7.60384V4.10608H12.1167L12.9674 6.1011V4.10608H13.4942V7.60384H13.071L12.2161 5.51382V7.60384H11.672Z" fill="white"/>
<path d="M13.8131 7.60396V4.1062H14.6378C14.9228 4.1062 15.143 4.14507 15.3028 4.22279C15.4626 4.30052 15.5791 4.42143 15.6439 4.58121C15.713 4.74098 15.7475 4.94825 15.7475 5.19439V6.47259C15.7475 6.72736 15.713 6.93896 15.6439 7.10737C15.5791 7.27578 15.4669 7.40101 15.3071 7.48305C15.1517 7.5651 14.9358 7.60396 14.6637 7.60396H13.8131ZM14.4522 7.15918H14.6465C14.7933 7.15918 14.8969 7.13328 14.9617 7.08146C15.0265 7.02964 15.0653 6.95623 15.0783 6.85691C15.0912 6.75759 15.0999 6.63236 15.0999 6.48986V5.15121C15.0999 5.00871 15.0912 4.89644 15.0696 4.81007C15.048 4.72371 15.0092 4.65893 14.9444 4.62007C14.8796 4.58121 14.7803 4.55961 14.6378 4.55961H14.4522V7.15918Z" fill="white"/>
<path d="M16.9667 7.65134C16.7076 7.65134 16.5046 7.60384 16.3622 7.50884C16.2197 7.41384 16.1204 7.27997 16.0642 7.10293C16.0081 6.92588 15.9822 6.7186 15.9822 6.47247V4.10608H16.604V6.54587C16.604 6.65383 16.6126 6.75747 16.6256 6.85679C16.6385 6.95179 16.673 7.02952 16.7249 7.08997C16.781 7.14611 16.8587 7.17634 16.9667 7.17634C17.0789 7.17634 17.161 7.14611 17.2085 7.08997C17.2603 7.02952 17.2948 6.95179 17.3078 6.85679C17.3251 6.75747 17.3337 6.65383 17.3337 6.54587V4.10608H17.9512V6.47247C17.9512 6.7186 17.9253 6.92588 17.8691 7.10293C17.813 7.27997 17.7137 7.41384 17.5712 7.50884C17.4287 7.60384 17.2301 7.65134 16.9667 7.65134Z" fill="white"/>
<path d="M19.1214 7.65139C18.9098 7.65139 18.7371 7.61252 18.5946 7.53048C18.4521 7.44843 18.3485 7.32752 18.2751 7.16774C18.2017 7.00797 18.1628 6.81365 18.1542 6.58478L18.7026 6.47683C18.7069 6.61069 18.7241 6.7316 18.7501 6.83524C18.7803 6.93888 18.8191 7.02093 18.8753 7.07706C18.9314 7.1332 19.0091 7.15911 19.0998 7.15911C19.2034 7.15911 19.2768 7.12888 19.32 7.06843C19.3632 7.00365 19.3848 6.92592 19.3848 6.83092C19.3848 6.67979 19.3502 6.55456 19.2812 6.45524C19.2121 6.35592 19.1214 6.26092 19.0048 6.1616L18.5644 5.77296C18.4392 5.665 18.3398 5.54841 18.2664 5.41886C18.193 5.285 18.1585 5.12523 18.1585 4.93091C18.1585 4.65454 18.2405 4.44295 18.4003 4.29181C18.5601 4.14067 18.7803 4.06726 19.0609 4.06726C19.225 4.06726 19.3632 4.09317 19.4711 4.14499C19.5791 4.19249 19.6655 4.26158 19.7302 4.35226C19.795 4.44295 19.8468 4.54227 19.877 4.65886C19.9073 4.77113 19.9288 4.89204 19.9375 5.01727L19.3934 5.11227C19.3891 5.00431 19.3762 4.905 19.3546 4.81863C19.3373 4.73227 19.3027 4.66318 19.2553 4.61568C19.2078 4.56817 19.1387 4.54227 19.048 4.54227C18.953 4.54227 18.8796 4.57249 18.8278 4.63727C18.7803 4.69772 18.7544 4.77545 18.7544 4.86613C18.7544 4.98272 18.7803 5.08204 18.8278 5.15977C18.8753 5.23318 18.9487 5.31091 19.0394 5.39295L19.4755 5.77728C19.618 5.89819 19.7432 6.04069 19.8425 6.20478C19.9461 6.36456 19.9979 6.56319 19.9979 6.79206C19.9979 6.96047 19.9591 7.10729 19.8857 7.23684C19.8123 7.36638 19.713 7.47002 19.5791 7.54343C19.4496 7.61684 19.2984 7.65139 19.1214 7.65139Z" fill="white"/>
<path d="M20.5126 7.6039V4.57683H19.9556V4.10614H21.7V4.57683H21.1516V7.6039H20.5126Z" fill="white"/>
<path d="M21.8081 7.60384V4.10608H22.6458C22.8833 4.10608 23.0819 4.13631 23.2417 4.19244C23.4057 4.24858 23.531 4.34358 23.613 4.47745C23.6994 4.61131 23.7425 4.79699 23.7425 5.03018C23.7425 5.17268 23.7296 5.29791 23.7037 5.41018C23.6778 5.52246 23.6346 5.61746 23.5698 5.6995C23.5094 5.77723 23.423 5.83769 23.3151 5.88087L23.803 7.60384H23.1639L22.7408 6.00178H22.4472V7.60384H21.8081ZM22.4472 5.60018H22.6458C22.771 5.60018 22.866 5.58291 22.9394 5.54837C23.0128 5.5095 23.0689 5.45336 23.0992 5.37564C23.1294 5.29359 23.1467 5.19427 23.1467 5.06904C23.1467 4.892 23.1121 4.76245 23.0474 4.67608C22.9826 4.5854 22.8617 4.54222 22.6803 4.54222H22.4472V5.60018Z" fill="white"/>
<path d="M24.4424 7.60378V6.26945L23.7343 4.10602H24.3301L24.7619 5.49217L25.1678 4.10602H25.7507L25.0512 6.26945V7.60378H24.4424Z" fill="white"/>
<path d="M25.5704 8.1913L25.51 7.97538C25.5877 7.95379 25.6525 7.91061 25.7086 7.85016C25.7647 7.79402 25.7906 7.71197 25.7906 7.60402H25.4797V7.02106H26.054V7.5522C26.054 7.73788 26.0152 7.88038 25.9331 7.98402C25.8511 8.09198 25.7302 8.16107 25.5704 8.1913Z" fill="white"/>
<path d="M27.7559 4.10608H27.1255V7.60384H27.7559V4.10608Z" fill="white"/>
<path d="M28.0844 7.60372V4.10596H28.5291L29.3797 6.10098V4.10596H29.9065V7.60372H29.4834L28.6284 5.5137V7.60372H28.0844Z" fill="white"/>
<path d="M30.2256 7.60384V4.10608H30.6703L31.521 6.1011V4.10608H32.0478V7.60384H31.6246L30.7696 5.51382V7.60384H30.2256Z" fill="white"/>
<path d="M33.3178 7.65139C33.0717 7.65139 32.8731 7.60388 32.7262 7.5132C32.5794 7.42252 32.4758 7.28865 32.411 7.11593C32.3463 6.9432 32.316 6.74024 32.316 6.50274V5.19432C32.316 4.95681 32.3463 4.75818 32.411 4.58977C32.4758 4.42135 32.5794 4.29181 32.7262 4.20113C32.8731 4.11044 33.0717 4.06726 33.3178 4.06726C33.5726 4.06726 33.7712 4.11044 33.9137 4.20113C34.0605 4.29181 34.1641 4.42135 34.2289 4.58977C34.2937 4.75818 34.3282 4.95681 34.3282 5.19432V6.50706C34.3282 6.74024 34.2937 6.9432 34.2289 7.11593C34.1641 7.28434 34.0605 7.4182 33.9137 7.5132C33.7712 7.60388 33.5726 7.65139 33.3178 7.65139ZM33.3178 7.1807C33.4258 7.1807 33.5035 7.15911 33.551 7.11161C33.6028 7.06411 33.6373 7.00365 33.6546 6.92161C33.6719 6.83956 33.6805 6.7532 33.6805 6.65819V5.0475C33.6805 4.94818 33.6719 4.86181 33.6546 4.78409C33.6373 4.70636 33.6028 4.6459 33.551 4.60272C33.5035 4.55522 33.4258 4.53363 33.3178 4.53363C33.2185 4.53363 33.1408 4.55522 33.089 4.60272C33.0371 4.6459 33.0026 4.70636 32.9853 4.78409C32.968 4.86181 32.9594 4.94818 32.9594 5.0475V6.65819C32.9594 6.7532 32.968 6.83956 32.981 6.92161C32.9983 7.00365 33.0328 7.06411 33.0846 7.11161C33.1364 7.15911 33.2142 7.1807 33.3178 7.1807Z" fill="white"/>
<path d="M35.1108 7.60384L34.407 4.10608H34.9726L35.4347 6.58042L35.8664 4.10608H36.4451L35.7412 7.60384H35.1108Z" fill="white"/>
<path d="M36.2477 7.60384L36.9472 4.10608H37.6294L38.3289 7.60384H37.7374L37.5992 6.79633H36.9904L36.8479 7.60384H36.2477ZM37.0551 6.39042H37.5301L37.2926 4.92222L37.0551 6.39042Z" fill="white"/>
<path d="M38.6395 7.60384V4.57677H38.0825V4.10608H39.827V4.57677H39.2786V7.60384H38.6395Z" fill="white"/>
<path d="M40.5827 4.10608H39.9523V7.60384H40.5827V4.10608Z" fill="white"/>
<path d="M41.8608 7.65139C41.6146 7.65139 41.416 7.60388 41.2692 7.5132C41.1224 7.42252 41.0188 7.28865 40.954 7.11593C40.8892 6.9432 40.859 6.74024 40.859 6.50274V5.19432C40.859 4.95681 40.8892 4.75818 40.954 4.58977C41.0188 4.42135 41.1224 4.29181 41.2692 4.20113C41.416 4.11044 41.6146 4.06726 41.8608 4.06726C42.1155 4.06726 42.3142 4.11044 42.4566 4.20113C42.6035 4.29181 42.7071 4.42135 42.7719 4.58977C42.8366 4.75818 42.8712 4.95681 42.8712 5.19432V6.50706C42.8712 6.74024 42.8366 6.9432 42.7719 7.11593C42.7071 7.28434 42.6035 7.4182 42.4566 7.5132C42.3142 7.60388 42.1155 7.65139 41.8608 7.65139ZM41.8608 7.1807C41.9687 7.1807 42.0464 7.15911 42.0939 7.11161C42.1458 7.06411 42.1803 7.00365 42.1976 6.92161C42.2148 6.83956 42.2235 6.7532 42.2235 6.65819V5.0475C42.2235 4.94818 42.2148 4.86181 42.1976 4.78409C42.1803 4.70636 42.1458 4.6459 42.0939 4.60272C42.0464 4.55522 41.9687 4.53363 41.8608 4.53363C41.7615 4.53363 41.6837 4.55522 41.6319 4.60272C41.5801 4.6459 41.5456 4.70636 41.5283 4.78409C41.511 4.86181 41.5024 4.94818 41.5024 5.0475V6.65819C41.5024 6.7532 41.511 6.83956 41.524 6.92161C41.5412 7.00365 41.5758 7.06411 41.6276 7.11161C41.6794 7.15911 41.7571 7.1807 41.8608 7.1807Z" fill="white"/>
<path d="M43.1317 7.60384V4.10608H43.5765L44.4271 6.1011V4.10608H44.9539V7.60384H44.5307L43.6758 5.51382V7.60384H43.1317Z" fill="white"/>
<path d="M10.5183 13.3202L11.2178 9.82245H11.9001L12.5996 13.3202H12.008L11.8698 12.5127H11.261L11.1185 13.3202H10.5183ZM11.3258 12.1068H11.8007L11.5633 10.6386L11.3258 12.1068Z" fill="white"/>
<path d="M12.7693 13.3203V9.82257H13.214L14.0647 11.8176V9.82257H14.5915V13.3203H14.1683L13.3133 11.2303V13.3203H12.7693Z" fill="white"/>
<path d="M14.9423 13.3202V9.82245H15.767C16.052 9.82245 16.2722 9.86131 16.432 9.93904C16.5917 10.0168 16.7083 10.1377 16.7731 10.2975C16.8422 10.4572 16.8767 10.6645 16.8767 10.9106V12.1888C16.8767 12.4436 16.8422 12.6552 16.7731 12.8236C16.7083 12.992 16.596 13.1173 16.4363 13.1993C16.2808 13.2813 16.0649 13.3202 15.7929 13.3202H14.9423ZM15.5813 12.8754H15.7756C15.9224 12.8754 16.0261 12.8495 16.0908 12.7977C16.1556 12.7459 16.1945 12.6725 16.2074 12.5732C16.2204 12.4738 16.229 12.3486 16.229 12.2061V10.8675C16.229 10.725 16.2204 10.6127 16.1988 10.5263C16.1772 10.44 16.1383 10.3752 16.0736 10.3363C16.0088 10.2975 15.9095 10.2759 15.767 10.2759H15.5813V12.8754Z" fill="white"/>
<path d="M18.6833 9.82239H18.0529V13.3201H18.6833V9.82239Z" fill="white"/>
<path d="M19.0425 13.3201V9.82239H19.4872L20.3379 11.8174V9.82239H20.8647V13.3201H20.4415L19.5865 11.2301V13.3201H19.0425Z" fill="white"/>
<path d="M21.2156 13.3203V9.82251H22.6535V10.263H21.8546V11.2821H22.5066V11.7268H21.8546V13.3203H21.2156Z" fill="white"/>
<path d="M22.8182 13.3201V9.82239H23.6559C23.8934 9.82239 24.092 9.85262 24.2518 9.90875C24.4159 9.96489 24.5411 10.0599 24.6231 10.1938C24.7095 10.3276 24.7527 10.5133 24.7527 10.7465C24.7527 10.889 24.7397 11.0142 24.7138 11.1265C24.6879 11.2388 24.6447 11.3338 24.58 11.4158C24.5195 11.4935 24.4331 11.554 24.3252 11.5972L24.8131 13.3201H24.1741L23.7509 11.7181H23.4573V13.3201H22.8182ZM23.4573 11.3165H23.6559C23.7811 11.3165 23.8761 11.2992 23.9495 11.2647C24.0229 11.2258 24.0791 11.1697 24.1093 11.0919C24.1395 11.0099 24.1568 10.9106 24.1568 10.7854C24.1568 10.6083 24.1223 10.4788 24.0575 10.3924C23.9927 10.3017 23.8718 10.2585 23.6905 10.2585H23.4573V11.3165Z" fill="white"/>
<path d="M24.8832 13.3201L25.5827 9.82239H26.2649L26.9644 13.3201H26.3729L26.2347 12.5126H25.6259L25.4834 13.3201H24.8832ZM25.6906 12.1067H26.1656L25.9281 10.6385L25.6906 12.1067Z" fill="white"/>
<path d="M28.001 13.3677C27.7895 13.3677 27.6167 13.3288 27.4742 13.2468C27.3318 13.1647 27.2281 13.0438 27.1547 12.8841C27.0813 12.7243 27.0424 12.53 27.0338 12.3011L27.5822 12.1931C27.5865 12.327 27.6038 12.4479 27.6297 12.5516C27.6599 12.6552 27.6988 12.7372 27.7549 12.7934C27.811 12.8495 27.8888 12.8754 27.9794 12.8754C28.0831 12.8754 28.1565 12.8452 28.1997 12.7847C28.2428 12.72 28.2644 12.6422 28.2644 12.5472C28.2644 12.3961 28.2299 12.2709 28.1608 12.1715C28.0917 12.0722 28.001 11.9772 27.8844 11.8779L27.444 11.4893C27.3188 11.3813 27.2195 11.2647 27.1461 11.1352C27.0727 11.0013 27.0381 10.8415 27.0381 10.6472C27.0381 10.3708 27.1202 10.1593 27.2799 10.0081C27.4397 9.85698 27.6599 9.78357 27.9406 9.78357C28.1047 9.78357 28.2428 9.80948 28.3508 9.8613C28.4587 9.9088 28.5451 9.97789 28.6099 10.0686C28.6746 10.1593 28.7264 10.2586 28.7567 10.3752C28.7869 10.4874 28.8085 10.6083 28.8171 10.7336L28.2731 10.8286C28.2687 10.7206 28.2558 10.6213 28.2342 10.5349C28.2169 10.4486 28.1824 10.3795 28.1349 10.332C28.0874 10.2845 28.0183 10.2586 27.9276 10.2586C27.8326 10.2586 27.7592 10.2888 27.7074 10.3536C27.6599 10.414 27.634 10.4918 27.634 10.5824C27.634 10.699 27.6599 10.7984 27.7074 10.8761C27.7549 10.9495 27.8283 11.0272 27.919 11.1093L28.3551 11.4936C28.4976 11.6145 28.6228 11.757 28.7221 11.9211C28.8258 12.0809 28.8776 12.2795 28.8776 12.5084C28.8776 12.6768 28.8387 12.8236 28.7653 12.9531C28.6919 13.0827 28.5926 13.1863 28.4587 13.2597C28.3292 13.3331 28.1781 13.3677 28.001 13.3677Z" fill="white"/>
<path d="M29.4233 13.3203V10.2932H28.8663V9.82251H30.6108V10.2932H30.0624V13.3203H29.4233Z" fill="white"/>
<path d="M30.7496 13.3201V9.82239H31.5873C31.8248 9.82239 32.0234 9.85262 32.1832 9.90875C32.3473 9.96489 32.4725 10.0599 32.5545 10.1938C32.6409 10.3276 32.6841 10.5133 32.6841 10.7465C32.6841 10.889 32.6711 11.0142 32.6452 11.1265C32.6193 11.2388 32.5761 11.3338 32.5114 11.4158C32.4509 11.4935 32.3645 11.554 32.2566 11.5972L32.7445 13.3201H32.1055L31.6823 11.7181H31.3887V13.3201H30.7496ZM31.3887 11.3165H31.5873C31.7125 11.3165 31.8075 11.2992 31.8809 11.2647C31.9543 11.2258 32.0105 11.1697 32.0407 11.0919C32.0709 11.0099 32.0882 10.9106 32.0882 10.7854C32.0882 10.6083 32.0537 10.4788 31.9889 10.3924C31.9241 10.3017 31.8032 10.2585 31.6219 10.2585H31.3887V11.3165Z" fill="white"/>
<path d="M33.9421 13.3678C33.6831 13.3678 33.4801 13.3203 33.3376 13.2253C33.1951 13.1303 33.0958 12.9964 33.0397 12.8194C32.9835 12.6423 32.9576 12.435 32.9576 12.1889V9.82251H33.5794V12.2623C33.5794 12.3703 33.5881 12.4739 33.601 12.5732C33.614 12.6682 33.6485 12.7459 33.7003 12.8064C33.7565 12.8625 33.8342 12.8928 33.9421 12.8928C34.0544 12.8928 34.1364 12.8625 34.1839 12.8064C34.2358 12.7459 34.2703 12.6682 34.2832 12.5732C34.3005 12.4739 34.3092 12.3703 34.3092 12.2623V9.82251H34.9266V12.1889C34.9266 12.435 34.9007 12.6423 34.8446 12.8194C34.7884 12.9964 34.6891 13.1303 34.5466 13.2253C34.4042 13.3203 34.2055 13.3678 33.9421 13.3678Z" fill="white"/>
<path d="M36.1881 13.3676C35.9333 13.3676 35.7304 13.3158 35.5836 13.2165C35.4411 13.1172 35.3374 12.979 35.2813 12.8063C35.2252 12.6292 35.1949 12.4306 35.1949 12.2017V10.9537C35.1949 10.7162 35.2252 10.509 35.2813 10.3319C35.3374 10.1549 35.4411 10.021 35.5836 9.92601C35.7304 9.83101 35.9333 9.78351 36.1881 9.78351C36.4299 9.78351 36.6199 9.82669 36.7537 9.90874C36.8919 9.99078 36.9912 10.1074 37.0473 10.2585C37.1035 10.4097 37.1337 10.5867 37.1337 10.7897V11.0833H36.5206V10.781C36.5206 10.6817 36.5162 10.5953 36.5033 10.5133C36.4946 10.4312 36.4687 10.3708 36.4212 10.3233C36.3781 10.2758 36.3003 10.2499 36.1924 10.2499C36.0844 10.2499 36.0024 10.2758 35.9506 10.3276C35.9031 10.3751 35.8685 10.4442 35.8556 10.5306C35.8426 10.6126 35.834 10.7076 35.834 10.8156V12.3356C35.834 12.4608 35.8426 12.5688 35.8642 12.6508C35.8858 12.7329 35.9204 12.7933 35.9722 12.8365C36.0283 12.8754 36.1017 12.8969 36.1924 12.8969C36.3003 12.8969 36.3737 12.871 36.4169 12.8235C36.4644 12.7717 36.4903 12.7026 36.5033 12.6206C36.5162 12.5385 36.5206 12.4435 36.5206 12.3399V12.0247H37.1337V12.3054C37.1337 12.5126 37.1078 12.6983 37.0517 12.8581C36.9955 13.0179 36.9005 13.1431 36.7624 13.2338C36.6285 13.3245 36.4342 13.3676 36.1881 13.3676Z" fill="white"/>
<path d="M37.7479 13.3203V10.2932H37.1909V9.82251H38.9354V10.2932H38.387V13.3203H37.7479Z" fill="white"/>
<path d="M40.0321 13.3678C39.773 13.3678 39.5701 13.3203 39.4276 13.2253C39.2851 13.1303 39.1858 12.9965 39.1296 12.8194C39.0735 12.6424 39.0476 12.4351 39.0476 12.189V9.82257H39.6694V12.2624C39.6694 12.3703 39.678 12.474 39.691 12.5733C39.7039 12.6683 39.7385 12.746 39.7903 12.8065C39.8464 12.8626 39.9241 12.8928 40.0321 12.8928C40.1444 12.8928 40.2264 12.8626 40.2739 12.8065C40.3257 12.746 40.3603 12.6683 40.3732 12.5733C40.3905 12.474 40.3991 12.3703 40.3991 12.2624V9.82257H41.0166V12.189C41.0166 12.4351 40.9907 12.6424 40.9345 12.8194C40.8784 12.9965 40.7791 13.1303 40.6366 13.2253C40.4941 13.3203 40.2955 13.3678 40.0321 13.3678Z" fill="white"/>
<path d="M41.3374 13.3201V9.82239H42.1751C42.4126 9.82239 42.6112 9.85262 42.771 9.90875C42.935 9.96489 43.0603 10.0599 43.1423 10.1938C43.2287 10.3276 43.2718 10.5133 43.2718 10.7465C43.2718 10.889 43.2589 11.0142 43.233 11.1265C43.2071 11.2388 43.1639 11.3338 43.0991 11.4158C43.0387 11.4935 42.9523 11.554 42.8444 11.5972L43.3323 13.3201H42.6932L42.2701 11.7181H41.9765V13.3201H41.3374ZM41.9765 11.3165H42.1751C42.3003 11.3165 42.3953 11.2992 42.4687 11.2647C42.5421 11.2258 42.5982 11.1697 42.6285 11.0919C42.6587 11.0099 42.676 10.9106 42.676 10.7854C42.676 10.6083 42.6414 10.4788 42.5767 10.3924C42.5119 10.3017 42.391 10.2585 42.2096 10.2585H41.9765V11.3165Z" fill="white"/>
<path d="M43.5798 13.3201V9.82239H45.0479V10.2715H44.2189V11.2776H44.8709V11.7224H44.2189V12.8797H45.0566V13.3201H43.5798Z" fill="white"/>
</svg>
