<svg width="80" height="60" viewBox="0 0 80 60" fill="none" xmlns="http://www.w3.org/2000/svg">
<rect width="80" height="60" rx="5" fill="#F8CB46"/>
<path d="M23.9094 26.7139C24.6367 26.7139 25.286 26.8852 25.8574 27.2278C26.4339 27.5655 26.8859 28.0451 27.2131 28.6666C27.53 29.2637 27.6884 29.9661 27.6884 30.7736C27.6884 31.5566 27.53 32.2565 27.2131 32.8732C26.8963 33.4897 26.4495 33.9719 25.8729 34.3194C25.2912 34.6717 24.6367 34.8479 23.9094 34.8479C23.3796 34.8479 22.8809 34.7451 22.4134 34.5396C21.9459 34.3339 21.5459 34.0452 21.2135 33.6733V34.6612H18.502V24.1519H21.2135V27.8812C21.5459 27.5092 21.9459 27.2229 22.4134 27.0223C22.8809 26.8166 23.3796 26.7139 23.9094 26.7139ZM23.0991 32.7263C23.4835 32.7263 23.8263 32.6431 24.1276 32.4767C24.4289 32.3102 24.6652 32.0778 24.8366 31.7793C25.0081 31.4856 25.0938 31.1503 25.0938 30.7736C25.0938 30.4065 25.0081 30.0737 24.8366 29.7751C24.6652 29.4766 24.4289 29.2441 24.1276 29.0778C23.8263 28.9113 23.4835 28.8281 23.0991 28.8281C22.7355 28.8281 22.4108 28.9113 22.1251 29.0778C21.8394 29.2393 21.6161 29.4668 21.455 29.7604C21.294 30.059 21.2135 30.3967 21.2135 30.7736C21.2135 31.1503 21.294 31.4881 21.455 31.7866C21.6161 32.0802 21.8394 32.3102 22.1251 32.4767C22.4108 32.6431 22.7355 32.7263 23.0991 32.7263Z" fill="#1C1C1C"/>
<path d="M28.0586 34.6612V24.1519H30.7701V34.6612H28.0586Z" fill="#1C1C1C"/>
<path d="M31.5391 34.6614V26.8882H34.235V34.6614H31.5391Z" fill="#1C1C1C"/>
<path d="M40.0918 26.7139C40.6684 26.7139 41.188 26.8411 41.6502 27.0956C42.1126 27.3453 42.4761 27.6976 42.741 28.1528C42.9957 28.6128 43.1228 29.134 43.1228 29.7164V34.6612H40.5361V30.289C40.5361 30.0051 40.4763 29.7531 40.3567 29.5329C40.2425 29.3078 40.0789 29.134 39.8659 29.0117C39.6582 28.8893 39.4141 28.8281 39.1335 28.8281C38.8686 28.8281 38.6244 28.8893 38.4011 29.0117C38.1776 29.1291 38.0037 29.2907 37.879 29.4962C37.7492 29.6919 37.6842 29.922 37.6842 30.1863L37.6686 34.6612H34.9727V26.8901H37.6686V27.7784C37.9231 27.4456 38.2634 27.1862 38.6893 27.0002C39.1153 26.8093 39.5828 26.7139 40.0918 26.7139Z" fill="#1C1C1C"/>
<path d="M49.0815 30.289L52.1404 34.6612H49.0784L47.2894 31.9114L46.4635 32.8144V34.6612H43.752V24.1519H46.4635V29.9586L49.0704 26.8861L52.1303 26.888L49.0815 30.289Z" fill="#1C1C1C"/>
<path d="M31.5371 24.1528H34.242V26.142H31.5371V24.1528Z" fill="#1C1C1C"/>
<path d="M52.5527 34.662V26.8882H55.2576V34.662H52.5527Z" fill="#0C831F"/>
<path d="M60.9706 32.4461L61.5081 34.0832C61.264 34.3035 60.955 34.482 60.5809 34.6191C60.2121 34.7561 59.8511 34.8248 59.4979 34.8248C58.9888 34.8248 58.5343 34.7195 58.1343 34.5091C57.7344 34.2937 57.4227 33.9951 57.1992 33.6133C56.9759 33.2415 56.8642 32.8132 56.8642 32.3287V28.8988H55.7812V26.8882H56.8642V24.1528H59.4511V26.8882H61.1575V28.8988H59.4511V31.8589C59.4511 32.1085 59.5212 32.3116 59.6615 32.4681C59.8017 32.6248 59.9809 32.7031 60.1992 32.7031C60.3549 32.7031 60.5003 32.6811 60.6354 32.637C60.7704 32.593 60.8822 32.5293 60.9706 32.4461Z" fill="#0C831F"/>
<path d="M52.5527 24.1528H55.2576V26.142H52.5527V24.1528Z" fill="#0C831F"/>
</svg>
