<svg width="18" height="18" viewBox="0 0 18 18" fill="none" xmlns="http://www.w3.org/2000/svg">
<rect width="18" height="18" rx="9" fill="#090909"/>
<path d="M9.88825 13.2524C9.89733 13.2607 10.1758 13.3247 10.507 13.3945C10.8383 13.4643 11.1129 13.5108 11.1174 13.4978C11.1217 13.4848 11.156 13.274 11.1935 13.0293C11.2688 12.5379 11.4511 11.9642 11.6458 11.6054C12.253 10.4871 13.3423 9.74669 14.6636 9.55424L15 9.50523V9.01124V8.51721L14.6951 8.47029C12.6972 8.16295 11.3947 6.79319 11.151 4.74333C11.1351 4.60948 11.1161 4.5 11.1088 4.5C11.0414 4.5 9.92497 4.74672 9.90385 4.76627C9.88858 4.7804 9.89994 4.90588 9.92913 5.04507C10.2522 6.58633 11.1772 7.8405 12.3777 8.3649L12.6656 8.49069L6.74428 8.50054L3 8.5068L3 9.50656L6.75391 9.51282L12.6613 9.52271L12.2978 9.6916C11.3547 10.1297 10.608 10.9891 10.1683 12.1427C10.043 12.4713 9.85393 13.2206 9.88825 13.2524Z" fill="white"/>
</svg>
