<svg width="43" height="51" viewBox="0 0 43 51" fill="none" xmlns="http://www.w3.org/2000/svg">
<path d="M6.20766 41.425L5.40266 40.235L14.3277 34.67C18.341 32.1267 21.6543 29.7467 24.2677 27.53C26.9043 25.29 28.981 23.05 30.4977 20.81C32.0143 18.5467 33.111 16.155 33.7877 13.635C34.4877 11.045 34.7093 8.92166 34.4527 7.265C34.196 5.60833 33.5543 4.37167 32.5277 3.555C31.5243 2.715 30.2527 2.295 28.7127 2.295C27.0793 2.295 25.621 2.59833 24.3377 3.205C23.0543 3.81166 21.9693 4.675 21.0827 5.795C20.2193 6.89166 19.5543 8.18666 19.0877 9.68L18.2127 12.62C17.816 13.9967 17.2093 15.0467 16.3927 15.77C15.576 16.4933 14.6543 16.855 13.6277 16.855C12.531 16.855 11.7493 16.47 11.2827 15.7C10.8393 14.93 10.8043 13.8333 11.1777 12.41C11.761 10.31 12.9043 8.35 14.6077 6.53C16.311 4.68666 18.4693 3.19333 21.0827 2.05C23.7193 0.88333 26.706 0.299997 30.0427 0.299997C33.2627 0.299997 35.8177 0.871664 37.7077 2.015C39.621 3.135 40.8693 4.68666 41.4527 6.67C42.0593 8.63 42.0243 10.8583 41.3477 13.355C40.881 15.0583 40.146 16.7033 39.1427 18.29C38.1627 19.8533 36.786 21.4633 35.0127 23.12C33.2627 24.7767 31.011 26.5617 28.2577 28.475C25.5043 30.365 22.1327 32.465 18.1427 34.775L6.20766 41.425ZM0.572656 46.43C1.15599 44.2367 2.39266 42.405 4.28266 40.935C6.17266 39.465 8.51766 38.73 11.3177 38.73C12.7177 38.73 14.0593 38.9983 15.3427 39.535C16.626 40.0483 17.8743 40.655 19.0877 41.355C20.3243 42.055 21.561 42.6733 22.7977 43.21C24.0343 43.7467 25.306 44.015 26.6127 44.015C28.2227 44.015 29.5527 43.6533 30.6027 42.93C31.676 42.1833 32.7377 40.9583 33.7877 39.255C34.1143 38.8583 34.371 38.59 34.5577 38.45C34.7677 38.2867 34.9777 38.2283 35.1877 38.275C35.4443 38.2983 35.6077 38.4267 35.6777 38.66C35.771 38.8933 35.7243 39.2667 35.5377 39.78C34.4643 42.4867 33.321 44.6333 32.1077 46.22C30.9177 47.7833 29.646 48.9033 28.2927 49.58C26.9393 50.2567 25.481 50.595 23.9177 50.595C22.5877 50.595 21.4327 50.385 20.4527 49.965C19.4727 49.545 18.5977 48.8567 17.8277 47.9C17.081 46.9433 16.3577 45.6717 15.6577 44.085C14.841 42.9417 14.1293 42.1483 13.5227 41.705C12.916 41.2383 12.2627 41.005 11.5627 41.005C10.7927 41.005 10.0927 41.355 9.46266 42.055C8.83266 42.755 8.22599 44.015 7.64266 45.835C7.22266 46.9783 6.76766 47.9 6.27766 48.6C5.78766 49.2767 5.25099 49.7667 4.66766 50.07C4.10766 50.3733 3.50099 50.525 2.84766 50.525C1.84432 50.525 1.13266 50.1633 0.712656 49.44C0.292656 48.7167 0.24599 47.7133 0.572656 46.43Z" fill="#E5E5E5"/>
</svg>
