<svg width="42" height="51" viewBox="0 0 42 51" fill="none" xmlns="http://www.w3.org/2000/svg">
<path d="M0.765469 40.76C0.858802 39.78 1.11547 38.9283 1.53547 38.205C1.95547 37.4583 2.48047 36.8867 3.11047 36.49C3.7638 36.07 4.45214 35.86 5.17547 35.86C6.3188 35.86 7.10047 36.2217 7.52047 36.945C7.9638 37.6683 8.02214 38.6367 7.69547 39.85L7.03047 42.125C6.44714 44.1083 6.6338 45.6833 7.59047 46.85C8.57047 47.9933 10.2971 48.565 12.7705 48.565C14.4505 48.565 16.0955 48.1217 17.7055 47.235C19.3155 46.3483 20.7738 44.9833 22.0805 43.14C23.4105 41.2967 24.4721 38.9283 25.2655 36.035C26.4555 31.765 26.5021 28.545 25.4055 26.375C24.3088 24.1817 22.3488 23.085 19.5255 23.085C18.3121 23.085 17.0521 23.33 15.7455 23.82C14.4621 24.2867 13.1671 24.9867 11.8605 25.92C10.5538 26.83 9.28214 27.95 8.04547 29.28C7.67214 29.56 7.35714 29.7817 7.10047 29.945C6.8438 30.085 6.57547 30.155 6.29547 30.155C5.9688 30.155 5.73547 30.05 5.59547 29.84C5.45547 29.6067 5.4438 29.2917 5.56047 28.895L13.2605 1.98C13.4005 1.42 13.6221 0.988332 13.9255 0.684999C14.2288 0.381665 14.6371 0.229998 15.1505 0.229998C15.4071 0.229998 15.6638 0.276664 15.9205 0.369996C16.1771 0.439997 16.4571 0.556663 16.7605 0.719996C17.9038 1.46666 19.0938 2.13166 20.3305 2.715C21.5905 3.275 22.9205 3.71833 24.3205 4.045C25.7438 4.34833 27.2721 4.5 28.9055 4.5C31.2855 4.5 33.3971 4.20833 35.2405 3.625C37.0838 3.01833 38.5888 2.05 39.7555 0.719996C40.0588 0.463331 40.3155 0.288332 40.5255 0.194997C40.7355 0.07833 40.9221 0.0433298 41.0855 0.0899959C41.2488 0.136665 41.3655 0.264998 41.4355 0.474997C41.5288 0.661664 41.4471 1.02333 41.1905 1.56C39.8605 4.61667 37.9471 6.86833 35.4505 8.315C32.9771 9.76166 30.0021 10.485 26.5255 10.485C23.7255 10.485 21.1705 10.0883 18.8605 9.295C16.5505 8.50166 14.6488 7.44 13.1555 6.11L14.7305 4.605L8.04547 27.845L7.27547 27.53C8.72214 26.0133 10.2271 24.7417 11.7905 23.715C13.3538 22.665 14.9755 21.8717 16.6555 21.335C18.3588 20.775 20.1321 20.495 21.9755 20.495C24.9155 20.495 27.3071 21.1367 29.1505 22.42C30.9938 23.68 32.2071 25.4417 32.7905 27.705C33.3971 29.9683 33.2805 32.5817 32.4405 35.545C31.5538 38.6483 30.1188 41.3317 28.1355 43.595C26.1755 45.8583 23.8305 47.6083 21.1005 48.845C18.3705 50.0817 15.4188 50.7 12.2455 50.7C9.42214 50.7 7.10047 50.245 5.28047 49.335C3.4838 48.425 2.20047 47.2233 1.43047 45.73C0.683802 44.2133 0.462136 42.5567 0.765469 40.76Z" fill="#E5E5E5"/>
</svg>
