<svg width="42" height="50" viewBox="0 0 42 50" fill="none" xmlns="http://www.w3.org/2000/svg">
<path d="M17.1546 23.065L16.8046 22.4C17.0379 22.3533 17.3413 22.3183 17.7146 22.295C18.0879 22.2483 18.4613 22.225 18.8346 22.225C19.2079 22.2017 19.5229 22.19 19.7796 22.19C23.1163 22.1433 25.8346 22.645 27.9346 23.695C30.0346 24.745 31.4463 26.2967 32.1696 28.35C32.8929 30.4033 32.8346 32.9233 31.9946 35.91C31.2479 38.6867 29.9296 41.1133 28.0396 43.19C26.1496 45.2433 23.8396 46.8417 21.1096 47.985C18.4029 49.1283 15.4279 49.7 12.1846 49.7C9.26794 49.7 6.89961 49.2683 5.07961 48.405C3.25961 47.5183 1.97628 46.3517 1.22961 44.905C0.482943 43.4583 0.261276 41.86 0.564609 40.11C0.727943 38.5467 1.21794 37.31 2.03461 36.4C2.85128 35.49 3.83128 35.035 4.97461 35.035C6.09461 35.035 6.87628 35.42 7.31961 36.19C7.76294 36.96 7.83294 37.9517 7.52961 39.165L6.86461 41.51C6.32794 43.47 6.53794 44.975 7.49461 46.025C8.47461 47.0517 10.2129 47.565 12.7096 47.565C14.4129 47.565 16.0579 47.145 17.6446 46.305C19.2313 45.4417 20.6429 44.1817 21.8796 42.525C23.1163 40.8683 24.0729 38.8383 24.7496 36.435C25.8696 32.3517 25.8113 29.3183 24.5746 27.335C23.3379 25.3517 21.0046 24.36 17.5746 24.36H15.7896C15.2996 24.36 14.9613 24.2783 14.7746 24.115C14.5879 23.9283 14.5063 23.6717 14.5296 23.345C14.5763 23.0183 14.7279 22.7033 14.9846 22.4C15.2413 22.0733 15.6029 21.7233 16.0696 21.35L35.3896 4.095L35.1796 5.81H16.0696C15.5096 5.81 15.0546 5.92666 14.7046 6.16C14.3546 6.37 14.0279 6.74333 13.7246 7.28L11.6596 10.745C11.4963 11.095 11.2863 11.375 11.0296 11.585C10.7963 11.7717 10.5279 11.8533 10.2246 11.83C9.89794 11.83 9.66461 11.7133 9.52461 11.48C9.40794 11.2467 9.44294 10.8733 9.62961 10.36L13.1296 1.82C13.3629 1.23667 13.6663 0.793332 14.0396 0.489999C14.4363 0.163331 14.9496 -3.33786e-06 15.5796 -3.33786e-06H40.2546C40.6513 -3.33786e-06 40.9313 0.0816644 41.0946 0.245C41.2813 0.408332 41.3629 0.629998 41.3396 0.909997C41.2929 1.23667 41.1179 1.58667 40.8146 1.96C40.5346 2.33333 40.0679 2.8 39.4146 3.36L17.1546 23.065Z" fill="#E5E5E5"/>
</svg>
