<svg width="35" height="50" viewBox="0 0 35 50" fill="none" xmlns="http://www.w3.org/2000/svg">
<path d="M24.3285 22.84C24.4452 22.42 24.5852 22.07 24.7485 21.79C24.9352 21.51 25.1685 21.2533 25.4485 21.02L31.2935 16.33C31.6435 16.05 31.9119 15.8633 32.0985 15.77C32.2852 15.6533 32.4602 15.595 32.6235 15.595C32.8335 15.595 32.9735 15.6767 33.0435 15.84C33.1368 16.0033 33.1368 16.2483 33.0435 16.575L24.7135 45.625C24.5735 46.1617 24.5735 46.5817 24.7135 46.885C24.8768 47.1883 25.2035 47.375 25.6935 47.445L29.4385 47.865C29.7652 47.935 29.9985 48.0517 30.1385 48.215C30.3019 48.3783 30.3602 48.6 30.3135 48.88C30.2902 49.23 30.1502 49.51 29.8935 49.72C29.6602 49.9067 29.3452 50 28.9485 50H11.1335C10.7602 50 10.4802 49.9183 10.2935 49.755C10.1302 49.5683 10.0602 49.3117 10.0835 48.985C10.1068 48.6817 10.2118 48.4367 10.3985 48.25C10.6085 48.04 10.8885 47.9117 11.2385 47.865L15.7185 47.375C16.2085 47.3283 16.6052 47.1533 16.9085 46.85C17.2352 46.5467 17.4802 46.115 17.6435 45.555L24.3285 22.84ZM22.2635 15.385C23.1735 14.615 23.8735 13.915 24.3635 13.285C24.8768 12.655 25.2268 11.99 25.4135 11.29C25.5769 10.73 25.6352 10.1933 25.5885 9.68C25.5419 9.14333 25.4602 8.61833 25.3435 8.105C25.2502 7.56833 25.1919 7.00833 25.1685 6.425C25.1452 5.81833 25.2152 5.18833 25.3785 4.535C25.7052 3.25166 26.3585 2.21333 27.3385 1.42C28.3185 0.626665 29.4968 0.229998 30.8735 0.229998C32.0635 0.229998 32.9735 0.591665 33.6035 1.315C34.2335 2.015 34.4669 2.97167 34.3035 4.185C34.1635 5.18833 33.8485 6.16833 33.3585 7.125C32.8919 8.08167 32.1802 9.085 31.2235 10.135C30.2902 11.185 29.0535 12.3633 27.5135 13.67L2.27852 36.56L2.13852 35.37H33.6035C33.9069 35.37 34.1402 35.4517 34.3035 35.615C34.4902 35.755 34.5719 35.9883 34.5485 36.315C34.5252 36.665 34.3852 36.9683 34.1285 37.225C33.8719 37.4817 33.5102 37.61 33.0435 37.61H1.22852C0.831849 37.61 0.540182 37.505 0.353516 37.295C0.190182 37.085 0.131849 36.8283 0.178516 36.525C0.201849 36.1983 0.306849 35.895 0.493516 35.615C0.703516 35.3117 1.03018 34.9733 1.47352 34.6L22.2635 15.385Z" fill="#E5E5E5"/>
</svg>
