<svg width="41" height="51" viewBox="0 0 41 51" fill="none" xmlns="http://www.w3.org/2000/svg">
<path d="M11.7252 50.5751C9.04182 50.5751 6.80182 50.1317 5.00516 49.2451C3.20849 48.3351 1.92516 47.1567 1.15516 45.7101C0.385156 44.2401 0.175156 42.6651 0.525156 40.9851C0.82849 39.5384 1.40016 38.4301 2.24016 37.6601C3.10349 36.8667 4.10682 36.4701 5.25016 36.4701C6.46349 36.4701 7.29182 36.8434 7.73516 37.5901C8.20182 38.3134 8.24849 39.3517 7.87516 40.7051L7.21016 42.9801C6.69682 44.8234 6.89516 46.2817 7.80516 47.3551C8.71516 48.4284 10.2902 48.9651 12.5302 48.9651C14.6768 48.9651 16.8352 48.1251 19.0052 46.4451C21.1752 44.7417 23.2752 42.0234 25.3052 38.2901C27.3585 34.5334 29.2485 29.5984 30.9752 23.4851C32.5152 18.0484 33.2852 13.7434 33.2852 10.5701C33.3085 7.37339 32.7252 5.08672 31.5352 3.71005C30.3452 2.31005 28.7118 1.61005 26.6352 1.61005C24.7685 1.61005 23.0068 2.11172 21.3502 3.11505C19.7168 4.09505 18.2585 5.58838 16.9752 7.59505C15.6918 9.57838 14.6418 12.0634 13.8252 15.0501C13.0085 18.0834 12.7285 20.6034 12.9852 22.6101C13.2652 24.5934 14.0002 26.0751 15.1902 27.0551C16.3802 28.0351 17.9085 28.5251 19.7752 28.5251C21.5018 28.5251 23.2518 28.0701 25.0252 27.1601C26.7985 26.2501 28.3968 24.9784 29.8202 23.3451C31.2435 21.7117 32.2818 19.8217 32.9352 17.6751L33.9152 18.1301C33.3552 20.0201 32.5035 21.7351 31.3602 23.2751C30.2402 24.7917 28.9102 26.0984 27.3702 27.1951C25.8535 28.2917 24.1968 29.1317 22.4002 29.7151C20.6035 30.2984 18.7485 30.5901 16.8352 30.5901C14.0585 30.5901 11.7252 29.9834 9.83516 28.7701C7.94516 27.5567 6.66182 25.8301 5.98516 23.5901C5.33182 21.3267 5.44849 18.6201 6.33516 15.4701C7.22182 12.3667 8.69182 9.66005 10.7452 7.35005C12.7985 5.04005 15.2252 3.24338 18.0252 1.96005C20.8485 0.653384 23.8352 5.03063e-05 26.9852 5.03063e-05C30.6952 5.03063e-05 33.6468 0.98005 35.8402 2.94005C38.0335 4.87672 39.3518 7.67672 39.7952 11.3401C40.2618 15.0034 39.7368 19.4367 38.2202 24.6401C36.5402 30.3567 34.3352 35.1401 31.6052 38.9901C28.8985 42.8401 25.8418 45.7334 22.4352 47.6701C19.0285 49.6067 15.4585 50.5751 11.7252 50.5751Z" fill="#E5E5E5"/>
</svg>
