<svg width="73" height="51" viewBox="0 0 73 51" fill="none" xmlns="http://www.w3.org/2000/svg">
<path d="M13.545 5.32004C13.125 5.32004 12.845 5.23837 12.705 5.07504C12.565 4.88837 12.53 4.65504 12.6 4.37504C12.6933 4.09504 12.8683 3.86171 13.125 3.67504C13.3816 3.48838 13.72 3.39504 14.14 3.39504L19.88 3.32504C21.0466 3.30171 22.0266 3.22004 22.82 3.08004C23.6366 2.91671 24.36 2.66004 24.99 2.31004C25.62 1.93671 26.25 1.42337 26.88 0.770041C27.1833 0.513374 27.4516 0.326707 27.685 0.21004C27.9183 0.0700418 28.14 4.26769e-05 28.35 4.26769e-05C28.7233 4.26769e-05 28.98 0.105042 29.12 0.315041C29.2833 0.501708 29.295 0.793374 29.155 1.19004L16.73 46.375C16.59 46.8417 16.59 47.2267 16.73 47.53C16.87 47.8334 17.255 48.02 17.885 48.09L23.065 48.685C23.345 48.7317 23.555 48.825 23.695 48.965C23.835 49.0817 23.8933 49.2334 23.87 49.42C23.8466 49.7 23.7183 49.9217 23.485 50.085C23.275 50.225 22.9833 50.295 22.61 50.295H1.01498C0.66498 50.295 0.408314 50.225 0.24498 50.085C0.0816471 49.945 0.0116471 49.7467 0.0349804 49.49C0.0583138 49.2567 0.17498 49.07 0.38498 48.93C0.571647 48.7667 0.828314 48.6617 1.15498 48.615L7.20998 48.02C7.69998 47.9734 8.11998 47.81 8.46998 47.53C8.84331 47.2267 9.11165 46.8067 9.27498 46.27L20.02 7.31504C20.23 6.61504 20.2533 6.12504 20.09 5.84504C19.9266 5.56504 19.5766 5.42504 19.04 5.42504L13.545 5.32004ZM35.6743 41.65L35.2543 40.6L44.0043 35.35C47.8543 33.04 51.0859 30.7884 53.6993 28.595C56.3126 26.3784 58.4126 24.0917 59.9993 21.735C61.5859 19.355 62.7643 16.765 63.5343 13.965C64.2809 11.2817 64.5376 9.05338 64.3043 7.28004C64.0943 5.50671 63.4876 4.17671 62.4843 3.29004C61.5043 2.40338 60.2326 1.96004 58.6693 1.96004C56.9193 1.96004 55.3559 2.31004 53.9793 3.01004C52.6259 3.68671 51.4943 4.62004 50.5843 5.81004C49.6976 6.97671 49.0443 8.28338 48.6243 9.73004L47.7143 13.055C47.3176 14.455 46.6643 15.54 45.7543 16.31C44.8676 17.08 43.8643 17.465 42.7443 17.465C41.6243 17.465 40.8309 17.0917 40.3643 16.345C39.8976 15.5984 39.8626 14.525 40.2593 13.125C40.8659 11.0017 42.0676 8.98338 43.8643 7.07004C45.6609 5.13338 47.9476 3.55837 50.7243 2.34504C53.5009 1.10837 56.6509 0.490041 60.1743 0.490041C63.3943 0.490041 65.9493 1.07337 67.8393 2.24004C69.7526 3.40671 71.0009 5.02837 71.5843 7.10504C72.1676 9.15838 72.0859 11.5267 71.3393 14.21C70.8726 15.89 70.1026 17.5234 69.0293 19.11C67.9793 20.6967 66.5326 22.3184 64.6893 23.975C62.8693 25.6084 60.5709 27.3467 57.7943 29.19C55.0176 31.0334 51.6809 33.04 47.7843 35.21L35.6743 41.65ZM29.8993 46.9C30.5293 44.66 31.8593 42.805 33.8893 41.335C35.9426 39.8417 38.4743 39.095 41.4843 39.095C42.9309 39.095 44.3193 39.3517 45.6493 39.865C47.0026 40.355 48.3209 40.9384 49.6043 41.615C50.8876 42.2684 52.1476 42.8517 53.3843 43.365C54.6209 43.8784 55.8576 44.135 57.0943 44.135C58.7276 44.135 60.1043 43.7617 61.2243 43.015C62.3443 42.245 63.4409 40.915 64.5143 39.025C64.7009 38.7684 64.8876 38.5934 65.0743 38.5C65.2843 38.3834 65.4826 38.3367 65.6693 38.36C65.9259 38.3834 66.0893 38.4884 66.1593 38.675C66.2293 38.8617 66.1709 39.1534 65.9843 39.55C64.8409 42.42 63.6159 44.6834 62.3093 46.34C61.0259 47.9967 59.6493 49.1867 58.1793 49.91C56.7326 50.6334 55.1693 50.995 53.4893 50.995C52.0426 50.995 50.7943 50.7617 49.7443 50.295C48.7176 49.8517 47.8193 49.0934 47.0493 48.02C46.2793 46.9467 45.5443 45.5 44.8443 43.68C44.1209 42.5834 43.4793 41.8017 42.9193 41.335C42.3826 40.8684 41.7759 40.635 41.0993 40.635C40.3526 40.635 39.6643 41.0084 39.0343 41.755C38.4276 42.5017 37.8443 43.7617 37.2843 45.535C36.8176 46.9117 36.3043 47.9967 35.7443 48.79C35.2076 49.56 34.6243 50.1084 33.9943 50.435C33.3643 50.7617 32.6643 50.925 31.8943 50.925C30.9843 50.925 30.3309 50.575 29.9343 49.875C29.5609 49.1517 29.5493 48.16 29.8993 46.9Z" fill="#E5E5E5"/>
</svg>
