<svg width="24" height="24" viewBox="0 0 24 24" fill="none" xmlns="http://www.w3.org/2000/svg">
<rect width="24" height="24" rx="12" fill="#262626"/>
<path d="M18.2837 9.41598L7.28 6.04098C7.13107 5.99754 6.97407 5.98935 6.82142 6.01705C6.66878 6.04476 6.52467 6.1076 6.4005 6.2006C6.27633 6.29361 6.1755 6.41423 6.10599 6.55292C6.03648 6.69162 6.00019 6.84459 6 6.99973V15.9997C6 16.2649 6.10536 16.5193 6.29289 16.7068C6.48043 16.8944 6.73478 16.9997 7 16.9997C7.09562 16.9998 7.19076 16.9861 7.2825 16.9591L12.5 15.3579V15.9997C12.5 16.2649 12.6054 16.5193 12.7929 16.7068C12.9804 16.8944 13.2348 16.9997 13.5 16.9997H15.5C15.7652 16.9997 16.0196 16.8944 16.2071 16.7068C16.3946 16.5193 16.5 16.2649 16.5 15.9997V14.131L18.2837 13.5841C18.4902 13.5221 18.6712 13.3954 18.8002 13.2226C18.9292 13.0499 18.9992 12.8403 19 12.6247V10.3747C18.9991 10.1593 18.929 9.94982 18.8 9.77721C18.6711 9.6046 18.4901 9.47797 18.2837 9.41598ZM12.5 14.3122L7 15.9997V6.99973L12.5 8.68723V14.3122ZM15.5 15.9997H13.5V15.051L15.5 14.4372V15.9997ZM18 12.6247H17.9931L13.5 14.0047V8.99473L17.9931 10.3697H18V12.6197V12.6247Z" fill="white"/>
</svg>
