<svg width="24" height="24" viewBox="0 0 24 24" fill="none" xmlns="http://www.w3.org/2000/svg">
<path d="M21.2077 11.4108L2.48178 11.3912L2.48004 13.0466L21.2059 13.0662L21.2077 11.4108Z" fill="white"/>
<path d="M13.9234 20.433C14.1295 19.2905 14.4291 18.223 14.9161 17.2304C15.3843 16.2378 16.0023 15.3388 16.7328 14.5522C17.4538 13.7562 18.3528 13.1382 19.2799 12.6231C20.2257 12.1268 21.237 11.771 22.3046 11.5462L22.2952 11.5369L22.2577 12.9415C20.1695 12.5201 18.2123 11.4807 16.7328 9.90746C15.2532 8.33425 14.3448 6.26473 14.0171 4.08283L16.1147 3.97046C15.9742 5.74032 16.6017 7.5851 17.8003 8.93357C18.9802 10.3008 20.722 11.1997 22.5199 11.5369L22.4731 12.9509L22.4637 12.9415C21.546 12.979 20.6283 13.2412 19.7949 13.6626C18.9427 14.0652 18.2311 14.6833 17.6224 15.3856C17.0137 16.0879 16.5829 16.9307 16.3488 17.8016C16.1241 18.6819 16.0398 19.6089 16.2271 20.4705L13.9047 20.4517L13.9234 20.433Z" fill="white"/>
</svg>
