<svg width="40" height="40" viewBox="0 0 40 40" fill="none" xmlns="http://www.w3.org/2000/svg">
<rect x="0.6" y="0.6" width="38.8" height="38.8" rx="19.4" stroke="#404040" stroke-width="1.2"/>
<path d="M27.6977 14.4071L20.1977 11.9071C20.0694 11.8643 19.9306 11.8643 19.8023 11.9071L12.3023 14.4071C12.1779 14.4486 12.0697 14.5282 11.993 14.6346C11.9163 14.741 11.875 14.8689 11.875 15V21.25C11.875 21.4158 11.9408 21.5748 12.0581 21.692C12.1753 21.8092 12.3342 21.875 12.5 21.875C12.6658 21.875 12.8247 21.8092 12.9419 21.692C13.0592 21.5748 13.125 21.4158 13.125 21.25V15.8672L15.7492 16.7415C15.052 17.8679 14.8303 19.2249 15.1328 20.5147C15.4352 21.8044 16.2372 22.9214 17.3625 23.6204C15.9562 24.1719 14.7406 25.1696 13.8516 26.5336C13.8053 26.6024 13.7732 26.6796 13.7571 26.7608C13.7409 26.8421 13.7411 26.9257 13.7576 27.0069C13.7741 27.0881 13.8065 27.1651 13.8531 27.2337C13.8996 27.3022 13.9593 27.3608 14.0287 27.406C14.098 27.4513 14.1757 27.4823 14.2572 27.4973C14.3387 27.5122 14.4223 27.5108 14.5032 27.4932C14.5841 27.4756 14.6608 27.442 14.7286 27.3945C14.7965 27.347 14.8542 27.2865 14.8984 27.2165C16.0758 25.4102 17.9352 24.375 20 24.375C22.0648 24.375 23.9242 25.4102 25.1016 27.2165C25.1932 27.3527 25.3348 27.4474 25.4958 27.4801C25.6567 27.5127 25.824 27.4808 25.9616 27.391C26.0991 27.3013 26.1958 27.1611 26.2308 27.0007C26.2657 26.8402 26.2362 26.6725 26.1484 26.5336C25.2594 25.1696 24.0391 24.1719 22.6375 23.6204C23.7617 22.9214 24.5629 21.8052 24.8653 20.5164C25.1678 19.2276 24.9468 17.8714 24.2508 16.7454L27.6977 15.5969C27.8221 15.5555 27.9304 15.4759 28.0071 15.3695C28.0839 15.263 28.1251 15.1352 28.1251 15.004C28.1251 14.8728 28.0839 14.7449 28.0071 14.6385C27.9304 14.532 27.8221 14.4524 27.6977 14.411V14.4071ZM23.75 19.375C23.7502 19.9679 23.6098 20.5524 23.3403 21.0804C23.0709 21.6085 22.6801 22.0652 22.1999 22.413C21.7198 22.7608 21.1641 22.9898 20.5783 23.0812C19.9926 23.1727 19.3935 23.1239 18.8302 22.939C18.2669 22.754 17.7555 22.4382 17.338 22.0173C16.9204 21.5965 16.6086 21.0826 16.4281 20.5179C16.2475 19.9532 16.2035 19.3537 16.2995 18.7687C16.3955 18.1837 16.6289 17.6298 16.9805 17.1524L19.8023 18.0899C19.9306 18.1327 20.0694 18.1327 20.1977 18.0899L23.0195 17.1524C23.4944 17.7961 23.7504 18.5751 23.75 19.375ZM20 16.8415L14.4766 15L20 13.1586L25.5234 15L20 16.8415Z" fill="white"/>
</svg>
