<svg width="18" height="18" viewBox="0 0 18 18" fill="none" xmlns="http://www.w3.org/2000/svg">
<path d="M9 1.6875C7.55373 1.6875 6.13993 2.11637 4.9374 2.91988C3.73486 3.72339 2.7976 4.86544 2.24413 6.20163C1.69067 7.53781 1.54586 9.00811 1.82801 10.4266C2.11017 11.8451 2.80661 13.148 3.82928 14.1707C4.85196 15.1934 6.15492 15.8898 7.57341 16.172C8.99189 16.4541 10.4622 16.3093 11.7984 15.7559C13.1346 15.2024 14.2766 14.2651 15.0801 13.0626C15.8836 11.8601 16.3125 10.4463 16.3125 9C16.3105 7.06123 15.5394 5.20246 14.1685 3.83154C12.7975 2.46063 10.9388 1.68955 9 1.6875ZM15.1875 9C15.1881 9.79381 15.0353 10.5803 14.7375 11.3161L11.5945 9.3832C11.4609 9.30074 11.3114 9.24732 11.1558 9.22641L9.55125 9.00984C9.33016 8.98101 9.10547 9.01808 8.90535 9.11639C8.70522 9.2147 8.53856 9.36988 8.42625 9.5625H7.81313L7.54594 9.00984C7.47207 8.85596 7.36397 8.72102 7.22991 8.61535C7.09585 8.50969 6.93939 8.4361 6.7725 8.40023L6.21 8.27859L6.75985 7.3125H7.93477C8.12489 7.31213 8.31184 7.26376 8.47828 7.17188L9.33961 6.69656C9.41529 6.65438 9.48603 6.60391 9.55055 6.54609L11.4427 4.83469C11.6324 4.66468 11.7584 4.43509 11.8001 4.18378C11.8418 3.93248 11.7966 3.67448 11.6719 3.45234L11.6466 3.40664C12.7053 3.90867 13.6 4.70067 14.2268 5.69071C14.8535 6.68075 15.1867 7.82824 15.1875 9ZM10.0765 2.90672L10.6875 4.00078L8.79539 5.71219L7.93477 6.1875H6.75985C6.56209 6.18721 6.36774 6.23905 6.19641 6.33781C6.02507 6.43656 5.88279 6.57873 5.78391 6.75L5.17008 7.82086L4.45641 5.91961L5.22563 4.10063C5.90649 3.57454 6.68974 3.19647 7.52518 2.99064C8.36063 2.7848 9.22986 2.75574 10.0772 2.90531L10.0765 2.90672ZM2.8125 9C2.81156 8.08033 3.01675 7.17213 3.41297 6.34219L4.21032 8.47055C4.27676 8.64677 4.38639 8.80349 4.52914 8.92633C4.67189 9.04918 4.84319 9.13423 5.02735 9.17367L6.53414 9.49781L6.80203 10.0547C6.895 10.2441 7.03909 10.4037 7.21801 10.5155C7.39692 10.6274 7.60355 10.6869 7.81453 10.6875H7.9186L7.41024 11.8287C7.32067 12.0296 7.29198 12.2524 7.32772 12.4695C7.36346 12.6866 7.46207 12.8884 7.61133 13.05L7.62117 13.0598L9 14.4802L8.8636 15.1833C7.24769 15.1457 5.71047 14.478 4.57996 13.3228C3.44945 12.1676 2.81518 10.6163 2.8125 9ZM10.0252 15.1017L10.1046 14.6932C10.1373 14.5196 10.1288 14.3409 10.08 14.1711C10.0312 14.0014 9.94327 13.8455 9.82336 13.7159C9.81991 13.7128 9.81662 13.7095 9.81352 13.706L8.4375 12.2864L9.40078 10.125L11.0053 10.3416L14.22 12.3187C13.7543 13.0502 13.1403 13.6758 12.4177 14.1551C11.6952 14.6345 10.8801 14.957 10.0252 15.1017Z" fill="url(#paint0_linear_8553_34118)"/>
<defs>
<linearGradient id="paint0_linear_8553_34118" x1="6.5" y1="3" x2="11.7256" y2="17.4182" gradientUnits="userSpaceOnUse">
<stop stop-color="#39B5D7"/>
<stop offset="0.502211" stop-color="#F7D544"/>
<stop offset="1" stop-color="#E38330"/>
</linearGradient>
</defs>
</svg>
