<svg width="19" height="18" viewBox="0 0 19 18" fill="none" xmlns="http://www.w3.org/2000/svg">
<path d="M10.1245 11.0868C11.0062 10.5375 11.6852 9.7161 12.0585 8.74667C12.4319 7.77724 12.4793 6.7126 12.1937 5.7138C11.9081 4.715 11.305 3.83639 10.4756 3.2109C9.64613 2.58541 8.63556 2.24707 7.59672 2.24707C6.55789 2.24707 5.54732 2.58541 4.7179 3.2109C3.88848 3.83639 3.28534 4.715 2.99973 5.7138C2.71412 6.7126 2.76158 7.77724 3.13493 8.74667C3.50828 9.7161 4.1872 10.5375 5.06899 11.0868C3.61704 11.5621 2.31063 12.4501 1.26016 13.7003C1.21094 13.7566 1.17344 13.8221 1.14984 13.893C1.12625 13.964 1.11703 14.0389 1.12273 14.1135C1.12844 14.188 1.14895 14.2607 1.18306 14.3272C1.21717 14.3937 1.26421 14.4528 1.32142 14.5009C1.37863 14.5491 1.44486 14.5853 1.51624 14.6076C1.58762 14.6298 1.66272 14.6376 1.73715 14.6305C1.81158 14.6234 1.88384 14.6015 1.94971 14.5661C2.01558 14.5308 2.07374 14.4826 2.12079 14.4245C3.53266 12.7398 5.47751 11.8124 7.59321 11.8124C9.70891 11.8124 11.6538 12.7398 13.0684 14.4245C13.1645 14.5388 13.302 14.6103 13.4507 14.6232C13.5995 14.6361 13.7473 14.5894 13.8616 14.4934C13.9759 14.3974 14.0474 14.2598 14.0603 14.1111C14.0732 13.9624 14.0265 13.8146 13.9305 13.7003C12.8793 12.4501 11.5729 11.5621 10.1245 11.0868ZM3.93696 7.03113C3.93696 6.30799 4.15139 5.6011 4.55315 4.99983C4.9549 4.39856 5.52593 3.92993 6.19402 3.6532C6.86211 3.37646 7.59726 3.30406 8.30651 3.44514C9.01575 3.58621 9.66723 3.93444 10.1786 4.44577C10.6899 4.95711 11.0381 5.60859 11.1792 6.31783C11.3203 7.02708 11.2479 7.76223 10.9711 8.43032C10.6944 9.09841 10.2258 9.66944 9.62451 10.0712C9.02324 10.4729 8.31635 10.6874 7.59321 10.6874C6.62385 10.6863 5.69452 10.3007 5.00908 9.61526C4.32364 8.92982 3.93808 8.00049 3.93696 7.03113ZM17.7358 10.0595L17.4081 9.87035C17.4466 9.66684 17.4466 9.45793 17.4081 9.25441L17.7358 9.06527C17.7998 9.02834 17.8559 8.97916 17.9008 8.92055C17.9458 8.86194 17.9788 8.79505 17.998 8.72368C18.0171 8.65232 18.022 8.57789 18.0123 8.50463C18.0027 8.43138 17.9787 8.36075 17.9418 8.29676C17.9049 8.23277 17.8557 8.17668 17.7971 8.1317C17.7385 8.08671 17.6716 8.05372 17.6002 8.03458C17.5288 8.01545 17.4544 8.01057 17.3812 8.0202C17.3079 8.02984 17.2373 8.05381 17.1733 8.09074L16.8449 8.28059C16.6878 8.14577 16.5071 8.04112 16.312 7.97191V7.59363C16.312 7.44445 16.2527 7.30137 16.1472 7.19588C16.0417 7.0904 15.8986 7.03113 15.7495 7.03113C15.6003 7.03113 15.4572 7.0904 15.3517 7.19588C15.2462 7.30137 15.187 7.44445 15.187 7.59363V7.97191C14.9918 8.04112 14.8111 8.14577 14.654 8.28059L14.3256 8.09074C14.2616 8.05381 14.191 8.02984 14.1178 8.0202C14.0445 8.01057 13.9701 8.01545 13.8987 8.03458C13.8273 8.05372 13.7604 8.08671 13.7018 8.1317C13.6432 8.17668 13.5941 8.23277 13.5571 8.29676C13.5202 8.36075 13.4962 8.43138 13.4866 8.50463C13.4769 8.57789 13.4818 8.65232 13.501 8.72368C13.5201 8.79505 13.5531 8.86194 13.5981 8.92055C13.6431 8.97916 13.6991 9.02834 13.7631 9.06527L14.0908 9.25441C14.0523 9.45793 14.0523 9.66684 14.0908 9.87035L13.7631 10.0595C13.6991 10.0964 13.6431 10.1456 13.5981 10.2042C13.5531 10.2628 13.5201 10.3297 13.501 10.4011C13.4818 10.4724 13.4769 10.5469 13.4866 10.6201C13.4962 10.6934 13.5202 10.764 13.5571 10.828C13.5941 10.892 13.6432 10.9481 13.7018 10.9931C13.7604 11.0381 13.8273 11.071 13.8987 11.0902C13.9701 11.1093 14.0445 11.1142 14.1178 11.1046C14.191 11.0949 14.2616 11.071 14.3256 11.034L14.654 10.8442C14.8111 10.979 14.9918 11.0836 15.187 11.1529V11.5311C15.187 11.6803 15.2462 11.8234 15.3517 11.9289C15.4572 12.0344 15.6003 12.0936 15.7495 12.0936C15.8986 12.0936 16.0417 12.0344 16.1472 11.9289C16.2527 11.8234 16.312 11.6803 16.312 11.5311V11.1529C16.5071 11.0836 16.6878 10.979 16.8449 10.8442L17.1733 11.034C17.2587 11.0836 17.3558 11.1096 17.4545 11.1093C17.5784 11.1093 17.6988 11.0685 17.7971 10.9931C17.8954 10.9177 17.966 10.812 17.9981 10.6923C18.0301 10.5727 18.0218 10.4458 17.9744 10.3314C17.927 10.2169 17.8431 10.1214 17.7358 10.0595ZM15.187 9.56238C15.187 9.45113 15.2199 9.34238 15.2818 9.24987C15.3436 9.15737 15.4314 9.08527 15.5342 9.0427C15.637 9.00013 15.7501 8.98899 15.8592 9.01069C15.9683 9.03239 16.0685 9.08597 16.1472 9.16463C16.2259 9.2433 16.2794 9.34353 16.3012 9.45264C16.3229 9.56176 16.3117 9.67486 16.2691 9.77764C16.2266 9.88042 16.1545 9.96828 16.062 10.0301C15.9695 10.0919 15.8607 10.1249 15.7495 10.1249C15.6003 10.1249 15.4572 10.0656 15.3517 9.96013C15.2462 9.85464 15.187 9.71157 15.187 9.56238Z" fill="url(#paint0_linear_8553_34675)"/>
<defs>
<linearGradient id="paint0_linear_8553_34675" x1="2.99902" y1="5.5" x2="15.4817" y2="13.0288" gradientUnits="userSpaceOnUse">
<stop stop-color="#39B5D7"/>
<stop offset="0.502211" stop-color="#F7D544"/>
<stop offset="1" stop-color="#E38330"/>
</linearGradient>
</defs>
</svg>
