<svg width="48" height="48" viewBox="0 0 48 48" fill="none" xmlns="http://www.w3.org/2000/svg">
<path d="M-3.8147e-05 0H47.9971V48H-3.8147e-05V0Z" fill="#8F1737"/>
<path d="M3.7583 10.6839C3.7583 10.1715 3.84882 9.72724 4.02936 9.35031C4.21039 8.97387 4.4775 8.69538 4.83165 8.51433C4.55268 8.31103 4.32713 8.03797 4.15351 7.69517C3.98039 7.35237 3.89383 6.93636 3.89383 6.44665C3.89383 5.69328 4.09317 5.1076 4.49283 4.68961C4.892 4.27113 5.46429 4.06238 6.21019 4.06238C6.9556 4.06238 7.52443 4.26964 7.91618 4.68367C8.30793 5.0982 8.5038 5.67448 8.5038 6.41252C8.5038 6.92499 8.4207 7.35435 8.255 7.70061C8.0893 8.04737 7.86721 8.31845 7.58873 8.51433C7.94239 8.69538 8.20999 8.98129 8.39053 9.37307C8.57156 9.76484 8.66208 10.2283 8.66208 10.7631C8.66208 11.6144 8.46621 12.2767 8.07446 12.7516C7.68271 13.2265 7.06145 13.4634 6.21019 13.4634C4.57543 13.4634 3.7583 12.5369 3.7583 10.6839ZM6.80326 11.7628C6.90515 11.4957 6.9556 11.1583 6.9556 10.7517C6.9556 10.2996 6.90515 9.94193 6.80326 9.67827C6.70136 9.41462 6.504 9.28254 6.21019 9.28254C5.91638 9.28254 5.71853 9.4166 5.61713 9.68371C5.51523 9.95133 5.46429 10.3075 5.46429 10.7517C5.46429 11.1583 5.51523 11.4957 5.61713 11.7628C5.71853 12.0304 5.91638 12.1639 6.21019 12.1639C6.504 12.1639 6.70136 12.0304 6.80326 11.7628ZM6.8542 6.44665C6.8542 6.11522 6.80128 5.85305 6.69592 5.66112C6.59056 5.4692 6.42832 5.37323 6.21019 5.37323C5.99156 5.37323 5.82586 5.4692 5.71309 5.66112C5.59982 5.85305 5.54343 6.11522 5.54343 6.44665C5.54343 7.38848 5.76552 7.85891 6.21019 7.85891C6.63953 7.85891 6.8542 7.38848 6.8542 6.44665Z" fill="white"/>
<path fill-rule="evenodd" clip-rule="evenodd" d="M33.4287 23.6128C33.7487 23.2947 33.8689 23.5762 33.8689 23.7305V42.0429C33.8689 42.1962 33.7442 42.3219 33.5904 42.3219H28.5279C28.3735 42.3219 28.2479 42.1962 28.2479 42.0429V28.9754C28.2479 28.595 28.3429 28.4595 28.5279 28.2755L33.4287 23.6128ZM19.3099 29.6872C19.6284 29.3677 19.7501 29.6496 19.7501 29.804V42.0429C19.7501 42.1952 19.6255 42.3209 19.4711 42.3209H14.4086C14.2543 42.3209 14.1291 42.1952 14.1291 42.0429V35.0489C14.1291 34.6685 14.2241 34.5334 14.4086 34.3489L19.3099 29.6872ZM35.6565 17.9588L35.6545 17.9998L34.83 21.831L34.8295 21.8434C34.828 21.877 34.8151 21.9092 34.7884 21.9354C34.734 21.9913 34.6435 21.9913 34.5886 21.9354L33.6884 21.0361L24.0376 30.6874C23.9931 30.7324 23.9218 30.7324 23.8778 30.6874L22.8119 29.6224C22.8069 29.6185 22.8055 29.6135 22.8025 29.6091L19.9524 26.7588L13.7354 32.9747C13.6914 33.0193 13.6201 33.0193 13.5766 32.9747L12.5097 31.9083C12.4662 31.8647 12.4662 31.7925 12.5097 31.7485L18.8054 25.4534C18.8054 25.4534 18.8054 25.4519 18.8064 25.4519L19.8718 24.3859C19.9168 24.3414 19.987 24.3414 20.0316 24.3859L23.9589 28.314L32.4627 19.8098L31.6055 18.9531L31.5629 18.9105C31.508 18.8546 31.508 18.7646 31.5629 18.7087C31.5842 18.6889 31.6094 18.6756 31.6361 18.6706L31.7044 18.6632L35.4572 17.8168L35.4972 17.8143L35.5244 17.8129C35.5561 17.8158 35.5892 17.8272 35.6149 17.8524C35.6451 17.8816 35.6585 17.9217 35.6565 17.9588ZM26.397 30.5054C26.7447 30.1571 26.8664 30.4396 26.8664 30.5939V42.0424C26.8664 42.1952 26.7412 42.3209 26.5879 42.3209H21.5239C21.37 42.3209 21.2464 42.1952 21.2464 42.0424V30.7804C21.2464 30.6266 21.3315 30.3085 21.7247 30.7008L23.8729 32.8907C23.9149 32.9322 23.9807 32.9337 24.0257 32.8966L26.397 30.5054Z" fill="white"/>
<path d="M12.0967 7.66695V4.16919H12.9214C13.2064 4.16919 13.4266 4.20805 13.5864 4.28578C13.7461 4.36351 13.8627 4.48442 13.9275 4.64419C13.9966 4.80397 14.0311 5.01124 14.0311 5.25738V6.53558C14.0311 6.79035 13.9966 7.00194 13.9275 7.17035C13.8627 7.33877 13.7505 7.46399 13.5907 7.54604C13.4352 7.62809 13.2193 7.66695 12.9473 7.66695H12.0967ZM12.7357 7.22217H12.93C13.0769 7.22217 13.1805 7.19626 13.2453 7.14445C13.31 7.09263 13.3489 7.01922 13.3618 6.9199C13.3748 6.82058 13.3834 6.69535 13.3834 6.55285V5.2142C13.3834 5.0717 13.3748 4.95942 13.3532 4.87306C13.3316 4.7867 13.2928 4.72192 13.228 4.68306C13.1632 4.64419 13.0639 4.6226 12.9214 4.6226H12.7357V7.22217Z" fill="white"/>
<path d="M14.3809 7.66695V4.16919H15.849V4.61828H15.0199V5.62443H15.6719V6.06921H15.0199V7.22649H15.8576V7.66695H14.3809Z" fill="white"/>
<path d="M17.0495 7.71437C16.7948 7.71437 16.5918 7.66256 16.445 7.56324C16.3025 7.46392 16.1989 7.32573 16.1428 7.153C16.0866 6.97596 16.0564 6.77732 16.0564 6.54845V5.30049C16.0564 5.06299 16.0866 4.85571 16.1428 4.67866C16.1989 4.50162 16.3025 4.36775 16.445 4.27275C16.5918 4.17775 16.7948 4.13025 17.0495 4.13025C17.2913 4.13025 17.4813 4.17343 17.6152 4.25548C17.7533 4.33752 17.8527 4.45412 17.9088 4.60525C17.9649 4.75639 17.9952 4.93344 17.9952 5.13639V5.43003H17.382V5.12776C17.382 5.02844 17.3777 4.94207 17.3647 4.86003C17.3561 4.77798 17.3302 4.71753 17.2827 4.67003C17.2395 4.62253 17.1618 4.59662 17.0538 4.59662C16.9459 4.59662 16.8639 4.62253 16.812 4.67435C16.7645 4.72185 16.73 4.79094 16.717 4.8773C16.7041 4.95935 16.6955 5.05435 16.6955 5.1623V6.68232C16.6955 6.80755 16.7041 6.9155 16.7257 6.99755C16.7473 7.0796 16.7818 7.14005 16.8336 7.18323C16.8898 7.2221 16.9632 7.24369 17.0538 7.24369C17.1618 7.24369 17.2352 7.21778 17.2784 7.17028C17.3259 7.11846 17.3518 7.04937 17.3647 6.96732C17.3777 6.88528 17.382 6.79027 17.382 6.68664V6.37141H17.9952V6.65209C17.9952 6.85937 17.9692 7.04505 17.9131 7.20482C17.857 7.3646 17.762 7.48983 17.6238 7.58051C17.49 7.67119 17.2956 7.71437 17.0495 7.71437Z" fill="white"/>
<path d="M18.3188 7.66695V4.16919H19.7869V4.61828H18.9579V5.62443H19.6099V6.06921H18.9579V7.22649H19.7956V7.66695H18.3188Z" fill="white"/>
<path d="M20.0461 7.66695V4.16919H20.4909L21.3415 6.16421V4.16919H21.8683V7.66695H21.4452L20.5902 5.57693V7.66695H20.0461Z" fill="white"/>
<path d="M22.6283 7.66695V4.63988H22.0713V4.16919H23.8157V4.63988H23.2674V7.66695H22.6283Z" fill="white"/>
<path d="M25.3096 7.66695L24.813 4.16919H25.3484L25.6377 6.43626L26.0004 4.17783H26.4365L26.8079 6.43626L27.0929 4.16919H27.6197L27.1317 7.66695H26.6136L26.225 5.32216L25.8407 7.66695H25.3096Z" fill="white"/>
<path d="M28.8419 7.71437C28.5957 7.71437 28.3971 7.66687 28.2503 7.57619C28.1035 7.48551 27.9999 7.35164 27.9351 7.17891C27.8703 7.00619 27.8401 6.80323 27.8401 6.56573V5.25731C27.8401 5.0198 27.8703 4.82116 27.9351 4.65275C27.9999 4.48434 28.1035 4.3548 28.2503 4.26411C28.3971 4.17343 28.5957 4.13025 28.8419 4.13025C29.0966 4.13025 29.2952 4.17343 29.4377 4.26411C29.5845 4.3548 29.6882 4.48434 29.7529 4.65275C29.8177 4.82116 29.8522 5.0198 29.8522 5.25731V6.57004C29.8522 6.80323 29.8177 7.00619 29.7529 7.17891C29.6882 7.34732 29.5845 7.48119 29.4377 7.57619C29.2952 7.66687 29.0966 7.71437 28.8419 7.71437ZM28.8419 7.24369C28.9498 7.24369 29.0275 7.2221 29.075 7.1746C29.1268 7.1271 29.1614 7.06664 29.1787 6.98459C29.1959 6.90255 29.2046 6.81618 29.2046 6.72118V5.11049C29.2046 5.01117 29.1959 4.9248 29.1787 4.84707C29.1614 4.76935 29.1268 4.70889 29.075 4.66571C29.0275 4.61821 28.9498 4.59662 28.8419 4.59662C28.7425 4.59662 28.6648 4.61821 28.613 4.66571C28.5612 4.70889 28.5266 4.76935 28.5094 4.84707C28.4921 4.9248 28.4835 5.01117 28.4835 5.11049V6.72118C28.4835 6.81618 28.4921 6.90255 28.5051 6.98459C28.5223 7.06664 28.5569 7.1271 28.6087 7.1746C28.6605 7.2221 28.7382 7.24369 28.8419 7.24369Z" fill="white"/>
<path d="M30.2019 7.66695V4.16919H31.0396C31.2771 4.16919 31.4757 4.19942 31.6355 4.25555C31.7995 4.31169 31.9248 4.40669 32.0068 4.54056C32.0932 4.67442 32.1363 4.86011 32.1363 5.09329C32.1363 5.23579 32.1234 5.36102 32.0975 5.47329C32.0716 5.58557 32.0284 5.68057 31.9636 5.76261C31.9032 5.84034 31.8168 5.9008 31.7089 5.94398L32.1968 7.66695H31.5577L31.1346 6.06489H30.841V7.66695H30.2019ZM30.841 5.66329H31.0396C31.1648 5.66329 31.2598 5.64602 31.3332 5.61148C31.4066 5.57261 31.4627 5.51648 31.493 5.43875C31.5232 5.3567 31.5405 5.25738 31.5405 5.13215C31.5405 4.95511 31.5059 4.82556 31.4412 4.73919C31.3764 4.64851 31.2555 4.60533 31.0741 4.60533H30.841V5.66329Z" fill="white"/>
<path d="M32.5034 7.66695V4.16919H33.1425V5.70648L33.8333 4.16919H34.4422L33.7729 5.73239L34.5113 7.66695H33.8765L33.2893 6.07353L33.1425 6.34126V7.66695H32.5034Z" fill="white"/>
<path d="M35.4309 7.66695L36.1304 4.16919H36.8126L37.5122 7.66695H36.9206L36.7824 6.85944H36.1736L36.0311 7.66695H35.4309ZM36.2384 6.45353H36.7133L36.4759 4.98533L36.2384 6.45353Z" fill="white"/>
<path d="M37.741 7.66695V4.16919H38.1857L39.0363 6.16421V4.16919H39.5631V7.66695H39.14L38.285 5.57693V7.66695H37.741Z" fill="white"/>
<path d="M39.9734 7.66695V4.16919H40.7981C41.0831 4.16919 41.3033 4.20805 41.4631 4.28578C41.6228 4.36351 41.7394 4.48442 41.8042 4.64419C41.8733 4.80397 41.9078 5.01124 41.9078 5.25738V6.53558C41.9078 6.79035 41.8733 7.00194 41.8042 7.17035C41.7394 7.33877 41.6272 7.46399 41.4674 7.54604C41.312 7.62809 41.0961 7.66695 40.824 7.66695H39.9734ZM40.6124 7.22217H40.8068C40.9536 7.22217 41.0572 7.19626 41.122 7.14445C41.1867 7.09263 41.2256 7.01922 41.2385 6.9199C41.2515 6.82058 41.2601 6.69535 41.2601 6.55285V5.2142C41.2601 5.0717 41.2515 4.95942 41.2299 4.87306C41.2083 4.7867 41.1695 4.72192 41.1047 4.68306C41.0399 4.64419 40.9406 4.6226 40.7981 4.6226H40.6124V7.22217Z" fill="white"/>
<path d="M12.0967 13.3831V9.88531H13.5648V10.3344H12.7357V11.3406H13.3877V11.7853H12.7357V12.9426H13.5734V13.3831H12.0967Z" fill="white"/>
<path d="M14.7954 13.4306C14.5406 13.4306 14.3377 13.3787 14.1909 13.2794C14.0484 13.1801 13.9447 13.0419 13.8886 12.8692C13.8325 12.6921 13.8022 12.4935 13.8022 12.2646V11.0167C13.8022 10.7792 13.8325 10.5719 13.8886 10.3948C13.9447 10.2178 14.0484 10.0839 14.1909 9.98894C14.3377 9.89394 14.5406 9.84644 14.7954 9.84644C15.0372 9.84644 15.2272 9.88962 15.361 9.97166C15.4992 10.0537 15.5985 10.1703 15.6546 10.3214C15.7108 10.4726 15.741 10.6496 15.741 10.8526V11.1462H15.1279V10.8439C15.1279 10.7446 15.1235 10.6583 15.1106 10.5762C15.1019 10.4942 15.076 10.4337 15.0285 10.3862C14.9854 10.3387 14.9076 10.3128 14.7997 10.3128C14.6917 10.3128 14.6097 10.3387 14.5579 10.3905C14.5104 10.438 14.4758 10.5071 14.4629 10.5935C14.4499 10.6755 14.4413 10.7705 14.4413 10.8785V12.3985C14.4413 12.5237 14.4499 12.6317 14.4715 12.7137C14.4931 12.7958 14.5277 12.8562 14.5795 12.8994C14.6356 12.9383 14.709 12.9599 14.7997 12.9599C14.9076 12.9599 14.981 12.934 15.0242 12.8865C15.0717 12.8346 15.0976 12.7656 15.1106 12.6835C15.1235 12.6015 15.1279 12.5065 15.1279 12.4028V12.0876H15.741V12.3683C15.741 12.5756 15.7151 12.7612 15.659 12.921C15.6028 13.0808 15.5078 13.206 15.3697 13.2967C15.2358 13.3874 15.0415 13.4306 14.7954 13.4306Z" fill="white"/>
<path d="M17.045 13.4306C16.7989 13.4306 16.6002 13.3831 16.4534 13.2924C16.3066 13.2017 16.203 13.0678 16.1382 12.8951C16.0734 12.7224 16.0432 12.5194 16.0432 12.2819V10.9735C16.0432 10.736 16.0734 10.5374 16.1382 10.3689C16.203 10.2005 16.3066 10.071 16.4534 9.9803C16.6002 9.88962 16.7989 9.84644 17.045 9.84644C17.2997 9.84644 17.4984 9.88962 17.6409 9.9803C17.7877 10.071 17.8913 10.2005 17.9561 10.3689C18.0208 10.5374 18.0554 10.736 18.0554 10.9735V12.2862C18.0554 12.5194 18.0208 12.7224 17.9561 12.8951C17.8913 13.0635 17.7877 13.1974 17.6409 13.2924C17.4984 13.3831 17.2997 13.4306 17.045 13.4306ZM17.045 12.9599C17.1529 12.9599 17.2306 12.9383 17.2781 12.8908C17.33 12.8433 17.3645 12.7828 17.3818 12.7008C17.399 12.6187 17.4077 12.5324 17.4077 12.4374V10.8267C17.4077 10.7274 17.399 10.641 17.3818 10.5633C17.3645 10.4855 17.33 10.4251 17.2781 10.3819C17.2306 10.3344 17.1529 10.3128 17.045 10.3128C16.9457 10.3128 16.8679 10.3344 16.8161 10.3819C16.7643 10.4251 16.7298 10.4855 16.7125 10.5633C16.6952 10.641 16.6866 10.7274 16.6866 10.8267V12.4374C16.6866 12.5324 16.6952 12.6187 16.7082 12.7008C16.7254 12.7828 16.76 12.8433 16.8118 12.8908C16.8636 12.9383 16.9413 12.9599 17.045 12.9599Z" fill="white"/>
<path d="M18.4353 13.3831V9.88531H18.8801L19.7307 11.8803V9.88531H20.2575V13.3831H19.8343L18.9794 11.2931V13.3831H18.4353Z" fill="white"/>
<path d="M21.648 13.4306C21.4019 13.4306 21.2033 13.3831 21.0564 13.2924C20.9096 13.2017 20.806 13.0678 20.7412 12.8951C20.6765 12.7224 20.6462 12.5194 20.6462 12.2819V10.9735C20.6462 10.736 20.6765 10.5374 20.7412 10.3689C20.806 10.2005 20.9096 10.071 21.0564 9.9803C21.2033 9.88962 21.4019 9.84644 21.648 9.84644C21.9028 9.84644 22.1014 9.88962 22.2439 9.9803C22.3907 10.071 22.4943 10.2005 22.5591 10.3689C22.6239 10.5374 22.6584 10.736 22.6584 10.9735V12.2862C22.6584 12.5194 22.6239 12.7224 22.5591 12.8951C22.4943 13.0635 22.3907 13.1974 22.2439 13.2924C22.1014 13.3831 21.9028 13.4306 21.648 13.4306ZM21.648 12.9599C21.756 12.9599 21.8337 12.9383 21.8812 12.8908C21.933 12.8433 21.9675 12.7828 21.9848 12.7008C22.0021 12.6187 22.0107 12.5324 22.0107 12.4374V10.8267C22.0107 10.7274 22.0021 10.641 21.9848 10.5633C21.9675 10.4855 21.933 10.4251 21.8812 10.3819C21.8337 10.3344 21.756 10.3128 21.648 10.3128C21.5487 10.3128 21.471 10.3344 21.4192 10.3819C21.3673 10.4251 21.3328 10.4855 21.3155 10.5633C21.2982 10.641 21.2896 10.7274 21.2896 10.8267V12.4374C21.2896 12.5324 21.2982 12.6187 21.3112 12.7008C21.3285 12.7828 21.363 12.8433 21.4148 12.8908C21.4666 12.9383 21.5444 12.9599 21.648 12.9599Z" fill="white"/>
<path d="M23.0298 13.3831L23.0902 9.88531H23.7509L24.2474 12.3078L24.7656 9.88531H25.4047L25.4694 13.3831H24.9944L24.9426 10.9519L24.4461 13.3831H24.0618L23.5566 10.9433L23.5091 13.3831H23.0298Z" fill="white"/>
<path d="M26.5447 9.88519H25.9143V13.383H26.5447V9.88519Z" fill="white"/>
<path d="M27.935 13.4306C27.6803 13.4306 27.4773 13.3787 27.3305 13.2794C27.188 13.1801 27.0844 13.0419 27.0283 12.8692C26.9721 12.6921 26.9419 12.4935 26.9419 12.2646V11.0167C26.9419 10.7792 26.9721 10.5719 27.0283 10.3948C27.0844 10.2178 27.188 10.0839 27.3305 9.98894C27.4773 9.89394 27.6803 9.84644 27.935 9.84644C28.1768 9.84644 28.3668 9.88962 28.5007 9.97166C28.6388 10.0537 28.7382 10.1703 28.7943 10.3214C28.8504 10.4726 28.8807 10.6496 28.8807 10.8526V11.1462H28.2675V10.8439C28.2675 10.7446 28.2632 10.6583 28.2502 10.5762C28.2416 10.4942 28.2157 10.4337 28.1682 10.3862C28.125 10.3387 28.0473 10.3128 27.9393 10.3128C27.8314 10.3128 27.7493 10.3387 27.6975 10.3905C27.65 10.438 27.6155 10.5071 27.6025 10.5935C27.5896 10.6755 27.5809 10.7705 27.5809 10.8785V12.3985C27.5809 12.5237 27.5896 12.6317 27.6112 12.7137C27.6328 12.7958 27.6673 12.8562 27.7191 12.8994C27.7753 12.9383 27.8487 12.9599 27.9393 12.9599C28.0473 12.9599 28.1207 12.934 28.1639 12.8865C28.2114 12.8346 28.2373 12.7656 28.2502 12.6835C28.2632 12.6015 28.2675 12.5065 28.2675 12.4028V12.0876H28.8807V12.3683C28.8807 12.5756 28.8547 12.7612 28.7986 12.921C28.7425 13.0808 28.6475 13.206 28.5093 13.2967C28.3755 13.3874 28.1811 13.4306 27.935 13.4306Z" fill="white"/>
<path d="M31.0697 13.4306C30.8409 13.4306 30.6552 13.3831 30.5213 13.2837C30.3875 13.1844 30.2882 13.0462 30.2277 12.8692C30.1716 12.6878 30.1414 12.4762 30.1414 12.2301V11.0555C30.1414 10.8051 30.1716 10.5892 30.2277 10.4078C30.2838 10.2264 30.3875 10.0883 30.53 9.99326C30.6768 9.89394 30.8797 9.84644 31.1345 9.84644C31.372 9.84644 31.562 9.8853 31.7045 9.96735C31.8469 10.0494 31.9463 10.166 32.0067 10.3171C32.0715 10.4683 32.1017 10.6496 32.1017 10.8655V11.0469H31.4929V10.8483C31.4929 10.736 31.4842 10.641 31.467 10.5589C31.454 10.4769 31.4195 10.4164 31.372 10.3776C31.3245 10.3344 31.2511 10.3128 31.1431 10.3128C31.0309 10.3128 30.9488 10.3387 30.897 10.3948C30.8495 10.451 30.815 10.5201 30.802 10.6108C30.789 10.7014 30.7847 10.7964 30.7847 10.9044V12.3683C30.7847 12.4892 30.7934 12.5928 30.815 12.6835C30.8365 12.7742 30.8711 12.8433 30.9272 12.8908C30.9834 12.9383 31.0611 12.9599 31.1604 12.9599C31.264 12.9599 31.3417 12.934 31.3979 12.8821C31.454 12.8303 31.4886 12.7569 31.5101 12.6662C31.5317 12.5756 31.5447 12.4633 31.5447 12.3381V12.0099H31.169V11.6083H32.119V13.3831H31.7088L31.6613 13.0376C31.6138 13.1542 31.5447 13.2492 31.4497 13.3226C31.359 13.396 31.2295 13.4306 31.0697 13.4306Z" fill="white"/>
<path d="M32.5164 13.3831V9.88531H33.354C33.5915 9.88531 33.7902 9.91554 33.9499 9.97168C34.114 10.0278 34.2392 10.1228 34.3213 10.2567C34.4076 10.3905 34.4508 10.5762 34.4508 10.8094C34.4508 10.9519 34.4378 11.0771 34.4119 11.1894C34.386 11.3017 34.3428 11.3967 34.2781 11.4787C34.2176 11.5565 34.1313 11.6169 34.0233 11.6601L34.5112 13.3831H33.8722L33.449 11.781H33.1554V13.3831H32.5164ZM33.1554 11.3794H33.354C33.4793 11.3794 33.5743 11.3621 33.6477 11.3276C33.7211 11.2887 33.7772 11.2326 33.8074 11.1549C33.8376 11.0728 33.8549 10.9735 33.8549 10.8483C33.8549 10.6712 33.8204 10.5417 33.7556 10.4553C33.6908 10.3646 33.5699 10.3215 33.3886 10.3215H33.1554V11.3794Z" fill="white"/>
<path d="M35.785 13.4306C35.5388 13.4306 35.3402 13.3831 35.1934 13.2924C35.0466 13.2017 34.943 13.0678 34.8782 12.8951C34.8134 12.7224 34.7832 12.5194 34.7832 12.2819V10.9735C34.7832 10.736 34.8134 10.5374 34.8782 10.3689C34.943 10.2005 35.0466 10.071 35.1934 9.9803C35.3402 9.88962 35.5388 9.84644 35.785 9.84644C36.0397 9.84644 36.2383 9.88962 36.3808 9.9803C36.5277 10.071 36.6313 10.2005 36.6961 10.3689C36.7608 10.5374 36.7954 10.736 36.7954 10.9735V12.2862C36.7954 12.5194 36.7608 12.7224 36.6961 12.8951C36.6313 13.0635 36.5277 13.1974 36.3808 13.2924C36.2383 13.3831 36.0397 13.4306 35.785 13.4306ZM35.785 12.9599C35.8929 12.9599 35.9706 12.9383 36.0181 12.8908C36.07 12.8433 36.1045 12.7828 36.1218 12.7008C36.139 12.6187 36.1477 12.5324 36.1477 12.4374V10.8267C36.1477 10.7274 36.139 10.641 36.1218 10.5633C36.1045 10.4855 36.07 10.4251 36.0181 10.3819C35.9706 10.3344 35.8929 10.3128 35.785 10.3128C35.6857 10.3128 35.6079 10.3344 35.5561 10.3819C35.5043 10.4251 35.4698 10.4855 35.4525 10.5633C35.4352 10.641 35.4266 10.7274 35.4266 10.8267V12.4374C35.4266 12.5324 35.4352 12.6187 35.4482 12.7008C35.4654 12.7828 35.5 12.8433 35.5518 12.8908C35.6036 12.9383 35.6813 12.9599 35.785 12.9599Z" fill="white"/>
<path d="M37.5425 13.3831L37.0459 9.88531H37.5813L37.8706 12.1524L38.2333 9.89395H38.6694L39.0408 12.1524L39.3258 9.88531H39.8526L39.3646 13.3831H38.8465L38.4579 11.0383L38.0736 13.3831H37.5425Z" fill="white"/>
<path d="M40.5087 13.3831V10.356H39.9517V9.88531H41.6961V10.356H41.1477V13.3831H40.5087Z" fill="white"/>
<path d="M41.9336 13.3831V9.88531H42.5683V11.3492H43.2851V9.88531H43.9198V13.3831H43.2851V11.8026H42.5683V13.3831H41.9336Z" fill="white"/>
</svg>
