<svg width="48" height="48" viewBox="0 0 48 48" fill="none" xmlns="http://www.w3.org/2000/svg">
<path d="M-4.57764e-05 0H47.9971V48H-4.57764e-05V0Z" fill="#E01583"/>
<path d="M4.18201 5.98298C4.09891 6.02799 3.85802 6.12247 3.45886 6.26543C3.14229 6.37129 2.94296 6.44252 2.86035 6.48011V5.18063C3.11608 5.08269 3.42671 4.93231 3.79224 4.72901C4.15728 4.52521 4.41547 4.3407 4.56634 4.17499H5.9335V13.3277H4.18201V5.98298Z" fill="white"/>
<path d="M7.46411 12.7686C7.04614 12.2903 6.83691 11.6482 6.83691 10.8419V6.74019C6.83691 5.90421 7.04021 5.2473 7.44729 4.76896C7.85388 4.29013 8.46772 4.05121 9.2888 4.05121C10.1025 4.05121 10.7124 4.29013 11.1194 4.76896C11.526 5.2473 11.7293 5.90421 11.7293 6.74019V10.8419C11.7293 11.6408 11.5186 12.2809 11.0967 12.7632C10.6748 13.2455 10.0723 13.4864 9.2888 13.4864C8.49047 13.4864 7.88207 13.247 7.46411 12.7686ZM9.95557 10.8083V6.77432C9.95557 6.43548 9.91204 6.15303 9.82548 5.92697C9.73892 5.70091 9.55986 5.58812 9.2888 5.58812C9.00241 5.58812 8.81792 5.69893 8.73531 5.92103C8.65221 6.14363 8.61116 6.42806 8.61116 6.77432V10.8083C8.61116 11.5691 8.83671 11.9495 9.2888 11.9495C9.73298 11.9495 9.95557 11.5691 9.95557 10.8083Z" fill="white"/>
<path fill-rule="evenodd" clip-rule="evenodd" d="M28.4175 31.497C28.4719 31.497 28.5144 31.5455 28.5144 31.6043V34.2612C28.5144 34.321 28.4719 34.369 28.4175 34.369H19.5779C19.525 34.369 19.482 34.321 19.482 34.2612V31.6043C19.482 31.5455 19.525 31.497 19.5779 31.497H28.4175ZM28.4175 25.844C28.4719 25.844 28.5144 25.8925 28.5144 25.9513V28.6082C28.5144 28.668 28.4719 28.716 28.4175 28.716H19.5779C19.525 28.716 19.482 28.668 19.482 28.6082V25.9513C19.482 25.8925 19.525 25.844 19.5779 25.844H28.4175ZM28.2933 21.8283C28.3393 21.8743 28.3067 21.9535 28.2414 21.9535H19.7555C19.6902 21.9535 19.6576 21.8743 19.704 21.8283L23.9465 17.5851C23.9752 17.5564 24.0217 17.5564 24.0504 17.5851L28.2933 21.8283ZM32.2761 34.4016C32.2301 34.4476 32.151 34.415 32.151 34.3497V25.8633C32.151 25.798 32.2301 25.7653 32.2761 25.8118L36.5191 30.0545C36.5478 30.0832 36.5478 30.1297 36.5191 30.1584L32.2761 34.4016ZM19.7036 38.3851C19.6576 38.3391 19.6902 38.26 19.7555 38.26H28.2414C28.3067 38.26 28.3393 38.3391 28.2928 38.3851L24.0499 42.6284C24.0217 42.657 23.9752 42.657 23.9465 42.6284L19.7036 38.3851ZM15.7203 25.8113C15.7663 25.7653 15.8454 25.798 15.8454 25.8633V34.3497C15.8454 34.415 15.7663 34.4476 15.7203 34.4011L11.4773 30.1579C11.4486 30.1297 11.4486 30.0832 11.4773 30.0545L15.7203 25.8113Z" fill="white"/>
<path d="M15.3564 7.66695V4.16919H16.1941C16.4316 4.16919 16.6302 4.19942 16.79 4.25555C16.9541 4.31169 17.0793 4.40669 17.1613 4.54056C17.2477 4.67442 17.2909 4.86011 17.2909 5.09329C17.2909 5.23579 17.2779 5.36102 17.252 5.47329C17.2261 5.58557 17.1829 5.68057 17.1182 5.76261C17.0577 5.84034 16.9714 5.9008 16.8634 5.94398L17.3513 7.66695H16.7123L16.2891 6.06489H15.9955V7.66695H15.3564ZM15.9955 5.66329H16.1941C16.3193 5.66329 16.4143 5.64602 16.4877 5.61148C16.5612 5.57261 16.6173 5.51648 16.6475 5.43875C16.6777 5.3567 16.695 5.25738 16.695 5.13215C16.695 4.95511 16.6605 4.82556 16.5957 4.73919C16.5309 4.64851 16.41 4.60533 16.2287 4.60533H15.9955V5.66329Z" fill="white"/>
<path d="M17.6577 7.66695V4.16919H19.1258V4.61828H18.2968V5.62443H18.9488V6.06921H18.2968V7.22649H19.1345V7.66695H17.6577Z" fill="white"/>
<path d="M19.385 7.66695V4.16919H20.2097C20.4947 4.16919 20.7149 4.20805 20.8747 4.28578C21.0345 4.36351 21.151 4.48442 21.2158 4.64419C21.2849 4.80397 21.3194 5.01124 21.3194 5.25738V6.53558C21.3194 6.79035 21.2849 7.00194 21.2158 7.17035C21.151 7.33877 21.0388 7.46399 20.879 7.54604C20.7236 7.62809 20.5077 7.66695 20.2356 7.66695H19.385ZM20.0241 7.22217H20.2184C20.3652 7.22217 20.4688 7.19626 20.5336 7.14445C20.5984 7.09263 20.6372 7.01922 20.6502 6.9199C20.6631 6.82058 20.6718 6.69535 20.6718 6.55285V5.2142C20.6718 5.0717 20.6631 4.95942 20.6415 4.87306C20.6199 4.7867 20.5811 4.72192 20.5163 4.68306C20.4515 4.64419 20.3522 4.6226 20.2097 4.6226H20.0241V7.22217Z" fill="white"/>
<path d="M22.628 7.71445C22.369 7.71445 22.166 7.66695 22.0235 7.57195C21.881 7.47695 21.7817 7.34308 21.7256 7.16604C21.6695 6.98899 21.6436 6.78171 21.6436 6.53558V4.16919H22.2653V6.60899C22.2653 6.71694 22.274 6.82058 22.2869 6.9199C22.2999 7.0149 22.3344 7.09263 22.3862 7.15308C22.4424 7.20922 22.5201 7.23945 22.628 7.23945C22.7403 7.23945 22.8224 7.20922 22.8699 7.15308C22.9217 7.09263 22.9562 7.0149 22.9692 6.9199C22.9864 6.82058 22.9951 6.71694 22.9951 6.60899V4.16919H23.6125V6.53558C23.6125 6.78171 23.5866 6.98899 23.5305 7.16604C23.4744 7.34308 23.375 7.47695 23.2326 7.57195C23.0901 7.66695 22.8914 7.71445 22.628 7.71445Z" fill="white"/>
<path d="M24.9338 7.71437C24.679 7.71437 24.4761 7.66256 24.3293 7.56324C24.1868 7.46392 24.0832 7.32573 24.027 7.153C23.9709 6.97596 23.9407 6.77732 23.9407 6.54845V5.30049C23.9407 5.06299 23.9709 4.85571 24.027 4.67866C24.0832 4.50162 24.1868 4.36775 24.3293 4.27275C24.4761 4.17775 24.679 4.13025 24.9338 4.13025C25.1756 4.13025 25.3656 4.17343 25.4995 4.25548C25.6376 4.33752 25.7369 4.45412 25.7931 4.60525C25.8492 4.75639 25.8794 4.93344 25.8794 5.13639V5.43003H25.2663V5.12776C25.2663 5.02844 25.262 4.94207 25.249 4.86003C25.2404 4.77798 25.2145 4.71753 25.167 4.67003C25.1238 4.62253 25.0461 4.59662 24.9381 4.59662C24.8302 4.59662 24.7481 4.62253 24.6963 4.67435C24.6488 4.72185 24.6143 4.79094 24.6013 4.8773C24.5884 4.95935 24.5797 5.05435 24.5797 5.1623V6.68232C24.5797 6.80755 24.5884 6.9155 24.61 6.99755C24.6315 7.0796 24.6661 7.14005 24.7179 7.18323C24.774 7.2221 24.8474 7.24369 24.9381 7.24369C25.0461 7.24369 25.1195 7.21778 25.1627 7.17028C25.2101 7.11846 25.2361 7.04937 25.249 6.96732C25.262 6.88528 25.2663 6.79027 25.2663 6.68664V6.37141H25.8794V6.65209C25.8794 6.85937 25.8535 7.04505 25.7974 7.20482C25.7413 7.3646 25.6463 7.48983 25.5081 7.58051C25.3742 7.67119 25.1799 7.71437 24.9338 7.71437Z" fill="white"/>
<path d="M26.2031 7.66695V4.16919H27.6712V4.61828H26.8422V5.62443H27.4942V6.06921H26.8422V7.22649H27.6799V7.66695H26.2031Z" fill="white"/>
<path d="M27.9304 7.66695V4.16919H28.7551C29.0401 4.16919 29.2603 4.20805 29.4201 4.28578C29.5799 4.36351 29.6965 4.48442 29.7612 4.64419C29.8303 4.80397 29.8649 5.01124 29.8649 5.25738V6.53558C29.8649 6.79035 29.8303 7.00194 29.7612 7.17035C29.6965 7.33877 29.5842 7.46399 29.4244 7.54604C29.269 7.62809 29.0531 7.66695 28.7811 7.66695H27.9304ZM28.5695 7.22217H28.7638C28.9106 7.22217 29.0142 7.19626 29.079 7.14445C29.1438 7.09263 29.1826 7.01922 29.1956 6.9199C29.2085 6.82058 29.2172 6.69535 29.2172 6.55285V5.2142C29.2172 5.0717 29.2085 4.95942 29.1869 4.87306C29.1654 4.7867 29.1265 4.72192 29.0617 4.68306C28.997 4.64419 28.8976 4.6226 28.7551 4.6226H28.5695V7.22217Z" fill="white"/>
<path d="M16.0042 9.88531H15.3738V13.3831H16.0042V9.88531Z" fill="white"/>
<path d="M16.4229 13.3831V9.88531H16.8676L17.7182 11.8803V9.88531H18.245V13.3831H17.8219L16.9669 11.2931V13.3831H16.4229Z" fill="white"/>
<path d="M18.6553 13.3831V9.88531H20.1234V10.3344H19.2943V11.3406H19.9463V11.7853H19.2943V12.9426H20.132V13.3831H18.6553Z" fill="white"/>
<path d="M22.0882 14.0783C22.0148 14.0437 21.9371 13.9919 21.855 13.9228C21.773 13.8537 21.6953 13.776 21.6132 13.6853C21.5355 13.599 21.4664 13.5126 21.4103 13.4262C21.3973 13.4306 21.3844 13.4306 21.3714 13.4306H21.3326C21.0865 13.4306 20.8878 13.3831 20.741 13.2924C20.5942 13.2017 20.4906 13.0678 20.4258 12.8951C20.361 12.7224 20.3308 12.5194 20.3308 12.2819V10.9735C20.3308 10.736 20.361 10.5374 20.4258 10.3689C20.4906 10.2005 20.5942 10.071 20.741 9.9803C20.8878 9.88962 21.0865 9.84644 21.3326 9.84644C21.5873 9.84644 21.786 9.88962 21.9328 9.9803C22.0796 10.071 22.1832 10.2005 22.248 10.3689C22.3127 10.5374 22.343 10.736 22.343 10.9735V12.2862C22.343 12.4546 22.3257 12.6058 22.2955 12.7396C22.2652 12.8735 22.2134 12.9944 22.14 13.0937C22.0666 13.1931 21.9716 13.2665 21.855 13.3226C21.8939 13.3615 21.9328 13.4047 21.9716 13.4478C22.0105 13.491 22.0537 13.5299 22.0925 13.5687C22.1314 13.6076 22.1703 13.6378 22.2091 13.6594L22.0882 14.0783ZM21.3326 12.9599C21.4405 12.9599 21.5182 12.9383 21.5701 12.8908C21.6219 12.8433 21.6564 12.7828 21.6737 12.7008C21.691 12.6187 21.6996 12.5324 21.6996 12.4374V10.8267C21.6996 10.7274 21.691 10.641 21.6737 10.5633C21.6564 10.4855 21.6219 10.4251 21.5701 10.3819C21.5182 10.3344 21.4405 10.3128 21.3326 10.3128C21.2289 10.3128 21.1512 10.3344 21.0994 10.3819C21.0476 10.4251 21.013 10.4855 20.9958 10.5633C20.9828 10.641 20.9742 10.7274 20.9742 10.8267V12.4374C20.9742 12.5324 20.9828 12.6187 20.9958 12.7008C21.013 12.7828 21.0476 12.8433 21.0994 12.8908C21.1512 12.9383 21.2289 12.9599 21.3326 12.9599Z" fill="white"/>
<path d="M23.6554 13.4306C23.3963 13.4306 23.1934 13.3831 23.0509 13.2881C22.9084 13.1931 22.8091 13.0592 22.7529 12.8822C22.6968 12.7051 22.6709 12.4978 22.6709 12.2517V9.88531H23.2927V12.3251C23.2927 12.4331 23.3013 12.5367 23.3143 12.636C23.3272 12.731 23.3618 12.8088 23.4136 12.8692C23.4697 12.9253 23.5474 12.9556 23.6554 12.9556C23.7677 12.9556 23.8497 12.9253 23.8972 12.8692C23.949 12.8088 23.9836 12.731 23.9965 12.636C24.0138 12.5367 24.0224 12.4331 24.0224 12.3251V9.88531H24.6399V12.2517C24.6399 12.4978 24.614 12.7051 24.5578 12.8822C24.5017 13.0592 24.4024 13.1931 24.2599 13.2881C24.1174 13.3831 23.9188 13.4306 23.6554 13.4306Z" fill="white"/>
<path d="M24.8301 13.3831L25.5296 9.88531H26.2118L26.9113 13.3831H26.3198L26.1816 12.5756H25.5728L25.4303 13.3831H24.8301ZM25.6375 12.1697H26.1125L25.875 10.7015L25.6375 12.1697Z" fill="white"/>
<path d="M27.1401 13.3831V9.88531H27.7792V12.9426H28.6255V13.3831H27.1401Z" fill="white"/>
<path d="M29.4847 9.88531H28.8542V13.3831H29.4847V9.88531Z" fill="white"/>
<path d="M30.2533 13.3831V10.356H29.6963V9.88531H31.4407V10.356H30.8924V13.3831H30.2533Z" fill="white"/>
<path d="M32.2872 9.88531H31.6567V13.3831H32.2872V9.88531Z" fill="white"/>
<path d="M32.7061 13.3831V9.88531H34.1742V10.3344H33.3451V11.3406H33.9971V11.7853H33.3451V12.9426H34.1828V13.3831H32.7061Z" fill="white"/>
<path d="M35.3139 13.4306C35.1023 13.4306 34.9296 13.3917 34.7871 13.3096C34.6446 13.2276 34.541 13.1067 34.4676 12.9469C34.3942 12.7871 34.3553 12.5928 34.3467 12.364L34.8951 12.256C34.8994 12.3899 34.9166 12.5108 34.9426 12.6144C34.9728 12.7181 35.0116 12.8001 35.0678 12.8562C35.1239 12.9124 35.2016 12.9383 35.2923 12.9383C35.3959 12.9383 35.4693 12.9081 35.5125 12.8476C35.5557 12.7828 35.5773 12.7051 35.5773 12.6101C35.5773 12.459 35.5427 12.3337 35.4737 12.2344C35.4046 12.1351 35.3139 12.0401 35.1973 11.9408L34.7569 11.5521C34.6317 11.4442 34.5324 11.3276 34.4589 11.198C34.3855 11.0642 34.351 10.9044 34.351 10.7101C34.351 10.4337 34.433 10.2221 34.5928 10.071C34.7526 9.91985 34.9728 9.84644 35.2534 9.84644C35.4175 9.84644 35.5557 9.87234 35.6637 9.92416C35.7716 9.97166 35.858 10.0408 35.9227 10.1314C35.9875 10.2221 36.0393 10.3214 36.0695 10.438C36.0998 10.5503 36.1214 10.6712 36.13 10.7964L35.5859 10.8914C35.5816 10.7835 35.5687 10.6842 35.5471 10.5978C35.5298 10.5114 35.4953 10.4424 35.4478 10.3948C35.4003 10.3473 35.3312 10.3214 35.2405 10.3214C35.1455 10.3214 35.0721 10.3517 35.0203 10.4164C34.9728 10.4769 34.9469 10.5546 34.9469 10.6453C34.9469 10.7619 34.9728 10.8612 35.0203 10.9389C35.0678 11.0124 35.1412 11.0901 35.2319 11.1721L35.668 11.5565C35.8105 11.6774 35.9357 11.8199 36.035 11.984C36.1386 12.1437 36.1904 12.3424 36.1904 12.5712C36.1904 12.7396 36.1516 12.8865 36.0782 13.016C36.0048 13.1456 35.9055 13.2492 35.7716 13.3226C35.6421 13.396 35.4909 13.4306 35.3139 13.4306Z" fill="white"/>
</svg>
