<svg width="48" height="48" viewBox="0 0 48 48" fill="none" xmlns="http://www.w3.org/2000/svg">
<path d="M-4.19617e-05 0H47.9971V48H-4.19617e-05V0Z" fill="#FDB713"/>
<path d="M6.42425 5.5081H3.93872V4.17499H8.13023V5.31617L6.1982 13.3272H4.50359L6.42425 5.5081Z" fill="white"/>
<path fill-rule="evenodd" clip-rule="evenodd" d="M23.9968 23.3853C27.8994 23.3853 31.0631 26.5492 31.0631 30.4526C31.0631 34.3574 27.8994 37.5208 23.9968 37.5208C20.0941 37.5208 16.9304 34.3574 16.9304 30.4526C16.9304 26.5492 20.0941 23.3853 23.9968 23.3853ZM23.4734 26.1772V28.6035C23.4734 28.838 23.7099 29.0942 23.9997 29.0942C24.2891 29.0942 24.523 28.838 24.523 28.6035V26.1772C24.523 25.9423 24.2891 25.6831 23.9997 25.6831C23.7099 25.6831 23.4734 25.9423 23.4734 26.1772ZM23.9977 34.074C26.0282 34.074 27.6738 32.4288 27.6738 30.3982C27.6738 28.746 26.5842 27.3491 25.084 26.8856V28.2528C25.867 28.65 26.4041 29.4603 26.4041 30.3982C26.4041 31.7273 25.3273 32.8047 23.9977 32.8047C22.6687 32.8047 21.5919 31.7273 21.5919 30.3982C21.5919 29.4628 22.1265 28.654 22.9056 28.2563V26.8876C21.4088 27.3525 20.3226 28.7485 20.3226 30.3982C20.3226 32.4288 21.9683 34.074 23.9977 34.074ZM15.8848 30.3907C15.8848 30.7123 15.6009 30.973 15.3417 30.973H12.2473C11.9861 30.973 11.6997 30.7123 11.6997 30.3907C11.6997 30.0702 11.9861 29.811 12.2473 29.811H15.3417C15.6009 29.811 15.8848 30.0702 15.8848 30.3907ZM36.2973 30.3907C36.2973 30.7123 36.0133 30.973 35.7542 30.973H32.6597C32.3986 30.973 32.1122 30.7123 32.1122 30.3907C32.1122 30.0702 32.3986 29.811 32.6597 29.811H35.7542C36.0133 29.811 36.2973 30.0702 36.2973 30.3907ZM23.9997 42.691C23.6787 42.691 23.417 42.4071 23.417 42.1479V39.0533C23.417 38.7926 23.6787 38.5057 23.9997 38.5057C24.3197 38.5057 24.5794 38.7926 24.5794 39.0533V42.1479C24.5794 42.4071 24.3197 42.691 23.9997 42.691ZM34.6734 36.5003C34.5136 36.7793 34.1377 36.8649 33.9131 36.7358L31.2268 35.1989C31.0007 35.0693 30.8815 34.7002 31.0413 34.4217C31.2001 34.1433 31.578 34.0601 31.8045 34.1898L34.4904 35.7272C34.7149 35.8558 34.8322 36.2223 34.6734 36.5003ZM17.8905 41.0675C17.6115 40.9082 17.526 40.5313 17.6546 40.3067L19.1919 37.6207C19.321 37.3947 19.6905 37.2755 19.969 37.4347C20.2469 37.5935 20.33 37.9719 20.2005 38.198L18.6631 40.884C18.5345 41.1091 18.1685 41.2263 17.8905 41.0675ZM30.1302 41.0537C29.8517 41.2135 29.4842 41.0977 29.3551 40.8731L27.8128 38.1906C27.6818 37.964 27.7654 37.5856 28.0438 37.4258C28.3218 37.2661 28.6893 37.3848 28.8199 37.6108L30.3627 40.2939C30.4918 40.5185 30.4077 40.8939 30.1302 41.0537ZM13.3374 36.5241C13.1772 36.2456 13.2934 35.8775 13.518 35.7484L16.2004 34.2056C16.4264 34.0755 16.8053 34.1591 16.9651 34.4376C17.1253 34.7156 17.0061 35.0831 16.7796 35.2132L14.0972 36.7561C13.8721 36.8852 13.4967 36.8016 13.3374 36.5241ZM23.9997 22.2778C23.6787 22.2778 23.417 21.9939 23.417 21.7352V18.6401C23.417 18.3789 23.6787 18.0925 23.9997 18.0925C24.3197 18.0925 24.5794 18.3789 24.5794 18.6401V21.7352C24.5794 21.9939 24.3197 22.2778 23.9997 22.2778ZM16.9567 26.3602C16.7974 26.6392 16.4215 26.7243 16.1964 26.5957L13.5106 25.0588C13.284 24.9287 13.1648 24.5602 13.3246 24.2812C13.4838 24.0032 13.8612 23.9201 14.0878 24.0502L16.7736 25.5871C16.9987 25.7157 17.1159 26.0822 16.9567 26.3602ZM28.03 23.3502C27.751 23.1909 27.6654 22.8145 27.794 22.5894L29.3314 19.9034C29.461 19.6774 29.83 19.5577 30.1089 19.7174C30.3864 19.8767 30.4695 20.2541 30.3399 20.4812L28.8026 23.1672C28.6735 23.3918 28.308 23.509 28.03 23.3502ZM19.9546 23.3572C19.6756 23.5174 19.3086 23.4012 19.179 23.1766L17.6368 20.4941C17.5062 20.2675 17.5893 19.8891 17.8683 19.7293C18.1462 19.5695 18.5133 19.6878 18.6438 19.9143L20.1866 22.5974C20.3162 22.8219 20.2321 23.1974 19.9546 23.3572ZM31.0329 26.3479C30.8726 26.0699 30.9889 25.7014 31.2134 25.5722L33.8963 24.0299C34.1229 23.8993 34.5008 23.9834 34.661 24.2614C34.8208 24.5394 34.7016 24.9069 34.475 25.037L31.7926 26.5799C31.5676 26.709 31.1927 26.6254 31.0329 26.3479Z" fill="white"/>
<path d="M11.8486 7.66695L12.5481 4.16919H13.2304L13.9299 7.66695H13.3383L13.2001 6.85944H12.5913L12.4488 7.66695H11.8486ZM12.6561 6.45353H13.1311L12.8936 4.98533L12.6561 6.45353Z" fill="white"/>
<path d="M14.1824 7.66695V4.16919H15.6202V4.60965H14.8214V5.62875H15.4734V6.07353H14.8214V7.66695H14.1824Z" fill="white"/>
<path d="M15.8687 7.66695V4.16919H17.3065V4.60965H16.5077V5.62875H17.1597V6.07353H16.5077V7.66695H15.8687Z" fill="white"/>
<path d="M18.5047 7.71437C18.2586 7.71437 18.0599 7.66687 17.9131 7.57619C17.7663 7.48551 17.6627 7.35164 17.5979 7.17891C17.5332 7.00619 17.5029 6.80323 17.5029 6.56573V5.25731C17.5029 5.0198 17.5332 4.82116 17.5979 4.65275C17.6627 4.48434 17.7663 4.3548 17.9131 4.26411C18.0599 4.17343 18.2586 4.13025 18.5047 4.13025C18.7595 4.13025 18.9581 4.17343 19.1006 4.26411C19.2474 4.3548 19.351 4.48434 19.4158 4.65275C19.4805 4.82116 19.5151 5.0198 19.5151 5.25731V6.57004C19.5151 6.80323 19.4805 7.00619 19.4158 7.17891C19.351 7.34732 19.2474 7.48119 19.1006 7.57619C18.9581 7.66687 18.7595 7.71437 18.5047 7.71437ZM18.5047 7.24369C18.6126 7.24369 18.6904 7.2221 18.7379 7.1746C18.7897 7.1271 18.8242 7.06664 18.8415 6.98459C18.8588 6.90255 18.8674 6.81618 18.8674 6.72118V5.11049C18.8674 5.01117 18.8588 4.9248 18.8415 4.84707C18.8242 4.76935 18.7897 4.70889 18.7379 4.66571C18.6904 4.61821 18.6126 4.59662 18.5047 4.59662C18.4054 4.59662 18.3277 4.61821 18.2758 4.66571C18.224 4.70889 18.1895 4.76935 18.1722 4.84707C18.1549 4.9248 18.1463 5.01117 18.1463 5.11049V6.72118C18.1463 6.81618 18.1549 6.90255 18.1679 6.98459C18.1852 7.06664 18.2197 7.1271 18.2715 7.1746C18.3233 7.2221 18.4011 7.24369 18.5047 7.24369Z" fill="white"/>
<path d="M19.8887 7.66695V4.16919H20.7264C20.9638 4.16919 21.1625 4.19942 21.3222 4.25555C21.4863 4.31169 21.6115 4.40669 21.6936 4.54056C21.7799 4.67442 21.8231 4.86011 21.8231 5.09329C21.8231 5.23579 21.8102 5.36102 21.7842 5.47329C21.7583 5.58557 21.7152 5.68057 21.6504 5.76261C21.5899 5.84034 21.5036 5.9008 21.3956 5.94398L21.8836 7.66695H21.2445L20.8213 6.06489H20.5277V7.66695H19.8887ZM20.5277 5.66329H20.7264C20.8516 5.66329 20.9466 5.64602 21.02 5.61148C21.0934 5.57261 21.1495 5.51648 21.1797 5.43875C21.21 5.3567 21.2272 5.25738 21.2272 5.13215C21.2272 4.95511 21.1927 4.82556 21.1279 4.73919C21.0632 4.64851 20.9422 4.60533 20.7609 4.60533H20.5277V5.66329Z" fill="white"/>
<path d="M22.2139 7.66695V4.16919H23.0386C23.3236 4.16919 23.5438 4.20805 23.7036 4.28578C23.8633 4.36351 23.9799 4.48442 24.0447 4.64419C24.1138 4.80397 24.1483 5.01124 24.1483 5.25738V6.53558C24.1483 6.79035 24.1138 7.00194 24.0447 7.17035C23.9799 7.33877 23.8676 7.46399 23.7079 7.54604C23.5524 7.62809 23.3365 7.66695 23.0645 7.66695H22.2139ZM22.8529 7.22217H23.0472C23.194 7.22217 23.2977 7.19626 23.3624 7.14445C23.4272 7.09263 23.4661 7.01922 23.479 6.9199C23.492 6.82058 23.5006 6.69535 23.5006 6.55285V5.2142C23.5006 5.0717 23.492 4.95942 23.4704 4.87306C23.4488 4.7867 23.4099 4.72192 23.3452 4.68306C23.2804 4.64419 23.1811 4.6226 23.0386 4.6226H22.8529V7.22217Z" fill="white"/>
<path d="M24.323 7.66695L25.0225 4.16919H25.7047L26.4042 7.66695H25.8127L25.6745 6.85944H25.0657L24.9232 7.66695H24.323ZM25.1305 6.45353H25.6054L25.3679 4.98533L25.1305 6.45353Z" fill="white"/>
<path d="M26.657 7.66695V4.16919H27.5163C27.6717 4.16919 27.8099 4.18214 27.9351 4.21237C28.0603 4.2426 28.1683 4.2901 28.2589 4.35919C28.3496 4.42396 28.423 4.51465 28.4705 4.63124C28.518 4.74783 28.5439 4.89033 28.5439 5.06738C28.5439 5.20988 28.5223 5.33079 28.4835 5.43011C28.4446 5.52943 28.3885 5.61148 28.3151 5.67193C28.2417 5.72807 28.1467 5.76693 28.0344 5.78852C28.1726 5.81011 28.2848 5.86193 28.3755 5.93534C28.4662 6.00875 28.5353 6.10375 28.5785 6.22035C28.626 6.33694 28.6476 6.47944 28.6476 6.64785C28.6476 6.81626 28.626 6.96308 28.5828 7.09263C28.5439 7.21785 28.4792 7.32581 28.3971 7.41217C28.3151 7.49422 28.2158 7.55899 28.0905 7.60218C27.9696 7.64536 27.8271 7.66695 27.6631 7.66695H26.657ZM27.296 7.21785H27.5378C27.7322 7.21785 27.8617 7.17035 27.9308 7.07967C27.9999 6.98467 28.0344 6.83785 28.0344 6.64353C28.0344 6.50103 28.0171 6.38876 27.9826 6.30239C27.9524 6.21171 27.8962 6.14694 27.8185 6.10375C27.7451 6.06057 27.6415 6.03898 27.5163 6.03898H27.296V7.21785ZM27.296 5.59852H27.5119C27.6372 5.59852 27.7365 5.58125 27.8056 5.54238C27.8746 5.50352 27.9221 5.44738 27.948 5.36966C27.9783 5.29193 27.9912 5.19261 27.9912 5.07602C27.9912 4.95079 27.9696 4.85579 27.9265 4.79101C27.8876 4.72192 27.8228 4.67442 27.7408 4.65283C27.6587 4.62692 27.5508 4.61397 27.4213 4.61397H27.296V5.59852Z" fill="white"/>
<path d="M28.9648 7.66695V4.16919H29.6039V7.22649H30.4502V7.66695H28.9648Z" fill="white"/>
<path d="M30.6855 7.66695V4.16919H32.1536V4.61828H31.3246V5.62443H31.9766V6.06921H31.3246V7.22649H32.1623V7.66695H30.6855Z" fill="white"/>
<path d="M33.2117 7.66695L33.9112 4.16919H34.5934L35.2929 7.66695H34.7014L34.5632 6.85944H33.9544L33.8119 7.66695H33.2117ZM34.0191 6.45353H34.4941L34.2566 4.98533L34.0191 6.45353Z" fill="white"/>
<path d="M35.5454 7.66695V4.16919H35.9902L36.8408 6.16421V4.16919H37.3676V7.66695H36.9444L36.0895 5.57693V7.66695H35.5454Z" fill="white"/>
<path d="M37.8015 7.66695V4.16919H38.6262C38.9112 4.16919 39.1314 4.20805 39.2912 4.28578C39.451 4.36351 39.5676 4.48442 39.6323 4.64419C39.7014 4.80397 39.736 5.01124 39.736 5.25738V6.53558C39.736 6.79035 39.7014 7.00194 39.6323 7.17035C39.5676 7.33877 39.4553 7.46399 39.2955 7.54604C39.1401 7.62809 38.9242 7.66695 38.6521 7.66695H37.8015ZM38.4406 7.22217H38.6349C38.7817 7.22217 38.8853 7.19626 38.9501 7.14445C39.0149 7.09263 39.0537 7.01922 39.0667 6.9199C39.0796 6.82058 39.0883 6.69535 39.0883 6.55285V5.2142C39.0883 5.0717 39.0796 4.95942 39.058 4.87306C39.0364 4.7867 38.9976 4.72192 38.9328 4.68306C38.868 4.64419 38.7687 4.6226 38.6262 4.6226H38.4406V7.22217Z" fill="white"/>
<path d="M12.967 13.4306C12.7122 13.4306 12.5093 13.3787 12.3625 13.2794C12.22 13.1801 12.1164 13.0419 12.0602 12.8692C12.0041 12.6921 11.9739 12.4935 11.9739 12.2646V11.0167C11.9739 10.7792 12.0041 10.5719 12.0602 10.3948C12.1164 10.2178 12.22 10.0839 12.3625 9.98894C12.5093 9.89394 12.7122 9.84644 12.967 9.84644C13.2088 9.84644 13.3988 9.88962 13.5327 9.97166C13.6708 10.0537 13.7701 10.1703 13.8263 10.3214C13.8824 10.4726 13.9126 10.6496 13.9126 10.8526V11.1462H13.2995V10.8439C13.2995 10.7446 13.2952 10.6583 13.2822 10.5762C13.2736 10.4942 13.2477 10.4337 13.2002 10.3862C13.157 10.3387 13.0793 10.3128 12.9713 10.3128C12.8634 10.3128 12.7813 10.3387 12.7295 10.3905C12.682 10.438 12.6475 10.5071 12.6345 10.5935C12.6216 10.6755 12.6129 10.7705 12.6129 10.8785V12.3985C12.6129 12.5237 12.6216 12.6317 12.6432 12.7137C12.6647 12.7958 12.6993 12.8562 12.7511 12.8994C12.8072 12.9383 12.8806 12.9599 12.9713 12.9599C13.0793 12.9599 13.1527 12.934 13.1959 12.8865C13.2434 12.8346 13.2693 12.7656 13.2822 12.6835C13.2952 12.6015 13.2995 12.5065 13.2995 12.4028V12.0876H13.9126V12.3683C13.9126 12.5756 13.8867 12.7612 13.8306 12.921C13.7745 13.0808 13.6795 13.206 13.5413 13.2967C13.4074 13.3874 13.2131 13.4306 12.967 13.4306Z" fill="white"/>
<path d="M14.2603 13.3831V9.88531H14.8993V12.9426H15.7456V13.3831H14.2603Z" fill="white"/>
<path d="M15.9807 13.3831V9.88531H17.4488V10.3344H16.6198V11.3406H17.2718V11.7853H16.6198V12.9426H17.4574V13.3831H15.9807Z" fill="white"/>
<path d="M17.5547 13.3831L18.2542 9.88531H18.9364L19.6359 13.3831H19.0444L18.9062 12.5756H18.2974L18.1549 13.3831H17.5547ZM18.3621 12.1697H18.8371L18.5996 10.7015L18.3621 12.1697Z" fill="white"/>
<path d="M19.8887 13.3831V9.88531H20.3334L21.1841 11.8803V9.88531H21.7108V13.3831H21.2877L20.4327 11.2931V13.3831H19.8887Z" fill="white"/>
<path d="M23.0967 13.3831V9.88531H24.5648V10.3344H23.7357V11.3406H24.3877V11.7853H23.7357V12.9426H24.5734V13.3831H23.0967Z" fill="white"/>
<path d="M24.8477 13.3831V9.88531H25.2924L26.143 11.8803V9.88531H26.6698V13.3831H26.2467L25.3917 11.2931V13.3831H24.8477Z" fill="white"/>
<path d="M27.104 13.3831V9.88531H28.5721V10.3344H27.7431V11.3406H28.3951V11.7853H27.7431V12.9426H28.5807V13.3831H27.104Z" fill="white"/>
<path d="M28.8547 13.3831V9.88531H29.6924C29.9299 9.88531 30.1285 9.91554 30.2883 9.97168C30.4524 10.0278 30.5776 10.1228 30.6596 10.2567C30.746 10.3905 30.7892 10.5762 30.7892 10.8094C30.7892 10.9519 30.7762 11.0771 30.7503 11.1894C30.7244 11.3017 30.6812 11.3967 30.6165 11.4787C30.556 11.5565 30.4696 11.6169 30.3617 11.6601L30.8496 13.3831H30.2106L29.7874 11.781H29.4938V13.3831H28.8547ZM29.4938 11.3794H29.6924C29.8176 11.3794 29.9126 11.3621 29.986 11.3276C30.0594 11.2887 30.1156 11.2326 30.1458 11.1549C30.176 11.0728 30.1933 10.9735 30.1933 10.8483C30.1933 10.6712 30.1588 10.5417 30.094 10.4553C30.0292 10.3646 29.9083 10.3215 29.727 10.3215H29.4938V11.3794Z" fill="white"/>
<path d="M32.0436 13.4306C31.8147 13.4306 31.6291 13.3831 31.4952 13.2837C31.3614 13.1844 31.262 13.0462 31.2016 12.8692C31.1455 12.6878 31.1152 12.4762 31.1152 12.2301V11.0555C31.1152 10.8051 31.1455 10.5892 31.2016 10.4078C31.2577 10.2264 31.3614 10.0883 31.5038 9.99326C31.6507 9.89394 31.8536 9.84644 32.1084 9.84644C32.3458 9.84644 32.5358 9.8853 32.6783 9.96735C32.8208 10.0494 32.9201 10.166 32.9806 10.3171C33.0454 10.4683 33.0756 10.6496 33.0756 10.8655V11.0469H32.4668V10.8483C32.4668 10.736 32.4581 10.641 32.4408 10.5589C32.4279 10.4769 32.3933 10.4164 32.3458 10.3776C32.2984 10.3344 32.2249 10.3128 32.117 10.3128C32.0047 10.3128 31.9227 10.3387 31.8709 10.3948C31.8234 10.451 31.7888 10.5201 31.7759 10.6108C31.7629 10.7014 31.7586 10.7964 31.7586 10.9044V12.3683C31.7586 12.4892 31.7672 12.5928 31.7888 12.6835C31.8104 12.7742 31.845 12.8433 31.9011 12.8908C31.9572 12.9383 32.035 12.9599 32.1343 12.9599C32.2379 12.9599 32.3156 12.934 32.3718 12.8821C32.4279 12.8303 32.4624 12.7569 32.484 12.6662C32.5056 12.5756 32.5186 12.4633 32.5186 12.3381V12.0099H32.1429V11.6083H33.0929V13.3831H32.6826L32.6352 13.0376C32.5877 13.1542 32.5186 13.2492 32.4236 13.3226C32.3329 13.396 32.2034 13.4306 32.0436 13.4306Z" fill="white"/>
<path d="M33.9198 13.3831V12.0487L33.2117 9.88531H33.8075L34.2393 11.2715L34.6452 9.88531H35.2281L34.5286 12.0487V13.3831H33.9198Z" fill="white"/>
</svg>
