<svg width="64" height="65" viewBox="0 0 64 65" fill="none" xmlns="http://www.w3.org/2000/svg">
<circle cx="32" cy="32.6892" r="31" fill="white" stroke="#E5E5E5" stroke-width="2"/>
<path d="M38 26.7502V37.2502C38 37.6481 37.842 38.0296 37.5607 38.3109C37.2794 38.5922 36.8978 38.7502 36.5 38.7502H23C22.6022 38.7502 22.2206 38.5922 21.9393 38.3109C21.658 38.0296 21.5 37.6481 21.5 37.2502V26.7502C21.5 26.3524 21.658 25.9709 21.9393 25.6896C22.2206 25.4083 22.6022 25.2502 23 25.2502H36.5C36.8978 25.2502 37.2794 25.4083 37.5607 25.6896C37.842 25.9709 38 26.3524 38 26.7502ZM43.4375 26.7737C43.3317 26.7478 43.2216 26.7446 43.1145 26.7643C43.0073 26.784 42.9056 26.8262 42.8159 26.8881L39.6669 28.9871C39.6155 29.0214 39.5734 29.0678 39.5443 29.1223C39.5152 29.1767 39.5 29.2376 39.5 29.2993V34.7012C39.5 34.7629 39.5152 34.8237 39.5443 34.8782C39.5734 34.9327 39.6155 34.9791 39.6669 35.0134L42.8337 37.1246C42.9523 37.2037 43.0909 37.2474 43.2333 37.2505C43.3758 37.2537 43.5162 37.2162 43.6381 37.1424C43.7509 37.0707 43.8434 36.9713 43.9068 36.8536C43.9702 36.7359 44.0022 36.6039 44 36.4702V27.5002C44.0001 27.3339 43.9449 27.1723 43.843 27.0407C43.7412 26.9092 43.5986 26.8153 43.4375 26.7737Z" fill="#D4D4D4"/>
</svg>
