<svg width="24" height="24" viewBox="0 0 24 24" fill="none" xmlns="http://www.w3.org/2000/svg">
<path d="M17.1808 16.0058C17.1979 16.0058 17.5259 15.8086 17.9094 15.5676C18.2931 15.3266 18.5994 15.1151 18.5903 15.0977C18.5812 15.0803 18.3982 14.8327 18.1836 14.5474C17.7527 13.9745 17.3386 13.2167 17.1557 12.6666C16.586 10.952 16.8568 9.16866 17.9059 7.72644L18.173 7.35918L17.6684 6.85463L17.1639 6.35004L16.8284 6.58962C14.6309 8.1593 12.0039 7.98827 9.68048 6.12432C9.52877 6.0026 9.39903 5.9087 9.39213 5.9156C9.3286 5.97913 8.52798 7.28374 8.52804 7.32361C8.52808 7.35244 8.66695 7.46989 8.83663 7.58454C10.7154 8.85415 12.8686 9.26299 14.5359 8.66683L14.9359 8.52384L9.36326 14.1166L5.83951 17.6531L6.86065 18.6742L10.4063 15.1414L15.9859 9.58199L15.8156 10.0972C15.374 11.4339 15.5478 13.0156 16.3115 14.6084C16.529 15.0622 17.116 16.0057 17.1808 16.0058Z" fill="#090909"/>
</svg>
