<svg width="120" height="30" viewBox="0 0 120 30" fill="none" xmlns="http://www.w3.org/2000/svg">
<g clip-path="url(#clip0_4040_2161)">
<path d="M86.651 7.24414C86.651 7.24414 86.6511 18.0176 86.651 18.0176C86.651 18.5499 86.9292 18.8608 87.2161 19.0566C87.5237 19.2632 87.9751 19.3665 88.5833 19.3665C88.9681 19.3665 89.4766 19.2389 89.4766 19.2389C89.4766 19.2389 89.4766 18.2728 89.4766 18.2728C89.324 18.2823 89.1888 18.291 89.0391 18.291C88.1336 18.291 88 17.9373 88 17.5436C88 17.5436 88 7.24415 88 7.24414L86.651 7.24414ZM58.1589 7.35352C57.1421 7.35352 56.2229 7.67244 55.5703 8.24674C54.9366 8.80694 54.5859 9.5802 54.5859 10.416C54.586 11.3366 54.9585 12.0558 55.7344 12.6217C56.4187 13.1215 57.3238 13.4441 58.1953 13.752C59.7103 14.2908 61.1302 14.7826 61.1302 16.1582C61.1302 16.77 60.9221 17.2944 60.5287 17.653C60.096 18.0473 59.4736 18.2363 58.651 18.2363C57.2093 18.2363 56.1596 17.438 55.5703 15.8848C55.5703 15.8848 54.276 16.2311 54.276 16.2311C54.5548 16.8611 55.029 17.7701 55.7161 18.3822C56.4696 19.0581 57.4048 19.3848 58.5781 19.3848C59.9676 19.3848 61.0223 19.0264 61.7135 18.3092C62.4302 17.5627 62.5885 16.6073 62.5885 15.9395C62.5885 14.9824 62.184 14.2434 61.3672 13.6608C60.6541 13.1493 59.7313 12.8196 58.8333 12.5124C57.3702 12.012 55.9741 11.5359 55.9896 10.3066C55.9948 9.73345 56.1935 9.28725 56.5547 8.97591C56.9228 8.65963 57.4473 8.50195 58.1224 8.50195C58.8315 8.50196 59.4637 8.70014 59.9453 9.08529C60.3882 9.43606 60.7105 9.95664 60.8568 10.5436C60.8568 10.5436 62.1146 10.3796 62.1146 10.3796C61.5628 8.49828 60.2141 7.35352 58.1589 7.35352ZM0.5 7.51758V19.2207H1.84896V8.52018L1.88542 8.55664L5.09375 19.2207H6.13281L9.35938 8.55664L9.37761 8.52018V19.2207H10.7266V7.51758H8.48438L5.6224 16.9238V16.9603L5.60417 16.9238L2.74219 7.51758H0.5ZM64.7214 7.75456V10.5618H63.4271V11.6374C63.4271 11.6374 64.7214 11.6374 64.7214 11.6374C64.7214 11.6374 64.7214 17.6527 64.7214 18.0176C64.7214 18.5499 64.9637 18.8608 65.25 19.0566C65.5582 19.2632 66.0083 19.3665 66.6172 19.3665C67.0025 19.3665 67.5286 19.2389 67.5287 19.2389C67.5287 19.2389 67.5286 18.2728 67.5287 18.2728C67.3789 18.2823 67.2221 18.291 67.0729 18.291C66.1663 18.291 66.0703 17.9373 66.0703 17.5436C66.0703 17.5436 66.0703 11.6374 66.0703 11.6374H67.5287V10.5619H66.0703V7.75456H64.7214ZM16.1953 10.3978C15.0594 10.3978 14.0967 10.8555 13.4245 11.7103C12.8006 12.5081 12.4583 13.635 12.4583 14.8822C12.4583 16.1304 12.8006 17.2554 13.4245 18.054C14.0967 18.9111 15.0594 19.3665 16.1953 19.3665C17.3359 19.3665 18.2957 18.9111 18.9661 18.054C19.5901 17.2554 19.9323 16.1304 19.9323 14.8822C19.9323 13.635 19.5901 12.5081 18.9661 11.7103C18.2957 10.8555 17.3359 10.3978 16.1953 10.3978ZM94.0156 10.416C93.4391 10.416 92.9029 10.522 92.4479 10.7259C92.0026 10.9266 91.607 11.2288 91.2995 11.6191C90.6877 12.3852 90.3333 13.5226 90.3333 14.9004C90.3333 16.4339 90.774 17.604 91.5729 18.3822C92.4157 19.2048 93.4895 19.3665 94.2344 19.3665C96.1699 19.3665 97.1194 18.3193 97.5156 17.3613C97.5156 17.3613 96.4401 16.8327 96.4401 16.8327C96.1786 17.416 95.5777 18.3092 94.2344 18.3092C93.4666 18.3092 92.8385 17.9949 92.3932 17.416C91.963 16.8558 91.7211 16.0805 91.7188 15.1556C91.7188 15.1556 97.625 15.1556 97.625 15.1556C97.625 15.1556 97.625 14.3353 97.625 14.3353C97.625 12.9183 97.2477 11.8616 96.5495 11.2181C95.955 10.6715 95.1211 10.416 94.0156 10.416ZM30.013 10.4342C28.4911 10.4342 26.3307 11.4583 26.3307 14.9004C26.3307 18.2425 28.4844 19.3665 29.9401 19.3665C30.7897 19.3665 31.5618 18.8958 32.0911 18.2181C32.0911 18.2181 32.1641 18.1816 32.1641 18.1816C32.1641 18.1816 32.1641 19.8223 32.1641 19.8223C32.1641 20.9729 31.1682 21.6816 30.1042 21.6816C29.0697 21.6816 28.1539 21.4841 27.4062 21.1348C27.4062 21.1348 27.4062 22.3014 27.4062 22.3014C28.0359 22.5713 29.0605 22.7389 29.9401 22.7389C32.3347 22.7389 33.4766 21.421 33.4766 19.5124V10.5983H32.474L32.1823 11.5098C31.6874 10.8649 31.0395 10.4342 30.013 10.4342ZM38.7266 10.4342C36.8107 10.4342 35.9036 11.5819 35.5182 12.2936L36.5938 12.8587C36.7447 12.452 37.2881 11.5098 38.7448 11.5098C39.8934 11.5098 40.4766 12.0167 40.4766 13.0228V13.3327C40.4766 13.3327 40.486 13.4269 40.4583 13.4603C40.4157 13.5141 40.2947 13.5582 40.0026 13.5879C38.3944 13.7673 37.3254 14.0315 36.5391 14.5358C35.6854 15.0845 35.1536 15.8526 35.1536 16.9056C35.1536 17.6536 35.5158 18.292 35.9922 18.7467C36.4352 19.1656 37.0387 19.3835 37.7057 19.403C39.1256 19.4485 40.0603 18.8576 40.513 18.1634C40.5482 18.6404 40.7191 18.9129 41.0964 19.1113C41.4507 19.3006 42.0318 19.2629 42.2812 19.2025C42.2812 19.2025 42.2812 18.291 42.2812 18.291C41.9805 18.276 41.7891 18.133 41.7891 17.7624C41.789 17.7624 41.7891 13.5879 41.7891 13.5879C41.789 13.5879 41.7891 13.041 41.7891 13.041C41.7891 12.1795 41.4509 11.4729 40.8047 11.0176C40.2718 10.6395 39.5273 10.4342 38.7266 10.4342ZM48.0052 10.4342C47.1273 10.4343 46.2288 10.889 45.4714 11.7467V10.5983H44.1224V19.2389H45.4714C45.4714 19.2389 45.4714 12.8223 45.4714 12.8223C45.9304 12.3318 46.9592 11.5098 47.8958 11.5098C48.8348 11.5098 49.2448 11.9703 49.2448 13.0046C49.2448 13.0046 49.2448 19.2389 49.2448 19.2389H50.5938V12.9681C50.5938 11.1012 49.2661 10.4342 48.0052 10.4342ZM72.4141 10.4342C70.4993 10.4342 69.5923 11.5819 69.2057 12.2936C69.2057 12.2936 70.2813 12.8587 70.2813 12.8587C70.4328 12.452 70.9755 11.5098 72.4323 11.5098C73.5808 11.5098 74.1641 12.0167 74.1641 13.0228C74.1641 13.0228 74.1641 13.3327 74.1641 13.3327C74.1641 13.3327 74.1547 13.4269 74.1276 13.4603C74.0855 13.5141 73.9833 13.5582 73.6901 13.5879C72.0818 13.767 71.0128 14.0315 70.2266 14.5358C69.3734 15.0845 68.8412 15.8526 68.8412 16.9056C68.8412 17.6536 69.2027 18.2917 69.6797 18.7467C70.1227 19.1656 70.7268 19.3835 71.3932 19.403C72.812 19.4485 73.7478 18.8576 74.2005 18.1634C74.2362 18.6402 74.4059 18.9129 74.7839 19.1113C75.1375 19.3006 75.7188 19.2629 75.9688 19.2025C75.9688 19.2025 75.9688 18.291 75.9688 18.291C75.6686 18.276 75.4766 18.133 75.4766 17.7624C75.4766 17.7624 75.4766 13.5879 75.4766 13.5879C75.4766 13.5879 75.4766 13.041 75.4766 13.041C75.4766 12.1795 75.1209 11.4729 74.474 11.0176C73.9406 10.6395 73.2142 10.4342 72.4141 10.4342ZM81.6927 10.4342C80.8125 10.4343 79.9162 10.889 79.1589 11.7467V10.5983H77.8099V19.2389H79.1589C79.1589 19.2389 79.1589 12.8223 79.1589 12.8223C79.6185 12.3315 80.6456 11.5098 81.5833 11.5098C82.5205 11.5098 82.9323 11.9703 82.9323 13.0046V19.2389H84.2812V12.9681C84.2812 11.1012 82.9536 10.4342 81.6927 10.4342ZM25.8203 10.4707C24.4517 10.4707 23.6405 11.0013 22.9401 12.2572V12.166V10.5983H21.5911V19.2207H22.9401C22.9401 19.2207 22.9401 14.3353 22.9401 14.3353C23.2731 12.5605 24.2127 11.7285 25.8203 11.7285V10.4707ZM98.5365 10.5801L101.544 19.1478C101.544 19.1478 101.544 19.2207 101.544 19.2207C101.365 20.0418 100.845 21.0555 100.378 21.3717C99.9651 21.6517 99.5184 21.6816 99.1745 21.6816C99.0085 21.6816 98.6657 21.6256 98.5182 21.5905C98.5182 21.5905 98.5182 22.6296 98.5182 22.6296C98.7048 22.6753 99.1355 22.7572 99.4115 22.7572C100.054 22.7572 100.596 22.5962 101.052 22.265C101.598 21.8684 102.202 20.8349 102.492 19.9499C102.492 19.9499 105.5 10.5801 105.5 10.5801H104.188L102.219 17.2155L102.201 17.3613L102.164 17.2155L99.849 10.5801H98.5365ZM16.1953 11.4733C17.6475 11.4733 18.5104 12.748 18.5104 14.8822C18.5104 17.0169 17.6475 18.291 16.1953 18.291C14.7454 18.291 13.8802 17.0169 13.8802 14.8822C13.8802 12.748 14.7454 11.4733 16.1953 11.4733ZM30.1042 11.4915C30.8652 11.4915 31.5333 11.8204 32.1641 12.6035C32.1641 12.6035 32.1641 16.7233 32.1641 16.7233C31.8149 17.717 30.815 18.291 30.1042 18.291C28.7131 18.291 27.7526 17.4248 27.7526 14.8275C27.7526 12.6435 28.6146 11.4915 30.1042 11.4915ZM94.0521 11.4915C95.5976 11.4915 96.2885 12.3088 96.2943 14.0801C96.2943 14.0801 91.7552 14.0801 91.7552 14.0801C91.8728 12.3102 92.6143 11.4915 94.0521 11.4915ZM40.513 14.5358C40.513 14.5358 40.513 16.7233 40.513 16.7233C40.4508 17.4785 39.0395 18.3926 37.888 18.3275C37.2527 18.2926 36.6406 17.7811 36.5755 16.9421C36.4701 15.54 37.5236 14.9579 39.875 14.6999C40.0386 14.6849 40.3552 14.6268 40.513 14.5358ZM74.2005 14.5358V16.7233C74.1383 17.4782 72.727 18.3926 71.5755 18.3275C70.9413 18.2923 70.3263 17.7808 70.263 16.9421C70.1559 15.54 71.2106 14.9579 73.5625 14.6999C73.7249 14.6849 74.0438 14.6268 74.2005 14.5358Z" fill="white"/>
</g>
<defs>
<clipPath id="clip0_4040_2161">
<rect width="120" height="30" fill="white"/>
</clipPath>
</defs>
</svg>
