<svg width="17" height="16" viewBox="0 0 17 16" fill="none" xmlns="http://www.w3.org/2000/svg">
<path d="M14.2668 9.90868C14.1955 9.86371 14.114 9.8375 14.0299 9.83247C13.9457 9.82745 13.8617 9.84377 13.7856 9.87993C13.595 9.97003 13.3848 10.0105 13.1745 9.99758C12.9641 9.98465 12.7604 9.91874 12.5824 9.80599C12.4043 9.69323 12.2577 9.53729 12.1561 9.35265C12.0544 9.16802 12.0011 8.96068 12.0011 8.74993C12.0011 8.53918 12.0544 8.33184 12.1561 8.14721C12.2577 7.96257 12.4043 7.80663 12.5824 7.69387C12.7604 7.58112 12.9641 7.51521 13.1745 7.50228C13.3848 7.48936 13.595 7.52983 13.7856 7.61993C13.8618 7.6561 13.9459 7.6724 14.0301 7.6673C14.1144 7.66221 14.1959 7.63588 14.2672 7.59078C14.3385 7.54567 14.3973 7.48326 14.438 7.40935C14.4786 7.33543 14.5 7.25243 14.4999 7.16806V4.49993C14.4999 4.23471 14.3946 3.98036 14.207 3.79282C14.0195 3.60529 13.7652 3.49993 13.4999 3.49993H11.2362C11.2455 3.41692 11.2501 3.33346 11.2499 3.24993C11.2495 2.94263 11.1863 2.63867 11.0642 2.35666C10.9421 2.07466 10.7637 1.82055 10.5399 1.60993C10.2301 1.31894 9.84419 1.12166 9.42686 1.04094C9.00954 0.960225 8.57789 0.999369 8.1819 1.15384C7.78591 1.30832 7.44177 1.5718 7.18934 1.91378C6.93691 2.25576 6.78651 2.66225 6.75556 3.08618C6.74596 3.22408 6.74889 3.36256 6.76431 3.49993H4.49994C4.23472 3.49993 3.98037 3.60529 3.79283 3.79282C3.6053 3.98036 3.49994 4.23471 3.49994 4.49993V6.51368C3.41693 6.50438 3.33346 6.49979 3.24994 6.49993C2.94265 6.50043 2.63869 6.56365 2.35669 6.68574C2.07469 6.80782 1.82059 6.9862 1.60994 7.20993C1.39778 7.43404 1.23442 7.69971 1.13018 7.99017C1.02593 8.28063 0.983076 8.58956 1.00431 8.89743C1.04014 9.43954 1.27049 9.95049 1.65298 10.3363C2.03548 10.7221 2.54441 10.9569 3.08619 10.9974C3.22408 11.0073 3.36259 11.0044 3.49994 10.9887V12.9999C3.49994 13.2651 3.6053 13.5195 3.79283 13.707C3.98037 13.8946 4.23472 13.9999 4.49994 13.9999H13.4999C13.7652 13.9999 14.0195 13.8946 14.207 13.707C14.3946 13.5195 14.4999 13.2651 14.4999 12.9999V10.3318C14.5 10.2473 14.4786 10.1642 14.4379 10.0902C14.3971 10.0162 14.3383 9.95377 14.2668 9.90868ZM13.4999 12.9999H4.49994V10.3318C4.49997 10.2474 4.47864 10.1644 4.43795 10.0905C4.39726 10.0166 4.33853 9.95419 4.26723 9.90908C4.19592 9.86398 4.11436 9.83765 4.03014 9.83255C3.94593 9.82746 3.86179 9.84376 3.78556 9.87993C3.59504 9.97003 3.38483 10.0105 3.17447 9.99758C2.96412 9.98465 2.76044 9.91874 2.58239 9.80599C2.40433 9.69323 2.25768 9.53729 2.15606 9.35265C2.05444 9.16802 2.00115 8.96068 2.00115 8.74993C2.00115 8.53918 2.05444 8.33184 2.15606 8.14721C2.25768 7.96257 2.40433 7.80663 2.58239 7.69387C2.76044 7.58112 2.96412 7.51521 3.17447 7.50228C3.38483 7.48936 3.59504 7.52983 3.78556 7.61993C3.86179 7.6561 3.94593 7.6724 4.03014 7.6673C4.11436 7.66221 4.19592 7.63588 4.26723 7.59078C4.33853 7.54567 4.39726 7.48326 4.43795 7.40935C4.47864 7.33543 4.49997 7.25243 4.49994 7.16806V4.49993H7.41806C7.50244 4.49996 7.58544 4.47863 7.65936 4.43794C7.73327 4.39725 7.79568 4.33852 7.84079 4.26722C7.88589 4.19591 7.91222 4.11435 7.91731 4.03014C7.92241 3.94592 7.90611 3.86178 7.86994 3.78555C7.77983 3.59503 7.73936 3.38482 7.75229 3.17446C7.76522 2.96411 7.83112 2.76043 7.94388 2.58238C8.05664 2.40432 8.21258 2.25767 8.39722 2.15605C8.58185 2.05443 8.78919 2.00114 8.99994 2.00114C9.21069 2.00114 9.41803 2.05443 9.60266 2.15605C9.7873 2.25767 9.94324 2.40432 10.056 2.58238C10.1688 2.76043 10.2347 2.96411 10.2476 3.17446C10.2605 3.38482 10.22 3.59503 10.1299 3.78555C10.0938 3.86178 10.0775 3.94592 10.0826 4.03014C10.0877 4.11435 10.114 4.19591 10.1591 4.26722C10.2042 4.33852 10.2666 4.39725 10.3405 4.43794C10.4144 4.47863 10.4974 4.49996 10.5818 4.49993H13.4999V6.51431C13.3626 6.49857 13.2241 6.49564 13.0862 6.50555C12.5043 6.54676 11.9611 6.81238 11.5712 7.24639C11.1814 7.6804 10.9754 8.24886 10.9966 8.83186C11.0178 9.41486 11.2647 9.96682 11.6851 10.3713C12.1055 10.7758 12.6666 11.0012 13.2499 10.9999C13.3335 11.0001 13.4169 10.9955 13.4999 10.9862V12.9999Z" fill="url(#paint0_linear_104_12740)"/>
<defs>
<linearGradient id="paint0_linear_104_12740" x1="1.85408" y1="4.97221" x2="14.0579" y2="5.0115" gradientUnits="userSpaceOnUse">
<stop stop-color="#39B6D8"/>
<stop offset="0.5" stop-color="#F7D344"/>
<stop offset="1" stop-color="#E38330"/>
</linearGradient>
</defs>
</svg>
