<svg width="40" height="40" viewBox="0 0 40 40" fill="none" xmlns="http://www.w3.org/2000/svg">
<rect x="0.5" y="0.5" width="39" height="39" rx="19.5" stroke="url(#paint0_linear_388_9540)"/>
<path d="M26.9 12.5H13.1C12.7681 12.5 12.5 12.7681 12.5 13.1V26.9C12.5 27.2319 12.7681 27.5 13.1 27.5H26.9C27.2319 27.5 27.5 27.2319 27.5 26.9V13.1C27.5 12.7681 27.2319 12.5 26.9 12.5ZM16.9494 25.2819H14.7237V18.1231H16.9494V25.2819ZM15.8375 17.1444C15.5824 17.1444 15.333 17.0687 15.1208 16.927C14.9087 16.7852 14.7433 16.5838 14.6457 16.348C14.5481 16.1123 14.5225 15.8529 14.5723 15.6027C14.6221 15.3525 14.7449 15.1226 14.9253 14.9422C15.1057 14.7618 15.3356 14.6389 15.5858 14.5892C15.8361 14.5394 16.0954 14.5649 16.3312 14.6626C16.5669 14.7602 16.7683 14.9255 16.9101 15.1377C17.0518 15.3498 17.1275 15.5992 17.1275 15.8544C17.1256 16.5669 16.5481 17.1444 15.8375 17.1444ZM25.2819 25.2819H23.0581V21.8C23.0581 20.9694 23.0431 19.9025 21.9012 19.9025C20.7444 19.9025 20.5662 20.8062 20.5662 21.74V25.2819H18.3444V18.1231H20.4781V19.1019H20.5081C20.8044 18.5394 21.53 17.945 22.6137 17.945C24.8675 17.945 25.2819 19.4281 25.2819 21.3556V25.2819Z" fill="white"/>
<defs>
<linearGradient id="paint0_linear_388_9540" x1="2.53333" y1="12.2223" x2="38.6904" y2="12.3343" gradientUnits="userSpaceOnUse">
<stop stop-color="#39B6D8"/>
<stop offset="0.5" stop-color="#F7D344"/>
<stop offset="1" stop-color="#E38330"/>
</linearGradient>
</defs>
</svg>
