<svg width="24" height="24" viewBox="0 0 24 24" fill="none" xmlns="http://www.w3.org/2000/svg">
<rect x="-0.5" y="0.5" width="23" height="23" rx="11.5" transform="matrix(-1 0 0 1 23 0)" fill="white"/>
<rect x="-0.5" y="0.5" width="23" height="23" rx="11.5" transform="matrix(-1 0 0 1 23 0)" stroke="url(#paint0_linear_10906_3732)"/>
<path d="M12.5269 16.8246L9.96241 16.7767C9.13208 16.76 8.29968 16.7933 7.48563 16.6203C6.24727 16.3618 6.15954 15.0942 6.06774 14.0309C5.94125 12.536 5.99021 11.014 6.22892 9.53168C6.36368 8.69991 6.894 8.20359 7.71413 8.14958C10.4827 7.95358 13.2696 7.9768 16.032 8.06825C16.3237 8.07663 16.6175 8.12245 16.9052 8.1746C18.3252 8.42897 18.3598 9.86546 18.4519 11.0747C18.5437 12.2964 18.5049 13.5244 18.3294 14.7379C18.1887 15.7425 17.9193 16.585 16.7827 16.6664C15.3586 16.7727 13.9672 16.8584 12.5391 16.8311C12.5392 16.8246 12.531 16.8246 12.5269 16.8246ZM11.0192 14.2811C12.0924 13.6514 13.1451 13.0322 14.2121 12.4068C13.137 11.7771 12.0863 11.1579 11.0192 10.5324V14.2811Z" fill="black"/>
<defs>
<linearGradient id="paint0_linear_10906_3732" x1="12" y1="0" x2="12" y2="24" gradientUnits="userSpaceOnUse">
<stop stop-color="#39B6D8"/>
<stop offset="0.463542" stop-color="#F7D344"/>
<stop offset="1" stop-color="#E68F33"/>
</linearGradient>
</defs>
</svg>
