<svg width="48" height="48" viewBox="0 0 48 48" fill="none" xmlns="http://www.w3.org/2000/svg">
<path d="M-4.57764e-05 0L47.9971 0L47.9971 48L-4.57764e-05 48L-4.57764e-05 0Z" fill="#48773D"/>
<path d="M4.19016 5.99112C4.10695 6.03619 3.86574 6.1308 3.46603 6.27395C3.14953 6.37995 2.94942 6.45128 2.86621 6.48893V5.18768C3.12278 5.0896 3.43383 4.93902 3.79986 4.73544C4.1654 4.53136 4.42395 4.3466 4.57502 4.18066H5.94404V13.3459H4.19016V5.99112Z" fill="white"/>
<path d="M7.42469 12.7795C7.03983 12.2971 6.84766 11.614 6.84766 10.7318V10.4148H8.59014V10.7204C8.59757 11.188 8.65404 11.5238 8.75954 11.7274C8.86553 11.931 9.05771 12.0325 9.33657 12.0325C9.61592 12.0325 9.80265 11.929 9.89676 11.7215C9.99087 11.5144 10.0384 11.1766 10.0384 10.709C10.0384 10.2186 9.9666 9.85456 9.82345 9.61729C9.67982 9.37953 9.41582 9.25718 9.03146 9.24926C9.00868 9.24183 8.90318 9.23786 8.71446 9.23786V7.9594H8.99728C9.38957 7.9594 9.66099 7.8539 9.81206 7.64288C9.96263 7.43138 10.0384 7.08464 10.0384 6.60169C10.0384 6.20938 9.98344 5.91912 9.87398 5.73039C9.76501 5.54217 9.57035 5.44756 9.2915 5.44756C9.0275 5.44756 8.84622 5.5491 8.74864 5.75318C8.65007 5.95676 8.59757 6.25842 8.59014 6.65816V7.06532H6.84766V6.56801C6.84766 5.76804 7.06064 5.14986 7.4871 4.71198C7.91306 4.2746 8.51436 4.05566 9.2915 4.05566C10.0835 4.05566 10.6947 4.26717 11.1246 4.68969C11.5545 5.11221 11.7695 5.719 11.7695 6.51104C11.7695 7.03907 11.66 7.4824 11.4411 7.84052C11.2222 8.19915 10.9433 8.42353 10.6041 8.51418C11.3807 8.80048 11.7695 9.5207 11.7695 10.6748C11.7695 11.5575 11.5729 12.2495 11.1811 12.7513C10.7888 13.2531 10.1667 13.5037 9.31428 13.5037C8.43907 13.5037 7.80954 13.2625 7.42469 12.7795Z" fill="white"/>
<path fill-rule="evenodd" clip-rule="evenodd" d="M41.6897 30.1436C41.7452 30.2199 41.7908 30.2863 41.8274 30.3422C41.7908 30.3997 41.7447 30.4651 41.6892 30.5423C40.4148 32.3241 34.6509 39.441 23.9548 39.4262C13.2572 39.4118 7.51463 32.2795 6.24318 30.4943C6.18919 30.4165 6.14263 30.3511 6.10449 30.2932C6.14263 30.2372 6.18919 30.1713 6.24367 30.0951C7.52008 28.3128 13.282 21.1964 23.9801 21.2107C34.6757 21.2256 40.4203 28.3574 41.6897 30.1436ZM23.9697 37.8119C25.6686 37.8144 27.2337 37.2467 28.4884 36.2922C28.3165 36.2273 28.3204 36.1416 27.8093 36.1213C27.0594 36.0921 26.5477 36.7558 26.2941 36.901C26.0415 37.0461 24.4546 36.1416 23.246 36.258C22.7042 36.3095 22.0172 36.5438 21.7859 37.1447C21.7259 37.3007 21.7799 37.431 21.8755 37.5092C22.5397 37.7039 23.2416 37.8109 23.9697 37.8119ZM29.2278 35.6497C29.9708 34.9127 30.5582 34.0191 30.9396 33.0235C30.9371 32.8303 30.8772 32.6346 30.8252 32.538C30.7985 32.4836 30.7687 32.4261 30.738 32.3657C30.5761 32.0422 30.3864 32.5727 29.4909 32.7951C29.1872 32.8699 28.785 32.917 28.1377 33.1503C27.6666 33.3212 27.1015 34.0776 27.364 34.7418C27.624 35.4055 27.4621 35.8573 28.0609 35.4665C28.6622 35.0747 28.2348 35.5383 28.4359 35.6131C28.6355 35.6864 28.5874 35.3555 28.9941 35.5631C29.0768 35.6047 29.1531 35.6289 29.2278 35.6497ZM22.9627 32.9531C23.4551 32.1631 22.8181 32.1353 22.5234 32.6753C22.4684 32.7743 22.2014 34.081 22.3906 34.2276C22.5784 34.3738 22.8602 33.1211 22.9627 32.9531ZM29.2967 31.4954C29.3789 31.5276 29.6796 31.5424 29.6796 31.4206C29.6796 31.2987 29.4819 31.0704 29.3289 30.9926C29.1788 30.9188 29.0248 31.0228 29.0852 31.2061C29.1456 31.3889 29.2165 31.4652 29.2967 31.4954ZM26.0079 31.478C26.1545 31.3453 25.778 30.9946 25.5274 31.0169C25.4155 31.0258 25.1089 31.267 25.2961 31.4131C25.4843 31.5603 25.8608 31.6088 26.0079 31.478ZM21.6155 34.6853C21.7626 34.1182 21.93 34.453 22.0028 34.0662C22.0761 33.6793 22.1975 33.653 22.1737 33.1874C22.1494 32.7238 22.2143 32.6158 22.5531 32.28C22.8914 31.9466 22.7948 32.1225 22.8934 31.8114C22.9914 31.5018 22.6537 31.4146 22.3525 31.2234C21.9989 30.998 21.6353 30.3952 21.6705 29.9856C21.6952 29.7018 21.8468 29.9603 22.1935 30.3214C22.5397 30.684 22.6953 30.9673 23.0479 30.8831C23.4021 30.7984 23.8865 30.4814 23.7602 30.1213C23.6755 29.8786 22.4843 28.9315 22.5382 28.7517C22.5997 28.5466 22.8022 28.7012 23.1653 28.9845C23.5269 29.2698 23.9603 29.2223 24.0489 29.7255C24.2134 30.6528 25.2708 30.2432 25.997 31.0778C26.2763 31.3983 26.4135 31.0525 26.6037 30.6652C26.7949 30.2773 26.4561 30.0955 26.7216 29.9143C26.9881 29.7325 27.3021 29.8122 27.423 30.1218C27.5428 30.4324 27.7117 30.8356 27.8662 31.2477C28.0129 31.639 28.9024 32.2483 29.0203 32.2572C29.524 32.2899 28.846 31.5122 28.7935 31.2274C28.741 30.9431 28.9549 30.4111 29.1744 30.3338C29.3948 30.256 29.4819 30.3308 29.9579 30.0217C30.4349 29.7122 29.9436 29.6587 29.9337 29.142C29.9237 28.6259 30.2427 28.928 30.318 29.037C30.6132 29.4699 31.1229 29.2396 31.1907 28.9711C31.2071 28.9053 31.2328 28.7884 31.2274 28.6264C30.4468 25.3502 27.5052 22.9107 23.99 22.9062C22.512 22.9043 21.1355 23.3342 19.9755 24.0752C20.8398 24.0113 22.5734 23.7201 22.3872 24.4794C22.2227 25.1511 23.4848 25.2621 22.8434 25.5915C22.5709 25.7331 21.775 26.2859 21.5991 26.1888C21.1053 25.9214 22.6096 25.5811 22.3203 25.3859C22.0301 25.1878 21.4525 25.4136 21.0008 25.5122C20.7784 25.5622 19.9097 25.5588 19.5922 25.7098C19.2747 25.8634 18.9002 26.0665 19.0047 26.3379C19.1107 26.6099 19.9706 26.8258 20.1152 26.8258C20.2598 26.8263 20.4169 26.7912 20.7254 26.4132C21.0335 26.0333 21.407 26.3825 21.2985 26.433C21.191 26.485 20.9483 26.6569 20.7576 26.8828C20.6056 27.0611 20.3222 27.1874 20.0142 27.0319C19.7056 26.8769 19.0161 26.9596 18.8824 27.0364C18.7497 27.1141 18.4173 27.3459 18.3168 27.3722C18.2172 27.3989 18.0721 27.4742 18.1206 27.5783C18.1687 27.6808 18.1954 27.8046 18.1186 27.8809C18.0433 27.9592 17.9047 28.1206 17.7125 27.9919C17.5366 27.8745 17.0255 27.9255 16.8828 28.0825C16.8635 28.1424 16.8457 28.2034 16.8279 28.2638C16.818 28.5278 16.9324 28.9617 17.3692 28.6363C17.5124 28.5288 18.2261 28.5551 18.6664 28.1385C18.8745 27.9423 19.1063 28.1999 19.1563 28.3029C19.2073 28.4069 19.5065 29.0479 19.6561 29.0227C19.8051 28.9979 19.4134 28.4069 19.5887 28.3812C19.764 28.3549 19.9874 28.8795 20.0929 28.8057C20.3777 28.6046 20.613 28.6759 20.6447 28.9746C20.6714 29.2129 20.4476 29.3689 20.1613 29.4868C19.7655 29.6473 19.0855 29.2802 18.6541 29.1173C18.1295 28.9191 17.4336 28.8111 17.4336 28.8111L16.9973 28.9612C16.9973 28.9612 17.0062 29.0707 16.6114 29.5363C16.5941 29.5566 16.5792 29.5809 16.5654 29.6057C16.5416 29.8504 16.5277 30.0975 16.5272 30.3492C16.5257 31.378 16.7328 32.3582 17.1087 33.2503C17.1191 33.2543 17.1241 33.2573 17.135 33.2607C17.5456 33.3905 17.4267 33.3227 17.7159 33.1949C18.0067 33.0646 18.2667 32.7822 18.4738 33.0403C18.6828 33.2984 18.8814 33.2162 18.9096 33.6288C18.9369 34.0424 19.3356 33.3583 19.4104 33.9785C19.5278 34.9469 19.7561 34.4704 19.7556 34.6313C19.7551 35.0965 19.8012 36.0009 20.14 36.0267C20.4783 36.052 21.0122 35.8211 21.1563 35.6393C21.301 35.46 21.4704 35.255 21.6155 34.6853ZM29.6132 31.7247C29.5008 31.7336 29.1947 31.9749 29.3819 32.121C29.5701 32.2686 29.9455 32.3176 30.0922 32.1854C30.2398 32.0526 29.8638 31.7049 29.6132 31.7247ZM31.274 31.8906C31.376 31.3993 31.4315 30.8911 31.432 30.3695C31.4325 30.2243 31.427 30.0802 31.4196 29.9375C31.3255 29.6136 31.1328 29.3887 30.7712 29.4164C30.6801 29.4239 31.0119 29.7924 30.9015 29.9172C30.2393 30.6776 31.0743 31.8357 31.274 31.8906ZM17.6238 26.4672C17.4084 26.8174 17.2226 27.1889 17.0671 27.5748C17.1191 27.6005 17.1825 27.6124 17.2593 27.5951C17.495 27.5436 17.8987 27.0611 18.1563 26.8244C18.2474 26.7401 18.7442 26.5163 18.7125 26.3934C18.6828 26.2701 18.4356 26.1765 18.2504 26.2077C18.0651 26.2364 17.7972 26.2691 17.6625 26.4221C17.656 26.4306 17.6407 26.4469 17.6238 26.4672ZM18.0067 25.7079C17.9735 25.7589 18.0419 25.8936 18.2157 25.9209C18.4406 25.957 18.8497 25.7277 19.0067 25.5652C19.0627 25.5082 19.1266 25.1774 19.1073 25.0917C19.0889 25.0065 18.9379 24.9421 18.8244 24.9644C18.7095 24.9842 18.5456 25.006 18.4634 25.112C18.4242 25.1625 18.1033 25.5662 18.0067 25.7079Z" fill="white"/>
<path d="M16.3656 7.72475C16.1105 7.72475 15.9072 7.67286 15.7602 7.57341C15.6176 7.47395 15.5138 7.33558 15.4576 7.16262C15.4014 6.98533 15.3711 6.78642 15.3711 6.55724V5.30757C15.3711 5.06975 15.4014 4.86219 15.4576 4.6849C15.5138 4.50762 15.6176 4.37357 15.7602 4.27844C15.9072 4.18331 16.1105 4.13574 16.3656 4.13574C16.6077 4.13574 16.798 4.17898 16.932 4.26114C17.0704 4.3433 17.1698 4.46005 17.226 4.61139C17.2822 4.76274 17.3125 4.94003 17.3125 5.14326V5.4373H16.6985V5.13461C16.6985 5.03516 16.6942 4.94867 16.6812 4.86652C16.6726 4.78436 16.6466 4.72382 16.5991 4.67626C16.5558 4.62869 16.478 4.60275 16.3699 4.60275C16.2618 4.60275 16.1796 4.62869 16.1278 4.68058C16.0802 4.72814 16.0456 4.79733 16.0326 4.88381C16.0197 4.96597 16.011 5.0611 16.011 5.1692V6.69129C16.011 6.81669 16.0197 6.92479 16.0413 7.00695C16.0629 7.08911 16.0975 7.14964 16.1494 7.19288C16.2056 7.2318 16.2791 7.25342 16.3699 7.25342C16.478 7.25342 16.5515 7.22748 16.5947 7.17991C16.6423 7.12802 16.6682 7.05884 16.6812 6.97668C16.6942 6.89452 16.6985 6.79939 16.6985 6.69561V6.37995H17.3125V6.66102C17.3125 6.86858 17.2865 7.05451 17.2303 7.21451C17.1741 7.3745 17.079 7.4999 16.9406 7.5907C16.8066 7.68151 16.612 7.72475 16.3656 7.72475Z" fill="white"/>
<path d="M17.6289 7.67709V4.17456H18.2688V7.23603H19.1163V7.67709H17.6289Z" fill="white"/>
<path d="M19.9672 4.17456H19.3359V7.67709H19.9672V4.17456Z" fill="white"/>
<path d="M20.3701 7.67709L20.4307 4.17456H21.0922L21.5894 6.60038L22.1083 4.17456H22.7482L22.8131 7.67709H22.3375L22.2856 5.24261L21.7883 7.67709H21.4035L20.8976 5.23397L20.8501 7.67709H20.3701Z" fill="white"/>
<path d="M23.0244 7.67709L23.7249 4.17456H24.408L25.1085 7.67709H24.5161L24.3778 6.86848H23.7681L23.6254 7.67709H23.0244ZM23.833 6.46201H24.3086L24.0708 4.99182L23.833 6.46201Z" fill="white"/>
<path d="M25.5021 7.67709V4.64589H24.9443V4.17456H26.6912V4.64589H26.142V7.67709H25.5021Z" fill="white"/>
<path d="M26.8818 7.67709V4.17456H28.3519V4.62427H27.5218V5.63178H28.1747V6.07717H27.5218V7.23603H28.3606V7.67709H26.8818Z" fill="white"/>
<path d="M15.2461 13.4012L15.9466 9.89868H16.6297L17.3302 13.4012H16.7378L16.5995 12.5926H15.9898L15.8471 13.4012H15.2461ZM16.0546 12.1861H16.5303L16.2925 10.7159L16.0546 12.1861Z" fill="white"/>
<path d="M18.4671 13.4486C18.212 13.4486 18.0088 13.3967 17.8618 13.2973C17.7191 13.1978 17.6153 13.0595 17.5591 12.8865C17.5029 12.7092 17.4727 12.5103 17.4727 12.2811V11.0315C17.4727 10.7936 17.5029 10.5861 17.5591 10.4088C17.6153 10.2315 17.7191 10.0974 17.8618 10.0023C18.0088 9.90718 18.212 9.85962 18.4671 9.85962C18.7093 9.85962 18.8995 9.90286 19.0336 9.98502C19.1719 10.0672 19.2714 10.1839 19.3276 10.3353C19.3838 10.4866 19.4141 10.6639 19.4141 10.8671V11.1612H18.8001V10.8585C18.8001 10.759 18.7957 10.6726 18.7828 10.5904C18.7741 10.5082 18.7482 10.4477 18.7006 10.4001C18.6574 10.3526 18.5796 10.3266 18.4715 10.3266C18.3634 10.3266 18.2812 10.3526 18.2293 10.4045C18.1818 10.452 18.1472 10.5212 18.1342 10.6077C18.1212 10.6898 18.1126 10.785 18.1126 10.8931V12.4152C18.1126 12.5406 18.1212 12.6487 18.1428 12.7308C18.1645 12.813 18.1991 12.8735 18.2509 12.9168C18.3072 12.9557 18.3807 12.9773 18.4715 12.9773C18.5796 12.9773 18.6531 12.9514 18.6963 12.9038C18.7439 12.8519 18.7698 12.7827 18.7828 12.7006C18.7957 12.6184 18.8001 12.5233 18.8001 12.4195V12.1038H19.4141V12.3849C19.4141 12.5925 19.3881 12.7784 19.3319 12.9384C19.2757 13.0984 19.1806 13.2238 19.0422 13.3146C18.9082 13.4054 18.7136 13.4486 18.4671 13.4486Z" fill="white"/>
<path d="M20.0754 13.4012V10.37H19.5176V9.89868H21.2644V10.37H20.7153V13.4012H20.0754Z" fill="white"/>
<path d="M22.0991 9.89868H21.4678V13.4012H22.0991V9.89868Z" fill="white"/>
<path d="M23.4572 13.4486C23.2108 13.4486 23.0119 13.4011 22.8649 13.3103C22.7179 13.2194 22.6141 13.0854 22.5492 12.9124C22.4844 12.7395 22.4541 12.5362 22.4541 12.2984V10.9882C22.4541 10.7504 22.4844 10.5515 22.5492 10.3828C22.6141 10.2142 22.7179 10.0845 22.8649 9.99367C23.0119 9.90286 23.2108 9.85962 23.4572 9.85962C23.7123 9.85962 23.9112 9.90286 24.0539 9.99367C24.2009 10.0845 24.3047 10.2142 24.3696 10.3828C24.4344 10.5515 24.469 10.7504 24.469 10.9882V12.3027C24.469 12.5362 24.4344 12.7395 24.3696 12.9124C24.3047 13.0811 24.2009 13.2151 24.0539 13.3103C23.9112 13.4011 23.7123 13.4486 23.4572 13.4486ZM23.4572 12.9773C23.5653 12.9773 23.6432 12.9557 23.6907 12.9081C23.7426 12.8605 23.7772 12.8 23.7945 12.7179C23.8118 12.6357 23.8204 12.5492 23.8204 12.4541V10.8412C23.8204 10.7417 23.8118 10.6553 23.7945 10.5774C23.7772 10.4996 23.7426 10.439 23.6907 10.3958C23.6432 10.3482 23.5653 10.3266 23.4572 10.3266C23.3578 10.3266 23.28 10.3482 23.2281 10.3958C23.1762 10.439 23.1416 10.4996 23.1243 10.5774C23.107 10.6553 23.0984 10.7417 23.0984 10.8412V12.4541C23.0984 12.5492 23.107 12.6357 23.12 12.7179C23.1373 12.8 23.1719 12.8605 23.2237 12.9081C23.2756 12.9557 23.3535 12.9773 23.4572 12.9773Z" fill="white"/>
<path d="M24.8057 13.4012V9.89868H25.251L26.1028 11.8964V9.89868H26.6303V13.4012H26.2066L25.3505 11.3083V13.4012H24.8057Z" fill="white"/>
</svg>
