<svg width="48" height="48" viewBox="0 0 48 48" fill="none" xmlns="http://www.w3.org/2000/svg">
<path d="M-4.57764e-05 0H47.9971V48H-4.57764e-05V0Z" fill="#F36D24"/>
<path d="M4.45277 12.8697C4.09515 12.4819 3.91214 11.8962 3.90472 11.1127V10.9771H5.55432C5.55432 11.3912 5.59784 11.685 5.6844 11.8581C5.77096 12.0318 5.95002 12.1183 6.22108 12.1183C6.40904 12.1183 6.5505 12.0619 6.64498 11.9487C6.73896 11.8359 6.80475 11.6494 6.84234 11.3897C6.87993 11.1295 6.89873 10.755 6.89873 10.2648V9.33882C6.80079 9.50453 6.64646 9.63413 6.43575 9.72861C6.22504 9.8226 5.9797 9.86959 5.70122 9.86959C5.02358 9.86959 4.52993 9.62078 4.22128 9.12364C3.91214 8.62651 3.75781 7.96762 3.75781 7.14648C3.75781 5.09017 4.5789 4.06177 6.22108 4.06177C7.06443 4.06177 7.68618 4.32146 8.08535 4.84135C8.48452 5.36124 8.68435 6.07702 8.68435 6.98819V10.3217C8.68435 11.3086 8.50133 12.0768 8.1363 12.6268C7.77076 13.1764 7.12873 13.4514 6.2097 13.4514C5.39603 13.4514 4.81039 13.2575 4.45277 12.8697ZM6.89873 8.11799V6.66072C6.89873 6.26153 6.84976 5.94494 6.75231 5.71146C6.65388 5.47798 6.4773 5.36124 6.22108 5.36124C5.95002 5.36124 5.76899 5.48738 5.67896 5.73966C5.58845 5.99194 5.54343 6.39311 5.54343 6.94317C5.54343 7.33494 5.55432 7.63421 5.57707 7.84148C5.59982 8.04874 5.66165 8.21594 5.76355 8.34405C5.86494 8.47267 6.02125 8.53648 6.23246 8.53648C6.51093 8.53648 6.73302 8.39698 6.89873 8.11799Z" fill="white"/>
<path d="M36.0477 31.5841L30.3159 28.2758V21.6577C30.3159 21.5182 30.2413 21.3891 30.1206 21.3189L24.1944 17.8973C24.0732 17.8275 23.9248 17.8275 23.8036 17.8973L17.8769 21.3189C17.7558 21.3891 17.6816 21.5182 17.6816 21.6577V28.2758L11.9503 31.5841C11.8291 31.6538 11.7549 31.7829 11.7549 31.9229V38.7676C11.7549 38.907 11.8291 39.0362 11.9503 39.1064L17.8769 42.5275C17.9378 42.5621 18.0046 42.5799 18.0723 42.5799C18.1401 42.5799 18.2074 42.5621 18.2677 42.5275L23.999 39.2192L29.7293 42.5275C29.7902 42.5621 29.8574 42.5799 29.9247 42.5799C29.9925 42.5799 30.0597 42.5621 30.1206 42.5275L36.0477 39.1064C36.1689 39.0366 36.2431 38.907 36.2431 38.7676V31.9229C36.2431 31.7829 36.1689 31.6538 36.0477 31.5841ZM23.6082 38.0904L18.8543 35.3455L23.6082 32.6001V38.0904ZM29.1427 28.5018L24.3898 31.2457V25.7565L29.1427 28.5018ZM23.6082 31.2457L18.8543 28.5018L23.6082 25.7565V31.2457ZM24.781 31.9229L29.9247 28.9535L35.0704 31.9229L29.9247 34.8939L24.781 31.9229ZM29.5339 27.8246L24.781 25.0793L29.5339 22.3349V27.8246ZM23.217 25.0793L18.4631 27.8246V22.3349L23.217 25.0793ZM17.6816 41.5114L12.5369 38.542V32.6001L17.6816 35.571V41.5114ZM18.4631 41.5114V36.0227L23.217 38.7676L18.4631 41.5114ZM35.4611 38.542L30.3159 41.5114V35.571L35.4611 32.6001V38.542Z" fill="white"/>
<path d="M11.3423 4.1062H10.7119V7.60396H11.3423V4.1062Z" fill="white"/>
<path d="M11.6709 7.60396V4.1062H12.1156L12.9663 6.10122V4.1062H13.4931V7.60396H13.0699L12.215 5.51394V7.60396H11.6709Z" fill="white"/>
<path d="M13.8135 7.60396V4.1062H14.6382C14.9232 4.1062 15.1434 4.14507 15.3032 4.22279C15.4629 4.30052 15.5795 4.42143 15.6443 4.58121C15.7134 4.74098 15.7479 4.94825 15.7479 5.19439V6.47259C15.7479 6.72736 15.7134 6.93896 15.6443 7.10737C15.5795 7.27578 15.4672 7.40101 15.3075 7.48305C15.152 7.5651 14.9361 7.60396 14.6641 7.60396H13.8135ZM14.4525 7.15918H14.6468C14.7936 7.15918 14.8973 7.13328 14.962 7.08146C15.0268 7.02964 15.0657 6.95623 15.0786 6.85691C15.0916 6.75759 15.1002 6.63236 15.1002 6.48986V5.15121C15.1002 5.00871 15.0916 4.89644 15.07 4.81007C15.0484 4.72371 15.0095 4.65893 14.9448 4.62007C14.88 4.58121 14.7807 4.55961 14.6382 4.55961H14.4525V7.15918Z" fill="white"/>
<path d="M16.9659 7.65146C16.7069 7.65146 16.5039 7.60396 16.3614 7.50896C16.2189 7.41396 16.1196 7.28009 16.0635 7.10305C16.0074 6.926 15.9814 6.71873 15.9814 6.47259V4.1062H16.6032V6.546C16.6032 6.65395 16.6119 6.75759 16.6248 6.85691C16.6378 6.95191 16.6723 7.02964 16.7241 7.09009C16.7803 7.14623 16.858 7.17646 16.9659 7.17646C17.0782 7.17646 17.1602 7.14623 17.2077 7.09009C17.2596 7.02964 17.2941 6.95191 17.3071 6.85691C17.3243 6.75759 17.333 6.65395 17.333 6.546V4.1062H17.9504V6.47259C17.9504 6.71873 17.9245 6.926 17.8684 7.10305C17.8123 7.28009 17.7129 7.41396 17.5704 7.50896C17.428 7.60396 17.2293 7.65146 16.9659 7.65146Z" fill="white"/>
<path d="M19.1205 7.65126C18.909 7.65126 18.7362 7.6124 18.5938 7.53035C18.4513 7.44831 18.3476 7.3274 18.2742 7.16762C18.2008 7.00785 18.162 6.81353 18.1533 6.58466L18.7017 6.47671C18.706 6.61057 18.7233 6.73148 18.7492 6.83512C18.7794 6.93876 18.8183 7.0208 18.8744 7.07694C18.9306 7.13308 19.0083 7.15899 19.0989 7.15899C19.2026 7.15899 19.276 7.12876 19.3192 7.0683C19.3623 7.00353 19.3839 6.9258 19.3839 6.8308C19.3839 6.67966 19.3494 6.55443 19.2803 6.45512C19.2112 6.3558 19.1205 6.2608 19.004 6.16148L18.5635 5.77284C18.4383 5.66488 18.339 5.54829 18.2656 5.41874C18.1922 5.28488 18.1576 5.1251 18.1576 4.93078C18.1576 4.65442 18.2397 4.44282 18.3994 4.29169C18.5592 4.14055 18.7794 4.06714 19.0601 4.06714C19.2242 4.06714 19.3623 4.09305 19.4703 4.14487C19.5782 4.19237 19.6646 4.26146 19.7294 4.35214C19.7941 4.44282 19.846 4.54214 19.8762 4.65874C19.9064 4.77101 19.928 4.89192 19.9366 5.01715L19.3926 5.11215C19.3883 5.00419 19.3753 4.90487 19.3537 4.81851C19.3364 4.73215 19.3019 4.66305 19.2544 4.61555C19.2069 4.56805 19.1378 4.54214 19.0471 4.54214C18.9521 4.54214 18.8787 4.57237 18.8269 4.63714C18.7794 4.6976 18.7535 4.77533 18.7535 4.86601C18.7535 4.9826 18.7794 5.08192 18.8269 5.15965C18.8744 5.23306 18.9478 5.31079 19.0385 5.39283L19.4746 5.77715C19.6171 5.89806 19.7423 6.04057 19.8416 6.20466C19.9453 6.36443 19.9971 6.56307 19.9971 6.79194C19.9971 6.96035 19.9582 7.10717 19.8848 7.23671C19.8114 7.36626 19.7121 7.4699 19.5782 7.54331C19.4487 7.61672 19.2976 7.65126 19.1205 7.65126Z" fill="white"/>
<path d="M20.5111 7.60396V4.57689H19.9541V4.1062H21.6986V4.57689H21.1502V7.60396H20.5111Z" fill="white"/>
<path d="M21.8076 7.60396V4.1062H22.6453C22.8828 4.1062 23.0814 4.13643 23.2412 4.19257C23.4053 4.2487 23.5305 4.3437 23.6125 4.47757C23.6989 4.61143 23.7421 4.79712 23.7421 5.0303C23.7421 5.1728 23.7291 5.29803 23.7032 5.4103C23.6773 5.52258 23.6341 5.61758 23.5693 5.69963C23.5089 5.77735 23.4225 5.83781 23.3146 5.88099L23.8025 7.60396H23.1635L22.7403 6.0019H22.4467V7.60396H21.8076ZM22.4467 5.60031H22.6453C22.7705 5.60031 22.8655 5.58303 22.9389 5.54849C23.0123 5.50962 23.0685 5.45349 23.0987 5.37576C23.1289 5.29371 23.1462 5.19439 23.1462 5.06916C23.1462 4.89212 23.1116 4.76257 23.0469 4.67621C22.9821 4.58552 22.8612 4.54234 22.6798 4.54234H22.4467V5.60031Z" fill="white"/>
<path d="M24.4415 7.60396V6.26963L23.7334 4.1062H24.3293L24.7611 5.49235L25.167 4.1062H25.7499L25.0504 6.26963V7.60396H24.4415Z" fill="white"/>
<path d="M25.5692 8.19099L25.5087 7.97508C25.5865 7.95349 25.6512 7.91031 25.7074 7.84985C25.7635 7.79371 25.7894 7.71167 25.7894 7.60371H25.4785V7.02075H26.0528V7.55189C26.0528 7.73758 26.0139 7.88008 25.9319 7.98372C25.8499 8.09167 25.729 8.16076 25.5692 8.19099Z" fill="white"/>
<path d="M27.7544 4.1062H27.124V7.60396H27.7544V4.1062Z" fill="white"/>
<path d="M28.083 7.60396V4.1062H28.5278L29.3784 6.10122V4.1062H29.9052V7.60396H29.482L28.6271 5.51394V7.60396H28.083Z" fill="white"/>
<path d="M30.2256 7.60396V4.1062H30.6703L31.521 6.10122V4.1062H32.0478V7.60396H31.6246L30.7696 5.51394V7.60396H30.2256Z" fill="white"/>
<path d="M33.3182 7.65126C33.072 7.65126 32.8734 7.60376 32.7266 7.51308C32.5798 7.4224 32.4762 7.28853 32.4114 7.1158C32.3466 6.94307 32.3164 6.74012 32.3164 6.50262V5.19419C32.3164 4.95669 32.3466 4.75805 32.4114 4.58964C32.4762 4.42123 32.5798 4.29169 32.7266 4.201C32.8734 4.11032 33.072 4.06714 33.3182 4.06714C33.5729 4.06714 33.7716 4.11032 33.914 4.201C34.0609 4.29169 34.1645 4.42123 34.2293 4.58964C34.294 4.75805 34.3286 4.95669 34.3286 5.19419V6.50693C34.3286 6.74012 34.294 6.94307 34.2293 7.1158C34.1645 7.28421 34.0609 7.41808 33.914 7.51308C33.7716 7.60376 33.5729 7.65126 33.3182 7.65126ZM33.3182 7.18058C33.4261 7.18058 33.5038 7.15899 33.5513 7.11149C33.6032 7.06399 33.6377 7.00353 33.655 6.92148C33.6722 6.83944 33.6809 6.75307 33.6809 6.65807V5.04738C33.6809 4.94806 33.6722 4.86169 33.655 4.78396C33.6377 4.70624 33.6032 4.64578 33.5513 4.6026C33.5038 4.5551 33.4261 4.53351 33.3182 4.53351C33.2189 4.53351 33.1411 4.5551 33.0893 4.6026C33.0375 4.64578 33.003 4.70624 32.9857 4.78396C32.9684 4.86169 32.9598 4.94806 32.9598 5.04738V6.65807C32.9598 6.75307 32.9684 6.83944 32.9814 6.92148C32.9986 7.00353 33.0332 7.06399 33.085 7.11149C33.1368 7.15899 33.2145 7.18058 33.3182 7.18058Z" fill="white"/>
<path d="M35.1101 7.60396L34.4062 4.1062H34.9719L35.4339 6.58054L35.8657 4.1062H36.4443L35.7405 7.60396H35.1101Z" fill="white"/>
<path d="M36.2461 7.60396L36.9456 4.1062H37.6278L38.3273 7.60396H37.7358L37.5976 6.79645H36.9888L36.8463 7.60396H36.2461ZM37.0535 6.39054H37.5285L37.291 4.92235L37.0535 6.39054Z" fill="white"/>
<path d="M38.639 7.60396V4.57689H38.082V4.1062H39.8265V4.57689H39.2781V7.60396H38.639Z" fill="white"/>
<path d="M40.5816 4.1062H39.9512V7.60396H40.5816V4.1062Z" fill="white"/>
<path d="M41.8611 7.65126C41.615 7.65126 41.4164 7.60376 41.2696 7.51308C41.1228 7.4224 41.0191 7.28853 40.9544 7.1158C40.8896 6.94307 40.8594 6.74012 40.8594 6.50262V5.19419C40.8594 4.95669 40.8896 4.75805 40.9544 4.58964C41.0191 4.42123 41.1228 4.29169 41.2696 4.201C41.4164 4.11032 41.615 4.06714 41.8611 4.06714C42.1159 4.06714 42.3145 4.11032 42.457 4.201C42.6038 4.29169 42.7075 4.42123 42.7722 4.58964C42.837 4.75805 42.8715 4.95669 42.8715 5.19419V6.50693C42.8715 6.74012 42.837 6.94307 42.7722 7.1158C42.7075 7.28421 42.6038 7.41808 42.457 7.51308C42.3145 7.60376 42.1159 7.65126 41.8611 7.65126ZM41.8611 7.18058C41.9691 7.18058 42.0468 7.15899 42.0943 7.11149C42.1461 7.06399 42.1807 7.00353 42.1979 6.92148C42.2152 6.83944 42.2238 6.75307 42.2238 6.65807V5.04738C42.2238 4.94806 42.2152 4.86169 42.1979 4.78396C42.1807 4.70624 42.1461 4.64578 42.0943 4.6026C42.0468 4.5551 41.9691 4.53351 41.8611 4.53351C41.7618 4.53351 41.6841 4.5551 41.6323 4.6026C41.5805 4.64578 41.5459 4.70624 41.5287 4.78396C41.5114 4.86169 41.5027 4.94806 41.5027 5.04738V6.65807C41.5027 6.75307 41.5114 6.83944 41.5243 6.92148C41.5416 7.00353 41.5762 7.06399 41.628 7.11149C41.6798 7.15899 41.7575 7.18058 41.8611 7.18058Z" fill="white"/>
<path d="M43.1309 7.60396V4.1062H43.5756L44.4262 6.10122V4.1062H44.953V7.60396H44.5299L43.6749 5.51394V7.60396H43.1309Z" fill="white"/>
<path d="M10.5176 13.32L11.2171 9.82227H11.8993L12.5988 13.32H12.0073L11.8691 12.5125H11.2603L11.1178 13.32H10.5176ZM11.325 12.1066H11.8L11.5625 10.6384L11.325 12.1066Z" fill="white"/>
<path d="M12.7686 13.32V9.82227H13.2133L14.0639 11.8173V9.82227H14.5907V13.32H14.1676L13.3126 11.23V13.32H12.7686Z" fill="white"/>
<path d="M14.9414 13.32V9.82227H15.7661C16.0511 9.82227 16.2713 9.86113 16.4311 9.93886C16.5909 10.0166 16.7074 10.1375 16.7722 10.2973C16.8413 10.457 16.8758 10.6643 16.8758 10.9105V12.1887C16.8758 12.4434 16.8413 12.655 16.7722 12.8234C16.7074 12.9918 16.5952 13.1171 16.4354 13.1991C16.28 13.2812 16.0641 13.32 15.792 13.32H14.9414ZM15.5805 12.8752H15.7748C15.9216 12.8752 16.0252 12.8493 16.09 12.7975C16.1547 12.7457 16.1936 12.6723 16.2066 12.573C16.2195 12.4737 16.2282 12.3484 16.2282 12.2059V10.8673C16.2282 10.7248 16.2195 10.6125 16.1979 10.5261C16.1763 10.4398 16.1375 10.375 16.0727 10.3361C16.0079 10.2973 15.9086 10.2757 15.7661 10.2757H15.5805V12.8752Z" fill="white"/>
<path d="M18.6822 9.82227H18.0518V13.32H18.6822V9.82227Z" fill="white"/>
<path d="M19.042 13.32V9.82227H19.4867L20.3374 11.8173V9.82227H20.8642V13.32H20.441L19.5861 11.23V13.32H19.042Z" fill="white"/>
<path d="M21.2148 13.32V9.82227H22.6527V10.2627H21.8539V11.2818H22.5059V11.7266H21.8539V13.32H21.2148Z" fill="white"/>
<path d="M22.8174 13.32V9.82227H23.6551C23.8926 9.82227 24.0912 9.85249 24.2509 9.90863C24.415 9.96477 24.5402 10.0598 24.6223 10.1936C24.7086 10.3275 24.7518 10.5132 24.7518 10.7464C24.7518 10.8889 24.7389 11.0141 24.713 11.1264C24.6871 11.2386 24.6439 11.3336 24.5791 11.4157C24.5187 11.4934 24.4323 11.5539 24.3243 11.5971L24.8123 13.32H24.1732L23.7501 11.718H23.4564V13.32H22.8174ZM23.4564 11.3164H23.6551C23.7803 11.3164 23.8753 11.2991 23.9487 11.2646C24.0221 11.2257 24.0782 11.1696 24.1084 11.0918C24.1387 11.0098 24.1559 10.9105 24.1559 10.7852C24.1559 10.6082 24.1214 10.4786 24.0566 10.3923C23.9919 10.3016 23.871 10.2584 23.6896 10.2584H23.4564V11.3164Z" fill="white"/>
<path d="M24.8828 13.32L25.5823 9.82227H26.2646L26.9641 13.32H26.3725L26.2343 12.5125H25.6255L25.483 13.32H24.8828ZM25.6903 12.1066H26.1652L25.9278 10.6384L25.6903 12.1066Z" fill="white"/>
<path d="M28.0014 13.3676C27.7898 13.3676 27.6171 13.3287 27.4746 13.2467C27.3321 13.1646 27.2285 13.0437 27.1551 12.8839C27.0817 12.7242 27.0428 12.5298 27.0342 12.301L27.5826 12.193C27.5869 12.3269 27.6041 12.4478 27.6301 12.5514C27.6603 12.6551 27.6991 12.7371 27.7553 12.7932C27.8114 12.8494 27.8891 12.8753 27.9798 12.8753C28.0834 12.8753 28.1568 12.8451 28.2 12.7846C28.2432 12.7198 28.2648 12.6421 28.2648 12.5471C28.2648 12.396 28.2302 12.2707 28.1612 12.1714C28.0921 12.0721 28.0014 11.9771 27.8848 11.8778L27.4444 11.4891C27.3192 11.3812 27.2199 11.2646 27.1464 11.1351C27.073 11.0012 27.0385 10.8414 27.0385 10.6471C27.0385 10.3707 27.1205 10.1591 27.2803 10.008C27.4401 9.85686 27.6603 9.78345 27.9409 9.78345C28.105 9.78345 28.2432 9.80936 28.3512 9.86118C28.4591 9.90868 28.5455 9.97777 28.6102 10.0684C28.675 10.1591 28.7268 10.2585 28.757 10.375C28.7873 10.4873 28.8089 10.6082 28.8175 10.7335L28.2734 10.8285C28.2691 10.7205 28.2562 10.6212 28.2346 10.5348C28.2173 10.4485 28.1828 10.3794 28.1353 10.3319C28.0878 10.2844 28.0187 10.2585 27.928 10.2585C27.833 10.2585 27.7596 10.2887 27.7078 10.3535C27.6603 10.4139 27.6344 10.4916 27.6344 10.5823C27.6344 10.6989 27.6603 10.7982 27.7078 10.876C27.7553 10.9494 27.8287 11.0271 27.9194 11.1091L28.3555 11.4935C28.498 11.6144 28.6232 11.7569 28.7225 11.921C28.8261 12.0807 28.8779 12.2794 28.8779 12.5082C28.8779 12.6767 28.8391 12.8235 28.7657 12.953C28.6923 13.0826 28.593 13.1862 28.4591 13.2596C28.3296 13.333 28.1784 13.3676 28.0014 13.3676Z" fill="white"/>
<path d="M29.4222 13.32V10.293H28.8652V9.82227H30.6097V10.293H30.0613V13.32H29.4222Z" fill="white"/>
<path d="M30.749 13.32V9.82227H31.5867C31.8242 9.82227 32.0228 9.85249 32.1826 9.90863C32.3467 9.96477 32.4719 10.0598 32.5539 10.1936C32.6403 10.3275 32.6835 10.5132 32.6835 10.7464C32.6835 10.8889 32.6705 11.0141 32.6446 11.1264C32.6187 11.2386 32.5755 11.3336 32.5107 11.4157C32.4503 11.4934 32.3639 11.5539 32.256 11.5971L32.7439 13.32H32.1049L31.6817 11.718H31.3881V13.32H30.749ZM31.3881 11.3164H31.5867C31.7119 11.3164 31.8069 11.2991 31.8803 11.2646C31.9537 11.2257 32.0099 11.1696 32.0401 11.0918C32.0703 11.0098 32.0876 10.9105 32.0876 10.7852C32.0876 10.6082 32.053 10.4786 31.9883 10.3923C31.9235 10.3016 31.8026 10.2584 31.6212 10.2584H31.3881V11.3164Z" fill="white"/>
<path d="M33.9405 13.3675C33.6815 13.3675 33.4785 13.32 33.336 13.225C33.1935 13.13 33.0942 12.9962 33.0381 12.8191C32.982 12.6421 32.9561 12.4348 32.9561 12.1887V9.82227H33.5778V12.2621C33.5778 12.37 33.5865 12.4737 33.5994 12.573C33.6124 12.668 33.6469 12.7457 33.6987 12.8062C33.7549 12.8623 33.8326 12.8925 33.9405 12.8925C34.0528 12.8925 34.1349 12.8623 34.1824 12.8062C34.2342 12.7457 34.2687 12.668 34.2817 12.573C34.2989 12.4737 34.3076 12.37 34.3076 12.2621V9.82227H34.925V12.1887C34.925 12.4348 34.8991 12.6421 34.843 12.8191C34.7869 12.9962 34.6875 13.13 34.5451 13.225C34.4026 13.32 34.2039 13.3675 33.9405 13.3675Z" fill="white"/>
<path d="M36.1875 13.3676C35.9327 13.3676 35.7298 13.3158 35.583 13.2164C35.4405 13.1171 35.3368 12.9789 35.2807 12.8062C35.2246 12.6292 35.1943 12.4305 35.1943 12.2017V10.9537C35.1943 10.7162 35.2246 10.5089 35.2807 10.3319C35.3368 10.1548 35.4405 10.0209 35.583 9.92595C35.7298 9.83095 35.9327 9.78345 36.1875 9.78345C36.4293 9.78345 36.6193 9.82663 36.7531 9.90868C36.8913 9.99072 36.9906 10.1073 37.0467 10.2585C37.1029 10.4096 37.1331 10.5866 37.1331 10.7896V11.0832H36.5199V10.781C36.5199 10.6816 36.5156 10.5953 36.5027 10.5132C36.494 10.4312 36.4681 10.3707 36.4206 10.3232C36.3775 10.2757 36.2997 10.2498 36.1918 10.2498C36.0838 10.2498 36.0018 10.2757 35.95 10.3275C35.9025 10.375 35.8679 10.4441 35.855 10.5305C35.842 10.6125 35.8334 10.7075 35.8334 10.8155V12.3355C35.8334 12.4607 35.842 12.5687 35.8636 12.6507C35.8852 12.7328 35.9198 12.7932 35.9716 12.8364C36.0277 12.8753 36.1011 12.8969 36.1918 12.8969C36.2997 12.8969 36.3731 12.871 36.4163 12.8235C36.4638 12.7717 36.4897 12.7026 36.5027 12.6205C36.5156 12.5385 36.5199 12.4435 36.5199 12.3398V12.0246H37.1331V12.3053C37.1331 12.5126 37.1072 12.6982 37.0511 12.858C36.9949 13.0178 36.8999 13.143 36.7617 13.2337C36.6279 13.3244 36.4336 13.3676 36.1875 13.3676Z" fill="white"/>
<path d="M37.7465 13.32V10.293H37.1895V9.82227H38.9339V10.293H38.3855V13.32H37.7465Z" fill="white"/>
<path d="M40.0323 13.3675C39.7733 13.3675 39.5703 13.32 39.4278 13.225C39.2853 13.13 39.186 12.9962 39.1299 12.8191C39.0738 12.6421 39.0479 12.4348 39.0479 12.1887V9.82227H39.6696V12.2621C39.6696 12.37 39.6783 12.4737 39.6912 12.573C39.7042 12.668 39.7387 12.7457 39.7905 12.8062C39.8467 12.8623 39.9244 12.8925 40.0323 12.8925C40.1446 12.8925 40.2266 12.8623 40.2741 12.8062C40.326 12.7457 40.3605 12.668 40.3735 12.573C40.3907 12.4737 40.3994 12.37 40.3994 12.2621V9.82227H41.0168V12.1887C41.0168 12.4348 40.9909 12.6421 40.9348 12.8191C40.8787 12.9962 40.7793 13.13 40.6369 13.225C40.4944 13.32 40.2957 13.3675 40.0323 13.3675Z" fill="white"/>
<path d="M41.3369 13.32V9.82227H42.1746C42.4121 9.82227 42.6107 9.85249 42.7705 9.90863C42.9346 9.96477 43.0598 10.0598 43.1418 10.1936C43.2282 10.3275 43.2714 10.5132 43.2714 10.7464C43.2714 10.8889 43.2584 11.0141 43.2325 11.1264C43.2066 11.2386 43.1634 11.3336 43.0986 11.4157C43.0382 11.4934 42.9518 11.5539 42.8439 11.5971L43.3318 13.32H42.6927L42.2696 11.718H41.976V13.32H41.3369ZM41.976 11.3164H42.1746C42.2998 11.3164 42.3948 11.2991 42.4682 11.2646C42.5416 11.2257 42.5978 11.1696 42.628 11.0918C42.6582 11.0098 42.6755 10.9105 42.6755 10.7852C42.6755 10.6082 42.6409 10.4786 42.5762 10.3923C42.5114 10.3016 42.3905 10.2584 42.2091 10.2584H41.976V11.3164Z" fill="white"/>
<path d="M43.5791 13.32V9.82227H45.0472V10.2714H44.2182V11.2775H44.8702V11.7223H44.2182V12.8796H45.0558V13.32H43.5791Z" fill="white"/>
</svg>
