<svg width="60" height="61" viewBox="0 0 60 61" fill="none" xmlns="http://www.w3.org/2000/svg">
<circle cx="30" cy="30.689" r="30" fill="url(#paint0_linear_7594_39907)"/>
<path d="M38.0306 25.7194L32.7806 20.4694C32.7109 20.3997 32.6282 20.3445 32.5371 20.3069C32.4461 20.2693 32.3485 20.2499 32.25 20.25H23.25C22.8522 20.25 22.4706 20.408 22.1893 20.6893C21.908 20.9706 21.75 21.3522 21.75 21.75V38.25C21.75 38.6478 21.908 39.0294 22.1893 39.3107C22.4706 39.592 22.8522 39.75 23.25 39.75H36.75C37.1478 39.75 37.5294 39.592 37.8107 39.3107C38.092 39.0294 38.25 38.6478 38.25 38.25V26.25C38.2501 26.1515 38.2307 26.0539 38.1931 25.9629C38.1555 25.8718 38.1003 25.7891 38.0306 25.7194ZM33 34.5H27C26.8011 34.5 26.6103 34.421 26.4697 34.2803C26.329 34.1397 26.25 33.9489 26.25 33.75C26.25 33.5511 26.329 33.3603 26.4697 33.2197C26.6103 33.079 26.8011 33 27 33H33C33.1989 33 33.3897 33.079 33.5303 33.2197C33.671 33.3603 33.75 33.5511 33.75 33.75C33.75 33.9489 33.671 34.1397 33.5303 34.2803C33.3897 34.421 33.1989 34.5 33 34.5ZM33 31.5H27C26.8011 31.5 26.6103 31.421 26.4697 31.2803C26.329 31.1397 26.25 30.9489 26.25 30.75C26.25 30.5511 26.329 30.3603 26.4697 30.2197C26.6103 30.079 26.8011 30 27 30H33C33.1989 30 33.3897 30.079 33.5303 30.2197C33.671 30.3603 33.75 30.5511 33.75 30.75C33.75 30.9489 33.671 31.1397 33.5303 31.2803C33.3897 31.421 33.1989 31.5 33 31.5ZM32.25 26.25V22.125L36.375 26.25H32.25Z" fill="white"/>
<defs>
<linearGradient id="paint0_linear_7594_39907" x1="62.7645" y1="180.889" x2="-7.78157" y2="180.889" gradientUnits="userSpaceOnUse">
<stop stop-color="#F7D344"/>
<stop offset="1" stop-color="#E38330"/>
</linearGradient>
</defs>
</svg>
