<svg width="64" height="65" viewBox="0 0 64 65" fill="none" xmlns="http://www.w3.org/2000/svg">
<circle cx="32" cy="32.689" r="31" fill="white" stroke="#E5E5E5" stroke-width="2"/>
<path d="M40.0306 27.7194L34.7806 22.4694C34.7109 22.3997 34.6282 22.3445 34.5371 22.3069C34.4461 22.2693 34.3485 22.2499 34.25 22.25H25.25C24.8522 22.25 24.4706 22.408 24.1893 22.6893C23.908 22.9706 23.75 23.3522 23.75 23.75V40.25C23.75 40.6478 23.908 41.0294 24.1893 41.3107C24.4706 41.592 24.8522 41.75 25.25 41.75H38.75C39.1478 41.75 39.5294 41.592 39.8107 41.3107C40.092 41.0294 40.25 40.6478 40.25 40.25V28.25C40.2501 28.1515 40.2307 28.0539 40.1931 27.9629C40.1555 27.8718 40.1003 27.7891 40.0306 27.7194ZM35 36.5H29C28.8011 36.5 28.6103 36.421 28.4697 36.2803C28.329 36.1397 28.25 35.9489 28.25 35.75C28.25 35.5511 28.329 35.3603 28.4697 35.2197C28.6103 35.079 28.8011 35 29 35H35C35.1989 35 35.3897 35.079 35.5303 35.2197C35.671 35.3603 35.75 35.5511 35.75 35.75C35.75 35.9489 35.671 36.1397 35.5303 36.2803C35.3897 36.421 35.1989 36.5 35 36.5ZM35 33.5H29C28.8011 33.5 28.6103 33.421 28.4697 33.2803C28.329 33.1397 28.25 32.9489 28.25 32.75C28.25 32.5511 28.329 32.3603 28.4697 32.2197C28.6103 32.079 28.8011 32 29 32H35C35.1989 32 35.3897 32.079 35.5303 32.2197C35.671 32.3603 35.75 32.5511 35.75 32.75C35.75 32.9489 35.671 33.1397 35.5303 33.2803C35.3897 33.421 35.1989 33.5 35 33.5ZM34.25 28.25V24.125L38.375 28.25H34.25Z" fill="#D4D4D4"/>
</svg>
