<svg width="200" height="35" viewBox="0 0 200 35" fill="none" xmlns="http://www.w3.org/2000/svg">
<g style="mix-blend-mode:luminosity">
<g clip-path="url(#clip0_7323_33867)">
<path d="M38.8734 32.5906C38.8734 32.735 38.9136 32.8186 38.9873 32.8186C39.0476 32.811 39.1012 32.7806 39.1481 32.7426L60.032 17.3678C60.3849 17.088 60.8076 16.9441 61.238 16.9574H65.8275C66.531 16.9574 67.0067 17.4894 67.0067 18.2874V28.2282C67.0067 29.429 66.7722 30.1282 65.8342 30.7666L60.2665 34.5666C60.211 34.6103 60.1463 34.6365 60.0789 34.6426C60.0119 34.6426 59.9449 34.5818 59.9449 34.3614V22.7638C59.9449 22.627 59.9114 22.5358 59.831 22.5358C59.7722 22.5434 59.7164 22.5698 59.6702 22.6118L44.4076 33.8598C44.0592 34.1258 43.6505 34.2702 43.2351 34.2626H33.1181C32.4079 34.2626 31.9389 33.7306 31.9389 32.925V18.599C31.9389 18.4926 31.8987 18.3938 31.8183 18.3938C31.7596 18.4022 31.7041 18.4285 31.6575 18.4698L21.5874 25.325C21.4869 25.401 21.4601 25.4542 21.4601 25.5074C21.4601 25.553 21.4802 25.5986 21.5472 25.6822L28.743 33.837C28.8368 33.9434 28.9038 34.027 28.9038 34.1182C28.9038 34.1942 28.7966 34.255 28.6693 34.255H22.1703C21.6611 34.255 21.2658 34.1714 20.9911 33.8598L16.6294 28.9198C16.6129 28.8973 16.5924 28.879 16.5694 28.8659C16.5463 28.8529 16.5211 28.8453 16.4954 28.8438C16.4481 28.8462 16.4021 28.8619 16.3614 28.8894L9.0718 33.8598C8.6296 34.1638 8.3281 34.2474 7.8926 34.2474H1.1859C0.469 34.255 0 33.7154 0 32.9174V23.1666C0 21.9582 0.2345 21.2666 1.1792 20.6282L6.7804 16.813C6.82434 16.7803 6.87531 16.7619 6.9278 16.7598C7.0149 16.7598 7.0618 16.8586 7.0618 17.079V30.1358C7.0618 30.2726 7.0886 30.3334 7.1757 30.3334C7.236 30.3258 7.2896 30.2954 7.3432 30.2574L26.264 17.345C26.6258 17.0638 27.068 16.927 27.5102 16.9498H37.6942C38.3977 16.9498 38.8734 17.4818 38.8734 18.2798L38.8667 32.5906H38.8734Z" fill="white"/>
</g>
</g>
<defs>
<clipPath id="clip0_7323_33867">
<rect width="67" height="19" fill="white" transform="translate(0 16)"/>
</clipPath>
</defs>
</svg>
