<svg width="18" height="18" viewBox="0 0 18 18" fill="none" xmlns="http://www.w3.org/2000/svg">
<path d="M15.9279 3.96637L9.17789 1.71637C9.06242 1.67788 8.93758 1.67788 8.82211 1.71637L2.07211 3.96637C1.96011 4.00371 1.86269 4.07534 1.79366 4.17112C1.72463 4.2669 1.68749 4.38198 1.6875 4.50004V10.125C1.6875 10.2742 1.74676 10.4173 1.85225 10.5228C1.95774 10.6283 2.10082 10.6875 2.25 10.6875C2.39918 10.6875 2.54226 10.6283 2.64775 10.5228C2.75324 10.4173 2.8125 10.2742 2.8125 10.125V5.28051L5.1743 6.06731C4.5468 7.08108 4.34726 8.30243 4.61949 9.46319C4.89171 10.624 5.61346 11.6292 6.62625 12.2583C5.36062 12.7547 4.26656 13.6526 3.46641 14.8803C3.42479 14.9421 3.39589 15.0116 3.38137 15.0847C3.36685 15.1579 3.36702 15.2331 3.38185 15.3062C3.39668 15.3793 3.42589 15.4486 3.46777 15.5103C3.50965 15.572 3.56337 15.6247 3.62581 15.6654C3.68824 15.7061 3.75816 15.7341 3.83147 15.7475C3.90479 15.761 3.98006 15.7598 4.05289 15.7439C4.12573 15.728 4.19468 15.6978 4.25575 15.6551C4.31681 15.6123 4.36877 15.5578 4.40859 15.4948C5.4682 13.8692 7.14164 12.9375 9 12.9375C10.8584 12.9375 12.5318 13.8692 13.5914 15.4948C13.6739 15.6174 13.8014 15.7027 13.9462 15.7321C14.091 15.7615 14.2416 15.7327 14.3654 15.6519C14.4892 15.5712 14.5762 15.445 14.6077 15.3006C14.6392 15.1562 14.6126 15.0052 14.5336 14.8803C13.7334 13.6526 12.6352 12.7547 11.3737 12.2583C12.3856 11.6293 13.1066 10.6246 13.3788 9.46472C13.651 8.30481 13.4521 7.08429 12.8257 6.07082L15.9279 5.03723C16.0399 4.99991 16.1374 4.92829 16.2064 4.83251C16.2755 4.73672 16.3126 4.62164 16.3126 4.50356C16.3126 4.38548 16.2755 4.27039 16.2064 4.17461C16.1374 4.07883 16.0399 4.0072 15.9279 3.96989V3.96637ZM12.375 8.43754C12.3752 8.97111 12.2488 9.49712 12.0063 9.9724C11.7638 10.4477 11.4121 10.8587 10.98 11.1717C10.5478 11.4847 10.0477 11.6908 9.52049 11.7731C8.99331 11.8554 8.45412 11.8115 7.94717 11.6451C7.44023 11.4786 6.97997 11.1944 6.60417 10.8156C6.22836 10.4368 5.94771 9.97435 5.78525 9.46612C5.62279 8.95788 5.58314 8.41837 5.66957 7.89184C5.75599 7.36532 5.96602 6.86679 6.28242 6.43715L8.82211 7.2809C8.93758 7.31939 9.06242 7.31939 9.17789 7.2809L11.7176 6.43715C12.1449 7.01652 12.3753 7.71761 12.375 8.43754ZM9 6.15731L4.02891 4.50004L9 2.84278L13.9711 4.50004L9 6.15731Z" fill="url(#paint0_linear_16267_25136)"/>
<defs>
<linearGradient id="paint0_linear_16267_25136" x1="1.6875" y1="13.5585" x2="16.3171" y2="13.8906" gradientUnits="userSpaceOnUse">
<stop stop-color="#39B5D7"/>
<stop offset="0.502211" stop-color="#F7D544"/>
<stop offset="1" stop-color="#E38330"/>
</linearGradient>
</defs>
</svg>
