<svg width="20" height="20" viewBox="0 0 20 20" fill="none" xmlns="http://www.w3.org/2000/svg">
<path d="M18.3996 0.00179426H1.71246C1.49737 -0.0082825 1.28241 0.0241583 1.07988 0.0972598C0.877343 0.170361 0.691217 0.282688 0.532154 0.427809C0.37309 0.572931 0.244212 0.747997 0.152898 0.942987C0.0615838 1.13798 0.00962621 1.34906 0 1.56415V18.2877C0.0126001 18.7378 0.197064 19.1661 0.515522 19.4845C0.833981 19.8029 1.26227 19.9874 1.71246 20H18.3996C18.8372 19.9805 19.2498 19.7903 19.5489 19.4702C19.848 19.1501 20.0098 18.7256 19.9995 18.2877V1.56415C20.0031 1.3548 19.9639 1.14693 19.8843 0.953274C19.8046 0.759622 19.6863 0.584274 19.5365 0.437984C19.3867 0.291695 19.2086 0.177547 19.0131 0.102542C18.8176 0.0275356 18.6088 -0.00674778 18.3996 0.00179426ZM6.24986 16.6753H3.33742V7.7636H6.24986V16.6753ZM4.86239 6.41372C4.65915 6.4208 4.45665 6.38578 4.2676 6.31086C4.07854 6.23594 3.90703 6.12274 3.76382 5.97837C3.62061 5.834 3.50881 5.66157 3.43543 5.47193C3.36205 5.28228 3.32868 5.07951 3.33742 4.87636C3.32844 4.67101 3.36248 4.46604 3.43736 4.27462C3.51224 4.08319 3.62631 3.90953 3.77225 3.76478C3.91819 3.62002 4.09278 3.50737 4.28482 3.43405C4.47686 3.36072 4.6821 3.32835 4.88739 3.33899C5.09062 3.33191 5.29313 3.36693 5.48218 3.44185C5.67123 3.51677 5.84275 3.62997 5.98596 3.77434C6.12916 3.91872 6.24097 4.09114 6.31435 4.28079C6.38773 4.47043 6.42109 4.6732 6.41235 4.87636C6.42134 5.08171 6.3873 5.28667 6.31242 5.4781C6.23754 5.66952 6.12347 5.84318 5.97752 5.98793C5.83158 6.13269 5.65699 6.24534 5.46496 6.31867C5.27292 6.39199 5.06767 6.42437 4.86239 6.41372ZM16.6746 16.6753H13.7497V11.8007C13.7497 10.6383 13.3372 9.83841 12.2997 9.83841C11.9774 9.84121 11.6639 9.94361 11.4021 10.1316C11.1402 10.3195 10.943 10.5839 10.8373 10.8883C10.7549 11.1163 10.7209 11.3589 10.7373 11.6008V16.6753H7.86232V7.7636H10.7373V9.01349C10.9929 8.54395 11.3733 8.1542 11.8365 7.88731C12.2998 7.62041 12.8278 7.48676 13.3622 7.50112C15.2497 7.50112 16.6746 8.75101 16.6746 11.4133V16.6753Z" fill="white"/>
</svg>
