<svg width="36" height="50" viewBox="0 0 36 50" fill="none" xmlns="http://www.w3.org/2000/svg">
<path d="M24.6055 23.0998C24.6988 22.7732 24.8388 22.4932 25.0255 22.2598C25.2121 22.0265 25.4338 21.8048 25.6905 21.5948L32.0255 16.2748C32.3288 16.0415 32.5621 15.8898 32.7255 15.8198C32.9121 15.7498 33.0988 15.7148 33.2855 15.7148C33.4721 15.7148 33.6005 15.7732 33.6705 15.8898C33.7405 16.0065 33.7405 16.2048 33.6705 16.4848L25.5855 45.9548C25.4455 46.4448 25.4688 46.8298 25.6555 47.1098C25.8655 47.3898 26.2271 47.5648 26.7405 47.6348L30.3805 48.1598C30.6838 48.2298 30.9055 48.3348 31.0455 48.4748C31.2088 48.6148 31.2555 48.7898 31.1855 48.9998C31.0921 49.2565 30.9288 49.4665 30.6955 49.6298C30.4855 49.7698 30.1821 49.8398 29.7855 49.8398H11.5855C11.2121 49.8398 10.9438 49.7698 10.7805 49.6298C10.6405 49.4898 10.6055 49.2915 10.6755 49.0348C10.7455 48.8015 10.8855 48.6148 11.0955 48.4748C11.3288 48.3115 11.6205 48.2065 11.9705 48.1598L16.1705 47.6348C16.7071 47.5648 17.1505 47.3782 17.5005 47.0748C17.8505 46.7715 18.1071 46.3632 18.2705 45.8498L24.6055 23.0998ZM22.6805 15.5398C23.4971 14.8865 24.1738 14.2565 24.7105 13.6498C25.2471 13.0198 25.6088 12.3315 25.7955 11.5848C25.9821 11.0015 26.0405 10.4298 25.9705 9.86984C25.9238 9.30984 25.8421 8.74984 25.7255 8.18984C25.6321 7.62984 25.5621 7.05817 25.5155 6.47484C25.4688 5.86817 25.5271 5.24984 25.6905 4.61984C26.0871 3.24317 26.8221 2.13484 27.8955 1.29484C28.9688 0.431509 30.2521 -0.000157118 31.7455 -0.000157118C33.0055 -0.000157118 33.9388 0.373176 34.5455 1.11984C35.1521 1.84317 35.3155 2.84651 35.0355 4.12984C34.8721 5.03984 34.5221 5.94984 33.9855 6.85984C33.4721 7.74651 32.7488 8.69151 31.8155 9.69484C30.8821 10.6748 29.6921 11.7715 28.2455 12.9848L2.03047 36.6448L1.92547 35.8398H34.6155C34.9421 35.8398 35.1871 35.9098 35.3505 36.0498C35.5138 36.1665 35.5605 36.3648 35.4905 36.6448C35.3971 36.9482 35.2338 37.1815 35.0005 37.3448C34.7671 37.4848 34.4638 37.5548 34.0905 37.5548H1.01547C0.642135 37.5548 0.373802 37.4615 0.210469 37.2748C0.0704687 37.0882 0.0471354 36.8548 0.140469 36.5748C0.187135 36.3882 0.303802 36.1898 0.490469 35.9798C0.677135 35.7465 0.957135 35.5015 1.33047 35.2448L22.6805 15.5398Z" fill="#E5E5E5"/>
</svg>
