<svg width="43" height="51" viewBox="0 0 43 51" fill="none" xmlns="http://www.w3.org/2000/svg">
<path d="M0.629805 40.4601C0.793138 39.5501 1.09647 38.7684 1.5398 38.1151C1.98314 37.4385 2.5198 36.9251 3.1498 36.5751C3.7798 36.2018 4.43314 36.0151 5.10981 36.0151C6.25314 36.0151 7.04647 36.3884 7.4898 37.1351C7.95647 37.8818 8.0148 38.8851 7.6648 40.1451L6.92981 42.7351C6.34647 44.8351 6.56814 46.4801 7.59481 47.6701C8.62147 48.8601 10.4298 49.4551 13.0198 49.4551C14.7465 49.4551 16.4265 49.0001 18.0598 48.0901C19.7165 47.1568 21.2098 45.7335 22.5398 43.8201C23.8698 41.8835 24.9548 39.4101 25.7948 36.4001C27.0315 31.9435 27.0781 28.5601 25.9348 26.2501C24.8148 23.9401 22.8081 22.7851 19.9148 22.7851C18.6548 22.7851 17.3481 23.0534 15.9948 23.5901C14.6648 24.1268 13.3231 24.8851 11.9698 25.8651C10.6398 26.8451 9.36814 28.0234 8.15481 29.4001C7.75814 29.6568 7.41981 29.8668 7.13981 30.0301C6.88314 30.1701 6.60314 30.2401 6.29981 30.2401C6.01981 30.2401 5.82147 30.1468 5.7048 29.9601C5.58814 29.7734 5.57647 29.5168 5.66981 29.1901L13.2648 1.75011C13.4048 1.30678 13.6381 0.956783 13.9648 0.700115C14.2915 0.420116 14.7231 0.280116 15.2598 0.280116C15.5165 0.280116 15.7615 0.315115 15.9948 0.385113C16.2281 0.455113 16.4731 0.548447 16.7298 0.665113C17.9431 1.41178 19.2031 2.08845 20.5098 2.69512C21.8398 3.27845 23.2281 3.74512 24.6748 4.09512C26.1215 4.42178 27.6498 4.58511 29.2598 4.58511C31.8965 4.58511 34.1831 4.25845 36.1198 3.60511C38.0565 2.95178 39.5965 1.92511 40.7398 0.525115C40.9965 0.315114 41.2298 0.175114 41.4398 0.105116C41.6498 0.035116 41.8365 0.035116 41.9998 0.105116C42.1165 0.175114 42.1865 0.291781 42.2098 0.455116C42.2331 0.595114 42.1398 0.85178 41.9298 1.22511C40.5065 4.49178 38.4881 6.91845 35.8748 8.50512C33.2848 10.0684 30.1465 10.8501 26.4598 10.8501C23.6365 10.8501 21.0581 10.4534 18.7248 9.66012C16.4148 8.84345 14.4898 7.79345 12.9498 6.51012L14.3148 5.25011L7.8048 28.5951L7.20981 28.3501C8.72647 26.7401 10.2898 25.3868 11.8998 24.2901C13.5098 23.1701 15.1898 22.3301 16.9398 21.7701C18.7131 21.1868 20.5681 20.8951 22.5048 20.8951C25.4915 20.8951 27.9298 21.5251 29.8198 22.7851C31.7331 24.0218 32.9931 25.7601 33.5998 28.0001C34.2065 30.2168 34.0898 32.8068 33.2498 35.7701C32.3631 38.8501 30.8931 41.5218 28.8398 43.7851C26.7865 46.0485 24.3481 47.8101 21.5248 49.0701C18.7015 50.3068 15.6448 50.9251 12.3548 50.9251C9.36814 50.9251 6.92981 50.4468 5.03981 49.4901C3.17314 48.5101 1.86647 47.2268 1.1198 45.6401C0.373138 44.0535 0.209805 42.3268 0.629805 40.4601Z" fill="#E5E5E5"/>
</svg>
