<svg width="42" height="51" viewBox="0 0 42 51" fill="none" xmlns="http://www.w3.org/2000/svg">
<path d="M12.6696 50.6102C9.47294 50.6102 6.89461 50.0968 4.93461 49.0702C2.97461 48.0435 1.65628 46.6202 0.97961 44.8002C0.326276 42.9802 0.337943 40.8918 1.01461 38.5352C1.50461 36.9485 2.43794 35.3735 3.81461 33.8102C5.19128 32.2468 6.96461 30.8585 9.13461 29.6452C11.3279 28.4085 13.8713 27.5102 16.7646 26.9502L16.8696 27.6152C15.2363 28.3152 13.7663 29.2368 12.4596 30.3802C11.1763 31.5235 10.0913 32.7718 9.20461 34.1252C8.34128 35.4785 7.69961 36.8318 7.27961 38.1852C6.53294 40.6818 6.31128 42.7468 6.61461 44.3802C6.94128 45.9902 7.71128 47.1918 8.92461 47.9852C10.1379 48.7552 11.7013 49.1402 13.6146 49.1402C16.2979 49.1402 18.6546 48.3818 20.6846 46.8652C22.7146 45.3485 24.0913 43.3768 24.8146 40.9502C25.3279 39.2702 25.4213 37.7535 25.0946 36.4002C24.7913 35.0235 24.0213 33.7635 22.7846 32.6202C21.5713 31.4535 19.8329 30.3568 17.5696 29.3302C14.6296 27.8368 12.3196 26.3318 10.6396 24.8152C8.98294 23.2985 7.92128 21.6185 7.45461 19.7752C6.98794 17.9318 7.08128 15.7852 7.73461 13.3352C8.24794 11.4918 9.13461 9.76517 10.3946 8.15517C11.6779 6.54517 13.2296 5.13351 15.0496 3.92017C16.8929 2.68351 18.9463 1.72684 21.2096 1.05018C23.4729 0.350173 25.8413 0.000172377 28.3146 0.000172377C31.4879 0.000172377 34.0779 0.571839 36.0846 1.71517C38.0913 2.83517 39.4446 4.41017 40.1446 6.44017C40.8446 8.44684 40.7863 10.7918 39.9696 13.4752C39.4796 15.0852 38.6746 16.6252 37.5546 18.0952C36.4579 19.5418 35.1279 20.8602 33.5646 22.0502C32.0246 23.2168 30.3329 24.2318 28.4896 25.0952C26.6696 25.9352 24.7913 26.5652 22.8546 26.9852L22.4696 26.3202C25.0596 24.9902 27.3696 23.2635 29.3996 21.1402C31.4529 18.9935 32.8996 16.5552 33.7396 13.8252C34.9763 10.0452 34.9879 7.04684 33.7746 4.83017C32.5613 2.61351 30.3796 1.50517 27.2296 1.50517C25.3629 1.50517 23.5896 1.91351 21.9096 2.73017C20.2296 3.54684 18.7713 4.65517 17.5346 6.05518C16.2979 7.43184 15.4229 9.00684 14.9096 10.7802C14.3029 12.8102 14.1513 14.6418 14.4546 16.2752C14.7813 17.9085 15.6213 19.4018 16.9746 20.7552C18.3513 22.0852 20.2763 23.3685 22.7496 24.6052C26.9263 26.7052 29.7263 28.8985 31.1496 31.1852C32.5963 33.4718 32.9113 36.0385 32.0946 38.8852C31.4413 41.1952 30.1929 43.2368 28.3496 45.0102C26.5296 46.7602 24.2663 48.1368 21.5596 49.1402C18.8763 50.1202 15.9129 50.6102 12.6696 50.6102Z" fill="#E5E5E5"/>
</svg>
