<svg width="166" height="112" viewBox="0 0 166 112" fill="none" xmlns="http://www.w3.org/2000/svg">
<g clip-path="url(#clip0_11083_2057)">
<path d="M131 60C131 62.4788 127.974 64.6921 127.6 67.0663C127.217 69.5042 129.408 72.5395 128.662 74.8364C127.903 77.1733 124.34 78.3418 123.238 80.5005C122.124 82.682 123.265 86.2501 121.835 88.216C120.397 90.1911 116.649 90.2029 114.926 91.926C113.203 93.6492 113.191 97.3983 111.216 98.835C109.25 100.265 105.682 99.1251 103.501 100.238C101.319 101.351 100.173 104.903 97.8364 105.662C95.5395 106.408 92.5042 104.217 90.0663 104.6C87.6921 104.973 85.4788 108 83 108C80.5212 108 78.3079 104.974 75.9337 104.6C73.4958 104.217 70.4605 106.408 68.1636 105.662C65.8267 104.903 64.6582 101.34 62.4995 100.238C60.3181 99.1242 56.7499 100.265 54.784 98.835C52.8089 97.3974 52.7971 93.6492 51.074 91.926C49.3508 90.2029 45.6017 90.1911 44.165 88.216C42.7283 86.241 43.8749 82.682 42.7619 80.5005C41.6598 78.3418 38.0971 77.1733 37.3378 74.8364C36.5922 72.5395 38.7827 69.5042 38.3999 67.0663C38.0271 64.6921 35 62.4788 35 60C35 57.5212 38.0262 55.3079 38.3999 52.9337C38.7827 50.4958 36.5922 47.4605 37.3378 45.1636C38.0971 42.8267 41.6598 41.6582 42.7619 39.4995C43.8758 37.3181 42.7346 33.7499 44.165 31.784C45.6026 29.8089 49.3508 29.7971 51.074 28.074C52.7971 26.3508 52.8089 22.6017 54.784 21.165C56.7499 19.7346 60.3181 20.8749 62.4995 19.7619C64.6582 18.6598 65.8267 15.0971 68.1636 14.3378C70.5006 13.5786 73.4958 15.7827 75.9337 15.3999C78.3079 15.0271 80.5212 12 83 12C85.4788 12 87.6921 15.0262 90.0663 15.3999C92.5042 15.7827 95.5395 13.5922 97.8364 14.3378C100.173 15.0971 101.342 18.6598 103.501 19.7619C105.682 20.8758 109.25 19.7346 111.216 21.165C113.191 22.6026 113.203 26.3508 114.926 28.074C116.649 29.7971 120.398 29.8089 121.835 31.784C123.265 33.7499 122.125 37.3181 123.238 39.4995C124.34 41.6582 127.903 42.8267 128.662 45.1636C129.408 47.4605 127.217 50.4958 127.6 52.9337C127.973 55.3079 131 57.5212 131 60Z" fill="#48C70E" fill-opacity="0.1"/>
<path d="M93.6883 43.6362H74.0519C69.4042 43.6362 65.6364 47.404 65.6364 52.0518V71.6882C65.6364 76.3361 69.4042 80.1038 74.0519 80.1038H93.6883C98.3362 80.1038 102.104 76.3361 102.104 71.6882V52.0518C102.104 47.404 98.3362 43.6362 93.6883 43.6362Z" fill="#49A015"/>
<path d="M90.3247 40.3635H70.6883C66.0405 40.3635 62.2727 44.1313 62.2727 48.7791V68.4155C62.2727 73.0634 66.0405 76.8311 70.6883 76.8311H90.3247C94.9726 76.8311 98.7402 73.0634 98.7402 68.4155V48.7791C98.7402 44.1313 94.9726 40.3635 90.3247 40.3635Z" fill="#EDF9E7" stroke="#49A015" stroke-width="2" stroke-linecap="square" stroke-linejoin="round"/>
<path d="M88.6896 52.2856L77.4688 66.3116L71.8584 62.1038" stroke="#49A015" stroke-width="2" stroke-linecap="square" stroke-linejoin="round"/>
</g>
<path d="M166 26.9914C161.292 27.4191 158.588 27.8125 156.927 29.1126C154.976 30.6351 154.514 33.4234 154 39C153.469 33.2181 152.99 30.4469 150.85 28.9587C149.19 27.7954 146.502 27.4191 142 27.0086C146.69 26.5809 149.412 26.1875 151.056 24.9045C153.024 23.3649 153.486 20.5937 154 15C154.479 20.149 154.907 22.9031 156.499 24.4939C158.091 26.0848 160.864 26.5296 166 26.9914Z" fill="#48C70E" fill-opacity="0.2"/>
<path d="M24 99.9914C19.2924 100.419 16.5877 100.813 14.9272 102.113C12.9757 103.635 12.5136 106.423 12 112C11.4693 106.218 10.99 103.447 8.85021 101.959C7.18973 100.795 4.50214 100.419 0 100.009C4.69044 99.5809 7.41227 99.1875 9.05564 97.9045C11.0243 96.3649 11.4864 93.5937 12 88C12.4793 93.149 12.9073 95.9031 14.4993 97.4939C16.0913 99.0848 18.8645 99.5296 24 99.9914Z" fill="#48C70E" fill-opacity="0.2"/>
<path d="M131 6.99501C128.254 7.24448 126.676 7.47398 125.708 8.23236C124.569 9.12046 124.3 10.747 124 14C123.69 10.6272 123.411 9.01069 122.163 8.14255C121.194 7.46401 119.626 7.24448 117 7.00499C119.736 6.75552 121.324 6.52602 122.282 5.77762C123.431 4.87954 123.7 3.26301 124 0C124.28 3.00356 124.529 4.61012 125.458 5.53813C126.387 6.46614 128.004 6.72559 131 6.99501Z" fill="#48C70E" fill-opacity="0.2"/>
<defs>
<clipPath id="clip0_11083_2057">
<rect width="96" height="96" fill="white" transform="translate(35 12)"/>
</clipPath>
</defs>
</svg>
