<svg width="36" height="36" viewBox="0 0 36 36" fill="none" xmlns="http://www.w3.org/2000/svg">
<circle cx="18" cy="18" r="17.1956" fill="white" stroke="#E5E5E5" stroke-width="1.60875"/>
<path d="M17.9993 11.96C18.5516 11.96 18.9993 12.4077 18.9993 12.96V17H23.0393L23.1418 17.0049C23.6459 17.0562 24.0393 17.4823 24.0393 18C24.0393 18.5177 23.6459 18.9438 23.1418 18.9951L23.0393 19H18.9993V23.04C18.9992 23.5923 18.5515 24.04 17.9993 24.04C17.447 24.04 16.9993 23.5923 16.9993 23.04V19H12.9592C12.4069 19 11.9592 18.5523 11.9592 18C11.9592 17.4477 12.4069 17 12.9592 17H16.9993V12.96C16.9993 12.4077 17.447 11.96 17.9993 11.96Z" fill="#262626"/>
</svg>
