<svg width="40" height="51" viewBox="0 0 40 51" fill="none" xmlns="http://www.w3.org/2000/svg">
<path d="M28.4924 0.299997C31.2458 0.299997 33.4974 0.754998 35.2474 1.665C36.9974 2.55166 38.2224 3.73 38.9224 5.2C39.6458 6.64666 39.8208 8.22166 39.4474 9.925C39.1908 11.255 38.6424 12.2933 37.8024 13.04C36.9624 13.7633 35.9941 14.125 34.8974 14.125C33.6608 14.125 32.7974 13.7633 32.3074 13.04C31.8408 12.2933 31.7824 11.2667 32.1324 9.96L32.6224 8.14C33.1124 6.34333 32.9724 4.955 32.2024 3.975C31.4558 2.995 29.9741 2.505 27.7574 2.505C25.6341 2.505 23.4874 3.31 21.3174 4.92C19.1708 6.50666 17.0941 9.10833 15.0874 12.725C13.0808 16.3417 11.2374 21.1833 9.55742 27.25C8.46076 31.1933 7.77242 34.53 7.49242 37.26C7.23576 39.9667 7.31742 42.1483 7.73742 43.805C8.18076 45.4617 8.91576 46.6633 9.94242 47.41C10.9924 48.1333 12.2758 48.495 13.7924 48.495C15.6591 48.495 17.3974 48.0167 19.0074 47.06C20.6174 46.08 22.0641 44.6333 23.3474 42.72C24.6308 40.7833 25.6574 38.3917 26.4274 35.545C27.2208 32.675 27.4891 30.295 27.2324 28.405C26.9758 26.4917 26.2758 25.0683 25.1324 24.135C24.0124 23.2017 22.5424 22.735 20.7224 22.735C19.4391 22.735 18.1208 23.015 16.7674 23.575C15.4141 24.1117 14.1191 24.87 12.8824 25.85C11.6691 26.83 10.5841 27.9967 9.62742 29.35C8.67076 30.68 7.94742 32.1383 7.45742 33.725L6.44242 32.78C7.04909 30.8667 7.91242 29.14 9.03242 27.6C10.1758 26.0367 11.5058 24.695 13.0224 23.575C14.5391 22.455 16.1724 21.5917 17.9224 20.985C19.6724 20.3783 21.4691 20.075 23.3124 20.075C26.1124 20.075 28.4224 20.705 30.2424 21.965C32.0624 23.2017 33.2758 24.9633 33.8824 27.25C34.4891 29.5367 34.3491 32.2783 33.4624 35.475C32.6224 38.555 31.2341 41.2383 29.2974 43.525C27.3841 45.7883 25.0974 47.55 22.4374 48.81C19.7774 50.0467 16.8958 50.665 13.7924 50.665C10.1058 50.665 7.17742 49.6733 5.00742 47.69C2.86076 45.6833 1.56576 42.8133 1.12242 39.08C0.679089 35.3467 1.18076 30.9017 2.62742 25.745C4.19076 20.075 6.30242 15.3617 8.96242 11.605C11.6224 7.825 14.6324 5.00166 17.9924 3.135C21.3524 1.245 24.8524 0.299997 28.4924 0.299997Z" fill="#E5E5E5"/>
</svg>
