<svg width="77" height="47" viewBox="0 0 77 47" fill="none" xmlns="http://www.w3.org/2000/svg">
<g clip-path="url(#clip0_16413_9499)">
<path fill-rule="evenodd" clip-rule="evenodd" d="M64.2416 11.3142L61.1606 14.3611H56.321L53.6809 16.9718V14.3611H49.7207V1.74051H64.2416V11.3142ZM47.96 -0.00021553L47.0801 3.48147V19.1478H51.0407V21.3242H53.2401L55.4409 19.1478H58.9605L66.0007 12.1858V-0.00021553H47.96Z" fill="#6441A5"/>
<path fill-rule="evenodd" clip-rule="evenodd" d="M54.5605 10.4448H56.3206V5.22174H54.5605V10.4448ZM59.4004 10.4448H61.1604V5.22174H59.4004V10.4448Z" fill="#6441A5"/>
<path fill-rule="evenodd" clip-rule="evenodd" d="M75.2413 30.4632L72.1617 27.4176H66.4409V23.5005H61.5999V41.343H66.4409V32.2037H70.4004V41.343H75.2413V30.4632ZM59.841 27.4176H52.3608L49.2805 30.4632V38.2961L52.3608 41.343H59.841V36.5565H54.1201V32.2037H59.841V27.4176ZM47.5205 27.4176H43.561V23.5005H38.72V38.2961L41.8003 41.343H47.5205V36.5565H43.561V32.2037H47.5205V27.4176ZM36.96 23.5005H32.1204V25.6771H36.96V23.5005ZM36.96 27.4176H32.1204V41.3428H36.96V27.4176ZM30.3603 27.4176H25.5203V36.5565H23.7607V27.4176H18.9204V36.5565H17.161V27.4176H12.3201V41.343H27.2808L30.3603 38.2961V27.4176ZM10.56 27.4176H6.60033V23.5005H1.76027V38.2961L4.84029 41.343H10.56V36.5565H6.60033V32.2037H10.56V27.4176ZM77 29.5927V42.6478L70.4004 47H66.0006V44.8234L62.9206 47H58.9611V44.8234L56.7617 47H49.7213L47.5205 44.8234L47.08 47H40.9208L38.4021 44.8234L38.261 47H31.2797L31.0329 44.8234L29.143 47H18.4799L16.2795 46.1295V47H10.56L3.9597 43.0824L0 39.1677V21.7602H8.3606L12.3201 25.6771H30.3603V21.7602H45.3204V25.6771H49.2805V27.8524L51.4813 25.6771H55.8804L59.841 21.7602H68.2009V25.6771H73.0412L77 29.5927Z" fill="#6441A5"/>
</g>
<defs>
<clipPath id="clip0_16413_9499">
<rect width="77" height="47" fill="white"/>
</clipPath>
</defs>
</svg>
