<svg width="24" height="24" viewBox="0 0 24 24" fill="none" xmlns="http://www.w3.org/2000/svg">
<path d="M16.1808 15.0058C16.1979 15.0058 16.5259 14.8086 16.9094 14.5676C17.2931 14.3266 17.5994 14.1151 17.5903 14.0977C17.5812 14.0803 17.3982 13.8327 17.1836 13.5474C16.7527 12.9745 16.3386 12.2167 16.1557 11.6666C15.586 9.95197 15.8568 8.16866 16.9059 6.72644L17.173 6.35918L16.6684 5.85463L16.1639 5.35004L15.8284 5.58962C13.6309 7.1593 11.0039 6.98827 8.68048 5.12432C8.52877 5.0026 8.39903 4.9087 8.39213 4.9156C8.3286 4.97913 7.52798 6.28374 7.52804 6.32361C7.52808 6.35244 7.66695 6.46989 7.83663 6.58454C9.71544 7.85415 11.8686 8.26299 13.5359 7.66683L13.9359 7.52384L8.36326 13.1166L4.83951 16.6531L5.86065 17.6742L9.40626 14.1414L14.9859 8.58199L14.8156 9.09724C14.374 10.4339 14.5478 12.0156 15.3115 13.6084C15.529 14.0622 16.116 15.0057 16.1808 15.0058Z" fill="white"/>
</svg>
