<svg width="48" height="48" viewBox="0 0 48 48" fill="none" xmlns="http://www.w3.org/2000/svg">
<rect x="1" y="1" width="46" height="46" rx="23" stroke="url(#paint0_linear_39_4078)"/>
<path d="M33.2081 23.4108L14.4822 23.3912L14.4805 25.0466L33.2063 25.0662L33.2081 23.4108Z" fill="#090909"/>
<path d="M25.9239 32.433C26.1299 31.2905 26.4296 30.223 26.9165 29.2304C27.3847 28.2378 28.0028 27.3388 28.7332 26.5522C29.4542 25.7562 30.3532 25.1382 31.2803 24.6231C32.2261 24.1268 33.2374 23.771 34.305 23.5462L34.2956 23.5369L34.2582 24.9415C32.1699 24.5201 30.2128 23.4807 28.7332 21.9075C27.2536 20.3342 26.3453 18.2647 26.0175 16.0828L28.1151 15.9705C27.9747 17.7403 28.6021 19.5851 29.8007 20.9336C30.9806 22.3008 32.7224 23.1997 34.5204 23.5369L34.4735 24.9509L34.4642 24.9415C33.5465 24.979 32.6288 25.2412 31.7953 25.6626C30.9432 26.0652 30.2315 26.6833 29.6228 27.3856C29.0141 28.0879 28.5834 28.9307 28.3492 29.8016C28.1245 30.6819 28.0402 31.6089 28.2275 32.4705L25.9051 32.4517L25.9239 32.433Z" fill="#090909"/>
<defs>
<linearGradient id="paint0_linear_39_4078" x1="1" y1="39.8125" x2="47.0157" y2="40.8176" gradientUnits="userSpaceOnUse">
<stop stop-color="#39B5D7"/>
<stop offset="0.502211" stop-color="#F7D544"/>
<stop offset="1" stop-color="#E38330"/>
</linearGradient>
</defs>
</svg>
