<svg width="52" height="52" viewBox="0 0 52 52" fill="none" xmlns="http://www.w3.org/2000/svg">
<rect x="0.75" y="0.75" width="50.5" height="50.5" rx="25.25" stroke="#404040" stroke-width="1.5"/>
<path d="M33.5 17.75H18.5C18.1022 17.75 17.7206 17.908 17.4393 18.1893C17.158 18.4706 17 18.8522 17 19.25V24.5C17 29.4425 19.3925 32.4378 21.3997 34.0803C23.5616 35.8484 25.7122 36.4484 25.8059 36.4738C25.9348 36.5088 26.0708 36.5088 26.1997 36.4738C26.2934 36.4484 28.4413 35.8484 30.6059 34.0803C32.6075 32.4378 35 29.4425 35 24.5V19.25C35 18.8522 34.842 18.4706 34.5607 18.1893C34.2794 17.908 33.8978 17.75 33.5 17.75ZM33.5 24.5C33.5 27.9753 32.2194 30.7963 29.6938 32.8831C28.5943 33.7885 27.344 34.493 26 34.9644C24.6736 34.5012 23.4387 33.8092 22.3513 32.9197C19.7956 30.8291 18.5 27.9969 18.5 24.5V19.25H33.5V24.5ZM21.7194 27.2806C21.5786 27.1399 21.4996 26.949 21.4996 26.75C21.4996 26.551 21.5786 26.3601 21.7194 26.2194C21.8601 26.0786 22.051 25.9996 22.25 25.9996C22.449 25.9996 22.6399 26.0786 22.7806 26.2194L24.5 27.9397L29.2194 23.2194C29.2891 23.1497 29.3718 23.0944 29.4628 23.0567C29.5539 23.019 29.6515 22.9996 29.75 22.9996C29.8485 22.9996 29.9461 23.019 30.0372 23.0567C30.1282 23.0944 30.2109 23.1497 30.2806 23.2194C30.3503 23.2891 30.4056 23.3718 30.4433 23.4628C30.481 23.5539 30.5004 23.6515 30.5004 23.75C30.5004 23.8485 30.481 23.9461 30.4433 24.0372C30.4056 24.1282 30.3503 24.2109 30.2806 24.2806L25.0306 29.5306C24.961 29.6004 24.8783 29.6557 24.7872 29.6934C24.6962 29.7312 24.5986 29.7506 24.5 29.7506C24.4014 29.7506 24.3038 29.7312 24.2128 29.6934C24.1217 29.6557 24.039 29.6004 23.9694 29.5306L21.7194 27.2806Z" fill="white"/>
</svg>
