<svg width="52" height="52" viewBox="0 0 52 52" fill="none" xmlns="http://www.w3.org/2000/svg">
<rect x="0.75" y="0.75" width="50.5" height="50.5" rx="25.25" stroke="#404040" stroke-width="1.5"/>
<path d="M20.75 27.5H17C16.8011 27.5 16.6103 27.421 16.4697 27.2803C16.329 27.1397 16.25 26.9489 16.25 26.75C16.25 26.5511 16.329 26.3603 16.4697 26.2197C16.6103 26.079 16.8011 26 17 26H20.3488L21.6256 24.0838C21.6941 23.9809 21.7869 23.8965 21.8958 23.8382C22.0048 23.7798 22.1264 23.7493 22.25 23.7493C22.3736 23.7493 22.4952 23.7798 22.6042 23.8382C22.7131 23.8965 22.8059 23.9809 22.8744 24.0838L25.25 27.6463L26.1256 26.3338C26.1942 26.231 26.287 26.1468 26.396 26.0886C26.5049 26.0303 26.6265 25.9999 26.75 26H29C29.1989 26 29.3897 26.079 29.5303 26.2197C29.671 26.3603 29.75 26.5511 29.75 26.75C29.75 26.9489 29.671 27.1397 29.5303 27.2803C29.3897 27.421 29.1989 27.5 29 27.5H27.1513L25.8744 29.4163C25.8059 29.5191 25.7131 29.6035 25.6042 29.6618C25.4952 29.7202 25.3736 29.7507 25.25 29.7507C25.1264 29.7507 25.0048 29.7202 24.8958 29.6618C24.7869 29.6035 24.6941 29.5191 24.6256 29.4163L22.25 25.8519L21.3744 27.1644C21.306 27.2675 21.2133 27.3521 21.1043 27.4106C20.9954 27.4692 20.8737 27.4999 20.75 27.5ZM30.6875 17.75C28.7516 17.75 27.0566 18.5825 26 19.9897C24.9434 18.5825 23.2484 17.75 21.3125 17.75C19.7715 17.7517 18.294 18.3647 17.2044 19.4544C16.1147 20.544 15.5017 22.0215 15.5 23.5625C15.5 23.6328 15.5 23.7031 15.5 23.7734C15.5062 23.9724 15.5912 24.1606 15.7362 24.2969C15.8813 24.4332 16.0745 24.5062 16.2734 24.5C16.4723 24.4938 16.6606 24.4088 16.7969 24.2638C16.9332 24.1187 17.0062 23.9255 17 23.7266C17 23.6722 17 23.6169 17 23.5625C17.0015 22.4192 17.4563 21.3232 18.2647 20.5147C19.0732 19.7063 20.1692 19.2515 21.3125 19.25C23.1359 19.25 24.6669 20.2213 25.3063 21.7813C25.3628 21.9188 25.4589 22.0365 25.5824 22.1193C25.7059 22.2021 25.8513 22.2463 26 22.2463C26.1487 22.2463 26.2941 22.2021 26.4176 22.1193C26.5411 22.0365 26.6372 21.9188 26.6938 21.7813C27.3331 20.2184 28.8641 19.25 30.6875 19.25C31.8308 19.2515 32.9268 19.7063 33.7353 20.5147C34.5437 21.3232 34.9985 22.4192 35 23.5625C35 28.5884 27.71 33.1391 26 34.1375C24.9847 33.5459 22.0034 31.7 19.7488 29.2428C19.6821 29.1702 19.6019 29.1114 19.5126 29.0697C19.4232 29.0281 19.3266 29.0045 19.2281 29.0002C19.1296 28.996 19.0313 29.0111 18.9387 29.0449C18.8461 29.0786 18.7611 29.1303 18.6884 29.1969C18.6158 29.2635 18.557 29.3437 18.5154 29.4331C18.4738 29.5224 18.4501 29.6191 18.4459 29.7175C18.4416 29.816 18.4568 29.9143 18.4905 30.0069C18.5242 30.0995 18.5759 30.1846 18.6425 30.2572C21.5647 33.4447 25.4797 35.5709 25.6447 35.66C25.7539 35.7188 25.876 35.7495 26 35.7495C26.124 35.7495 26.2461 35.7188 26.3553 35.66C26.7697 35.4369 36.5 30.125 36.5 23.5625C36.4983 22.0215 35.8853 20.544 34.7956 19.4544C33.706 18.3647 32.2285 17.7517 30.6875 17.75Z" fill="white"/>
</svg>
