<svg width="52" height="52" viewBox="0 0 52 52" fill="none" xmlns="http://www.w3.org/2000/svg">
<rect x="0.75" y="0.75" width="50.5" height="50.5" rx="25.25" stroke="#404040" stroke-width="1.5"/>
<path d="M36.5 33.5002H35V26.7502L35.2194 26.9696C35.3604 27.1103 35.5515 27.1893 35.7507 27.1891C35.9499 27.189 36.1408 27.1097 36.2816 26.9687C36.4223 26.8277 36.5013 26.6366 36.5011 26.4374C36.5009 26.2382 36.4216 26.0472 36.2806 25.9065L27.0603 16.689C26.779 16.4079 26.3977 16.25 26 16.25C25.6023 16.25 25.221 16.4079 24.9397 16.689L15.7194 25.9065C15.5788 26.0472 15.4998 26.238 15.4999 26.437C15.5 26.6359 15.5791 26.8267 15.7198 26.9673C15.8606 27.1079 16.0514 27.1868 16.2503 27.1867C16.4493 27.1866 16.64 27.1075 16.7806 26.9668L17 26.7502V33.5002H15.5C15.3011 33.5002 15.1103 33.5793 14.9697 33.7199C14.829 33.8606 14.75 34.0513 14.75 34.2502C14.75 34.4492 14.829 34.6399 14.9697 34.7806C15.1103 34.9212 15.3011 35.0002 15.5 35.0002H36.5C36.6989 35.0002 36.8897 34.9212 37.0303 34.7806C37.171 34.6399 37.25 34.4492 37.25 34.2502C37.25 34.0513 37.171 33.8606 37.0303 33.7199C36.8897 33.5793 36.6989 33.5002 36.5 33.5002ZM18.5 25.2502L26 17.7502L33.5 25.2502V33.5002H29V28.2502C29 28.0513 28.921 27.8606 28.7803 27.7199C28.6397 27.5793 28.4489 27.5002 28.25 27.5002H23.75C23.5511 27.5002 23.3603 27.5793 23.2197 27.7199C23.079 27.8606 23 28.0513 23 28.2502V33.5002H18.5V25.2502ZM27.5 33.5002H24.5V29.0002H27.5V33.5002Z" fill="white"/>
</svg>
