<svg width="52" height="52" viewBox="0 0 52 52" fill="none" xmlns="http://www.w3.org/2000/svg">
<rect x="0.75" y="0.75" width="50.5" height="50.5" rx="25.25" stroke="#404040" stroke-width="1.5"/>
<path d="M23.75 22.25V31.25C23.75 31.4489 23.671 31.6397 23.5303 31.7803C23.3897 31.921 23.1989 32 23 32C22.8011 32 22.6103 31.921 22.4697 31.7803C22.329 31.6397 22.25 31.4489 22.25 31.25V22.25C22.25 22.0511 22.329 21.8603 22.4697 21.7197C22.6103 21.579 22.8011 21.5 23 21.5C23.1989 21.5 23.3897 21.579 23.5303 21.7197C23.671 21.8603 23.75 22.0511 23.75 22.25ZM26 21.5C25.8011 21.5 25.6103 21.579 25.4697 21.7197C25.329 21.8603 25.25 22.0511 25.25 22.25V31.25C25.25 31.4489 25.329 31.6397 25.4697 31.7803C25.6103 31.921 25.8011 32 26 32C26.1989 32 26.3897 31.921 26.5303 31.7803C26.671 31.6397 26.75 31.4489 26.75 31.25V22.25C26.75 22.0511 26.671 21.8603 26.5303 21.7197C26.3897 21.579 26.1989 21.5 26 21.5ZM29 21.5C28.8011 21.5 28.6103 21.579 28.4697 21.7197C28.329 21.8603 28.25 22.0511 28.25 22.25V31.25C28.25 31.4489 28.329 31.6397 28.4697 31.7803C28.6103 31.921 28.8011 32 29 32C29.1989 32 29.3897 31.921 29.5303 31.7803C29.671 31.6397 29.75 31.4489 29.75 31.25V22.25C29.75 22.0511 29.671 21.8603 29.5303 21.7197C29.3897 21.579 29.1989 21.5 29 21.5ZM33.5 20V33.5C33.5 33.8978 33.342 34.2794 33.0607 34.5607C32.7794 34.842 32.3978 35 32 35H30.5V36.5C30.5 36.6989 30.421 36.8897 30.2803 37.0303C30.1397 37.171 29.9489 37.25 29.75 37.25C29.5511 37.25 29.3603 37.171 29.2197 37.0303C29.079 36.8897 29 36.6989 29 36.5V35H23V36.5C23 36.6989 22.921 36.8897 22.7803 37.0303C22.6397 37.171 22.4489 37.25 22.25 37.25C22.0511 37.25 21.8603 37.171 21.7197 37.0303C21.579 36.8897 21.5 36.6989 21.5 36.5V35H20C19.6022 35 19.2206 34.842 18.9393 34.5607C18.658 34.2794 18.5 33.8978 18.5 33.5V20C18.5 19.6022 18.658 19.2206 18.9393 18.9393C19.2206 18.658 19.6022 18.5 20 18.5H22.25V16.25C22.25 15.6533 22.4871 15.081 22.909 14.659C23.331 14.2371 23.9033 14 24.5 14H27.5C28.0967 14 28.669 14.2371 29.091 14.659C29.5129 15.081 29.75 15.6533 29.75 16.25V18.5H32C32.3978 18.5 32.7794 18.658 33.0607 18.9393C33.342 19.2206 33.5 19.6022 33.5 20ZM23.75 18.5H28.25V16.25C28.25 16.0511 28.171 15.8603 28.0303 15.7197C27.8897 15.579 27.6989 15.5 27.5 15.5H24.5C24.3011 15.5 24.1103 15.579 23.9697 15.7197C23.829 15.8603 23.75 16.0511 23.75 16.25V18.5ZM32 33.5V20H20V33.5H32Z" fill="white"/>
</svg>
