<svg width="40" height="40" viewBox="0 0 40 40" fill="none" xmlns="http://www.w3.org/2000/svg">
<rect x="0.6" y="0.6" width="38.8" height="38.8" rx="19.4" stroke="#404040" stroke-width="1.2"/>
<path d="M28.75 26.2508H27.5V17.5008C27.5 17.1693 27.3683 16.8513 27.1339 16.6169C26.8995 16.3825 26.5815 16.2508 26.25 16.2508H21.25V12.5008C21.2501 12.2745 21.1888 12.0523 21.0726 11.8581C20.9563 11.6638 20.7895 11.5048 20.59 11.398C20.3904 11.2912 20.1656 11.2405 19.9395 11.2515C19.7134 11.2624 19.4945 11.3346 19.3063 11.4602L13.0562 15.6258C12.8848 15.7402 12.7443 15.8952 12.6472 16.077C12.5502 16.2589 12.4996 16.4619 12.5 16.668V26.2508H11.25C11.0842 26.2508 10.9253 26.3167 10.8081 26.4339C10.6908 26.5511 10.625 26.7101 10.625 26.8758C10.625 27.0416 10.6908 27.2005 10.8081 27.3178C10.9253 27.435 11.0842 27.5008 11.25 27.5008H28.75C28.9158 27.5008 29.0747 27.435 29.1919 27.3178C29.3092 27.2005 29.375 27.0416 29.375 26.8758C29.375 26.7101 29.3092 26.5511 29.1919 26.4339C29.0747 26.3167 28.9158 26.2508 28.75 26.2508ZM26.25 17.5008V26.2508H21.25V17.5008H26.25ZM13.75 16.668L20 12.5008V26.2508H13.75V16.668ZM18.75 18.7508V20.0008C18.75 20.1666 18.6842 20.3255 18.5669 20.4428C18.4497 20.56 18.2908 20.6258 18.125 20.6258C17.9592 20.6258 17.8003 20.56 17.6831 20.4428C17.5658 20.3255 17.5 20.1666 17.5 20.0008V18.7508C17.5 18.5851 17.5658 18.4261 17.6831 18.3089C17.8003 18.1917 17.9592 18.1258 18.125 18.1258C18.2908 18.1258 18.4497 18.1917 18.5669 18.3089C18.6842 18.4261 18.75 18.5851 18.75 18.7508ZM16.25 18.7508V20.0008C16.25 20.1666 16.1842 20.3255 16.0669 20.4428C15.9497 20.56 15.7908 20.6258 15.625 20.6258C15.4592 20.6258 15.3003 20.56 15.1831 20.4428C15.0658 20.3255 15 20.1666 15 20.0008V18.7508C15 18.5851 15.0658 18.4261 15.1831 18.3089C15.3003 18.1917 15.4592 18.1258 15.625 18.1258C15.7908 18.1258 15.9497 18.1917 16.0669 18.3089C16.1842 18.4261 16.25 18.5851 16.25 18.7508ZM16.25 23.1258V24.3758C16.25 24.5416 16.1842 24.7005 16.0669 24.8178C15.9497 24.935 15.7908 25.0008 15.625 25.0008C15.4592 25.0008 15.3003 24.935 15.1831 24.8178C15.0658 24.7005 15 24.5416 15 24.3758V23.1258C15 22.9601 15.0658 22.8011 15.1831 22.6839C15.3003 22.5667 15.4592 22.5008 15.625 22.5008C15.7908 22.5008 15.9497 22.5667 16.0669 22.6839C16.1842 22.8011 16.25 22.9601 16.25 23.1258ZM18.75 23.1258V24.3758C18.75 24.5416 18.6842 24.7005 18.5669 24.8178C18.4497 24.935 18.2908 25.0008 18.125 25.0008C17.9592 25.0008 17.8003 24.935 17.6831 24.8178C17.5658 24.7005 17.5 24.5416 17.5 24.3758V23.1258C17.5 22.9601 17.5658 22.8011 17.6831 22.6839C17.8003 22.5667 17.9592 22.5008 18.125 22.5008C18.2908 22.5008 18.4497 22.5667 18.5669 22.6839C18.6842 22.8011 18.75 22.9601 18.75 23.1258Z" fill="white"/>
</svg>
