<svg width="40" height="40" viewBox="0 0 40 40" fill="none" xmlns="http://www.w3.org/2000/svg">
<rect x="0.5" y="0.5" width="39" height="39" rx="19.5" stroke="url(#paint0_linear_345_3437)"/>
<path d="M29.0005 12.5H11.0005C10.9021 12.5 10.8045 12.5194 10.7135 12.5571C10.6225 12.5948 10.5399 12.65 10.4702 12.7197C10.4006 12.7893 10.3453 12.872 10.3076 12.963C10.2699 13.054 10.2505 13.1515 10.2505 13.25V26C10.251 26.3977 10.4092 26.779 10.6904 27.0602C10.9716 27.3414 11.3529 27.4995 11.7505 27.5H28.2505C28.6482 27.4995 29.0295 27.3414 29.3107 27.0602C29.5919 26.779 29.7501 26.3977 29.7505 26V13.25C29.7506 13.1515 29.7312 13.054 29.6935 12.963C29.6558 12.872 29.6005 12.7893 29.5309 12.7197C29.4612 12.65 29.3786 12.5948 29.2876 12.5571C29.1966 12.5194 29.099 12.5 29.0005 12.5ZM11.7505 18.5H15.5005V21.5H11.7505V18.5ZM17.0005 18.5H28.2509L28.2512 21.5H17.0005V18.5ZM11.7505 23H15.5005V26H11.7505V23ZM28.2505 26H17.0005V23H28.2513L28.2515 26L28.2505 26Z" fill="#090909"/>
<defs>
<linearGradient id="paint0_linear_345_3437" x1="2.53333" y1="12.2223" x2="38.6904" y2="12.3343" gradientUnits="userSpaceOnUse">
<stop stop-color="#39B6D8"/>
<stop offset="0.5" stop-color="#F7D344"/>
<stop offset="1" stop-color="#E38330"/>
</linearGradient>
</defs>
</svg>
