<svg width="40" height="40" viewBox="0 0 40 40" fill="none" xmlns="http://www.w3.org/2000/svg">
<rect x="0.5" y="0.5" width="39" height="39" rx="19.5" stroke="url(#paint0_linear_345_3499)"/>
<path d="M11.75 18V12.5C11.75 12.3011 11.829 12.1103 11.9697 11.9697C12.1103 11.829 12.3011 11.75 12.5 11.75H27.5C27.6989 11.75 27.8897 11.829 28.0303 11.9697C28.171 12.1103 28.25 12.3011 28.25 12.5V18C28.25 25.8764 21.5651 28.486 20.2303 28.9285C20.0811 28.9798 19.9189 28.9798 19.7697 28.9285C18.4349 28.486 11.75 25.8764 11.75 18Z" stroke="#090909" stroke-width="1.5" stroke-linecap="round" stroke-linejoin="round"/>
<path d="M24.125 17L18.625 22.25L15.875 19.625" stroke="#090909" stroke-width="1.5" stroke-linecap="round" stroke-linejoin="round"/>
<defs>
<linearGradient id="paint0_linear_345_3499" x1="2.53333" y1="12.2223" x2="38.6904" y2="12.3343" gradientUnits="userSpaceOnUse">
<stop stop-color="#39B6D8"/>
<stop offset="0.5" stop-color="#F7D344"/>
<stop offset="1" stop-color="#E38330"/>
</linearGradient>
</defs>
</svg>
