<svg width="40" height="40" viewBox="0 0 40 40" fill="none" xmlns="http://www.w3.org/2000/svg">
<rect x="0.5" y="0.5" width="39" height="39" rx="19.5" stroke="url(#paint0_linear_345_3425)"/>
<path d="M20 10.25C18.0716 10.25 16.1866 10.8218 14.5832 11.8932C12.9798 12.9645 11.7301 14.4873 10.9922 16.2688C10.2542 18.0504 10.0611 20.0108 10.4373 21.9021C10.8136 23.7934 11.7422 25.5307 13.1057 26.8943C14.4693 28.2579 16.2066 29.1865 18.0979 29.5627C19.9892 29.9389 21.9496 29.7458 23.7312 29.0078C25.5127 28.2699 27.0355 27.0202 28.1068 25.4168C29.1782 23.8134 29.75 21.9284 29.75 20C29.7473 17.415 28.7192 14.9366 26.8913 13.1087C25.0634 11.2808 22.585 10.2527 20 10.25ZM20 28.25C18.3683 28.25 16.7733 27.7661 15.4165 26.8596C14.0598 25.9531 13.0024 24.6646 12.378 23.1571C11.7536 21.6496 11.5902 19.9908 11.9085 18.3905C12.2269 16.7902 13.0126 15.3202 14.1664 14.1664C15.3202 13.0126 16.7902 12.2268 18.3905 11.9085C19.9909 11.5902 21.6497 11.7536 23.1571 12.378C24.6646 13.0024 25.9531 14.0598 26.8596 15.4165C27.7661 16.7733 28.25 18.3683 28.25 20C28.2475 22.1873 27.3775 24.2843 25.8309 25.8309C24.2843 27.3775 22.1873 28.2475 20 28.25ZM26 20C26 20.1989 25.921 20.3897 25.7803 20.5303C25.6397 20.671 25.4489 20.75 25.25 20.75H20C19.8011 20.75 19.6103 20.671 19.4697 20.5303C19.329 20.3897 19.25 20.1989 19.25 20V14.75C19.25 14.5511 19.329 14.3603 19.4697 14.2197C19.6103 14.079 19.8011 14 20 14C20.1989 14 20.3897 14.079 20.5303 14.2197C20.671 14.3603 20.75 14.5511 20.75 14.75V19.25H25.25C25.4489 19.25 25.6397 19.329 25.7803 19.4697C25.921 19.6103 26 19.8011 26 20Z" fill="#090909"/>
<defs>
<linearGradient id="paint0_linear_345_3425" x1="2.53333" y1="12.2223" x2="38.6904" y2="12.3343" gradientUnits="userSpaceOnUse">
<stop stop-color="#39B6D8"/>
<stop offset="0.5" stop-color="#F7D344"/>
<stop offset="1" stop-color="#E38330"/>
</linearGradient>
</defs>
</svg>
