<svg width="40" height="40" viewBox="0 0 40 40" fill="none" xmlns="http://www.w3.org/2000/svg">
<rect x="0.5" y="0.5" width="39" height="39" rx="19.5" stroke="url(#paint0_linear_345_3421)"/>
<path d="M17.5194 22.1221H18.3611H18.3613C19.6088 22.1207 20.8052 21.6337 21.688 20.7672C22.5709 19.9006 23.068 18.7252 23.0694 17.4987V17.4985C23.0694 17.4396 23.0679 17.3813 23.0654 17.3236H25.3889C25.5834 17.3236 25.7704 17.2478 25.9086 17.1122C26.0469 16.9764 26.125 16.7918 26.125 16.5988C26.125 16.4058 26.0469 16.2212 25.9086 16.0855C25.7704 15.9498 25.5834 15.874 25.3889 15.874H22.7685C22.5471 15.2975 22.2112 14.771 21.7813 14.3246H25.3889C25.5834 14.3246 25.7704 14.2488 25.9086 14.1131C26.0469 13.9774 26.125 13.7928 26.125 13.5998C26.125 13.4068 26.0469 13.2222 25.9086 13.0865C25.7704 12.9508 25.5834 12.875 25.3889 12.875H15.6111C15.4166 12.875 15.2297 12.9508 15.0914 13.0865C14.9531 13.2222 14.875 13.4068 14.875 13.5998C14.875 13.7928 14.9531 13.9774 15.0914 14.1131C15.2297 14.2488 15.4166 14.3246 15.6111 14.3246H18.3611C18.9577 14.3249 19.5426 14.487 20.051 14.7928C20.4988 15.0621 20.872 15.4335 21.1395 15.874H15.6111C15.4166 15.874 15.2297 15.9498 15.0914 16.0855C14.9531 16.2212 14.875 16.4058 14.875 16.5988C14.875 16.7918 14.9531 16.9764 15.0914 17.1122C15.2297 17.2478 15.4166 17.3236 15.6111 17.3236H21.5919C21.5953 17.3817 21.5972 17.4399 21.5972 17.4984C21.5963 18.3392 21.2556 19.1457 20.6491 19.7409C20.0426 20.3363 19.2197 20.6715 18.361 20.6725H15.6111H15.6111C15.4631 20.6725 15.3183 20.7165 15.1958 20.7989C15.0733 20.8813 14.9787 20.9985 14.9249 21.1353C14.871 21.272 14.8605 21.4217 14.8949 21.5645C14.9293 21.7073 15.0069 21.8362 15.1169 21.9344M17.5194 22.1221L15.1169 21.9344M17.5194 22.1221L22.8264 26.8572L22.7443 26.9515M17.5194 22.1221L21.8386 27.932M15.1169 21.9344L15.1169 21.9344L15.2001 21.8412L15.1169 21.9344ZM21.8386 27.932C21.9099 27.997 21.9934 28.0474 22.0843 28.0803C22.1755 28.1134 22.2724 28.1284 22.3694 28.1244C22.4664 28.1204 22.5617 28.0976 22.6498 28.0571L22.5976 27.9435M21.8386 27.932L21.8391 27.9325L21.9224 27.8392M21.8386 27.932L21.9224 27.8392M22.5976 27.9435L22.6498 28.0571C22.7379 28.0167 22.8171 27.9594 22.8827 27.8885C22.9484 27.8176 22.9992 27.7345 23.032 27.6439C23.0648 27.5534 23.0791 27.4572 23.0738 27.3611C23.0685 27.265 23.0439 27.171 23.0014 27.0845C22.959 26.9982 22.8997 26.9212 22.827 26.8578L22.8275 26.8582L22.7443 26.9515M22.5976 27.9435C22.5244 27.9771 22.4451 27.9962 22.3643 27.9995C22.2835 28.0028 22.2028 27.9903 22.1269 27.9628C22.0511 27.9353 21.9816 27.8933 21.9224 27.8392M22.5976 27.9435C22.6709 27.9099 22.7366 27.8623 22.791 27.8036C22.8454 27.7449 22.8874 27.6761 22.9145 27.6013C22.9416 27.5265 22.9533 27.4472 22.949 27.368C22.9446 27.2887 22.9243 27.2111 22.8892 27.1396C22.854 27.0681 22.8048 27.0042 22.7443 26.9515M22.7443 26.9515L21.9224 27.8392M21.9224 27.8392L15.2001 21.8411C15.1089 21.7597 15.0448 21.6531 15.0165 21.5353C14.9881 21.4175 14.9967 21.294 15.0412 21.1811C15.0856 21.0681 15.1639 20.9711 15.2656 20.9026C15.3673 20.8341 15.4878 20.7975 15.6111 20.7975L21.9224 27.8392ZM21.9224 27.8392L21.838 27.9315L21.9224 27.8392Z" fill="#090909" stroke="#090909" stroke-width="0.25"/>
<defs>
<linearGradient id="paint0_linear_345_3421" x1="2.53333" y1="12.2223" x2="38.6904" y2="12.3343" gradientUnits="userSpaceOnUse">
<stop stop-color="#39B6D8"/>
<stop offset="0.5" stop-color="#F7D344"/>
<stop offset="1" stop-color="#E38330"/>
</linearGradient>
</defs>
</svg>
