<svg width="40" height="40" viewBox="0 0 40 40" fill="none" xmlns="http://www.w3.org/2000/svg">
<rect x="0.5" y="0.5" width="39" height="39" rx="19.5" stroke="url(#paint0_linear_345_3443)"/>
<path d="M28.25 14.75H11.75C11.3358 14.75 11 15.0858 11 15.5V27.5C11 27.9142 11.3358 28.25 11.75 28.25H28.25C28.6642 28.25 29 27.9142 29 27.5V15.5C29 15.0858 28.6642 14.75 28.25 14.75Z" stroke="#090909" stroke-width="1.5" stroke-linecap="round" stroke-linejoin="round"/>
<path d="M16.25 14.75C16.25 13.7554 16.6451 12.8016 17.3483 12.0983C18.0516 11.3951 19.0054 11 20 11C20.9946 11 21.9484 11.3951 22.6517 12.0983C23.3549 12.8016 23.75 13.7554 23.75 14.75" stroke="#090909" stroke-width="1.5" stroke-linecap="round" stroke-linejoin="round"/>
<defs>
<linearGradient id="paint0_linear_345_3443" x1="2.53333" y1="12.2223" x2="38.6904" y2="12.3343" gradientUnits="userSpaceOnUse">
<stop stop-color="#39B6D8"/>
<stop offset="0.5" stop-color="#F7D344"/>
<stop offset="1" stop-color="#E38330"/>
</linearGradient>
</defs>
</svg>
