<svg width="52" height="52" viewBox="0 0 52 52" fill="none" xmlns="http://www.w3.org/2000/svg">
<circle cx="26" cy="26" r="25.375" stroke="url(#paint0_linear_5835_33422)" stroke-width="1.25"/>
<path d="M36.5 33.5H35V23C35 22.6022 34.842 22.2206 34.5607 21.9393C34.2794 21.658 33.8978 21.5 33.5 21.5H27.5V17C27.5002 16.7284 27.4266 16.4618 27.2871 16.2287C27.1476 15.9956 26.9474 15.8048 26.708 15.6766C26.4685 15.5484 26.1987 15.4876 25.9274 15.5008C25.6561 15.5139 25.3935 15.6005 25.1675 15.7512L17.6675 20.75C17.4618 20.8873 17.2931 21.0733 17.1767 21.2915C17.0602 21.5097 16.9995 21.7533 17 22.0006V33.5H15.5C15.3011 33.5 15.1103 33.579 14.9697 33.7197C14.829 33.8603 14.75 34.0511 14.75 34.25C14.75 34.4489 14.829 34.6397 14.9697 34.7803C15.1103 34.921 15.3011 35 15.5 35H36.5C36.6989 35 36.8897 34.921 37.0303 34.7803C37.171 34.6397 37.25 34.4489 37.25 34.25C37.25 34.0511 37.171 33.8603 37.0303 33.7197C36.8897 33.579 36.6989 33.5 36.5 33.5ZM33.5 23V33.5H27.5V23H33.5ZM18.5 22.0006L26 17V33.5H18.5V22.0006ZM24.5 24.5V26C24.5 26.1989 24.421 26.3897 24.2803 26.5303C24.1397 26.671 23.9489 26.75 23.75 26.75C23.5511 26.75 23.3603 26.671 23.2197 26.5303C23.079 26.3897 23 26.1989 23 26V24.5C23 24.3011 23.079 24.1103 23.2197 23.9697C23.3603 23.829 23.5511 23.75 23.75 23.75C23.9489 23.75 24.1397 23.829 24.2803 23.9697C24.421 24.1103 24.5 24.3011 24.5 24.5ZM21.5 24.5V26C21.5 26.1989 21.421 26.3897 21.2803 26.5303C21.1397 26.671 20.9489 26.75 20.75 26.75C20.5511 26.75 20.3603 26.671 20.2197 26.5303C20.079 26.3897 20 26.1989 20 26V24.5C20 24.3011 20.079 24.1103 20.2197 23.9697C20.3603 23.829 20.5511 23.75 20.75 23.75C20.9489 23.75 21.1397 23.829 21.2803 23.9697C21.421 24.1103 21.5 24.3011 21.5 24.5ZM21.5 29.75V31.25C21.5 31.4489 21.421 31.6397 21.2803 31.7803C21.1397 31.921 20.9489 32 20.75 32C20.5511 32 20.3603 31.921 20.2197 31.7803C20.079 31.6397 20 31.4489 20 31.25V29.75C20 29.5511 20.079 29.3603 20.2197 29.2197C20.3603 29.079 20.5511 29 20.75 29C20.9489 29 21.1397 29.079 21.2803 29.2197C21.421 29.3603 21.5 29.5511 21.5 29.75ZM24.5 29.75V31.25C24.5 31.4489 24.421 31.6397 24.2803 31.7803C24.1397 31.921 23.9489 32 23.75 32C23.5511 32 23.3603 31.921 23.2197 31.7803C23.079 31.6397 23 31.4489 23 31.25V29.75C23 29.5511 23.079 29.3603 23.2197 29.2197C23.3603 29.079 23.5511 29 23.75 29C23.9489 29 24.1397 29.079 24.2803 29.2197C24.421 29.3603 24.5 29.5511 24.5 29.75Z" fill="#090909"/>
<defs>
<linearGradient id="paint0_linear_5835_33422" x1="1.29592e-07" y1="43.875" x2="52.0178" y2="45.0112" gradientUnits="userSpaceOnUse">
<stop stop-color="#39B5D7"/>
<stop offset="0.502211" stop-color="#F7D544"/>
<stop offset="1" stop-color="#E38330"/>
</linearGradient>
</defs>
</svg>
