<svg width="52" height="52" viewBox="0 0 52 52" fill="none" xmlns="http://www.w3.org/2000/svg">
<circle cx="26" cy="26" r="25.375" stroke="url(#paint0_linear_5835_33427)" stroke-width="1.25"/>
<path d="M26 16.25C24.0716 16.25 22.1866 16.8218 20.5832 17.8932C18.9798 18.9645 17.7301 20.4873 16.9922 22.2688C16.2542 24.0504 16.0611 26.0108 16.4373 27.9021C16.8136 29.7934 17.7422 31.5307 19.1057 32.8943C20.4693 34.2579 22.2066 35.1865 24.0979 35.5627C25.9892 35.9389 27.9496 35.7458 29.7312 35.0078C31.5127 34.2699 33.0355 33.0202 34.1068 31.4168C35.1782 29.8134 35.75 27.9284 35.75 26C35.7473 23.415 34.7192 20.9366 32.8913 19.1087C31.0634 17.2808 28.585 16.2527 26 16.25ZM29.6656 28.6053C30.2083 27.845 30.4999 26.9341 30.4999 26C30.4999 25.0659 30.2083 24.1551 29.6656 23.3947L32.3375 20.7238C33.5732 22.2043 34.2501 24.0715 34.2501 26C34.2501 27.9285 33.5732 29.7957 32.3375 31.2763L29.6656 28.6053ZM23 26C23 25.4067 23.176 24.8266 23.5056 24.3333C23.8352 23.8399 24.3038 23.4554 24.852 23.2284C25.4001 23.0013 26.0033 22.9419 26.5853 23.0576C27.1672 23.1734 27.7018 23.4591 28.1213 23.8787C28.5409 24.2982 28.8266 24.8328 28.9424 25.4147C29.0581 25.9967 28.9987 26.5999 28.7716 27.1481C28.5446 27.6962 28.1601 28.1648 27.6667 28.4944C27.1734 28.8241 26.5933 29 26 29C25.2044 29 24.4413 28.6839 23.8787 28.1213C23.3161 27.5587 23 26.7957 23 26ZM31.2763 19.6625L28.6053 22.3344C27.845 21.7917 26.9341 21.5001 26 21.5001C25.0659 21.5001 24.1551 21.7917 23.3947 22.3344L20.7238 19.6625C22.2043 18.4268 24.0716 17.7499 26 17.7499C27.9285 17.7499 29.7957 18.4268 31.2763 19.6625ZM19.6625 20.7238L22.3344 23.3947C21.7917 24.1551 21.5001 25.0659 21.5001 26C21.5001 26.9341 21.7917 27.845 22.3344 28.6053L19.6625 31.2763C18.4268 29.7957 17.7499 27.9285 17.7499 26C17.7499 24.0715 18.4268 22.2043 19.6625 20.7238ZM20.7238 32.3375L23.3947 29.6656C24.1551 30.2083 25.0659 30.4999 26 30.4999C26.9341 30.4999 27.845 30.2083 28.6053 29.6656L31.2763 32.3375C29.7957 33.5732 27.9285 34.2501 26 34.2501C24.0716 34.2501 22.2043 33.5732 20.7238 32.3375Z" fill="#090909"/>
<defs>
<linearGradient id="paint0_linear_5835_33427" x1="1.29592e-07" y1="43.875" x2="52.0178" y2="45.0112" gradientUnits="userSpaceOnUse">
<stop stop-color="#39B5D7"/>
<stop offset="0.502211" stop-color="#F7D544"/>
<stop offset="1" stop-color="#E38330"/>
</linearGradient>
</defs>
</svg>
