<svg width="52" height="52" viewBox="0 0 52 52" fill="none" xmlns="http://www.w3.org/2000/svg">
<rect x="0.75" y="0.75" width="50.5" height="50.5" rx="25.25" stroke="#404040" stroke-width="1.5"/>
<path d="M34.986 18.4171C34.9638 18.0514 34.8085 17.7065 34.5494 17.4475C34.2904 17.1884 33.9454 17.0331 33.5797 17.0109C32.4004 16.9406 29.3863 17.0484 26.8851 19.5487L26.4397 19.9996H20.9713C20.7736 19.9985 20.5776 20.0367 20.3947 20.1121C20.2119 20.1874 20.0459 20.2983 19.9063 20.4384L16.6907 23.6559C16.4935 23.853 16.3551 24.1011 16.2911 24.3724C16.227 24.6438 16.2399 24.9276 16.3282 25.192C16.4165 25.4565 16.5768 25.6911 16.791 25.8695C17.0052 26.0479 17.2649 26.1631 17.541 26.2021L21.1476 26.7056L25.2922 30.8503L25.7957 34.4587C25.8344 34.7348 25.9496 34.9945 26.1281 35.2085C26.3067 35.4226 26.5416 35.5824 26.8063 35.67C26.9605 35.7215 27.1219 35.7477 27.2844 35.7478C27.4812 35.7481 27.6761 35.7096 27.858 35.6343C28.0398 35.559 28.2049 35.4484 28.3438 35.309L31.5613 32.0934C31.7014 31.9538 31.8123 31.7878 31.8876 31.605C31.963 31.4221 32.0012 31.2261 32.0001 31.0284V25.56L32.4472 25.1128C34.9485 22.6115 35.0563 19.5975 34.986 18.4171ZM20.9713 21.4996H24.9397L21.2338 25.2046L17.7501 24.719L20.9713 21.4996ZM27.9472 20.6137C28.6679 19.8886 29.535 19.3256 30.4907 18.9623C31.4463 18.599 32.4684 18.4439 33.4888 18.5071C33.5545 19.5281 33.401 20.5512 33.0384 21.5079C32.6759 22.4645 32.1128 23.3325 31.3869 24.0534L26.0001 29.4384L22.5613 25.9996L27.9472 20.6137ZM30.5001 31.0284L27.2816 34.2496L26.7951 30.765L30.5001 27.06V31.0284ZM23.5476 31.919C23.1257 32.8434 21.7147 34.9996 17.7501 34.9996C17.5511 34.9996 17.3604 34.9206 17.2197 34.78C17.0791 34.6393 17.0001 34.4486 17.0001 34.2496C17.0001 30.285 19.1563 28.874 20.0807 28.4512C20.1703 28.4103 20.2671 28.3875 20.3656 28.384C20.464 28.3806 20.5622 28.3965 20.6544 28.431C20.7467 28.4655 20.8313 28.5178 20.9034 28.585C20.9754 28.6521 21.0336 28.7328 21.0744 28.8225C21.1153 28.9121 21.1381 29.0089 21.1416 29.1073C21.145 29.2058 21.1291 29.3039 21.0946 29.3962C21.0601 29.4885 21.0078 29.5731 20.9407 29.6451C20.8735 29.7172 20.7928 29.7753 20.7032 29.8162C20.1004 30.0909 18.7701 30.975 18.5357 33.464C21.0247 33.2296 21.9107 31.8993 22.1835 31.2965C22.2244 31.2069 22.2825 31.1262 22.3546 31.059C22.4266 30.9919 22.5112 30.9396 22.6035 30.9051C22.6958 30.8706 22.7939 30.8546 22.8924 30.8581C22.9908 30.8616 23.0876 30.8844 23.1772 30.9253C23.2669 30.9661 23.3476 31.0243 23.4147 31.0963C23.4819 31.1684 23.5342 31.253 23.5687 31.3453C23.6032 31.4375 23.6191 31.5357 23.6156 31.6341C23.6122 31.7326 23.5894 31.8294 23.5485 31.919H23.5476Z" fill="white"/>
</svg>
