<svg width="16" height="16" viewBox="0 0 16 16" fill="none" xmlns="http://www.w3.org/2000/svg">
<path d="M2.53374 9.31499C2.41168 9.10094 2.289 8.90277 2.18342 8.69578C2.10957 8.55112 2.03999 8.39881 2.0046 8.24239C1.97042 8.09067 2.03816 7.94484 2.17487 7.85839C2.75101 7.49263 3.32593 7.1251 3.91244 6.77579C4.82853 6.2295 5.75438 5.6979 6.67412 5.15807C7.66955 4.57355 8.66314 3.98609 9.65734 3.39922C9.67504 3.38863 9.68908 3.37158 9.69091 3.32865C9.49683 3.41392 9.2997 3.4933 9.10867 3.58445C6.96341 4.61471 4.81937 5.64792 2.67411 6.67818C2.47393 6.77462 2.26947 6.86577 2.06075 6.94398C1.81418 7.0363 1.63413 6.98338 1.49315 6.77344C1.39245 6.62349 1.31067 6.45942 1.23438 6.29653C1.13978 6.09483 1.25147 5.94782 1.4071 5.83256C2.03267 5.368 2.64909 4.88992 3.29419 4.45241C4.0699 3.9267 4.86637 3.42979 5.66466 2.93583C5.92038 2.77765 6.20357 2.6571 6.48492 2.54419C6.5844 2.5042 6.71562 2.53831 6.8328 2.5389C6.80961 2.65769 6.80778 2.78588 6.75651 2.89291C6.70708 2.99523 6.60699 3.0752 6.54046 3.18575C6.79557 3.05991 7.05008 2.93289 7.30641 2.8094C9.04764 1.96849 10.7944 1.1364 12.6247 0.487195C13.1288 0.308429 13.6525 0.173765 14.1749 0.0490988C14.4025 -0.00500172 14.6528 -0.0108822 14.8871 0.0144039C15.0415 0.0308693 15.1984 0.124369 15.3308 0.215517C15.495 0.328422 15.4572 0.522478 15.4291 0.675959C15.3577 1.0676 15.1038 1.69152 14.7858 2.00319C14.928 2.09669 15.0458 2.22723 15.2448 2.22959C15.2869 2.22959 15.3601 2.3372 15.3644 2.39836C15.3864 2.72119 15.362 3.0358 15.1752 3.32453C15.1062 3.43097 15.0794 3.56387 15.0385 3.68677C14.9128 4.06842 14.6076 4.30069 14.2884 4.52004C14.0577 4.67881 13.8234 4.83288 13.5933 4.98695C13.9784 4.92403 14.3629 4.85817 14.748 4.79818C15.0098 4.75761 15.2619 4.76173 15.4718 4.95813C15.5145 4.99812 15.5853 5.014 15.6464 5.03105C15.8575 5.09045 15.9906 5.22746 15.9979 5.43387C16.0034 5.58676 15.9997 5.74436 15.9662 5.89254C15.7819 6.70876 15.4523 7.46028 14.817 8.0501C14.2347 8.5911 13.639 9.12035 13.0354 9.63959C12.5264 10.0777 12.0003 10.4976 11.4767 10.9198C11.0043 11.3002 10.524 11.6713 10.0492 12.0488C9.88438 12.18 9.72387 12.3164 9.57007 12.4769C9.73425 12.4434 9.89659 12.4011 10.0626 12.377C10.5966 12.2999 11.1313 12.2229 11.6671 12.1588C11.896 12.1312 12.1303 12.1147 12.3598 12.1282C12.8523 12.157 13.3437 12.2023 13.8343 12.2529C14.1267 12.2829 14.4172 12.3323 14.7065 12.3828C14.7858 12.3964 14.8585 12.4446 14.9341 12.4769C14.8792 12.5687 14.8475 12.6951 14.7651 12.7451C14.4001 12.9685 14.0242 13.1744 13.6464 13.3778C12.964 13.7454 12.2787 14.1076 11.5933 14.4698C10.9317 14.8197 10.2048 14.9979 9.48707 15.1978C8.62835 15.4372 7.76598 15.663 6.9036 15.8876C6.69853 15.9411 6.48614 15.9805 6.27497 15.9976C6.15535 16.007 6.00888 15.9899 5.91306 15.9288C5.69945 15.7929 5.45959 15.6547 5.32166 15.4583C5.01223 15.0173 4.68999 14.571 4.59539 14.0259C4.5545 13.7918 4.66069 13.5878 4.78458 13.4013C5.07876 12.9568 5.48828 12.6116 5.88865 12.2611C6.17488 12.0112 6.466 11.7666 6.76079 11.5261C7.16359 11.1979 7.57007 10.8733 7.97898 10.5522C8.34822 10.2618 8.72478 9.97949 9.09524 9.69017C9.46265 9.40379 9.82762 9.11329 10.1926 8.82397C10.2219 8.80104 10.2457 8.77105 10.3006 8.71518C10.2188 8.73753 10.1725 8.74341 10.1322 8.76222C8.12789 9.70252 6.1224 10.6399 4.12056 11.586C3.30091 11.9736 2.49102 12.3793 1.67381 12.7721C1.53832 12.8374 1.38696 12.8703 1.24842 12.9303C1.13673 12.9785 1.07203 12.9227 0.983538 12.8709C0.634438 12.6657 0.443409 12.3417 0.2713 12.0071C0.163885 11.7977 0.0650134 11.5778 0.0113056 11.352C-0.0411815 11.1309 0.0961395 10.948 0.277403 10.8251C1.00368 10.3317 1.73667 9.84718 2.46722 9.35968C2.48491 9.34792 2.50322 9.33616 2.53313 9.31617L2.53374 9.31499Z" fill="white"/>
</svg>
