<svg width="22" height="23" viewBox="0 0 22 23" fill="none" xmlns="http://www.w3.org/2000/svg">
<rect x="0.5" y="1.40039" width="21" height="21" rx="10.5" fill="#262626"/>
<rect x="0.5" y="1.40039" width="21" height="21" rx="10.5" stroke="#090909"/>
<path d="M11.8882 16.1527C11.8973 16.1611 12.1758 16.2251 12.507 16.2949C12.8383 16.3647 13.1129 16.4112 13.1174 16.3982C13.1217 16.3852 13.156 16.1744 13.1935 15.9297C13.2688 15.4383 13.4511 14.8646 13.6458 14.5058C14.253 13.3875 15.3423 12.6471 16.6636 12.4546L17 12.4056V11.9116V11.4176L16.6951 11.3707C14.6972 11.0633 13.3947 9.69358 13.151 7.64373C13.1351 7.50987 13.1161 7.40039 13.1088 7.40039C13.0414 7.40039 11.925 7.64711 11.9039 7.66666C11.8886 7.68079 11.8999 7.80627 11.9291 7.94546C12.2522 9.48672 13.1772 10.7409 14.3777 11.2653L14.6656 11.3911L8.74428 11.4009L5 11.4072V12.4069L8.75391 12.4132L14.6613 12.4231L14.2978 12.592C13.3547 13.0301 12.608 13.8895 12.1683 15.0431C12.043 15.3717 11.8539 16.121 11.8882 16.1527Z" fill="white"/>
</svg>
