<svg width="20" height="20" viewBox="0 0 20 20" fill="none" xmlns="http://www.w3.org/2000/svg">
<path fill-rule="evenodd" clip-rule="evenodd" d="M6.07511 3.28078C6.07511 3.28078 6.07511 3.28078 6.07511 3.28078V3.28078ZM6.07574 3.28228L7.68575 7.03896L6.35343 9.07469C6.23223 9.25837 6.16058 9.47028 6.14544 9.68984C6.13026 9.9101 6.17246 10.1305 6.26794 10.3296L6.84593 10.0524L6.27009 10.334C6.9981 11.8224 8.20456 13.0234 9.69622 13.7446L9.70075 13.7468C9.90103 13.8417 10.1226 13.8828 10.3436 13.8661C10.5638 13.8494 10.776 13.7758 10.9593 13.6526C10.9599 13.6522 10.9605 13.6518 10.9611 13.6514L12.9643 12.3156L16.7173 13.9241C16.6173 14.6954 16.2407 15.4043 15.6569 15.9183C15.0715 16.4336 14.3185 16.7179 13.5386 16.7179M7.42536 9.77803L8.7585 7.74104C8.87427 7.56415 8.9445 7.36136 8.96294 7.15076C8.98137 6.94015 8.94744 6.72825 8.86416 6.53393L7.25512 2.77951C7.25497 2.77914 7.25481 2.77877 7.25465 2.77841C7.14608 2.52349 6.95772 2.31068 6.71785 2.17195C6.47763 2.03303 6.19878 1.97593 5.92329 2.00927L5.91904 2.0098C4.83614 2.14819 3.84082 2.67655 3.11943 3.49595C2.39804 4.31536 2.00006 5.36961 2 6.46132C2 9.52156 3.21568 12.4565 5.37959 14.6204C7.54351 16.7843 10.4784 18 13.5386 18C14.6304 17.9999 15.6846 17.602 16.504 16.8806C17.3234 16.1592 17.8518 15.1639 17.9902 14.081L17.9907 14.0767C18.0241 13.8012 17.967 13.5224 17.828 13.2821C17.6893 13.0422 17.4764 12.8538 17.2214 12.7453C17.2211 12.7451 17.2208 12.745 17.2205 12.7449L13.4693 11.1372C13.2733 11.0532 13.0594 11.0194 12.847 11.039C12.6346 11.0585 12.4305 11.1306 12.253 11.249L10.2469 12.5867C9.0196 11.9912 8.02639 11.0027 7.42536 9.77803ZM6.07574 3.28228C5.30445 3.38228 4.59573 3.75928 4.08171 4.34314C3.5664 4.92846 3.28211 5.68155 3.28207 6.46139C3.28207 9.1816 4.36267 11.7904 6.28615 13.7138C8.20963 15.6373 10.8184 16.7179 13.5386 16.7179" fill="#585858"/>
</svg>
