<svg width="20" height="20" viewBox="0 0 20 20" fill="none" xmlns="http://www.w3.org/2000/svg">
<rect width="20" height="20" rx="10" fill="#090909"/>
<path d="M10.8882 14.2524C10.8973 14.2607 11.1758 14.3247 11.507 14.3945C11.8383 14.4643 12.1129 14.5108 12.1174 14.4978C12.1217 14.4848 12.156 14.274 12.1935 14.0293C12.2688 13.5379 12.4511 12.9642 12.6458 12.6054C13.253 11.4871 14.3423 10.7467 15.6636 10.5542L16 10.5052V10.0112V9.51721L15.6951 9.47029C13.6972 9.16295 12.3947 7.79319 12.151 5.74333C12.1351 5.60948 12.1161 5.5 12.1088 5.5C12.0414 5.5 10.925 5.74672 10.9039 5.76627C10.8886 5.7804 10.8999 5.90588 10.9291 6.04507C11.2522 7.58633 12.1772 8.8405 13.3777 9.3649L13.6656 9.49069L7.74428 9.50054L4 9.5068V10.5066L7.75391 10.5128L13.6613 10.5227L13.2978 10.6916C12.3547 11.1297 11.608 11.9891 11.1683 13.1427C11.043 13.4713 10.8539 14.2206 10.8882 14.2524Z" fill="white"/>
</svg>
