<svg width="22" height="23" viewBox="0 0 22 23" fill="none" xmlns="http://www.w3.org/2000/svg">
<path d="M14.4213 14.0325C14.434 14.0324 14.6767 13.8865 14.9605 13.7082C15.2444 13.5298 15.4711 13.3734 15.4644 13.3605C15.4576 13.3476 15.3222 13.1643 15.1634 12.9532C14.8445 12.5293 14.538 11.9685 14.4027 11.5614C13.9812 10.2926 14.1815 8.97299 14.9578 7.90576L15.1555 7.63398L14.7822 7.26061L14.4088 6.88722L14.1606 7.06451C12.5344 8.22607 10.5904 8.09951 8.8711 6.72019C8.75884 6.63012 8.66283 6.56063 8.65772 6.56574C8.61071 6.61275 8.01825 7.57816 8.0183 7.60766C8.01833 7.62899 8.12109 7.71591 8.24666 7.80075C9.63696 8.74026 11.2303 9.0428 12.4641 8.60164L12.7601 8.49582L8.63636 12.6344L6.0288 15.2515L6.78443 16.0071L9.40817 13.3928L13.5371 9.27886L13.4111 9.66014C13.0843 10.6492 13.2129 11.8197 13.778 12.9984C13.939 13.3342 14.3734 14.0324 14.4213 14.0325Z" fill="#090909"/>
</svg>
