<svg width="40" height="40" viewBox="0 0 40 40" fill="none" xmlns="http://www.w3.org/2000/svg">
<circle cx="20" cy="20" r="19.5" stroke="url(#paint0_linear_5789_33531)"/>
<path d="M24.621 14.6056L13.125 26.0614L13.9346 26.875L25.4306 15.4191L24.621 14.6056Z" fill="white"/>
<path d="M25.6588 24.3656C23.2952 21.3574 23.1116 17.0632 25.3146 13.9287C25.2687 13.8828 26.0374 14.698 26.0259 14.6865C22.9395 16.8451 18.6369 16.6499 15.6766 14.2846L16.7208 13.125C18.8663 15.6165 22.8248 15.6854 25.4178 13.8139C25.4064 13.8139 26.1866 14.6061 26.1292 14.5717C23.9263 16.9714 24.1787 21.277 26.875 23.1715L25.6473 24.377L25.6588 24.3656Z" fill="white"/>
<defs>
<linearGradient id="paint0_linear_5789_33531" x1="9.9686e-08" y1="33.75" x2="40.0137" y2="34.624" gradientUnits="userSpaceOnUse">
<stop stop-color="#39B5D7"/>
<stop offset="0.502211" stop-color="#F7D544"/>
<stop offset="1" stop-color="#E38330"/>
</linearGradient>
</defs>
</svg>
