<svg width="142" height="28" viewBox="0 0 142 28" fill="none" xmlns="http://www.w3.org/2000/svg">
<path d="M18.9175 4.30311C20.8154 3.93097 22.8475 3.79493 24.6874 4.49817C25.5838 4.87606 26.4613 5.40511 27.0256 6.21488C27.8784 7.34424 28.0083 8.85365 27.8378 10.2119C27.4056 12.788 25.9624 15.0777 24.232 16.9974C23.361 17.8878 22.5045 18.8098 21.4834 19.5354C21.4783 18.1879 21.4137 16.8369 21.4942 15.4916C21.9504 14.833 22.5763 14.3104 23.039 13.6554C24.0565 12.2914 24.9717 10.7489 25.1262 9.02136C25.2306 8.29149 25.045 7.5357 24.6497 6.91596C24.0746 6.07596 23.076 5.63617 22.0868 5.5102C20.2128 5.20645 18.3359 5.73046 16.5982 6.39339C13.6161 7.60552 10.9131 9.47987 8.72948 11.8307C7.49514 13.1659 6.43775 14.72 5.94315 16.4806C5.78505 17.1586 5.67844 17.8698 5.81551 18.5615C5.94242 19.1712 6.416 19.7542 7.06653 19.8269C8.1551 20.0472 9.16824 19.4656 10.0211 18.8703C11.6971 17.5675 13.0714 15.9335 14.408 14.3018C16.0398 12.2446 17.5983 10.1262 18.9915 7.90136C19.0074 12.3634 19.0074 16.8246 18.9915 21.2867C16.2566 22.827 13.2027 24.0449 10.0073 23.9765C8.2414 23.9888 6.36306 23.4345 5.16933 22.0784C4.35272 21.2096 4.06263 19.9917 4.02637 18.8358C3.99663 17.119 4.65079 15.4736 5.47175 13.9923C6.97442 11.4528 9.1182 9.32439 11.5368 7.63791C13.7575 6.08388 16.2552 4.88254 18.9175 4.30311Z" fill="#3642B8" stroke="#3642B8" stroke-width="0.125"/>
<path d="M56.2231 9.01514C57.6627 7.17967 60.1785 6.46995 62.4398 6.76938C63.6502 6.93134 64.8425 7.39992 65.7265 8.25648C66.8245 9.31386 67.3938 10.8146 67.5418 12.3046C66.3502 12.3118 65.1594 12.3125 63.9693 12.3075C63.7517 11.5747 63.5153 10.7851 62.8524 10.3201C61.7232 9.64208 60.1053 9.85226 59.2314 10.8506C58.7411 11.3718 58.5119 12.0779 58.4213 12.7725C58.3509 13.7759 58.2777 14.8296 58.641 15.7906C58.9282 16.5312 59.3837 17.269 60.1219 17.6361C61.3106 18.253 62.8227 18.1932 63.9613 17.4878C64.9766 16.8566 65.7461 15.9065 66.3567 14.8973C68.0262 12.2593 69.6805 9.61185 71.363 6.98244C73.0542 6.98172 74.7455 6.98028 76.4374 6.9846C76.4396 11.6618 76.4396 16.3391 76.4374 21.017C75.2539 21.0199 74.0717 21.0213 72.8889 21.0177C72.8853 20.1612 72.8867 19.3053 72.8613 18.4502C71.2542 18.4308 69.6442 18.3833 68.0385 18.4495C67.4192 18.9037 66.9558 19.5393 66.3074 19.9618C65.2348 20.6996 63.9577 21.1372 62.6566 21.2272C60.7275 21.4388 58.6664 21.0371 57.1202 19.825C56.0744 19.0275 55.3869 17.8449 55.0004 16.609C54.3085 14.0746 54.5362 11.1285 56.2231 9.01514ZM69.6855 15.6171C70.7516 15.6236 71.817 15.6214 72.8838 15.6185C72.8795 13.9292 72.9077 12.2391 72.8606 10.5505C71.7662 12.2161 70.7466 13.9299 69.6855 15.6171Z" fill="#3642B8" stroke="#3642B8" stroke-width="0.125"/>
<path d="M117.589 6.72525C119.681 6.58057 121.89 7.25214 123.347 8.79538C124.838 10.3775 125.336 12.6441 125.174 14.7553C125.046 16.8772 124.01 19.0337 122.152 20.1789C119.962 21.5307 117.071 21.6279 114.738 20.5784C113.502 19.9853 112.457 18.9941 111.831 17.7799C111.09 16.4497 110.925 14.8827 110.967 13.3877C111.067 11.5709 111.79 9.7563 113.13 8.48803C114.342 7.38962 115.961 6.80731 117.589 6.72525ZM117.591 9.97008C116.619 10.0464 115.727 10.6179 115.249 11.4572C114.6 12.6052 114.555 13.9995 114.794 15.2685C114.947 16.1286 115.368 16.9838 116.114 17.4847C117.104 18.2002 118.463 18.193 119.569 17.7611C120.713 17.2782 121.333 16.0509 121.442 14.8712C121.561 13.5115 121.473 11.961 120.512 10.8871C119.779 10.1025 118.635 9.81749 117.591 9.97008Z" fill="#3642B8" stroke="#3642B8" stroke-width="0.125"/>
<path d="M31.9121 6.98319C33.7251 6.98535 35.5375 6.97167 37.3513 6.98319C39.408 6.99398 41.5402 7.82319 42.7876 9.49959C43.6289 10.6361 44.0473 12.0311 44.1307 13.4289C44.2257 14.9254 43.969 16.4701 43.2416 17.7959C42.5933 18.9167 41.5982 19.8574 40.3944 20.3685C39.247 20.9155 37.9511 21.0098 36.6979 21.0192C35.1024 21.0249 33.5069 21.0149 31.9121 21.0163C31.9099 16.3391 31.9092 11.6611 31.9121 6.98319ZM35.5535 10.025C35.5128 12.6573 35.5469 15.2903 35.5382 17.9233C36.2838 17.9255 37.0307 17.9536 37.7763 17.8946C38.6531 17.8017 39.4827 17.2676 39.8787 16.478C40.456 15.5127 40.5169 14.3352 40.4052 13.2454C40.3073 12.2794 39.965 11.266 39.1658 10.6505C38.1527 9.85373 36.7588 9.99913 35.5535 10.025Z" fill="#3642B8" stroke="#3642B8" stroke-width="0.125"/>
<path d="M44.9648 6.98334C48.1478 6.99198 51.3309 6.95743 54.5132 7.00134C54.5444 8.00185 54.5393 9.00309 54.5357 10.0036C52.5536 10.0094 50.5716 10.0007 48.5895 10.0065C48.5881 10.8695 48.5881 11.7318 48.5902 12.5956C50.3301 12.5992 52.0706 12.5934 53.8112 12.597C53.8112 13.532 53.8133 14.4678 53.8104 15.4028C52.0699 15.4064 50.3293 15.4006 48.5888 15.4042C48.588 16.2435 48.5888 17.0821 48.5895 17.9213C50.5643 17.9357 52.5391 17.8983 54.5139 17.9422C54.5465 18.9593 54.5458 19.9771 54.5168 20.9949C51.333 21.0467 48.1486 21.0057 44.9648 21.0165C44.9626 16.3385 44.9619 11.6613 44.9648 6.98334Z" fill="#3642B8" stroke="#3642B8" stroke-width="0.125"/>
<path d="M77.383 6.98253C80.9606 6.98109 84.5374 6.98109 88.115 6.98253C88.1164 7.98952 88.1172 8.99651 88.115 10.0042C86.93 10.0064 85.7464 10.0035 84.5628 10.0057C84.5585 13.6766 84.565 17.3468 84.5614 21.0171C83.3524 21.0192 82.1449 21.02 80.9374 21.0164C80.9323 17.3461 80.9388 13.6759 80.9352 10.0057C79.7502 10.0035 78.5666 10.0064 77.383 10.0042C77.3801 8.99651 77.3801 7.98952 77.383 6.98253Z" fill="#3642B8" stroke="#3642B8" stroke-width="0.125"/>
<path d="M88.9873 6.98255C90.1948 6.97967 91.4023 6.97967 92.6105 6.98327C92.6163 8.75756 92.6084 10.5326 92.6142 12.3069C94.2568 12.3105 95.8994 12.3097 97.5435 12.3069C97.5479 10.5326 97.5399 8.75756 97.5457 6.98255C98.7525 6.97967 99.9607 6.97967 101.169 6.98327C101.171 11.6612 101.171 16.3384 101.169 21.0164C99.9607 21.02 98.7532 21.02 97.5464 21.0164C97.5305 19.1291 97.5682 17.2418 97.5276 15.3552C95.8973 15.3149 94.2662 15.3185 92.6366 15.3516C92.5851 17.2389 92.6258 19.1276 92.6113 21.0164C91.4103 21.0164 90.21 21.0351 89.0098 21.0013C88.9561 16.3284 89.0003 11.6554 88.9873 6.98255Z" fill="#3642B8" stroke="#3642B8" stroke-width="0.125"/>
<path d="M102.186 6.98317C103.393 6.97957 104.601 6.97957 105.809 6.98317C105.825 10.6455 105.785 14.3085 105.828 17.9715C107.658 18.0205 109.49 17.9823 111.322 17.996C111.324 18.9958 111.329 19.9949 111.303 20.9947C108.264 21.0465 105.224 21.0062 102.186 21.0163C102.183 16.3383 102.183 11.6611 102.186 6.98317Z" fill="#3642B8" stroke="#3642B8" stroke-width="0.125"/>
<path d="M126.047 6.98396C127.295 6.97892 128.544 6.9746 129.793 6.99187C131.34 9.54067 132.875 12.0974 134.439 14.6368C134.483 12.0859 134.444 9.53419 134.46 6.98252C135.618 6.98036 136.778 6.97964 137.939 6.98252C137.939 11.6605 137.941 16.3384 137.938 21.0163C136.756 21.0192 135.575 21.0221 134.395 21.0149C132.786 18.3401 131.192 15.656 129.54 13.0086C129.508 15.6776 129.537 18.3473 129.525 21.0171C128.365 21.0192 127.205 21.0199 126.046 21.0171C126.045 16.3391 126.044 11.6619 126.047 6.98396Z" fill="#3642B8" stroke="#3642B8" stroke-width="0.125"/>
</svg>
