<svg width="48" height="48" viewBox="0 0 48 48" fill="none" xmlns="http://www.w3.org/2000/svg">
<path d="M-4.57764e-05 0H47.9971V48H-4.57764e-05V0Z" fill="#F36D24"/>
<path d="M4.45277 12.8697C4.09515 12.4819 3.91214 11.8962 3.90472 11.1127V10.9771H5.55432C5.55432 11.3912 5.59784 11.685 5.6844 11.8581C5.77096 12.0318 5.95002 12.1183 6.22108 12.1183C6.40904 12.1183 6.5505 12.0619 6.64498 11.9487C6.73896 11.8359 6.80475 11.6494 6.84234 11.3897C6.87993 11.1295 6.89873 10.755 6.89873 10.2648V9.33882C6.80079 9.50453 6.64646 9.63413 6.43575 9.72861C6.22504 9.8226 5.9797 9.86959 5.70122 9.86959C5.02358 9.86959 4.52993 9.62078 4.22128 9.12364C3.91214 8.62651 3.75781 7.96762 3.75781 7.14648C3.75781 5.09017 4.5789 4.06177 6.22108 4.06177C7.06443 4.06177 7.68618 4.32146 8.08535 4.84135C8.48452 5.36124 8.68435 6.07702 8.68435 6.98819V10.3217C8.68435 11.3086 8.50133 12.0768 8.1363 12.6268C7.77076 13.1764 7.12873 13.4514 6.2097 13.4514C5.39603 13.4514 4.81039 13.2575 4.45277 12.8697ZM6.89873 8.11799V6.66072C6.89873 6.26153 6.84976 5.94494 6.75231 5.71146C6.65388 5.47798 6.4773 5.36124 6.22108 5.36124C5.95002 5.36124 5.76899 5.48738 5.67896 5.73966C5.58845 5.99194 5.54343 6.39311 5.54343 6.94317C5.54343 7.33494 5.55432 7.63421 5.57707 7.84148C5.59982 8.04874 5.66165 8.21594 5.76355 8.34405C5.86494 8.47267 6.02125 8.53648 6.23246 8.53648C6.51093 8.53648 6.73302 8.39698 6.89873 8.11799Z" fill="white"/>
<path d="M36.0477 31.584L30.3159 28.2757V21.6576C30.3159 21.5181 30.2413 21.389 30.1206 21.3187L24.1944 17.8972C24.0732 17.8274 23.9248 17.8274 23.8036 17.8972L17.8769 21.3187C17.7558 21.389 17.6816 21.5181 17.6816 21.6576V28.2757L11.9503 31.584C11.8291 31.6537 11.7549 31.7828 11.7549 31.9228V38.7674C11.7549 38.9069 11.8291 39.036 11.9503 39.1063L17.8769 42.5274C17.9378 42.562 18.0046 42.5798 18.0723 42.5798C18.1401 42.5798 18.2074 42.562 18.2677 42.5274L23.999 39.2191L29.7293 42.5274C29.7902 42.562 29.8574 42.5798 29.9247 42.5798C29.9925 42.5798 30.0597 42.562 30.1206 42.5274L36.0477 39.1063C36.1689 39.0365 36.2431 38.9069 36.2431 38.7674V31.9228C36.2431 31.7828 36.1689 31.6537 36.0477 31.584ZM23.6082 38.0902L18.8543 35.3454L23.6082 32.6V38.0902ZM29.1427 28.5017L24.3898 31.2456V25.7563L29.1427 28.5017ZM23.6082 31.2456L18.8543 28.5017L23.6082 25.7563V31.2456ZM24.781 31.9228L29.9247 28.9533L35.0704 31.9228L29.9247 34.8937L24.781 31.9228ZM29.5339 27.8245L24.781 25.0792L29.5339 22.3348V27.8245ZM23.217 25.0792L18.4631 27.8245V22.3348L23.217 25.0792ZM17.6816 41.5113L12.5369 38.5419V32.6L17.6816 35.5709V41.5113ZM18.4631 41.5113V36.0226L23.217 38.7674L18.4631 41.5113ZM35.4611 38.5419L30.3159 41.5113V35.5709L35.4611 32.6V38.5419Z" fill="white"/>
<path d="M11.3423 4.10614H10.7119V7.6039H11.3423V4.10614Z" fill="white"/>
<path d="M11.6709 7.6039V4.10614H12.1156L12.9663 6.10116V4.10614H13.4931V7.6039H13.0699L12.215 5.51388V7.6039H11.6709Z" fill="white"/>
<path d="M13.813 7.6039V4.10614H14.6377C14.9227 4.10614 15.1429 4.145 15.3027 4.22273C15.4624 4.30046 15.579 4.42137 15.6438 4.58114C15.7129 4.74092 15.7474 4.94819 15.7474 5.19433V6.47253C15.7474 6.7273 15.7129 6.93889 15.6438 7.10731C15.579 7.27572 15.4668 7.40094 15.307 7.48299C15.1516 7.56504 14.9357 7.6039 14.6636 7.6039H13.813ZM14.452 7.15912H14.6464C14.7932 7.15912 14.8968 7.13321 14.9616 7.0814C15.0263 7.02958 15.0652 6.95617 15.0781 6.85685C15.0911 6.75753 15.0997 6.6323 15.0997 6.4898V5.15115C15.0997 5.00865 15.0911 4.89637 15.0695 4.81001C15.0479 4.72365 15.0091 4.65887 14.9443 4.62001C14.8795 4.58114 14.7802 4.55955 14.6377 4.55955H14.452V7.15912Z" fill="white"/>
<path d="M16.9657 7.6514C16.7066 7.6514 16.5037 7.6039 16.3612 7.5089C16.2187 7.4139 16.1194 7.28003 16.0632 7.10299C16.0071 6.92594 15.9812 6.71866 15.9812 6.47253V4.10614H16.603V6.54594C16.603 6.65389 16.6116 6.75753 16.6246 6.85685C16.6375 6.95185 16.6721 7.02958 16.7239 7.09003C16.78 7.14617 16.8577 7.1764 16.9657 7.1764C17.078 7.1764 17.16 7.14617 17.2075 7.09003C17.2593 7.02958 17.2939 6.95185 17.3068 6.85685C17.3241 6.75753 17.3327 6.65389 17.3327 6.54594V4.10614H17.9502V6.47253C17.9502 6.71866 17.9243 6.92594 17.8681 7.10299C17.812 7.28003 17.7127 7.4139 17.5702 7.5089C17.4277 7.6039 17.2291 7.6514 16.9657 7.6514Z" fill="white"/>
<path d="M19.1208 7.65139C18.9092 7.65139 18.7365 7.61252 18.594 7.53048C18.4515 7.44843 18.3479 7.32752 18.2745 7.16774C18.2011 7.00797 18.1622 6.81365 18.1536 6.58478L18.7019 6.47683C18.7063 6.61069 18.7235 6.7316 18.7494 6.83524C18.7797 6.93888 18.8185 7.02093 18.8747 7.07706C18.9308 7.1332 19.0085 7.15911 19.0992 7.15911C19.2028 7.15911 19.2762 7.12888 19.3194 7.06843C19.3626 7.00365 19.3842 6.92592 19.3842 6.83092C19.3842 6.67979 19.3496 6.55456 19.2805 6.45524C19.2115 6.35592 19.1208 6.26092 19.0042 6.1616L18.5638 5.77296C18.4385 5.665 18.3392 5.54841 18.2658 5.41886C18.1924 5.285 18.1579 5.12523 18.1579 4.93091C18.1579 4.65454 18.2399 4.44295 18.3997 4.29181C18.5595 4.14067 18.7797 4.06726 19.0603 4.06726C19.2244 4.06726 19.3626 4.09317 19.4705 4.14499C19.5785 4.19249 19.6648 4.26158 19.7296 4.35226C19.7944 4.44295 19.8462 4.54227 19.8764 4.65886C19.9066 4.77113 19.9282 4.89204 19.9369 5.01727L19.3928 5.11227C19.3885 5.00431 19.3755 4.905 19.354 4.81863C19.3367 4.73227 19.3021 4.66318 19.2546 4.61568C19.2071 4.56817 19.1381 4.54227 19.0474 4.54227C18.9524 4.54227 18.879 4.57249 18.8272 4.63727C18.7797 4.69772 18.7538 4.77545 18.7538 4.86613C18.7538 4.98272 18.7797 5.08204 18.8272 5.15977C18.8747 5.23318 18.9481 5.31091 19.0387 5.39295L19.4749 5.77728C19.6173 5.89819 19.7426 6.04069 19.8419 6.20478C19.9455 6.36456 19.9973 6.56319 19.9973 6.79206C19.9973 6.96047 19.9585 7.10729 19.8851 7.23684C19.8117 7.36638 19.7123 7.47002 19.5785 7.54343C19.4489 7.61684 19.2978 7.65139 19.1208 7.65139Z" fill="white"/>
<path d="M20.5116 7.6039V4.57683H19.9546V4.10614H21.699V4.57683H21.1507V7.6039H20.5116Z" fill="white"/>
<path d="M21.8071 7.6039V4.10614H22.6448C22.8823 4.10614 23.0809 4.13637 23.2407 4.1925C23.4048 4.24864 23.53 4.34364 23.612 4.47751C23.6984 4.61137 23.7416 4.79706 23.7416 5.03024C23.7416 5.17274 23.7286 5.29797 23.7027 5.41024C23.6768 5.52252 23.6336 5.61752 23.5688 5.69956C23.5084 5.77729 23.422 5.83775 23.3141 5.88093L23.802 7.6039H23.163L22.7398 6.00184H22.4462V7.6039H21.8071ZM22.4462 5.60025H22.6448C22.77 5.60025 22.865 5.58297 22.9384 5.54843C23.0118 5.50956 23.068 5.45343 23.0982 5.3757C23.1284 5.29365 23.1457 5.19433 23.1457 5.0691C23.1457 4.89206 23.1111 4.76251 23.0464 4.67615C22.9816 4.58546 22.8607 4.54228 22.6794 4.54228H22.4462V5.60025Z" fill="white"/>
<path d="M24.4415 7.6039V6.26957L23.7334 4.10614H24.3293L24.7611 5.49229L25.167 4.10614H25.7499L25.0504 6.26957V7.6039H24.4415Z" fill="white"/>
<path d="M25.5692 8.19111L25.5087 7.9752C25.5865 7.95361 25.6512 7.91043 25.7074 7.84997C25.7635 7.79384 25.7894 7.71179 25.7894 7.60383H25.4785V7.02087H26.0528V7.55202C26.0528 7.7377 26.0139 7.8802 25.9319 7.98384C25.8499 8.09179 25.729 8.16088 25.5692 8.19111Z" fill="white"/>
<path d="M27.7549 4.10614H27.1245V7.6039H27.7549V4.10614Z" fill="white"/>
<path d="M28.0835 7.6039V4.10614H28.5282L29.3789 6.10116V4.10614H29.9057V7.6039H29.4825L28.6276 5.51388V7.6039H28.0835Z" fill="white"/>
<path d="M30.2256 7.6039V4.10614H30.6703L31.521 6.10116V4.10614H32.0478V7.6039H31.6246L30.7696 5.51388V7.6039H30.2256Z" fill="white"/>
<path d="M33.3177 7.65139C33.0716 7.65139 32.8729 7.60388 32.7261 7.5132C32.5793 7.42252 32.4757 7.28865 32.4109 7.11593C32.3461 6.9432 32.3159 6.74024 32.3159 6.50274V5.19432C32.3159 4.95681 32.3461 4.75818 32.4109 4.58977C32.4757 4.42135 32.5793 4.29181 32.7261 4.20113C32.8729 4.11044 33.0716 4.06726 33.3177 4.06726C33.5724 4.06726 33.7711 4.11044 33.9136 4.20113C34.0604 4.29181 34.164 4.42135 34.2288 4.58977C34.2935 4.75818 34.3281 4.95681 34.3281 5.19432V6.50706C34.3281 6.74024 34.2935 6.9432 34.2288 7.11593C34.164 7.28434 34.0604 7.4182 33.9136 7.5132C33.7711 7.60388 33.5724 7.65139 33.3177 7.65139ZM33.3177 7.1807C33.4256 7.1807 33.5034 7.15911 33.5508 7.11161C33.6027 7.06411 33.6372 7.00365 33.6545 6.92161C33.6718 6.83956 33.6804 6.7532 33.6804 6.65819V5.0475C33.6804 4.94818 33.6718 4.86181 33.6545 4.78409C33.6372 4.70636 33.6027 4.6459 33.5508 4.60272C33.5034 4.55522 33.4256 4.53363 33.3177 4.53363C33.2184 4.53363 33.1406 4.55522 33.0888 4.60272C33.037 4.6459 33.0025 4.70636 32.9852 4.78409C32.9679 4.86181 32.9593 4.94818 32.9593 5.0475V6.65819C32.9593 6.7532 32.9679 6.83956 32.9809 6.92161C32.9982 7.00365 33.0327 7.06411 33.0845 7.11161C33.1363 7.15911 33.2141 7.1807 33.3177 7.1807Z" fill="white"/>
<path d="M35.1101 7.6039L34.4062 4.10614H34.9719L35.4339 6.58048L35.8657 4.10614H36.4443L35.7405 7.6039H35.1101Z" fill="white"/>
<path d="M36.2461 7.6039L36.9456 4.10614H37.6278L38.3273 7.6039H37.7358L37.5976 6.79639H36.9888L36.8463 7.6039H36.2461ZM37.0535 6.39048H37.5285L37.291 4.92228L37.0535 6.39048Z" fill="white"/>
<path d="M38.6386 7.6039V4.57683H38.0815V4.10614H39.826V4.57683H39.2776V7.6039H38.6386Z" fill="white"/>
<path d="M40.5821 4.10614H39.9517V7.6039H40.5821V4.10614Z" fill="white"/>
<path d="M41.8606 7.65139C41.6145 7.65139 41.4159 7.60388 41.2691 7.5132C41.1223 7.42252 41.0187 7.28865 40.9539 7.11593C40.8891 6.9432 40.8589 6.74024 40.8589 6.50274V5.19432C40.8589 4.95681 40.8891 4.75818 40.9539 4.58977C41.0187 4.42135 41.1223 4.29181 41.2691 4.20113C41.4159 4.11044 41.6145 4.06726 41.8606 4.06726C42.1154 4.06726 42.314 4.11044 42.4565 4.20113C42.6033 4.29181 42.707 4.42135 42.7717 4.58977C42.8365 4.75818 42.871 4.95681 42.871 5.19432V6.50706C42.871 6.74024 42.8365 6.9432 42.7717 7.11593C42.707 7.28434 42.6033 7.4182 42.4565 7.5132C42.314 7.60388 42.1154 7.65139 41.8606 7.65139ZM41.8606 7.1807C41.9686 7.1807 42.0463 7.15911 42.0938 7.11161C42.1456 7.06411 42.1802 7.00365 42.1974 6.92161C42.2147 6.83956 42.2234 6.7532 42.2234 6.65819V5.0475C42.2234 4.94818 42.2147 4.86181 42.1974 4.78409C42.1802 4.70636 42.1456 4.6459 42.0938 4.60272C42.0463 4.55522 41.9686 4.53363 41.8606 4.53363C41.7613 4.53363 41.6836 4.55522 41.6318 4.60272C41.58 4.6459 41.5454 4.70636 41.5282 4.78409C41.5109 4.86181 41.5023 4.94818 41.5023 5.0475V6.65819C41.5023 6.7532 41.5109 6.83956 41.5238 6.92161C41.5411 7.00365 41.5757 7.06411 41.6275 7.11161C41.6793 7.15911 41.757 7.1807 41.8606 7.1807Z" fill="white"/>
<path d="M43.1306 7.6039V4.10614H43.5754L44.426 6.10116V4.10614H44.9528V7.6039H44.5296L43.6747 5.51388V7.6039H43.1306Z" fill="white"/>
<path d="M10.5176 13.3201L11.2171 9.82233H11.8993L12.5988 13.3201H12.0073L11.8691 12.5126H11.2603L11.1178 13.3201H10.5176ZM11.325 12.1067H11.8L11.5625 10.6385L11.325 12.1067Z" fill="white"/>
<path d="M12.7681 13.3201V9.82233H13.2128L14.0634 11.8173V9.82233H14.5902V13.3201H14.1671L13.3121 11.2301V13.3201H12.7681Z" fill="white"/>
<path d="M14.9412 13.3201V9.82233H15.7659C16.0509 9.82233 16.2711 9.86119 16.4309 9.93892C16.5906 10.0166 16.7072 10.1376 16.772 10.2973C16.8411 10.4571 16.8756 10.6644 16.8756 10.9105V12.1887C16.8756 12.4435 16.8411 12.6551 16.772 12.8235C16.7072 12.9919 16.5949 13.1171 16.4352 13.1992C16.2797 13.2812 16.0638 13.3201 15.7918 13.3201H14.9412ZM15.5802 12.8753H15.7745C15.9213 12.8753 16.025 12.8494 16.0897 12.7976C16.1545 12.7458 16.1934 12.6724 16.2063 12.573C16.2193 12.4737 16.2279 12.3485 16.2279 12.206V10.8673C16.2279 10.7248 16.2193 10.6126 16.1977 10.5262C16.1761 10.4398 16.1372 10.3751 16.0725 10.3362C16.0077 10.2973 15.9084 10.2757 15.7659 10.2757H15.5802V12.8753Z" fill="white"/>
<path d="M18.6822 9.82233H18.0518V13.3201H18.6822V9.82233Z" fill="white"/>
<path d="M19.0415 13.3201V9.82233H19.4863L20.3369 11.8173V9.82233H20.8637V13.3201H20.4405L19.5856 11.2301V13.3201H19.0415Z" fill="white"/>
<path d="M21.2146 13.3201V9.82233H22.6525V10.2628H21.8537V11.2819H22.5057V11.7267H21.8537V13.3201H21.2146Z" fill="white"/>
<path d="M22.8174 13.3201V9.82233H23.6551C23.8926 9.82233 24.0912 9.85255 24.2509 9.90869C24.415 9.96483 24.5402 10.0598 24.6223 10.1937C24.7086 10.3276 24.7518 10.5132 24.7518 10.7464C24.7518 10.8889 24.7389 11.0142 24.713 11.1264C24.6871 11.2387 24.6439 11.3337 24.5791 11.4158C24.5187 11.4935 24.4323 11.5539 24.3243 11.5971L24.8123 13.3201H24.1732L23.7501 11.718H23.4564V13.3201H22.8174ZM23.4564 11.3164H23.6551C23.7803 11.3164 23.8753 11.2992 23.9487 11.2646C24.0221 11.2257 24.0782 11.1696 24.1084 11.0919C24.1387 11.0098 24.1559 10.9105 24.1559 10.7853C24.1559 10.6082 24.1214 10.4787 24.0566 10.3923C23.9919 10.3016 23.871 10.2585 23.6896 10.2585H23.4564V11.3164Z" fill="white"/>
<path d="M24.8823 13.3201L25.5818 9.82233H26.2641L26.9636 13.3201H26.372L26.2338 12.5126H25.625L25.4825 13.3201H24.8823ZM25.6898 12.1067H26.1648L25.9273 10.6385L25.6898 12.1067Z" fill="white"/>
<path d="M28.0009 13.3676C27.7893 13.3676 27.6166 13.3287 27.4741 13.2467C27.3316 13.1646 27.228 13.0437 27.1546 12.8839C27.0812 12.7242 27.0423 12.5298 27.0337 12.301L27.5821 12.193C27.5864 12.3269 27.6037 12.4478 27.6296 12.5514C27.6598 12.6551 27.6987 12.7371 27.7548 12.7932C27.8109 12.8494 27.8886 12.8753 27.9793 12.8753C28.083 12.8753 28.1564 12.8451 28.1995 12.7846C28.2427 12.7198 28.2643 12.6421 28.2643 12.5471C28.2643 12.396 28.2298 12.2707 28.1607 12.1714C28.0916 12.0721 28.0009 11.9771 27.8843 11.8778L27.4439 11.4891C27.3187 11.3812 27.2194 11.2646 27.146 11.1351C27.0726 11.0012 27.038 10.8414 27.038 10.6471C27.038 10.3707 27.1201 10.1591 27.2798 10.008C27.4396 9.85686 27.6598 9.78345 27.9405 9.78345C28.1045 9.78345 28.2427 9.80936 28.3507 9.86118C28.4586 9.90868 28.545 9.97777 28.6097 10.0684C28.6745 10.1591 28.7263 10.2585 28.7566 10.375C28.7868 10.4873 28.8084 10.6082 28.817 10.7335L28.2729 10.8285C28.2686 10.7205 28.2557 10.6212 28.2341 10.5348C28.2168 10.4485 28.1823 10.3794 28.1348 10.3319C28.0873 10.2844 28.0182 10.2585 27.9275 10.2585C27.8325 10.2585 27.7591 10.2887 27.7073 10.3535C27.6598 10.4139 27.6339 10.4916 27.6339 10.5823C27.6339 10.6989 27.6598 10.7982 27.7073 10.876C27.7548 10.9494 27.8282 11.0271 27.9189 11.1091L28.355 11.4935C28.4975 11.6144 28.6227 11.7569 28.722 11.921C28.8256 12.0807 28.8775 12.2794 28.8775 12.5082C28.8775 12.6767 28.8386 12.8235 28.7652 12.953C28.6918 13.0826 28.5925 13.1862 28.4586 13.2596C28.3291 13.333 28.1779 13.3676 28.0009 13.3676Z" fill="white"/>
<path d="M29.4225 13.3201V10.293H28.8655V9.82233H30.6099V10.293H30.0615V13.3201H29.4225Z" fill="white"/>
<path d="M30.749 13.3201V9.82233H31.5867C31.8242 9.82233 32.0228 9.85255 32.1826 9.90869C32.3467 9.96483 32.4719 10.0598 32.5539 10.1937C32.6403 10.3276 32.6835 10.5132 32.6835 10.7464C32.6835 10.8889 32.6705 11.0142 32.6446 11.1264C32.6187 11.2387 32.5755 11.3337 32.5107 11.4158C32.4503 11.4935 32.3639 11.5539 32.256 11.5971L32.7439 13.3201H32.1049L31.6817 11.718H31.3881V13.3201H30.749ZM31.3881 11.3164H31.5867C31.7119 11.3164 31.8069 11.2992 31.8803 11.2646C31.9537 11.2257 32.0099 11.1696 32.0401 11.0919C32.0703 11.0098 32.0876 10.9105 32.0876 10.7853C32.0876 10.6082 32.053 10.4787 31.9883 10.3923C31.9235 10.3016 31.8026 10.2585 31.6212 10.2585H31.3881V11.3164Z" fill="white"/>
<path d="M33.941 13.3676C33.682 13.3676 33.479 13.3201 33.3365 13.2251C33.194 13.1301 33.0947 12.9962 33.0386 12.8192C32.9825 12.6421 32.9565 12.4349 32.9565 12.1887V9.82233H33.5783V12.2621C33.5783 12.3701 33.587 12.4737 33.5999 12.573C33.6129 12.668 33.6474 12.7458 33.6992 12.8062C33.7554 12.8624 33.8331 12.8926 33.941 12.8926C34.0533 12.8926 34.1353 12.8624 34.1828 12.8062C34.2347 12.7458 34.2692 12.668 34.2822 12.573C34.2994 12.4737 34.3081 12.3701 34.3081 12.2621V9.82233H34.9255V12.1887C34.9255 12.4349 34.8996 12.6421 34.8435 12.8192C34.7874 12.9962 34.688 13.1301 34.5455 13.2251C34.4031 13.3201 34.2044 13.3676 33.941 13.3676Z" fill="white"/>
<path d="M36.1872 13.3676C35.9325 13.3676 35.7295 13.3158 35.5827 13.2164C35.4402 13.1171 35.3366 12.9789 35.2805 12.8062C35.2243 12.6292 35.1941 12.4305 35.1941 12.2017V10.9537C35.1941 10.7162 35.2243 10.5089 35.2805 10.3319C35.3366 10.1548 35.4402 10.0209 35.5827 9.92595C35.7295 9.83095 35.9325 9.78345 36.1872 9.78345C36.429 9.78345 36.619 9.82663 36.7529 9.90868C36.891 9.99072 36.9904 10.1073 37.0465 10.2585C37.1026 10.4096 37.1328 10.5866 37.1328 10.7896V11.0832H36.5197V10.781C36.5197 10.6816 36.5154 10.5953 36.5024 10.5132C36.4938 10.4312 36.4679 10.3707 36.4204 10.3232C36.3772 10.2757 36.2995 10.2498 36.1915 10.2498C36.0836 10.2498 36.0015 10.2757 35.9497 10.3275C35.9022 10.375 35.8677 10.4441 35.8547 10.5305C35.8418 10.6125 35.8331 10.7075 35.8331 10.8155V12.3355C35.8331 12.4607 35.8418 12.5687 35.8634 12.6507C35.885 12.7328 35.9195 12.7932 35.9713 12.8364C36.0275 12.8753 36.1009 12.8969 36.1915 12.8969C36.2995 12.8969 36.3729 12.871 36.4161 12.8235C36.4636 12.7717 36.4895 12.7026 36.5024 12.6205C36.5154 12.5385 36.5197 12.4435 36.5197 12.3398V12.0246H37.1328V12.3053C37.1328 12.5126 37.1069 12.6982 37.0508 12.858C36.9947 13.0178 36.8997 13.143 36.7615 13.2337C36.6276 13.3244 36.4333 13.3676 36.1872 13.3676Z" fill="white"/>
<path d="M37.747 13.3201V10.293H37.1899V9.82233H38.9344V10.293H38.386V13.3201H37.747Z" fill="white"/>
<path d="M40.0321 13.3676C39.773 13.3676 39.5701 13.3201 39.4276 13.2251C39.2851 13.1301 39.1858 12.9962 39.1296 12.8192C39.0735 12.6421 39.0476 12.4349 39.0476 12.1887V9.82233H39.6694V12.2621C39.6694 12.3701 39.678 12.4737 39.691 12.573C39.7039 12.668 39.7385 12.7458 39.7903 12.8062C39.8464 12.8624 39.9241 12.8926 40.0321 12.8926C40.1444 12.8926 40.2264 12.8624 40.2739 12.8062C40.3257 12.7458 40.3603 12.668 40.3732 12.573C40.3905 12.4737 40.3991 12.3701 40.3991 12.2621V9.82233H41.0166V12.1887C41.0166 12.4349 40.9907 12.6421 40.9345 12.8192C40.8784 12.9962 40.7791 13.1301 40.6366 13.2251C40.4941 13.3201 40.2955 13.3676 40.0321 13.3676Z" fill="white"/>
<path d="M41.3369 13.3201V9.82233H42.1746C42.4121 9.82233 42.6107 9.85255 42.7705 9.90869C42.9346 9.96483 43.0598 10.0598 43.1418 10.1937C43.2282 10.3276 43.2714 10.5132 43.2714 10.7464C43.2714 10.8889 43.2584 11.0142 43.2325 11.1264C43.2066 11.2387 43.1634 11.3337 43.0986 11.4158C43.0382 11.4935 42.9518 11.5539 42.8439 11.5971L43.3318 13.3201H42.6927L42.2696 11.718H41.976V13.3201H41.3369ZM41.976 11.3164H42.1746C42.2998 11.3164 42.3948 11.2992 42.4682 11.2646C42.5416 11.2257 42.5978 11.1696 42.628 11.0919C42.6582 11.0098 42.6755 10.9105 42.6755 10.7853C42.6755 10.6082 42.6409 10.4787 42.5762 10.3923C42.5114 10.3016 42.3905 10.2585 42.2091 10.2585H41.976V11.3164Z" fill="white"/>
<path d="M43.5789 13.3201V9.82233H45.047V10.2714H44.2179V11.2776H44.8699V11.7223H44.2179V12.8796H45.0556V13.3201H43.5789Z" fill="white"/>
</svg>
