<svg width="48" height="48" viewBox="0 0 48 48" fill="none" xmlns="http://www.w3.org/2000/svg">
<path d="M-4.57764e-05 0L47.9971 0L47.9971 48L-4.57764e-05 48L-4.57764e-05 0Z" fill="#48773D"/>
<path d="M4.18992 5.99118C4.10671 6.03625 3.86549 6.13086 3.46578 6.27401C3.14928 6.38001 2.94918 6.45134 2.86597 6.48899V5.18774C3.12254 5.08967 3.43359 4.93908 3.79962 4.7355C4.16515 4.53142 4.4237 4.34666 4.57477 4.18073H5.9438V13.3459H4.18992V5.99118Z" fill="white"/>
<path d="M7.42493 12.7796C7.04008 12.2971 6.8479 11.6141 6.8479 10.7319V10.4148H8.59039V10.7205C8.59782 11.1881 8.65428 11.5239 8.75978 11.7275C8.86578 11.9311 9.05796 12.0326 9.33681 12.0326C9.61616 12.0326 9.8029 11.9291 9.897 11.7215C9.99111 11.5145 10.0387 11.1767 10.0387 10.7091C10.0387 10.2187 9.96684 9.85462 9.8237 9.61735C9.68006 9.37959 9.41606 9.25724 9.0317 9.24932C9.00892 9.24189 8.90342 9.23793 8.71471 9.23793V7.95946H8.99753C9.38981 7.95946 9.66124 7.85396 9.81231 7.64295C9.96288 7.43144 10.0387 7.0847 10.0387 6.60175C10.0387 6.20944 9.98368 5.91918 9.87422 5.73045C9.76525 5.54223 9.5706 5.44762 9.29174 5.44762C9.02774 5.44762 8.84646 5.54916 8.74888 5.75324C8.65032 5.95682 8.59782 6.25848 8.59039 6.65822V7.06538H6.8479V6.56807C6.8479 5.7681 7.06088 5.14992 7.48734 4.71204C7.9133 4.27466 8.5146 4.05573 9.29174 4.05573C10.0837 4.05573 10.6949 4.26723 11.1249 4.68975C11.5548 5.11228 11.7698 5.71906 11.7698 6.5111C11.7698 7.03913 11.6603 7.48246 11.4414 7.84058C11.2224 8.19921 10.9436 8.42359 10.6043 8.51424C11.3809 8.80054 11.7698 9.52076 11.7698 10.6749C11.7698 11.5576 11.5731 12.2496 11.1813 12.7513C10.789 13.2531 10.1669 13.5038 9.31452 13.5038C8.43932 13.5038 7.80978 13.2625 7.42493 12.7796Z" fill="white"/>
<path fill-rule="evenodd" clip-rule="evenodd" d="M41.6897 30.1436C41.7452 30.2199 41.7908 30.2863 41.8274 30.3422C41.7908 30.3997 41.7447 30.4651 41.6892 30.5423C40.4148 32.3241 34.6509 39.441 23.9548 39.4262C13.2572 39.4118 7.51463 32.2795 6.24318 30.4943C6.18919 30.4165 6.14263 30.3511 6.10449 30.2932C6.14263 30.2372 6.18919 30.1713 6.24367 30.0951C7.52008 28.3128 13.282 21.1964 23.9801 21.2107C34.6757 21.2256 40.4203 28.3574 41.6897 30.1436ZM23.9697 37.8119C25.6686 37.8144 27.2337 37.2467 28.4884 36.2922C28.3165 36.2273 28.3204 36.1416 27.8093 36.1213C27.0594 36.0921 26.5477 36.7558 26.2941 36.901C26.0415 37.0461 24.4546 36.1416 23.246 36.258C22.7042 36.3095 22.0172 36.5438 21.7859 37.1447C21.7259 37.3007 21.7799 37.431 21.8755 37.5092C22.5397 37.7039 23.2416 37.8109 23.9697 37.8119ZM29.2278 35.6497C29.9708 34.9127 30.5582 34.0191 30.9396 33.0235C30.9371 32.8303 30.8772 32.6346 30.8252 32.538C30.7985 32.4836 30.7687 32.4261 30.738 32.3657C30.5761 32.0422 30.3864 32.5727 29.4909 32.7951C29.1872 32.8699 28.785 32.917 28.1377 33.1503C27.6666 33.3212 27.1015 34.0776 27.364 34.7418C27.624 35.4055 27.4621 35.8573 28.0609 35.4665C28.6622 35.0747 28.2348 35.5383 28.4359 35.6131C28.6355 35.6864 28.5874 35.3555 28.9941 35.5631C29.0768 35.6047 29.1531 35.6289 29.2278 35.6497ZM22.9627 32.9531C23.4551 32.1631 22.8181 32.1353 22.5234 32.6753C22.4684 32.7743 22.2014 34.081 22.3906 34.2276C22.5784 34.3738 22.8602 33.1211 22.9627 32.9531ZM29.2967 31.4954C29.3789 31.5276 29.6796 31.5424 29.6796 31.4206C29.6796 31.2987 29.4819 31.0704 29.3289 30.9926C29.1788 30.9188 29.0248 31.0228 29.0852 31.2061C29.1456 31.3889 29.2165 31.4652 29.2967 31.4954ZM26.0079 31.478C26.1545 31.3453 25.778 30.9946 25.5274 31.0169C25.4155 31.0258 25.1089 31.267 25.2961 31.4131C25.4843 31.5603 25.8608 31.6088 26.0079 31.478ZM21.6155 34.6853C21.7626 34.1182 21.93 34.453 22.0028 34.0662C22.0761 33.6793 22.1975 33.653 22.1737 33.1874C22.1494 32.7238 22.2143 32.6158 22.5531 32.28C22.8914 31.9466 22.7948 32.1225 22.8934 31.8114C22.9914 31.5018 22.6537 31.4146 22.3525 31.2234C21.9989 30.998 21.6353 30.3952 21.6705 29.9856C21.6952 29.7018 21.8468 29.9603 22.1935 30.3214C22.5397 30.684 22.6953 30.9673 23.0479 30.8831C23.4021 30.7984 23.8865 30.4814 23.7602 30.1213C23.6755 29.8786 22.4843 28.9315 22.5382 28.7517C22.5997 28.5466 22.8022 28.7012 23.1653 28.9845C23.5269 29.2698 23.9603 29.2223 24.0489 29.7255C24.2134 30.6528 25.2708 30.2432 25.997 31.0778C26.2763 31.3983 26.4135 31.0525 26.6037 30.6652C26.7949 30.2773 26.4561 30.0955 26.7216 29.9143C26.9881 29.7325 27.3021 29.8122 27.423 30.1218C27.5428 30.4324 27.7117 30.8356 27.8662 31.2477C28.0129 31.639 28.9024 32.2483 29.0203 32.2572C29.524 32.2899 28.846 31.5122 28.7935 31.2274C28.741 30.9431 28.9549 30.4111 29.1744 30.3338C29.3948 30.256 29.4819 30.3308 29.9579 30.0217C30.4349 29.7122 29.9436 29.6587 29.9337 29.142C29.9237 28.6259 30.2427 28.928 30.318 29.037C30.6132 29.4699 31.1229 29.2396 31.1907 28.9711C31.2071 28.9053 31.2328 28.7884 31.2274 28.6264C30.4468 25.3502 27.5052 22.9107 23.99 22.9062C22.512 22.9043 21.1355 23.3342 19.9755 24.0752C20.8398 24.0113 22.5734 23.7201 22.3872 24.4794C22.2227 25.1511 23.4848 25.2621 22.8434 25.5915C22.5709 25.7331 21.775 26.2859 21.5991 26.1888C21.1053 25.9214 22.6096 25.5811 22.3203 25.3859C22.0301 25.1878 21.4525 25.4136 21.0008 25.5122C20.7784 25.5622 19.9097 25.5588 19.5922 25.7098C19.2747 25.8634 18.9002 26.0665 19.0047 26.3379C19.1107 26.6099 19.9706 26.8258 20.1152 26.8258C20.2598 26.8263 20.4169 26.7912 20.7254 26.4132C21.0335 26.0333 21.407 26.3825 21.2985 26.433C21.191 26.485 20.9483 26.6569 20.7576 26.8828C20.6056 27.0611 20.3222 27.1874 20.0142 27.0319C19.7056 26.8769 19.0161 26.9596 18.8824 27.0364C18.7497 27.1141 18.4173 27.3459 18.3168 27.3722C18.2172 27.3989 18.0721 27.4742 18.1206 27.5783C18.1687 27.6808 18.1954 27.8046 18.1186 27.8809C18.0433 27.9592 17.9047 28.1206 17.7125 27.9919C17.5366 27.8745 17.0255 27.9255 16.8828 28.0825C16.8635 28.1424 16.8457 28.2034 16.8279 28.2638C16.818 28.5278 16.9324 28.9617 17.3692 28.6363C17.5124 28.5288 18.2261 28.5551 18.6664 28.1385C18.8745 27.9423 19.1063 28.1999 19.1563 28.3029C19.2073 28.4069 19.5065 29.0479 19.6561 29.0227C19.8051 28.9979 19.4134 28.4069 19.5887 28.3812C19.764 28.3549 19.9874 28.8795 20.0929 28.8057C20.3777 28.6046 20.613 28.6759 20.6447 28.9746C20.6714 29.2129 20.4476 29.3689 20.1613 29.4868C19.7655 29.6473 19.0855 29.2802 18.6541 29.1173C18.1295 28.9191 17.4336 28.8111 17.4336 28.8111L16.9973 28.9612C16.9973 28.9612 17.0062 29.0707 16.6114 29.5363C16.5941 29.5566 16.5792 29.5809 16.5654 29.6057C16.5416 29.8504 16.5277 30.0975 16.5272 30.3492C16.5257 31.378 16.7328 32.3582 17.1087 33.2503C17.1191 33.2543 17.1241 33.2573 17.135 33.2607C17.5456 33.3905 17.4267 33.3227 17.7159 33.1949C18.0067 33.0646 18.2667 32.7822 18.4738 33.0403C18.6828 33.2984 18.8814 33.2162 18.9096 33.6288C18.9369 34.0424 19.3356 33.3583 19.4104 33.9785C19.5278 34.9469 19.7561 34.4704 19.7556 34.6313C19.7551 35.0965 19.8012 36.0009 20.14 36.0267C20.4783 36.052 21.0122 35.8211 21.1563 35.6393C21.301 35.46 21.4704 35.255 21.6155 34.6853ZM29.6132 31.7247C29.5008 31.7336 29.1947 31.9749 29.3819 32.121C29.5701 32.2686 29.9455 32.3176 30.0922 32.1854C30.2398 32.0526 29.8638 31.7049 29.6132 31.7247ZM31.274 31.8906C31.376 31.3993 31.4315 30.8911 31.432 30.3695C31.4325 30.2243 31.427 30.0802 31.4196 29.9375C31.3255 29.6136 31.1328 29.3887 30.7712 29.4164C30.6801 29.4239 31.0119 29.7924 30.9015 29.9172C30.2393 30.6776 31.0743 31.8357 31.274 31.8906ZM17.6238 26.4672C17.4084 26.8174 17.2226 27.1889 17.0671 27.5748C17.1191 27.6005 17.1825 27.6124 17.2593 27.5951C17.495 27.5436 17.8987 27.0611 18.1563 26.8244C18.2474 26.7401 18.7442 26.5163 18.7125 26.3934C18.6828 26.2701 18.4356 26.1765 18.2504 26.2077C18.0651 26.2364 17.7972 26.2691 17.6625 26.4221C17.656 26.4306 17.6407 26.4469 17.6238 26.4672ZM18.0067 25.7079C17.9735 25.7589 18.0419 25.8936 18.2157 25.9209C18.4406 25.957 18.8497 25.7277 19.0067 25.5652C19.0627 25.5082 19.1266 25.1774 19.1073 25.0917C19.0889 25.0065 18.9379 24.9421 18.8244 24.9644C18.7095 24.9842 18.5456 25.006 18.4634 25.112C18.4242 25.1625 18.1033 25.5662 18.0067 25.7079Z" fill="white"/>
<path d="M16.3658 7.72475C16.1107 7.72475 15.9075 7.67286 15.7605 7.57341C15.6178 7.47395 15.514 7.33558 15.4578 7.16262C15.4016 6.98533 15.3713 6.78642 15.3713 6.55724V5.30757C15.3713 5.06975 15.4016 4.86219 15.4578 4.6849C15.514 4.50762 15.6178 4.37357 15.7605 4.27844C15.9075 4.18331 16.1107 4.13574 16.3658 4.13574C16.608 4.13574 16.7982 4.17898 16.9322 4.26114C17.0706 4.3433 17.17 4.46005 17.2263 4.61139C17.2825 4.76274 17.3127 4.94003 17.3127 5.14326V5.4373H16.6988V5.13461C16.6988 5.03516 16.6944 4.94867 16.6815 4.86652C16.6728 4.78436 16.6469 4.72382 16.5993 4.67626C16.5561 4.62869 16.4782 4.60275 16.3701 4.60275C16.262 4.60275 16.1799 4.62869 16.128 4.68058C16.0804 4.72814 16.0459 4.79733 16.0329 4.88381C16.0199 4.96597 16.0113 5.0611 16.0113 5.1692V6.69129C16.0113 6.81669 16.0199 6.92479 16.0415 7.00695C16.0631 7.08911 16.0977 7.14964 16.1496 7.19288C16.2058 7.2318 16.2793 7.25342 16.3701 7.25342C16.4782 7.25342 16.5517 7.22748 16.595 7.17991C16.6425 7.12802 16.6685 7.05884 16.6815 6.97668C16.6944 6.89452 16.6988 6.79939 16.6988 6.69561V6.37995H17.3127V6.66102C17.3127 6.86858 17.2868 7.05451 17.2306 7.21451C17.1744 7.3745 17.0792 7.4999 16.9409 7.5907C16.8068 7.68151 16.6123 7.72475 16.3658 7.72475Z" fill="white"/>
<path d="M17.6284 7.67721V4.17468H18.2683V7.23615H19.1158V7.67721H17.6284Z" fill="white"/>
<path d="M19.9675 4.17468H19.3362V7.67721H19.9675V4.17468Z" fill="white"/>
<path d="M20.3696 7.67721L20.4302 4.17468H21.0917L21.5889 6.60051L22.1078 4.17468H22.7477L22.8126 7.67721H22.337L22.2851 5.24274L21.7878 7.67721H21.403L20.8971 5.23409L20.8496 7.67721H20.3696Z" fill="white"/>
<path d="M23.0244 7.67721L23.7249 4.17468H24.408L25.1085 7.67721H24.5161L24.3778 6.8686H23.7681L23.6254 7.67721H23.0244ZM23.833 6.46213H24.3086L24.0708 4.99194L23.833 6.46213Z" fill="white"/>
<path d="M25.5019 7.67721V4.64601H24.9441V4.17468H26.6909V4.64601H26.1418V7.67721H25.5019Z" fill="white"/>
<path d="M26.8816 7.67721V4.17468H28.3517V4.62439H27.5215V5.63191H28.1744V6.07729H27.5215V7.23615H28.3603V7.67721H26.8816Z" fill="white"/>
<path d="M15.2461 13.4011L15.9466 9.89856H16.6297L17.3302 13.4011H16.7378L16.5995 12.5925H15.9898L15.8471 13.4011H15.2461ZM16.0546 12.186H16.5303L16.2925 10.7158L16.0546 12.186Z" fill="white"/>
<path d="M18.4674 13.4487C18.2123 13.4487 18.0091 13.3969 17.862 13.2974C17.7194 13.198 17.6156 13.0596 17.5594 12.8866C17.5032 12.7093 17.4729 12.5104 17.4729 12.2812V11.0316C17.4729 10.7937 17.5032 10.5862 17.5594 10.4089C17.6156 10.2316 17.7194 10.0976 17.862 10.0024C18.0091 9.90731 18.2123 9.85974 18.4674 9.85974C18.7095 9.85974 18.8998 9.90298 19.0338 9.98514C19.1722 10.0673 19.2716 10.184 19.3278 10.3354C19.384 10.4867 19.4143 10.664 19.4143 10.8673V11.1613H18.8003V10.8586C18.8003 10.7592 18.796 10.6727 18.783 10.5905C18.7744 10.5084 18.7484 10.4478 18.7009 10.4003C18.6576 10.3527 18.5798 10.3267 18.4717 10.3267C18.3636 10.3267 18.2815 10.3527 18.2296 10.4046C18.182 10.4521 18.1474 10.5213 18.1344 10.6078C18.1215 10.69 18.1128 10.7851 18.1128 10.8932V12.4153C18.1128 12.5407 18.1215 12.6488 18.1431 12.7309C18.1647 12.8131 18.1993 12.8736 18.2512 12.9169C18.3074 12.9558 18.3809 12.9774 18.4717 12.9774C18.5798 12.9774 18.6533 12.9515 18.6965 12.9039C18.7441 12.852 18.77 12.7828 18.783 12.7007C18.796 12.6185 18.8003 12.5234 18.8003 12.4196V12.104H19.4143V12.385C19.4143 12.5926 19.3884 12.7785 19.3321 12.9385C19.2759 13.0985 19.1808 13.2239 19.0424 13.3147C18.9084 13.4055 18.7138 13.4487 18.4674 13.4487Z" fill="white"/>
<path d="M20.0758 13.4011V10.3699H19.5181V9.89856H21.2649V10.3699H20.7158V13.4011H20.0758Z" fill="white"/>
<path d="M22.0993 9.89856H21.468V13.4011H22.0993V9.89856Z" fill="white"/>
<path d="M23.4567 13.4487C23.2103 13.4487 23.0114 13.4012 22.8644 13.3104C22.7174 13.2196 22.6136 13.0855 22.5487 12.9126C22.4839 12.7396 22.4536 12.5364 22.4536 12.2985V10.9883C22.4536 10.7505 22.4839 10.5516 22.5487 10.383C22.6136 10.2143 22.7174 10.0846 22.8644 9.99379C23.0114 9.90298 23.2103 9.85974 23.4567 9.85974C23.7118 9.85974 23.9107 9.90298 24.0534 9.99379C24.2004 10.0846 24.3042 10.2143 24.3691 10.383C24.4339 10.5516 24.4685 10.7505 24.4685 10.9883V12.3029C24.4685 12.5364 24.4339 12.7396 24.3691 12.9126C24.3042 13.0812 24.2004 13.2152 24.0534 13.3104C23.9107 13.4012 23.7118 13.4487 23.4567 13.4487ZM23.4567 12.9774C23.5648 12.9774 23.6427 12.9558 23.6902 12.9082C23.7421 12.8607 23.7767 12.8001 23.794 12.718C23.8113 12.6358 23.8199 12.5493 23.8199 12.4542V10.8413C23.8199 10.7419 23.8113 10.6554 23.794 10.5775C23.7767 10.4997 23.7421 10.4392 23.6902 10.3959C23.6427 10.3484 23.5648 10.3267 23.4567 10.3267C23.3573 10.3267 23.2795 10.3484 23.2276 10.3959C23.1757 10.4392 23.1411 10.4997 23.1238 10.5775C23.1065 10.6554 23.0979 10.7419 23.0979 10.8413V12.4542C23.0979 12.5493 23.1065 12.6358 23.1195 12.718C23.1368 12.8001 23.1714 12.8607 23.2233 12.9082C23.2751 12.9558 23.353 12.9774 23.4567 12.9774Z" fill="white"/>
<path d="M24.8059 13.4011V9.89856H25.2513L26.1031 11.8963V9.89856H26.6306V13.4011H26.2068L25.3507 11.3082V13.4011H24.8059Z" fill="white"/>
</svg>
