<svg width="48" height="48" viewBox="0 0 48 48" fill="none" xmlns="http://www.w3.org/2000/svg">
<path d="M-4.57764e-05 0H47.9971V48H-4.57764e-05V0Z" fill="#F36D24"/>
<path d="M4.45277 12.8697C4.09515 12.4819 3.91214 11.8962 3.90472 11.1127V10.9771H5.55432C5.55432 11.3912 5.59784 11.685 5.6844 11.8581C5.77096 12.0318 5.95002 12.1183 6.22108 12.1183C6.40904 12.1183 6.5505 12.0619 6.64498 11.9487C6.73896 11.8359 6.80475 11.6494 6.84234 11.3897C6.87993 11.1295 6.89873 10.755 6.89873 10.2648V9.33882C6.80079 9.50453 6.64646 9.63413 6.43575 9.72861C6.22504 9.8226 5.9797 9.86959 5.70122 9.86959C5.02358 9.86959 4.52993 9.62078 4.22128 9.12364C3.91214 8.62651 3.75781 7.96762 3.75781 7.14648C3.75781 5.09017 4.5789 4.06177 6.22108 4.06177C7.06443 4.06177 7.68618 4.32146 8.08535 4.84135C8.48452 5.36124 8.68435 6.07702 8.68435 6.98819V10.3217C8.68435 11.3086 8.50133 12.0768 8.1363 12.6268C7.77076 13.1764 7.12873 13.4514 6.2097 13.4514C5.39603 13.4514 4.81039 13.2575 4.45277 12.8697ZM6.89873 8.11799V6.66072C6.89873 6.26153 6.84976 5.94494 6.75231 5.71146C6.65388 5.47798 6.4773 5.36124 6.22108 5.36124C5.95002 5.36124 5.76899 5.48738 5.67896 5.73966C5.58845 5.99194 5.54343 6.39311 5.54343 6.94317C5.54343 7.33494 5.55432 7.63421 5.57707 7.84148C5.59982 8.04874 5.66165 8.21594 5.76355 8.34405C5.86494 8.47267 6.02125 8.53648 6.23246 8.53648C6.51093 8.53648 6.73302 8.39698 6.89873 8.11799Z" fill="white"/>
<path d="M36.0477 31.584L30.3159 28.2757V21.6576C30.3159 21.5181 30.2413 21.389 30.1206 21.3187L24.1944 17.8972C24.0732 17.8274 23.9248 17.8274 23.8036 17.8972L17.8769 21.3187C17.7558 21.389 17.6816 21.5181 17.6816 21.6576V28.2757L11.9503 31.584C11.8291 31.6537 11.7549 31.7828 11.7549 31.9228V38.7674C11.7549 38.9069 11.8291 39.036 11.9503 39.1063L17.8769 42.5274C17.9378 42.562 18.0046 42.5798 18.0723 42.5798C18.1401 42.5798 18.2074 42.562 18.2677 42.5274L23.999 39.2191L29.7293 42.5274C29.7902 42.562 29.8574 42.5798 29.9247 42.5798C29.9925 42.5798 30.0597 42.562 30.1206 42.5274L36.0477 39.1063C36.1689 39.0365 36.2431 38.9069 36.2431 38.7674V31.9228C36.2431 31.7828 36.1689 31.6537 36.0477 31.584ZM23.6082 38.0902L18.8543 35.3454L23.6082 32.6V38.0902ZM29.1427 28.5017L24.3898 31.2456V25.7563L29.1427 28.5017ZM23.6082 31.2456L18.8543 28.5017L23.6082 25.7563V31.2456ZM24.781 31.9228L29.9247 28.9533L35.0704 31.9228L29.9247 34.8937L24.781 31.9228ZM29.5339 27.8245L24.781 25.0792L29.5339 22.3348V27.8245ZM23.217 25.0792L18.4631 27.8245V22.3348L23.217 25.0792ZM17.6816 41.5113L12.5369 38.5419V32.6L17.6816 35.5709V41.5113ZM18.4631 41.5113V36.0226L23.217 38.7674L18.4631 41.5113ZM35.4611 38.5419L30.3159 41.5113V35.5709L35.4611 32.6V38.5419Z" fill="white"/>
<path d="M11.3423 4.10614H10.7119V7.6039H11.3423V4.10614Z" fill="white"/>
<path d="M11.6709 7.6039V4.10614H12.1156L12.9663 6.10116V4.10614H13.4931V7.6039H13.0699L12.215 5.51388V7.6039H11.6709Z" fill="white"/>
<path d="M13.813 7.6039V4.10614H14.6377C14.9227 4.10614 15.1429 4.145 15.3027 4.22273C15.4624 4.30046 15.579 4.42137 15.6438 4.58114C15.7129 4.74092 15.7474 4.94819 15.7474 5.19433V6.47253C15.7474 6.7273 15.7129 6.93889 15.6438 7.10731C15.579 7.27572 15.4668 7.40094 15.307 7.48299C15.1516 7.56504 14.9357 7.6039 14.6636 7.6039H13.813ZM14.452 7.15912H14.6464C14.7932 7.15912 14.8968 7.13321 14.9616 7.0814C15.0263 7.02958 15.0652 6.95617 15.0781 6.85685C15.0911 6.75753 15.0997 6.6323 15.0997 6.4898V5.15115C15.0997 5.00865 15.0911 4.89637 15.0695 4.81001C15.0479 4.72365 15.0091 4.65887 14.9443 4.62001C14.8795 4.58114 14.7802 4.55955 14.6377 4.55955H14.452V7.15912Z" fill="white"/>
<path d="M16.9657 7.6514C16.7066 7.6514 16.5037 7.6039 16.3612 7.5089C16.2187 7.4139 16.1194 7.28003 16.0632 7.10299C16.0071 6.92594 15.9812 6.71866 15.9812 6.47253V4.10614H16.603V6.54594C16.603 6.65389 16.6116 6.75753 16.6246 6.85685C16.6375 6.95185 16.6721 7.02958 16.7239 7.09003C16.78 7.14617 16.8577 7.1764 16.9657 7.1764C17.078 7.1764 17.16 7.14617 17.2075 7.09003C17.2593 7.02958 17.2939 6.95185 17.3068 6.85685C17.3241 6.75753 17.3327 6.65389 17.3327 6.54594V4.10614H17.9502V6.47253C17.9502 6.71866 17.9243 6.92594 17.8681 7.10299C17.812 7.28003 17.7127 7.4139 17.5702 7.5089C17.4277 7.6039 17.2291 7.6514 16.9657 7.6514Z" fill="white"/>
<path d="M19.1208 7.65139C18.9092 7.65139 18.7365 7.61252 18.594 7.53048C18.4515 7.44843 18.3479 7.32752 18.2745 7.16774C18.2011 7.00797 18.1622 6.81365 18.1536 6.58478L18.7019 6.47683C18.7063 6.61069 18.7235 6.7316 18.7494 6.83524C18.7797 6.93888 18.8185 7.02093 18.8747 7.07706C18.9308 7.1332 19.0085 7.15911 19.0992 7.15911C19.2028 7.15911 19.2762 7.12888 19.3194 7.06843C19.3626 7.00365 19.3842 6.92592 19.3842 6.83092C19.3842 6.67979 19.3496 6.55456 19.2805 6.45524C19.2115 6.35592 19.1208 6.26092 19.0042 6.1616L18.5638 5.77296C18.4385 5.665 18.3392 5.54841 18.2658 5.41886C18.1924 5.285 18.1579 5.12523 18.1579 4.93091C18.1579 4.65454 18.2399 4.44295 18.3997 4.29181C18.5595 4.14067 18.7797 4.06726 19.0603 4.06726C19.2244 4.06726 19.3626 4.09317 19.4705 4.14499C19.5785 4.19249 19.6648 4.26158 19.7296 4.35226C19.7944 4.44295 19.8462 4.54227 19.8764 4.65886C19.9066 4.77113 19.9282 4.89204 19.9369 5.01727L19.3928 5.11227C19.3885 5.00431 19.3755 4.905 19.354 4.81863C19.3367 4.73227 19.3021 4.66318 19.2546 4.61568C19.2071 4.56817 19.1381 4.54227 19.0474 4.54227C18.9524 4.54227 18.879 4.57249 18.8272 4.63727C18.7797 4.69772 18.7538 4.77545 18.7538 4.86613C18.7538 4.98272 18.7797 5.08204 18.8272 5.15977C18.8747 5.23318 18.9481 5.31091 19.0387 5.39295L19.4749 5.77728C19.6173 5.89819 19.7426 6.04069 19.8419 6.20478C19.9455 6.36456 19.9973 6.56319 19.9973 6.79206C19.9973 6.96047 19.9585 7.10729 19.8851 7.23684C19.8117 7.36638 19.7123 7.47002 19.5785 7.54343C19.4489 7.61684 19.2978 7.65139 19.1208 7.65139Z" fill="white"/>
<path d="M20.5116 7.6039V4.57683H19.9546V4.10614H21.699V4.57683H21.1507V7.6039H20.5116Z" fill="white"/>
<path d="M21.8071 7.6039V4.10614H22.6448C22.8823 4.10614 23.0809 4.13637 23.2407 4.1925C23.4048 4.24864 23.53 4.34364 23.612 4.47751C23.6984 4.61137 23.7416 4.79706 23.7416 5.03024C23.7416 5.17274 23.7286 5.29797 23.7027 5.41024C23.6768 5.52252 23.6336 5.61752 23.5688 5.69956C23.5084 5.77729 23.422 5.83775 23.3141 5.88093L23.802 7.6039H23.163L22.7398 6.00184H22.4462V7.6039H21.8071ZM22.4462 5.60025H22.6448C22.77 5.60025 22.865 5.58297 22.9384 5.54843C23.0118 5.50956 23.068 5.45343 23.0982 5.3757C23.1284 5.29365 23.1457 5.19433 23.1457 5.0691C23.1457 4.89206 23.1111 4.76251 23.0464 4.67615C22.9816 4.58546 22.8607 4.54228 22.6794 4.54228H22.4462V5.60025Z" fill="white"/>
<path d="M24.4415 7.6039V6.26957L23.7334 4.10614H24.3293L24.7611 5.49229L25.167 4.10614H25.7499L25.0504 6.26957V7.6039H24.4415Z" fill="white"/>
<path d="M25.5692 8.19111L25.5087 7.9752C25.5865 7.95361 25.6512 7.91043 25.7074 7.84997C25.7635 7.79384 25.7894 7.71179 25.7894 7.60383H25.4785V7.02087H26.0528V7.55202C26.0528 7.7377 26.0139 7.8802 25.9319 7.98384C25.8499 8.09179 25.729 8.16088 25.5692 8.19111Z" fill="white"/>
<path d="M27.7549 4.10614H27.1245V7.6039H27.7549V4.10614Z" fill="white"/>
<path d="M28.0835 7.6039V4.10614H28.5282L29.3789 6.10116V4.10614H29.9057V7.6039H29.4825L28.6276 5.51388V7.6039H28.0835Z" fill="white"/>
<path d="M30.2256 7.6039V4.10614H30.6703L31.521 6.10116V4.10614H32.0478V7.6039H31.6246L30.7696 5.51388V7.6039H30.2256Z" fill="white"/>
<path d="M33.3177 7.65139C33.0716 7.65139 32.8729 7.60388 32.7261 7.5132C32.5793 7.42252 32.4757 7.28865 32.4109 7.11593C32.3461 6.9432 32.3159 6.74024 32.3159 6.50274V5.19432C32.3159 4.95681 32.3461 4.75818 32.4109 4.58977C32.4757 4.42135 32.5793 4.29181 32.7261 4.20113C32.8729 4.11044 33.0716 4.06726 33.3177 4.06726C33.5724 4.06726 33.7711 4.11044 33.9136 4.20113C34.0604 4.29181 34.164 4.42135 34.2288 4.58977C34.2935 4.75818 34.3281 4.95681 34.3281 5.19432V6.50706C34.3281 6.74024 34.2935 6.9432 34.2288 7.11593C34.164 7.28434 34.0604 7.4182 33.9136 7.5132C33.7711 7.60388 33.5724 7.65139 33.3177 7.65139ZM33.3177 7.1807C33.4256 7.1807 33.5034 7.15911 33.5508 7.11161C33.6027 7.06411 33.6372 7.00365 33.6545 6.92161C33.6718 6.83956 33.6804 6.7532 33.6804 6.65819V5.0475C33.6804 4.94818 33.6718 4.86181 33.6545 4.78409C33.6372 4.70636 33.6027 4.6459 33.5508 4.60272C33.5034 4.55522 33.4256 4.53363 33.3177 4.53363C33.2184 4.53363 33.1406 4.55522 33.0888 4.60272C33.037 4.6459 33.0025 4.70636 32.9852 4.78409C32.9679 4.86181 32.9593 4.94818 32.9593 5.0475V6.65819C32.9593 6.7532 32.9679 6.83956 32.9809 6.92161C32.9982 7.00365 33.0327 7.06411 33.0845 7.11161C33.1363 7.15911 33.2141 7.1807 33.3177 7.1807Z" fill="white"/>
<path d="M35.1101 7.6039L34.4062 4.10614H34.9719L35.4339 6.58048L35.8657 4.10614H36.4443L35.7405 7.6039H35.1101Z" fill="white"/>
<path d="M36.2461 7.6039L36.9456 4.10614H37.6278L38.3273 7.6039H37.7358L37.5976 6.79639H36.9888L36.8463 7.6039H36.2461ZM37.0535 6.39048H37.5285L37.291 4.92228L37.0535 6.39048Z" fill="white"/>
<path d="M38.6386 7.6039V4.57683H38.0815V4.10614H39.826V4.57683H39.2776V7.6039H38.6386Z" fill="white"/>
<path d="M40.5821 4.10614H39.9517V7.6039H40.5821V4.10614Z" fill="white"/>
<path d="M41.8606 7.65139C41.6145 7.65139 41.4159 7.60388 41.2691 7.5132C41.1223 7.42252 41.0187 7.28865 40.9539 7.11593C40.8891 6.9432 40.8589 6.74024 40.8589 6.50274V5.19432C40.8589 4.95681 40.8891 4.75818 40.9539 4.58977C41.0187 4.42135 41.1223 4.29181 41.2691 4.20113C41.4159 4.11044 41.6145 4.06726 41.8606 4.06726C42.1154 4.06726 42.314 4.11044 42.4565 4.20113C42.6033 4.29181 42.707 4.42135 42.7717 4.58977C42.8365 4.75818 42.871 4.95681 42.871 5.19432V6.50706C42.871 6.74024 42.8365 6.9432 42.7717 7.11593C42.707 7.28434 42.6033 7.4182 42.4565 7.5132C42.314 7.60388 42.1154 7.65139 41.8606 7.65139ZM41.8606 7.1807C41.9686 7.1807 42.0463 7.15911 42.0938 7.11161C42.1456 7.06411 42.1802 7.00365 42.1974 6.92161C42.2147 6.83956 42.2234 6.7532 42.2234 6.65819V5.0475C42.2234 4.94818 42.2147 4.86181 42.1974 4.78409C42.1802 4.70636 42.1456 4.6459 42.0938 4.60272C42.0463 4.55522 41.9686 4.53363 41.8606 4.53363C41.7613 4.53363 41.6836 4.55522 41.6318 4.60272C41.58 4.6459 41.5454 4.70636 41.5282 4.78409C41.5109 4.86181 41.5023 4.94818 41.5023 5.0475V6.65819C41.5023 6.7532 41.5109 6.83956 41.5238 6.92161C41.5411 7.00365 41.5757 7.06411 41.6275 7.11161C41.6793 7.15911 41.757 7.1807 41.8606 7.1807Z" fill="white"/>
<path d="M43.1306 7.6039V4.10614H43.5754L44.426 6.10116V4.10614H44.9528V7.6039H44.5296L43.6747 5.51388V7.6039H43.1306Z" fill="white"/>
<path d="M10.5176 13.3201L11.2171 9.82233H11.8993L12.5988 13.3201H12.0073L11.8691 12.5126H11.2603L11.1178 13.3201H10.5176ZM11.325 12.1067H11.8L11.5625 10.6385L11.325 12.1067Z" fill="white"/>
<path d="M12.7681 13.3201V9.82233H13.2128L14.0634 11.8173V9.82233H14.5902V13.3201H14.1671L13.3121 11.2301V13.3201H12.7681Z" fill="white"/>
<path d="M14.9412 13.3201V9.82233H15.7659C16.0509 9.82233 16.2711 9.86119 16.4309 9.93892C16.5906 10.0166 16.7072 10.1376 16.772 10.2973C16.8411 10.4571 16.8756 10.6644 16.8756 10.9105V12.1887C16.8756 12.4435 16.8411 12.6551 16.772 12.8235C16.7072 12.9919 16.5949 13.1171 16.4352 13.1992C16.2797 13.2812 16.0638 13.3201 15.7918 13.3201H14.9412ZM15.5802 12.8753H15.7745C15.9213 12.8753 16.025 12.8494 16.0897 12.7976C16.1545 12.7458 16.1934 12.6724 16.2063 12.573C16.2193 12.4737 16.2279 12.3485 16.2279 12.206V10.8673C16.2279 10.7248 16.2193 10.6126 16.1977 10.5262C16.1761 10.4398 16.1372 10.3751 16.0725 10.3362C16.0077 10.2973 15.9084 10.2757 15.7659 10.2757H15.5802V12.8753Z" fill="white"/>
<path d="M18.6822 9.82233H18.0518V13.3201H18.6822V9.82233Z" fill="white"/>
<path d="M19.0415 13.3201V9.82233H19.4863L20.3369 11.8173V9.82233H20.8637V13.3201H20.4405L19.5856 11.2301V13.3201H19.0415Z" fill="white"/>
<path d="M21.2146 13.3201V9.82233H22.6525V10.2628H21.8537V11.2819H22.5057V11.7267H21.8537V13.3201H21.2146Z" fill="white"/>
<path d="M22.8174 13.3201V9.82233H23.6551C23.8926 9.82233 24.0912 9.85255 24.2509 9.90869C24.415 9.96483 24.5402 10.0598 24.6223 10.1937C24.7086 10.3276 24.7518 10.5132 24.7518 10.7464C24.7518 10.8889 24.7389 11.0142 24.713 11.1264C24.6871 11.2387 24.6439 11.3337 24.5791 11.4158C24.5187 11.4935 24.4323 11.5539 24.3243 11.5971L24.8123 13.3201H24.1732L23.7501 11.718H23.4564V13.3201H22.8174ZM23.4564 11.3164H23.6551C23.7803 11.3164 23.8753 11.2992 23.9487 11.2646C24.0221 11.2257 24.0782 11.1696 24.1084 11.0919C24.1387 11.0098 24.1559 10.9105 24.1559 10.7853C24.1559 10.6082 24.1214 10.4787 24.0566 10.3923C23.9919 10.3016 23.871 10.2585 23.6896 10.2585H23.4564V11.3164Z" fill="white"/>
<path d="M24.8823 13.3201L25.5818 9.82233H26.2641L26.9636 13.3201H26.372L26.2338 12.5126H25.625L25.4825 13.3201H24.8823ZM25.6898 12.1067H26.1648L25.9273 10.6385L25.6898 12.1067Z" fill="white"/>
<path d="M28.0009 13.3676C27.7893 13.3676 27.6166 13.3287 27.4741 13.2467C27.3316 13.1646 27.228 13.0437 27.1546 12.8839C27.0812 12.7242 27.0423 12.5298 27.0337 12.301L27.5821 12.193C27.5864 12.3269 27.6037 12.4478 27.6296 12.5514C27.6598 12.6551 27.6987 12.7371 27.7548 12.7932C27.8109 12.8494 27.8886 12.8753 27.9793 12.8753C28.083 12.8753 28.1564 12.8451 28.1995 12.7846C28.2427 12.7198 28.2643 12.6421 28.2643 12.5471C28.2643 12.396 28.2298 12.2707 28.1607 12.1714C28.0916 12.0721 28.0009 11.9771 27.8843 11.8778L27.4439 11.4891C27.3187 11.3812 27.2194 11.2646 27.146 11.1351C27.0726 11.0012 27.038 10.8414 27.038 10.6471C27.038 10.3707 27.1201 10.1591 27.2798 10.008C27.4396 9.85686 27.6598 9.78345 27.9405 9.78345C28.1045 9.78345 28.2427 9.80936 28.3507 9.86118C28.4586 9.90868 28.545 9.97777 28.6097 10.0684C28.6745 10.1591 28.7263 10.2585 28.7566 10.375C28.7868 10.4873 28.8084 10.6082 28.817 10.7335L28.2729 10.8285C28.2686 10.7205 28.2557 10.6212 28.2341 10.5348C28.2168 10.4485 28.1823 10.3794 28.1348 10.3319C28.0873 10.2844 28.0182 10.2585 27.9275 10.2585C27.8325 10.2585 27.7591 10.2887 27.7073 10.3535C27.6598 10.4139 27.6339 10.4916 27.6339 10.5823C27.6339 10.6989 27.6598 10.7982 27.7073 10.876C27.7548 10.9494 27.8282 11.0271 27.9189 11.1091L28.355 11.4935C28.4975 11.6144 28.6227 11.7569 28.722 11.921C28.8256 12.0807 28.8775 12.2794 28.8775 12.5082C28.8775 12.6767 28.8386 12.8235 28.7652 12.953C28.6918 13.0826 28.5925 13.1862 28.4586 13.2596C28.3291 13.333 28.1779 13.3676 28.0009 13.3676Z" fill="white"/>
<path d="M29.4225 13.3201V10.293H28.8655V9.82233H30.6099V10.293H30.0615V13.3201H29.4225Z" fill="white"/>
<path d="M30.749 13.3201V9.82233H31.5867C31.8242 9.82233 32.0228 9.85255 32.1826 9.90869C32.3467 9.96483 32.4719 10.0598 32.5539 10.1937C32.6403 10.3276 32.6835 10.5132 32.6835 10.7464C32.6835 10.8889 32.6705 11.0142 32.6446 11.1264C32.6187 11.2387 32.5755 11.3337 32.5107 11.4158C32.4503 11.4935 32.3639 11.5539 32.256 11.5971L32.7439 13.3201H32.1049L31.6817 11.718H31.3881V13.3201H30.749ZM31.3881 11.3164H31.5867C31.7119 11.3164 31.8069 11.2992 31.8803 11.2646C31.9537 11.2257 32.0099 11.1696 32.0401 11.0919C32.0703 11.0098 32.0876 10.9105 32.0876 10.7853C32.0876 10.6082 32.053 10.4787 31.9883 10.3923C31.9235 10.3016 31.8026 10.2585 31.6212 10.2585H31.3881V11.3164Z" fill="white"/>
<path d="M33.941 13.3676C33.682 13.3676 33.479 13.3201 33.3365 13.2251C33.194 13.1301 33.0947 12.9962 33.0386 12.8192C32.9825 12.6421 32.9565 12.4349 32.9565 12.1887V9.82233H33.5783V12.2621C33.5783 12.3701 33.587 12.4737 33.5999 12.573C33.6129 12.668 33.6474 12.7458 33.6992 12.8062C33.7554 12.8624 33.8331 12.8926 33.941 12.8926C34.0533 12.8926 34.1353 12.8624 34.1828 12.8062C34.2347 12.7458 34.2692 12.668 34.2822 12.573C34.2994 12.4737 34.3081 12.3701 34.3081 12.2621V9.82233H34.9255V12.1887C34.9255 12.4349 34.8996 12.6421 34.8435 12.8192C34.7874 12.9962 34.688 13.1301 34.5455 13.2251C34.4031 13.3201 34.2044 13.3676 33.941 13.3676Z" fill="white"/>
<path d="M36.1872 13.3676C35.9325 13.3676 35.7295 13.3158 35.5827 13.2164C35.4402 13.1171 35.3366 12.9789 35.2805 12.8062C35.2243 12.6292 35.1941 12.4305 35.1941 12.2017V10.9537C35.1941 10.7162 35.2243 10.5089 35.2805 10.3319C35.3366 10.1548 35.4402 10.0209 35.5827 9.92595C35.7295 9.83095 35.9325 9.78345 36.1872 9.78345C36.429 9.78345 36.619 9.82663 36.7529 9.90868C36.891 9.99072 36.9904 10.1073 37.0465 10.2585C37.1026 10.4096 37.1328 10.5866 37.1328 10.7896V11.0832H36.5197V10.781C36.5197 10.6816 36.5154 10.5953 36.5024 10.5132C36.4938 10.4312 36.4679 10.3707 36.4204 10.3232C36.3772 10.2757 36.2995 10.2498 36.1915 10.2498C36.0836 10.2498 36.0015 10.2757 35.9497 10.3275C35.9022 10.375 35.8677 10.4441 35.8547 10.5305C35.8418 10.6125 35.8331 10.7075 35.8331 10.8155V12.3355C35.8331 12.4607 35.8418 12.5687 35.8634 12.6507C35.885 12.7328 35.9195 12.7932 35.9713 12.8364C36.0275 12.8753 36.1009 12.8969 36.1915 12.8969C36.2995 12.8969 36.3729 12.871 36.4161 12.8235C36.4636 12.7717 36.4895 12.7026 36.5024 12.6205C36.5154 12.5385 36.5197 12.4435 36.5197 12.3398V12.0246H37.1328V12.3053C37.1328 12.5126 37.1069 12.6982 37.0508 12.858C36.9947 13.0178 36.8997 13.143 36.7615 13.2337C36.6276 13.3244 36.4333 13.3676 36.1872 13.3676Z" fill="white"/>
<path d="M37.747 13.3201V10.293H37.1899V9.82233H38.9344V10.293H38.386V13.3201H37.747Z" fill="white"/>
<path d="M40.0321 13.3676C39.773 13.3676 39.5701 13.3201 39.4276 13.2251C39.2851 13.1301 39.1858 12.9962 39.1296 12.8192C39.0735 12.6421 39.0476 12.4349 39.0476 12.1887V9.82233H39.6694V12.2621C39.6694 12.3701 39.678 12.4737 39.691 12.573C39.7039 12.668 39.7385 12.7458 39.7903 12.8062C39.8464 12.8624 39.9241 12.8926 40.0321 12.8926C40.1444 12.8926 40.2264 12.8624 40.2739 12.8062C40.3257 12.7458 40.3603 12.668 40.3732 12.573C40.3905 12.4737 40.3991 12.3701 40.3991 12.2621V9.82233H41.0166V12.1887C41.0166 12.4349 40.9907 12.6421 40.9345 12.8192C40.8784 12.9962 40.7791 13.1301 40.6366 13.2251C40.4941 13.3201 40.2955 13.3676 40.0321 13.3676Z" fill="white"/>
<path d="M41.3369 13.3201V9.82233H42.1746C42.4121 9.82233 42.6107 9.85255 42.7705 9.90869C42.9346 9.96483 43.0598 10.0598 43.1418 10.1937C43.2282 10.3276 43.2714 10.5132 43.2714 10.7464C43.2714 10.8889 43.2584 11.0142 43.2325 11.1264C43.2066 11.2387 43.1634 11.3337 43.0986 11.4158C43.0382 11.4935 42.9518 11.5539 42.8439 11.5971L43.3318 13.3201H42.6927L42.2696 11.718H41.976V13.3201H41.3369ZM41.976 11.3164H42.1746C42.2998 11.3164 42.3948 11.2992 42.4682 11.2646C42.5416 11.2257 42.5978 11.1696 42.628 11.0919C42.6582 11.0098 42.6755 10.9105 42.6755 10.7853C42.6755 10.6082 42.6409 10.4787 42.5762 10.3923C42.5114 10.3016 42.3905 10.2585 42.2091 10.2585H41.976V11.3164Z" fill="white"/>
<path d="M43.5789 13.3201V9.82233H45.047V10.2714H44.2179V11.2776H44.8699V11.7223H44.2179V12.8796H45.0556V13.3201H43.5789Z" fill="white"/>
<path d="M0.00289154 0H48V48H0.00289154V0Z" fill="#8F1737"/>
<path d="M3.76123 10.6839C3.76123 10.1715 3.85175 9.72724 4.03229 9.35031C4.21332 8.97387 4.48043 8.69538 4.83458 8.51433C4.55561 8.31103 4.33006 8.03797 4.15644 7.69517C3.98332 7.35237 3.89676 6.93636 3.89676 6.44665C3.89676 5.69328 4.0961 5.1076 4.49576 4.68961C4.89493 4.27113 5.46722 4.06238 6.21312 4.06238C6.95853 4.06238 7.52736 4.26964 7.91911 4.68367C8.31086 5.0982 8.50673 5.67448 8.50673 6.41252C8.50673 6.92499 8.42363 7.35435 8.25793 7.70061C8.09223 8.04737 7.87014 8.31845 7.59166 8.51433C7.94532 8.69538 8.21292 8.98129 8.39346 9.37307C8.57449 9.76484 8.66501 10.2283 8.66501 10.7631C8.66501 11.6144 8.46914 12.2767 8.07739 12.7516C7.68564 13.2265 7.06438 13.4634 6.21312 13.4634C4.57836 13.4634 3.76123 12.5369 3.76123 10.6839ZM6.80619 11.7628C6.90808 11.4957 6.95853 11.1583 6.95853 10.7517C6.95853 10.2996 6.90808 9.94193 6.80619 9.67827C6.70429 9.41462 6.50693 9.28254 6.21312 9.28254C5.91931 9.28254 5.72146 9.4166 5.62006 9.68371C5.51816 9.95133 5.46722 10.3075 5.46722 10.7517C5.46722 11.1583 5.51816 11.4957 5.62006 11.7628C5.72146 12.0304 5.91931 12.1639 6.21312 12.1639C6.50693 12.1639 6.70429 12.0304 6.80619 11.7628ZM6.85713 6.44665C6.85713 6.11522 6.80421 5.85305 6.69885 5.66112C6.59349 5.4692 6.43125 5.37323 6.21312 5.37323C5.99449 5.37323 5.82879 5.4692 5.71602 5.66112C5.60275 5.85305 5.54636 6.11522 5.54636 6.44665C5.54636 7.38848 5.76845 7.85891 6.21312 7.85891C6.64246 7.85891 6.85713 7.38848 6.85713 6.44665Z" fill="white"/>
<path fill-rule="evenodd" clip-rule="evenodd" d="M33.4316 23.6128C33.7516 23.2947 33.8718 23.5762 33.8718 23.7305V42.0429C33.8718 42.1962 33.7472 42.3219 33.5933 42.3219H28.5308C28.3765 42.3219 28.2508 42.1962 28.2508 42.0429V28.9754C28.2508 28.595 28.3458 28.4595 28.5308 28.2755L33.4316 23.6128ZM19.3128 29.6872C19.6314 29.3677 19.753 29.6496 19.753 29.804V42.0429C19.753 42.1952 19.6284 42.3209 19.4741 42.3209H14.4115C14.2572 42.3209 14.1321 42.1952 14.1321 42.0429V35.0489C14.1321 34.6685 14.227 34.5334 14.4115 34.3489L19.3128 29.6872ZM35.6594 17.9588L35.6574 17.9998L34.8329 21.831L34.8324 21.8434C34.8309 21.877 34.8181 21.9092 34.7913 21.9354C34.7369 21.9913 34.6464 21.9913 34.5915 21.9354L33.6913 21.0361L24.0405 30.6874C23.996 30.7324 23.9248 30.7324 23.8808 30.6874L22.8148 29.6224C22.8099 29.6185 22.8084 29.6135 22.8054 29.6091L19.9554 26.7588L13.7383 32.9747C13.6943 33.0193 13.6231 33.0193 13.5795 32.9747L12.5126 31.9083C12.4691 31.8647 12.4691 31.7925 12.5126 31.7485L18.8083 25.4534C18.8083 25.4534 18.8083 25.4519 18.8093 25.4519L19.8747 24.3859C19.9197 24.3414 19.99 24.3414 20.0345 24.3859L23.9619 28.314L32.4656 19.8098L31.6084 18.9531L31.5659 18.9105C31.5109 18.8546 31.5109 18.7646 31.5659 18.7087C31.5871 18.6889 31.6123 18.6756 31.6391 18.6706L31.7073 18.6632L35.4601 17.8168L35.5002 17.8143L35.5274 17.8129C35.559 17.8158 35.5922 17.8272 35.6179 17.8524C35.648 17.8816 35.6614 17.9217 35.6594 17.9588ZM26.3999 30.5054C26.7476 30.1571 26.8693 30.4396 26.8693 30.5939V42.0424C26.8693 42.1952 26.7442 42.3209 26.5908 42.3209H21.5268C21.373 42.3209 21.2493 42.1952 21.2493 42.0424V30.7804C21.2493 30.6266 21.3344 30.3085 21.7276 30.7008L23.8758 32.8907C23.9179 32.9322 23.9836 32.9337 24.0286 32.8966L26.3999 30.5054Z" fill="white"/>
<path d="M12.0996 7.66695V4.16919H12.9243C13.2093 4.16919 13.4295 4.20805 13.5893 4.28578C13.7491 4.36351 13.8656 4.48442 13.9304 4.64419C13.9995 4.80397 14.034 5.01124 14.034 5.25738V6.53558C14.034 6.79035 13.9995 7.00194 13.9304 7.17035C13.8656 7.33877 13.7534 7.46399 13.5936 7.54604C13.4382 7.62809 13.2223 7.66695 12.9502 7.66695H12.0996ZM12.7387 7.22217H12.933C13.0798 7.22217 13.1834 7.19626 13.2482 7.14445C13.313 7.09263 13.3518 7.01922 13.3648 6.9199C13.3777 6.82058 13.3864 6.69535 13.3864 6.55285V5.2142C13.3864 5.0717 13.3777 4.95942 13.3561 4.87306C13.3345 4.7867 13.2957 4.72192 13.2309 4.68306C13.1661 4.64419 13.0668 4.6226 12.9243 4.6226H12.7387V7.22217Z" fill="white"/>
<path d="M14.3838 7.66695V4.16919H15.8519V4.61828H15.0228V5.62443H15.6749V6.06921H15.0228V7.22649H15.8605V7.66695H14.3838Z" fill="white"/>
<path d="M17.0525 7.71437C16.7977 7.71437 16.5948 7.66256 16.4479 7.56324C16.3054 7.46392 16.2018 7.32573 16.1457 7.153C16.0896 6.97596 16.0593 6.77732 16.0593 6.54845V5.30049C16.0593 5.06299 16.0896 4.85571 16.1457 4.67866C16.2018 4.50162 16.3054 4.36775 16.4479 4.27275C16.5948 4.17775 16.7977 4.13025 17.0525 4.13025C17.2943 4.13025 17.4842 4.17343 17.6181 4.25548C17.7563 4.33752 17.8556 4.45412 17.9117 4.60525C17.9679 4.75639 17.9981 4.93344 17.9981 5.13639V5.43003H17.3849V5.12776C17.3849 5.02844 17.3806 4.94207 17.3677 4.86003C17.359 4.77798 17.3331 4.71753 17.2856 4.67003C17.2424 4.62253 17.1647 4.59662 17.0568 4.59662C16.9488 4.59662 16.8668 4.62253 16.815 4.67435C16.7675 4.72185 16.7329 4.79094 16.72 4.8773C16.707 4.95935 16.6984 5.05435 16.6984 5.1623V6.68232C16.6984 6.80755 16.707 6.9155 16.7286 6.99755C16.7502 7.0796 16.7847 7.14005 16.8366 7.18323C16.8927 7.2221 16.9661 7.24369 17.0568 7.24369C17.1647 7.24369 17.2381 7.21778 17.2813 7.17028C17.3288 7.11846 17.3547 7.04937 17.3677 6.96732C17.3806 6.88528 17.3849 6.79027 17.3849 6.68664V6.37141H17.9981V6.65209C17.9981 6.85937 17.9722 7.04505 17.916 7.20482C17.8599 7.3646 17.7649 7.48983 17.6267 7.58051C17.4929 7.67119 17.2986 7.71437 17.0525 7.71437Z" fill="white"/>
<path d="M18.3218 7.66695V4.16919H19.7899V4.61828H18.9608V5.62443H19.6128V6.06921H18.9608V7.22649H19.7985V7.66695H18.3218Z" fill="white"/>
<path d="M20.0491 7.66695V4.16919H20.4938L21.3445 6.16421V4.16919H21.8712V7.66695H21.4481L20.5931 5.57693V7.66695H20.0491Z" fill="white"/>
<path d="M22.6312 7.66695V4.63988H22.0742V4.16919H23.8187V4.63988H23.2703V7.66695H22.6312Z" fill="white"/>
<path d="M25.3125 7.66695L24.8159 4.16919H25.3513L25.6406 6.43626L26.0034 4.17783H26.4395L26.8108 6.43626L27.0958 4.16919H27.6226L27.1347 7.66695H26.6165L26.2279 5.32216L25.8436 7.66695H25.3125Z" fill="white"/>
<path d="M28.8448 7.71437C28.5987 7.71437 28.4 7.66687 28.2532 7.57619C28.1064 7.48551 28.0028 7.35164 27.938 7.17891C27.8732 7.00619 27.843 6.80323 27.843 6.56573V5.25731C27.843 5.0198 27.8732 4.82116 27.938 4.65275C28.0028 4.48434 28.1064 4.3548 28.2532 4.26411C28.4 4.17343 28.5987 4.13025 28.8448 4.13025C29.0995 4.13025 29.2982 4.17343 29.4407 4.26411C29.5875 4.3548 29.6911 4.48434 29.7559 4.65275C29.8206 4.82116 29.8552 5.0198 29.8552 5.25731V6.57004C29.8552 6.80323 29.8206 7.00619 29.7559 7.17891C29.6911 7.34732 29.5875 7.48119 29.4407 7.57619C29.2982 7.66687 29.0995 7.71437 28.8448 7.71437ZM28.8448 7.24369C28.9527 7.24369 29.0305 7.2221 29.0779 7.1746C29.1298 7.1271 29.1643 7.06664 29.1816 6.98459C29.1989 6.90255 29.2075 6.81618 29.2075 6.72118V5.11049C29.2075 5.01117 29.1989 4.9248 29.1816 4.84707C29.1643 4.76935 29.1298 4.70889 29.0779 4.66571C29.0305 4.61821 28.9527 4.59662 28.8448 4.59662C28.7455 4.59662 28.6677 4.61821 28.6159 4.66571C28.5641 4.70889 28.5296 4.76935 28.5123 4.84707C28.495 4.9248 28.4864 5.01117 28.4864 5.11049V6.72118C28.4864 6.81618 28.495 6.90255 28.508 6.98459C28.5253 7.06664 28.5598 7.1271 28.6116 7.1746C28.6634 7.2221 28.7411 7.24369 28.8448 7.24369Z" fill="white"/>
<path d="M30.2048 7.66695V4.16919H31.0425C31.28 4.16919 31.4786 4.19942 31.6384 4.25555C31.8025 4.31169 31.9277 4.40669 32.0097 4.54056C32.0961 4.67442 32.1393 4.86011 32.1393 5.09329C32.1393 5.23579 32.1263 5.36102 32.1004 5.47329C32.0745 5.58557 32.0313 5.68057 31.9666 5.76261C31.9061 5.84034 31.8197 5.9008 31.7118 5.94398L32.1997 7.66695H31.5607L31.1375 6.06489H30.8439V7.66695H30.2048ZM30.8439 5.66329H31.0425C31.1677 5.66329 31.2627 5.64602 31.3361 5.61148C31.4095 5.57261 31.4657 5.51648 31.4959 5.43875C31.5261 5.3567 31.5434 5.25738 31.5434 5.13215C31.5434 4.95511 31.5089 4.82556 31.4441 4.73919C31.3793 4.64851 31.2584 4.60533 31.0771 4.60533H30.8439V5.66329Z" fill="white"/>
<path d="M32.5063 7.66695V4.16919H33.1454V5.70648L33.8363 4.16919H34.4451L33.7758 5.73239L34.5142 7.66695H33.8795L33.2922 6.07353L33.1454 6.34126V7.66695H32.5063Z" fill="white"/>
<path d="M35.4338 7.66695L36.1333 4.16919H36.8156L37.5151 7.66695H36.9235L36.7854 6.85944H36.1765L36.034 7.66695H35.4338ZM36.2413 6.45353H36.7163L36.4788 4.98533L36.2413 6.45353Z" fill="white"/>
<path d="M37.7439 7.66695V4.16919H38.1886L39.0393 6.16421V4.16919H39.5661V7.66695H39.1429L38.288 5.57693V7.66695H37.7439Z" fill="white"/>
<path d="M39.9763 7.66695V4.16919H40.801C41.086 4.16919 41.3062 4.20805 41.466 4.28578C41.6258 4.36351 41.7424 4.48442 41.8071 4.64419C41.8762 4.80397 41.9108 5.01124 41.9108 5.25738V6.53558C41.9108 6.79035 41.8762 7.00194 41.8071 7.17035C41.7424 7.33877 41.6301 7.46399 41.4703 7.54604C41.3149 7.62809 41.099 7.66695 40.827 7.66695H39.9763ZM40.6154 7.22217H40.8097C40.9565 7.22217 41.0601 7.19626 41.1249 7.14445C41.1897 7.09263 41.2285 7.01922 41.2415 6.9199C41.2544 6.82058 41.2631 6.69535 41.2631 6.55285V5.2142C41.2631 5.0717 41.2544 4.95942 41.2328 4.87306C41.2113 4.7867 41.1724 4.72192 41.1076 4.68306C41.0429 4.64419 40.9435 4.6226 40.801 4.6226H40.6154V7.22217Z" fill="white"/>
<path d="M12.0996 13.3831V9.88531H13.5677V10.3344H12.7387V11.3406H13.3907V11.7853H12.7387V12.9426H13.5763V13.3831H12.0996Z" fill="white"/>
<path d="M14.7983 13.4306C14.5435 13.4306 14.3406 13.3787 14.1938 13.2794C14.0513 13.1801 13.9477 13.0419 13.8915 12.8692C13.8354 12.6921 13.8052 12.4935 13.8052 12.2646V11.0167C13.8052 10.7792 13.8354 10.5719 13.8915 10.3948C13.9477 10.2178 14.0513 10.0839 14.1938 9.98894C14.3406 9.89394 14.5435 9.84644 14.7983 9.84644C15.0401 9.84644 15.2301 9.88962 15.364 9.97166C15.5021 10.0537 15.6014 10.1703 15.6576 10.3214C15.7137 10.4726 15.7439 10.6496 15.7439 10.8526V11.1462H15.1308V10.8439C15.1308 10.7446 15.1265 10.6583 15.1135 10.5762C15.1049 10.4942 15.079 10.4337 15.0315 10.3862C14.9883 10.3387 14.9106 10.3128 14.8026 10.3128C14.6947 10.3128 14.6126 10.3387 14.5608 10.3905C14.5133 10.438 14.4788 10.5071 14.4658 10.5935C14.4529 10.6755 14.4442 10.7705 14.4442 10.8785V12.3985C14.4442 12.5237 14.4529 12.6317 14.4745 12.7137C14.496 12.7958 14.5306 12.8562 14.5824 12.8994C14.6385 12.9383 14.7119 12.9599 14.8026 12.9599C14.9106 12.9599 14.984 12.934 15.0272 12.8865C15.0747 12.8346 15.1006 12.7656 15.1135 12.6835C15.1265 12.6015 15.1308 12.5065 15.1308 12.4028V12.0876H15.7439V12.3683C15.7439 12.5756 15.718 12.7612 15.6619 12.921C15.6058 13.0808 15.5108 13.206 15.3726 13.2967C15.2387 13.3874 15.0444 13.4306 14.7983 13.4306Z" fill="white"/>
<path d="M17.0479 13.4306C16.8018 13.4306 16.6032 13.3831 16.4563 13.2924C16.3095 13.2017 16.2059 13.0678 16.1411 12.8951C16.0764 12.7224 16.0461 12.5194 16.0461 12.2819V10.9735C16.0461 10.736 16.0764 10.5374 16.1411 10.3689C16.2059 10.2005 16.3095 10.071 16.4563 9.9803C16.6032 9.88962 16.8018 9.84644 17.0479 9.84644C17.3027 9.84644 17.5013 9.88962 17.6438 9.9803C17.7906 10.071 17.8942 10.2005 17.959 10.3689C18.0238 10.5374 18.0583 10.736 18.0583 10.9735V12.2862C18.0583 12.5194 18.0238 12.7224 17.959 12.8951C17.8942 13.0635 17.7906 13.1974 17.6438 13.2924C17.5013 13.3831 17.3027 13.4306 17.0479 13.4306ZM17.0479 12.9599C17.1559 12.9599 17.2336 12.9383 17.2811 12.8908C17.3329 12.8433 17.3674 12.7828 17.3847 12.7008C17.402 12.6187 17.4106 12.5324 17.4106 12.4374V10.8267C17.4106 10.7274 17.402 10.641 17.3847 10.5633C17.3674 10.4855 17.3329 10.4251 17.2811 10.3819C17.2336 10.3344 17.1559 10.3128 17.0479 10.3128C16.9486 10.3128 16.8709 10.3344 16.8191 10.3819C16.7672 10.4251 16.7327 10.4855 16.7154 10.5633C16.6982 10.641 16.6895 10.7274 16.6895 10.8267V12.4374C16.6895 12.5324 16.6982 12.6187 16.7111 12.7008C16.7284 12.7828 16.7629 12.8433 16.8147 12.8908C16.8666 12.9383 16.9443 12.9599 17.0479 12.9599Z" fill="white"/>
<path d="M18.4382 13.3831V9.88531H18.883L19.7336 11.8803V9.88531H20.2604V13.3831H19.8372L18.9823 11.2931V13.3831H18.4382Z" fill="white"/>
<path d="M21.6509 13.4306C21.4048 13.4306 21.2062 13.3831 21.0594 13.2924C20.9126 13.2017 20.8089 13.0678 20.7442 12.8951C20.6794 12.7224 20.6492 12.5194 20.6492 12.2819V10.9735C20.6492 10.736 20.6794 10.5374 20.7442 10.3689C20.8089 10.2005 20.9126 10.071 21.0594 9.9803C21.2062 9.88962 21.4048 9.84644 21.6509 9.84644C21.9057 9.84644 22.1043 9.88962 22.2468 9.9803C22.3936 10.071 22.4972 10.2005 22.562 10.3689C22.6268 10.5374 22.6613 10.736 22.6613 10.9735V12.2862C22.6613 12.5194 22.6268 12.7224 22.562 12.8951C22.4972 13.0635 22.3936 13.1974 22.2468 13.2924C22.1043 13.3831 21.9057 13.4306 21.6509 13.4306ZM21.6509 12.9599C21.7589 12.9599 21.8366 12.9383 21.8841 12.8908C21.9359 12.8433 21.9705 12.7828 21.9877 12.7008C22.005 12.6187 22.0136 12.5324 22.0136 12.4374V10.8267C22.0136 10.7274 22.005 10.641 21.9877 10.5633C21.9705 10.4855 21.9359 10.4251 21.8841 10.3819C21.8366 10.3344 21.7589 10.3128 21.6509 10.3128C21.5516 10.3128 21.4739 10.3344 21.4221 10.3819C21.3703 10.4251 21.3357 10.4855 21.3185 10.5633C21.3012 10.641 21.2925 10.7274 21.2925 10.8267V12.4374C21.2925 12.5324 21.3012 12.6187 21.3141 12.7008C21.3314 12.7828 21.3659 12.8433 21.4178 12.8908C21.4696 12.9383 21.5473 12.9599 21.6509 12.9599Z" fill="white"/>
<path d="M23.0327 13.3831L23.0932 9.88531H23.7538L24.2504 12.3078L24.7685 9.88531H25.4076L25.4724 13.3831H24.9974L24.9456 10.9519L24.449 13.3831H24.0647L23.5595 10.9433L23.512 13.3831H23.0327Z" fill="white"/>
<path d="M26.5477 9.88519H25.9172V13.383H26.5477V9.88519Z" fill="white"/>
<path d="M27.938 13.4306C27.6832 13.4306 27.4802 13.3787 27.3334 13.2794C27.1909 13.1801 27.0873 13.0419 27.0312 12.8692C26.975 12.6921 26.9448 12.4935 26.9448 12.2646V11.0167C26.9448 10.7792 26.975 10.5719 27.0312 10.3948C27.0873 10.2178 27.1909 10.0839 27.3334 9.98894C27.4802 9.89394 27.6832 9.84644 27.938 9.84644C28.1798 9.84644 28.3697 9.88962 28.5036 9.97166C28.6418 10.0537 28.7411 10.1703 28.7972 10.3214C28.8534 10.4726 28.8836 10.6496 28.8836 10.8526V11.1462H28.2704V10.8439C28.2704 10.7446 28.2661 10.6583 28.2532 10.5762C28.2445 10.4942 28.2186 10.4337 28.1711 10.3862C28.1279 10.3387 28.0502 10.3128 27.9423 10.3128C27.8343 10.3128 27.7523 10.3387 27.7005 10.3905C27.653 10.438 27.6184 10.5071 27.6055 10.5935C27.5925 10.6755 27.5839 10.7705 27.5839 10.8785V12.3985C27.5839 12.5237 27.5925 12.6317 27.6141 12.7137C27.6357 12.7958 27.6702 12.8562 27.7221 12.8994C27.7782 12.9383 27.8516 12.9599 27.9423 12.9599C28.0502 12.9599 28.1236 12.934 28.1668 12.8865C28.2143 12.8346 28.2402 12.7656 28.2532 12.6835C28.2661 12.6015 28.2704 12.5065 28.2704 12.4028V12.0876H28.8836V12.3683C28.8836 12.5756 28.8577 12.7612 28.8015 12.921C28.7454 13.0808 28.6504 13.206 28.5122 13.2967C28.3784 13.3874 28.1841 13.4306 27.938 13.4306Z" fill="white"/>
<path d="M31.0726 13.4306C30.8438 13.4306 30.6581 13.3831 30.5243 13.2837C30.3904 13.1844 30.2911 13.0462 30.2306 12.8692C30.1745 12.6878 30.1443 12.4762 30.1443 12.2301V11.0555C30.1443 10.8051 30.1745 10.5892 30.2306 10.4078C30.2868 10.2264 30.3904 10.0883 30.5329 9.99326C30.6797 9.89394 30.8827 9.84644 31.1374 9.84644C31.3749 9.84644 31.5649 9.8853 31.7074 9.96735C31.8499 10.0494 31.9492 10.166 32.0096 10.3171C32.0744 10.4683 32.1046 10.6496 32.1046 10.8655V11.0469H31.4958V10.8483C31.4958 10.736 31.4872 10.641 31.4699 10.5589C31.4569 10.4769 31.4224 10.4164 31.3749 10.3776C31.3274 10.3344 31.254 10.3128 31.146 10.3128C31.0338 10.3128 30.9517 10.3387 30.8999 10.3948C30.8524 10.451 30.8179 10.5201 30.8049 10.6108C30.792 10.7014 30.7877 10.7964 30.7877 10.9044V12.3683C30.7877 12.4892 30.7963 12.5928 30.8179 12.6835C30.8395 12.7742 30.874 12.8433 30.9302 12.8908C30.9863 12.9383 31.064 12.9599 31.1633 12.9599C31.267 12.9599 31.3447 12.934 31.4008 12.8821C31.4569 12.8303 31.4915 12.7569 31.5131 12.6662C31.5347 12.5756 31.5476 12.4633 31.5476 12.3381V12.0099H31.172V11.6083H32.1219V13.3831H31.7117L31.6642 13.0376C31.6167 13.1542 31.5476 13.2492 31.4526 13.3226C31.3619 13.396 31.2324 13.4306 31.0726 13.4306Z" fill="white"/>
<path d="M32.5193 13.3831V9.88531H33.357C33.5945 9.88531 33.7931 9.91554 33.9528 9.97168C34.1169 10.0278 34.2421 10.1228 34.3242 10.2567C34.4105 10.3905 34.4537 10.5762 34.4537 10.8094C34.4537 10.9519 34.4408 11.0771 34.4149 11.1894C34.389 11.3017 34.3458 11.3967 34.281 11.4787C34.2206 11.5565 34.1342 11.6169 34.0262 11.6601L34.5142 13.3831H33.8751L33.452 11.781H33.1583V13.3831H32.5193ZM33.1583 11.3794H33.357C33.4822 11.3794 33.5772 11.3621 33.6506 11.3276C33.724 11.2887 33.7801 11.2326 33.8104 11.1549C33.8406 11.0728 33.8578 10.9735 33.8578 10.8483C33.8578 10.6712 33.8233 10.5417 33.7585 10.4553C33.6938 10.3646 33.5729 10.3215 33.3915 10.3215H33.1583V11.3794Z" fill="white"/>
<path d="M35.7879 13.4306C35.5418 13.4306 35.3431 13.3831 35.1963 13.2924C35.0495 13.2017 34.9459 13.0678 34.8811 12.8951C34.8164 12.7224 34.7861 12.5194 34.7861 12.2819V10.9735C34.7861 10.736 34.8164 10.5374 34.8811 10.3689C34.9459 10.2005 35.0495 10.071 35.1963 9.9803C35.3431 9.88962 35.5418 9.84644 35.7879 9.84644C36.0427 9.84644 36.2413 9.88962 36.3838 9.9803C36.5306 10.071 36.6342 10.2005 36.699 10.3689C36.7638 10.5374 36.7983 10.736 36.7983 10.9735V12.2862C36.7983 12.5194 36.7638 12.7224 36.699 12.8951C36.6342 13.0635 36.5306 13.1974 36.3838 13.2924C36.2413 13.3831 36.0427 13.4306 35.7879 13.4306ZM35.7879 12.9599C35.8958 12.9599 35.9736 12.9383 36.0211 12.8908C36.0729 12.8433 36.1074 12.7828 36.1247 12.7008C36.142 12.6187 36.1506 12.5324 36.1506 12.4374V10.8267C36.1506 10.7274 36.142 10.641 36.1247 10.5633C36.1074 10.4855 36.0729 10.4251 36.0211 10.3819C35.9736 10.3344 35.8958 10.3128 35.7879 10.3128C35.6886 10.3128 35.6109 10.3344 35.559 10.3819C35.5072 10.4251 35.4727 10.4855 35.4554 10.5633C35.4381 10.641 35.4295 10.7274 35.4295 10.8267V12.4374C35.4295 12.5324 35.4381 12.6187 35.4511 12.7008C35.4684 12.7828 35.5029 12.8433 35.5547 12.8908C35.6065 12.9383 35.6843 12.9599 35.7879 12.9599Z" fill="white"/>
<path d="M37.5454 13.3831L37.0488 9.88531H37.5843L37.8736 12.1524L38.2363 9.89395H38.6724L39.0437 12.1524L39.3287 9.88531H39.8555L39.3676 13.3831H38.8494L38.4608 11.0383L38.0765 13.3831H37.5454Z" fill="white"/>
<path d="M40.5116 13.3831V10.356H39.9546V9.88531H41.699V10.356H41.1507V13.3831H40.5116Z" fill="white"/>
<path d="M41.9365 13.3831V9.88531H42.5713V11.3492H43.288V9.88531H43.9228V13.3831H43.288V11.8026H42.5713V13.3831H41.9365Z" fill="white"/>
</svg>
