<svg width="48" height="48" viewBox="0 0 48 48" fill="none" xmlns="http://www.w3.org/2000/svg">
<path d="M-9.15527e-05 0H47.8679V48H-9.15527e-05V0Z" fill="#EB1C2C"/>
<path d="M4.17493 5.98261C4.09183 6.02762 3.85094 6.1221 3.45178 6.26506C3.13571 6.37092 2.93588 6.44215 2.85327 6.47974V5.18027C3.109 5.08233 3.41963 4.93195 3.78516 4.72864C4.1502 4.52484 4.40839 4.34033 4.55926 4.17462H5.92642V13.3273H4.17493V5.98261Z" fill="white"/>
<path fill-rule="evenodd" clip-rule="evenodd" d="M6.75318 30.6909C6.76209 30.7285 6.76357 30.7686 6.75566 30.8086L5.57052 37.0923C5.54133 37.2467 5.39295 37.3481 5.23912 37.3189C5.08479 37.2897 4.98339 37.1413 5.01257 36.9875L6.19771 30.7038C6.20315 30.6761 6.21206 30.6498 6.22442 30.6261C6.10274 30.5311 6.02508 30.3837 6.02508 30.2185V26.5179C6.02508 25.589 6.73587 24.8272 7.64105 24.7451C7.6727 24.7411 7.70436 24.7372 7.74294 24.7372H10.6603C10.6959 24.7372 10.728 24.7411 10.7582 24.7451C11.6654 24.8272 12.3757 25.589 12.3757 26.5179V30.0958C12.4454 30.0013 12.5577 29.94 12.6838 29.94C12.8208 29.94 12.9395 30.0122 13.0088 30.1201L13.0118 30.1181C13.0434 30.1443 13.5321 31.0189 13.6963 31.1806C13.867 31.3538 14.0218 31.3345 14.0218 31.3345H15.2965C15.2965 31.3345 15.4498 31.3538 15.6214 31.1806C15.7832 31.0189 16.2744 30.1443 16.305 30.1181L16.3095 30.1201C16.3767 30.0122 16.4955 29.94 16.634 29.94C16.7546 29.94 16.862 29.9954 16.9322 30.082C16.9377 29.9662 16.9634 29.8806 16.9634 29.8806L18.0135 26.4596C18.0135 26.4596 18.3904 25.4707 19.2214 25.4707H21.8998C22.7318 25.4707 23.1062 26.4596 23.1062 26.4596L24.1573 29.8806C24.1573 29.8806 24.3453 30.5074 23.8125 30.6642C23.2838 30.821 23.1225 30.2086 23.1225 30.2086L22.2757 27.3534C22.2757 27.3534 22.2292 27.1338 22.0645 27.1813C21.8998 27.2288 21.9626 27.4637 21.9626 27.4637L23.4356 32.8145H22.0645V36.6466C22.0645 37.0092 21.7707 37.304 21.4057 37.304C21.0401 37.304 20.7473 37.0092 20.7473 36.6466V32.8145H20.3729V36.6466C20.3729 37.0092 20.0791 37.304 19.715 37.304C19.352 37.304 19.0557 37.0092 19.0557 36.6466V32.8145H17.6845L19.1586 27.4637C19.1586 27.4637 19.2214 27.2288 19.0557 27.1813C18.891 27.1338 18.845 27.3534 18.845 27.3534L17.9972 30.2086C17.9972 30.2086 17.8369 30.821 17.3076 30.6642C17.1419 30.6157 17.0465 30.5212 16.9926 30.4149C16.9579 30.5108 16.8976 30.6385 16.8976 30.6385L15.9172 32.4108C15.9172 32.4108 15.8529 32.5429 15.8529 32.6636V33.0297L16.4143 35.0964H15.8529V36.7856C15.8529 37.0735 15.62 37.3045 15.3336 37.3045C15.0472 37.3045 14.8147 37.0735 14.8147 36.7856V35.1592C14.8147 35.1592 14.8182 35.132 14.8152 35.0964H14.5016C14.4981 35.132 14.5016 35.1592 14.5016 35.1592V36.7856C14.5016 37.0735 14.2706 37.3045 13.9847 37.3045C13.6978 37.3045 13.4658 37.0735 13.4658 36.7856H13.4639V35.0964H12.9049L13.4639 33.041V32.6636C13.4639 32.5429 13.3991 32.4108 13.3991 32.4108L12.3381 30.4911C12.3381 30.4911 12.3316 30.4713 12.3237 30.4441C12.2396 30.6162 12.0631 30.7359 11.8583 30.7359C11.5724 30.7359 11.3404 30.5034 11.3404 30.2185V27.0403C11.3404 26.9211 11.3078 26.7598 11.0886 26.7598C10.9393 26.7598 10.9051 26.9196 10.9012 27.021V36.5472C10.9012 36.9568 10.5693 37.2907 10.1572 37.2907C9.7462 37.2907 9.4143 36.9568 9.4143 36.5472V31.0574C9.41282 30.9971 9.38957 30.8398 9.20013 30.8398C9.01068 30.8398 8.9904 30.9971 8.98743 31.0574V36.5472C8.98743 36.9568 8.65504 37.2907 8.244 37.2907C7.83197 37.2907 7.50107 36.9568 7.50107 36.5472V27.021C7.49464 26.9196 7.46347 26.7598 7.31311 26.7598C7.09497 26.7598 7.06035 26.9211 7.06035 27.0403V30.2185C7.06035 30.4287 6.93422 30.6103 6.75318 30.6909ZM37.3328 22.895C37.3328 22.157 37.9313 21.5594 38.6688 21.5594C39.4048 21.5594 40.0014 22.157 40.0014 22.895C40.0014 23.6326 39.4048 24.2301 38.6688 24.2301C37.9313 24.2301 37.3328 23.6326 37.3328 22.895ZM40.2269 24.7451C41.1326 24.8272 41.8424 25.589 41.8424 26.5179V30.2185C41.8424 30.5034 41.6109 30.7359 41.3255 30.7359C41.0386 30.7359 40.8076 30.5034 40.8076 30.2185V27.0403C40.8076 26.9211 40.773 26.7598 40.5553 26.7598C40.4045 26.7598 40.3733 26.9196 40.3674 27.021V36.5472C40.3674 36.9568 40.036 37.2907 39.6244 37.2907C39.2129 37.2907 38.8795 36.9568 38.8795 36.5472V31.0574C38.8776 30.9971 38.8573 30.8398 38.6688 30.8398H38.6678C38.4784 30.8398 38.4551 30.9971 38.4532 31.0574V36.5472C38.4532 36.9568 38.1218 37.2907 37.7102 37.2907C37.2982 37.2907 36.9668 36.9568 36.9668 36.5472V27.021C36.9618 26.9196 36.9292 26.7598 36.7798 26.7598C36.5607 26.7598 36.5276 26.9211 36.5276 27.0403V30.2185C36.5276 30.5034 36.2956 30.7359 36.0097 30.7359C35.7233 30.7359 35.4928 30.5034 35.4928 30.2185V26.5179C35.4928 25.589 36.2031 24.8272 37.1102 24.7451C37.1399 24.7411 37.1726 24.7372 37.2082 24.7372H40.1255C40.1636 24.7372 40.1948 24.7411 40.2269 24.7451ZM29.395 23.596C29.395 24.2944 28.8306 24.8603 28.1322 24.8603C27.4333 24.8603 26.8674 24.2944 26.8674 23.596C26.8674 22.898 27.4333 22.3306 28.1322 22.3306C28.8306 22.3306 29.395 22.898 29.395 23.596ZM25.5848 26.4596C25.5848 26.4596 25.9612 25.4707 26.7922 25.4707H29.4711C30.3026 25.4707 30.678 26.4596 30.678 26.4596L31.7286 29.8806C31.7286 29.8806 31.9171 30.5074 31.3839 30.6642C30.8551 30.821 30.6944 30.2086 30.6944 30.2086L29.8471 27.3534C29.8471 27.3534 29.8011 27.1338 29.6358 27.1813C29.4711 27.2288 29.533 27.4637 29.533 27.4637L31.0065 32.8145H29.6358V36.6466C29.6358 37.0092 29.341 37.304 28.976 37.304C28.6115 37.304 28.3181 37.0092 28.3181 36.6466V32.8145H27.9437V36.6466C27.9437 37.0092 27.6499 37.304 27.2863 37.304C26.9223 37.304 26.627 37.0092 26.627 36.6466V32.8145H25.2559L26.7304 27.4637C26.7304 27.4637 26.7922 27.2288 26.627 27.1813C26.4623 27.1338 26.4163 27.3534 26.4163 27.3534L25.569 30.2086C25.569 30.2086 25.4082 30.821 24.879 30.6642C24.3467 30.5074 24.5342 29.8806 24.5342 29.8806L25.5848 26.4596ZM21.8241 23.596C21.8241 24.2944 21.2588 24.8603 20.5608 24.8603C19.8619 24.8603 19.2966 24.2944 19.2966 23.596C19.2966 22.898 19.8619 22.3306 20.5608 22.3306C21.2588 22.3306 21.8241 22.898 21.8241 23.596ZM33.6399 30.6711C33.0577 30.6711 32.5878 30.2002 32.5878 29.618C32.5878 29.0363 33.0577 28.5663 33.6399 28.5663C34.2221 28.5663 34.6915 29.0363 34.6915 29.618C34.6915 30.2002 34.2221 30.6711 33.6399 30.6711ZM31.1173 33.9398L31.1133 33.9389C31.1173 33.8953 31.4091 33.1706 31.4957 32.9461C32.1006 31.3904 32.2737 31.1089 32.8218 31.0921C33.3708 31.0758 33.6369 31.0861 33.6369 31.0861C33.6369 31.0861 33.8852 31.0767 34.3012 31.0861C34.7172 31.098 35.149 31.0921 35.3864 31.7846C35.4636 32.0107 36.121 33.6228 36.1338 33.6628L36.1299 33.6668C36.207 33.7746 36.2283 33.9176 36.1729 34.0506C36.0873 34.2549 35.8534 34.3514 35.6511 34.2663C35.5912 34.2421 35.3968 33.6836 35.3968 33.6836L34.9482 32.4346C34.9482 32.4346 34.8819 32.3446 34.8819 32.4707V36.7649C34.8819 37.0636 34.6386 37.3045 34.3408 37.3045C34.042 37.3045 33.8002 37.0636 33.8002 36.7649V35.0701C33.8002 35.0701 33.8298 34.8307 33.6369 34.8307C33.4435 34.8307 33.4747 35.0701 33.4747 35.0701V36.7649C33.4747 37.0636 33.2338 37.3045 32.935 37.3045C32.6358 37.3045 32.3954 37.0636 32.3954 36.7649H32.3929V32.4707C32.3929 32.3446 32.2935 32.4667 32.2935 32.4667L31.7217 34.2906C31.7217 34.2906 31.5605 34.5705 31.2706 34.4375C31.0238 34.3237 31.0658 34.063 31.1173 33.9398ZM10.5351 22.895C10.5351 23.6326 9.93614 24.2301 9.19914 24.2301C8.46263 24.2301 7.8661 23.6326 7.8661 22.895C7.8661 22.157 8.46263 21.5594 9.19914 21.5594C9.93614 21.5594 10.5351 22.157 10.5351 22.895ZM14.6584 30.6711C14.0767 30.6711 13.6068 30.2002 13.6068 29.618C13.6068 29.0363 14.0767 28.5663 14.6584 28.5663C15.2406 28.5663 15.71 29.0363 15.71 29.618C15.71 30.2002 15.2406 30.6711 14.6584 30.6711Z" fill="white"/>
<path d="M9.76123 7.66768V4.16992H10.206L11.0566 6.16494V4.16992H11.5834V7.66768H11.1602L10.3053 5.57766V7.66768H9.76123Z" fill="white"/>
<path d="M13.0394 7.71511C12.7932 7.71511 12.5946 7.66761 12.4478 7.57692C12.301 7.48624 12.1974 7.35238 12.1326 7.17965C12.0678 7.00692 12.0376 6.80396 12.0376 6.56646V5.25804C12.0376 5.02054 12.0678 4.8219 12.1326 4.65349C12.1974 4.48508 12.301 4.35553 12.4478 4.26485C12.5946 4.17416 12.7932 4.13098 13.0394 4.13098C13.2941 4.13098 13.4927 4.17416 13.6352 4.26485C13.782 4.35553 13.8857 4.48508 13.9504 4.65349C14.0152 4.8219 14.0498 5.02054 14.0498 5.25804V6.57078C14.0498 6.80396 14.0152 7.00692 13.9504 7.17965C13.8857 7.34806 13.782 7.48192 13.6352 7.57692C13.4927 7.66761 13.2941 7.71511 13.0394 7.71511ZM13.0394 7.24442C13.1473 7.24442 13.225 7.22283 13.2725 7.17533C13.3243 7.12783 13.3589 7.06737 13.3762 6.98533C13.3934 6.90328 13.4021 6.81692 13.4021 6.72192V5.11122C13.4021 5.0119 13.3934 4.92553 13.3762 4.84781C13.3589 4.77008 13.3243 4.70962 13.2725 4.66644C13.225 4.61894 13.1473 4.59735 13.0394 4.59735C12.94 4.59735 12.8623 4.61894 12.8105 4.66644C12.7587 4.70962 12.7242 4.77008 12.7069 4.84781C12.6896 4.92553 12.681 5.0119 12.681 5.11122V6.72192C12.681 6.81692 12.6896 6.90328 12.7026 6.98533C12.7198 7.06737 12.7544 7.12783 12.8062 7.17533C12.858 7.22283 12.9357 7.24442 13.0394 7.24442Z" fill="white"/>
<path d="M9.76123 13.3839V9.88611H10.7889C11.0005 9.88611 11.1689 9.92497 11.2984 10.0027C11.4323 10.0804 11.5273 10.1927 11.5877 10.3438C11.6525 10.4907 11.6827 10.6677 11.6827 10.8793C11.6827 11.1082 11.6439 11.2895 11.5661 11.432C11.4884 11.5702 11.3805 11.6695 11.238 11.7343C11.0998 11.7991 10.9357 11.8293 10.7457 11.8293H10.4003V13.3839H9.76123ZM10.4003 11.3802H10.6421C10.7587 11.3802 10.845 11.3629 10.9098 11.3327C10.9746 11.2982 11.0221 11.2463 11.0437 11.1729C11.0696 11.0995 11.0825 11.0002 11.0825 10.875C11.0825 10.7498 11.0739 10.6461 11.0523 10.5684C11.035 10.4863 10.9962 10.4302 10.9314 10.3913C10.8709 10.3525 10.7759 10.3352 10.6421 10.3352H10.4003V11.3802Z" fill="white"/>
<path d="M12.9617 13.4314C12.7156 13.4314 12.517 13.3839 12.3702 13.2932C12.2234 13.2025 12.1197 13.0686 12.055 12.8959C11.9902 12.7232 11.96 12.5202 11.96 12.2827V10.9743C11.96 10.7368 11.9902 10.5381 12.055 10.3697C12.1197 10.2013 12.2234 10.0718 12.3702 9.98109C12.517 9.89041 12.7156 9.84723 12.9617 9.84723C13.2165 9.84723 13.4151 9.89041 13.5576 9.98109C13.7044 10.0718 13.808 10.2013 13.8728 10.3697C13.9376 10.5381 13.9721 10.7368 13.9721 10.9743V12.287C13.9721 12.5202 13.9376 12.7232 13.8728 12.8959C13.808 13.0643 13.7044 13.1982 13.5576 13.2932C13.4151 13.3839 13.2165 13.4314 12.9617 13.4314ZM12.9617 12.9607C13.0697 12.9607 13.1474 12.9391 13.1949 12.8916C13.2467 12.8441 13.2813 12.7836 13.2985 12.7016C13.3158 12.6195 13.3244 12.5332 13.3244 12.4382V10.8275C13.3244 10.7281 13.3158 10.6418 13.2985 10.5641C13.2813 10.4863 13.2467 10.4259 13.1949 10.3827C13.1474 10.3352 13.0697 10.3136 12.9617 10.3136C12.8624 10.3136 12.7847 10.3352 12.7329 10.3827C12.6811 10.4259 12.6465 10.4863 12.6292 10.5641C12.612 10.6418 12.6033 10.7281 12.6033 10.8275V12.4382C12.6033 12.5332 12.612 12.6195 12.6249 12.7016C12.6422 12.7836 12.6767 12.8441 12.7286 12.8916C12.7804 12.9391 12.8581 12.9607 12.9617 12.9607Z" fill="white"/>
<path d="M14.9402 13.3839L14.2363 9.88611H14.802L15.264 12.3605L15.6958 9.88611H16.2744L15.5706 13.3839H14.9402Z" fill="white"/>
<path d="M16.6077 13.3839V9.88611H18.0758V10.3352H17.2467V11.3413H17.8987V11.7861H17.2467V12.9434H18.0844V13.3839H16.6077Z" fill="white"/>
<path d="M18.4309 13.3839V9.88611H19.2686C19.5061 9.88611 19.7047 9.91634 19.8645 9.97247C20.0285 10.0286 20.1538 10.1236 20.2358 10.2575C20.3222 10.3913 20.3653 10.577 20.3653 10.8102C20.3653 10.9527 20.3524 11.0779 20.3265 11.1902C20.3006 11.3025 20.2574 11.3975 20.1926 11.4795C20.1322 11.5573 20.0458 11.6177 19.9379 11.6609L20.4258 13.3839H19.7867L19.3636 11.7818H19.07V13.3839H18.4309ZM19.07 11.3802H19.2686C19.3938 11.3802 19.4888 11.3629 19.5622 11.3284C19.6356 11.2895 19.6917 11.2334 19.722 11.1557C19.7522 11.0736 19.7695 10.9743 19.7695 10.8491C19.7695 10.672 19.7349 10.5425 19.6702 10.4561C19.6054 10.3654 19.4845 10.3222 19.3031 10.3222H19.07V11.3802Z" fill="white"/>
<path d="M21.1176 13.3839V10.3568H20.5605V9.88611H22.305V10.3568H21.7566V13.3839H21.1176Z" fill="white"/>
<path d="M23.0873 13.3839V12.0495L22.3792 9.88611H22.975L23.4068 11.2723L23.8127 9.88611H24.3956L23.6961 12.0495V13.3839H23.0873Z" fill="white"/>
</svg>
