<svg width="24" height="25" viewBox="0 0 24 25" fill="none" xmlns="http://www.w3.org/2000/svg">
<rect x="-0.5" y="0.5" width="23" height="23" rx="11.5" transform="matrix(-1 0 0 1 23 0.5)" fill="white"/>
<rect x="-0.5" y="0.5" width="23" height="23" rx="11.5" transform="matrix(-1 0 0 1 23 0.5)" stroke="url(#paint0_linear_7330_37791)"/>
<path d="M17.52 6.5H6.48C6.2145 6.5 6 6.7145 6 6.98V18.02C6 18.2855 6.2145 18.5 6.48 18.5H17.52C17.7855 18.5 18 18.2855 18 18.02V6.98C18 6.7145 17.7855 6.5 17.52 6.5ZM9.5595 16.7255H7.779V10.9985H9.5595V16.7255ZM8.67 10.2155C8.46589 10.2155 8.26636 10.155 8.09665 10.0416C7.92694 9.92818 7.79467 9.767 7.71656 9.57843C7.63845 9.38986 7.61801 9.18236 7.65783 8.98217C7.69765 8.78198 7.79594 8.59809 7.94027 8.45377C8.08459 8.30944 8.26848 8.21115 8.46867 8.17133C8.66886 8.13151 8.87636 8.15195 9.06493 8.23006C9.2535 8.30817 9.41468 8.44044 9.52808 8.61015C9.64147 8.77986 9.702 8.97939 9.702 9.1835C9.7005 9.7535 9.2385 10.2155 8.67 10.2155ZM16.2255 16.7255H14.4465V13.94C14.4465 13.2755 14.4345 12.422 13.521 12.422C12.5955 12.422 12.453 13.145 12.453 13.892V16.7255H10.6755V10.9985H12.3825V11.7815H12.4065C12.6435 11.3315 13.224 10.856 14.091 10.856C15.894 10.856 16.2255 12.0425 16.2255 13.5845V16.7255Z" fill="#090909"/>
<defs>
<linearGradient id="paint0_linear_7330_37791" x1="1.52" y1="7.33336" x2="23.2143" y2="7.4006" gradientUnits="userSpaceOnUse">
<stop stop-color="#39B6D8"/>
<stop offset="0.5" stop-color="#F7D344"/>
<stop offset="1" stop-color="#E38330"/>
</linearGradient>
</defs>
</svg>
