<svg width="40" height="40" viewBox="0 0 40 40" fill="none" xmlns="http://www.w3.org/2000/svg">
<rect x="0.5" y="0.5" width="39" height="39" rx="19.5" fill="black" fill-opacity="0.15"/>
<rect x="0.5" y="0.5" width="39" height="39" rx="19.5" stroke="url(#paint0_linear_3875_2530)"/>
<path d="M27 20.0003C27.0004 20.1701 26.9569 20.3371 26.8736 20.485C26.7904 20.633 26.6703 20.7569 26.525 20.8447L17.52 26.3534C17.3682 26.4464 17.1943 26.4972 17.0163 26.5005C16.8383 26.5037 16.6627 26.4595 16.5075 26.3722C16.3538 26.2863 16.2258 26.161 16.1366 26.0091C16.0474 25.8573 16.0003 25.6845 16 25.5084V14.4922C16.0003 14.3161 16.0474 14.1433 16.1366 13.9915C16.2258 13.8397 16.3538 13.7144 16.5075 13.6284C16.6627 13.5412 16.8383 13.4969 17.0163 13.5002C17.1943 13.5035 17.3682 13.5542 17.52 13.6472L26.525 19.1559C26.6703 19.2437 26.7904 19.3676 26.8736 19.5156C26.9569 19.6636 27.0004 19.8305 27 20.0003Z" fill="white"/>
<defs>
<linearGradient id="paint0_linear_3875_2530" x1="9.9686e-08" y1="33.75" x2="40.0137" y2="34.624" gradientUnits="userSpaceOnUse">
<stop stop-color="#39B5D7"/>
<stop offset="0.502211" stop-color="#F7D544"/>
<stop offset="1" stop-color="#E38330"/>
</linearGradient>
</defs>
</svg>
