<svg width="64" height="64" viewBox="0 0 64 64" fill="none" xmlns="http://www.w3.org/2000/svg">
<circle cx="32" cy="32" r="31" fill="white" stroke="#E5E5E5" stroke-width="2"/>
<path d="M41.75 35.75H41V26.75C41 26.1533 40.7629 25.581 40.341 25.159C39.919 24.7371 39.3467 24.5 38.75 24.5H25.25C24.6533 24.5 24.081 24.7371 23.659 25.159C23.2371 25.581 23 26.1533 23 26.75V35.75H22.25C22.0511 35.75 21.8603 35.829 21.7197 35.9697C21.579 36.1103 21.5 36.3011 21.5 36.5V38C21.5 38.5967 21.7371 39.169 22.159 39.591C22.581 40.0129 23.1533 40.25 23.75 40.25H40.25C40.8467 40.25 41.419 40.0129 41.841 39.591C42.2629 39.169 42.5 38.5967 42.5 38V36.5C42.5 36.3011 42.421 36.1103 42.2803 35.9697C42.1397 35.829 41.9489 35.75 41.75 35.75ZM30.5 26.75H33.5C33.6989 26.75 33.8897 26.829 34.0303 26.9697C34.171 27.1103 34.25 27.3011 34.25 27.5C34.25 27.6989 34.171 27.8897 34.0303 28.0303C33.8897 28.171 33.6989 28.25 33.5 28.25H30.5C30.3011 28.25 30.1103 28.171 29.9697 28.0303C29.829 27.8897 29.75 27.6989 29.75 27.5C29.75 27.3011 29.829 27.1103 29.9697 26.9697C30.1103 26.829 30.3011 26.75 30.5 26.75ZM41 38C41 38.1989 40.921 38.3897 40.7803 38.5303C40.6397 38.671 40.4489 38.75 40.25 38.75H23.75C23.5511 38.75 23.3603 38.671 23.2197 38.5303C23.079 38.3897 23 38.1989 23 38V37.25H41V38Z" fill="#D4D4D4"/>
</svg>
