<svg width="24" height="24" viewBox="0 0 24 24" fill="none" xmlns="http://www.w3.org/2000/svg">
<rect width="24" height="24" rx="12" fill="#E5E5E5"/>
<path d="M18.2837 9.415L7.28 6.04C7.13107 5.99656 6.97407 5.98837 6.82142 6.01607C6.66878 6.04378 6.52467 6.10662 6.4005 6.19963C6.27633 6.29263 6.1755 6.41325 6.10599 6.55195C6.03648 6.69064 6.00019 6.84361 6 6.99875V15.9988C6 16.264 6.10536 16.5183 6.29289 16.7059C6.48043 16.8934 6.73478 16.9988 7 16.9988C7.09562 16.9988 7.19076 16.9851 7.2825 16.9581L12.5 15.3569V15.9988C12.5 16.264 12.6054 16.5183 12.7929 16.7059C12.9804 16.8934 13.2348 16.9988 13.5 16.9988H15.5C15.7652 16.9988 16.0196 16.8934 16.2071 16.7059C16.3946 16.5183 16.5 16.264 16.5 15.9988V14.13L18.2837 13.5831C18.4902 13.5211 18.6712 13.3944 18.8002 13.2216C18.9292 13.0489 18.9992 12.8393 19 12.6238V10.3738C18.9991 10.1583 18.929 9.94884 18.8 9.77623C18.6711 9.60363 18.4901 9.477 18.2837 9.415ZM12.5 14.3113L7 15.9988V6.99875L12.5 8.68625V14.3113ZM15.5 15.9988H13.5V15.05L15.5 14.4363V15.9988ZM18 12.6238H17.9931L13.5 14.0038V8.99375L17.9931 10.3688H18V12.6188V12.6238Z" fill="#090909"/>
</svg>
