<svg width="200" height="35" viewBox="0 0 200 35" fill="none" xmlns="http://www.w3.org/2000/svg">
<g clip-path="url(#clip0_5305_8768)">
<path d="M43.8048 26.431H37.3113V27.9213H37.5242C37.5774 27.7084 37.95 27.2826 38.429 27.2826H39.8661V34.8939H41.3032V27.2826H42.7936C43.2726 27.2826 43.5919 27.5487 43.6452 27.8148V27.8681H43.8581L43.8048 26.431ZM1.49032 25.9519C0.532258 26.91 0 28.2939 0 29.6245C0 31.1681 0.63871 32.5519 1.70323 33.51C2.76774 34.4681 4.20484 35.0003 5.69516 35.0003C6.49355 35.0003 8.0371 34.8407 9.58065 33.9358L9.63387 33.8826L9.79355 31.7536L9.52742 31.7003L9.47419 31.8068C8.35645 34.0955 6.65323 34.0955 5.96129 34.0955C3.03387 34.0955 1.70323 31.6471 1.70323 29.4116C1.70323 27.2294 3.03387 24.9939 5.96129 24.9939C6.86613 24.9939 8.51613 25.3132 9.36774 27.2826L9.42097 27.389L9.6871 27.2826L9.58065 25.1003L9.52742 25.0471C8.14355 24.4616 7.02581 24.1955 5.90806 24.1955C4.09839 24.2487 2.55484 24.8342 1.49032 25.9519ZM11.2306 26.431L11.1774 26.6439C11.2839 26.6971 11.4435 27.0165 11.4435 27.389V34.8407H12.8274V31.0084H13.4129C13.9452 31.0616 14.1581 31.381 14.4774 31.86L14.5306 31.9132L14.6903 32.2326C15.0097 32.7116 15.3823 33.4036 15.8081 34.0423C16.1274 34.5213 16.5 34.7342 16.979 34.8407C17.2984 34.8939 17.9903 34.8939 18.2565 34.7874L18.5758 34.7342L18.6823 34.681L18.2565 34.5745C18.0968 34.5213 17.8306 34.4148 17.4581 33.989C17.2452 33.7229 16.8726 33.1374 16.3403 32.2858L15.8081 31.4342C15.6484 31.2213 15.4355 30.9019 15.0097 30.6358C15.8081 30.3697 16.5532 29.6777 16.5532 28.6132C16.5532 28.2939 16.5 27.7084 15.9677 27.2294C15.4355 26.7503 14.6371 26.4842 13.5194 26.4842L11.2306 26.431ZM13.6258 27.2294C15.0629 27.2826 15.1161 28.5068 15.1161 28.6665C15.1161 29.8906 14.2113 30.3165 13.4661 30.3165H12.8806V27.2826C13.0403 27.2294 13.3065 27.1761 13.6258 27.2294ZM25.5484 26.431V26.6439C25.6548 26.6971 25.7613 27.0165 25.7613 27.2826V34.8407H28.1565C29.7532 34.8407 31.0306 34.3616 31.9355 33.4036C32.6806 32.6052 33.1065 31.5939 33.1065 30.4761C33.1065 29.8374 32.8936 28.8261 32.2548 28.0277C31.4032 26.9632 30.1258 26.3777 28.3694 26.3777L25.5484 26.431ZM27.1984 27.2826H27.9436C28.1565 27.2826 28.6355 27.2826 29.0081 27.3358C31.35 27.7084 31.6161 29.6777 31.6161 30.5294C31.6161 31.2213 31.5097 32.1794 30.9242 32.9777C30.3387 33.7229 29.4339 34.0955 28.2097 34.0955H27.1984V27.2826ZM36.0339 26.431H34.3839V26.6439C34.5435 26.6971 34.65 27.0165 34.65 27.3358V34.8407H36.0339V26.431ZM64.2436 26.431H62.5936V26.6439C62.7532 26.6971 62.8597 27.0165 62.8597 27.3358V34.8407H64.2436V26.431ZM23.7387 26.431H19.0548L19.1081 26.6439C19.2145 26.6971 19.3742 27.0165 19.3742 27.389V34.8407H24.0581L24.3774 33.3503L24.1645 33.2971L24.1113 33.4036C23.7387 33.989 23.3129 34.0955 21.9823 34.0955C21.5032 34.0955 21.0242 34.0423 20.7048 34.0423V30.6358H23.1V29.8374H20.7048V27.2294H22.621C23.0468 27.2294 23.5258 27.6552 23.579 27.9213V27.9745H23.7919L23.7387 26.431ZM83.7774 26.431H79.0936V26.6439C79.2 26.6971 79.3597 26.9632 79.3597 27.389V34.8407H84.0435L84.3629 33.3503L84.15 33.2971L84.0968 33.4036C83.7242 33.989 83.2984 34.0955 81.9677 34.0955C81.4887 34.0955 81.0097 34.0423 80.6903 34.0423V30.6358H83.0855V29.8374H80.6903V27.2294H82.6065C83.1387 27.2294 83.5113 27.6552 83.5113 27.9213V27.9745H83.7242L83.7774 26.431ZM47.9032 24.8874C47.4242 25.26 46.8387 25.8987 46.7855 27.0165V27.0697C46.7855 28.4003 47.6371 29.1455 49.021 29.8374C49.0742 29.8906 49.1806 29.9439 49.5532 30.1036C50.7242 30.689 51.5226 31.1148 51.5226 32.2858C51.5226 32.7116 51.3629 33.2971 50.9371 33.7229C50.5645 34.0955 50.0855 34.2552 49.5 34.2552C47.7435 34.2552 47.1048 32.7116 46.9452 32.0197L46.8919 31.9132L46.5726 31.9665L46.679 34.1487L46.8387 34.0955C47.4242 34.4148 48.329 34.9471 49.7129 35.0003C50.671 35.0003 51.629 34.6277 52.321 33.9358C52.9065 33.3503 53.2258 32.6052 53.2258 31.8068C53.2258 30.0503 51.9484 29.3584 50.6177 28.6665L50.3516 28.5068C48.9677 27.8148 48.329 27.389 48.329 26.5374C48.329 25.9519 48.8081 24.9939 49.979 24.9939C51.3629 24.9939 52.1081 26.0584 52.2677 26.6971L52.321 26.8036L52.6403 26.7503L52.5339 24.8342L52.4806 24.781C51.6823 24.2487 50.671 24.1423 50.2452 24.1423C49.2871 24.1955 48.4887 24.4616 47.9032 24.8874ZM66.5323 28.56C66.5323 29.731 67.2242 30.3165 68.3419 30.9019L68.7677 31.1148C69.6726 31.5406 70.2581 31.86 70.2581 32.7116C70.2581 32.8713 70.2048 33.3503 69.8323 33.7761C69.5661 34.0423 69.1936 34.2019 68.7145 34.1487C67.3839 34.1487 66.9048 33.0842 66.6919 32.4987L66.6387 32.3923L66.3726 32.4455L66.4258 34.2019L66.479 34.2552C66.9048 34.5213 67.65 34.9471 68.7677 34.9471C69.5129 34.9471 70.3113 34.6277 70.8436 34.0955C71.3226 33.6165 71.5355 33.031 71.5355 32.3923C71.5355 30.9019 70.5242 30.3697 69.4597 29.8374L69.2468 29.731C68.0758 29.1455 67.7032 28.8794 67.7032 28.2407C67.7032 27.7616 68.0226 27.1229 68.9807 27.1229C70.0984 27.1229 70.5774 27.9745 70.6839 28.4003L70.7371 28.5068L71.0032 28.4536L70.8968 26.91L70.8436 26.8568C70.2048 26.431 69.4065 26.3777 69.0871 26.3777C67.8629 26.3777 66.5323 27.1229 66.5323 28.56ZM72.8129 28.56C72.8129 29.731 73.5048 30.3165 74.6226 30.9019L75.0484 31.1148C75.9532 31.5406 76.5387 31.86 76.5387 32.7116C76.5387 32.8713 76.4855 33.3503 76.1129 33.7761C75.8468 34.0423 75.4742 34.2019 74.9952 34.1487C73.6645 34.1487 73.1855 33.0842 72.9726 32.4987L72.9194 32.3923L72.6532 32.4455L72.7065 34.2019L72.7597 34.2552C73.1855 34.5213 73.9306 34.9471 75.0484 34.9471C75.7936 34.9471 76.5919 34.6277 77.1242 34.0955C77.6032 33.6165 77.8161 33.031 77.8161 32.3923C77.8161 30.9019 76.8048 30.3697 75.7403 29.8374L75.5274 29.731C74.3565 29.1455 73.9839 28.8794 73.9839 28.2407C73.9839 27.9745 74.0903 27.6552 74.3032 27.4423C74.5161 27.2294 74.8355 27.1229 75.2081 27.1229C76.3258 27.1229 76.8048 27.9745 76.9113 28.4003L76.9645 28.5068L77.2307 28.4536L77.1242 26.91L77.071 26.8568C76.4323 26.431 75.6339 26.3777 75.3145 26.3777C74.1968 26.3777 72.8129 27.1229 72.8129 28.56ZM60.7839 26.431H59.6661V26.6439C59.7194 26.6971 59.879 26.8036 59.879 27.3358V32.1261C59.879 33.031 59.5597 34.1487 57.9097 34.1487C56.3661 34.1487 56.0468 33.2439 56.0468 31.86V26.431H54.2903V26.6439C54.3968 26.6971 54.6097 26.91 54.6097 27.389V31.86C54.6097 34.6277 56.4194 34.9471 57.8032 34.9471C58.4952 34.9471 60.6774 34.7342 60.6774 32.1261L60.7839 26.431ZM95.8597 24.0358C96.871 24.3552 97.8823 24.781 99 25.4197C96.2855 20.9487 91.4952 16.1052 86.7581 12.9648C87.9823 14.189 89.9516 16.8503 90.4839 19.6713C92.4 21.0552 94.2097 22.5455 95.8597 24.0358ZM95.8597 24.0358C93.5178 23.2907 91.5484 23.2374 90.1113 23.3971C90.6436 22.1729 90.6968 20.8955 90.4839 19.6713C86.9177 17.1165 82.9258 14.881 79.1468 13.231C81.9145 15.0939 85.0016 20.5761 86.279 26.431C89.0468 25.6326 93.2516 25.0471 98.7339 26.91C97.829 25.9519 96.871 24.9939 95.8597 24.0358Z" fill="white"/>
</g>
<defs>
<clipPath id="clip0_5305_8768">
<rect width="200" height="35" fill="white"/>
</clipPath>
</defs>
</svg>
