<svg width="200" height="35" viewBox="0 0 200 35" fill="none" xmlns="http://www.w3.org/2000/svg">
<g style="mix-blend-mode:luminosity">
<path d="M20.8639 0.0573769C20.7322 0.0947151 20.4219 0.132053 20.1774 0.141388C19.1995 0.160057 16.0399 0.953491 14.8927 1.45755C14.7892 1.50423 14.4977 1.62558 14.2344 1.72826C13.548 1.98962 11.7331 2.8484 11.451 3.05376C11.3194 3.13777 11.1031 3.24978 10.962 3.27779C10.821 3.31512 10.7081 3.38046 10.7081 3.4178C10.7081 3.45514 10.6329 3.51115 10.5483 3.54849C10.4543 3.57649 10.2568 3.6885 10.0969 3.79118C9.94646 3.89386 9.72078 4.01521 9.59854 4.07122C9.47629 4.11789 9.24121 4.26724 9.07194 4.39793C8.90268 4.52861 8.73342 4.63129 8.70521 4.63129C8.48893 4.63129 5.46102 6.81557 4.6053 7.581C3.90945 8.20641 2.62118 9.56925 2.62118 9.68126C2.62118 9.70927 2.53654 9.83995 2.4237 9.9613C2.1416 10.2787 1.29529 11.6042 1.0508 12.0989C0.947361 12.3323 0.740485 12.743 0.608836 13.023C0.148067 13.9565 -0.0400018 14.9739 0.00701542 16.1594C0.0634361 17.3262 0.326733 17.933 1.12603 18.7357C1.96293 19.5665 2.85626 19.9306 4.26678 20.0052C5.23533 20.0519 5.93119 19.9772 6.89975 19.7065C7.21006 19.6225 7.62381 19.5198 7.82128 19.4638C8.01876 19.4172 8.24444 19.3425 8.33847 19.2865C8.55475 19.1745 9.7678 18.6331 9.82422 18.6331C9.99348 18.6331 11.9776 17.4289 13.8113 16.2154C15.0243 15.4127 16.0869 14.7126 16.181 14.6659C16.2656 14.6099 16.8392 14.2738 17.4504 13.9098C18.0616 13.5551 18.8139 13.1257 19.1242 12.967C19.4345 12.8083 19.8765 12.575 20.1116 12.4536C20.3467 12.3416 20.7886 12.1362 21.099 12.0242C21.4093 11.9029 21.7948 11.7442 21.9453 11.6789C22.1051 11.6135 22.3308 11.5108 22.4625 11.4548C22.8292 11.3055 23.6567 11.1561 24.4654 11.1001C26.2144 10.9881 27.4369 11.7535 28.0669 13.3591C28.2174 13.7418 28.2456 14.0592 28.2456 15.1793C28.2456 16.5421 28.1233 17.2889 27.7566 18.1663C27.6814 18.3437 27.5779 18.5957 27.5215 18.7264C27.0513 19.8466 26.0828 21.4521 24.9732 22.9083C23.92 24.3084 21.6538 26.6327 20.1586 27.8556C19.6414 28.285 19.0678 28.7517 18.8891 28.901C18.4942 29.2277 18.0334 29.5544 17.5256 29.8905C17.3188 30.0212 16.9802 30.2452 16.7734 30.3946C16.1904 30.7866 14.6388 31.608 13.7643 31.9814C13.5104 32.0934 13.1624 32.2428 12.9932 32.3175C12.8333 32.3921 12.617 32.4481 12.5136 32.4481C12.4196 32.4481 12.2033 32.4948 12.034 32.5508C11.4228 32.7655 10.8022 32.3548 10.8022 31.7294C10.8022 30.964 11.1689 30.4786 13.4822 28.2009C15.9835 25.7366 16.2562 25.3726 16.2562 24.4391C16.2562 23.4777 15.7954 22.8243 14.761 22.3015C14.3097 22.0682 14.1404 22.0402 13.3505 22.0402C12.429 22.0402 11.893 22.1708 11.2253 22.5722C11.0749 22.6656 10.8398 22.7869 10.7081 22.8523C10.5765 22.9176 10.4543 22.9923 10.426 23.0203C10.3978 23.0483 10.2098 23.1883 10.0029 23.347C9.5045 23.7204 8.62998 24.6072 8.1316 25.2512C7.78367 25.6993 7.52978 26.1193 6.93736 27.2208C6.44838 28.1356 6.00642 29.8345 6.00642 30.8239C6.00642 32.8309 7.0596 34.4364 8.6864 34.8938C9.17538 35.0338 11.1689 35.0338 11.8554 34.9031C12.5324 34.7631 14.3003 34.2217 14.4131 34.119C14.4695 34.0724 14.5636 34.035 14.6388 34.035C14.8833 34.035 17.6761 32.6255 18.6353 32.0094C18.8515 31.8694 19.096 31.7107 19.1901 31.6547C19.2747 31.608 19.7167 31.3373 20.1774 31.0573C20.6288 30.7773 21.0237 30.5159 21.0519 30.4879C21.0802 30.4506 21.3999 30.2172 21.7572 29.9745C22.1239 29.7225 22.5471 29.4331 22.6975 29.3304C22.8574 29.2184 23.2994 28.8824 23.6849 28.5743C26.1298 26.6421 28.2926 24.5792 29.5527 22.9736C29.7595 22.7216 29.9476 22.4882 29.9758 22.4602C30.051 22.4042 30.6905 21.4894 31.1324 20.7987C31.3299 20.5093 31.6308 19.9959 31.8001 19.6599C31.9788 19.3238 32.2232 18.8664 32.3455 18.6331C32.4677 18.3997 32.731 17.793 32.9379 17.2796C33.1354 16.7662 33.3329 16.2621 33.3705 16.1594C33.6338 15.4967 34.0381 13.7885 34.2168 12.5656C34.4142 11.1841 34.2638 8.91583 33.8783 7.66501C33.7184 7.15161 33.6808 7.05826 33.3329 6.3115C32.5806 4.70597 31.3769 3.24978 29.9946 2.29766C29.8066 2.16698 29.5715 1.98962 29.468 1.88694C29.1295 1.58824 27.4087 0.822807 26.4025 0.533436C25.8665 0.374752 25.0672 0.20673 24.6253 0.141388C23.6097 0.010704 21.1742 -0.0546379 20.8639 0.0573769Z" fill="white"/>
<path d="M95.3545 15.7871C95.3305 15.803 94.9621 15.8746 94.5216 15.9461C94.0812 16.0097 93.3605 16.129 92.92 16.2085L92.1192 16.3436V23.6571C92.1192 31.5985 92.1032 31.2646 92.5757 32.2583C92.7358 32.6002 92.9601 32.8943 93.3044 33.2043C94.1533 33.9754 94.9461 34.2139 96.6358 34.2218C98.0772 34.2218 98.0212 34.2775 97.9892 32.9579L97.9651 32.0039L97.3485 31.9483C96.2514 31.8529 95.7229 31.4157 95.6027 30.5095C95.5707 30.2392 95.5467 26.8368 95.5547 22.9575C95.5627 16.2403 95.5467 15.5964 95.3545 15.7871Z" fill="white"/>
<path d="M73.1808 15.9455C71.403 16.2079 70.8104 16.3192 70.7384 16.4066C70.6823 16.4702 70.6743 19.0061 70.6983 23.8552C70.7384 30.6281 70.7544 31.2402 70.8825 31.5661C71.1868 32.3372 71.347 32.6075 71.7554 33.0129C72.5962 33.8476 73.6693 34.1895 75.4311 34.1895C76.4081 34.1895 76.5442 34.1736 76.6083 34.0464C76.6884 33.8953 76.7284 32.5121 76.6644 32.1941C76.6163 31.9954 76.5843 31.9875 75.9837 31.9398C75.2229 31.8921 74.7745 31.6377 74.4621 31.0892L74.2619 30.7315L74.2379 26.6137C74.2219 23.5452 74.2379 22.4641 74.31 22.3766C74.3821 22.2892 74.6543 22.2653 75.5112 22.2653C76.8325 22.2653 76.7204 22.3925 76.6884 20.8742L76.6644 19.8408L75.5432 19.801C74.9266 19.7772 74.374 19.7295 74.326 19.6977C74.2459 19.65 74.2219 19.1651 74.2219 17.7262V15.8263L74.0457 15.8343C73.9416 15.8422 73.5572 15.8899 73.1808 15.9455Z" fill="white"/>
<path d="M45.4317 19.5309C44.8311 19.5865 43.3896 19.9284 42.9492 20.1192C42.8611 20.1589 42.7009 20.2146 42.5888 20.2464C42.2365 20.3417 41.0673 20.9221 41.0673 21.0015C41.0673 21.0413 41.1393 21.2241 41.2194 21.4149C41.748 22.5676 41.9482 22.9809 41.9882 22.9809C42.0122 22.9809 42.0923 22.9492 42.1724 22.9094C42.5808 22.7027 43.0773 22.504 43.4697 22.3847C43.71 22.3132 43.9982 22.2178 44.1104 22.1781C44.5588 22.0191 45.752 21.9396 46.3046 22.027C47.3937 22.2019 47.7941 22.7027 47.8582 23.9826C47.8902 24.6901 47.8902 24.706 47.706 24.7537C47.6019 24.7855 46.8652 24.8093 46.0723 24.8093C44.1664 24.8093 43.5818 24.9206 42.3486 25.5168C41.2915 26.0256 40.5067 26.9875 40.1303 28.2276C39.9381 28.8874 39.9622 30.1195 40.1784 30.7714C40.8991 32.9336 42.6128 34.1976 44.9993 34.3248C47.1695 34.444 49.4037 33.8001 50.8372 32.6554L51.3577 32.2341L51.3817 28.0288C51.4058 23.1558 51.3977 22.9889 50.8051 21.7965C50.5409 21.2559 49.652 20.3974 49.0994 20.1589C48.8432 20.0397 48.5629 19.9204 48.4748 19.8807C47.8742 19.6183 46.3526 19.4435 45.4317 19.5309ZM47.7941 27.1941C47.8421 27.2577 47.8742 28.2037 47.8742 29.3484C47.8742 31.6061 47.9062 31.463 47.3136 31.773C47.0894 31.8922 46.8411 31.9161 46.0643 31.924H45.0954L44.695 31.6538C44.4787 31.5107 44.2225 31.2722 44.1344 31.1371C43.5418 30.2785 43.5818 28.7443 44.2065 27.9891C44.3906 27.7585 45.0954 27.2736 45.2235 27.2736C45.3036 27.2736 45.3917 27.2418 45.4397 27.2021C45.5518 27.0828 45.9202 27.0511 46.8571 27.0669C47.5298 27.0749 47.738 27.0987 47.7941 27.1941Z" fill="white"/>
<path d="M65.4123 19.7215C63.8187 20.0952 62.5454 20.7709 61.2641 21.9315L60.9277 22.2335V28.0366C60.9277 31.2243 60.9277 33.8953 60.9277 33.9748C60.9277 34.102 61.0479 34.11 62.6735 34.0941L64.4113 34.0702L64.4353 28.5295L64.4513 22.9967L64.7556 22.7582C65.116 22.472 65.2922 22.3846 65.7566 22.2256C66.3092 22.0428 67.1741 21.9553 67.8227 22.0269C68.1431 22.0587 68.4474 22.0746 68.4954 22.0507C68.5515 22.0348 68.6956 21.7645 68.8237 21.4466C68.9439 21.1286 69.1361 20.7152 69.2322 20.5244C69.4964 20.0236 69.4724 19.8964 69.12 19.8169C68.9519 19.7772 68.6476 19.7056 68.4313 19.6579C67.8628 19.5148 66.125 19.5546 65.4123 19.7215Z" fill="white"/>
<path d="M82.8296 19.7372C82.5653 19.777 82.317 19.8485 82.277 19.8883C82.229 19.928 82.1489 19.9598 82.0848 19.9598C82.0207 19.9598 81.7325 20.0711 81.4522 20.2142C80.8355 20.5163 79.8906 21.3827 79.4902 22.0266C79.1378 22.5911 78.7294 23.4337 78.6653 23.7358C78.6333 23.863 78.5853 24.0458 78.5452 24.1332C78.5132 24.2207 78.4171 24.5625 78.337 24.8884C78.1208 25.747 78.1208 28.4975 78.329 29.3004C78.5212 30.0397 78.9536 31.1685 79.0337 31.1685C79.0738 31.1685 79.1058 31.2082 79.1058 31.2559C79.1058 31.558 80.0588 32.7584 80.7314 33.2989C81.0277 33.5374 81.6924 33.8792 82.1889 34.0462C82.7255 34.229 83.9107 34.4277 84.4392 34.4277C85.5763 34.4277 87.6264 33.9428 88.3071 33.5136C88.4673 33.4182 88.6835 33.3069 88.7956 33.2751C89.0359 33.2035 89.5644 32.8776 89.6285 32.7663C89.7005 32.655 88.8036 30.8505 88.6835 30.8505C88.6274 30.8505 88.4833 30.922 88.3712 31.0095C88.2591 31.0969 88.1229 31.1685 88.0589 31.1685C88.0028 31.1685 87.8827 31.2162 87.7946 31.2798C87.7065 31.3354 87.2901 31.5023 86.8737 31.6454C86.1609 31.8919 86.0408 31.9078 84.9918 31.9157C83.9987 31.9157 83.8306 31.8998 83.5103 31.7488C82.3891 31.2162 81.7485 29.8727 81.7485 28.0603C81.7485 27.6707 81.7565 27.3448 81.7725 27.3369C81.7805 27.321 83.5583 27.2971 85.7125 27.2733L89.6365 27.2335L89.6124 26.4386C89.5644 24.8805 89.148 22.7818 88.7876 22.3049C88.7556 22.2572 88.6435 22.0584 88.5394 21.8597C88.1069 21.0091 87.194 20.2778 86.1129 19.9201C85.3201 19.6498 83.8706 19.5703 82.8296 19.7372ZM84.5513 22.2651C84.8877 22.3526 85.5924 22.917 85.5924 23.0919C85.5924 23.1396 85.6484 23.2827 85.7125 23.4019C85.8967 23.7596 86.0408 24.9361 85.9127 25.0872C85.8326 25.1905 85.5203 25.2064 83.9027 25.2064H81.9887L81.9407 25.0077C81.8366 24.6023 82.1168 23.5132 82.4372 23.0919C82.7895 22.6229 83.1018 22.3844 83.5663 22.2492C83.8226 22.1777 84.0708 22.13 84.1269 22.1459C84.1749 22.1618 84.3671 22.2174 84.5513 22.2651Z" fill="white"/>
<path d="M55.2413 14.1409C54.6326 14.4509 54.4485 14.602 54.1842 14.9915C53.9279 15.381 53.9199 15.4128 53.9199 16.2236V17.0663L54.2242 17.4796C54.5846 17.9646 54.8248 18.1394 55.3534 18.3223C56.0661 18.5528 56.6827 18.4654 57.3954 18.0202C58.2523 17.4796 58.5486 16.0964 58.0281 15.0789C57.8439 14.7212 57.6837 14.5543 57.2033 14.2522C56.7708 13.9739 55.6737 13.9104 55.2413 14.1409Z" fill="white"/>
<path d="M57.2037 19.8799C57.0756 19.9197 56.7152 19.9912 56.4029 20.031C56.0986 20.0707 55.538 20.1502 55.1616 20.2058C54.7853 20.2535 54.4569 20.3251 54.4169 20.3489C54.3448 20.4125 54.3368 33.9186 54.4009 34.0378C54.4329 34.0776 55.1456 34.1094 56.0826 34.1094C57.7162 34.1094 57.7242 34.1094 57.7643 33.9265C57.7883 33.8311 57.7963 30.6196 57.7883 26.7959C57.7643 19.9038 57.7643 19.8402 57.6041 19.8243C57.516 19.8163 57.3398 19.8402 57.2037 19.8799Z" fill="white"/>
</g>
</svg>
