<svg width="52" height="52" viewBox="0 0 52 52" fill="none" xmlns="http://www.w3.org/2000/svg">
<rect x="0.75" y="0.75" width="50.5" height="50.5" rx="25.25" stroke="#404040" stroke-width="1.5"/>
<path d="M26 26.75C26 26.9489 25.921 27.1397 25.7803 27.2803C25.6397 27.421 25.4489 27.5 25.25 27.5H20.75C20.5511 27.5 20.3603 27.421 20.2197 27.2803C20.079 27.1397 20 26.9489 20 26.75C20 26.5511 20.079 26.3603 20.2197 26.2197C20.3603 26.079 20.5511 26 20.75 26H25.25C25.4489 26 25.6397 26.079 25.7803 26.2197C25.921 26.3603 26 26.5511 26 26.75ZM25.25 23H20.75C20.5511 23 20.3603 23.079 20.2197 23.2197C20.079 23.3603 20 23.5511 20 23.75C20 23.9489 20.079 24.1397 20.2197 24.2803C20.3603 24.421 20.5511 24.5 20.75 24.5H25.25C25.4489 24.5 25.6397 24.421 25.7803 24.2803C25.921 24.1397 26 23.9489 26 23.75C26 23.5511 25.921 23.3603 25.7803 23.2197C25.6397 23.079 25.4489 23 25.25 23ZM35.75 29.1378V35C35.7512 35.1322 35.7174 35.2624 35.6521 35.3774C35.5867 35.4923 35.4922 35.588 35.3779 35.6546C35.2637 35.7212 35.1339 35.7565 35.0017 35.7568C34.8695 35.757 34.7395 35.7224 34.625 35.6563L32.375 34.3681L30.125 35.6563C30.0105 35.7224 29.8805 35.757 29.7483 35.7568C29.6161 35.7565 29.4863 35.7212 29.3721 35.6546C29.2579 35.588 29.1633 35.4923 29.0979 35.3774C29.0326 35.2624 28.9988 35.1322 29 35V32.75H17.75C17.3522 32.75 16.9706 32.592 16.6893 32.3107C16.408 32.0294 16.25 31.6478 16.25 31.25V19.25C16.25 18.8522 16.408 18.4706 16.6893 18.1893C16.9706 17.908 17.3522 17.75 17.75 17.75H34.25C34.6478 17.75 35.0294 17.908 35.3107 18.1893C35.592 18.4706 35.75 18.8522 35.75 19.25V22.1122C36.2241 22.5662 36.6014 23.1115 36.8592 23.7152C37.1169 24.3189 37.2498 24.9686 37.2498 25.625C37.2498 26.2814 37.1169 26.9311 36.8592 27.5348C36.6014 28.1385 36.2241 28.6838 35.75 29.1378ZM29 31.25V29.1378C28.1827 28.3496 27.6662 27.3008 27.5396 26.1724C27.4129 25.044 27.6842 23.9069 28.3065 22.9571C28.9287 22.0073 29.863 21.3046 30.9481 20.9701C32.0332 20.6356 33.201 20.6904 34.25 21.125V19.25H17.75V31.25H29ZM34.25 30.125C33.656 30.3732 33.0187 30.5009 32.375 30.5009C31.7313 30.5009 31.094 30.3732 30.5 30.125V33.7081L32 32.8494C32.1133 32.7846 32.2416 32.7505 32.3722 32.7505C32.5027 32.7505 32.631 32.7846 32.7444 32.8494L34.2444 33.7081L34.25 30.125ZM35.75 25.625C35.75 24.9575 35.5521 24.305 35.1812 23.75C34.8104 23.1949 34.2833 22.7624 33.6666 22.5069C33.0499 22.2515 32.3713 22.1846 31.7166 22.3149C31.0619 22.4451 30.4605 22.7665 29.9885 23.2385C29.5165 23.7105 29.1951 24.3119 29.0649 24.9666C28.9346 25.6213 29.0015 26.2999 29.2569 26.9166C29.5124 27.5333 29.9449 28.0604 30.5 28.4312C31.055 28.8021 31.7075 29 32.375 29C32.8182 29 33.2571 28.9127 33.6666 28.7431C34.076 28.5735 34.4481 28.3249 34.7615 28.0115C35.0749 27.6981 35.3235 27.326 35.4931 26.9166C35.6627 26.5071 35.75 26.0682 35.75 25.625Z" fill="white"/>
</svg>
