<svg width="205" height="55" viewBox="0 0 205 55" fill="none" xmlns="http://www.w3.org/2000/svg">
<path d="M86.3329 20.5029V14.7114C86.3329 9.11421 83.9948 6.54883 79.9496 6.54883C77.5744 6.54883 75.5518 7.32622 73.8261 10.5135C72.8983 7.81208 70.8942 6.54883 68.0922 6.54883C65.5129 6.54883 63.7315 7.65661 62.3212 9.69725L62.4326 7.40396C62.4326 7.20961 62.2841 7.0347 62.08 7.0347H57.0884C56.9028 7.0347 56.7359 7.19017 56.7359 7.40396L56.773 20.5029L56.6616 27.6938C56.6616 27.9076 56.8101 28.0631 57.0142 28.0631H62.3584C62.5439 28.0631 62.7109 27.9076 62.7109 27.6938L62.5996 20.5029V17.5683C62.5996 13.2732 64.5109 11.0382 66.1438 11.0382C67.7768 11.0382 68.7231 12.2626 68.7231 14.7891V20.5029L68.6118 27.6938C68.6118 27.9076 68.7602 28.0631 68.9643 28.0631H74.2343C74.4199 28.0631 74.5869 27.9076 74.5869 27.6938L74.4755 20.5029V17.5683C74.4755 13.2732 76.4239 11.0382 78.0198 11.0382C79.6156 11.0382 80.5991 12.2626 80.5991 14.7891V20.5029L80.4877 27.6938C80.4877 27.9076 80.6362 28.0631 80.8403 28.0631H86.1102C86.2958 28.0631 86.4628 27.9076 86.4628 27.6938L86.3329 20.5029Z" fill="white"/>
<path d="M107.866 7.92192C107.866 7.70814 107.718 7.55266 107.514 7.55266H102.3C102.095 7.55266 101.947 7.70814 101.947 7.92192L102.058 9.80709C100.704 8.09683 98.7367 7.14453 96.2502 7.14453C90.7947 7.14453 87.436 12.0421 87.436 18.1251C87.436 24.2082 90.4421 28.9891 96.1389 28.9891C98.6811 28.9891 100.667 27.9202 102.058 26.1322L101.984 28.2118C101.984 28.4255 102.133 28.581 102.337 28.581H107.514C107.699 28.581 107.866 28.4255 107.866 28.2118L107.755 18.0863L107.866 7.92192ZM97.7718 24.9079C94.9698 24.9467 93.4111 22.5368 93.4111 17.7948C93.4111 13.4608 94.9327 11.1481 97.9017 11.2258C100.704 11.2647 102.225 13.7135 102.188 18.2029C102.133 22.6534 100.611 24.9079 97.7718 24.9079Z" fill="white"/>
<path d="M115.232 13.3118C115.232 11.5044 116.438 10.7853 118.349 10.7853C120.725 10.7853 121.819 11.8931 122.135 13.681C122.172 13.8948 122.32 14.0503 122.524 14.0503H127.275C127.479 14.0503 127.627 13.8948 127.59 13.681C127.238 9.26937 123.694 7.07324 118.424 7.07324C113.154 7.07324 109.647 9.40541 109.647 13.7782C109.647 22.6016 122.784 18.7146 122.784 22.7182C122.784 24.3507 121.541 25.2836 119.24 25.2836C116.512 25.2836 115.028 24.2535 114.879 21.9019C114.879 21.6881 114.731 21.5327 114.527 21.5327H109.535C109.35 21.5327 109.183 21.6881 109.183 21.9019C109.368 26.6051 113.117 29.0928 118.962 29.0928C124.38 29.0928 128.351 26.6051 128.351 22.1935C128.37 13.234 115.232 17.3153 115.232 13.3118Z" fill="white"/>
<path d="M141.551 11.5028V7.90735C141.551 7.713 141.403 7.53809 141.199 7.53809H128.691C128.506 7.53809 128.339 7.69356 128.339 7.90735V11.5028C128.339 11.7165 128.487 11.872 128.691 11.872H130.955L130.918 22.4056C130.918 27.1866 134.147 28.9746 137.543 28.9746C138.786 28.9746 140.085 28.683 141.217 28.2749C141.366 28.1972 141.533 27.9834 141.533 27.7891V24.524C141.533 24.3685 141.384 24.1936 141.18 24.2325C140.605 24.4463 139.863 24.6018 138.916 24.6018C137.636 24.6018 136.764 24.0382 136.764 22.2307L136.727 11.8526H141.217C141.403 11.872 141.551 11.7165 141.551 11.5028Z" fill="white"/>
<path d="M151.951 7.01465C145.55 7.01465 141.727 11.4263 141.727 18.1119C141.727 24.8168 145.345 29.0925 152.063 29.0925C157.667 29.0925 161.192 25.6525 161.693 21.8239C161.731 21.6101 161.582 21.4546 161.378 21.4546H156.479C156.294 21.4546 156.09 21.6101 156.052 21.8239C155.514 24.0783 154.104 25.0112 152.156 25.0112C149.354 25.0112 147.869 23.2621 147.628 19.2974H161.972C162.157 19.2974 162.324 19.1419 162.324 18.9281C162.213 11.6012 158.539 7.01465 151.951 7.01465ZM147.776 15.4299C148.24 12.5341 149.651 11.0571 151.989 11.0571C154.568 11.0571 155.774 13.1755 155.997 15.4299H147.776Z" fill="white"/>
<path d="M177.409 7.46348C177.131 7.42461 176.816 7.38574 176.519 7.38574C173.587 7.38574 170.896 8.61013 169.337 11.0978L169.486 7.91048C169.486 7.6967 169.337 7.54122 169.133 7.54122H163.993C163.789 7.54122 163.64 7.6967 163.64 7.91048L163.789 18.036L163.64 28.2003C163.64 28.4141 163.789 28.5696 163.993 28.5696H169.133C169.337 28.5696 169.486 28.4141 169.486 28.2003V19.2215C169.448 14.4017 172.529 11.9918 176.667 11.9918C176.908 11.9918 177.168 11.9918 177.409 12.0306C177.595 12.0306 177.762 11.914 177.762 11.7002V7.92991C177.762 7.71613 177.595 7.52179 177.409 7.46348Z" fill="white"/>
<path d="M183.966 13.3118C183.966 11.5044 185.172 10.7853 187.083 10.7853C189.458 10.7853 190.553 11.8931 190.869 13.681C190.906 13.8948 191.073 14.0503 191.258 14.0503H196.009C196.213 14.0503 196.361 13.8948 196.324 13.681C195.972 9.26937 192.427 7.07324 187.157 7.07324C181.888 7.07324 178.38 9.40541 178.38 13.7782C178.38 22.6016 191.518 18.7146 191.518 22.7182C191.518 24.3507 190.275 25.2836 187.974 25.2836C185.246 25.2836 183.762 24.2535 183.613 21.9019C183.613 21.6881 183.465 21.5327 183.261 21.5327H178.269C178.084 21.5327 177.917 21.6881 177.917 21.9019C178.121 26.6051 181.85 29.0928 187.696 29.0928C193.114 29.0928 197.085 26.6051 197.085 22.1935C197.104 13.234 183.966 17.3153 183.966 13.3118Z" fill="white"/>
<path d="M203.767 0H198.812C198.627 0 198.46 0.155477 198.46 0.369259V5.67494L197.253 10.2421C197.216 10.4559 197.365 10.6114 197.532 10.6114H200.222C200.427 10.6114 200.649 10.4947 200.761 10.3198L203.915 5.90815C204.027 5.75267 204.119 5.46115 204.119 5.24737V0.369259C204.119 0.155477 203.971 0 203.767 0Z" fill="white"/>
<path d="M63.4635 54.9537C59.2141 54.9537 56.4492 51.9219 56.4492 46.7911V42.3794L56.375 33.8087C56.375 33.5949 56.5235 33.4395 56.7276 33.4395H61.9418C62.1274 33.4395 62.2944 33.5949 62.2944 33.8087L62.1831 42.3794V46.7134C62.1831 49.0067 63.5006 50.4643 65.2634 50.4643C67.3602 50.4643 69.6241 48.4236 69.6241 43.9342V42.3794L69.5499 33.8087C69.5499 33.5949 69.6983 33.4395 69.9024 33.4395H75.2095C75.3951 33.4395 75.5621 33.5949 75.5621 33.8087L75.4507 43.5261L75.4878 54.0986C75.4878 54.2929 75.3394 54.4678 75.1353 54.4678H70.1808C69.9952 54.4678 69.8282 54.3123 69.8282 54.0986L69.9395 51.8053C68.5664 53.6515 66.2654 54.9537 63.4635 54.9537Z" fill="white"/>
<path d="M77.728 54.4713C77.5425 54.4713 77.3755 54.3158 77.3755 54.102L77.4868 44.3846L77.4497 33.8122C77.4497 33.5984 77.5982 33.4429 77.8023 33.4429H82.7568C82.9423 33.4429 83.1093 33.5984 83.1093 33.8122L82.998 36.1055C84.3712 34.2592 86.6721 32.957 89.4741 32.957C93.7235 32.957 96.4512 35.9888 96.4512 41.1196V45.5313L96.5625 54.102C96.5625 54.3158 96.4141 54.4713 96.21 54.4713H90.9771C90.7916 54.4713 90.6246 54.3158 90.6246 54.102L90.6988 45.5313V41.1974C90.6988 38.9041 89.4184 37.4464 87.6556 37.4464C85.5587 37.4464 83.2949 39.4871 83.2949 43.9765V45.5313L83.3691 54.102C83.3691 54.3158 83.2207 54.4713 83.0166 54.4713H77.728Z" fill="white"/>
<path d="M98.6646 54.4678C98.479 54.4678 98.312 54.3123 98.312 54.0986L98.4233 43.9731L98.312 33.8087C98.312 33.5949 98.4605 33.4395 98.6646 33.4395H103.935C104.139 33.4395 104.287 33.5949 104.287 33.8087L104.176 43.9731L104.287 54.0986C104.287 54.2929 104.139 54.4678 103.935 54.4678H98.6646Z" fill="white"/>
<path d="M116.089 54.9996C109.538 54.9996 105.753 50.7045 105.753 44.019C105.753 37.3335 109.538 32.9023 116.089 32.9023C122.639 32.9023 126.35 37.1974 126.35 43.883C126.35 50.5685 122.639 54.9996 116.089 54.9996ZM116.089 50.9183C118.983 50.9183 120.338 48.8388 120.338 44.019C120.338 39.1992 118.928 37.0031 116.052 37.0031C113.083 37.0419 111.728 39.3352 111.728 44.0773C111.728 48.8194 113.175 50.9183 116.089 50.9183Z" fill="white"/>
<path d="M128.126 54.4713C127.94 54.4713 127.773 54.3158 127.773 54.102L127.884 44.3846L127.847 33.8122C127.847 33.5984 127.996 33.4429 128.2 33.4429H133.154C133.34 33.4429 133.507 33.5984 133.507 33.8122L133.395 36.1055C134.769 34.2592 137.07 32.957 139.872 32.957C144.121 32.957 146.849 35.9888 146.849 41.1196V45.5313L146.96 54.102C146.96 54.3158 146.812 54.4713 146.607 54.4713H141.393C141.208 54.4713 141.041 54.3158 141.041 54.102L141.115 45.5313V41.1974C141.115 38.9041 139.834 37.4464 138.072 37.4464C135.975 37.4464 133.711 39.4871 133.711 43.9765V45.5313L133.785 54.102C133.785 54.3158 133.637 54.4713 133.433 54.4713H128.126Z" fill="white"/>
<path d="M7.15784 35.1923C6.81878 34.5636 6.47801 33.9816 6.18472 33.3737C5.97959 32.9489 5.78632 32.5016 5.68799 32.0422C5.59305 31.5967 5.78123 31.1684 6.16099 30.9145C7.76138 29.8403 9.35838 28.761 10.9876 27.7351C13.5323 26.1308 16.1041 24.5696 18.659 22.9842C21.4241 21.2676 24.1841 19.5423 26.9458 17.8188C26.9949 17.7877 27.0339 17.7376 27.039 17.6115C26.4999 17.8619 25.9523 18.0951 25.4217 18.3628C19.4626 21.3885 13.5069 24.4228 7.54777 27.4484C6.9917 27.7317 6.42376 27.9994 5.84396 28.229C5.15905 28.5002 4.65892 28.3448 4.2673 27.7282C3.98757 27.2878 3.7604 26.806 3.54848 26.3276C3.2857 25.7353 3.59595 25.3035 4.02826 24.965C5.76597 23.6007 7.47826 22.1967 9.27023 20.9118C11.425 19.3679 13.6374 17.9086 15.8549 16.4579C16.5652 15.9933 17.3519 15.6393 18.1334 15.3077C18.4098 15.1903 18.7743 15.2905 19.0998 15.2922C19.0353 15.641 19.0303 16.0175 18.8878 16.3318C18.7505 16.6323 18.4725 16.8672 18.2877 17.1919C18.9964 16.8223 19.7033 16.4493 20.4153 16.0866C25.2521 13.617 30.1042 11.1733 35.1885 9.26674C36.5888 8.74173 38.0434 8.34625 39.4946 7.98013C40.127 7.82125 40.8221 7.80398 41.4731 7.87824C41.902 7.92659 42.3377 8.20119 42.7056 8.46887C43.1616 8.80045 43.0565 9.37035 42.9785 9.8211C42.7802 10.9713 42.0749 12.8036 41.1916 13.7189C41.5867 13.9935 41.9139 14.3769 42.4665 14.3838C42.5835 14.3838 42.787 14.6998 42.7988 14.8794C42.8599 15.8276 42.792 16.7515 42.2733 17.5994C42.0817 17.912 42.0071 18.3023 41.8935 18.6633C41.5443 19.7841 40.6966 20.4662 39.8099 21.1104C39.1691 21.5767 38.5181 22.0292 37.879 22.4816C38.9487 22.2968 40.0168 22.1034 41.0865 21.9273C41.8138 21.8081 42.514 21.8202 43.0972 22.397C43.2159 22.5144 43.4125 22.5611 43.5821 22.6112C44.1686 22.7856 44.5382 23.188 44.5586 23.7941C44.5738 24.2432 44.5637 24.706 44.4704 25.1412C43.9584 27.5382 43.0429 29.7453 41.2781 31.4775C39.6608 33.0663 38.0061 34.6206 36.3294 36.1455C34.9155 37.4322 33.4541 38.6652 31.9996 39.9052C30.6874 41.0226 29.3531 42.1123 28.0342 43.221C27.5764 43.6061 27.1306 44.0068 26.7033 44.4783C27.1594 44.3798 27.6103 44.2555 28.0715 44.1847C29.5549 43.9584 31.04 43.7322 32.5285 43.544C33.1642 43.4628 33.8153 43.4144 34.4527 43.4542C35.8208 43.5388 37.1856 43.6718 38.5486 43.8203C39.3607 43.9083 40.1677 44.0534 40.9713 44.2019C41.1916 44.2417 41.3934 44.3833 41.6036 44.4783C41.451 44.7477 41.3629 45.119 41.134 45.2658C40.1202 45.922 39.0759 46.5265 38.0265 47.124C36.1311 48.2034 34.2272 49.2672 32.3234 50.331C30.4856 51.3586 28.4665 51.8818 26.4728 52.469C24.0874 53.1719 21.6919 53.8351 19.2964 54.4948C18.7268 54.6519 18.1368 54.7676 17.5502 54.8177C17.2179 54.8453 16.8111 54.7953 16.5449 54.6157C15.9515 54.2167 15.2853 53.8109 14.9021 53.2341C14.0426 51.9388 13.1475 50.6281 12.8847 49.0271C12.7711 48.3398 13.0661 47.7405 13.4102 47.1931C14.2274 45.8875 15.3649 44.8737 16.4771 43.8444C17.2722 43.1105 18.0809 42.3921 18.8997 41.6857C20.0186 40.7221 21.1477 39.7688 22.2836 38.8258C23.3093 37.9727 24.3553 37.1437 25.3844 36.2941C26.405 35.453 27.4188 34.5999 28.4326 33.7502C28.5139 33.6829 28.5801 33.5948 28.7326 33.4307C28.5055 33.4964 28.3766 33.5136 28.2647 33.5689C22.6973 36.3303 17.1264 39.0832 11.5657 41.8619C9.28888 43 7.03917 44.1916 4.76912 45.3452C4.39276 45.5369 3.97231 45.6336 3.58747 45.8098C3.27723 45.9514 3.09752 45.7873 2.8517 45.6353C1.88197 45.0326 1.35133 44.081 0.873245 43.0984C0.574867 42.4836 0.300223 41.8377 0.151034 41.1745C0.00523497 40.5252 0.386685 39.9881 0.890199 39.6272C2.90764 38.1782 4.94374 36.7552 6.97305 35.3235C7.02222 35.289 7.07308 35.2544 7.15615 35.1957L7.15784 35.1923Z" fill="white"/>
</svg>
