<svg width="44" height="51" viewBox="0 0 44 51" fill="none" xmlns="http://www.w3.org/2000/svg">
<path d="M6.29977 41.1602L5.87977 40.1102L14.6298 34.8602C18.4798 32.5502 21.7114 30.2985 24.3248 28.1052C26.9381 25.8885 29.0381 23.6018 30.6248 21.2452C32.2114 18.8652 33.3898 16.2752 34.1598 13.4752C34.9064 10.7918 35.1631 8.56351 34.9298 6.79017C34.7198 5.01684 34.1131 3.68684 33.1098 2.80017C32.1298 1.91351 30.8581 1.47017 29.2948 1.47017C27.5448 1.47017 25.9814 1.82017 24.6048 2.52017C23.2514 3.19684 22.1198 4.13017 21.2098 5.32017C20.3231 6.48684 19.6698 7.79351 19.2498 9.24017L18.3398 12.5652C17.9431 13.9652 17.2898 15.0502 16.3798 15.8202C15.4931 16.5902 14.4898 16.9752 13.3698 16.9752C12.2498 16.9752 11.4564 16.6018 10.9898 15.8552C10.5231 15.1085 10.4881 14.0352 10.8848 12.6352C11.4914 10.5118 12.6931 8.49351 14.4898 6.58018C16.2864 4.64351 18.5731 3.06851 21.3498 1.85517C24.1264 0.618505 27.2764 0.000172377 30.7998 0.000172377C34.0198 0.000172377 36.5748 0.583507 38.4648 1.75017C40.3781 2.91684 41.6264 4.53851 42.2098 6.61517C42.7931 8.66851 42.7114 11.0368 41.9648 13.7202C41.4981 15.4002 40.7281 17.0335 39.6548 18.6202C38.6048 20.2068 37.1581 21.8285 35.3148 23.4852C33.4948 25.1185 31.1964 26.8568 28.4198 28.7002C25.6431 30.5435 22.3064 32.5502 18.4098 34.7202L6.29977 41.1602ZM0.524766 46.4102C1.15477 44.1702 2.48477 42.3152 4.51477 40.8452C6.5681 39.3518 9.09977 38.6052 12.1098 38.6052C13.5564 38.6052 14.9448 38.8618 16.2748 39.3752C17.6281 39.8652 18.9464 40.4485 20.2298 41.1252C21.5131 41.7785 22.7731 42.3618 24.0098 42.8752C25.2464 43.3885 26.4831 43.6452 27.7198 43.6452C29.3531 43.6452 30.7298 43.2718 31.8498 42.5252C32.9698 41.7552 34.0664 40.4252 35.1398 38.5352C35.3264 38.2785 35.5131 38.1035 35.6998 38.0102C35.9098 37.8935 36.1081 37.8468 36.2948 37.8702C36.5514 37.8935 36.7148 37.9985 36.7848 38.1852C36.8548 38.3718 36.7964 38.6635 36.6098 39.0602C35.4664 41.9302 34.2414 44.1935 32.9348 45.8502C31.6514 47.5068 30.2748 48.6968 28.8048 49.4202C27.3581 50.1435 25.7948 50.5052 24.1148 50.5052C22.6681 50.5052 21.4198 50.2718 20.3698 49.8052C19.3431 49.3618 18.4448 48.6035 17.6748 47.5302C16.9048 46.4568 16.1698 45.0102 15.4698 43.1902C14.7464 42.0935 14.1048 41.3118 13.5448 40.8452C13.0081 40.3785 12.4014 40.1452 11.7248 40.1452C10.9781 40.1452 10.2898 40.5185 9.65977 41.2652C9.0531 42.0118 8.46977 43.2718 7.90977 45.0452C7.4431 46.4218 6.92977 47.5068 6.36977 48.3002C5.8331 49.0702 5.24977 49.6185 4.61977 49.9452C3.98977 50.2718 3.28977 50.4352 2.51977 50.4352C1.60977 50.4352 0.956432 50.0852 0.559766 49.3852C0.186432 48.6618 0.174766 47.6702 0.524766 46.4102Z" fill="#E5E5E5"/>
</svg>
