<svg width="43" height="50" viewBox="0 0 43 50" fill="none" xmlns="http://www.w3.org/2000/svg">
<path d="M17.3599 22.925L17.2899 22.295C17.5233 22.2483 17.8033 22.2133 18.1299 22.19C18.4799 22.1667 18.8416 22.1433 19.2149 22.12C19.5883 22.0967 19.9033 22.085 20.1599 22.085C23.6599 22.015 26.5066 22.505 28.6999 23.555C30.8933 24.605 32.3633 26.1567 33.1099 28.21C33.8566 30.2633 33.7983 32.7833 32.9349 35.77C32.1416 38.5933 30.7533 41.055 28.7699 43.155C26.8099 45.255 24.4299 46.8883 21.6299 48.055C18.8299 49.2217 15.7616 49.805 12.4249 49.805C9.34492 49.805 6.85992 49.3383 4.96992 48.405C3.10326 47.4717 1.80826 46.235 1.08492 44.695C0.361589 43.1317 0.198255 41.4283 0.594922 39.585C0.874922 38.0917 1.44659 36.9367 2.30992 36.12C3.17326 35.3033 4.11826 34.895 5.14492 34.895C6.31159 34.895 7.11659 35.2917 7.55992 36.085C8.02659 36.8783 8.09659 37.8583 7.76992 39.025L6.96492 41.755C6.38159 43.855 6.59159 45.4767 7.59492 46.62C8.62159 47.7633 10.4299 48.335 13.0199 48.335C14.7699 48.335 16.4499 47.8917 18.0599 47.005C19.6699 46.1183 21.1049 44.8233 22.3649 43.12C23.6249 41.3933 24.6049 39.2583 25.3049 36.715C26.4949 32.3983 26.4366 29.19 25.1299 27.09C23.8233 24.99 21.4433 23.94 17.9899 23.94H15.9599C15.6099 23.94 15.3533 23.87 15.1899 23.73C15.0266 23.5667 14.9799 23.345 15.0499 23.065C15.1433 22.8083 15.3066 22.575 15.5399 22.365C15.7733 22.1317 16.0883 21.875 16.4849 21.595L36.1199 4.62L35.7349 6.055H15.9249C15.3416 6.055 14.8633 6.16 14.4899 6.37C14.1399 6.55667 13.8133 6.895 13.5099 7.385L11.2699 11.235C11.1299 11.515 10.9433 11.7367 10.7099 11.9C10.4766 12.04 10.2316 12.11 9.97492 12.11C9.67159 12.11 9.46159 12.0167 9.34492 11.83C9.22826 11.62 9.25159 11.3283 9.41492 10.955L13.3349 1.47C13.5449 1.00333 13.8366 0.641665 14.2099 0.384998C14.5833 0.12833 15.0499 -3.33786e-06 15.6099 -3.33786e-06H41.4749C41.8483 -3.33786e-06 42.1166 0.0933302 42.2799 0.279997C42.4666 0.44333 42.5133 0.676663 42.4199 0.979997C42.3499 1.26 42.1633 1.54 41.8599 1.82C41.5799 2.07667 41.1833 2.39167 40.6699 2.765L17.3599 22.925Z" fill="#E5E5E5"/>
</svg>
