<svg width="37" height="50" viewBox="0 0 37 50" fill="none" xmlns="http://www.w3.org/2000/svg">
<path d="M30.2049 5.6L30.3449 6.37H7.94492C7.38492 6.37 6.95326 6.475 6.64992 6.685C6.34659 6.87166 6.06659 7.16333 5.80992 7.56L3.42992 11.55C3.24326 11.83 3.03326 12.0517 2.79992 12.215C2.56659 12.355 2.30992 12.425 2.02992 12.425C1.72659 12.425 1.51659 12.3317 1.39992 12.145C1.30659 11.935 1.34159 11.6433 1.50492 11.27L5.73992 1.4C5.94992 0.956665 6.21826 0.618331 6.54492 0.384998C6.87159 0.12833 7.29159 -3.33786e-06 7.80492 -3.33786e-06H34.7199C35.2566 -3.33786e-06 35.6183 0.104997 35.8049 0.314999C36.0149 0.501666 36.0733 0.769999 35.9799 1.12C35.9099 1.37666 35.7583 1.66833 35.5249 1.995C35.2916 2.29833 34.9183 2.66 34.4049 3.08L18.7599 22.645C17.1033 24.3717 15.6799 25.9583 14.4899 27.405C13.2999 28.8517 12.3316 30.2167 11.5849 31.5C10.8383 32.7833 10.2783 34.0433 9.90492 35.28C9.62492 36.2833 9.50826 37.2167 9.55492 38.08C9.60159 38.9433 9.70659 39.7717 9.86992 40.565C10.0566 41.3583 10.1849 42.14 10.2549 42.91C10.3483 43.68 10.2783 44.485 10.0449 45.325C9.67159 46.5617 8.95992 47.6117 7.90992 48.475C6.88326 49.315 5.62326 49.735 4.12992 49.735C2.51992 49.735 1.42326 49.1517 0.839922 47.985C0.279922 46.8183 0.326589 45.0917 0.979922 42.805C1.39992 41.335 2.04159 39.865 2.90492 38.395C3.79159 36.9017 4.87659 35.3617 6.15992 33.775C7.44326 32.1883 8.88992 30.5317 10.4999 28.805C12.1333 27.055 13.8949 25.1767 15.7849 23.17L30.2049 5.6Z" fill="#E5E5E5"/>
</svg>
