<svg width="40" height="40" viewBox="0 0 40 40" fill="none" xmlns="http://www.w3.org/2000/svg">
<rect x="0.6" y="0.6" width="38.8" height="38.8" rx="19.4" stroke="url(#paint0_linear_4498_418)" stroke-width="1.2"/>
<path d="M27.1336 15.625L24.375 12.8664C24.2593 12.7498 24.1217 12.6574 23.97 12.5945C23.8183 12.5316 23.6556 12.4995 23.4914 12.5H13.75C13.4185 12.5 13.1005 12.6317 12.8661 12.8661C12.6317 13.1005 12.5 13.4185 12.5 13.75V26.25C12.5 26.5815 12.6317 26.8995 12.8661 27.1339C13.1005 27.3683 13.4185 27.5 13.75 27.5H26.25C26.5815 27.5 26.8995 27.3683 27.1339 27.1339C27.3683 26.8995 27.5 26.5815 27.5 26.25V16.5086C27.5005 16.3444 27.4684 16.1817 27.4055 16.03C27.3426 15.8783 27.2502 15.7407 27.1336 15.625ZM23.125 26.25H16.875V21.875H23.125V26.25ZM26.25 26.25H24.375V21.875C24.375 21.5435 24.2433 21.2255 24.0089 20.9911C23.7745 20.7567 23.4565 20.625 23.125 20.625H16.875C16.5435 20.625 16.2255 20.7567 15.9911 20.9911C15.7567 21.2255 15.625 21.5435 15.625 21.875V26.25H13.75V13.75H23.4914L26.25 16.5086V26.25ZM22.5 15.625C22.5 15.7908 22.4342 15.9497 22.3169 16.0669C22.1997 16.1842 22.0408 16.25 21.875 16.25H17.5C17.3342 16.25 17.1753 16.1842 17.0581 16.0669C16.9408 15.9497 16.875 15.7908 16.875 15.625C16.875 15.4592 16.9408 15.3003 17.0581 15.1831C17.1753 15.0659 17.3342 15 17.5 15H21.875C22.0408 15 22.1997 15.0659 22.3169 15.1831C22.4342 15.3003 22.5 15.4592 22.5 15.625Z" fill="#090909"/>
<defs>
<linearGradient id="paint0_linear_4498_418" x1="9.9686e-08" y1="33.75" x2="40.0137" y2="34.624" gradientUnits="userSpaceOnUse">
<stop stop-color="#39B5D7"/>
<stop offset="0.502211" stop-color="#F7D544"/>
<stop offset="1" stop-color="#E38330"/>
</linearGradient>
</defs>
</svg>
