<svg width="1440" height="480" viewBox="0 0 1440 480" fill="none" xmlns="http://www.w3.org/2000/svg">
<path opacity="0.53" d="M-489.608 805.951C-503.875 847.893 -520.459 886.239 -480.633 837.201C-258.621 563.836 -51.2252 262.988 163.489 -22.8305C208.705 -83.0202 254.68 -147.517 307.317 -193.929C333.235 -216.781 315.918 -167.972 310.809 -152.365C292.848 -97.4953 272.044 -44.7749 251.424 7.79421C241.699 32.5893 197.965 126.056 249.771 69.4237C348.386 -38.3795 434.944 -168.788 534.248 -275.315C560.351 -303.317 595.915 -340.897 629.077 -353.6C701.336 -381.28 628.91 -191.839 626.366 -183.107C570.894 7.28896 506.755 191.462 451.473 382.068C450.002 387.142 423.956 478.903 422.265 491.155C413.244 556.554 472.875 529.203 490.976 521.932C582.203 485.289 658.89 405.626 736.816 331.541C743.138 325.53 820.065 241.931 800.888 307.413C784.702 362.679 758.77 411.582 737.189 461.959C734.612 467.975 687.39 578.641 714.897 552.506C818.184 454.368 905.512 309.521 995.956 188.283C1073.67 84.1035 1151.22 -21.4224 1234.44 -116.041C1239.2 -121.458 1277.9 -173.667 1271.16 -126.601C1261.19 -56.9876 1231.04 3.41302 1215.43 69.9856C1199.59 137.588 1208.06 174.083 1261.61 174.367C1345.41 174.812 1426.95 138.892 1508.29 117.985C1533.14 111.598 1582.4 92.2939 1601.88 133.16C1624.11 179.826 1596.52 249.259 1592.03 296.008C1573.02 494.184 2083.64 173.891 2128.14 147.988" stroke="#171717" stroke-width="51" stroke-linecap="round"/>
</svg>
