<svg width="76" height="32" viewBox="0 0 76 32" fill="none" xmlns="http://www.w3.org/2000/svg">
<g clip-path="url(#clip0_20170_15158)">
<path fill-rule="evenodd" clip-rule="evenodd" d="M68.9492 12.7574V25.2784H71.8171H74.6851V12.7574V0.236328H71.8171H68.9492V12.7574Z" fill="#EF7F1A"/>
<path fill-rule="evenodd" clip-rule="evenodd" d="M33.0412 0.116109C29.0785 0.571121 25.9783 2.09803 23.6738 4.72955C21.4241 7.29858 20.4335 11.0469 20.9508 15.0339C21.3096 17.7998 22.3742 20.0297 24.2275 21.8973C26.2467 23.9322 28.8319 25.0206 32.5632 25.4069C33.6921 25.5238 36.5122 25.5063 37.582 25.3758C39.538 25.1372 41.603 24.7008 43.2136 24.1856L43.6172 24.0565L43.6019 17.4634L43.5868 10.8703H38.8069H34.027V13.1168V15.3634L36.0136 15.3792L38.0003 15.395V17.9624V20.5298L37.6567 20.6251C37.1037 20.7785 36.3696 20.8462 35.2519 20.847C33.8432 20.848 33.0328 20.7361 32.0092 20.3992C31.1904 20.1298 30.5255 19.7697 29.7849 19.1944C27.8731 17.7096 26.8871 15.4996 26.8871 12.6998C26.8871 10.3018 27.5695 8.47616 29.0056 7.03204C30.7421 5.28598 33.1415 4.54658 36.4777 4.72943C38.3238 4.83061 39.9021 5.14711 41.2118 5.67881C41.3843 5.74884 41.5271 5.79983 41.529 5.79204C41.5309 5.78431 41.8094 4.75764 42.1477 3.51057L42.7629 1.24312L42.4877 1.12366C41.2955 0.605868 39.5261 0.21448 37.6717 0.0582968C36.5372 -0.0371986 34.1127 -0.00694441 33.0412 0.116109Z" fill="#78B833"/>
<path fill-rule="evenodd" clip-rule="evenodd" d="M5.40723 0.0638716C3.63456 0.126177 1.27527 0.327652 0.194182 0.509178L0 0.541768V12.9103V25.2789H2.83805H5.6761V20.8116C5.6761 16.5845 5.68172 16.3461 5.78066 16.377C6.10862 16.4794 7.62725 16.5301 8.66908 16.4735C10.9225 16.3508 12.5606 15.9592 14.0729 15.1817C16.889 13.7339 18.3428 11.2503 18.3428 7.88707C18.3428 4.97769 16.816 2.45749 14.3097 1.23007C12.8836 0.531584 11.3501 0.179796 9.20126 0.0581203C8.03879 -0.00771999 7.41968 -0.00682135 5.40723 0.0638716ZM46.1258 2.6631V5.08942H49.6211H53.1164V15.1841V25.2789H55.9843H58.8522V15.1846V5.09038L62.3923 5.07493L65.9324 5.05947L65.948 2.64812L65.9636 0.23677H56.0447H46.1258V2.6631ZM6.99057 4.42892C6.5798 4.45307 6.11597 4.49327 5.95991 4.51831L5.6761 4.56384V8.23448V11.9051L5.81053 11.9471C6.07426 12.0293 8.22096 12.0562 8.73313 11.9836C10.5135 11.7313 11.7375 10.9471 12.3001 9.69855C12.5318 9.18429 12.6232 8.71196 12.6242 8.02312C12.6257 7.05451 12.3723 6.32469 11.8268 5.72626C10.8788 4.68611 9.39389 4.28778 6.99057 4.42892ZM6.46926 28.0301C6.05431 28.1351 5.74648 28.4361 5.54543 28.9333C5.3681 29.372 5.34958 30.5337 5.51245 31.0021C5.73226 31.6341 6.19681 31.9861 6.81132 31.9861C7.42577 31.9861 7.89008 31.6343 8.11037 31.0021C8.27187 30.5387 8.25395 29.3746 8.07852 28.9333C7.93686 28.5769 7.68018 28.2653 7.41508 28.1278C7.20184 28.0172 6.71781 27.9672 6.46926 28.0301ZM14.1398 28.0622C13.6665 28.2314 13.4433 28.582 13.4435 29.1561C13.4436 29.6506 13.5733 29.8679 14.0708 30.2066C14.7726 30.6847 14.9051 30.9305 14.6105 31.208C14.4833 31.3278 14.4222 31.342 14.1656 31.3116C14.0019 31.2921 13.7859 31.2336 13.6856 31.1816C13.5133 31.0923 13.5031 31.0933 13.5031 31.2C13.5031 31.2621 13.4866 31.4341 13.4663 31.5821L13.4296 31.8512L13.7019 31.9199C14.7357 32.181 15.4515 31.7773 15.5158 30.8972C15.5568 30.3359 15.4003 30.0702 14.7941 29.6718C14.2597 29.3206 14.2223 29.2775 14.221 29.0103C14.2196 28.7092 14.5872 28.5985 15.0507 28.7606C15.1559 28.7973 15.2557 28.8136 15.2724 28.7968C15.2892 28.78 15.3182 28.6181 15.3368 28.437L15.3707 28.1078L15.0613 28.0413C14.6614 27.9553 14.4237 27.9607 14.1398 28.0622ZM16.6007 28.0296C15.9811 28.2312 15.6625 28.8311 15.833 29.475C15.9214 29.8086 16.0569 29.9595 16.5617 30.2866C16.9956 30.5677 17.088 30.6865 17.088 30.9629C17.088 31.3157 16.6402 31.436 16.1526 31.214L15.9042 31.1009L15.8696 31.2303C15.8505 31.3014 15.8346 31.4723 15.8342 31.61L15.8333 31.8603L16.1541 31.9323C16.6191 32.0366 17.1495 31.9841 17.4054 31.8083C17.7872 31.546 17.9604 31.0568 17.8598 30.5243C17.7928 30.1693 17.611 29.9624 17.0287 29.5785C16.5739 29.2787 16.4734 29.09 16.6358 28.8413C16.7346 28.6903 16.7624 28.6821 17.0789 28.7114C17.2647 28.7286 17.4745 28.761 17.5452 28.7835C17.6652 28.8217 17.6753 28.8014 17.6946 28.4822C17.7137 28.1672 17.7041 28.1357 17.5723 28.0856C17.3582 28.004 16.7814 27.9708 16.6007 28.0296ZM20.7162 28.0401C19.9938 28.2107 19.618 28.9833 19.6703 30.1907C19.7039 30.967 19.8468 31.3429 20.24 31.69C20.5376 31.9526 20.7608 32.0161 21.2454 31.9758C21.9131 31.9203 22.3518 31.384 22.4843 30.4611C22.6543 29.2783 22.1946 28.2366 21.416 28.04C21.1217 27.9657 21.0313 27.9657 20.7162 28.0401ZM33.7773 28.034C33.412 28.1114 33.203 28.2373 32.9369 28.5406C32.6064 28.9169 32.473 29.3586 32.4743 30.0716C32.4761 31.0151 32.7779 31.5951 33.4083 31.867C33.6785 31.9836 33.795 31.9982 34.2623 31.9742C34.5599 31.9589 34.8774 31.9162 34.9678 31.8792L35.1321 31.812V30.7621V29.7122H34.5346H33.9371V30.0381V30.3639L34.1612 30.3825L34.3852 30.4011L34.4027 30.8306C34.4187 31.224 34.4094 31.2635 34.2929 31.3006C33.9493 31.41 33.6082 31.1994 33.4278 30.7664C33.3022 30.465 33.2962 29.5705 33.4179 29.2861C33.6477 28.7491 34.1873 28.5466 34.7548 28.7843C34.8738 28.8342 34.9767 28.8679 34.9836 28.8592C34.9904 28.8505 35.0135 28.6879 35.0348 28.4977C35.0718 28.1681 35.0667 28.1494 34.9243 28.0951C34.6976 28.0087 34.0578 27.9746 33.7773 28.034ZM36.5724 28.062C35.9782 28.2543 35.6202 28.8634 35.5669 29.7721C35.4858 31.1564 36.0169 31.9861 36.9843 31.9861C37.5987 31.9861 38.063 31.6343 38.2833 31.0021C38.4448 30.5387 38.4269 29.3746 38.2515 28.9333C38.1098 28.5769 37.8531 28.2653 37.588 28.1278C37.3321 27.9951 36.8711 27.9652 36.5724 28.062ZM48.0518 28.0334C47.6748 28.1231 47.403 28.3635 47.1913 28.7949C46.9954 29.1938 46.9921 29.2135 46.9921 30.0104C46.9921 30.7294 47.0076 30.8541 47.1298 31.12C47.3976 31.7029 47.8073 31.9887 48.375 31.9887C49.242 31.9887 49.7389 31.3669 49.8115 30.1914C49.8792 29.0947 49.4832 28.2693 48.7903 28.063C48.4688 27.9672 48.35 27.9625 48.0518 28.0334ZM58.2805 28.031C57.8555 28.133 57.5566 28.4225 57.318 28.9633C57.1637 29.3132 57.1651 30.5739 57.3203 31.0206C57.4538 31.405 57.7099 31.7124 58.0348 31.8787C58.2251 31.976 58.3575 31.9964 58.6801 31.9781C59.3703 31.939 59.7469 31.5718 59.9636 30.7267C60.0816 30.2659 60.0494 29.4198 59.897 28.9816C59.6472 28.2632 58.9708 27.8654 58.2805 28.031ZM0.179245 29.9817V31.9288H0.597484H1.01572V31.2398V30.5509H1.18409C1.50644 30.5509 1.95778 30.3751 2.11432 30.1886C2.50914 29.7181 2.47759 28.7856 2.05242 28.3593C1.81558 28.1218 1.45649 28.0347 0.714053 28.0347H0.179245V29.9817ZM2.80818 29.9747V31.9288H3.19654H3.58491V31.15V30.3712H3.7329C3.929 30.3712 4.03642 30.5475 4.15335 31.0608C4.20575 31.2911 4.27512 31.5806 4.30744 31.7041L4.36624 31.9288H4.78621C5.15796 31.9288 5.20265 31.9168 5.17571 31.824C5.15892 31.7663 5.06093 31.4226 4.95786 31.0601C4.8548 30.6977 4.71833 30.3111 4.65452 30.201L4.53855 30.0009L4.69025 29.8812C4.92058 29.6995 5.01887 29.4554 5.01887 29.065C5.01887 28.6516 4.8726 28.3828 4.54249 28.1895C4.37167 28.0895 4.20193 28.064 3.57182 28.0444L2.80818 28.0206V29.9747ZM8.72327 29.9817V31.9288H9.14151H9.55975V31.1524V30.376L10.0527 30.3586L10.5456 30.3412V30.0117V29.6822L10.0527 29.6648L9.55975 29.6474V29.2005V28.7536H10.0676H10.5755V28.3941V28.0347H9.64937H8.72327V29.9817ZM11.0535 29.9817V31.9288H12.0393H13.0252V31.5993V31.2698H12.4277H11.8302V30.7905V30.3112H12.3679H12.9057V29.9518V29.5923H12.3679H11.8302V29.173V28.7536H12.3978H12.9654V28.3941V28.0347H12.0094H11.0535V29.9817ZM18.3428 29.9817V31.9288H18.761H19.1792V29.9817V28.0347H18.761H18.3428V29.9817ZM23.0031 29.9817V31.9288H23.3306H23.6581L23.6742 30.6021L23.6903 29.2754L24.1653 30.6021L24.6402 31.9288H25.1063H25.5723V29.9817V28.0347H25.215H24.8577L24.8416 29.3314L24.8255 30.628L24.4746 29.6459C24.2817 29.1057 24.0714 28.5222 24.0073 28.3492L23.8908 28.0347H23.447H23.0031V29.9817ZM26.3838 29.8769C26.099 30.8902 25.8515 31.7676 25.8337 31.8268C25.8046 31.9242 25.8402 31.9328 26.2069 31.9167L26.6124 31.8988L26.6982 31.4945L26.784 31.0901H27.3074H27.8309L27.9018 31.4046C28.0295 31.9713 27.985 31.9288 28.4506 31.9288C28.7612 31.9288 28.8645 31.9092 28.8452 31.8539C28.8309 31.8128 28.5934 30.9366 28.3176 29.9069L27.816 28.0347H27.3587H26.9015L26.3838 29.8769ZM29.0975 29.9817V31.9288H30.0535H31.0094V31.5693V31.2099H30.4717H29.934V29.6223V28.0347H29.5157H29.0975V29.9817ZM38.8962 29.979V31.9288H39.8522H40.8082V31.5693V31.2099H40.2715H39.7347L39.7188 29.6373L39.7028 28.0646L39.2995 28.0469L38.8962 28.0292V29.979ZM41.1069 29.9817V31.9288H41.5252H41.9434V31.1524V30.376L42.4363 30.3586L42.9292 30.3412L42.9472 29.9967L42.9651 29.6522H42.4542H41.9434V29.2029V28.7536H42.4513H42.9591V28.3941V28.0347H42.033H41.1069V29.9817ZM44.4528 28.4241V28.8135H44.8113H45.1698V30.3712V31.9288H45.5881H46.0063V30.3712V28.8135H46.3648H46.7233V28.4241V28.0347H45.5881H44.4528V28.4241ZM50.2695 28.1259C50.2503 28.1761 50.2469 28.8433 50.2619 29.6087C50.2935 31.2094 50.347 31.4486 50.7457 31.7717C50.9454 31.9335 51.0282 31.9594 51.4029 31.9765C51.9652 32.0022 52.3003 31.844 52.5189 31.4495C52.666 31.1839 52.6685 31.1565 52.6868 29.6044L52.7054 28.0288L52.3283 28.0467L51.9513 28.0646L51.9214 29.5624C51.905 30.3861 51.8687 31.0955 51.8409 31.1387C51.7595 31.2652 51.5182 31.3325 51.3611 31.2726C51.1219 31.1814 51.0849 30.9352 51.0849 29.4336V28.0347H50.6947C50.4002 28.0347 50.2959 28.0571 50.2695 28.1259ZM53.3404 28.0691C53.3157 28.0941 53.2956 28.9728 53.2956 30.0217V31.9288H53.7138H54.1321V31.15C54.1321 30.4207 54.1394 30.3712 54.2473 30.3712C54.3107 30.3712 54.404 30.4128 54.4548 30.4637C54.548 30.5571 54.5728 30.6338 54.7748 31.4495L54.886 31.8988L55.3134 31.9164L55.7409 31.934L55.6864 31.7666C55.6565 31.6746 55.5482 31.3027 55.4458 30.9403C55.3393 30.5633 55.2058 30.2237 55.1338 30.1467C55.0646 30.0727 55.0192 30.0039 55.033 29.9938C55.0469 29.9837 55.1295 29.9308 55.2166 29.8762C55.4462 29.7325 55.5917 29.309 55.5456 28.9188C55.469 28.2703 55.1479 28.076 54.1022 28.0449C53.7079 28.0333 53.3651 28.0442 53.3404 28.0691ZM60.5252 29.9817V31.9288H60.9135H61.3019V31.15V30.3712H61.8097H62.3176V30.0117V29.6522H61.8097H61.3019V29.2029V28.7536H61.8396H62.3774V28.3941V28.0347H61.4513H60.5252V29.9817ZM64.1101 29.9817V31.9288H64.4984H64.8868V29.9817V28.0347H64.4984H64.1101V29.9817ZM65.544 29.9792V31.9288H65.8715H66.199L66.2151 30.5971L66.2311 29.2654L66.7084 30.5971L67.1856 31.9288H67.6494H68.1132V29.9817V28.0347H67.7559H67.3986L67.3825 29.3305L67.3663 30.6262L66.9096 29.3454L66.4529 28.0646L65.9985 28.0472L65.544 28.0297V29.9792ZM68.7505 28.0747C68.7286 28.0966 68.7107 28.9728 68.7107 30.0217V31.9288H69.357C70.4138 31.9288 70.8759 31.7097 71.194 31.0578C71.3184 30.8028 71.3615 30.6101 71.3844 30.2053C71.4218 29.5464 71.3268 29.0769 71.0816 28.7101C70.8496 28.3629 70.537 28.182 70.025 28.0987C69.5905 28.028 68.8117 28.0133 68.7505 28.0747ZM71.9371 29.9817V31.9288H72.3255H72.7138V29.9817V28.0347H72.3255H71.9371V29.9817ZM74.0652 28.0832C74.0487 28.1099 73.8045 28.9524 73.5224 29.9554C73.2404 30.9584 72.9976 31.8128 72.9831 31.8539C72.9635 31.9091 73.0639 31.9288 73.3646 31.9288H73.7726L73.8585 31.5244L73.9444 31.12L74.4614 31.1028L74.9784 31.0855L75.0403 31.3157C75.0743 31.4423 75.1192 31.6321 75.1403 31.7373L75.1785 31.9288H75.5892C75.8151 31.9288 76 31.9102 76 31.8873C76 31.8522 75.098 28.4472 75.0072 28.1395C74.9814 28.0519 74.9036 28.0347 74.5357 28.0347C74.2933 28.0347 74.0816 28.0566 74.0652 28.0832ZM6.52835 28.8285C6.45982 28.9027 6.37086 29.0846 6.33059 29.2329C6.23797 29.5741 6.23797 30.4401 6.33064 30.7824C6.41178 31.0823 6.62909 31.3297 6.81132 31.3297C6.99296 31.3297 7.21044 31.083 7.29379 30.7824C7.38837 30.4414 7.38622 29.4991 7.29014 29.1989C7.19054 28.8874 7.00694 28.6937 6.81132 28.6937C6.72379 28.6937 6.59718 28.754 6.52835 28.8285ZM20.7956 28.8103C20.7316 28.8745 20.6454 29.043 20.6039 29.1848C20.5032 29.53 20.5125 30.5772 20.6191 30.8746C20.8046 31.3927 21.2489 31.456 21.478 30.997C21.6461 30.6602 21.6826 29.6054 21.541 29.1779C21.3889 28.719 21.0523 28.553 20.7956 28.8103ZM36.7013 28.8285C36.6328 28.9027 36.5444 29.0846 36.5049 29.2329C36.413 29.578 36.4123 30.444 36.5037 30.7824C36.5847 31.0823 36.802 31.3297 36.9843 31.3297C37.1659 31.3297 37.3833 31.0831 37.4668 30.7824C37.5631 30.4355 37.5621 29.5033 37.4651 29.2029C37.3633 28.8873 37.1805 28.6937 36.9843 28.6937C36.8967 28.6937 36.7701 28.754 36.7013 28.8285ZM48.0988 28.8259C48.0312 28.8986 47.9439 29.0671 47.9046 29.2003C47.8064 29.5341 47.8231 30.5822 47.9313 30.8777C48.121 31.3957 48.5541 31.4564 48.7828 30.997C48.9322 30.6968 48.9856 29.6616 48.8725 29.2569C48.7225 28.7196 48.3766 28.5269 48.0988 28.8259ZM58.3234 28.8339C58.1665 29.0014 58.0991 29.2176 58.0461 29.7239C58.0036 30.1309 58.0806 30.7501 58.2066 31.0128C58.4199 31.4579 58.8596 31.3921 59.0465 30.8872C59.1711 30.5508 59.198 29.6304 59.0945 29.245C58.9553 28.727 58.6007 28.5379 58.3234 28.8339ZM1.01572 29.2928V29.832H1.19073C1.28692 29.832 1.40576 29.7918 1.45469 29.7427C1.64577 29.5511 1.64577 29.0345 1.45469 28.8429C1.40576 28.7937 1.28692 28.7536 1.19073 28.7536H1.01572V29.2928ZM3.58491 29.2356V29.7176L3.80896 29.6791C4.08858 29.631 4.24214 29.4599 4.24214 29.1963C4.24214 28.9278 4.06582 28.7536 3.79402 28.7536H3.58491V29.2356ZM54.1321 29.2369C54.1321 29.6681 54.1434 29.7172 54.2366 29.6918C54.2941 29.6761 54.4125 29.6476 54.4995 29.6282C54.7012 29.5834 54.805 29.3169 54.7269 29.044C54.6608 28.8127 54.582 28.7557 54.3263 28.7545L54.1321 28.7536V29.2369ZM69.5472 30.0105V31.2832L69.7712 31.2434C70.3102 31.1478 70.5324 30.7788 70.5309 29.9817C70.5295 29.1685 70.33 28.8431 69.7884 28.7703L69.5472 28.7378V30.0105ZM27.1668 29.6168C27.0785 29.9584 27.0063 30.2679 27.0063 30.3045C27.0063 30.3453 27.1336 30.3712 27.3349 30.3712C27.5156 30.3712 27.6635 30.3601 27.6635 30.3465C27.6635 30.2984 27.358 29.0264 27.3429 29.0112C27.3343 29.0026 27.2551 29.2752 27.1668 29.6168ZM74.3242 29.6373C74.244 29.9586 74.1695 30.2551 74.1587 30.2963C74.1447 30.3497 74.2363 30.3712 74.479 30.3712C74.7999 30.3712 74.8174 30.3636 74.7911 30.2364C74.6104 29.3629 74.5358 29.0532 74.5058 29.0532C74.4861 29.0532 74.4044 29.316 74.3242 29.6373Z" fill="#2B2A29"/>
</g>
<defs>
<clipPath id="clip0_20170_15158">
<rect width="76" height="32" fill="white"/>
</clipPath>
</defs>
</svg>
