<svg width="56" height="56" viewBox="0 0 56 56" fill="none" xmlns="http://www.w3.org/2000/svg">
<circle cx="28" cy="28" r="27.6246" stroke="url(#paint0_linear_1483_30092)" stroke-width="0.750863"/>
<path d="M28.6662 15.4C28.6323 15.4175 28.602 15.4385 28.5682 15.456L29.603 17.5128C29.6452 17.6028 29.7174 17.6753 29.8073 17.7179C29.8971 17.7605 29.999 17.7705 30.0953 17.7462C30.4861 17.6369 30.9027 17.6669 31.2738 17.8309C31.6449 17.9948 31.9475 18.2827 32.1298 18.6451C32.3122 19.0076 32.3629 19.4221 32.2733 19.8179C32.1838 20.2136 31.9595 20.5659 31.6388 20.8145C31.5611 20.8759 31.5071 20.9624 31.4858 21.0591C31.4646 21.1559 31.4774 21.257 31.5222 21.3453L32.3295 22.9483L33.9313 22.1422C34.0191 22.0963 34.1199 22.0822 34.2169 22.1022C34.3138 22.1222 34.4009 22.175 34.4633 22.2518C34.7122 22.5714 35.0643 22.7947 35.4594 22.8837C35.8545 22.9727 36.2683 22.9219 36.6302 22.7399C36.992 22.558 37.2796 22.2561 37.4437 21.8859C37.6079 21.5156 37.6386 21.0998 37.5305 20.7095C37.5061 20.6129 37.5161 20.5109 37.5586 20.4209C37.6012 20.3309 37.6738 20.2584 37.7638 20.216L39.2805 19.4553C39.1848 19.2383 39.0892 19.0213 38.9713 18.8113C38.5189 17.9105 37.8935 17.1076 37.1306 16.4485C36.3678 15.7895 35.4826 15.2872 34.5256 14.9704C33.5686 14.6536 32.5585 14.5285 31.5531 14.6022C30.5478 14.6759 29.5667 14.947 28.6662 15.4Z" stroke="#404040" stroke-linecap="round" stroke-linejoin="round"/>
<path d="M28.4165 35.7187V35.7C28.4301 34.9599 28.6191 34.2336 28.9679 33.5808C29.3168 32.9279 29.8155 32.3672 30.4232 31.9445C31.4542 31.1924 32.3037 30.219 32.9093 29.0958C33.515 27.9725 33.8614 26.7278 33.9232 25.4532H32.0238C31.9129 25.4514 31.8048 25.4881 31.7178 25.557C31.6308 25.6259 31.5704 25.7228 31.5467 25.8312C31.4585 26.2769 31.2184 26.6781 30.8673 26.9665C30.5162 27.2549 30.076 27.4125 29.6217 27.4125C29.1673 27.4125 28.7271 27.2549 28.376 26.9665C28.025 26.6781 27.7849 26.2769 27.6967 25.8312C27.6728 25.7229 27.6123 25.6261 27.5253 25.5573C27.4384 25.4884 27.3304 25.4516 27.2195 25.4532H25.207V27.4645C25.2085 27.5756 25.1715 27.6837 25.1025 27.7707C25.0334 27.8576 24.9363 27.918 24.8278 27.9417C24.3822 28.0299 23.9809 28.27 23.6925 28.621C23.4041 28.9721 23.2465 29.4123 23.2465 29.8667C23.2465 30.321 23.4041 30.7612 23.6925 31.1123C23.9809 31.4634 24.3822 31.7035 24.8278 31.7917C24.9364 31.8149 25.0335 31.875 25.1026 31.9618C25.1718 32.0486 25.2086 32.1567 25.207 32.2677V35.7152L28.4165 35.7187Z" stroke="#404040" stroke-linecap="round" stroke-linejoin="round"/>
<path d="M25.207 32.2712C25.2087 32.1602 25.1718 32.0521 25.1026 31.9653C25.0335 31.8785 24.9364 31.8184 24.8279 31.7952C24.3822 31.707 23.9809 31.4669 23.6925 31.1158C23.4041 30.7647 23.2465 30.3245 23.2465 29.8702C23.2465 29.4158 23.4041 28.9756 23.6925 28.6245C23.9809 28.2735 24.3822 28.0334 24.8279 27.9452C24.9364 27.9215 25.0334 27.8611 25.1025 27.7742C25.1716 27.6872 25.2085 27.5791 25.207 27.468V25.4555H23.1945C23.0836 25.4569 22.9756 25.4199 22.8889 25.3508C22.8021 25.2817 22.7419 25.1848 22.7185 25.0763C22.6303 24.6307 22.3902 24.2294 22.0392 23.941C21.6881 23.6526 21.2479 23.495 20.7935 23.495C20.3392 23.495 19.899 23.6526 19.5479 23.941C19.1968 24.2294 18.9567 24.6307 18.8685 25.0763C18.8447 25.1847 18.7842 25.2816 18.6973 25.3507C18.6104 25.4197 18.5024 25.4568 18.3914 25.4555H16.7417C16.8036 26.733 17.1513 27.9803 17.7593 29.1056C18.3673 30.2308 19.2199 31.2054 20.2545 31.9573C20.8645 32.3797 21.3653 32.941 21.7156 33.595C22.0659 34.249 22.2557 34.9769 22.2694 35.7187H25.207V32.2712Z" stroke="#404040" stroke-linecap="round" stroke-linejoin="round"/>
<path d="M25.585 19.1158C25.4767 19.0919 25.3799 19.0314 25.3111 18.9445C25.2422 18.8576 25.2054 18.7496 25.207 18.6387V16.0557C22.9475 16.0878 20.7915 17.0078 19.2048 18.6167C17.6182 20.2257 16.7283 22.3943 16.7276 24.654C16.7148 24.9247 16.7276 25.1895 16.7416 25.4555H18.3901C18.5011 25.4568 18.6092 25.4197 18.6961 25.3507C18.783 25.2816 18.8434 25.1847 18.8673 25.0763C18.9555 24.6306 19.1956 24.2294 19.5467 23.941C19.8977 23.6526 20.338 23.495 20.7923 23.495C21.2466 23.495 21.6869 23.6526 22.0379 23.941C22.389 24.2294 22.6291 24.6306 22.7173 25.0763C22.7407 25.1847 22.8009 25.2817 22.8877 25.3508C22.9744 25.4199 23.0824 25.4569 23.1933 25.4555H25.207V23.443C25.2054 23.3321 25.2422 23.2241 25.3111 23.1372C25.3799 23.0502 25.4767 22.9897 25.585 22.9658C26.0317 22.8788 26.4342 22.6392 26.7236 22.288C27.013 21.9368 27.1712 21.4959 27.1712 21.0408C27.1712 20.5858 27.013 20.1448 26.7236 19.7936C26.4342 19.4424 26.0317 19.2028 25.585 19.1158Z" stroke="#404040" stroke-linecap="round" stroke-linejoin="round"/>
<path d="M22.2297 39.6935H28.5495" stroke="#404040" stroke-linecap="round" stroke-linejoin="round"/>
<path d="M22.2297 37.716H28.5495" stroke="#404040" stroke-linecap="round" stroke-linejoin="round"/>
<path d="M25.389 39.6935V41.4167" stroke="#404040" stroke-linecap="round" stroke-linejoin="round"/>
<defs>
<linearGradient id="paint0_linear_1483_30092" x1="28" y1="0" x2="28" y2="56" gradientUnits="userSpaceOnUse">
<stop stop-color="#39B6D8"/>
<stop offset="0.5" stop-color="#F7D344"/>
<stop offset="1" stop-color="#E38330"/>
</linearGradient>
</defs>
</svg>
