<svg width="56" height="56" viewBox="0 0 56 56" fill="none" xmlns="http://www.w3.org/2000/svg">
<circle cx="28" cy="28" r="27.3333" fill="#F6F6F6" stroke="url(#paint0_linear_74_74608)" stroke-width="1.33333"/>
<path d="M36.0586 19.0673H19.5586C19.1608 19.0673 18.7792 19.2254 18.4979 19.5067C18.2166 19.788 18.0586 20.1695 18.0586 20.5673V34.0673C18.0586 34.4651 18.2166 34.8467 18.4979 35.128C18.7792 35.4093 19.1608 35.5673 19.5586 35.5673H36.0586C36.4564 35.5673 36.8379 35.4093 37.1193 35.128C37.4006 34.8467 37.5586 34.4651 37.5586 34.0673V20.5673C37.5586 20.1695 37.4006 19.788 37.1193 19.5067C36.8379 19.2254 36.4564 19.0673 36.0586 19.0673ZM36.0586 20.5673V23.5673H19.5586V20.5673H36.0586ZM36.0586 34.0673H19.5586V25.0673H36.0586V34.0673Z" fill="black"/>
<defs>
<linearGradient id="paint0_linear_74_74608" x1="28" y1="0" x2="28" y2="56" gradientUnits="userSpaceOnUse">
<stop stop-color="#39B6D8"/>
<stop offset="0.5" stop-color="#F7D344"/>
<stop offset="1" stop-color="#E38330"/>
</linearGradient>
</defs>
</svg>
