<svg width="20" height="21" viewBox="0 0 20 21" fill="none" xmlns="http://www.w3.org/2000/svg">
<path d="M17.5 4.25H2.5C2.33424 4.25 2.17527 4.31585 2.05806 4.43306C1.94085 4.55027 1.875 4.70924 1.875 4.875V15.5C1.875 15.8315 2.0067 16.1495 2.24112 16.3839C2.47554 16.6183 2.79348 16.75 3.125 16.75H16.875C17.2065 16.75 17.5245 16.6183 17.7589 16.3839C17.9933 16.1495 18.125 15.8315 18.125 15.5V4.875C18.125 4.70924 18.0592 4.55027 17.9419 4.43306C17.8247 4.31585 17.6658 4.25 17.5 4.25ZM15.893 5.5L10 10.9023L4.10703 5.5H15.893ZM16.875 15.5H3.125V6.29609L9.57734 12.2109C9.69265 12.3168 9.84348 12.3755 10 12.3755C10.1565 12.3755 10.3074 12.3168 10.4227 12.2109L16.875 6.29609V15.5Z" fill="url(#paint0_linear_4_93804)"/>
<defs>
<linearGradient id="paint0_linear_4_93804" x1="10" y1="4.25" x2="10" y2="16.75" gradientUnits="userSpaceOnUse">
<stop stop-color="#39B6D8"/>
<stop offset="0.5" stop-color="#F7D344"/>
<stop offset="1" stop-color="#E38330"/>
</linearGradient>
</defs>
</svg>
