<svg width="40" height="40" viewBox="0 0 40 40" fill="none" xmlns="http://www.w3.org/2000/svg">
<circle cx="20" cy="20" r="19.2857" fill="#060606" stroke="url(#paint0_linear_4255_1353)" stroke-width="1.42857"/>
<path d="M15.6864 15.41C18.0944 15.41 19.7184 17.398 19.7184 20.31C19.7184 23.236 18.0944 25.21 15.6864 25.21C13.2784 25.21 11.6544 23.236 11.6544 20.31C11.6544 17.398 13.2784 15.41 15.6864 15.41ZM15.6864 23.46C16.9744 23.46 17.7864 22.172 17.7864 20.31C17.7864 18.448 16.9744 17.16 15.6864 17.16C14.3984 17.16 13.5864 18.448 13.5864 20.31C13.5864 22.172 14.3984 23.46 15.6864 23.46ZM28.6086 23.11H27.4466V25H25.5986V23.11H20.6286V21.36L24.9266 15.62H27.4466V21.57H28.6086V23.11ZM25.5986 21.57V17.468L22.7146 21.57H25.5986Z" fill="url(#paint1_linear_4255_1353)"/>
<defs>
<linearGradient id="paint0_linear_4255_1353" x1="20" y1="0" x2="20" y2="40" gradientUnits="userSpaceOnUse">
<stop stop-color="#39B6D8"/>
<stop offset="0.5" stop-color="#F7D344"/>
<stop offset="1" stop-color="#E38330"/>
</linearGradient>
<linearGradient id="paint1_linear_4255_1353" x1="12.4516" y1="13" x2="29.6691" y2="14.0523" gradientUnits="userSpaceOnUse">
<stop stop-color="#39B6D8"/>
<stop offset="0.5" stop-color="#F7D344"/>
<stop offset="1" stop-color="#E38330"/>
</linearGradient>
</defs>
</svg>
