<svg width="24" height="22" viewBox="0 0 24 22" fill="none" xmlns="http://www.w3.org/2000/svg">
<path d="M23.6028 6.338L12.3528 0.338C12.2442 0.28022 12.1232 0.25 12.0003 0.25C11.8773 0.25 11.7563 0.28022 11.6478 0.338L0.397754 6.338C0.277758 6.40195 0.177405 6.49732 0.107429 6.6139C0.0374533 6.73049 0.000488281 6.8639 0.000488281 6.99988C0.000488281 7.13585 0.0374533 7.26926 0.107429 7.38585C0.177405 7.50243 0.277758 7.5978 0.397754 7.66175L3.00025 9.05019V13.5896C2.99947 13.958 3.13506 14.3136 3.38088 14.588C4.609 15.9558 7.36057 18.2499 12.0003 18.2499C13.5386 18.2626 15.0655 17.9839 16.5003 17.4286V20.4999C16.5003 20.6988 16.5793 20.8896 16.7199 21.0302C16.8606 21.1709 17.0513 21.2499 17.2503 21.2499C17.4492 21.2499 17.6399 21.1709 17.7806 21.0302C17.9212 20.8896 18.0003 20.6988 18.0003 20.4999V16.7039C18.9783 16.1394 19.862 15.4254 20.6196 14.588C20.8655 14.3136 21.001 13.958 21.0003 13.5896V9.05019L23.6028 7.66175C23.7227 7.5978 23.8231 7.50243 23.8931 7.38585C23.9631 7.26926 24 7.13585 24 6.99988C24 6.8639 23.9631 6.73049 23.8931 6.6139C23.8231 6.49732 23.7227 6.40195 23.6028 6.338ZM12.0003 16.7499C7.94369 16.7499 5.55775 14.768 4.50025 13.5896V9.84987L11.6478 13.6618C11.7563 13.7195 11.8773 13.7498 12.0003 13.7498C12.1232 13.7498 12.2442 13.7195 12.3528 13.6618L16.5003 11.4502V15.7946C15.319 16.3458 13.8303 16.7499 12.0003 16.7499ZM19.5003 13.5858C19.0507 14.0847 18.5477 14.5327 18.0003 14.9218V10.6496L19.5003 9.84987V13.5858ZM17.6253 9.1505L17.6046 9.13831L12.3546 6.338C12.1795 6.24853 11.9762 6.23145 11.7885 6.29044C11.6009 6.34943 11.444 6.47976 11.3515 6.65337C11.259 6.82697 11.2385 7.02994 11.2942 7.21855C11.35 7.40717 11.4776 7.56633 11.6496 7.66175L16.0315 9.99988L12.0003 12.1496L2.344 6.99988L12.0003 1.85019L21.6565 6.99988L17.6253 9.1505Z" fill="url(#paint0_linear_4_98192)"/>
<defs>
<linearGradient id="paint0_linear_4_98192" x1="12.0003" y1="0.25" x2="12.0003" y2="21.2499" gradientUnits="userSpaceOnUse">
<stop stop-color="#39B6D8"/>
<stop offset="0.5" stop-color="#F7D344"/>
<stop offset="1" stop-color="#E38330"/>
</linearGradient>
</defs>
</svg>
