<svg width="20" height="21" viewBox="0 0 20 21" fill="none" xmlns="http://www.w3.org/2000/svg">
<path d="M11.8961 3.46337C11.9173 3.38405 11.954 3.30969 12.0039 3.24453C12.0539 3.17938 12.1162 3.12471 12.1873 3.08364C12.2584 3.04258 12.3369 3.01592 12.4183 3.00521C12.4997 2.99449 12.5824 2.99992 12.6617 3.02118C13.8204 3.32348 14.8775 3.92918 15.7242 4.7759C16.5709 5.62261 17.1766 6.67972 17.4789 7.83837C17.5002 7.91767 17.5056 8.00039 17.4949 8.0818C17.4842 8.1632 17.4575 8.2417 17.4165 8.3128C17.3754 8.3839 17.3207 8.44621 17.2556 8.49618C17.1904 8.54614 17.116 8.58278 17.0367 8.60399C16.9839 8.61786 16.9296 8.62495 16.875 8.62509C16.7373 8.62508 16.6034 8.57959 16.4942 8.49567C16.385 8.41175 16.3066 8.29411 16.2711 8.16102C16.0245 7.21518 15.5302 6.3522 14.8391 5.66104C14.1479 4.96988 13.2849 4.47555 12.3391 4.22899C12.2597 4.20786 12.1852 4.17128 12.12 4.12136C12.0548 4.07143 12 4.00913 11.9589 3.93802C11.9177 3.86691 11.891 3.78838 11.8802 3.70694C11.8695 3.62549 11.8749 3.54273 11.8961 3.46337ZM11.7141 6.72899C12.7914 7.01649 13.4836 7.70868 13.7711 8.78602C13.8066 8.91911 13.885 9.03675 13.9942 9.12067C14.1034 9.20459 14.2373 9.25008 14.375 9.25009C14.4296 9.24995 14.4839 9.24286 14.5367 9.22899C14.616 9.20778 14.6904 9.17114 14.7556 9.12118C14.8207 9.07121 14.8754 9.0089 14.9165 8.9378C14.9575 8.8667 14.9842 8.7882 14.9949 8.7068C15.0056 8.62539 15.0002 8.54267 14.9789 8.46337C14.5789 6.96649 13.5336 5.92118 12.0367 5.52118C11.9574 5.49999 11.8747 5.49464 11.7933 5.50541C11.712 5.51619 11.6335 5.54289 11.5624 5.58398C11.4914 5.62508 11.4291 5.67977 11.3792 5.74493C11.3293 5.8101 11.2927 5.88445 11.2715 5.96376C11.2503 6.04306 11.2449 6.12577 11.2557 6.20714C11.2665 6.28852 11.2932 6.36698 11.3343 6.43804C11.3754 6.50909 11.4301 6.57136 11.4952 6.62128C11.5604 6.67121 11.6348 6.70781 11.7141 6.72899ZM18.1156 14.1782C17.9763 15.2368 17.4564 16.2085 16.6531 16.9119C15.8497 17.6152 14.8177 18.002 13.75 18.0001C7.54688 18.0001 2.50001 12.9532 2.50001 6.75009C2.49809 5.68234 2.88492 4.65042 3.58824 3.84704C4.29155 3.04366 5.26326 2.52376 6.32188 2.38446C6.58958 2.35177 6.86067 2.40654 7.09468 2.54058C7.3287 2.67463 7.51309 2.88076 7.62032 3.12821L9.27032 6.8118V6.82118C9.35242 7.0106 9.38633 7.2174 9.36901 7.42311C9.3517 7.62883 9.2837 7.82706 9.1711 8.00009C9.15704 8.02118 9.14219 8.04071 9.12657 8.06024L7.50001 9.98837C8.08516 11.1774 9.32891 12.4102 10.5336 12.997L12.4352 11.379C12.4538 11.3633 12.4734 11.3487 12.4938 11.3352C12.6666 11.2199 12.8655 11.1495 13.0725 11.1304C13.2794 11.1114 13.4878 11.1441 13.6789 11.2259L13.6891 11.2306L17.3695 12.8798C17.6174 12.9866 17.8241 13.1709 17.9585 13.4049C18.093 13.6389 18.1481 13.9102 18.1156 14.1782ZM16.875 14.022C16.875 14.022 16.8695 14.022 16.8664 14.022L13.1945 12.3774L11.2922 13.9954C11.2737 14.011 11.2544 14.0256 11.2344 14.0391C11.0545 14.1592 10.8466 14.2304 10.6309 14.2461C10.4152 14.2617 10.1992 14.2211 10.0039 14.1282C8.54063 13.4212 7.08204 11.9735 6.37423 10.5259C6.2805 10.332 6.23844 10.1172 6.25213 9.90232C6.26582 9.68743 6.33478 9.47971 6.45235 9.2993C6.4656 9.27812 6.48049 9.25801 6.49688 9.23915L8.12501 7.30868L6.48438 3.6368C6.48407 3.63369 6.48407 3.63055 6.48438 3.62743C5.72677 3.72626 5.03116 4.09787 4.52783 4.67268C4.0245 5.24748 3.74796 5.98606 3.75001 6.75009C3.7529 9.40136 4.8074 11.9432 6.68214 13.818C8.55687 15.6927 11.0987 16.7472 13.75 16.7501C14.5136 16.7527 15.2519 16.4771 15.8271 15.9749C16.4022 15.4727 16.7747 14.7781 16.875 14.0212V14.022Z" fill="url(#paint0_linear_4_93811)"/>
<defs>
<linearGradient id="paint0_linear_4_93811" x1="10.3124" y1="2.37524" x2="10.3124" y2="18.0001" gradientUnits="userSpaceOnUse">
<stop stop-color="#39B6D8"/>
<stop offset="0.5" stop-color="#F7D344"/>
<stop offset="1" stop-color="#E38330"/>
</linearGradient>
</defs>
</svg>
