<svg width="53" height="52" viewBox="0 0 53 52" fill="none" xmlns="http://www.w3.org/2000/svg">
<rect x="1.04492" y="0.75" width="50.5" height="50.5" rx="25.25" stroke="#404040" stroke-width="1.5"/>
<path d="M24.7471 18.9341C24.5709 18.7584 24.3533 18.6299 24.1144 18.5604C23.8755 18.491 23.623 18.4829 23.3801 18.5368C23.1372 18.5907 22.9118 18.7049 22.7247 18.8689C22.5376 19.0328 22.3949 19.2413 22.3096 19.475L17.3886 33.0106C17.3078 33.2338 17.2817 33.4732 17.3125 33.7086C17.3433 33.944 17.4301 34.1685 17.5657 34.3634C17.7012 34.5583 17.8816 34.7178 18.0915 34.8286C18.3015 34.9394 18.535 34.9981 18.7724 35C18.9472 34.9988 19.1204 34.9671 19.2842 34.9063L32.8189 29.9844C33.0527 29.8992 33.2613 29.7565 33.4253 29.5694C33.5894 29.3824 33.7037 29.157 33.7577 28.9141C33.8117 28.6712 33.8037 28.4186 33.7343 28.1797C33.6649 27.9407 33.5365 27.7231 33.3608 27.5469L24.7471 18.9341ZM23.9661 31.61L20.6849 28.3288L21.9186 24.9341L27.3608 30.3763L23.9661 31.61ZM18.8099 33.485L20.1224 29.8841L22.4146 32.1763L18.8099 33.485ZM28.9199 29.81L22.4849 23.375L23.7036 20.0122L32.2752 28.5838L28.9199 29.81ZM29.2949 20.75C29.309 20.243 29.4317 19.7449 29.6549 19.2894C30.1517 18.2966 31.0892 17.75 32.2949 17.75C32.923 17.75 33.3261 17.5353 33.5746 17.0741C33.7054 16.816 33.7804 16.5333 33.7949 16.2444C33.7956 16.0455 33.8754 15.855 34.0165 15.7149C34.1577 15.5747 34.3488 15.4964 34.5477 15.4972C34.7466 15.4979 34.9371 15.5777 35.0772 15.7188C35.2173 15.86 35.2956 16.0511 35.2949 16.25C35.2949 17.4556 34.4961 19.25 32.2949 19.25C31.6667 19.25 31.2636 19.4647 31.0152 19.9259C30.8844 20.184 30.8093 20.4667 30.7949 20.7556C30.7945 20.8541 30.7747 20.9516 30.7367 21.0424C30.6987 21.1333 30.6431 21.2157 30.5732 21.2851C30.5033 21.3545 30.4204 21.4094 30.3293 21.4468C30.2382 21.4841 30.1406 21.5032 30.0421 21.5028C29.9436 21.5024 29.8461 21.4827 29.7553 21.4446C29.6644 21.4066 29.5819 21.3511 29.5126 21.2812C29.4432 21.2112 29.3882 21.1284 29.3509 21.0372C29.3135 20.9461 29.2945 20.8485 29.2949 20.75ZM27.0449 17.75V15.5C27.0449 15.3011 27.1239 15.1103 27.2645 14.9697C27.4052 14.829 27.596 14.75 27.7949 14.75C27.9938 14.75 28.1846 14.829 28.3252 14.9697C28.4659 15.1103 28.5449 15.3011 28.5449 15.5V17.75C28.5449 17.9489 28.4659 18.1397 28.3252 18.2803C28.1846 18.421 27.9938 18.5 27.7949 18.5C27.596 18.5 27.4052 18.421 27.2645 18.2803C27.1239 18.1397 27.0449 17.9489 27.0449 17.75ZM36.5755 25.4694C36.6451 25.5391 36.7003 25.6218 36.738 25.7128C36.7756 25.8038 36.795 25.9014 36.795 25.9999C36.7949 26.0984 36.7755 26.1959 36.7377 26.2869C36.7 26.3779 36.6447 26.4605 36.575 26.5302C36.5053 26.5998 36.4226 26.655 36.3316 26.6926C36.2406 26.7303 36.143 26.7497 36.0445 26.7496C35.946 26.7496 35.8485 26.7301 35.7575 26.6924C35.6665 26.6547 35.5839 26.5994 35.5142 26.5297L34.0142 25.0297C33.8735 24.889 33.7945 24.6981 33.7945 24.4991C33.7945 24.3 33.8735 24.1092 34.0142 23.9684C34.155 23.8277 34.3458 23.7486 34.5449 23.7486C34.7439 23.7486 34.9348 23.8277 35.0755 23.9684L36.5755 25.4694ZM37.0321 21.4616L34.7821 22.2116C34.5933 22.2745 34.3874 22.2598 34.2094 22.1709C34.0315 22.0819 33.8962 21.9259 33.8333 21.7372C33.7704 21.5485 33.785 21.3425 33.874 21.1646C33.963 20.9866 34.119 20.8513 34.3077 20.7884L36.5577 20.0384C36.7464 19.9755 36.9524 19.9902 37.1303 20.0791C37.3082 20.1681 37.4435 20.3241 37.5064 20.5128C37.5693 20.7015 37.5547 20.9075 37.4657 21.0854C37.3768 21.2634 37.2208 21.3987 37.0321 21.4616Z" fill="white"/>
</svg>
