<svg width="80" height="60" viewBox="0 0 80 60" fill="none" xmlns="http://www.w3.org/2000/svg">
<rect width="80" height="60" rx="5" fill="#090909"/>
<g clip-path="url(#clip0_325_356)">
<path d="M49.5 27V37M33.5 27V37M30.5 27V37M46.5 27V37M30 39H50M28 41.5H52M40 29H39C38.4477 29 38 29.4476 38 29.9999V30.375C38 30.8195 38.2933 31.2106 38.72 31.335L41.28 32.0817C41.7067 32.2061 42 32.597 42 33.0415V34.0003C42 34.5526 41.5523 35 41 35H40M40 29H41C41.5523 29 42 29.4477 42 30V30.5008M40 29V27M40 35H39C38.4477 35 38 34.5523 38 34V33.4995M40 35V37M51.5 24.25V25H28.5V24.25C33.5 22.5 36.5 21 39.75 18.5H40.25C43.5 21 46.5 22.5 51.5 24.25Z" stroke="white"/>
<path d="M49.5 27V37M33.5 27V37M30.5 27V37M46.5 27V37M40 29H39C38.4477 29 38 29.4476 38 29.9999V30.375C38 30.8195 38.2933 31.2106 38.72 31.335L41.28 32.0817C41.7067 32.2061 42 32.597 42 33.0415V34.0003C42 34.5526 41.5523 35 41 35H40M40 29H41C41.5523 29 42 29.4477 42 30V30.5008M40 29V27M40 35H39C38.4477 35 38 34.5523 38 34V33.4995M40 35V37" stroke="url(#paint0_linear_325_356)"/>
</g>
<defs>
<linearGradient id="paint0_linear_325_356" x1="28.8911" y1="27" x2="48.9379" y2="27.3043" gradientUnits="userSpaceOnUse">
<stop stop-color="#39B6D8"/>
<stop offset="0.5" stop-color="#F7D344"/>
<stop offset="1" stop-color="#E38330"/>
</linearGradient>
<clipPath id="clip0_325_356">
<rect width="24" height="24" fill="white" transform="translate(28 18)"/>
</clipPath>
</defs>
</svg>
