<svg width="48" height="48" viewBox="0 0 48 48" fill="none" xmlns="http://www.w3.org/2000/svg">
<path d="M-4.57764e-05 0H47.9971V48H-4.57764e-05V0Z" fill="#CF8D2A"/>
<path d="M4.12048 5.98304C4.03739 6.02805 3.7965 6.12253 3.39733 6.26549C3.08077 6.37135 2.88143 6.44258 2.79883 6.48017V5.1807C3.05455 5.08275 3.36518 4.93238 3.73071 4.72907C4.09575 4.52527 4.35395 4.34076 4.50481 4.17505H5.87198V13.3278H4.12048V5.98304Z" fill="white"/>
<path d="M6.84375 12.0961L9.05822 8.6725L9.19375 8.4687C9.48014 8.03934 9.69085 7.68021 9.82688 7.38985C9.96191 7.09997 10.0302 6.78191 10.0302 6.43515C10.0302 6.14132 9.97329 5.91724 9.86051 5.7629C9.74773 5.60857 9.5855 5.5314 9.37478 5.5314C9.05822 5.5314 8.83959 5.6516 8.71939 5.8925C8.5987 6.1339 8.53836 6.46532 8.53836 6.88677V7.30526H6.84375V6.85314C6.84375 5.9944 7.04507 5.31474 7.44819 4.81365C7.85082 4.31255 8.48197 4.06226 9.34065 4.06226C10.1316 4.06226 10.7325 4.271 11.1431 4.68949C11.5536 5.10748 11.7589 5.70058 11.7589 6.46879C11.7589 6.81554 11.706 7.1435 11.6006 7.45217C11.4948 7.76084 11.3706 8.03587 11.2277 8.27677C11.0842 8.51817 10.8621 8.86047 10.5609 9.30518L8.79854 11.9491H11.5215V13.3278H6.84375V12.0961Z" fill="white"/>
<path d="M36.4651 24.9092C34.3357 23.2273 31.5144 23.1927 30.4811 23.4386L30.3614 23.4663C29.1678 23.7482 27.2724 24.2147 25.054 26.968C25.0416 26.9828 25.0288 26.9986 25.0169 27.0145L24.9892 27.0486C24.9674 27.0793 24.9521 27.1154 24.9521 27.1559C24.9521 27.1891 24.96 27.2198 24.9763 27.248L25.0278 27.3325C25.3062 27.7985 25.6574 28.398 25.9542 28.9506C25.9567 28.9565 25.9597 28.961 25.9621 28.9679C25.9938 29.0287 26.0571 29.0718 26.1313 29.0718C26.1827 29.0718 26.2292 29.0515 26.2624 29.0183C26.2762 29.0005 26.2906 28.9812 26.3029 28.962C28.2721 26.2388 29.8207 25.8624 30.8679 25.6161L30.9935 25.5869C31.5371 25.4563 33.6042 25.4642 35.0965 26.642C36.2609 27.5616 36.8519 29.0248 36.8519 30.9901C36.8519 34.2875 35.2483 35.5776 33.9025 36.0787C31.8181 36.8582 29.8188 35.8165 29.8039 35.8086L29.7144 35.765C28.5693 35.2674 26.8604 34.2331 25.2499 30.998C22.0036 24.4783 19.2885 23.864 17.4916 23.4574L17.3956 23.4356C16.5775 23.2501 13.7363 23.119 11.503 24.9018C10.3362 25.8327 8.94629 27.6427 8.94629 30.9772C8.94629 33.0088 9.36376 34.3503 10.4361 35.7616C10.6716 36.0831 13.0755 39.1718 17.7235 38.2809C18.4675 38.1384 19.475 37.7833 20.5835 36.9527L21.6064 37.8753C21.6732 37.9361 21.7795 37.9312 21.8408 37.8639C21.8705 37.8327 21.8824 37.7927 21.8819 37.7531V37.7392L22.6199 33.1992L22.6204 33.1488C22.6199 33.1047 22.6021 33.0597 22.5655 33.0281C22.5343 32.9984 22.4957 32.987 22.4572 32.987L22.4255 32.99L22.3775 32.9949L18.0297 34.2123L17.9506 34.2252C17.9189 34.2321 17.8897 34.2484 17.8675 34.2736C17.8042 34.3429 17.8101 34.4482 17.8798 34.5096L17.9308 34.5571L18.9052 35.4366C18.276 35.8442 17.7275 36.0312 17.309 36.1123C13.9465 36.7534 12.286 34.5511 12.2232 34.4646L12.1995 34.4324C11.4185 33.4065 11.1543 32.5349 11.1543 30.9772C11.1543 29.0055 11.735 27.5418 12.8801 26.6272C14.3343 25.4667 16.34 25.4598 16.9064 25.5889L17.0043 25.6111C18.4769 25.944 20.494 26.4006 23.2723 31.9824C24.7157 34.8801 26.5235 36.7751 28.7983 37.7744C29.0877 37.9218 30.4692 38.5772 32.2613 38.5772C33.0111 38.5772 33.8322 38.4624 34.6746 38.1493C35.9928 37.6571 39.06 35.9758 39.06 30.9901C39.06 27.658 37.6488 25.8441 36.4651 24.9092Z" fill="white"/>
<path d="M15.2715 7.66695V4.16919H16.1092C16.3467 4.16919 16.5453 4.19942 16.705 4.25555C16.8691 4.31169 16.9943 4.40669 17.0764 4.54056C17.1627 4.67442 17.2059 4.86011 17.2059 5.09329C17.2059 5.23579 17.193 5.36102 17.1671 5.47329C17.1412 5.58557 17.098 5.68057 17.0332 5.76261C16.9728 5.84034 16.8864 5.9008 16.7784 5.94398L17.2664 7.66695H16.6273L16.2042 6.06489H15.9105V7.66695H15.2715ZM15.9105 5.66329H16.1092C16.2344 5.66329 16.3294 5.64602 16.4028 5.61148C16.4762 5.57261 16.5323 5.51648 16.5625 5.43875C16.5928 5.3567 16.61 5.25738 16.61 5.13215C16.61 4.95511 16.5755 4.82556 16.5107 4.73919C16.446 4.64851 16.3251 4.60533 16.1437 4.60533H15.9105V5.66329Z" fill="white"/>
<path d="M17.5537 7.66695V4.16919H19.0218V4.61828H18.1928V5.62443H18.8448V6.06921H18.1928V7.22649H19.0304V7.66695H17.5537Z" fill="white"/>
<path d="M20.142 7.7145C19.9304 7.7145 19.7577 7.67563 19.6152 7.59359C19.4727 7.51154 19.3691 7.39063 19.2957 7.23085C19.2223 7.07108 19.1834 6.87676 19.1748 6.64789L19.7232 6.53994C19.7275 6.6738 19.7448 6.79471 19.7707 6.89835C19.8009 7.00199 19.8398 7.08404 19.8959 7.14017C19.952 7.19631 20.0298 7.22222 20.1204 7.22222C20.2241 7.22222 20.2975 7.19199 20.3406 7.13154C20.3838 7.06676 20.4054 6.98903 20.4054 6.89403C20.4054 6.7429 20.3709 6.61767 20.3018 6.51835C20.2327 6.41903 20.142 6.32403 20.0254 6.22471L19.585 5.83607C19.4598 5.72811 19.3605 5.61152 19.2871 5.48197C19.2137 5.34811 19.1791 5.18834 19.1791 4.99402C19.1791 4.71765 19.2612 4.50606 19.4209 4.35492C19.5807 4.20378 19.8009 4.13037 20.0816 4.13037C20.2457 4.13037 20.3838 4.15628 20.4918 4.2081C20.5997 4.2556 20.6861 4.32469 20.7509 4.41537C20.8156 4.50606 20.8674 4.60538 20.8977 4.72197C20.9279 4.83424 20.9495 4.95515 20.9581 5.08038L20.4141 5.17538C20.4097 5.06743 20.3968 4.96811 20.3752 4.88174C20.3579 4.79538 20.3234 4.72629 20.2759 4.67879C20.2284 4.63129 20.1593 4.60538 20.0686 4.60538C19.9736 4.60538 19.9002 4.6356 19.8484 4.70038C19.8009 4.76083 19.775 4.83856 19.775 4.92924C19.775 5.04583 19.8009 5.14515 19.8484 5.22288C19.8959 5.29629 19.9693 5.37402 20.06 5.45607L20.4961 5.84039C20.6386 5.9613 20.7638 6.1038 20.8631 6.26789C20.9668 6.42767 21.0186 6.6263 21.0186 6.85517C21.0186 7.02358 20.9797 7.1704 20.9063 7.29995C20.8329 7.42949 20.7336 7.53313 20.5997 7.60654C20.4702 7.67995 20.3191 7.7145 20.142 7.7145Z" fill="white"/>
<path d="M21.2539 7.66695V4.16919H22.2816C22.4932 4.16919 22.6616 4.20805 22.7911 4.28578C22.925 4.36351 23.0199 4.47578 23.0804 4.62692C23.1452 4.77374 23.1754 4.95079 23.1754 5.16238C23.1754 5.39125 23.1365 5.57261 23.0588 5.71511C22.9811 5.8533 22.8731 5.95262 22.7306 6.01739C22.5925 6.08216 22.4284 6.11239 22.2384 6.11239H21.893V7.66695H21.2539ZM21.893 5.66329H22.1348C22.2514 5.66329 22.3377 5.64602 22.4025 5.61579C22.4672 5.58125 22.5147 5.52943 22.5363 5.45602C22.5622 5.38261 22.5752 5.28329 22.5752 5.15806C22.5752 5.03283 22.5666 4.9292 22.545 4.85147C22.5277 4.76942 22.4888 4.71329 22.4241 4.67442C22.3636 4.63556 22.2686 4.61828 22.1348 4.61828H21.893V5.66329Z" fill="white"/>
<path d="M24.3397 7.7145C24.0935 7.7145 23.8949 7.667 23.7481 7.57631C23.6013 7.48563 23.4977 7.35177 23.4329 7.17904C23.3681 7.00631 23.3379 6.80335 23.3379 6.56585V5.25743C23.3379 5.01992 23.3681 4.82129 23.4329 4.65288C23.4977 4.48447 23.6013 4.35492 23.7481 4.26424C23.8949 4.17355 24.0935 4.13037 24.3397 4.13037C24.5944 4.13037 24.793 4.17355 24.9355 4.26424C25.0823 4.35492 25.186 4.48447 25.2507 4.65288C25.3155 4.82129 25.3501 5.01992 25.3501 5.25743V6.57017C25.3501 6.80335 25.3155 7.00631 25.2507 7.17904C25.186 7.34745 25.0823 7.48131 24.9355 7.57631C24.793 7.667 24.5944 7.7145 24.3397 7.7145ZM24.3397 7.24381C24.4476 7.24381 24.5253 7.22222 24.5728 7.17472C24.6246 7.12722 24.6592 7.06676 24.6765 6.98472C24.6937 6.90267 24.7024 6.81631 24.7024 6.7213V5.11061C24.7024 5.01129 24.6937 4.92492 24.6765 4.8472C24.6592 4.76947 24.6246 4.70901 24.5728 4.66583C24.5253 4.61833 24.4476 4.59674 24.3397 4.59674C24.2403 4.59674 24.1626 4.61833 24.1108 4.66583C24.059 4.70901 24.0244 4.76947 24.0072 4.8472C23.9899 4.92492 23.9813 5.01129 23.9813 5.11061V6.7213C23.9813 6.81631 23.9899 6.90267 24.0029 6.98472C24.0201 7.06676 24.0547 7.12722 24.1065 7.17472C24.1583 7.22222 24.236 7.24381 24.3397 7.24381Z" fill="white"/>
<path d="M25.6797 7.66695V4.16919H26.1244L26.9751 6.16421V4.16919H27.5019V7.66695H27.0787L26.2237 5.57693V7.66695H25.6797Z" fill="white"/>
<path d="M28.7739 7.7145C28.5623 7.7145 28.3896 7.67563 28.2471 7.59359C28.1046 7.51154 28.0009 7.39063 27.9275 7.23085C27.8541 7.07108 27.8153 6.87676 27.8066 6.64789L28.355 6.53994C28.3593 6.6738 28.3766 6.79471 28.4025 6.89835C28.4327 7.00199 28.4716 7.08404 28.5277 7.14017C28.5839 7.19631 28.6616 7.22222 28.7523 7.22222C28.8559 7.22222 28.9293 7.19199 28.9725 7.13154C29.0157 7.06676 29.0373 6.98903 29.0373 6.89403C29.0373 6.7429 29.0027 6.61767 28.9336 6.51835C28.8645 6.41903 28.7739 6.32403 28.6573 6.22471L28.2168 5.83607C28.0916 5.72811 27.9923 5.61152 27.9189 5.48197C27.8455 5.34811 27.811 5.18834 27.811 4.99402C27.811 4.71765 27.893 4.50606 28.0528 4.35492C28.2125 4.20378 28.4327 4.13037 28.7134 4.13037C28.8775 4.13037 29.0157 4.15628 29.1236 4.2081C29.2316 4.2556 29.3179 4.32469 29.3827 4.41537C29.4475 4.50606 29.4993 4.60538 29.5295 4.72197C29.5597 4.83424 29.5813 4.95515 29.59 5.08038L29.0459 5.17538C29.0416 5.06743 29.0286 4.96811 29.007 4.88174C28.9898 4.79538 28.9552 4.72629 28.9077 4.67879C28.8602 4.63129 28.7911 4.60538 28.7005 4.60538C28.6055 4.60538 28.5321 4.6356 28.4802 4.70038C28.4327 4.76083 28.4068 4.83856 28.4068 4.92924C28.4068 5.04583 28.4327 5.14515 28.4802 5.22288C28.5277 5.29629 28.6011 5.37402 28.6918 5.45607L29.1279 5.84039C29.2704 5.9613 29.3956 6.1038 29.495 6.26789C29.5986 6.42767 29.6504 6.6263 29.6504 6.85517C29.6504 7.02358 29.6115 7.1704 29.5381 7.29995C29.4647 7.42949 29.3654 7.53313 29.2316 7.60654C29.102 7.67995 28.9509 7.7145 28.7739 7.7145Z" fill="white"/>
<path d="M30.5337 4.16919H29.9033V7.66695H30.5337V4.16919Z" fill="white"/>
<path d="M30.9326 7.66695V4.16919H31.7919C31.9473 4.16919 32.0855 4.18214 32.2107 4.21237C32.3359 4.2426 32.4439 4.2901 32.5346 4.35919C32.6253 4.42396 32.6987 4.51465 32.7462 4.63124C32.7937 4.74783 32.8196 4.89033 32.8196 5.06738C32.8196 5.20988 32.798 5.33079 32.7591 5.43011C32.7202 5.52943 32.6641 5.61148 32.5907 5.67193C32.5173 5.72807 32.4223 5.76693 32.31 5.78852C32.4482 5.81011 32.5605 5.86193 32.6512 5.93534C32.7418 6.00875 32.8109 6.10375 32.8541 6.22035C32.9016 6.33694 32.9232 6.47944 32.9232 6.64785C32.9232 6.81626 32.9016 6.96308 32.8584 7.09263C32.8196 7.21785 32.7548 7.32581 32.6727 7.41217C32.5907 7.49422 32.4914 7.55899 32.3662 7.60218C32.2453 7.64536 32.1028 7.66695 31.9387 7.66695H30.9326ZM31.5717 7.21785H31.8135C32.0078 7.21785 32.1373 7.17035 32.2064 7.07967C32.2755 6.98467 32.31 6.83785 32.31 6.64353C32.31 6.50103 32.2928 6.38876 32.2582 6.30239C32.228 6.21171 32.1719 6.14694 32.0941 6.10375C32.0207 6.06057 31.9171 6.03898 31.7919 6.03898H31.5717V7.21785ZM31.5717 5.59852H31.7876C31.9128 5.59852 32.0121 5.58125 32.0812 5.54238C32.1503 5.50352 32.1978 5.44738 32.2237 5.36966C32.2539 5.29193 32.2669 5.19261 32.2669 5.07602C32.2669 4.95079 32.2453 4.85579 32.2021 4.79101C32.1632 4.72192 32.0985 4.67442 32.0164 4.65283C31.9344 4.62692 31.8264 4.61397 31.6969 4.61397H31.5717V5.59852Z" fill="white"/>
<path d="M33.1973 7.66695V4.16919H33.8363V7.22649H34.6826V7.66695H33.1973Z" fill="white"/>
<path d="M34.875 7.66695V4.16919H36.3431V4.61828H35.5141V5.62443H36.1661V6.06921H35.5141V7.22649H36.3517V7.66695H34.875Z" fill="white"/>
<path d="M16.2129 13.4306C15.9581 13.4306 15.7552 13.3787 15.6083 13.2794C15.4658 13.1801 15.3622 13.0419 15.3061 12.8692C15.25 12.6921 15.2197 12.4935 15.2197 12.2646V11.0167C15.2197 10.7792 15.25 10.5719 15.3061 10.3948C15.3622 10.2178 15.4658 10.0839 15.6083 9.98894C15.7552 9.89394 15.9581 9.84644 16.2129 9.84644C16.4547 9.84644 16.6446 9.88962 16.7785 9.97166C16.9167 10.0537 17.016 10.1703 17.0721 10.3214C17.1283 10.4726 17.1585 10.6496 17.1585 10.8526V11.1462H16.5453V10.8439C16.5453 10.7446 16.541 10.6583 16.5281 10.5762C16.5194 10.4942 16.4935 10.4337 16.446 10.3862C16.4028 10.3387 16.3251 10.3128 16.2172 10.3128C16.1092 10.3128 16.0272 10.3387 15.9754 10.3905C15.9279 10.438 15.8933 10.5071 15.8804 10.5935C15.8674 10.6755 15.8588 10.7705 15.8588 10.8785V12.3985C15.8588 12.5237 15.8674 12.6317 15.889 12.7137C15.9106 12.7958 15.9451 12.8562 15.997 12.8994C16.0531 12.9383 16.1265 12.9599 16.2172 12.9599C16.3251 12.9599 16.3985 12.934 16.4417 12.8865C16.4892 12.8346 16.5151 12.7656 16.5281 12.6835C16.541 12.6015 16.5453 12.5065 16.5453 12.4028V12.0876H17.1585V12.3683C17.1585 12.5756 17.1326 12.7612 17.0764 12.921C17.0203 13.0808 16.9253 13.206 16.7871 13.2967C16.6533 13.3874 16.459 13.4306 16.2129 13.4306Z" fill="white"/>
<path d="M18.4129 13.4306C18.1668 13.4306 17.9681 13.3831 17.8213 13.2924C17.6745 13.2017 17.5709 13.0678 17.5061 12.8951C17.4414 12.7224 17.4111 12.5194 17.4111 12.2819V10.9735C17.4111 10.736 17.4414 10.5374 17.5061 10.3689C17.5709 10.2005 17.6745 10.071 17.8213 9.9803C17.9681 9.88962 18.1668 9.84644 18.4129 9.84644C18.6677 9.84644 18.8663 9.88962 19.0088 9.9803C19.1556 10.071 19.2592 10.2005 19.324 10.3689C19.3888 10.5374 19.4233 10.736 19.4233 10.9735V12.2862C19.4233 12.5194 19.3888 12.7224 19.324 12.8951C19.2592 13.0635 19.1556 13.1974 19.0088 13.2924C18.8663 13.3831 18.6677 13.4306 18.4129 13.4306ZM18.4129 12.9599C18.5208 12.9599 18.5986 12.9383 18.6461 12.8908C18.6979 12.8433 18.7324 12.7828 18.7497 12.7008C18.767 12.6187 18.7756 12.5324 18.7756 12.4374V10.8267C18.7756 10.7274 18.767 10.641 18.7497 10.5633C18.7324 10.4855 18.6979 10.4251 18.6461 10.3819C18.5986 10.3344 18.5208 10.3128 18.4129 10.3128C18.3136 10.3128 18.2359 10.3344 18.184 10.3819C18.1322 10.4251 18.0977 10.4855 18.0804 10.5633C18.0631 10.641 18.0545 10.7274 18.0545 10.8267V12.4374C18.0545 12.5324 18.0631 12.6187 18.0761 12.7008C18.0934 12.7828 18.1279 12.8433 18.1797 12.8908C18.2315 12.9383 18.3093 12.9599 18.4129 12.9599Z" fill="white"/>
<path d="M19.7539 13.3833V9.8855H20.1987L21.0493 11.8805V9.8855H21.5761V13.3833H21.1529L20.298 11.2932V13.3833H19.7539Z" fill="white"/>
<path d="M22.8471 13.4306C22.6355 13.4306 22.4628 13.3917 22.3203 13.3096C22.1778 13.2276 22.0742 13.1067 22.0008 12.9469C21.9274 12.7871 21.8885 12.5928 21.8799 12.364L22.4283 12.256C22.4326 12.3899 22.4499 12.5108 22.4758 12.6144C22.506 12.7181 22.5448 12.8001 22.601 12.8562C22.6571 12.9124 22.7348 12.9383 22.8255 12.9383C22.9291 12.9383 23.0025 12.9081 23.0457 12.8476C23.0889 12.7828 23.1105 12.7051 23.1105 12.6101C23.1105 12.459 23.076 12.3337 23.0069 12.2344C22.9378 12.1351 22.8471 12.0401 22.7305 11.9408L22.2901 11.5521C22.1649 11.4442 22.0656 11.3276 21.9921 11.198C21.9187 11.0642 21.8842 10.9044 21.8842 10.7101C21.8842 10.4337 21.9662 10.2221 22.126 10.071C22.2858 9.91985 22.506 9.84644 22.7867 9.84644C22.9507 9.84644 23.0889 9.87234 23.1969 9.92416C23.3048 9.97166 23.3912 10.0408 23.4559 10.1314C23.5207 10.2221 23.5725 10.3214 23.6027 10.438C23.633 10.5503 23.6546 10.6712 23.6632 10.7964L23.1191 10.8914C23.1148 10.7835 23.1019 10.6842 23.0803 10.5978C23.063 10.5114 23.0285 10.4424 22.981 10.3948C22.9335 10.3473 22.8644 10.3214 22.7737 10.3214C22.6787 10.3214 22.6053 10.3517 22.5535 10.4164C22.506 10.4769 22.4801 10.5546 22.4801 10.6453C22.4801 10.7619 22.506 10.8612 22.5535 10.9389C22.601 11.0124 22.6744 11.0901 22.7651 11.1721L23.2012 11.5565C23.3437 11.6774 23.4689 11.8199 23.5682 11.984C23.6718 12.1437 23.7236 12.3424 23.7236 12.5712C23.7236 12.7396 23.6848 12.8865 23.6114 13.016C23.538 13.1456 23.4387 13.2492 23.3048 13.3226C23.1753 13.396 23.0241 13.4306 22.8471 13.4306Z" fill="white"/>
<path d="M24.9181 13.4308C24.659 13.4308 24.4561 13.3833 24.3136 13.2883C24.1711 13.1933 24.0718 13.0594 24.0156 12.8823C23.9595 12.7053 23.9336 12.498 23.9336 12.2519V9.8855H24.5554V12.3253C24.5554 12.4332 24.564 12.5369 24.577 12.6362C24.5899 12.7312 24.6245 12.8089 24.6763 12.8694C24.7324 12.9255 24.8101 12.9558 24.9181 12.9558C25.0304 12.9558 25.1124 12.9255 25.1599 12.8694C25.2117 12.8089 25.2462 12.7312 25.2592 12.6362C25.2765 12.5369 25.2851 12.4332 25.2851 12.3253V9.8855H25.9026V12.2519C25.9026 12.498 25.8767 12.7053 25.8205 12.8823C25.7644 13.0594 25.6651 13.1933 25.5226 13.2883C25.3801 13.3833 25.1815 13.4308 24.9181 13.4308Z" fill="white"/>
<path d="M26.2549 13.3833L26.3153 9.8855H26.976L27.4725 12.308L27.9907 9.8855H28.6298L28.6945 13.3833H28.2195L28.1677 10.9521L27.6712 13.3833H27.2869L26.7817 10.9435L26.7342 13.3833H26.2549Z" fill="white"/>
<path d="M29.0723 13.3833V9.8855H30.0999C30.3115 9.8855 30.4799 9.92436 30.6095 10.0021C30.7433 10.0798 30.8383 10.1921 30.8988 10.3432C30.9635 10.49 30.9938 10.6671 30.9938 10.8787C30.9938 11.1076 30.9549 11.2889 30.8772 11.4314C30.7994 11.5696 30.6915 11.6689 30.549 11.7337C30.4108 11.7985 30.2467 11.8287 30.0568 11.8287H29.7113V13.3833H29.0723ZM29.7113 11.3796H29.9531C30.0697 11.3796 30.1561 11.3623 30.2208 11.3321C30.2856 11.2976 30.3331 11.2457 30.3547 11.1723C30.3806 11.0989 30.3936 10.9996 30.3936 10.8744C30.3936 10.7491 30.3849 10.6455 30.3633 10.5678C30.3461 10.4857 30.3072 10.4296 30.2424 10.3907C30.182 10.3519 30.087 10.3346 29.9531 10.3346H29.7113V11.3796Z" fill="white"/>
<path d="M31.557 13.3833V10.3562H31V9.8855H32.7444V10.3562H32.1961V13.3833H31.557Z" fill="white"/>
<path d="M33.5708 9.8855H32.9404V13.3833H33.5708V9.8855Z" fill="white"/>
<path d="M34.9207 13.4306C34.6746 13.4306 34.476 13.3831 34.3291 13.2924C34.1823 13.2017 34.0787 13.0678 34.0139 12.8951C33.9492 12.7224 33.9189 12.5194 33.9189 12.2819V10.9735C33.9189 10.736 33.9492 10.5374 34.0139 10.3689C34.0787 10.2005 34.1823 10.071 34.3291 9.9803C34.476 9.88962 34.6746 9.84644 34.9207 9.84644C35.1755 9.84644 35.3741 9.88962 35.5166 9.9803C35.6634 10.071 35.767 10.2005 35.8318 10.3689C35.8966 10.5374 35.9311 10.736 35.9311 10.9735V12.2862C35.9311 12.5194 35.8966 12.7224 35.8318 12.8951C35.767 13.0635 35.6634 13.1974 35.5166 13.2924C35.3741 13.3831 35.1755 13.4306 34.9207 13.4306ZM34.9207 12.9599C35.0287 12.9599 35.1064 12.9383 35.1539 12.8908C35.2057 12.8433 35.2402 12.7828 35.2575 12.7008C35.2748 12.6187 35.2834 12.5324 35.2834 12.4374V10.8267C35.2834 10.7274 35.2748 10.641 35.2575 10.5633C35.2402 10.4855 35.2057 10.4251 35.1539 10.3819C35.1064 10.3344 35.0287 10.3128 34.9207 10.3128C34.8214 10.3128 34.7437 10.3344 34.6919 10.3819C34.64 10.4251 34.6055 10.4855 34.5882 10.5633C34.571 10.641 34.5623 10.7274 34.5623 10.8267V12.4374C34.5623 12.5324 34.571 12.6187 34.5839 12.7008C34.6012 12.7828 34.6357 12.8433 34.6875 12.8908C34.7394 12.9383 34.8171 12.9599 34.9207 12.9599Z" fill="white"/>
<path d="M36.2617 13.3833V9.8855H36.7065L37.5571 11.8805V9.8855H38.0839V13.3833H37.6607L36.8058 11.2932V13.3833H36.2617Z" fill="white"/>
<path d="M15.0947 19.0996L15.7942 15.6018H16.4765L17.176 19.0996H16.5844L16.4462 18.2921H15.8374L15.6949 19.0996H15.0947ZM15.9022 17.8861H16.3772L16.1397 16.418L15.9022 17.8861Z" fill="white"/>
<path d="M17.3857 19.0996V15.6018H17.8305L18.6811 17.5968V15.6018H19.2079V19.0996H18.7848L17.9298 17.0095V19.0996H17.3857Z" fill="white"/>
<path d="M19.5986 19.0996V15.6018H20.4234C20.7083 15.6018 20.9286 15.6407 21.0883 15.7184C21.2481 15.7961 21.3647 15.917 21.4294 16.0768C21.4985 16.2366 21.5331 16.4439 21.5331 16.69V17.9682C21.5331 18.223 21.4985 18.4346 21.4294 18.603C21.3647 18.7714 21.2524 18.8966 21.0926 18.9787C20.9372 19.0607 20.7213 19.0996 20.4493 19.0996H19.5986ZM20.2377 18.6548H20.432C20.5788 18.6548 20.6824 18.6289 20.7472 18.5771C20.812 18.5252 20.8508 18.4518 20.8638 18.3525C20.8767 18.2532 20.8854 18.128 20.8854 17.9855V16.6468C20.8854 16.5043 20.8767 16.392 20.8552 16.3057C20.8336 16.2193 20.7947 16.1545 20.7299 16.1157C20.6652 16.0768 20.5659 16.0552 20.4234 16.0552H20.2377V18.6548Z" fill="white"/>
<path d="M22.7725 19.0996V15.6018H23.8001C24.0117 15.6018 24.1801 15.6407 24.3096 15.7184C24.4435 15.7961 24.5385 15.9084 24.599 16.0595C24.6637 16.2064 24.6939 16.3834 24.6939 16.595C24.6939 16.8239 24.6551 17.0052 24.5774 17.1477C24.4996 17.2859 24.3917 17.3852 24.2492 17.45C24.111 17.5148 23.9469 17.545 23.757 17.545H23.4115V19.0996H22.7725ZM23.4115 17.0959H23.6533C23.7699 17.0959 23.8563 17.0786 23.921 17.0484C23.9858 17.0139 24.0333 16.962 24.0549 16.8886C24.0808 16.8152 24.0938 16.7159 24.0938 16.5907C24.0938 16.4655 24.0851 16.3618 24.0635 16.2841C24.0463 16.202 24.0074 16.1459 23.9426 16.107C23.8822 16.0682 23.7872 16.0509 23.6533 16.0509H23.4115V17.0959Z" fill="white"/>
<path d="M24.9072 19.0996V15.6018H25.7449C25.9824 15.6018 26.181 15.632 26.3408 15.6882C26.5049 15.7443 26.6301 15.8393 26.7121 15.9732C26.7985 16.107 26.8417 16.2927 26.8417 16.5259C26.8417 16.6684 26.8287 16.7936 26.8028 16.9059C26.7769 17.0182 26.7337 17.1132 26.6689 17.1952C26.6085 17.273 26.5221 17.3334 26.4142 17.3766L26.9021 19.0996H26.2631L25.8399 17.4975H25.5463V19.0996H24.9072ZM25.5463 17.0959H25.7449C25.8701 17.0959 25.9651 17.0786 26.0385 17.0441C26.1119 17.0052 26.1681 16.9491 26.1983 16.8714C26.2285 16.7893 26.2458 16.69 26.2458 16.5648C26.2458 16.3877 26.2112 16.2582 26.1465 16.1718C26.0817 16.0811 25.9608 16.0379 25.7795 16.0379H25.5463V17.0959Z" fill="white"/>
<path d="M28.1268 19.1469C27.8806 19.1469 27.682 19.0994 27.5352 19.0087C27.3884 18.918 27.2848 18.7841 27.22 18.6114C27.1552 18.4387 27.125 18.2357 27.125 17.9982V16.6898C27.125 16.4523 27.1552 16.2537 27.22 16.0852C27.2848 15.9168 27.3884 15.7873 27.5352 15.6966C27.682 15.6059 27.8806 15.5627 28.1268 15.5627C28.3815 15.5627 28.5801 15.6059 28.7226 15.6966C28.8694 15.7873 28.9731 15.9168 29.0378 16.0852C29.1026 16.2537 29.1372 16.4523 29.1372 16.6898V18.0025C29.1372 18.2357 29.1026 18.4387 29.0378 18.6114C28.9731 18.7798 28.8694 18.9137 28.7226 19.0087C28.5801 19.0994 28.3815 19.1469 28.1268 19.1469ZM28.1268 18.6762C28.2347 18.6762 28.3124 18.6546 28.3599 18.6071C28.4117 18.5596 28.4463 18.4991 28.4636 18.4171C28.4808 18.335 28.4895 18.2487 28.4895 18.1537V16.543C28.4895 16.4437 28.4808 16.3573 28.4636 16.2796C28.4463 16.2018 28.4117 16.1414 28.3599 16.0982C28.3124 16.0507 28.2347 16.0291 28.1268 16.0291C28.0275 16.0291 27.9497 16.0507 27.8979 16.0982C27.8461 16.1414 27.8116 16.2018 27.7943 16.2796C27.777 16.3573 27.7684 16.4437 27.7684 16.543V18.1537C27.7684 18.2487 27.777 18.335 27.79 18.4171C27.8072 18.4991 27.8418 18.5596 27.8936 18.6071C27.9454 18.6546 28.0231 18.6762 28.1268 18.6762Z" fill="white"/>
<path d="M29.4668 19.0996V15.6018H30.2915C30.5765 15.6018 30.7967 15.6407 30.9565 15.7184C31.1163 15.7961 31.2328 15.917 31.2976 16.0768C31.3667 16.2366 31.4012 16.4439 31.4012 16.69V17.9682C31.4012 18.223 31.3667 18.4346 31.2976 18.603C31.2328 18.7714 31.1206 18.8966 30.9608 18.9787C30.8054 19.0607 30.5895 19.0996 30.3174 19.0996H29.4668ZM30.1059 18.6548H30.3002C30.447 18.6548 30.5506 18.6289 30.6154 18.5771C30.6801 18.5252 30.719 18.4518 30.732 18.3525C30.7449 18.2532 30.7535 18.128 30.7535 17.9855V16.6468C30.7535 16.5043 30.7449 16.392 30.7233 16.3057C30.7017 16.2193 30.6629 16.1545 30.5981 16.1157C30.5333 16.0768 30.434 16.0552 30.2915 16.0552H30.1059V18.6548Z" fill="white"/>
<path d="M32.6905 19.1471C32.4315 19.1471 32.2285 19.0996 32.086 19.0046C31.9435 18.9096 31.8442 18.7757 31.7881 18.5987C31.732 18.4216 31.7061 18.2143 31.7061 17.9682V15.6018H32.3278V18.0416C32.3278 18.1496 32.3365 18.2532 32.3494 18.3525C32.3624 18.4475 32.3969 18.5252 32.4487 18.5857C32.5049 18.6418 32.5826 18.6721 32.6905 18.6721C32.8028 18.6721 32.8849 18.6418 32.9324 18.5857C32.9842 18.5252 33.0187 18.4475 33.0317 18.3525C33.0489 18.2532 33.0576 18.1496 33.0576 18.0416V15.6018H33.675V17.9682C33.675 18.2143 33.6491 18.4216 33.593 18.5987C33.5369 18.7757 33.4375 18.9096 33.2951 19.0046C33.1526 19.0996 32.9539 19.1471 32.6905 19.1471Z" fill="white"/>
<path d="M34.9765 19.1469C34.7218 19.1469 34.5188 19.0951 34.372 18.9957C34.2295 18.8964 34.1259 18.7582 34.0698 18.5855C34.0136 18.4085 33.9834 18.2098 33.9834 17.9809V16.733C33.9834 16.4955 34.0136 16.2882 34.0698 16.1112C34.1259 15.9341 34.2295 15.8002 34.372 15.7052C34.5188 15.6102 34.7218 15.5627 34.9765 15.5627C35.2183 15.5627 35.4083 15.6059 35.5422 15.688C35.6803 15.77 35.7797 15.8866 35.8358 16.0377C35.8919 16.1889 35.9222 16.3659 35.9222 16.5689V16.8625H35.309V16.5603C35.309 16.4609 35.3047 16.3746 35.2917 16.2925C35.2831 16.2105 35.2572 16.15 35.2097 16.1025C35.1665 16.055 35.0888 16.0291 34.9808 16.0291C34.8729 16.0291 34.7909 16.055 34.739 16.1068C34.6915 16.1543 34.657 16.2234 34.644 16.3098C34.6311 16.3918 34.6225 16.4868 34.6225 16.5948V18.1148C34.6225 18.24 34.6311 18.348 34.6527 18.43C34.6743 18.5121 34.7088 18.5725 34.7606 18.6157C34.8168 18.6546 34.8902 18.6762 34.9808 18.6762C35.0888 18.6762 35.1622 18.6503 35.2054 18.6028C35.2529 18.551 35.2788 18.4819 35.2917 18.3998C35.3047 18.3178 35.309 18.2228 35.309 18.1191V17.8039H35.9222V18.0846C35.9222 18.2919 35.8962 18.4775 35.8401 18.6373C35.784 18.7971 35.689 18.9223 35.5508 19.013C35.417 19.1037 35.2226 19.1469 34.9765 19.1469Z" fill="white"/>
<path d="M36.5765 19.0996V16.0725H36.0195V15.6018H37.764V16.0725H37.2156V19.0996H36.5765Z" fill="white"/>
<path d="M38.5904 15.6018H37.96V19.0996H38.5904V15.6018Z" fill="white"/>
<path d="M39.9402 19.1469C39.6941 19.1469 39.4955 19.0994 39.3487 19.0087C39.2019 18.918 39.0982 18.7841 39.0335 18.6114C38.9687 18.4387 38.9385 18.2357 38.9385 17.9982V16.6898C38.9385 16.4523 38.9687 16.2537 39.0335 16.0852C39.0982 15.9168 39.2019 15.7873 39.3487 15.6966C39.4955 15.6059 39.6941 15.5627 39.9402 15.5627C40.195 15.5627 40.3936 15.6059 40.5361 15.6966C40.6829 15.7873 40.7866 15.9168 40.8513 16.0852C40.9161 16.2537 40.9506 16.4523 40.9506 16.6898V18.0025C40.9506 18.2357 40.9161 18.4387 40.8513 18.6114C40.7866 18.7798 40.6829 18.9137 40.5361 19.0087C40.3936 19.0994 40.195 19.1469 39.9402 19.1469ZM39.9402 18.6762C40.0482 18.6762 40.1259 18.6546 40.1734 18.6071C40.2252 18.5596 40.2598 18.4991 40.277 18.4171C40.2943 18.335 40.3029 18.2487 40.3029 18.1537V16.543C40.3029 16.4437 40.2943 16.3573 40.277 16.2796C40.2598 16.2018 40.2252 16.1414 40.1734 16.0982C40.1259 16.0507 40.0482 16.0291 39.9402 16.0291C39.8409 16.0291 39.7632 16.0507 39.7114 16.0982C39.6596 16.1414 39.625 16.2018 39.6078 16.2796C39.5905 16.3573 39.5819 16.4437 39.5819 16.543V18.1537C39.5819 18.2487 39.5905 18.335 39.6034 18.4171C39.6207 18.4991 39.6553 18.5596 39.7071 18.6071C39.7589 18.6546 39.8366 18.6762 39.9402 18.6762Z" fill="white"/>
<path d="M41.2812 19.0996V15.6018H41.726L42.5766 17.5968V15.6018H43.1034V19.0996H42.6803L41.8253 17.0095V19.0996H41.2812Z" fill="white"/>
</svg>
