<svg width="16" height="16" viewBox="0 0 16 16" fill="none" xmlns="http://www.w3.org/2000/svg">
<path d="M13.5 4.00031H3.5C3.36739 4.00031 3.24021 3.94763 3.14645 3.85386C3.05268 3.76009 3 3.63291 3 3.50031C3 3.3677 3.05268 3.24052 3.14645 3.14675C3.24021 3.05298 3.36739 3.00031 3.5 3.00031H12C12.1326 3.00031 12.2598 2.94763 12.3536 2.85386C12.4473 2.76009 12.5 2.63291 12.5 2.50031C12.5 2.3677 12.4473 2.24052 12.3536 2.14675C12.2598 2.05298 12.1326 2.00031 12 2.00031H3.5C3.10218 2.00031 2.72064 2.15834 2.43934 2.43965C2.15804 2.72095 2 3.10248 2 3.50031V11.5003C2 11.8981 2.15804 12.2797 2.43934 12.561C2.72064 12.8423 3.10218 13.0003 3.5 13.0003H13.5C13.7652 13.0003 14.0196 12.8949 14.2071 12.7074C14.3946 12.5199 14.5 12.2655 14.5 12.0003V5.00031C14.5 4.73509 14.3946 4.48074 14.2071 4.2932C14.0196 4.10566 13.7652 4.00031 13.5 4.00031ZM13.5 12.0003H3.5C3.36739 12.0003 3.24021 11.9476 3.14645 11.8539C3.05268 11.7601 3 11.6329 3 11.5003V4.91468C3.16055 4.97159 3.32966 5.00055 3.5 5.00031H13.5V12.0003ZM10.5 8.25031C10.5 8.10197 10.544 7.95696 10.6264 7.83363C10.7088 7.71029 10.8259 7.61416 10.963 7.5574C11.1 7.50063 11.2508 7.48578 11.3963 7.51472C11.5418 7.54365 11.6754 7.61509 11.7803 7.71997C11.8852 7.82486 11.9566 7.9585 11.9856 8.10399C12.0145 8.24947 11.9997 8.40027 11.9429 8.53732C11.8861 8.67436 11.79 8.7915 11.6667 8.87391C11.5433 8.95632 11.3983 9.00031 11.25 9.00031C11.0511 9.00031 10.8603 8.92129 10.7197 8.78063C10.579 8.63998 10.5 8.44922 10.5 8.25031Z" fill="white"/>
</svg>
