<svg width="52" height="52" viewBox="0 0 52 52" fill="none" xmlns="http://www.w3.org/2000/svg">
<rect x="0.75" y="0.75" width="50.5" height="50.5" rx="25.25" stroke="#A3A3A3" stroke-width="1.5"/>
<path d="M24.9922 28.805C25.9974 28.1358 26.7605 27.1609 27.1688 26.0244C27.577 24.888 27.6087 23.6503 27.2592 22.4944C26.9096 21.3386 26.1973 20.3259 25.2277 19.6061C24.2581 18.8864 23.0826 18.4977 21.875 18.4977C20.6674 18.4977 19.4919 18.8864 18.5223 19.6061C17.5527 20.3259 16.8404 21.3386 16.4908 22.4944C16.1413 23.6503 16.173 24.888 16.5812 26.0244C16.9895 27.1609 17.7526 28.1358 18.7578 28.805C16.9395 29.4752 15.3867 30.7153 14.3309 32.3403C14.2755 32.4228 14.2369 32.5155 14.2176 32.613C14.1982 32.7105 14.1984 32.8108 14.2182 32.9082C14.238 33.0056 14.2769 33.0981 14.3328 33.1804C14.3886 33.2626 14.4602 33.3329 14.5435 33.3872C14.6267 33.4415 14.7199 33.4787 14.8177 33.4967C14.9155 33.5146 15.0158 33.513 15.1129 33.4918C15.21 33.4706 15.302 33.4304 15.3834 33.3734C15.4648 33.3164 15.5341 33.2437 15.5872 33.1597C16.2682 32.1123 17.2 31.2516 18.2981 30.6558C19.3962 30.06 20.6257 29.7479 21.875 29.7479C23.1243 29.7479 24.3538 30.06 25.4519 30.6558C26.55 31.2516 27.4818 32.1123 28.1628 33.1597C28.2728 33.3232 28.4427 33.4368 28.6359 33.476C28.829 33.5152 29.0298 33.4769 29.1948 33.3692C29.3599 33.2616 29.4759 33.0933 29.5179 32.9008C29.5598 32.7082 29.5243 32.5069 29.4191 32.3403C28.3633 30.7153 26.8105 29.4752 24.9922 28.805ZM17.75 24.125C17.75 23.3092 17.9919 22.5116 18.4452 21.8333C18.8984 21.1549 19.5427 20.6262 20.2964 20.314C21.0502 20.0018 21.8796 19.9201 22.6797 20.0793C23.4799 20.2384 24.2149 20.6313 24.7918 21.2082C25.3687 21.7851 25.7616 22.5201 25.9207 23.3203C26.0799 24.1204 25.9982 24.9498 25.686 25.7036C25.3738 26.4573 24.8451 27.1016 24.1667 27.5548C23.4884 28.0081 22.6908 28.25 21.875 28.25C20.7814 28.2488 19.7329 27.8138 18.9596 27.0405C18.1862 26.2672 17.7512 25.2187 17.75 24.125ZM37.4506 33.3781C37.284 33.4868 37.0811 33.5248 36.8865 33.4838C36.6919 33.4429 36.5215 33.3263 36.4128 33.1597C35.7326 32.1117 34.8009 31.2506 33.7026 30.6551C32.6043 30.0595 31.3744 29.7484 30.125 29.75C29.9261 29.75 29.7353 29.671 29.5947 29.5304C29.454 29.3897 29.375 29.1989 29.375 29C29.375 28.8011 29.454 28.6103 29.5947 28.4697C29.7353 28.329 29.9261 28.25 30.125 28.25C30.7325 28.2495 31.3323 28.1147 31.8817 27.8554C32.431 27.5962 32.9164 27.2188 33.303 26.7502C33.6896 26.2816 33.9679 25.7334 34.1181 25.1448C34.2682 24.5562 34.2866 23.9417 34.1717 23.3452C34.0569 22.7486 33.8117 22.1849 33.4537 21.6941C33.0957 21.2033 32.6337 20.7977 32.1008 20.5061C31.5679 20.2146 30.9771 20.0443 30.3707 20.0076C29.7644 19.9708 29.1574 20.0684 28.5931 20.2935C28.5011 20.3332 28.4021 20.3542 28.3019 20.355C28.2016 20.3559 28.1023 20.3366 28.0096 20.2984C27.9169 20.2602 27.8329 20.2038 27.7624 20.1325C27.6919 20.0613 27.6364 19.9766 27.5992 19.8836C27.5619 19.7905 27.5437 19.6909 27.5457 19.5907C27.5476 19.4905 27.5696 19.3917 27.6103 19.3001C27.651 19.2086 27.7097 19.1261 27.7829 19.0576C27.8561 18.9891 27.9422 18.9359 28.0363 18.9013C29.3276 18.3863 30.764 18.3677 32.0682 18.8492C33.3724 19.3308 34.4521 20.2782 35.099 21.5089C35.7459 22.7395 35.9141 24.1661 35.5712 25.5134C35.2283 26.8607 34.3986 28.0333 33.2422 28.805C35.0605 29.4752 36.6133 30.7153 37.6691 32.3403C37.7777 32.5069 37.8157 32.7099 37.7748 32.9045C37.7338 33.0991 37.6172 33.2695 37.4506 33.3781Z" fill="white"/>
</svg>
