<svg width="22" height="21" viewBox="0 0 22 21" fill="none" xmlns="http://www.w3.org/2000/svg">
<path d="M19.2783 0.0440674C19.8946 0.0440674 20.4856 0.288869 20.9213 0.724619C21.3571 1.16037 21.6019 1.75137 21.6019 2.36762V18.6325C21.6019 19.2487 21.3571 19.8397 20.9213 20.2755C20.4856 20.7112 19.8946 20.956 19.2783 20.956H3.01349C2.39725 20.956 1.80624 20.7112 1.37049 20.2755C0.934743 19.8397 0.689941 19.2487 0.689941 18.6325V2.36762C0.689941 1.75137 0.934743 1.16037 1.37049 0.724619C1.80624 0.288869 2.39725 0.0440674 3.01349 0.0440674H19.2783ZM18.6975 18.0516V11.8942C18.6975 10.8897 18.2984 9.92636 17.5882 9.21608C16.8779 8.50581 15.9145 8.10678 14.9101 8.10678C13.9226 8.10678 12.7724 8.71091 12.2147 9.61709V8.32752H8.9734V18.0516H12.2147V12.324C12.2147 11.4295 12.935 10.6975 13.8296 10.6975C14.261 10.6975 14.6747 10.8689 14.9797 11.1739C15.2847 11.479 15.4561 11.8927 15.4561 12.324V18.0516H18.6975ZM5.19763 6.50354C5.71527 6.50354 6.21172 6.2979 6.57775 5.93187C6.94378 5.56584 7.14941 5.0694 7.14941 4.55175C7.14941 3.4713 6.27808 2.58835 5.19763 2.58835C4.6769 2.58835 4.1775 2.79521 3.80929 3.16342C3.44109 3.53163 3.23423 4.03103 3.23423 4.55175C3.23423 5.6322 4.11718 6.50354 5.19763 6.50354ZM6.8125 18.0516V8.32752H3.59438V18.0516H6.8125Z" fill="white"/>
</svg>
