<svg width="40" height="40" viewBox="0 0 40 40" fill="none" xmlns="http://www.w3.org/2000/svg">
<rect x="0.6" y="0.6" width="38.8" height="38.8" rx="19.4" stroke="#404040" stroke-width="1.2"/>
<path d="M25.625 15.9094V13.125C25.625 12.7935 25.4933 12.4755 25.2589 12.2411C25.0245 12.0067 24.7065 11.875 24.375 11.875H15.625C15.2935 11.875 14.9755 12.0067 14.7411 12.2411C14.5067 12.4755 14.375 12.7935 14.375 13.125V15.9375C14.3754 16.1315 14.4208 16.3227 14.5075 16.4962C14.5943 16.6697 14.7201 16.8208 14.875 16.9375L18.9586 20L14.875 23.0625C14.7201 23.1792 14.5943 23.3303 14.5075 23.5038C14.4208 23.6773 14.3754 23.8685 14.375 24.0625V26.875C14.375 27.2065 14.5067 27.5245 14.7411 27.7589C14.9755 27.9933 15.2935 28.125 15.625 28.125H24.375C24.7065 28.125 25.0245 27.9933 25.2589 27.7589C25.4933 27.5245 25.625 27.2065 25.625 26.875V24.0906C25.6246 23.8974 25.5796 23.7069 25.4935 23.5338C25.4075 23.3608 25.2827 23.2099 25.1289 23.093L21.0367 20L25.1289 16.9062C25.2828 16.7895 25.4076 16.6388 25.4937 16.4659C25.5797 16.293 25.6247 16.1025 25.625 15.9094ZM24.375 26.875H15.625V24.0625L20 20.7812L24.375 24.0898V26.875ZM24.375 15.9094L20 19.2188L15.625 15.9375V13.125H24.375V15.9094Z" fill="white"/>
</svg>
