<svg width="52" height="52" viewBox="0 0 52 52" fill="none" xmlns="http://www.w3.org/2000/svg">
<rect x="0.75" y="0.75" width="50.5" height="50.5" rx="25.25" stroke="#A3A3A3" stroke-width="1.5"/>
<path d="M32.5231 26.0994L27.6875 24.3125L25.9062 19.4731C25.8008 19.1866 25.6099 18.9392 25.3595 18.7645C25.109 18.5899 24.811 18.4962 24.5056 18.4962C24.2003 18.4962 23.9022 18.5899 23.6518 18.7645C23.4013 18.9392 23.2105 19.1866 23.105 19.4731L21.3125 24.3125L16.4731 26.0938C16.1866 26.1992 15.9392 26.3901 15.7645 26.6405C15.5899 26.891 15.4962 27.189 15.4962 27.4944C15.4962 27.7997 15.5899 28.0978 15.7645 28.3482C15.9392 28.5987 16.1866 28.7895 16.4731 28.895L21.3125 30.6875L23.0937 35.5269C23.1992 35.8134 23.3901 36.0608 23.6405 36.2355C23.891 36.4101 24.189 36.5038 24.4944 36.5038C24.7997 36.5038 25.0978 36.4101 25.3482 36.2355C25.5987 36.0608 25.7895 35.8134 25.895 35.5269L27.6875 30.6875L32.5269 28.9063C32.8134 28.8008 33.0608 28.6099 33.2354 28.3595C33.4101 28.109 33.5038 27.811 33.5038 27.5056C33.5038 27.2003 33.4101 26.9022 33.2354 26.6518C33.0608 26.4013 32.8134 26.2105 32.5269 26.105L32.5231 26.0994ZM26.8437 29.3956C26.7419 29.4331 26.6495 29.4923 26.5728 29.569C26.4961 29.6457 26.4369 29.7382 26.3994 29.84L24.5 34.9859L22.6044 29.8438C22.5669 29.7409 22.5074 29.6474 22.43 29.57C22.3526 29.4926 22.2591 29.4331 22.1562 29.3956L17.0141 27.5L22.1562 25.6044C22.2591 25.5669 22.3526 25.5074 22.43 25.43C22.5074 25.3526 22.5669 25.2591 22.6044 25.1563L24.5 20.0141L26.3956 25.1563C26.4331 25.2581 26.4923 25.3505 26.569 25.4272C26.6457 25.5039 26.7382 25.5631 26.84 25.6006L31.9859 27.5L26.8437 29.3956ZM27.5 17.75C27.5 17.5511 27.579 17.3603 27.7197 17.2197C27.8603 17.079 28.0511 17 28.25 17H29.75V15.5C29.75 15.3011 29.829 15.1103 29.9697 14.9697C30.1103 14.829 30.3011 14.75 30.5 14.75C30.6989 14.75 30.8897 14.829 31.0303 14.9697C31.171 15.1103 31.25 15.3011 31.25 15.5V17H32.75C32.9489 17 33.1397 17.079 33.2803 17.2197C33.421 17.3603 33.5 17.5511 33.5 17.75C33.5 17.9489 33.421 18.1397 33.2803 18.2803C33.1397 18.421 32.9489 18.5 32.75 18.5H31.25V20C31.25 20.1989 31.171 20.3897 31.0303 20.5303C30.8897 20.671 30.6989 20.75 30.5 20.75C30.3011 20.75 30.1103 20.671 29.9697 20.5303C29.829 20.3897 29.75 20.1989 29.75 20V18.5H28.25C28.0511 18.5 27.8603 18.421 27.7197 18.2803C27.579 18.1397 27.5 17.9489 27.5 17.75ZM37.25 22.25C37.25 22.4489 37.171 22.6397 37.0303 22.7803C36.8897 22.921 36.6989 23 36.5 23H35.75V23.75C35.75 23.9489 35.671 24.1397 35.5303 24.2803C35.3897 24.421 35.1989 24.5 35 24.5C34.8011 24.5 34.6103 24.421 34.4697 24.2803C34.329 24.1397 34.25 23.9489 34.25 23.75V23H33.5C33.3011 23 33.1103 22.921 32.9697 22.7803C32.829 22.6397 32.75 22.4489 32.75 22.25C32.75 22.0511 32.829 21.8603 32.9697 21.7197C33.1103 21.579 33.3011 21.5 33.5 21.5H34.25V20.75C34.25 20.5511 34.329 20.3603 34.4697 20.2197C34.6103 20.079 34.8011 20 35 20C35.1989 20 35.3897 20.079 35.5303 20.2197C35.671 20.3603 35.75 20.5511 35.75 20.75V21.5H36.5C36.6989 21.5 36.8897 21.579 37.0303 21.7197C37.171 21.8603 37.25 22.0511 37.25 22.25Z" fill="white"/>
</svg>
