<svg width="52" height="52" viewBox="0 0 52 52" fill="none" xmlns="http://www.w3.org/2000/svg">
<rect x="0.75" y="0.75" width="50.5" height="50.5" rx="25.25" stroke="#A3A3A3" stroke-width="1.5"/>
<path d="M35.6713 29.6215L32.9872 28.28C32.238 27.9085 31.6079 27.3345 31.1683 26.6231C30.7287 25.9118 30.4972 25.0915 30.5 24.2553V21.5C30.5 21.3011 30.421 21.1103 30.2803 20.9696C30.1397 20.829 29.9489 20.75 29.75 20.75C28.5569 20.7487 27.413 20.2742 26.5694 19.4306C25.7257 18.5869 25.2512 17.4431 25.25 16.25C25.2499 16.1105 25.2108 15.9737 25.1373 15.8552C25.0637 15.7366 24.9585 15.641 24.8335 15.5789C24.7086 15.5169 24.5688 15.4909 24.4298 15.504C24.2909 15.517 24.1584 15.5686 24.0472 15.6528L16.8247 21.125L16.8059 21.14C16.6426 21.2723 16.5089 21.4375 16.4134 21.6248C16.318 21.8121 16.2631 22.0174 16.2521 22.2274C16.2411 22.4373 16.2744 22.6472 16.3498 22.8435C16.4252 23.0397 16.541 23.2179 16.6897 23.3665L27.35 34.0306C27.4197 34.1002 27.5024 34.1554 27.5935 34.1931C27.6845 34.2307 27.7821 34.2501 27.8806 34.25H35C35.3978 34.25 35.7794 34.0919 36.0607 33.8106C36.342 33.5293 36.5 33.1478 36.5 32.75V30.9631C36.5009 30.6844 36.4237 30.411 36.2773 30.1739C36.1308 29.9368 35.9209 29.7455 35.6713 29.6215ZM35 32.75H28.1909L17.75 22.309L18.9566 21.394L22.5931 25.0306C22.7339 25.1716 22.9248 25.2509 23.124 25.2511C23.3232 25.2512 23.5143 25.1723 23.6553 25.0315C23.7963 24.8908 23.8756 24.6998 23.8758 24.5006C23.8759 24.3014 23.797 24.1103 23.6563 23.9694L20.1631 20.479L23.9131 17.6375C24.1973 18.8249 24.8362 19.8977 25.7449 20.7132C26.6535 21.5288 27.7889 22.0484 29 22.2031V24.2553C28.9963 25.3703 29.3051 26.4641 29.8913 27.4126C30.4776 28.3611 31.3178 29.1263 32.3169 29.6215L35 30.9631V32.75ZM20.6375 31.25H17C16.8011 31.25 16.6103 31.171 16.4697 31.0303C16.329 30.8897 16.25 30.6989 16.25 30.5C16.25 30.3011 16.329 30.1103 16.4697 29.9696C16.6103 29.829 16.8011 29.75 17 29.75H20.6375C20.8364 29.75 21.0272 29.829 21.1678 29.9696C21.3085 30.1103 21.3875 30.3011 21.3875 30.5C21.3875 30.6989 21.3085 30.8897 21.1678 31.0303C21.0272 31.171 20.8364 31.25 20.6375 31.25ZM24.3875 33.5C24.3875 33.6989 24.3085 33.8897 24.1678 34.0303C24.0272 34.171 23.8364 34.25 23.6375 34.25H18.5C18.3011 34.25 18.1103 34.171 17.9697 34.0303C17.829 33.8897 17.75 33.6989 17.75 33.5C17.75 33.3011 17.829 33.1103 17.9697 32.9697C18.1103 32.829 18.3011 32.75 18.5 32.75H23.6375C23.8364 32.75 24.0272 32.829 24.1678 32.9697C24.3085 33.1103 24.3875 33.3011 24.3875 33.5Z" fill="white"/>
</svg>
