<svg width="37" height="37" viewBox="0 0 37 37" fill="none" xmlns="http://www.w3.org/2000/svg">
<path d="M24.8596 33.5312C24.8596 33.6845 24.7986 33.8315 24.6902 33.9399C24.5818 34.0484 24.4348 34.1093 24.2814 34.1093H12.7189C12.5656 34.1093 12.4186 34.0484 12.3101 33.9399C12.2017 33.8315 12.1408 33.6845 12.1408 33.5312C12.1408 33.3778 12.2017 33.2308 12.3101 33.1224C12.4186 33.0139 12.5656 32.953 12.7189 32.953H24.2814C24.4348 32.953 24.5818 33.0139 24.6902 33.1224C24.7986 33.2308 24.8596 33.3778 24.8596 33.5312ZM30.6408 15.0312C30.6453 16.8709 30.2295 18.6874 29.4252 20.3421C28.6209 21.9967 27.4494 23.4458 25.9999 24.5789C25.6466 24.8504 25.3602 25.1992 25.1625 25.5985C24.9649 25.9979 24.8612 26.4371 24.8596 26.8827V27.7499C24.8596 28.2099 24.6768 28.651 24.3516 28.9763C24.0263 29.3015 23.5852 29.4843 23.1252 29.4843H13.8752C13.4152 29.4843 12.9741 29.3015 12.6488 28.9763C12.3235 28.651 12.1408 28.2099 12.1408 27.7499V26.8827C12.1407 26.4415 12.0395 26.0062 11.8451 25.6101C11.6507 25.214 11.3682 24.8677 11.0192 24.5977C9.57278 23.4717 8.40153 22.0313 7.59421 20.3856C6.78689 18.74 6.36468 16.9321 6.35956 15.0991C6.32343 8.52725 11.6378 3.04807 18.2111 2.89053C19.8296 2.85198 21.4395 3.13753 22.946 3.73037C24.4525 4.32321 25.8252 5.21137 26.9833 6.3426C28.1415 7.47382 29.0617 8.82525 29.6898 10.3174C30.3179 11.8095 30.6413 13.4122 30.6408 15.0312ZM29.4846 15.0312C29.485 13.566 29.1923 12.1156 28.6237 10.7653C28.0552 9.41495 27.2222 8.19202 26.1739 7.16847C25.1255 6.14492 23.883 5.34144 22.5195 4.80533C21.156 4.26922 19.699 4.0113 18.2342 4.04678C12.2853 4.19131 7.48257 9.14439 7.51581 15.0933C7.52113 16.751 7.90346 18.3858 8.63388 19.8739C9.3643 21.3621 10.4237 22.6645 11.7318 23.6828C12.2195 24.0614 12.6141 24.5466 12.8854 25.1013C13.1568 25.6559 13.2976 26.2653 13.2971 26.8827V27.7499C13.2971 27.9032 13.358 28.0503 13.4664 28.1587C13.5748 28.2671 13.7219 28.328 13.8752 28.328H17.9221V21.0523L13.4662 16.5964C13.3577 16.4879 13.2967 16.3408 13.2967 16.1874C13.2967 16.034 13.3577 15.8869 13.4662 15.7784C13.5746 15.6699 13.7218 15.609 13.8752 15.609C14.0286 15.609 14.1757 15.6699 14.2842 15.7784L18.5002 19.9944L22.7162 15.7784C22.7699 15.7247 22.8336 15.6821 22.9038 15.653C22.974 15.6239 23.0492 15.609 23.1252 15.609C23.2011 15.609 23.2764 15.6239 23.3465 15.653C23.4167 15.6821 23.4805 15.7247 23.5342 15.7784C23.5879 15.8321 23.6305 15.8959 23.6596 15.966C23.6887 16.0362 23.7036 16.1114 23.7036 16.1874C23.7036 16.2634 23.6887 16.3386 23.6596 16.4088C23.6305 16.4789 23.5879 16.5427 23.5342 16.5964L19.0783 21.0523V28.328H23.1252C23.2785 28.328 23.4256 28.2671 23.534 28.1587C23.6424 28.0503 23.7033 27.9032 23.7033 27.7499V26.8827C23.7049 26.2628 23.8482 25.6514 24.1222 25.0953C24.3963 24.5392 24.7938 24.0531 25.2845 23.6741C26.5968 22.6487 27.6574 21.3369 28.3854 19.839C29.1133 18.3411 29.4893 16.6966 29.4846 15.0312Z" fill="white"/>
</svg>
