<svg width="52" height="52" viewBox="0 0 52 52" fill="none" xmlns="http://www.w3.org/2000/svg">
<rect x="0.75" y="0.75" width="50.5" height="50.5" rx="25.25" stroke="#404040" stroke-width="1.5"/>
<path d="M24.9921 28.8051C25.9973 28.1359 26.7605 27.161 27.1687 26.0245C27.577 24.888 27.6087 23.6504 27.2591 22.4945C26.9095 21.3386 26.1973 20.3259 25.2276 19.6062C24.258 18.8864 23.0825 18.4978 21.8749 18.4978C20.6674 18.4978 19.4918 18.8864 18.5222 19.6062C17.5526 20.3259 16.8403 21.3386 16.4908 22.4945C16.1412 23.6504 16.1729 24.888 16.5811 26.0245C16.9894 27.161 17.7525 28.1359 18.7577 28.8051C16.9394 29.4752 15.3866 30.7154 14.3309 32.3404C14.2754 32.4229 14.2368 32.5155 14.2175 32.613C14.1981 32.7105 14.1983 32.8109 14.2181 32.9083C14.2379 33.0057 14.2768 33.0982 14.3327 33.1804C14.3885 33.2627 14.4601 33.333 14.5434 33.3873C14.6266 33.4416 14.7199 33.4788 14.8176 33.4967C14.9154 33.5147 15.0157 33.513 15.1128 33.4919C15.21 33.4707 15.3019 33.4304 15.3833 33.3734C15.4647 33.3164 15.534 33.2438 15.5871 33.1598C16.2681 32.1124 17.1999 31.2517 18.298 30.6559C19.3961 30.0601 20.6256 29.748 21.8749 29.748C23.1242 29.748 24.3538 30.0601 25.4518 30.6559C26.5499 31.2517 27.4817 32.1124 28.1627 33.1598C28.2727 33.3233 28.4427 33.4369 28.6358 33.4761C28.8289 33.5153 29.0297 33.4769 29.1947 33.3693C29.3598 33.2616 29.4758 33.0934 29.5178 32.9008C29.5598 32.7083 29.5243 32.507 29.419 32.3404C28.3633 30.7154 26.8104 29.4752 24.9921 28.8051ZM17.7499 24.1251C17.7499 23.3092 17.9919 22.5117 18.4451 21.8334C18.8984 21.155 19.5426 20.6263 20.2964 20.3141C21.0501 20.0019 21.8795 19.9202 22.6797 20.0793C23.4798 20.2385 24.2148 20.6314 24.7917 21.2083C25.3686 21.7852 25.7615 22.5202 25.9207 23.3203C26.0798 24.1205 25.9981 24.9499 25.6859 25.7037C25.3737 26.4574 24.845 27.1016 24.1667 27.5549C23.4883 28.0082 22.6908 28.2501 21.8749 28.2501C20.7813 28.2488 19.7328 27.8138 18.9595 27.0405C18.1862 26.2672 17.7512 25.2187 17.7499 24.1251ZM37.4506 33.3782C37.284 33.4868 37.081 33.5249 36.8864 33.4839C36.6918 33.4429 36.5214 33.3263 36.4127 33.1598C35.7326 32.1118 34.8008 31.2507 33.7025 30.6551C32.6042 30.0596 31.3743 29.7484 30.1249 29.7501C29.926 29.7501 29.7352 29.6711 29.5946 29.5304C29.4539 29.3898 29.3749 29.199 29.3749 29.0001C29.3749 28.8012 29.4539 28.6104 29.5946 28.4698C29.7352 28.3291 29.926 28.2501 30.1249 28.2501C30.7324 28.2495 31.3322 28.1148 31.8816 27.8555C32.431 27.5962 32.9163 27.2188 33.3029 26.7502C33.6895 26.2817 33.9678 25.7335 34.118 25.1449C34.2682 24.5563 34.2865 23.9417 34.1716 23.3452C34.0568 22.7487 33.8116 22.1849 33.4536 21.6941C33.0956 21.2034 32.6337 20.7977 32.1007 20.5062C31.5678 20.2146 30.977 20.0444 30.3707 20.0076C29.7643 19.9709 29.1573 20.0685 28.5931 20.2935C28.5011 20.3333 28.402 20.3542 28.3018 20.3551C28.2016 20.3559 28.1022 20.3367 28.0095 20.2985C27.9169 20.2602 27.8328 20.2038 27.7623 20.1326C27.6918 20.0614 27.6363 19.9767 27.5991 19.8836C27.5619 19.7906 27.5437 19.691 27.5456 19.5908C27.5475 19.4906 27.5695 19.3918 27.6102 19.3002C27.651 19.2086 27.7097 19.1261 27.7828 19.0576C27.856 18.9891 27.9421 18.936 28.0362 18.9013C29.3275 18.3863 30.7639 18.3678 32.0681 18.8493C33.3723 19.3308 34.452 20.2783 35.0989 21.5089C35.7458 22.7395 35.914 24.1661 35.5711 25.5134C35.2283 26.8608 34.3986 28.0334 33.2421 28.8051C35.0604 29.4752 36.6133 30.7154 37.669 32.3404C37.7776 32.507 37.8156 32.7099 37.7747 32.9045C37.7337 33.0992 37.6171 33.2695 37.4506 33.3782Z" fill="white"/>
</svg>
