<svg width="24" height="19" viewBox="0 0 24 19" fill="none" xmlns="http://www.w3.org/2000/svg">
<path d="M2.7779 18.7942C2.13892 18.7942 1.59211 18.5669 1.13747 18.1122C0.682828 17.6576 0.45512 17.1104 0.454346 16.4707V2.52936C0.454346 1.89038 0.682054 1.34358 1.13747 0.888934C1.59289 0.434293 2.13969 0.206585 2.7779 0.205811H21.3663C22.0053 0.205811 22.5525 0.433518 23.0079 0.888934C23.4633 1.34435 23.6906 1.89116 23.6898 2.52936V16.4707C23.6898 17.1096 23.4625 17.6568 23.0079 18.1122C22.5532 18.5677 22.006 18.795 21.3663 18.7942H2.7779ZM12.0721 10.4585C12.1689 10.4585 12.2708 10.4438 12.3776 10.4143C12.4845 10.3849 12.586 10.3415 12.682 10.2842L20.9016 5.14335C21.0565 5.04654 21.1727 4.92571 21.2501 4.78088C21.3276 4.63605 21.3663 4.47611 21.3663 4.30107C21.3663 3.91381 21.2017 3.62337 20.8725 3.42974C20.5434 3.23611 20.2045 3.24579 19.856 3.45878L12.0721 8.33823L4.2882 3.45878C3.93967 3.24579 3.60082 3.24114 3.27165 3.44484C2.94248 3.64854 2.7779 3.93395 2.7779 4.30107C2.7779 4.4947 2.81662 4.66432 2.89407 4.80992C2.97152 4.95553 3.0877 5.06668 3.24261 5.14335L11.4622 10.2842C11.559 10.3423 11.6608 10.3861 11.7677 10.4155C11.8746 10.4449 11.9761 10.4592 12.0721 10.4585Z" fill="white"/>
</svg>
