<svg width="64" height="64" viewBox="0 0 64 64" fill="none" xmlns="http://www.w3.org/2000/svg">
<circle cx="32" cy="32.0002" r="31" fill="white" stroke="#E5E5E5" stroke-width="2"/>
<path d="M32 22.2502C30.0716 22.2502 28.1866 22.8221 26.5832 23.8934C24.9798 24.9648 23.7301 26.4875 22.9922 28.2691C22.2542 30.0507 22.0611 32.0111 22.4373 33.9024C22.8136 35.7937 23.7422 37.531 25.1057 38.8945C26.4693 40.2581 28.2066 41.1867 30.0979 41.5629C31.9892 41.9391 33.9496 41.746 35.7312 41.0081C37.5127 40.2701 39.0355 39.0204 40.1068 37.4171C41.1782 35.8137 41.75 33.9286 41.75 32.0002C41.7473 29.4152 40.7192 26.9369 38.8913 25.109C37.0634 23.2811 34.585 22.253 32 22.2502ZM36.2806 30.2809L31.0306 35.5309C30.961 35.6006 30.8783 35.6559 30.7872 35.6937C30.6962 35.7314 30.5986 35.7508 30.5 35.7508C30.4014 35.7508 30.3038 35.7314 30.2128 35.6937C30.1218 35.6559 30.039 35.6006 29.9694 35.5309L27.7194 33.2809C27.5786 33.1401 27.4996 32.9493 27.4996 32.7502C27.4996 32.5512 27.5786 32.3603 27.7194 32.2196C27.8601 32.0789 28.051 31.9998 28.25 31.9998C28.449 31.9998 28.6399 32.0789 28.7806 32.2196L30.5 33.9399L35.2194 29.2196C35.2891 29.1499 35.3718 29.0947 35.4628 29.0569C35.5539 29.0192 35.6515 28.9998 35.75 28.9998C35.8486 28.9998 35.9461 29.0192 36.0372 29.0569C36.1282 29.0947 36.2109 29.1499 36.2806 29.2196C36.3503 29.2893 36.4056 29.372 36.4433 29.4631C36.481 29.5541 36.5004 29.6517 36.5004 29.7502C36.5004 29.8488 36.481 29.9464 36.4433 30.0374C36.4056 30.1285 36.3503 30.2112 36.2806 30.2809Z" fill="#D4D4D4"/>
</svg>
