<svg width="52" height="52" viewBox="0 0 52 52" fill="none" xmlns="http://www.w3.org/2000/svg">
<rect x="0.75" y="0.75" width="50.5" height="50.5" rx="25.25" stroke="#404040" stroke-width="1.5"/>
<path d="M36.5 32H35.75V29.75C35.75 29.5511 35.671 29.3603 35.5303 29.2197C35.3897 29.079 35.1989 29 35 29H29C28.8011 29 28.6103 29.079 28.4697 29.2197C28.329 29.3603 28.25 29.5511 28.25 29.75V32H17.75V19.25H34.25V26.75C34.25 26.9489 34.329 27.1397 34.4697 27.2803C34.6103 27.421 34.8011 27.5 35 27.5C35.1989 27.5 35.3897 27.421 35.5303 27.2803C35.671 27.1397 35.75 26.9489 35.75 26.75V19.25C35.75 18.8522 35.592 18.4706 35.3107 18.1893C35.0294 17.908 34.6478 17.75 34.25 17.75H17.75C17.3522 17.75 16.9706 17.908 16.6893 18.1893C16.408 18.4706 16.25 18.8522 16.25 19.25V32H15.5C15.3011 32 15.1103 32.079 14.9697 32.2197C14.829 32.3603 14.75 32.5511 14.75 32.75C14.75 32.9489 14.829 33.1397 14.9697 33.2803C15.1103 33.421 15.3011 33.5 15.5 33.5H36.5C36.6989 33.5 36.8897 33.421 37.0303 33.2803C37.171 33.1397 37.25 32.9489 37.25 32.75C37.25 32.5511 37.171 32.3603 37.0303 32.2197C36.8897 32.079 36.6989 32 36.5 32ZM29.75 30.5H34.25V32H29.75V30.5Z" fill="white"/>
</svg>
