<svg width="18" height="18" viewBox="0 0 18 18" fill="none" xmlns="http://www.w3.org/2000/svg">
<path d="M9 1.6875C7.55373 1.6875 6.13993 2.11637 4.9374 2.91988C3.73486 3.72339 2.7976 4.86544 2.24413 6.20163C1.69067 7.53781 1.54586 9.00811 1.82801 10.4266C2.11017 11.8451 2.80661 13.148 3.82928 14.1707C4.85196 15.1934 6.15492 15.8898 7.57341 16.172C8.99189 16.4541 10.4622 16.3093 11.7984 15.7559C13.1346 15.2024 14.2766 14.2651 15.0801 13.0626C15.8836 11.8601 16.3125 10.4463 16.3125 9C16.3103 7.06129 15.5391 5.20262 14.1683 3.83175C12.7974 2.46087 10.9387 1.68973 9 1.6875ZM15.1875 9C15.188 9.57063 15.1092 10.1386 14.9534 10.6875H12.2456C12.4181 9.56911 12.4181 8.43089 12.2456 7.3125H14.9534C15.1092 7.86144 15.188 8.42937 15.1875 9ZM7.17188 11.8125H10.8281C10.4679 12.9928 9.84261 14.075 9 14.9766C8.15771 14.0748 7.53245 12.9926 7.17188 11.8125ZM6.89766 10.6875C6.70454 9.57079 6.70454 8.42921 6.89766 7.3125H11.108C11.3011 8.42921 11.3011 9.57079 11.108 10.6875H6.89766ZM2.8125 9C2.81201 8.42937 2.89081 7.86144 3.04664 7.3125H5.75438C5.58188 8.43089 5.58188 9.56911 5.75438 10.6875H3.04664C2.89081 10.1386 2.81201 9.57063 2.8125 9ZM10.8281 6.1875H7.17188C7.53208 5.00724 8.15739 3.92497 9 3.02344C9.84229 3.92521 10.4676 5.0074 10.8281 6.1875ZM14.5076 6.1875H12.0031C11.6874 5.02939 11.1554 3.94149 10.4351 2.98125C11.3053 3.19031 12.1201 3.58508 12.8235 4.13849C13.527 4.69191 14.1024 5.39088 14.5104 6.1875H14.5076ZM7.56492 2.98125C6.84464 3.94149 6.31262 5.02939 5.99696 6.1875H3.48961C3.89762 5.39088 4.47305 4.69191 5.17647 4.13849C5.87989 3.58508 6.69466 3.19031 7.56492 2.98125ZM3.48961 11.8125H5.99696C6.31262 12.9706 6.84464 14.0585 7.56492 15.0188C6.69466 14.8097 5.87989 14.4149 5.17647 13.8615C4.47305 13.3081 3.89762 12.6091 3.48961 11.8125ZM10.4351 15.0188C11.1554 14.0585 11.6874 12.9706 12.0031 11.8125H14.5104C14.1024 12.6091 13.527 13.3081 12.8235 13.8615C12.1201 14.4149 11.3053 14.8097 10.4351 15.0188Z" fill="url(#paint0_linear_7185_16688)"/>
<defs>
<linearGradient id="paint0_linear_7185_16688" x1="2.61375" y1="6.15626" x2="15.8337" y2="6.19724" gradientUnits="userSpaceOnUse">
<stop stop-color="#39B6D8"/>
<stop offset="0.5" stop-color="#F7D344"/>
<stop offset="1" stop-color="#E38330"/>
</linearGradient>
</defs>
</svg>
