<svg width="52" height="52" viewBox="0 0 52 52" fill="none" xmlns="http://www.w3.org/2000/svg">
<circle cx="25.5504" cy="25.9997" r="25.0504" stroke="url(#paint0_linear_3528_5536)"/>
<g clip-path="url(#clip0_3528_5536)">
<path d="M33.8577 18.4277H18.1434C17.3544 18.4277 16.7148 19.0673 16.7148 19.8563V25.5706C16.7148 26.3596 17.3544 26.9992 18.1434 26.9992H33.8577C34.6467 26.9992 35.2863 26.3596 35.2863 25.5706V19.8563C35.2863 19.0673 34.6467 18.4277 33.8577 18.4277Z" stroke="#000001" stroke-width="1.4" stroke-linecap="round" stroke-linejoin="round"/>
<path d="M20.9994 23.4286C21.3939 23.4286 21.7137 23.1088 21.7137 22.7143C21.7137 22.3198 21.3939 22 20.9994 22C20.605 22 20.2852 22.3198 20.2852 22.7143C20.2852 23.1088 20.605 23.4286 20.9994 23.4286Z" stroke="#000001" stroke-width="1.4" stroke-linecap="round" stroke-linejoin="round"/>
<path d="M26.7148 22.7129H31.7148" stroke="#000001" stroke-width="1.4" stroke-linecap="round" stroke-linejoin="round"/>
<path d="M18.1434 27C17.7645 27 17.4012 27.1505 17.1333 27.4184C16.8654 27.6863 16.7148 28.0497 16.7148 28.4286V34.1429C16.7148 34.5217 16.8654 34.8851 17.1333 35.153C17.4012 35.4209 17.7645 35.5714 18.1434 35.5714H33.8577C34.2366 35.5714 34.5999 35.4209 34.8679 35.153C35.1358 34.8851 35.2863 34.5217 35.2863 34.1429V28.4286C35.2863 28.0497 35.1358 27.6863 34.8679 27.4184C34.5999 27.1505 34.2366 27 33.8577 27" stroke="#000001" stroke-width="1.4" stroke-linecap="round" stroke-linejoin="round"/>
<path d="M20.9994 31.9989C21.3939 31.9989 21.7137 31.6791 21.7137 31.2846C21.7137 30.8901 21.3939 30.5703 20.9994 30.5703C20.605 30.5703 20.2852 30.8901 20.2852 31.2846C20.2852 31.6791 20.605 31.9989 20.9994 31.9989Z" stroke="#000001" stroke-width="1.4" stroke-linecap="round" stroke-linejoin="round"/>
<path d="M26.7148 31.2852H31.7148" stroke="#000001" stroke-width="1.4" stroke-linecap="round" stroke-linejoin="round"/>
</g>
<defs>
<linearGradient id="paint0_linear_3528_5536" x1="-4.38008" y1="16.0634" x2="55.6488" y2="18.3465" gradientUnits="userSpaceOnUse">
<stop stop-color="#39B5D7"/>
<stop offset="0.502211" stop-color="#F7D544"/>
<stop offset="1" stop-color="#E38330"/>
</linearGradient>
<clipPath id="clip0_3528_5536">
<rect width="20" height="20" fill="white" transform="translate(16 16)"/>
</clipPath>
</defs>
</svg>
