<svg width="41" height="51" viewBox="0 0 41 51" fill="none" xmlns="http://www.w3.org/2000/svg">
<path d="M28.9448 0.000172377C31.6515 0.000172377 33.8682 0.455173 35.5948 1.36517C37.3448 2.25184 38.5815 3.43017 39.3048 4.90017C40.0282 6.34684 40.2032 7.89851 39.8298 9.55517C39.5732 11.0018 39.0132 12.1218 38.1498 12.9152C37.2865 13.7085 36.2832 14.1052 35.1398 14.1052C33.9032 14.1052 33.0515 13.7318 32.5848 12.9852C32.1182 12.2385 32.0832 11.1885 32.4798 9.83517L33.1098 7.56018C33.6465 5.71684 33.5065 4.27017 32.6898 3.22017C31.8965 2.14684 30.3798 1.61017 28.1398 1.61017C26.0165 1.61017 23.8465 2.46184 21.6298 4.16518C19.4132 5.84517 17.2665 8.55184 15.1898 12.2852C13.1365 15.9952 11.2465 20.9185 9.51984 27.0552C8.37651 31.1618 7.66484 34.6152 7.38484 37.4152C7.12818 40.2152 7.23318 42.4668 7.69984 44.1702C8.16651 45.8502 8.93651 47.0752 10.0098 47.8452C11.0832 48.5918 12.4015 48.9652 13.9648 48.9652C15.8548 48.9652 17.6048 48.4635 19.2148 47.4602C20.8248 46.4568 22.2598 44.9635 23.5198 42.9802C24.8032 40.9968 25.8415 38.5235 26.6348 35.5602C27.4748 32.5268 27.7548 30.0185 27.4748 28.0352C27.2182 26.0518 26.5065 24.5702 25.3398 23.5902C24.1732 22.6102 22.6332 22.1202 20.7198 22.1202C19.4132 22.1202 18.0832 22.3768 16.7298 22.8902C15.3998 23.4035 14.1282 24.1502 12.9148 25.1302C11.7015 26.0868 10.6165 27.2302 9.65984 28.5602C8.72651 29.8902 8.01484 31.3602 7.52484 32.9702L6.54484 32.5152C7.10484 30.6252 7.94484 28.9218 9.06484 27.4052C10.2082 25.8652 11.5498 24.5468 13.0898 23.4502C14.6298 22.3535 16.2865 21.5135 18.0598 20.9302C19.8565 20.3468 21.7115 20.0552 23.6248 20.0552C26.4248 20.0552 28.7698 20.6618 30.6598 21.8752C32.5498 23.0885 33.8098 24.8385 34.4398 27.1252C35.0932 29.4118 34.9648 32.1535 34.0548 35.3502C33.1915 38.4068 31.7448 41.0785 29.7148 43.3652C27.7082 45.6518 25.3048 47.4252 22.5048 48.6852C19.7282 49.9452 16.7532 50.5752 13.5798 50.5752C9.86984 50.5752 6.90651 49.6068 4.68984 47.6702C2.49651 45.7102 1.16651 42.8985 0.699844 39.2352C0.233177 35.5485 0.734844 31.1385 2.20484 26.0052C3.86151 20.2185 6.06651 15.4002 8.81984 11.5502C11.5965 7.70017 14.7115 4.81851 18.1648 2.90517C21.6182 0.968506 25.2115 0.000172377 28.9448 0.000172377Z" fill="#E5E5E5"/>
</svg>
