<svg width="80" height="60" viewBox="0 0 80 60" fill="none" xmlns="http://www.w3.org/2000/svg">
<rect width="80" height="60" rx="5" fill="#090909"/>
<path d="M40 27H39C38.4477 27 38 27.4476 38 27.9999V28.375C38 28.8195 38.2934 29.2106 38.72 29.335L41.28 30.0817C41.7067 30.2061 42 30.597 42 31.0415V32.0003C42 32.5526 41.5523 33 41 33H40M40 27H41C41.5523 27 42 27.4477 42 28V28.5008M40 27V25.5M40 33H39C38.4477 33 38 32.5523 38 32V31.4995M40 33V34.5M29 21H41C45.4183 21 49 24.5817 49 29M29 21C29.4096 21 29.9908 20.7535 30.4103 20.4969C30.9706 20.1543 31.4591 19.7054 31.8682 19.1917C32.1859 18.7927 32.5001 18.3178 32.5001 18M29 21C29.4096 21 29.9908 21.2465 30.4103 21.5031C30.9706 21.8457 31.4591 22.2946 31.8682 22.8083C32.1859 23.2073 32.5001 23.6822 32.5001 24M51 39H39C34.5817 39 31 35.4183 31 31M51 39C50.5905 39 50.0094 39.2465 49.5898 39.503C49.0296 39.8457 48.5411 40.2946 48.132 40.8083C47.8142 41.2073 47.5 41.6822 47.5 42M51 39C50.5905 39 50.0093 38.7535 49.5898 38.497C49.0296 38.1543 48.5411 37.7054 48.132 37.1917C47.8142 36.7927 47.5 36.3178 47.5 36M46 30C46 26.6863 43.3137 24 40 24C36.6863 24 34 26.6863 34 30C34 33.3137 36.6863 36 40 36C43.3137 36 46 33.3137 46 30Z" stroke="white"/>
<path d="M40 27H39C38.4477 27 38 27.4476 38 27.9999V28.375C38 28.8195 38.2934 29.2106 38.72 29.335L41.28 30.0817C41.7067 30.2061 42 30.597 42 31.0415V32.0003C42 32.5526 41.5523 33 41 33H40M40 27H41C41.5523 27 42 27.4477 42 28V28.5008M40 27V25.5M40 33H39C38.4477 33 38 32.5523 38 32V31.4995M40 33V34.5M46 30C46 26.6863 43.3137 24 40 24C36.6863 24 34 26.6863 34 30C34 33.3137 36.6863 36 40 36C43.3137 36 46 33.3137 46 30Z" stroke="url(#paint0_linear_325_359)"/>
<defs>
<linearGradient id="paint0_linear_325_359" x1="32.9839" y1="24" x2="45.6471" y2="24.1012" gradientUnits="userSpaceOnUse">
<stop stop-color="#39B6D8"/>
<stop offset="0.5" stop-color="#F7D344"/>
<stop offset="1" stop-color="#E38330"/>
</linearGradient>
</defs>
</svg>
