<svg width="80" height="60" viewBox="0 0 80 60" fill="none" xmlns="http://www.w3.org/2000/svg">
<rect width="80" height="60" rx="5" fill="#090909"/>
<g clip-path="url(#clip0_325_358)">
<path d="M40 24V32.5M40 34V36M35.4436 19C35.4436 19 37.2179 19.25 40 19.25C42.782 19.25 44.5563 19 44.5563 19C44.5563 19 45.6342 20.4314 47.6014 22.3986C49.5686 24.3658 51 25.4436 51 25.4436C51 25.4436 50.75 27.2179 50.75 30C50.75 32.782 51 34.5563 51 34.5563C51 34.5563 49.5686 35.6342 47.6014 37.6014C45.6342 39.5686 44.5563 41 44.5563 41C44.5563 41 42.782 40.75 40 40.75C37.2179 40.75 35.4436 41 35.4436 41C35.4436 41 34.3658 39.5686 32.3986 37.6014C30.4314 35.6342 29 34.5563 29 34.5563C29 34.5563 29.25 32.782 29.25 30C29.25 27.2179 29 25.4436 29 25.4436C29 25.4436 30.4314 24.3658 32.3986 22.3986C34.3658 20.4314 35.4436 19 35.4436 19Z" stroke="white"/>
<path d="M40 24V32.5M40 34V36" stroke="url(#paint0_linear_325_358)"/>
</g>
<defs>
<linearGradient id="paint0_linear_325_358" x1="39.9153" y1="24" x2="41.9654" y2="24.3457" gradientUnits="userSpaceOnUse">
<stop stop-color="#39B6D8"/>
<stop offset="0.5" stop-color="#F7D344"/>
<stop offset="1" stop-color="#E38330"/>
</linearGradient>
<clipPath id="clip0_325_358">
<rect width="24" height="24" fill="white" transform="translate(28 18)"/>
</clipPath>
</defs>
</svg>
