<svg width="48" height="48" viewBox="0 0 48 48" fill="none" xmlns="http://www.w3.org/2000/svg">
<path d="M-4.57764e-05 0H47.9971V48H-4.57764e-05V0Z" fill="#CF8D2A"/>
<path d="M-4.57764e-05 0H47.9971V48H-4.57764e-05V0Z" fill="#CF8D2A"/>
<path d="M4.12048 5.98298C4.03739 6.02799 3.7965 6.12247 3.39733 6.26543C3.08077 6.37129 2.88143 6.44252 2.79883 6.48011V5.18063C3.05455 5.08269 3.36518 4.93231 3.73071 4.72901C4.09575 4.52521 4.35395 4.3407 4.50481 4.17499H5.87198V13.3277H4.12048V5.98298Z" fill="white"/>
<path d="M6.84351 12.0959L9.05797 8.67238L9.1935 8.46858C9.47989 8.03921 9.69061 7.68009 9.82663 7.38972C9.96167 7.09985 10.0299 6.78178 10.0299 6.43503C10.0299 6.1412 9.97304 5.91712 9.86027 5.76278C9.74749 5.60845 9.58525 5.53128 9.37454 5.53128C9.05797 5.53128 8.83935 5.65148 8.71915 5.89238C8.59846 6.13378 8.53812 6.4652 8.53812 6.88665V7.30514H6.84351V6.85302C6.84351 5.99428 7.04482 5.31462 7.44795 4.81353C7.85058 4.31243 8.48173 4.06213 9.34041 4.06213C10.1313 4.06213 10.7323 4.27088 11.1428 4.68936C11.5534 5.10735 11.7587 5.70045 11.7587 6.46866C11.7587 6.81542 11.7057 7.14338 11.6004 7.45205C11.4945 7.76072 11.3704 8.03575 11.2274 8.27665C11.084 8.51805 10.8619 8.86035 10.5607 9.30505L8.79829 11.949H11.5212V13.3276H6.84351V12.0959Z" fill="white"/>
<path d="M36.4647 24.9093C34.3353 23.2274 31.5139 23.1928 30.4806 23.4386L30.3609 23.4663C29.1673 23.7483 27.2719 24.2147 25.0535 26.968C25.0411 26.9829 25.0283 26.9987 25.0164 27.0145L24.9887 27.0487C24.9669 27.0793 24.9516 27.1154 24.9516 27.156C24.9516 27.1891 24.9595 27.2198 24.9758 27.248L25.0273 27.3326C25.3058 27.7986 25.6569 28.3981 25.9537 28.9506C25.9562 28.9566 25.9592 28.961 25.9616 28.968C25.9933 29.0288 26.0566 29.0718 26.1308 29.0718C26.1822 29.0718 26.2287 29.0516 26.2619 29.0184C26.2757 29.0006 26.2901 28.9813 26.3024 28.962C28.2716 26.2389 29.8203 25.8625 30.8674 25.6161L30.993 25.5869C31.5366 25.4563 33.6037 25.4643 35.096 26.6421C36.2604 27.5616 36.8515 29.0248 36.8515 30.9901C36.8515 34.2875 35.2479 35.5776 33.902 36.0787C31.8176 36.8583 29.8183 35.8165 29.8034 35.8086L29.7139 35.7651C28.5688 35.2675 26.8599 34.2331 25.2494 30.998C22.0031 24.4784 19.2881 23.864 17.4911 23.4574L17.3951 23.4357C16.577 23.2502 13.7358 23.1191 11.5026 24.9018C10.3357 25.8328 8.9458 27.6428 8.9458 30.9773C8.9458 33.0088 9.36327 34.3504 10.4356 35.7616C10.6711 36.0832 13.075 39.1718 17.723 38.2809C18.467 38.1385 19.4745 37.7833 20.583 36.9528L21.6059 37.8753C21.6727 37.9362 21.779 37.9312 21.8404 37.8639C21.87 37.8328 21.8819 37.7927 21.8814 37.7531V37.7393L22.6194 33.1993L22.6199 33.1488C22.6194 33.1048 22.6016 33.0598 22.565 33.0281C22.5338 32.9985 22.4953 32.9871 22.4567 32.9871L22.425 32.99L22.377 32.995L18.0292 34.2124L17.9501 34.2252C17.9184 34.2321 17.8892 34.2485 17.867 34.2737C17.8037 34.3429 17.8096 34.4483 17.8793 34.5096L17.9303 34.5571L18.9047 35.4366C18.2755 35.8442 17.727 36.0312 17.3085 36.1124C13.946 36.7534 12.2856 34.5512 12.2227 34.4646L12.199 34.4325C11.418 33.4066 11.1538 32.535 11.1538 30.9773C11.1538 29.0055 11.7345 27.5418 12.8796 26.6272C14.3338 25.4667 16.3396 25.4598 16.9059 25.5889L17.0038 25.6112C18.4764 25.9441 20.4935 26.4007 23.2718 31.9824C24.7152 34.8801 26.523 36.7752 28.7979 37.7744C29.0872 37.9218 30.4687 38.5773 32.2608 38.5773C33.0106 38.5773 33.8317 38.4625 34.6741 38.1494C35.9923 37.6572 39.0595 35.9758 39.0595 30.9901C39.0595 27.6581 37.6483 25.8442 36.4647 24.9093Z" fill="white"/>
<path d="M15.2717 7.66695V4.16919H16.1094C16.3469 4.16919 16.5455 4.19942 16.7053 4.25555C16.8694 4.31169 16.9946 4.40669 17.0766 4.54056C17.163 4.67442 17.2062 4.86011 17.2062 5.09329C17.2062 5.23579 17.1932 5.36102 17.1673 5.47329C17.1414 5.58557 17.0982 5.68057 17.0334 5.76261C16.973 5.84034 16.8866 5.9008 16.7787 5.94398L17.2666 7.66695H16.6276L16.2044 6.06489H15.9108V7.66695H15.2717ZM15.9108 5.66329H16.1094C16.2346 5.66329 16.3296 5.64602 16.403 5.61148C16.4764 5.57261 16.5326 5.51648 16.5628 5.43875C16.593 5.3567 16.6103 5.25738 16.6103 5.13215C16.6103 4.95511 16.5757 4.82556 16.511 4.73919C16.4462 4.64851 16.3253 4.60533 16.144 4.60533H15.9108V5.66329Z" fill="white"/>
<path d="M17.5537 7.66695V4.16919H19.0218V4.61828H18.1928V5.62443H18.8448V6.06921H18.1928V7.22649H19.0304V7.66695H17.5537Z" fill="white"/>
<path d="M20.142 7.71431C19.9304 7.71431 19.7577 7.67545 19.6152 7.5934C19.4727 7.51136 19.3691 7.39045 19.2957 7.23067C19.2223 7.0709 19.1834 6.87658 19.1748 6.64771L19.7232 6.53976C19.7275 6.67362 19.7448 6.79453 19.7707 6.89817C19.8009 7.00181 19.8398 7.08385 19.8959 7.13999C19.952 7.19613 20.0298 7.22204 20.1204 7.22204C20.2241 7.22204 20.2975 7.19181 20.3406 7.13135C20.3838 7.06658 20.4054 6.98885 20.4054 6.89385C20.4054 6.74271 20.3709 6.61748 20.3018 6.51816C20.2327 6.41885 20.142 6.32385 20.0254 6.22453L19.585 5.83589C19.4598 5.72793 19.3605 5.61134 19.2871 5.48179C19.2137 5.34793 19.1791 5.18815 19.1791 4.99383C19.1791 4.71747 19.2612 4.50587 19.4209 4.35474C19.5807 4.2036 19.8009 4.13019 20.0816 4.13019C20.2457 4.13019 20.3838 4.1561 20.4918 4.20792C20.5997 4.25542 20.6861 4.32451 20.7509 4.41519C20.8156 4.50587 20.8674 4.60519 20.8977 4.72178C20.9279 4.83406 20.9495 4.95497 20.9581 5.0802L20.4141 5.1752C20.4097 5.06724 20.3968 4.96792 20.3752 4.88156C20.3579 4.79519 20.3234 4.7261 20.2759 4.6786C20.2284 4.6311 20.1593 4.60519 20.0686 4.60519C19.9736 4.60519 19.9002 4.63542 19.8484 4.70019C19.8009 4.76065 19.775 4.83838 19.775 4.92906C19.775 5.04565 19.8009 5.14497 19.8484 5.2227C19.8959 5.29611 19.9693 5.37384 20.06 5.45588L20.4961 5.8402C20.6386 5.96111 20.7638 6.10362 20.8631 6.26771C20.9668 6.42748 21.0186 6.62612 21.0186 6.85499C21.0186 7.0234 20.9797 7.17022 20.9063 7.29976C20.8329 7.42931 20.7336 7.53295 20.5997 7.60636C20.4702 7.67977 20.3191 7.71431 20.142 7.71431Z" fill="white"/>
<path d="M21.2542 7.66695V4.16919H22.2818C22.4934 4.16919 22.6618 4.20805 22.7913 4.28578C22.9252 4.36351 23.0202 4.47578 23.0806 4.62692C23.1454 4.77374 23.1756 4.95079 23.1756 5.16238C23.1756 5.39125 23.1368 5.57261 23.0591 5.71511C22.9813 5.8533 22.8734 5.95262 22.7309 6.01739C22.5927 6.08216 22.4286 6.11239 22.2386 6.11239H21.8932V7.66695H21.2542ZM21.8932 5.66329H22.135C22.2516 5.66329 22.338 5.64602 22.4027 5.61579C22.4675 5.58125 22.515 5.52943 22.5366 5.45602C22.5625 5.38261 22.5754 5.28329 22.5754 5.15806C22.5754 5.03283 22.5668 4.9292 22.5452 4.85147C22.5279 4.76942 22.4891 4.71329 22.4243 4.67442C22.3639 4.63556 22.2689 4.61828 22.135 4.61828H21.8932V5.66329Z" fill="white"/>
<path d="M24.3397 7.71431C24.0935 7.71431 23.8949 7.66681 23.7481 7.57613C23.6013 7.48545 23.4977 7.35158 23.4329 7.17885C23.3681 7.00612 23.3379 6.80317 23.3379 6.56567V5.25724C23.3379 5.01974 23.3681 4.8211 23.4329 4.65269C23.4977 4.48428 23.6013 4.35474 23.7481 4.26405C23.8949 4.17337 24.0935 4.13019 24.3397 4.13019C24.5944 4.13019 24.793 4.17337 24.9355 4.26405C25.0823 4.35474 25.186 4.48428 25.2507 4.65269C25.3155 4.8211 25.3501 5.01974 25.3501 5.25724V6.56998C25.3501 6.80317 25.3155 7.00612 25.2507 7.17885C25.186 7.34726 25.0823 7.48113 24.9355 7.57613C24.793 7.66681 24.5944 7.71431 24.3397 7.71431ZM24.3397 7.24363C24.4476 7.24363 24.5253 7.22204 24.5728 7.17453C24.6246 7.12703 24.6592 7.06658 24.6765 6.98453C24.6937 6.90249 24.7024 6.81612 24.7024 6.72112V5.11042C24.7024 5.01111 24.6937 4.92474 24.6765 4.84701C24.6592 4.76928 24.6246 4.70883 24.5728 4.66565C24.5253 4.61815 24.4476 4.59656 24.3397 4.59656C24.2403 4.59656 24.1626 4.61815 24.1108 4.66565C24.059 4.70883 24.0244 4.76928 24.0072 4.84701C23.9899 4.92474 23.9813 5.01111 23.9813 5.11042V6.72112C23.9813 6.81612 23.9899 6.90249 24.0029 6.98453C24.0201 7.06658 24.0547 7.12703 24.1065 7.17453C24.1583 7.22204 24.236 7.24363 24.3397 7.24363Z" fill="white"/>
<path d="M25.6802 7.66695V4.16919H26.1249L26.9756 6.16421V4.16919H27.5023V7.66695H27.0792L26.2242 5.57693V7.66695H25.6802Z" fill="white"/>
<path d="M28.7739 7.71437C28.5623 7.71437 28.3896 7.67551 28.2471 7.59346C28.1046 7.51142 28.0009 7.39051 27.9275 7.23073C27.8541 7.07096 27.8153 6.87664 27.8066 6.64777L28.355 6.53982C28.3593 6.67368 28.3766 6.79459 28.4025 6.89823C28.4327 7.00187 28.4716 7.08391 28.5277 7.14005C28.5839 7.19619 28.6616 7.2221 28.7523 7.2221C28.8559 7.2221 28.9293 7.19187 28.9725 7.13141C29.0157 7.06664 29.0373 6.98891 29.0373 6.89391C29.0373 6.74277 29.0027 6.61755 28.9336 6.51823C28.8645 6.41891 28.7739 6.32391 28.6573 6.22459L28.2168 5.83595C28.0916 5.72799 27.9923 5.6114 27.9189 5.48185C27.8455 5.34799 27.811 5.18821 27.811 4.99389C27.811 4.71753 27.893 4.50593 28.0528 4.3548C28.2125 4.20366 28.4327 4.13025 28.7134 4.13025C28.8775 4.13025 29.0157 4.15616 29.1236 4.20798C29.2316 4.25548 29.3179 4.32457 29.3827 4.41525C29.4475 4.50593 29.4993 4.60525 29.5295 4.72185C29.5597 4.83412 29.5813 4.95503 29.59 5.08026L29.0459 5.17526C29.0416 5.0673 29.0286 4.96798 29.007 4.88162C28.9898 4.79526 28.9552 4.72616 28.9077 4.67866C28.8602 4.63116 28.7911 4.60525 28.7005 4.60525C28.6055 4.60525 28.5321 4.63548 28.4802 4.70025C28.4327 4.76071 28.4068 4.83844 28.4068 4.92912C28.4068 5.04571 28.4327 5.14503 28.4802 5.22276C28.5277 5.29617 28.6011 5.3739 28.6918 5.45594L29.1279 5.84027C29.2704 5.96118 29.3956 6.10368 29.495 6.26777C29.5986 6.42754 29.6504 6.62618 29.6504 6.85505C29.6504 7.02346 29.6115 7.17028 29.5381 7.29982C29.4647 7.42937 29.3654 7.53301 29.2316 7.60642C29.102 7.67983 28.9509 7.71437 28.7739 7.71437Z" fill="white"/>
<path d="M30.5333 4.16913H29.9028V7.66689H30.5333V4.16913Z" fill="white"/>
<path d="M30.9326 7.66689V4.16913H31.7919C31.9473 4.16913 32.0855 4.18208 32.2107 4.21231C32.3359 4.24254 32.4439 4.29004 32.5346 4.35913C32.6253 4.4239 32.6987 4.51459 32.7462 4.63118C32.7937 4.74777 32.8196 4.89027 32.8196 5.06732C32.8196 5.20982 32.798 5.33073 32.7591 5.43005C32.7202 5.52937 32.6641 5.61141 32.5907 5.67187C32.5173 5.72801 32.4223 5.76687 32.31 5.78846C32.4482 5.81005 32.5605 5.86187 32.6512 5.93528C32.7418 6.00869 32.8109 6.10369 32.8541 6.22028C32.9016 6.33688 32.9232 6.47938 32.9232 6.64779C32.9232 6.8162 32.9016 6.96302 32.8584 7.09257C32.8196 7.21779 32.7548 7.32575 32.6727 7.41211C32.5907 7.49416 32.4914 7.55893 32.3662 7.60212C32.2453 7.6453 32.1028 7.66689 31.9387 7.66689H30.9326ZM31.5717 7.21779H31.8135C32.0078 7.21779 32.1373 7.17029 32.2064 7.07961C32.2755 6.98461 32.31 6.83779 32.31 6.64347C32.31 6.50097 32.2928 6.3887 32.2582 6.30233C32.228 6.21165 32.1719 6.14687 32.0941 6.10369C32.0207 6.06051 31.9171 6.03892 31.7919 6.03892H31.5717V7.21779ZM31.5717 5.59846H31.7876C31.9128 5.59846 32.0121 5.58119 32.0812 5.54232C32.1503 5.50346 32.1978 5.44732 32.2237 5.36959C32.2539 5.29187 32.2669 5.19255 32.2669 5.07596C32.2669 4.95073 32.2453 4.85573 32.2021 4.79095C32.1632 4.72186 32.0985 4.67436 32.0164 4.65277C31.9344 4.62686 31.8264 4.61391 31.6969 4.61391H31.5717V5.59846Z" fill="white"/>
<path d="M33.1975 7.66695V4.16919H33.8366V7.22649H34.6829V7.66695H33.1975Z" fill="white"/>
<path d="M34.8752 7.66695V4.16919H36.3433V4.61828H35.5143V5.62443H36.1663V6.06921H35.5143V7.22649H36.352V7.66695H34.8752Z" fill="white"/>
<path d="M16.2129 13.4306C15.9581 13.4306 15.7552 13.3788 15.6083 13.2795C15.4658 13.1802 15.3622 13.042 15.3061 12.8693C15.25 12.6922 15.2197 12.4936 15.2197 12.2647V11.0167C15.2197 10.7792 15.25 10.572 15.3061 10.3949C15.3622 10.2179 15.4658 10.084 15.6083 9.989C15.7552 9.894 15.9581 9.8465 16.2129 9.8465C16.4547 9.8465 16.6446 9.88968 16.7785 9.97172C16.9167 10.0538 17.016 10.1704 17.0721 10.3215C17.1283 10.4726 17.1585 10.6497 17.1585 10.8526V11.1463H16.5453V10.844C16.5453 10.7447 16.541 10.6583 16.5281 10.5763C16.5194 10.4942 16.4935 10.4338 16.446 10.3863C16.4028 10.3388 16.3251 10.3129 16.2172 10.3129C16.1092 10.3129 16.0272 10.3388 15.9754 10.3906C15.9279 10.4381 15.8933 10.5072 15.8804 10.5935C15.8674 10.6756 15.8588 10.7706 15.8588 10.8786V12.3986C15.8588 12.5238 15.8674 12.6318 15.889 12.7138C15.9106 12.7958 15.9451 12.8563 15.997 12.8995C16.0531 12.9383 16.1265 12.9599 16.2172 12.9599C16.3251 12.9599 16.3985 12.934 16.4417 12.8865C16.4892 12.8347 16.5151 12.7656 16.5281 12.6836C16.541 12.6015 16.5453 12.5065 16.5453 12.4029V12.0877H17.1585V12.3683C17.1585 12.5756 17.1326 12.7613 17.0764 12.9211C17.0203 13.0808 16.9253 13.2061 16.7871 13.2968C16.6533 13.3874 16.459 13.4306 16.2129 13.4306Z" fill="white"/>
<path d="M18.4131 13.4306C18.167 13.4306 17.9684 13.3831 17.8216 13.2924C17.6748 13.2017 17.5711 13.0678 17.5064 12.8951C17.4416 12.7224 17.4114 12.5194 17.4114 12.2819V10.9735C17.4114 10.736 17.4416 10.5374 17.5064 10.3689C17.5711 10.2005 17.6748 10.071 17.8216 9.9803C17.9684 9.88962 18.167 9.84644 18.4131 9.84644C18.6679 9.84644 18.8665 9.88962 19.009 9.9803C19.1558 10.071 19.2595 10.2005 19.3242 10.3689C19.389 10.5374 19.4235 10.736 19.4235 10.9735V12.2862C19.4235 12.5194 19.389 12.7224 19.3242 12.8951C19.2595 13.0635 19.1558 13.1974 19.009 13.2924C18.8665 13.3831 18.6679 13.4306 18.4131 13.4306ZM18.4131 12.9599C18.5211 12.9599 18.5988 12.9383 18.6463 12.8908C18.6981 12.8433 18.7327 12.7828 18.7499 12.7008C18.7672 12.6187 18.7758 12.5324 18.7758 12.4374V10.8267C18.7758 10.7274 18.7672 10.641 18.7499 10.5633C18.7327 10.4855 18.6981 10.4251 18.6463 10.3819C18.5988 10.3344 18.5211 10.3128 18.4131 10.3128C18.3138 10.3128 18.2361 10.3344 18.1843 10.3819C18.1325 10.4251 18.0979 10.4855 18.0807 10.5633C18.0634 10.641 18.0548 10.7274 18.0548 10.8267V12.4374C18.0548 12.5324 18.0634 12.6187 18.0763 12.7008C18.0936 12.7828 18.1282 12.8433 18.18 12.8908C18.2318 12.9383 18.3095 12.9599 18.4131 12.9599Z" fill="white"/>
<path d="M19.7539 13.3831V9.88531H20.1987L21.0493 11.8803V9.88531H21.5761V13.3831H21.1529L20.298 11.2931V13.3831H19.7539Z" fill="white"/>
<path d="M22.8476 13.4306C22.636 13.4306 22.4633 13.3917 22.3208 13.3096C22.1783 13.2276 22.0747 13.1067 22.0013 12.9469C21.9279 12.7871 21.889 12.5928 21.8804 12.364L22.4287 12.256C22.4331 12.3899 22.4503 12.5108 22.4762 12.6144C22.5065 12.7181 22.5453 12.8001 22.6015 12.8562C22.6576 12.9124 22.7353 12.9383 22.826 12.9383C22.9296 12.9383 23.003 12.9081 23.0462 12.8476C23.0894 12.7828 23.111 12.7051 23.111 12.6101C23.111 12.459 23.0764 12.3337 23.0074 12.2344C22.9383 12.1351 22.8476 12.0401 22.731 11.9408L22.2906 11.5521C22.1654 11.4442 22.066 11.3276 21.9926 11.198C21.9192 11.0642 21.8847 10.9044 21.8847 10.7101C21.8847 10.4337 21.9667 10.2221 22.1265 10.071C22.2863 9.91985 22.5065 9.84644 22.7871 9.84644C22.9512 9.84644 23.0894 9.87234 23.1973 9.92416C23.3053 9.97166 23.3917 10.0408 23.4564 10.1314C23.5212 10.2221 23.573 10.3214 23.6032 10.438C23.6335 10.5503 23.655 10.6712 23.6637 10.7964L23.1196 10.8914C23.1153 10.7835 23.1023 10.6842 23.0808 10.5978C23.0635 10.5114 23.0289 10.4424 22.9814 10.3948C22.9339 10.3473 22.8649 10.3214 22.7742 10.3214C22.6792 10.3214 22.6058 10.3517 22.554 10.4164C22.5065 10.4769 22.4806 10.5546 22.4806 10.6453C22.4806 10.7619 22.5065 10.8612 22.554 10.9389C22.6015 11.0124 22.6749 11.0901 22.7655 11.1721L23.2017 11.5565C23.3442 11.6774 23.4694 11.8199 23.5687 11.984C23.6723 12.1437 23.7241 12.3424 23.7241 12.5712C23.7241 12.7396 23.6853 12.8865 23.6119 13.016C23.5385 13.1456 23.4391 13.2492 23.3053 13.3226C23.1758 13.396 23.0246 13.4306 22.8476 13.4306Z" fill="white"/>
<path d="M24.9181 13.4306C24.659 13.4306 24.4561 13.3831 24.3136 13.2881C24.1711 13.1931 24.0718 13.0592 24.0156 12.8822C23.9595 12.7051 23.9336 12.4978 23.9336 12.2517V9.88531H24.5554V12.3251C24.5554 12.4331 24.564 12.5367 24.577 12.636C24.5899 12.731 24.6245 12.8088 24.6763 12.8692C24.7324 12.9253 24.8101 12.9556 24.9181 12.9556C25.0304 12.9556 25.1124 12.9253 25.1599 12.8692C25.2117 12.8088 25.2462 12.731 25.2592 12.636C25.2765 12.5367 25.2851 12.4331 25.2851 12.3251V9.88531H25.9026V12.2517C25.9026 12.4978 25.8767 12.7051 25.8205 12.8822C25.7644 13.0592 25.6651 13.1931 25.5226 13.2881C25.3801 13.3831 25.1815 13.4306 24.9181 13.4306Z" fill="white"/>
<path d="M26.2549 13.383L26.3153 9.88519H26.976L27.4725 12.3077L27.9907 9.88519H28.6298L28.6945 13.383H28.2195L28.1677 10.9518L27.6712 13.383H27.2869L26.7817 10.9432L26.7342 13.383H26.2549Z" fill="white"/>
<path d="M29.0723 13.383V9.88519H30.0999C30.3115 9.88519 30.4799 9.92406 30.6095 10.0018C30.7433 10.0795 30.8383 10.1918 30.8988 10.3429C30.9635 10.4897 30.9938 10.6668 30.9938 10.8784C30.9938 11.1073 30.9549 11.2886 30.8772 11.4311C30.7994 11.5693 30.6915 11.6686 30.549 11.7334C30.4108 11.7982 30.2467 11.8284 30.0568 11.8284H29.7113V13.383H29.0723ZM29.7113 11.3793H29.9531C30.0697 11.3793 30.1561 11.362 30.2208 11.3318C30.2856 11.2973 30.3331 11.2454 30.3547 11.172C30.3806 11.0986 30.3936 10.9993 30.3936 10.8741C30.3936 10.7488 30.3849 10.6452 30.3633 10.5675C30.3461 10.4854 30.3072 10.4293 30.2424 10.3904C30.182 10.3516 30.087 10.3343 29.9531 10.3343H29.7113V11.3793Z" fill="white"/>
<path d="M31.557 13.383V10.3559H31V9.88519H32.7444V10.3559H32.1961V13.383H31.557Z" fill="white"/>
<path d="M33.5713 9.88531H32.9409V13.3831H33.5713V9.88531Z" fill="white"/>
<path d="M34.9207 13.4306C34.6746 13.4306 34.476 13.3831 34.3291 13.2924C34.1823 13.2017 34.0787 13.0678 34.0139 12.8951C33.9492 12.7224 33.9189 12.5194 33.9189 12.2819V10.9735C33.9189 10.736 33.9492 10.5374 34.0139 10.3689C34.0787 10.2005 34.1823 10.071 34.3291 9.9803C34.476 9.88962 34.6746 9.84644 34.9207 9.84644C35.1755 9.84644 35.3741 9.88962 35.5166 9.9803C35.6634 10.071 35.767 10.2005 35.8318 10.3689C35.8966 10.5374 35.9311 10.736 35.9311 10.9735V12.2862C35.9311 12.5194 35.8966 12.7224 35.8318 12.8951C35.767 13.0635 35.6634 13.1974 35.5166 13.2924C35.3741 13.3831 35.1755 13.4306 34.9207 13.4306ZM34.9207 12.9599C35.0287 12.9599 35.1064 12.9383 35.1539 12.8908C35.2057 12.8433 35.2402 12.7828 35.2575 12.7008C35.2748 12.6187 35.2834 12.5324 35.2834 12.4374V10.8267C35.2834 10.7274 35.2748 10.641 35.2575 10.5633C35.2402 10.4855 35.2057 10.4251 35.1539 10.3819C35.1064 10.3344 35.0287 10.3128 34.9207 10.3128C34.8214 10.3128 34.7437 10.3344 34.6919 10.3819C34.64 10.4251 34.6055 10.4855 34.5882 10.5633C34.571 10.641 34.5623 10.7274 34.5623 10.8267V12.4374C34.5623 12.5324 34.571 12.6187 34.5839 12.7008C34.6012 12.7828 34.6357 12.8433 34.6875 12.8908C34.7394 12.9383 34.8171 12.9599 34.9207 12.9599Z" fill="white"/>
<path d="M36.2612 13.3831V9.88531H36.706L37.5566 11.8803V9.88531H38.0834V13.3831H37.6602L36.8053 11.2931V13.3831H36.2612Z" fill="white"/>
<path d="M15.0947 19.0994L15.7942 15.6016H16.4765L17.176 19.0994H16.5844L16.4462 18.2919H15.8374L15.6949 19.0994H15.0947ZM15.9022 17.886H16.3772L16.1397 16.4178L15.9022 17.886Z" fill="white"/>
<path d="M17.3855 19.0994V15.6016H17.8302L18.6809 17.5966V15.6016H19.2077V19.0994H18.7845L17.9296 17.0094V19.0994H17.3855Z" fill="white"/>
<path d="M19.5981 19.0994V15.6016H20.4229C20.7079 15.6016 20.9281 15.6405 21.0878 15.7182C21.2476 15.7959 21.3642 15.9169 21.429 16.0766C21.498 16.2364 21.5326 16.4437 21.5326 16.6898V17.968C21.5326 18.2228 21.498 18.4344 21.429 18.6028C21.3642 18.7712 21.2519 18.8964 21.0922 18.9785C20.9367 19.0605 20.7208 19.0994 20.4488 19.0994H19.5981ZM20.2372 18.6546H20.4315C20.5783 18.6546 20.6819 18.6287 20.7467 18.5769C20.8115 18.5251 20.8503 18.4517 20.8633 18.3523C20.8763 18.253 20.8849 18.1278 20.8849 17.9853V16.6466C20.8849 16.5041 20.8763 16.3919 20.8547 16.3055C20.8331 16.2191 20.7942 16.1544 20.7294 16.1155C20.6647 16.0766 20.5654 16.055 20.4229 16.055H20.2372V18.6546Z" fill="white"/>
<path d="M22.772 19.0994V15.6016H23.7996C24.0112 15.6016 24.1796 15.6405 24.3092 15.7182C24.443 15.7959 24.538 15.9082 24.5985 16.0594C24.6632 16.2062 24.6935 16.3832 24.6935 16.5948C24.6935 16.8237 24.6546 17.005 24.5769 17.1475C24.4991 17.2857 24.3912 17.385 24.2487 17.4498C24.1105 17.5146 23.9465 17.5448 23.7565 17.5448H23.411V19.0994H22.772ZM23.411 17.0957H23.6528C23.7694 17.0957 23.8558 17.0785 23.9205 17.0482C23.9853 17.0137 24.0328 16.9619 24.0544 16.8885C24.0803 16.815 24.0933 16.7157 24.0933 16.5905C24.0933 16.4653 24.0846 16.3616 24.063 16.2839C24.0458 16.2019 24.0069 16.1457 23.9421 16.1069C23.8817 16.068 23.7867 16.0507 23.6528 16.0507H23.411V17.0957Z" fill="white"/>
<path d="M24.9072 19.0994V15.6016H25.7449C25.9824 15.6016 26.181 15.6319 26.3408 15.688C26.5049 15.7441 26.6301 15.8391 26.7121 15.973C26.7985 16.1069 26.8417 16.2925 26.8417 16.5257C26.8417 16.6682 26.8287 16.7935 26.8028 16.9057C26.7769 17.018 26.7337 17.113 26.6689 17.195C26.6085 17.2728 26.5221 17.3332 26.4142 17.3764L26.9021 19.0994H26.2631L25.8399 17.4973H25.5463V19.0994H24.9072ZM25.5463 17.0957H25.7449C25.8701 17.0957 25.9651 17.0785 26.0385 17.0439C26.1119 17.005 26.1681 16.9489 26.1983 16.8712C26.2285 16.7891 26.2458 16.6898 26.2458 16.5646C26.2458 16.3875 26.2112 16.258 26.1465 16.1716C26.0817 16.0809 25.9608 16.0378 25.7795 16.0378H25.5463V17.0957Z" fill="white"/>
<path d="M28.1265 19.1469C27.8804 19.1469 27.6818 19.0994 27.535 19.0087C27.3882 18.918 27.2845 18.7841 27.2198 18.6114C27.155 18.4387 27.1248 18.2357 27.1248 17.9982V16.6898C27.1248 16.4523 27.155 16.2537 27.2198 16.0852C27.2845 15.9168 27.3882 15.7873 27.535 15.6966C27.6818 15.6059 27.8804 15.5627 28.1265 15.5627C28.3813 15.5627 28.5799 15.6059 28.7224 15.6966C28.8692 15.7873 28.9728 15.9168 29.0376 16.0852C29.1024 16.2537 29.1369 16.4523 29.1369 16.6898V18.0025C29.1369 18.2357 29.1024 18.4387 29.0376 18.6114C28.9728 18.7798 28.8692 18.9137 28.7224 19.0087C28.5799 19.0994 28.3813 19.1469 28.1265 19.1469ZM28.1265 18.6762C28.2345 18.6762 28.3122 18.6546 28.3597 18.6071C28.4115 18.5596 28.446 18.4991 28.4633 18.4171C28.4806 18.335 28.4892 18.2487 28.4892 18.1537V16.543C28.4892 16.4437 28.4806 16.3573 28.4633 16.2796C28.446 16.2018 28.4115 16.1414 28.3597 16.0982C28.3122 16.0507 28.2345 16.0291 28.1265 16.0291C28.0272 16.0291 27.9495 16.0507 27.8977 16.0982C27.8459 16.1414 27.8113 16.2018 27.794 16.2796C27.7768 16.3573 27.7681 16.4437 27.7681 16.543V18.1537C27.7681 18.2487 27.7768 18.335 27.7897 18.4171C27.807 18.4991 27.8415 18.5596 27.8933 18.6071C27.9452 18.6546 28.0229 18.6762 28.1265 18.6762Z" fill="white"/>
<path d="M29.467 19.0994V15.6016H30.2918C30.5768 15.6016 30.797 15.6405 30.9567 15.7182C31.1165 15.7959 31.2331 15.9169 31.2978 16.0766C31.3669 16.2364 31.4015 16.4437 31.4015 16.6898V17.968C31.4015 18.2228 31.3669 18.4344 31.2978 18.6028C31.2331 18.7712 31.1208 18.8964 30.961 18.9785C30.8056 19.0605 30.5897 19.0994 30.3177 19.0994H29.467ZM30.1061 18.6546H30.3004C30.4472 18.6546 30.5508 18.6287 30.6156 18.5769C30.6804 18.5251 30.7192 18.4517 30.7322 18.3523C30.7452 18.253 30.7538 18.1278 30.7538 17.9853V16.6466C30.7538 16.5041 30.7452 16.3919 30.7236 16.3055C30.702 16.2191 30.6631 16.1544 30.5983 16.1155C30.5336 16.0766 30.4343 16.055 30.2918 16.055H30.1061V18.6546Z" fill="white"/>
<path d="M32.6905 19.1469C32.4315 19.1469 32.2285 19.0994 32.086 19.0044C31.9435 18.9094 31.8442 18.7755 31.7881 18.5985C31.732 18.4214 31.7061 18.2141 31.7061 17.968V15.6016H32.3278V18.0414C32.3278 18.1494 32.3365 18.253 32.3494 18.3523C32.3624 18.4473 32.3969 18.5251 32.4487 18.5855C32.5049 18.6417 32.5826 18.6719 32.6905 18.6719C32.8028 18.6719 32.8849 18.6417 32.9324 18.5855C32.9842 18.5251 33.0187 18.4473 33.0317 18.3523C33.0489 18.253 33.0576 18.1494 33.0576 18.0414V15.6016H33.675V17.968C33.675 18.2141 33.6491 18.4214 33.593 18.5985C33.5369 18.7755 33.4375 18.9094 33.2951 19.0044C33.1526 19.0994 32.9539 19.1469 32.6905 19.1469Z" fill="white"/>
<path d="M34.9768 19.1469C34.722 19.1469 34.5191 19.0951 34.3723 18.9957C34.2298 18.8964 34.1261 18.7582 34.07 18.5855C34.0139 18.4085 33.9836 18.2098 33.9836 17.9809V16.733C33.9836 16.4955 34.0139 16.2882 34.07 16.1112C34.1261 15.9341 34.2298 15.8002 34.3723 15.7052C34.5191 15.6102 34.722 15.5627 34.9768 15.5627C35.2186 15.5627 35.4086 15.6059 35.5424 15.688C35.6806 15.77 35.7799 15.8866 35.836 16.0377C35.8922 16.1889 35.9224 16.3659 35.9224 16.5689V16.8625H35.3093V16.5603C35.3093 16.4609 35.3049 16.3746 35.292 16.2925C35.2833 16.2105 35.2574 16.15 35.2099 16.1025C35.1668 16.055 35.089 16.0291 34.9811 16.0291C34.8731 16.0291 34.7911 16.055 34.7393 16.1068C34.6918 16.1543 34.6572 16.2234 34.6443 16.3098C34.6313 16.3918 34.6227 16.4868 34.6227 16.5948V18.1148C34.6227 18.24 34.6313 18.348 34.6529 18.43C34.6745 18.5121 34.7091 18.5725 34.7609 18.6157C34.817 18.6546 34.8904 18.6762 34.9811 18.6762C35.089 18.6762 35.1624 18.6503 35.2056 18.6028C35.2531 18.551 35.279 18.4819 35.292 18.3998C35.3049 18.3178 35.3093 18.2228 35.3093 18.1191V17.8039H35.9224V18.0846C35.9224 18.2919 35.8965 18.4775 35.8404 18.6373C35.7842 18.7971 35.6892 18.9223 35.5511 19.013C35.4172 19.1037 35.2229 19.1469 34.9768 19.1469Z" fill="white"/>
<path d="M36.5765 19.0994V16.0723H36.0195V15.6016H37.764V16.0723H37.2156V19.0994H36.5765Z" fill="white"/>
<path d="M38.5909 15.6016H37.9604V19.0994H38.5909V15.6016Z" fill="white"/>
<path d="M39.9402 19.1469C39.6941 19.1469 39.4955 19.0994 39.3487 19.0087C39.2019 18.918 39.0982 18.7841 39.0335 18.6114C38.9687 18.4387 38.9385 18.2357 38.9385 17.9982V16.6898C38.9385 16.4523 38.9687 16.2537 39.0335 16.0852C39.0982 15.9168 39.2019 15.7873 39.3487 15.6966C39.4955 15.6059 39.6941 15.5627 39.9402 15.5627C40.195 15.5627 40.3936 15.6059 40.5361 15.6966C40.6829 15.7873 40.7866 15.9168 40.8513 16.0852C40.9161 16.2537 40.9506 16.4523 40.9506 16.6898V18.0025C40.9506 18.2357 40.9161 18.4387 40.8513 18.6114C40.7866 18.7798 40.6829 18.9137 40.5361 19.0087C40.3936 19.0994 40.195 19.1469 39.9402 19.1469ZM39.9402 18.6762C40.0482 18.6762 40.1259 18.6546 40.1734 18.6071C40.2252 18.5596 40.2598 18.4991 40.277 18.4171C40.2943 18.335 40.3029 18.2487 40.3029 18.1537V16.543C40.3029 16.4437 40.2943 16.3573 40.277 16.2796C40.2598 16.2018 40.2252 16.1414 40.1734 16.0982C40.1259 16.0507 40.0482 16.0291 39.9402 16.0291C39.8409 16.0291 39.7632 16.0507 39.7114 16.0982C39.6596 16.1414 39.625 16.2018 39.6078 16.2796C39.5905 16.3573 39.5819 16.4437 39.5819 16.543V18.1537C39.5819 18.2487 39.5905 18.335 39.6034 18.4171C39.6207 18.4991 39.6553 18.5596 39.7071 18.6071C39.7589 18.6546 39.8366 18.6762 39.9402 18.6762Z" fill="white"/>
<path d="M41.281 19.0994V15.6016H41.7258L42.5764 17.5966V15.6016H43.1032V19.0994H42.68L41.8251 17.0094V19.0994H41.281Z" fill="white"/>
</svg>
