<svg width="30" height="51" viewBox="0 0 30 51" fill="none" xmlns="http://www.w3.org/2000/svg">
<path d="M13.565 6.095C13.145 6.095 12.8533 6.00166 12.69 5.815C12.55 5.62833 12.5267 5.395 12.62 5.115C12.69 4.835 12.8533 4.60166 13.11 4.415C13.39 4.22833 13.7517 4.135 14.195 4.135L19.9 4.03C21.0667 4.00667 22.0467 3.925 22.84 3.785C23.6567 3.645 24.38 3.38833 25.01 3.015C25.64 2.64166 26.2583 2.14 26.865 1.51C27.1683 1.23 27.4367 1.03166 27.67 0.914996C27.9267 0.774998 28.1717 0.704999 28.405 0.704999C28.7783 0.704999 29.035 0.809998 29.175 1.02C29.3383 1.20666 29.35 1.51 29.21 1.93L16.855 47.01C16.6917 47.5 16.68 47.8967 16.82 48.2C16.96 48.48 17.345 48.655 17.975 48.725L23.155 49.355C23.435 49.4017 23.645 49.495 23.785 49.635C23.9483 49.7517 24.0067 49.915 23.96 50.125C23.9367 50.405 23.8083 50.6267 23.575 50.79C23.365 50.93 23.0617 51 22.665 51H1.105C0.731667 51 0.463333 50.93 0.3 50.79C0.136667 50.6267 0.0666666 50.4283 0.09 50.195C0.113333 49.9383 0.23 49.74 0.44 49.6C0.626667 49.4367 0.895 49.3317 1.245 49.285L7.23 48.69C7.74333 48.6433 8.18667 48.4683 8.56 48.165C8.93333 47.8617 9.20167 47.4417 9.365 46.905L20.04 8.125C20.25 7.40167 20.2733 6.9 20.11 6.62C19.9467 6.34 19.585 6.2 19.025 6.2L13.565 6.095Z" fill="#E5E5E5"/>
</svg>
