<svg width="44" height="44" viewBox="0 0 44 44" fill="none" xmlns="http://www.w3.org/2000/svg">
<rect x="0.5" y="0.5" width="43" height="43" rx="21.5" stroke="url(#paint0_linear_16432_3978)"/>
<path d="M24.1843 28.6423C24.1964 28.6544 24.5678 28.7468 25.0094 28.8477C25.4511 28.9485 25.8172 29.0156 25.8231 28.9969C25.829 28.9781 25.8747 28.6736 25.9246 28.3201C26.025 27.6103 26.2681 26.7816 26.5278 26.2633C27.3373 24.6481 28.7898 23.5786 30.5514 23.3006L31 23.2298V22.5162V21.8026L30.5934 21.7349C27.9296 21.2909 26.1929 19.3124 25.8681 16.3515C25.8469 16.1581 25.8215 16 25.8118 16C25.7219 16 24.2333 16.3564 24.2051 16.3846C24.1848 16.405 24.1999 16.5863 24.2388 16.7873C24.6696 19.0136 25.903 20.8252 27.5036 21.5826L27.8875 21.7643L19.9924 21.7786L15 21.7876V23.2317L20.0052 23.2407L27.8817 23.255L27.397 23.499C26.1395 24.1318 25.144 25.3732 24.5577 27.0395C24.3907 27.5142 24.1386 28.5964 24.1843 28.6423Z" fill="white"/>
<defs>
<linearGradient id="paint0_linear_16432_3978" x1="22" y1="0" x2="22" y2="44" gradientUnits="userSpaceOnUse">
<stop stop-color="#39B6D8"/>
<stop offset="0.463542" stop-color="#F7D344"/>
<stop offset="1" stop-color="#E68F33"/>
</linearGradient>
</defs>
</svg>
