<svg width="37" height="37" viewBox="0 0 37 37" fill="none" xmlns="http://www.w3.org/2000/svg">
<path d="M36.1163 13.3647L18.7725 4.11471C18.6889 4.07017 18.5956 4.04688 18.5008 4.04688C18.406 4.04688 18.3127 4.07017 18.2291 4.11471L0.885327 13.3647C0.79283 13.414 0.715474 13.4875 0.661535 13.5774C0.607595 13.6673 0.579102 13.7701 0.579102 13.8749C0.579102 13.9797 0.607595 14.0826 0.661535 14.1724C0.715474 14.2623 0.79283 14.3358 0.885327 14.3851L5.20392 16.6889V24.034C5.20061 24.4598 5.35507 24.8717 5.63751 25.1903C7.46583 27.2267 11.5633 30.6434 18.5008 30.6434C21.536 30.6434 24.0219 29.9901 26.0164 29.0839V34.6874C26.0164 34.8407 26.0773 34.9878 26.1857 35.0962C26.2942 35.2046 26.4412 35.2655 26.5945 35.2655C26.7479 35.2655 26.8949 35.2046 27.0033 35.0962C27.1118 34.9878 27.1727 34.8407 27.1727 34.6874V28.4986C28.7441 27.6354 30.1606 26.5163 31.3641 25.1874C31.6463 24.8686 31.8007 24.4568 31.7977 24.0311V16.6889L36.1163 14.3851C36.2088 14.3358 36.2861 14.2623 36.3401 14.1724C36.394 14.0826 36.4225 13.9797 36.4225 13.8749C36.4225 13.7701 36.394 13.6673 36.3401 13.5774C36.2861 13.4875 36.2088 13.414 36.1163 13.3647ZM18.5008 29.4843C12.0215 29.4843 8.20294 26.3046 6.5047 24.4141C6.41114 24.3097 6.35965 24.1742 6.36017 24.034V17.3046L18.2291 23.6351C18.3127 23.6796 18.406 23.7029 18.5008 23.7029C18.5956 23.7029 18.6889 23.6796 18.7725 23.6351L26.0164 19.7718V27.7976C24.0768 28.7616 21.5923 29.4843 18.5008 29.4843ZM30.6414 24.034C30.6412 24.1745 30.5898 24.3102 30.4969 24.4156C29.5275 25.4869 28.4078 26.4119 27.1727 27.1617V19.1546L30.6414 17.3046V24.034ZM27.0874 17.89C27.0336 17.8021 26.9572 17.7303 26.8663 17.6819L18.7725 13.3647C18.6375 13.2957 18.4808 13.2826 18.3362 13.328C18.1915 13.3735 18.0705 13.474 17.9993 13.6078C17.928 13.7416 17.9122 13.8981 17.9551 14.0435C17.9981 14.1889 18.0965 14.3115 18.2291 14.3851L25.9442 18.4999L18.5008 22.4702L2.38556 13.8749L18.5008 5.27963L34.616 13.8749L27.0874 17.89Z" fill="white"/>
</svg>
