<svg width="37" height="37" viewBox="0 0 37 37" fill="none" xmlns="http://www.w3.org/2000/svg">
<path d="M31.7776 6.84096C31.751 6.4196 31.5716 6.02241 31.2731 5.72386C30.9745 5.42532 30.5773 5.24593 30.156 5.21932C28.4216 5.11671 23.9672 5.27425 20.2773 8.96413L19.4188 9.82409H10.7469C10.5191 9.8235 10.2934 9.86816 10.083 9.9555C9.87263 10.0428 9.68168 10.1711 9.52126 10.3328L4.55661 15.2946C4.32857 15.5225 4.16858 15.8095 4.09461 16.1233C4.02063 16.4372 4.0356 16.7654 4.13783 17.0712C4.24006 17.377 4.4255 17.6482 4.67334 17.8544C4.92118 18.0607 5.2216 18.1937 5.54087 18.2387L11.2918 19.0408L17.9561 25.7052L18.7583 31.459C18.8037 31.778 18.937 32.0781 19.1435 32.3255C19.3499 32.573 19.6212 32.7581 19.9269 32.86C20.2326 32.9619 20.5606 32.9766 20.8742 32.9025C21.1878 32.8283 21.4746 32.6683 21.7024 32.4403L26.6656 27.4757C26.8273 27.3153 26.9556 27.1243 27.0429 26.9139C27.1302 26.7035 27.1749 26.4779 27.1743 26.2501V17.5782L28.0328 16.7197C31.7227 13.0298 31.8802 8.58257 31.7776 6.84096ZM5.23446 16.7038C5.20018 16.6017 5.19556 16.4919 5.22114 16.3873C5.24672 16.2827 5.30146 16.1874 5.37899 16.1126L10.3393 11.1494C10.4475 11.0414 10.594 10.9806 10.7469 10.9803H18.2625L11.3583 17.8832L5.7013 17.094C5.59455 17.0798 5.49402 17.0355 5.41139 16.9665C5.32876 16.8974 5.26741 16.8063 5.23446 16.7038ZM26.0166 26.2501C26.0167 26.326 26.0018 26.4012 25.9728 26.4714C25.9437 26.5416 25.9012 26.6054 25.8475 26.6591L20.8829 31.6223C20.8071 31.6982 20.7116 31.7516 20.6072 31.7764C20.5029 31.8012 20.3936 31.7965 20.2918 31.7627C20.1899 31.729 20.0995 31.6675 20.0305 31.5853C19.9616 31.5031 19.9169 31.4033 19.9015 31.2971L19.1124 25.6387L26.0166 18.7344V26.2501ZM18.501 24.6154L12.3815 18.496L21.0939 9.78218C24.4528 6.42327 28.5011 6.28018 30.0866 6.37413C30.2263 6.38175 30.3583 6.4407 30.4573 6.53965C30.5563 6.6386 30.6152 6.77061 30.6228 6.91034C30.7168 8.50018 30.5722 12.5471 27.2148 15.9031L18.501 24.6154ZM14.1954 27.3817C13.5869 28.7085 11.5635 31.7928 5.78223 31.7928C5.62891 31.7928 5.48186 31.7319 5.37344 31.6235C5.26502 31.5151 5.20411 31.368 5.20411 31.2147C5.20411 25.4335 8.28841 23.41 9.6152 22.8015C9.75473 22.7379 9.91382 22.7323 10.0575 22.786C10.1286 22.8126 10.1938 22.8529 10.2494 22.9047C10.3049 22.9564 10.3497 23.0186 10.3812 23.0877C10.4127 23.1568 10.4303 23.2314 10.433 23.3073C10.4357 23.3832 10.4234 23.4589 10.3968 23.53C10.3702 23.6011 10.3299 23.6663 10.2781 23.7219C10.2263 23.7774 10.1641 23.8222 10.095 23.8537C9.01684 24.3466 6.56415 25.9726 6.37192 30.625C11.0244 30.4328 12.6504 27.9801 13.1432 26.9019C13.1747 26.8328 13.2195 26.7706 13.2751 26.7188C13.3306 26.6671 13.3958 26.6267 13.467 26.6002C13.5381 26.5736 13.6138 26.5613 13.6896 26.564C13.7655 26.5666 13.8401 26.5842 13.9092 26.6157C13.9783 26.6472 14.0405 26.692 14.0923 26.7476C14.1441 26.8031 14.1844 26.8683 14.211 26.9395C14.2375 27.0106 14.2498 27.0863 14.2472 27.1622C14.2445 27.238 14.2269 27.3127 14.1954 27.3817Z" fill="white"/>
</svg>
