<svg width="37" height="37" viewBox="0 0 37 37" fill="none" xmlns="http://www.w3.org/2000/svg">
<path d="M34.2539 21.3221C34.122 21.4003 33.9645 21.4229 33.816 21.3849C33.6675 21.347 33.5401 21.2516 33.4619 21.1198C32.2579 19.0963 30.4368 17.9401 28.4669 17.9401C28.4079 17.9394 28.3494 17.9296 28.2934 17.9112C28.111 17.9303 27.9277 17.9399 27.7442 17.9401C27.5909 17.9401 27.4438 17.8792 27.3354 17.7708C27.227 17.6623 27.1661 17.5153 27.1661 17.362C27.1661 17.2086 27.227 17.0616 27.3354 16.9532C27.4438 16.8447 27.5909 16.7838 27.7442 16.7838C28.5011 16.7836 29.2427 16.5711 29.8848 16.1705C30.527 15.7699 31.0439 15.1973 31.3769 14.5177C31.71 13.838 31.8457 13.0786 31.7688 12.3257C31.6919 11.5728 31.4054 10.8565 30.9418 10.2582C30.4783 9.65998 29.8562 9.20371 29.1463 8.94123C28.4365 8.67876 27.6672 8.62062 26.9259 8.77341C26.1847 8.92619 25.5011 9.28379 24.9529 9.80558C24.4047 10.3274 24.0137 10.9924 23.8245 11.7252C23.7862 11.8738 23.6904 12.001 23.5583 12.0789C23.4262 12.1569 23.2685 12.1791 23.1199 12.1408C22.9714 12.1024 22.8442 12.0067 22.7663 11.8745C22.6883 11.7424 22.6661 11.5847 22.7044 11.4362C22.9166 10.6135 23.327 9.85531 23.8997 9.22781C24.4725 8.60031 25.1902 8.12261 25.9901 7.83644C26.7901 7.55027 27.6479 7.46434 28.4887 7.58616C29.3295 7.70797 30.1277 8.03382 30.8136 8.53525C31.4994 9.03667 32.052 9.69841 32.4231 10.4627C32.7943 11.2269 32.9726 12.0704 32.9426 12.9195C32.9125 13.7685 32.675 14.5973 32.2508 15.3334C31.8267 16.0695 31.2287 16.6906 30.5091 17.1423C32.0715 17.6987 33.4734 18.8767 34.4563 20.5359C34.5326 20.6672 34.5542 20.8234 34.5163 20.9705C34.4784 21.1176 34.3842 21.2439 34.2539 21.3221ZM27.0938 30.9421C27.1704 31.0748 27.1911 31.2324 27.1516 31.3803C27.112 31.5283 27.0153 31.6545 26.8828 31.7313C26.7952 31.7827 26.6954 31.8096 26.5938 31.8093C26.4924 31.8092 26.3928 31.7824 26.305 31.7317C26.2173 31.681 26.1444 31.608 26.0937 31.5202C25.3145 30.1993 24.2042 29.1045 22.8725 28.3439C21.5407 27.5833 20.0336 27.1833 18.5 27.1833C16.9664 27.1833 15.4593 27.5833 14.1276 28.3439C12.7958 29.1045 11.6855 30.1993 10.9063 31.5202C10.8263 31.6461 10.7008 31.7361 10.556 31.7716C10.4112 31.8071 10.2582 31.7852 10.1291 31.7106C10 31.636 9.90475 31.5144 9.86321 31.3712C9.82166 31.228 9.83706 31.0742 9.90617 30.9421C11.1611 28.7873 13.1845 27.1867 15.5704 26.4616C14.3062 25.8055 13.2989 24.7439 12.7098 23.4471C12.1208 22.1502 11.9843 20.6932 12.322 19.3095C12.6597 17.9257 13.4521 16.6955 14.5724 15.8158C15.6926 14.9361 17.0757 14.4579 18.5 14.4579C19.9243 14.4579 21.3074 14.9361 22.4277 15.8158C23.5479 16.6955 24.3403 17.9257 24.678 19.3095C25.0158 20.6932 24.8792 22.1502 24.2902 23.4471C23.7012 24.7439 22.6938 25.8055 21.4297 26.4616C23.8155 27.1867 25.8389 28.7873 27.0938 30.9421ZM18.5 26.0281C19.5291 26.0281 20.5351 25.7229 21.3907 25.1512C22.2464 24.5794 22.9132 23.7668 23.3071 22.8161C23.7009 21.8653 23.8039 20.8192 23.6032 19.8099C23.4024 18.8005 22.9068 17.8734 22.1792 17.1458C21.4515 16.4181 20.5244 15.9225 19.5151 15.7218C18.5058 15.521 17.4596 15.6241 16.5089 16.0179C15.5581 16.4117 14.7455 17.0786 14.1738 17.9342C13.602 18.7899 13.2969 19.7959 13.2969 20.8249C13.2969 22.2049 13.8451 23.5283 14.8208 24.5041C15.7966 25.4799 17.12 26.0281 18.5 26.0281ZM9.25 16.7781C8.49316 16.7778 7.75155 16.5653 7.1094 16.1647C6.46726 15.7642 5.95031 15.1915 5.61728 14.5119C5.28425 13.8323 5.14848 13.0729 5.2254 12.3199C5.30231 11.567 5.58882 10.8507 6.05239 10.2525C6.51596 9.6542 7.138 9.19792 7.84788 8.93545C8.55776 8.67298 9.32701 8.61484 10.0683 8.76763C10.8095 8.92041 11.4931 9.27801 12.0413 9.7998C12.5896 10.3216 12.9805 10.9867 13.1697 11.7195C13.208 11.868 13.3038 11.9952 13.4359 12.0732C13.5681 12.1511 13.7257 12.1733 13.8743 12.135C14.0228 12.0967 14.15 12.0009 14.228 11.8688C14.3059 11.7366 14.3281 11.5789 14.2898 11.4304C14.0768 10.6048 13.6641 9.84422 13.0881 9.21555C12.5121 8.58688 11.7905 8.10939 10.9866 7.8251C10.1828 7.5408 9.32137 7.45841 8.47821 7.58516C7.63504 7.71192 6.83595 8.04394 6.15123 8.55202C5.4665 9.0601 4.91713 9.72866 4.55144 10.4989C4.18575 11.2691 4.01496 12.1174 4.05407 12.9692C4.09319 13.8209 4.34102 14.65 4.77577 15.3835C5.21052 16.1169 5.81886 16.7323 6.54727 17.1755C4.66881 17.7461 3.02258 18.9035 1.85 20.4781C1.75801 20.6007 1.7185 20.7549 1.74019 20.9067C1.76187 21.0585 1.84296 21.1954 1.96563 21.2874C2.08829 21.3794 2.24247 21.4189 2.39426 21.3972C2.54605 21.3756 2.68301 21.2945 2.775 21.1718C3.52537 20.1628 4.50223 19.3442 5.6269 18.7819C6.75157 18.2195 7.9926 17.9292 9.25 17.9343C9.40333 17.9343 9.55038 17.8734 9.6588 17.765C9.76722 17.6566 9.82813 17.5095 9.82813 17.3562C9.82813 17.2029 9.76722 17.0558 9.6588 16.9474C9.55038 16.839 9.40333 16.7781 9.25 16.7781Z" fill="white"/>
</svg>
