<svg width="52" height="52" viewBox="0 0 52 52" fill="none" xmlns="http://www.w3.org/2000/svg">
<rect x="0.75" y="0.75" width="50.5" height="50.5" rx="25.25" stroke="url(#paint0_linear_14438_48494)" stroke-width="1.5"/>
<path d="M26 16.25C24.0716 16.25 22.1866 16.8218 20.5832 17.8932C18.9798 18.9645 17.7301 20.4873 16.9922 22.2688C16.2542 24.0504 16.0611 26.0108 16.4373 27.9021C16.8136 29.7934 17.7422 31.5307 19.1057 32.8943C20.4693 34.2579 22.2066 35.1865 24.0979 35.5627C25.9892 35.9389 27.9496 35.7458 29.7312 35.0078C31.5127 34.2699 33.0355 33.0202 34.1068 31.4168C35.1782 29.8134 35.75 27.9284 35.75 26C35.7473 23.415 34.7192 20.9366 32.8913 19.1087C31.0634 17.2808 28.585 16.2527 26 16.25ZM26 34.25C24.3683 34.25 22.7733 33.7661 21.4166 32.8596C20.0598 31.9531 19.0024 30.6646 18.378 29.1571C17.7536 27.6496 17.5902 25.9908 17.9085 24.3905C18.2269 22.7902 19.0126 21.3202 20.1664 20.1664C21.3202 19.0126 22.7902 18.2268 24.3905 17.9085C25.9909 17.5902 27.6497 17.7536 29.1571 18.378C30.6646 19.0024 31.9531 20.0598 32.8596 21.4165C33.7662 22.7733 34.25 24.3683 34.25 26C34.2475 28.1873 33.3775 30.2843 31.8309 31.8309C30.2843 33.3775 28.1873 34.2475 26 34.25ZM25.25 26.75V21.5C25.25 21.3011 25.329 21.1103 25.4697 20.9697C25.6103 20.829 25.8011 20.75 26 20.75C26.1989 20.75 26.3897 20.829 26.5303 20.9697C26.671 21.1103 26.75 21.3011 26.75 21.5V26.75C26.75 26.9489 26.671 27.1397 26.5303 27.2803C26.3897 27.421 26.1989 27.5 26 27.5C25.8011 27.5 25.6103 27.421 25.4697 27.2803C25.329 27.1397 25.25 26.9489 25.25 26.75ZM27.125 30.125C27.125 30.3475 27.059 30.565 26.9354 30.75C26.8118 30.935 26.6361 31.0792 26.4305 31.1644C26.225 31.2495 25.9988 31.2718 25.7805 31.2284C25.5623 31.185 25.3618 31.0778 25.2045 30.9205C25.0472 30.7632 24.94 30.5627 24.8966 30.3445C24.8532 30.1262 24.8755 29.9001 24.9606 29.6945C25.0458 29.4889 25.19 29.3132 25.375 29.1896C25.56 29.066 25.7775 29 26 29C26.2984 29 26.5845 29.1185 26.7955 29.3295C27.0065 29.5405 27.125 29.8266 27.125 30.125Z" fill="#343330"/>
<defs>
<linearGradient id="paint0_linear_14438_48494" x1="1.29592e-07" y1="43.875" x2="52.0178" y2="45.0112" gradientUnits="userSpaceOnUse">
<stop stop-color="#39B5D7"/>
<stop offset="0.502211" stop-color="#F7D544"/>
<stop offset="1" stop-color="#E38330"/>
</linearGradient>
</defs>
</svg>
