<svg width="52" height="52" viewBox="0 0 52 52" fill="none" xmlns="http://www.w3.org/2000/svg">
<rect x="0.75" y="0.75" width="50.5" height="50.5" rx="25.25" stroke="url(#paint0_linear_14438_48464)" stroke-width="1.5"/>
<path d="M20.75 23.75C20.75 23.5511 20.829 23.3603 20.9697 23.2197C21.1103 23.079 21.3011 23 21.5 23H30.5C30.6989 23 30.8897 23.079 31.0303 23.2197C31.171 23.3603 31.25 23.5511 31.25 23.75C31.25 23.9489 31.171 24.1397 31.0303 24.2803C30.8897 24.421 30.6989 24.5 30.5 24.5H21.5C21.3011 24.5 21.1103 24.421 20.9697 24.2803C20.829 24.1397 20.75 23.9489 20.75 23.75ZM21.5 27.5H30.5C30.6989 27.5 30.8897 27.421 31.0303 27.2803C31.171 27.1397 31.25 26.9489 31.25 26.75C31.25 26.5511 31.171 26.3603 31.0303 26.2197C30.8897 26.079 30.6989 26 30.5 26H21.5C21.3011 26 21.1103 26.079 20.9697 26.2197C20.829 26.3603 20.75 26.5511 20.75 26.75C20.75 26.9489 20.829 27.1397 20.9697 27.2803C21.1103 27.421 21.3011 27.5 21.5 27.5ZM35.75 19.25V33.5C35.7499 33.6278 35.7172 33.7535 35.6549 33.8651C35.5926 33.9768 35.5028 34.0706 35.394 34.1378C35.2853 34.2049 35.1611 34.2432 35.0334 34.2489C34.9057 34.2546 34.7787 34.2275 34.6644 34.1703L32 32.8381L29.3356 34.1703C29.2314 34.2225 29.1165 34.2496 29 34.2496C28.8835 34.2496 28.7686 34.2225 28.6644 34.1703L26 32.8381L23.3356 34.1703C23.2314 34.2225 23.1165 34.2496 23 34.2496C22.8835 34.2496 22.7686 34.2225 22.6644 34.1703L20 32.8381L17.3356 34.1703C17.2213 34.2275 17.0943 34.2546 16.9666 34.2489C16.8389 34.2432 16.7147 34.2049 16.606 34.1378C16.4972 34.0706 16.4074 33.9768 16.3451 33.8651C16.2828 33.7535 16.2501 33.6278 16.25 33.5V19.25C16.25 18.8522 16.408 18.4706 16.6893 18.1893C16.9706 17.908 17.3522 17.75 17.75 17.75H34.25C34.6478 17.75 35.0294 17.908 35.3107 18.1893C35.592 18.4706 35.75 18.8522 35.75 19.25ZM34.25 19.25H17.75V32.2869L19.6644 31.3288C19.7686 31.2766 19.8835 31.2495 20 31.2495C20.1165 31.2495 20.2314 31.2766 20.3356 31.3288L23 32.6619L25.6644 31.3288C25.7686 31.2766 25.8835 31.2495 26 31.2495C26.1165 31.2495 26.2314 31.2766 26.3356 31.3288L29 32.6619L31.6644 31.3288C31.7686 31.2766 31.8835 31.2495 32 31.2495C32.1165 31.2495 32.2314 31.2766 32.3356 31.3288L34.25 32.2869V19.25Z" fill="#343330"/>
<defs>
<linearGradient id="paint0_linear_14438_48464" x1="1.29592e-07" y1="43.875" x2="52.0178" y2="45.0112" gradientUnits="userSpaceOnUse">
<stop stop-color="#39B5D7"/>
<stop offset="0.502211" stop-color="#F7D544"/>
<stop offset="1" stop-color="#E38330"/>
</linearGradient>
</defs>
</svg>
