<svg width="52" height="52" viewBox="0 0 52 52" fill="none" xmlns="http://www.w3.org/2000/svg">
<rect x="0.75" y="0.75" width="50.5" height="50.5" rx="25.25" stroke="url(#paint0_linear_14438_48474)" stroke-width="1.5"/>
<path d="M35.75 33.5C35.75 33.6989 35.671 33.8897 35.5303 34.0303C35.3897 34.171 35.1989 34.25 35 34.25H17C16.8011 34.25 16.6103 34.171 16.4697 34.0303C16.329 33.8897 16.25 33.6989 16.25 33.5V18.5C16.25 18.3011 16.329 18.1103 16.4697 17.9697C16.6103 17.829 16.8011 17.75 17 17.75C17.1989 17.75 17.3897 17.829 17.5303 17.9697C17.671 18.1103 17.75 18.3011 17.75 18.5V28.6897L22.4694 23.9694C22.539 23.8996 22.6217 23.8443 22.7128 23.8066C22.8038 23.7688 22.9014 23.7494 23 23.7494C23.0986 23.7494 23.1962 23.7688 23.2872 23.8066C23.3783 23.8443 23.461 23.8996 23.5306 23.9694L26 26.4397L30.9397 21.5H29C28.8011 21.5 28.6103 21.421 28.4697 21.2803C28.329 21.1397 28.25 20.9489 28.25 20.75C28.25 20.5511 28.329 20.3603 28.4697 20.2197C28.6103 20.079 28.8011 20 29 20H32.75C32.9489 20 33.1397 20.079 33.2803 20.2197C33.421 20.3603 33.5 20.5511 33.5 20.75V24.5C33.5 24.6989 33.421 24.8897 33.2803 25.0303C33.1397 25.171 32.9489 25.25 32.75 25.25C32.5511 25.25 32.3603 25.171 32.2197 25.0303C32.079 24.8897 32 24.6989 32 24.5V22.5603L26.5306 28.0306C26.461 28.1004 26.3783 28.1557 26.2872 28.1934C26.1962 28.2312 26.0986 28.2506 26 28.2506C25.9014 28.2506 25.8038 28.2312 25.7128 28.1934C25.6217 28.1557 25.539 28.1004 25.4694 28.0306L23 25.5603L17.75 30.8103V32.75H35C35.1989 32.75 35.3897 32.829 35.5303 32.9697C35.671 33.1103 35.75 33.3011 35.75 33.5Z" fill="#343330"/>
<defs>
<linearGradient id="paint0_linear_14438_48474" x1="1.29592e-07" y1="43.875" x2="52.0178" y2="45.0112" gradientUnits="userSpaceOnUse">
<stop stop-color="#39B5D7"/>
<stop offset="0.502211" stop-color="#F7D544"/>
<stop offset="1" stop-color="#E38330"/>
</linearGradient>
</defs>
</svg>
