<svg width="36" height="36" viewBox="0 0 36 36" fill="none" xmlns="http://www.w3.org/2000/svg">
<path d="M32.7847 29.5722H32.5694V22.7273H32.7847C32.9139 22.7273 33 22.6417 33 22.5134V21.2299C33 21.1016 32.9139 21.016 32.7847 21.016H32.5694V20.3743C32.5694 20.246 32.4833 20.1604 32.3542 20.1604H31.1486C31.0625 19.4332 30.5458 18.7487 29.7278 18.3636L27.7042 17.3797V17.0802C27.7042 16.9519 27.6181 16.8663 27.4889 16.8663C27.3597 16.8663 27.2736 16.9947 27.2736 17.0802V17.3797L25.2931 18.3209C24.475 18.7059 23.9583 19.3904 23.8722 20.1176H23.1403V18.8342H23.3556C23.4847 18.8342 23.5708 18.7487 23.5708 18.6203V17.3369C23.5708 17.2086 23.4847 17.123 23.3556 17.123H23.1403V14.5562H23.3556C23.4847 14.5562 23.5708 14.4706 23.5708 14.3422V13.0588C23.5708 12.9305 23.4847 12.8449 23.3556 12.8449H22.7097V11.1337H22.925C23.0542 11.1337 23.1403 11.0481 23.1403 10.9198V10.0642C23.1403 9.93583 23.0542 9.85027 22.925 9.85027H22.7097V8.99465H22.925C23.0542 8.99465 23.1403 8.90909 23.1403 8.78075V7.92513C23.1403 7.79679 23.0542 7.71123 22.925 7.71123H22.7097V7.28342C22.7097 6.8984 22.4514 6.55615 22.0639 6.47059V6.2139C22.0639 6.08556 21.9778 6 21.8486 6C21.7194 6 21.6333 6.08556 21.6333 6.2139V6.47059C21.2458 6.55615 20.9875 6.8984 20.9875 7.28342V7.71123H20.7722C20.6431 7.71123 20.5569 7.79679 20.5569 7.92513V8.78075C20.5569 8.90909 20.6431 8.99465 20.7722 8.99465H20.9875V9.85027H20.7722C20.6431 9.85027 20.5569 9.93583 20.5569 10.0642V10.9198C20.5569 11.0481 20.6431 11.1337 20.7722 11.1337H20.9875V12.8449H20.3417C20.2125 12.8449 20.1264 12.9305 20.1264 13.0588V14.3422C20.1264 14.4706 20.2125 14.5562 20.3417 14.5562H20.5569V17.123H20.2986C20.0833 16.738 19.7819 16.3529 19.3514 16.0963L17.7153 15.1123V14.7273C17.7153 14.5989 17.6292 14.5134 17.5 14.5134C17.3708 14.5134 17.2847 14.5989 17.2847 14.7273V15.1123L15.6486 16.1818C15.2611 16.4385 14.9167 16.7807 14.7444 17.1658H14.4861V14.5989H14.7014C14.8306 14.5989 14.9167 14.5134 14.9167 14.385V13.1016C14.9167 12.9733 14.8306 12.8877 14.7014 12.8877H14.0556V11.1765H14.2708C14.4 11.1765 14.4861 11.0909 14.4861 10.9626V10.107C14.4861 9.97861 14.4 9.89305 14.2708 9.89305H14.0556V9.03743H14.2708C14.4 9.03743 14.4861 8.95187 14.4861 8.82353V7.96791C14.4861 7.83957 14.4 7.75401 14.2708 7.75401H14.0556V7.3262C14.0556 6.94118 13.7972 6.59893 13.4097 6.51337V6.25668C13.4097 6.12834 13.3236 6.04278 13.1944 6.04278C13.0653 6.04278 12.9792 6.12834 12.9792 6.25668V6.51337C12.5917 6.59893 12.3333 6.94118 12.3333 7.3262V7.75401H12.1181C11.9889 7.75401 11.9028 7.83957 11.9028 7.96791V8.82353C11.9028 8.95187 11.9889 9.03743 12.1181 9.03743H12.3333V9.89305H12.1181C11.9889 9.89305 11.9028 9.97861 11.9028 10.107V10.9626C11.9028 11.0909 11.9889 11.1765 12.1181 11.1765H12.3333V12.8877H11.6875C11.5583 12.8877 11.4722 12.9733 11.4722 13.1016V14.385C11.4722 14.5134 11.5583 14.5989 11.6875 14.5989H11.9028V17.1658H11.6875C11.5583 17.1658 11.4722 17.2513 11.4722 17.3797V18.6631C11.4722 18.7914 11.5583 18.877 11.6875 18.877H11.9028V20.1604H10.9125C10.8264 19.4332 10.3097 18.7487 9.49167 18.3636L7.46806 17.3797V17.0802C7.46806 16.9519 7.38194 16.8663 7.25278 16.8663C7.12361 16.8663 7.0375 16.9947 7.0375 17.0802V17.3797L5.01389 18.3636C4.19583 18.7487 3.67917 19.4332 3.59306 20.1604H2.64583C2.51667 20.1604 2.43056 20.246 2.43056 20.3743V21.016H2.21528C2.08611 21.016 2 21.1016 2 21.2299V22.5134C2 22.6417 2.08611 22.7273 2.21528 22.7273H2.43056V29.5722H2.21528C2.08611 29.5722 2 29.6578 2 29.7861C2 29.9144 2.08611 30 2.21528 30H32.7847C32.9139 30 33 29.9144 33 29.7861C33 29.6578 32.9139 29.5722 32.7847 29.5722ZM32.5694 22.2995H23.0972V21.4439H32.5694V22.2995ZM23.9583 20.5882H24.8194V21.016H23.9583V20.5882ZM29.9861 21.016H29.125V20.5882H29.9861V21.016ZM28.6944 21.016H27.8333V20.5882H28.6944V21.016ZM27.4028 21.016H26.5417V20.5882H27.4028V21.016ZM26.1111 21.016H25.25V20.5882H26.1111V21.016ZM32.1389 20.5882V21.016H31.7083V20.5882H32.1389ZM31.2778 21.016H30.4167V20.5882H31.2778V21.016ZM25.4653 18.7487L27.4889 17.7647L29.5125 18.7487C30.2014 19.0909 30.5889 19.6043 30.675 20.1604H24.2597C24.3458 19.5615 24.7764 19.0481 25.4653 18.7487ZM23.5278 20.5882V21.016H23.0972V20.5882H23.5278ZM21.375 7.3262C21.375 7.1123 21.5472 6.8984 21.8056 6.8984C22.0208 6.8984 22.2361 7.1123 22.2361 7.3262V7.75401H21.375V7.3262ZM20.9444 8.18182H22.6667V8.60963H20.9444V8.18182ZM21.375 9.03743H22.2361V9.89305H21.375V9.03743ZM20.9444 10.3209H22.6667V10.7487H20.9444V10.3209ZM21.375 11.1765H22.2361V12.8877H21.375V11.1765ZM20.5139 13.3155H23.0972V14.1711H20.5139V13.3155ZM20.9444 14.5989H22.6667V17.1658H20.9444V14.5989ZM20.5139 17.5936H23.0972V18.4492H20.5139V17.5936ZM14.5722 18.877H15.3472V19.3048H14.4861V18.877H14.5722ZM20.5139 20.5882H14.4861V19.7326H20.5139V20.5882ZM18.3611 19.3048V18.877H19.2222V19.3048H18.3611ZM17.9306 19.3048H17.0694V18.877H17.9306V19.3048ZM16.6389 19.3048H15.7778V18.877H16.6389V19.3048ZM14.4861 26.492C14.4861 25.123 15.175 23.8396 16.3806 23.0695L17.5 22.3422L18.6194 23.0695C19.825 23.7968 20.5139 25.0802 20.5139 26.492V29.5722H14.4861V26.492ZM18.8347 22.6845L17.5861 21.9144C17.5 21.8717 17.4139 21.8717 17.3708 21.9144L16.1222 22.7273C15.3903 23.1979 14.8306 23.8396 14.4861 24.6096V21.016H20.5139V24.5668C20.1694 23.7968 19.6097 23.1551 18.8347 22.6845ZM20.5139 19.3048H19.6528V18.877H20.5139V19.3048ZM15.9069 16.5241L17.5 15.5401L19.0931 16.5241C19.6958 16.9091 20.0833 17.508 20.0833 18.2353V18.4492H14.9167V18.2353C14.9167 17.5508 15.2611 16.9091 15.9069 16.5241ZM12.7639 7.3262C12.7639 7.1123 12.9361 6.8984 13.1944 6.8984C13.4097 6.8984 13.625 7.1123 13.625 7.3262V7.75401H12.7639V7.3262ZM12.3333 8.18182H14.0556V8.60963H12.3333V8.18182ZM12.7639 9.03743H13.625V9.89305H12.7639V9.03743ZM12.3333 10.3209H14.0556V10.7487H12.3333V10.3209ZM12.7639 11.1765H13.625V12.8877H12.7639V11.1765ZM11.9028 13.3155H14.4861V14.1711H11.9028V13.3155ZM12.3333 14.5989H14.0556V17.1658H12.3333V14.5989ZM11.9028 17.5936H14.4861V18.4492H11.9028V17.5936ZM11.9028 20.5882V21.016H11.4722V20.5882H11.9028ZM11.0417 21.016H10.1806V20.5882H11.0417V21.016ZM3.72222 20.5882H4.58333V21.016H3.72222V20.5882ZM5.01389 20.5882H5.875V21.016H5.01389V20.5882ZM6.30556 20.5882H7.16667V21.016H6.30556V20.5882ZM7.59722 20.5882H8.45833V21.016H7.59722V20.5882ZM8.88889 20.5882H9.75V21.016H8.88889V20.5882ZM5.22917 18.7487L7.25278 17.7647L9.27639 18.7487C9.96528 19.0909 10.3958 19.6043 10.4819 20.1604H4.02361C4.10972 19.6043 4.54028 19.0481 5.22917 18.7487ZM2.86111 20.5882H3.29167V21.016H2.86111V20.5882ZM2.43056 21.4439H11.9028V22.2995H2.43056V21.4439ZM2.86111 22.7273H11.9028V29.5722H9.75V26.7487C9.75 25.6791 9.23333 24.738 8.32917 24.1818L7.51111 23.6684C7.425 23.6257 7.33889 23.6257 7.29583 23.6684L6.47778 24.1818C5.57361 24.738 5.05694 25.7219 5.05694 26.7487V29.5722H2.90417V22.7273H2.86111ZM9.31944 29.5722H5.44444V26.7914C5.44444 25.893 5.91806 25.0802 6.65 24.5668L7.38194 24.0963L8.07083 24.5241C8.84583 24.9947 9.31944 25.8503 9.31944 26.7487V29.5722ZM12.3333 22.5134V18.877H14.0556V29.5722H12.3333V22.5134ZM20.9444 26.492V18.877H22.6667V29.5722H20.9444V26.492ZM29.5556 29.5722H25.6806V26.7914C25.6806 25.893 26.1542 25.0802 26.8861 24.5668L27.6181 24.0963L28.3069 24.5241C29.0819 24.9947 29.5556 25.8503 29.5556 26.7487V29.5722ZM29.9861 29.5722V26.7487C29.9861 25.6791 29.4694 24.738 28.5653 24.1818L27.7472 23.6684C27.6611 23.6257 27.575 23.6257 27.5319 23.6684L26.7139 24.1818C25.8097 24.738 25.2931 25.7219 25.2931 26.7487V29.5722H23.1403V22.7273H32.1819V29.5722H29.9861Z" fill="white"/>
</svg>
