<svg width="36" height="36" viewBox="0 0 36 36" fill="none" xmlns="http://www.w3.org/2000/svg">
<path d="M15.8135 16.8477C15.9536 16.8477 16.0672 16.9612 16.0672 17.1014C16.0672 17.2415 15.9536 17.3551 15.8135 17.3551H12.9256L11.8439 19.0056H25.0564L23.9752 17.3551H21.0838C20.9438 17.355 20.8301 17.2414 20.8301 17.1014C20.8301 16.9613 20.9438 16.8478 21.0838 16.8477H24.1124C24.198 16.8477 24.2781 16.8906 24.325 16.9621L25.7382 19.1201C25.7893 19.1981 25.7934 19.2978 25.7491 19.3798C25.7049 19.4617 25.6193 19.513 25.5262 19.5131H11.3746C11.2815 19.5131 11.196 19.4617 11.1516 19.3798C11.1073 19.2978 11.1115 19.1981 11.1625 19.1201L12.5758 16.9621L12.5946 16.9368C12.6424 16.8806 12.713 16.8477 12.7878 16.8477H15.8135Z" fill="white"/>
<path d="M12.7246 26.3495V19.2576C12.7246 19.1175 12.8382 19.0039 12.9783 19.0039C13.1184 19.0039 13.232 19.1175 13.232 19.2576V26.3495L13.2271 26.4005C13.2035 26.5162 13.101 26.6032 12.9783 26.6032C12.8556 26.6032 12.7531 26.5162 12.7296 26.4005L12.7246 26.3495Z" fill="white"/>
<path d="M14.0938 26.3495V19.2576C14.0938 19.1175 14.2073 19.0039 14.3475 19.0039C14.4876 19.0039 14.6012 19.1175 14.6012 19.2576V26.3495L14.5962 26.4005C14.5726 26.5162 14.4701 26.6032 14.3475 26.6032C14.2248 26.6032 14.1223 26.5162 14.0987 26.4005L14.0938 26.3495Z" fill="white"/>
<path d="M15.459 26.3495V19.2576C15.459 19.1175 15.5726 19.0039 15.7127 19.0039C15.8528 19.0039 15.9664 19.1175 15.9664 19.2576V26.3495L15.9614 26.4005C15.9379 26.5162 15.8354 26.6032 15.7127 26.6032C15.59 26.6032 15.4875 26.5162 15.4639 26.4005L15.459 26.3495Z" fill="white"/>
<path d="M23.6699 26.3495V19.2576C23.6699 19.1175 23.7835 19.0039 23.9236 19.0039C24.0637 19.0039 24.1773 19.1175 24.1773 19.2576V26.3495L24.1724 26.4005C24.1488 26.5162 24.0463 26.6032 23.9236 26.6032C23.8009 26.6032 23.6984 26.5162 23.6749 26.4005L23.6699 26.3495Z" fill="white"/>
<path d="M22.3008 26.3495V19.2576C22.3008 19.1175 22.4144 19.0039 22.5545 19.0039C22.6946 19.0039 22.8082 19.1175 22.8082 19.2576V26.3495L22.8032 26.4005C22.7797 26.5162 22.6772 26.6032 22.5545 26.6032C22.4318 26.6032 22.3293 26.5162 22.3057 26.4005L22.3008 26.3495Z" fill="white"/>
<path d="M20.9316 26.3495V19.2576C20.9316 19.1175 21.0452 19.0039 21.1853 19.0039C21.3255 19.0039 21.4391 19.1175 21.4391 19.2576V26.3495L21.4341 26.4005C21.4105 26.5162 21.308 26.6032 21.1853 26.6032C21.0627 26.6032 20.9602 26.5162 20.9366 26.4005L20.9316 26.3495Z" fill="white"/>
<path d="M23.9223 26.0938L23.9788 26.1002C24.0339 26.1128 24.0839 26.1435 24.12 26.1884L27.6536 30.5841C27.7146 30.6602 27.7264 30.7648 27.6843 30.8527C27.6421 30.9407 27.5529 30.9964 27.4554 30.9964H9.44125C9.34364 30.9964 9.25452 30.9407 9.21232 30.8527C9.17017 30.7647 9.18244 30.6602 9.24354 30.5841L12.7801 26.1884L12.8202 26.1483C12.8646 26.1132 12.9201 26.0938 12.9778 26.0938H23.9223ZM9.97096 30.489H26.9257L23.8009 26.6012H13.0992L9.97096 30.489Z" fill="white"/>
<path d="M19.6028 23.7969C19.7429 23.7969 19.8565 23.9105 19.8565 24.0506V26.3473C19.8565 26.4874 19.7429 26.601 19.6028 26.601H17.2986C17.1585 26.601 17.0449 26.4874 17.0449 26.3473V24.0506C17.0449 23.9105 17.1585 23.7969 17.2986 23.7969H19.6028ZM17.5523 26.0936H19.3491V24.3043H17.5523V26.0936Z" fill="white"/>
<path d="M19.6028 20.25C19.7429 20.25 19.8565 20.3636 19.8565 20.5037V22.8004C19.8565 22.9405 19.7429 23.0541 19.6028 23.0541H17.2986C17.1585 23.0541 17.0449 22.9406 17.0449 22.8004V20.5037C17.0449 20.3636 17.1585 20.25 17.2986 20.25H19.6028ZM17.5523 22.5467H19.3491V20.7574H17.5523V22.5467Z" fill="white"/>
<path d="M20.8309 17.1013V14.2144H16.068V17.1013L16.063 17.1524C16.0394 17.268 15.9369 17.355 15.8143 17.355C15.6916 17.355 15.5892 17.268 15.5655 17.1524L15.5605 17.1013V13.9607L15.5655 13.9097C15.5891 13.794 15.6916 13.707 15.8143 13.707H21.0846C21.2247 13.707 21.3383 13.8206 21.3383 13.9607V17.1013C21.3382 17.2414 21.2247 17.355 21.0846 17.355C20.9445 17.355 20.831 17.2414 20.8309 17.1013Z" fill="white"/>
<path d="M18.9639 10.5703C19.0825 10.5703 19.1855 10.6524 19.2117 10.768L19.9183 13.9057C19.9491 14.0423 19.8632 14.1781 19.7265 14.2089C19.5898 14.2397 19.4541 14.1538 19.4233 14.0171L18.7612 11.0777H18.1399L17.4774 14.0171C17.4466 14.1538 17.3108 14.2397 17.1741 14.2089C17.0376 14.178 16.9521 14.0423 16.9828 13.9057L17.6894 10.768L17.7023 10.7264C17.7411 10.6332 17.8329 10.5703 17.9367 10.5703H18.9639Z" fill="white"/>
<path d="M18.4514 7.46484C19.4044 7.46484 20.3184 7.84239 20.9924 8.51435C21.6666 9.18635 22.0454 10.0978 22.0454 11.0484C22.0454 11.0524 22.0456 11.0564 22.0454 11.0603C21.9955 12.1327 21.6764 13.1753 21.1178 14.0929C21.045 14.2126 20.8887 14.2505 20.769 14.1776C20.6495 14.1048 20.6116 13.9489 20.6842 13.8293C21.1966 12.9876 21.4902 12.0316 21.538 11.0484C21.538 10.2328 21.213 9.45056 20.6342 8.87361C20.0554 8.29666 19.2703 7.97226 18.4514 7.97226C17.6326 7.97228 16.8474 8.29664 16.2687 8.87361C15.6907 9.44974 15.3658 10.2306 15.3648 11.045C15.4135 12.0292 15.7068 12.986 16.2186 13.8293C16.2913 13.9491 16.2532 14.1054 16.1334 14.1781C16.0136 14.2507 15.8577 14.2121 15.785 14.0924C15.228 13.1745 14.9093 12.1326 14.8579 11.0608C14.8577 11.0568 14.8574 11.0525 14.8574 11.0484C14.8574 10.0978 15.2363 9.18634 15.9104 8.51435C16.5845 7.8424 17.4985 7.46487 18.4514 7.46484Z" fill="white"/>
<path d="M18.1953 7.71644V5.25371C18.1953 5.11359 18.3089 5 18.449 5C18.5891 5 18.7027 5.11359 18.7027 5.25371V7.71644C18.7027 7.85652 18.5891 7.97014 18.449 7.97014C18.3089 7.97014 18.1954 7.85652 18.1953 7.71644Z" fill="white"/>
<path d="M19.658 16.3966C19.658 15.7316 19.117 15.191 18.4479 15.191C17.7789 15.191 17.2379 15.7316 17.2379 16.3966C17.2379 17.0616 17.7789 17.6022 18.4479 17.6022C19.117 17.6022 19.658 17.0616 19.658 16.3966ZM20.1654 16.3966C20.1654 17.3434 19.3957 18.1096 18.4479 18.1096C17.5002 18.1096 16.7305 17.3433 16.7305 16.3966C16.7305 15.4498 17.5002 14.6836 18.4479 14.6836C19.3958 14.6836 20.1654 15.4498 20.1654 16.3966Z" fill="white"/>
<path d="M13.3889 17.1017V13.2887H9.90585V30.7473C9.90576 30.8873 9.79221 31.001 9.65214 31.001C9.51208 31.001 9.39852 30.8873 9.39844 30.7473V13.035C9.39844 12.8948 9.51203 12.7812 9.65214 12.7812H13.6426C13.7827 12.7812 13.8963 12.8948 13.8963 13.035V17.1017C13.8963 17.2418 13.7827 17.3554 13.6426 17.3554C13.5026 17.3553 13.3889 17.2417 13.3889 17.1017Z" fill="white"/>
<path d="M13.6437 11.5L13.6779 11.5025C13.7565 11.5132 13.8266 11.5602 13.8657 11.6308L14.5723 12.9098C14.6156 12.9883 14.6144 13.0842 14.5688 13.1615C14.5232 13.2387 14.44 13.2858 14.3503 13.2859H8.94316C8.85329 13.2859 8.77023 13.2384 8.72464 13.161C8.67908 13.0836 8.6776 12.9878 8.72117 12.9093L9.43075 11.6308C9.47547 11.5502 9.56059 11.5 9.65275 11.5H13.6437ZM9.37427 12.7784H13.9202L13.4935 12.0074H9.80239L9.37427 12.7784Z" fill="white"/>
<path d="M13.3889 11.7427C13.3888 11.2828 13.206 10.8413 12.8795 10.5158C12.5529 10.1903 12.1097 10.0074 11.6476 10.0074C11.1855 10.0074 10.7423 10.1904 10.4157 10.5158C10.0892 10.8413 9.90586 11.2828 9.90585 11.7427C9.90585 11.8828 9.79226 11.9964 9.65214 11.9964C9.51203 11.9964 9.39844 11.8828 9.39844 11.7427C9.39845 11.1477 9.63563 10.5771 10.0575 10.1566C10.4793 9.73608 11.0514 9.5 11.6476 9.5C12.2438 9.50003 12.8159 9.73608 13.2377 10.1566C13.6595 10.5771 13.8963 11.1477 13.8963 11.7427C13.8963 11.8828 13.7827 11.9964 13.6426 11.9964C13.5026 11.9963 13.3889 11.8828 13.3889 11.7427Z" fill="white"/>
<path d="M11.3945 9.76284V7.80058C11.3945 7.66046 11.5081 7.54688 11.6482 7.54688C11.7884 7.54688 11.9019 7.66046 11.9019 7.80058V9.76284C11.9019 9.90296 11.7884 10.0165 11.6482 10.0165C11.5081 10.0165 11.3945 9.90296 11.3945 9.76284Z" fill="white"/>
<path d="M9.6528 16.8477L9.70434 16.8526C9.81989 16.8763 9.90651 16.9788 9.90651 17.1014C9.90651 17.2239 9.81989 17.3264 9.70434 17.3501L9.6528 17.3551H2.50741V30.4928H9.6528C9.79288 30.4928 9.90644 30.6064 9.90651 30.7465C9.90651 30.8866 9.79292 31.0002 9.6528 31.0002H2.25371C2.11359 31.0002 2 30.8866 2 30.7465V17.1014C2 16.9612 2.11359 16.8477 2.25371 16.8477H9.6528Z" fill="white"/>
<path d="M4.42634 18.6602C4.7003 18.6602 4.964 18.7646 5.16368 18.952C5.36333 19.1394 5.48409 19.3958 5.50063 19.669C5.50094 19.6741 5.50112 19.6793 5.50113 19.6844V21.2324C5.50113 21.3725 5.38746 21.486 5.24742 21.4861H3.60527C3.46515 21.4861 3.35156 21.3725 3.35156 21.2324V19.6844L3.35206 19.669C3.3686 19.3958 3.48934 19.1394 3.68901 18.952C3.8887 18.7646 4.15238 18.6602 4.42634 18.6602ZM4.42634 19.1676C4.28117 19.1676 4.14135 19.2227 4.03588 19.3217C3.93154 19.4196 3.86869 19.5532 3.85897 19.6953V20.9787H4.99371V19.6953C4.984 19.5532 4.92066 19.4196 4.81632 19.3217C4.71089 19.2228 4.57142 19.1676 4.42634 19.1676Z" fill="white"/>
<path d="M7.49275 18.6602C7.76671 18.6602 8.03041 18.7646 8.23008 18.952C8.42973 19.1394 8.5505 19.3958 8.56704 19.669C8.56734 19.6741 8.56753 19.6793 8.56753 19.6844V21.2324C8.56753 21.3725 8.45387 21.486 8.31383 21.4861H6.67167C6.53156 21.4861 6.41797 21.3725 6.41797 21.2324V19.6844L6.41846 19.669C6.43501 19.3958 6.55575 19.1394 6.75542 18.952C6.95511 18.7646 7.21878 18.6602 7.49275 18.6602ZM7.49275 19.1676C7.34757 19.1676 7.20775 19.2227 7.10228 19.3217C6.99795 19.4196 6.9351 19.5532 6.92538 19.6953V20.9787H8.06012V19.6953C8.0504 19.5532 7.98707 19.4196 7.88272 19.3217C7.77729 19.2228 7.63783 19.1676 7.49275 19.1676Z" fill="white"/>
<path d="M4.42634 22.2617C4.7003 22.2617 4.964 22.3661 5.16368 22.5536C5.36333 22.741 5.48409 22.9974 5.50063 23.2706C5.50094 23.2756 5.50112 23.2809 5.50113 23.286V24.834C5.50113 24.974 5.38746 25.0876 5.24742 25.0877H3.60527C3.46515 25.0877 3.35156 24.9741 3.35156 24.834V23.286C3.35157 23.2809 3.35175 23.2756 3.35206 23.2706C3.3686 22.9974 3.48934 22.741 3.68901 22.5536C3.8887 22.3662 4.15238 22.2617 4.42634 22.2617ZM4.42634 22.7691C4.28117 22.7691 4.14135 22.8242 4.03588 22.9232C3.93155 23.0212 3.8687 23.1548 3.85897 23.2969V24.5803H4.99371V23.2969C4.984 23.1548 4.92066 23.0212 4.81632 22.9232C4.71089 22.8243 4.57142 22.7692 4.42634 22.7691Z" fill="white"/>
<path d="M7.48698 22.207C7.77329 22.2071 8.04788 22.3206 8.25057 22.5227C8.45332 22.7248 8.56771 22.9991 8.56771 23.2853V23.2873L8.55581 24.8353C8.55464 24.9745 8.44132 25.0869 8.30211 25.087H6.65996C6.51989 25.087 6.40634 24.9733 6.40625 24.8333V23.2853C6.40625 22.9992 6.52024 22.7248 6.72289 22.5227C6.92561 22.3206 7.20063 22.207 7.48698 22.207ZM6.91366 24.5796H8.05038L8.06029 23.2853L8.05732 23.2288C8.04434 23.0983 7.98631 22.9756 7.89231 22.8819C7.7849 22.7749 7.6392 22.7145 7.48698 22.7144C7.33469 22.7144 7.18859 22.7748 7.08115 22.8819C6.9738 22.989 6.91366 23.1342 6.91366 23.2853V24.5796Z" fill="white"/>
<path d="M4.42634 25.8398C4.7003 25.8399 4.964 25.9443 5.16368 26.1317C5.36333 26.3191 5.48409 26.5755 5.50063 26.8487C5.50094 26.8538 5.50112 26.859 5.50113 26.8641V28.4121C5.50113 28.5521 5.38746 28.6657 5.24742 28.6658H3.60527C3.46515 28.6658 3.35156 28.5522 3.35156 28.4121V26.8641C3.35157 26.859 3.35175 26.8538 3.35206 26.8487C3.3686 26.5755 3.48934 26.3191 3.68901 26.1317C3.8887 25.9443 4.15238 25.8398 4.42634 25.8398ZM4.42634 26.3473C4.28117 26.3473 4.14135 26.4024 4.03588 26.5014C3.93155 26.5993 3.8687 26.7329 3.85897 26.875V28.1584H4.99371V26.875C4.984 26.7329 4.92066 26.5993 4.81632 26.5014C4.71089 26.4025 4.57142 26.3473 4.42634 26.3473Z" fill="white"/>
<path d="M7.49275 25.8398C7.76671 25.8399 8.03041 25.9443 8.23008 26.1317C8.42973 26.3191 8.5505 26.5755 8.56704 26.8487C8.56734 26.8538 8.56753 26.859 8.56753 26.8641V28.4121C8.56753 28.5521 8.45387 28.6657 8.31383 28.6658H6.67167C6.53156 28.6658 6.41797 28.5522 6.41797 28.4121V26.8641C6.41797 26.859 6.41816 26.8538 6.41846 26.8487C6.43501 26.5755 6.55575 26.3191 6.75542 26.1317C6.95511 25.9443 7.21878 25.8398 7.49275 25.8398ZM7.49275 26.3473C7.34757 26.3473 7.20775 26.4024 7.10228 26.5014C6.99795 26.5993 6.9351 26.7329 6.92538 26.875V28.1584H8.06012V26.875C8.0504 26.7329 7.98707 26.5993 7.88272 26.5014C7.77729 26.4025 7.63783 26.3473 7.49275 26.3473Z" fill="white"/>
<path d="M2 17.0996V15.6521C2 15.512 2.11359 15.3984 2.25371 15.3984H9.6528L9.70434 15.4034C9.81989 15.4271 9.90651 15.5296 9.90651 15.6521C9.90651 15.7747 9.81989 15.8772 9.70434 15.9009L9.6528 15.9058H2.50741V17.0996C2.50741 17.2397 2.39382 17.3533 2.25371 17.3533C2.11359 17.3533 2.00001 17.2397 2 17.0996Z" fill="white"/>
<path d="M12.9776 21.6367L13.0286 21.6417C13.1443 21.6652 13.2313 21.7677 13.2313 21.8904C13.2313 22.0131 13.1443 22.1156 13.0286 22.1392L12.9776 22.1441H9.65214C9.51203 22.1441 9.39844 22.0305 9.39844 21.8904C9.39844 21.7503 9.51203 21.6367 9.65214 21.6367H12.9776Z" fill="white"/>
<path d="M23 17.1017V13.035C23 12.8948 23.1136 12.7812 23.2537 12.7812H27.2441L27.2957 12.7862C27.4112 12.8099 27.4978 12.9124 27.4978 13.035V30.7473C27.4977 30.8873 27.3842 31.001 27.2441 31.001C27.1042 31.0009 26.9905 30.8873 26.9904 30.7473V13.2887H23.5074V17.1017C23.5074 17.2418 23.3938 17.3554 23.2537 17.3554C23.1136 17.3554 23 17.2418 23 17.1017Z" fill="white"/>
<path d="M27.2472 11.5L27.2814 11.5025C27.36 11.5132 27.4301 11.5602 27.4692 11.6308L28.1758 12.9098C28.2192 12.9883 28.2179 13.0842 28.1723 13.1615C28.1267 13.2387 28.0435 13.2858 27.9538 13.2859H22.5467C22.4568 13.2859 22.3737 13.2384 22.3282 13.161C22.2826 13.0836 22.2811 12.9878 22.3247 12.9093L23.0343 11.6308C23.079 11.5502 23.1641 11.5 23.2563 11.5H27.2472ZM22.9778 12.7784H27.5237L27.097 12.0074H23.4059L22.9778 12.7784Z" fill="white"/>
<path d="M25.2489 9.57422C25.8308 9.57425 26.3902 9.7991 26.8098 10.2015C27.2294 10.604 27.4765 11.1528 27.499 11.7332C27.5045 11.8732 27.3953 11.9914 27.2552 11.9968C27.1153 12.0022 26.9976 11.893 26.9921 11.753C26.9748 11.3042 26.7834 10.8794 26.4585 10.5677C26.1335 10.2561 25.7001 10.0817 25.2489 10.0816C24.7976 10.0816 24.3638 10.256 24.0388 10.5677C23.7139 10.8794 23.523 11.3042 23.5057 11.753C23.5002 11.893 23.382 12.0022 23.242 11.9968C23.1021 11.9913 22.9928 11.8732 22.9982 11.7332C23.0207 11.1529 23.268 10.604 23.6875 10.2015C24.1071 9.79907 24.6669 9.57422 25.2489 9.57422Z" fill="white"/>
<path d="M24.998 9.76284V7.80058C24.998 7.66046 25.1116 7.54688 25.2518 7.54688C25.3919 7.54688 25.5055 7.66046 25.5055 7.80058V9.76284C25.5055 9.90296 25.3919 10.0165 25.2518 10.0165C25.1116 10.0165 24.998 9.90296 24.998 9.76284Z" fill="white"/>
<path d="M34.642 16.8477C34.7821 16.8477 34.8957 16.9612 34.8957 17.1014V30.7465C34.8957 30.8866 34.7821 31.0002 34.642 31.0002H27.2459C27.1058 31.0002 26.9922 30.8866 26.9922 30.7465C26.9923 30.6064 27.1058 30.4928 27.2459 30.4928H34.3883V17.3551H27.2459C27.1058 17.3551 26.9922 17.2415 26.9922 17.1014C26.9922 16.9612 27.1058 16.8477 27.2459 16.8477H34.642Z" fill="white"/>
<path d="M33.0376 19.688C33.0376 19.5389 32.9781 19.3953 32.8721 19.2896C32.7661 19.184 32.622 19.1246 32.4717 19.1246C32.3215 19.1246 32.1774 19.184 32.0714 19.2896C31.9653 19.3953 31.9058 19.5389 31.9058 19.688V20.9823H33.0376V19.688ZM33.545 21.236C33.545 21.376 33.4313 21.4896 33.2913 21.4897H31.6521C31.5121 21.4897 31.3985 21.3761 31.3984 21.236V19.688C31.3984 19.4038 31.5117 19.1311 31.7131 18.9304C31.9144 18.7297 32.1874 18.6172 32.4717 18.6172C32.7561 18.6172 33.0291 18.7297 33.2304 18.9304C33.4317 19.1311 33.545 19.4038 33.545 19.688V21.236Z" fill="white"/>
<path d="M29.4029 18.6602C29.6769 18.6602 29.9406 18.7646 30.1402 18.952C30.3399 19.1394 30.4607 19.3958 30.4772 19.669C30.4775 19.6741 30.4777 19.6793 30.4777 19.6844V21.2324C30.4777 21.3725 30.364 21.486 30.224 21.4861H28.5818C28.4417 21.4861 28.3281 21.3725 28.3281 21.2324V19.6844L28.3286 19.669C28.3452 19.3958 28.4659 19.1394 28.6656 18.952C28.8653 18.7646 29.1289 18.6602 29.4029 18.6602ZM29.4029 19.1676C29.2577 19.1676 29.1179 19.2227 29.0124 19.3217C28.9081 19.4196 28.8453 19.5532 28.8355 19.6953V20.9787H29.9703V19.6953C29.9606 19.5532 29.8972 19.4196 29.7929 19.3217C29.6874 19.2228 29.548 19.1676 29.4029 19.1676Z" fill="white"/>
<path d="M33.0376 23.2857C33.0376 23.1365 32.9781 22.993 32.8721 22.8873C32.7661 22.7816 32.622 22.7223 32.4717 22.7223C32.3215 22.7223 32.1774 22.7816 32.0714 22.8873C31.9653 22.993 31.9058 23.1365 31.9058 23.2857V24.58H33.0376V23.2857ZM33.545 24.8337C33.545 24.9737 33.4313 25.0873 33.2913 25.0874H31.6521C31.5121 25.0874 31.3985 24.9737 31.3984 24.8337V23.2857C31.3984 23.0015 31.5117 22.7287 31.7131 22.528C31.9144 22.3274 32.1874 22.2148 32.4717 22.2148C32.7561 22.2149 33.0291 22.3273 33.2304 22.528C33.4317 22.7287 33.545 23.0015 33.545 23.2857V24.8337Z" fill="white"/>
<path d="M29.4029 22.2617C29.6769 22.2617 29.9406 22.3661 30.1402 22.5536C30.3399 22.741 30.4607 22.9974 30.4772 23.2706C30.4775 23.2756 30.4777 23.2809 30.4777 23.286V24.834C30.4777 24.974 30.364 25.0876 30.224 25.0877H28.5818C28.4417 25.0877 28.3281 24.9741 28.3281 24.834V23.286C28.3281 23.2809 28.3283 23.2756 28.3286 23.2706C28.3452 22.9974 28.4659 22.741 28.6656 22.5536C28.8653 22.3662 29.1289 22.2617 29.4029 22.2617ZM29.4029 22.7691C29.2577 22.7691 29.1179 22.8242 29.0124 22.9232C28.9081 23.0212 28.8453 23.1548 28.8355 23.2969V24.5803H29.9703V23.2969C29.9606 23.1548 29.8972 23.0212 29.7929 22.9232C29.6874 22.8243 29.548 22.7692 29.4029 22.7691Z" fill="white"/>
<path d="M33.0376 26.8638C33.0376 26.7147 32.9781 26.5711 32.8721 26.4654C32.7661 26.3597 32.622 26.3004 32.4717 26.3004C32.3215 26.3004 32.1774 26.3598 32.0714 26.4654C31.9653 26.5711 31.9058 26.7147 31.9058 26.8638V28.1581H33.0376V26.8638ZM33.545 28.4118C33.545 28.5518 33.4313 28.6654 33.2913 28.6655H31.6521C31.5121 28.6655 31.3985 28.5518 31.3984 28.4118V26.8638C31.3984 26.5796 31.5117 26.3069 31.7131 26.1061C31.9144 25.9055 32.1874 25.793 32.4717 25.793C32.7561 25.793 33.0291 25.9055 33.2304 26.1061C33.4317 26.3069 33.545 26.5796 33.545 26.8638V28.4118Z" fill="white"/>
<path d="M29.4029 25.8398C29.6769 25.8399 29.9406 25.9443 30.1402 26.1317C30.3399 26.3191 30.4607 26.5755 30.4772 26.8487C30.4775 26.8538 30.4777 26.859 30.4777 26.8641V28.4121C30.4777 28.5521 30.364 28.6657 30.224 28.6658H28.5818C28.4417 28.6658 28.3281 28.5522 28.3281 28.4121V26.8641C28.3281 26.859 28.3283 26.8538 28.3286 26.8487C28.3452 26.5755 28.4659 26.3191 28.6656 26.1317C28.8653 25.9443 29.1289 25.8398 29.4029 25.8398ZM29.4029 26.3473C29.2577 26.3473 29.1179 26.4024 29.0124 26.5014C28.9081 26.5993 28.8453 26.7329 28.8355 26.875V28.1584H29.9703V26.875C29.9606 26.7329 29.8972 26.5993 29.7929 26.5014C29.6874 26.4025 29.548 26.3473 29.4029 26.3473Z" fill="white"/>
<path d="M34.3883 17.0996V15.9058H27.2459C27.1058 15.9058 26.9922 15.7923 26.9922 15.6521C26.9922 15.512 27.1058 15.3984 27.2459 15.3984H34.642C34.7821 15.3984 34.8957 15.512 34.8957 15.6521V17.0996C34.8957 17.2397 34.7821 17.3533 34.642 17.3533C34.502 17.3531 34.3883 17.2396 34.3883 17.0996Z" fill="white"/>
<path d="M27.2452 21.6367C27.3853 21.6367 27.4989 21.7503 27.4989 21.8904C27.4989 22.0305 27.3853 22.1441 27.2452 22.1441H23.9197C23.7796 22.1441 23.666 22.0305 23.666 21.8904C23.666 21.7503 23.7796 21.6367 23.9197 21.6367H27.2452Z" fill="white"/>
</svg>
