<svg width="36" height="36" viewBox="0 0 36 36" fill="none" xmlns="http://www.w3.org/2000/svg">
<path d="M32.7424 29.5102H31.5527V19.2245H32.2665C32.3616 19.2245 32.4568 19.1755 32.5044 19.0776L32.9803 17.6082C33.0279 17.5102 32.9803 17.4612 32.9327 17.3633C32.8851 17.3143 32.8375 17.2653 32.7424 17.2653H31.5527V15.3061H31.7906C31.9334 15.3061 32.0285 15.2082 32.0285 15.0612V13.5918C32.0285 13.4449 31.9334 13.3469 31.7906 13.3469H24.8904V11.6327C24.8904 11.4857 24.7952 11.3878 24.6524 11.3878H24.4145V7.95918C24.4145 7.51837 24.129 7.12653 23.7007 7.02857V6.2449C23.7007 6.09796 23.6055 6 23.4627 6C23.32 6 23.2248 6.09796 23.2248 6.2449V7.02857C22.7965 7.12653 22.511 7.51837 22.511 7.95918V9.91837H13.4693V7.95918C13.4693 7.51837 13.1838 7.12653 12.7555 7.02857V6.2449C12.7555 6.09796 12.6603 6 12.5176 6C12.3748 6 12.2796 6.09796 12.2796 6.2449V7.02857C11.8513 7.12653 11.5658 7.51837 11.5658 7.95918V11.3878H11.3279C11.1851 11.3878 11.0899 11.4857 11.0899 11.6327V13.3469H4.18969C4.04693 13.3469 3.95176 13.4449 3.95176 13.5918V15.0612C3.95176 15.2082 4.04693 15.3061 4.18969 15.3061H4.42763V17.2653H3.23794C3.14276 17.2653 3.09518 17.3143 3.04759 17.3633C3 17.4122 3 17.5102 3 17.6082L3.47588 19.0776C3.52347 19.1755 3.61864 19.2245 3.71382 19.2245H4.42763V29.5102H3.23794C3.09518 29.5102 3 29.6082 3 29.7551C3 29.902 3.09518 30 3.23794 30H32.7424C32.8851 30 32.9803 29.902 32.9803 29.7551C32.9803 29.6082 32.8851 29.5102 32.7424 29.5102ZM32.0761 18.7347H24.8904V17.7551H32.4092L32.0761 18.7347ZM13.9452 11.8776H22.0351V14.8163H13.9452V11.8776ZM24.4145 11.8776V14.8163H22.511V11.8776H24.4145ZM16.3246 15.3061V17.2653H15.3728V15.3061H16.3246ZM16.8005 15.3061H17.7522V17.2653H16.8005V15.3061ZM18.2281 15.3061H19.1798V17.2653H18.2281V15.3061ZM19.6557 15.3061H20.6075V17.2653H19.6557V15.3061ZM21.0833 15.3061H22.0351V17.2653H21.0833V15.3061ZM22.511 17.2653V15.3061H24.4145V17.2653H22.511ZM14.8969 15.3061V17.2653H13.9452V15.3061H14.8969ZM13.4693 17.2653H11.5658V15.3061H13.4693V17.2653ZM13.4693 17.7551V18.7347H11.5658V17.7551H13.4693ZM22.511 17.7551H24.4145V18.7347H22.511V17.7551ZM31.0768 17.2653H24.8904V15.3061H31.0768V17.2653ZM31.5527 13.8367V14.8163H24.8904V13.8367H31.5527ZM22.9869 11.3878V8.93878H23.9386V11.3878H22.9869ZM23.4627 7.46939C23.7483 7.46939 23.9386 7.66531 23.9386 7.95918V8.44898H22.9869V7.95918C22.9869 7.66531 23.1772 7.46939 23.4627 7.46939ZM22.511 10.4082V11.3878H13.4693V10.4082H22.511ZM12.5176 7.46939C12.8031 7.46939 12.9934 7.66531 12.9934 7.95918V8.44898H12.0417V7.95918C12.0417 7.66531 12.232 7.46939 12.5176 7.46939ZM12.0417 8.93878H12.9934V11.3878H12.0417V8.93878ZM11.8037 11.8776H13.4693V14.8163H11.5658V11.8776H11.8037ZM4.42763 13.8367H11.0899V14.8163H4.42763V13.8367ZM4.90351 15.3061H11.0899V17.2653H4.90351V15.3061ZM3.57105 17.7551H11.0899V18.7347H3.90417L3.57105 17.7551ZM4.90351 19.2245H11.0899V29.5102H10.3761V23.9265C10.3761 22.6041 9.66229 21.4286 8.47259 20.8408C8.32983 20.7429 8.13948 20.7429 7.94913 20.8408C6.80702 21.4286 6.0932 22.6041 6.04562 23.9265V29.5102H4.85592V19.2245H4.90351ZM7.04496 29.5102H6.56908V24.1224H9.90023V29.5102H9.42435V26.3265C9.42435 25.0531 8.37742 24.6612 8.32983 24.6122H8.18707C8.13948 24.6122 7.04496 25.0531 7.04496 26.3265V29.5102ZM6.56908 23.6327C6.66426 22.6041 7.23531 21.6735 8.18707 21.1837H8.28224C9.18641 21.6735 9.80505 22.5551 9.90023 23.6327H6.56908ZM7.52084 29.5102V26.3265C7.52084 25.5918 8.0443 25.249 8.23465 25.102C8.47259 25.249 8.94847 25.5918 8.94847 26.3265V29.5102H7.52084ZM11.5658 29.5102V19.2245H13.4693V29.5102H11.5658ZM14.8969 29.5102V24.1714C14.8969 22.702 15.6108 21.3306 16.848 20.5469L17.9901 19.7633L19.1323 20.498C20.3695 21.2816 21.0833 22.6531 21.0833 24.1714V29.5592H14.8969V29.5102ZM19.3702 20.1061L18.0853 19.2735C17.9901 19.2245 17.895 19.2245 17.8474 19.2735L16.5625 20.1061C15.2301 20.9878 14.4211 22.5061 14.4211 24.1714V29.5102H13.9452V17.7551H22.0351V29.5102H21.5592V24.1224C21.5592 22.5061 20.7502 20.9878 19.3702 20.1061ZM22.511 29.5102V19.2245H24.4145V29.5102H22.511ZM26.0801 24.1224H29.4112V29.5102H28.9353V26.3265C28.9353 25.0531 27.8884 24.6612 27.8408 24.6122H27.698C27.6505 24.6122 26.5559 25.0531 26.5559 26.3265V29.5102H26.0801V24.1224ZM26.0801 23.6327C26.1752 22.6041 26.7463 21.6735 27.698 21.1837H27.7932C28.6974 21.6735 29.316 22.5551 29.4112 23.6327H26.0801ZM27.0318 29.5102V26.3265C27.0318 25.5918 27.5553 25.249 27.7456 25.102C27.9836 25.249 28.4595 25.5918 28.4595 26.3265V29.5102H27.0318ZM29.8871 29.5102V23.9265C29.8871 22.6041 29.1733 21.4286 27.9836 20.7918C27.8408 20.6939 27.6505 20.6939 27.4601 20.7918C26.318 21.3796 25.5566 22.6041 25.5566 23.9265V29.5102H24.8428V19.2245H31.0292V29.5102H29.8871Z" fill="white"/>
</svg>
