<svg width="75" height="52" viewBox="0 0 75 52" fill="none" xmlns="http://www.w3.org/2000/svg">
<path d="M13.545 5.32004C13.125 5.32004 12.845 5.23837 12.705 5.07504C12.565 4.88837 12.53 4.65504 12.6 4.37504C12.6933 4.09504 12.8683 3.86171 13.125 3.67504C13.3816 3.48838 13.72 3.39504 14.14 3.39504L19.88 3.32504C21.0466 3.30171 22.0266 3.22004 22.82 3.08004C23.6366 2.91671 24.36 2.66004 24.99 2.31004C25.62 1.93671 26.25 1.42337 26.88 0.770041C27.1833 0.513374 27.4516 0.326707 27.685 0.21004C27.9183 0.0700418 28.14 4.26769e-05 28.35 4.26769e-05C28.7233 4.26769e-05 28.98 0.105042 29.12 0.315041C29.2833 0.501708 29.295 0.793374 29.155 1.19004L16.73 46.375C16.59 46.8417 16.59 47.2267 16.73 47.53C16.87 47.8334 17.255 48.02 17.885 48.09L23.065 48.685C23.345 48.7317 23.555 48.825 23.695 48.965C23.835 49.0817 23.8933 49.2334 23.87 49.42C23.8466 49.7 23.7183 49.9217 23.485 50.085C23.275 50.225 22.9833 50.295 22.61 50.295H1.01498C0.66498 50.295 0.408314 50.225 0.24498 50.085C0.0816471 49.945 0.0116471 49.7467 0.0349804 49.49C0.0583138 49.2567 0.17498 49.07 0.38498 48.93C0.571647 48.7667 0.828314 48.6617 1.15498 48.615L7.20998 48.02C7.69998 47.9734 8.11998 47.81 8.46998 47.53C8.84331 47.2267 9.11165 46.8067 9.27498 46.27L20.02 7.31504C20.23 6.61504 20.2533 6.12504 20.09 5.84504C19.9266 5.56504 19.5766 5.42504 19.04 5.42504L13.545 5.32004ZM61.7143 0.525042C64.6076 0.525042 67.0343 1.13171 68.9943 2.34504C70.9543 3.55837 72.4359 5.28504 73.4393 7.52504C74.4426 9.76504 74.9443 12.4367 74.9443 15.54C74.9443 18.6434 74.4309 22.085 73.4043 25.865C72.2843 29.9017 70.8143 33.495 68.9943 36.645C67.1976 39.7717 65.1443 42.4084 62.8343 44.555C60.5243 46.6784 58.0509 48.2884 55.4143 49.385C52.7776 50.4817 50.0709 51.03 47.2943 51.03C44.4009 51.03 41.9626 50.4234 39.9793 49.21C38.0193 47.9734 36.5376 46.2234 35.5343 43.96C34.5543 41.6967 34.0643 39.0017 34.0643 35.875C34.0643 32.725 34.5893 29.225 35.6393 25.375C37.0393 20.265 39.0343 15.855 41.6243 12.145C44.2376 8.43504 47.2593 5.57671 50.6893 3.57004C54.1426 1.54004 57.8176 0.525042 61.7143 0.525042ZM65.4243 26.25C66.9643 20.5334 67.7926 15.9134 67.9093 12.39C68.0493 8.84338 67.5359 6.26504 66.3693 4.65504C65.2026 3.02171 63.4409 2.20504 61.0843 2.20504C58.7276 2.20504 56.4643 3.10337 54.2943 4.90004C52.1243 6.67337 50.1293 9.22837 48.3093 12.565C46.5126 15.9017 44.9726 19.9267 43.6893 24.64C42.4993 29.0967 41.7176 32.9 41.3443 36.05C40.9943 39.1767 41.0176 41.72 41.4143 43.68C41.8109 45.64 42.5459 47.075 43.6193 47.985C44.7159 48.895 46.1159 49.35 47.8193 49.35C49.9893 49.35 52.1593 48.5334 54.3293 46.9C56.4993 45.2434 58.5409 42.7117 60.4543 39.305C62.3676 35.875 64.0243 31.5234 65.4243 26.25Z" fill="#E5E5E5"/>
</svg>
