<svg width="59" height="51" viewBox="0 0 59 51" fill="none" xmlns="http://www.w3.org/2000/svg">
<path d="M13.545 5.32004C13.125 5.32004 12.845 5.23837 12.705 5.07504C12.565 4.88837 12.53 4.65504 12.6 4.37504C12.6933 4.09504 12.8683 3.86171 13.125 3.67504C13.3816 3.48838 13.72 3.39504 14.14 3.39504L19.88 3.32504C21.0466 3.30171 22.0266 3.22004 22.82 3.08004C23.6366 2.91671 24.36 2.66004 24.99 2.31004C25.62 1.93671 26.25 1.42337 26.88 0.770041C27.1833 0.513374 27.4516 0.326707 27.685 0.21004C27.9183 0.0700418 28.14 4.26769e-05 28.35 4.26769e-05C28.7233 4.26769e-05 28.98 0.105042 29.12 0.315041C29.2833 0.501708 29.295 0.793374 29.155 1.19004L16.73 46.375C16.59 46.8417 16.59 47.2267 16.73 47.53C16.87 47.8334 17.255 48.02 17.885 48.09L23.065 48.685C23.345 48.7317 23.555 48.825 23.695 48.965C23.835 49.0817 23.8933 49.2334 23.87 49.42C23.8466 49.7 23.7183 49.9217 23.485 50.085C23.275 50.225 22.9833 50.295 22.61 50.295H1.01498C0.66498 50.295 0.408314 50.225 0.24498 50.085C0.0816471 49.945 0.0116471 49.7467 0.0349804 49.49C0.0583138 49.2567 0.17498 49.07 0.38498 48.93C0.571647 48.7667 0.828314 48.6617 1.15498 48.615L7.20998 48.02C7.69998 47.9734 8.11998 47.81 8.46998 47.53C8.84331 47.2267 9.11165 46.8067 9.27498 46.27L20.02 7.31504C20.23 6.61504 20.2533 6.12504 20.09 5.84504C19.9266 5.56504 19.5766 5.42504 19.04 5.42504L13.545 5.32004ZM42.5977 5.32004C42.1777 5.32004 41.8977 5.23837 41.7577 5.07504C41.6177 4.88837 41.5827 4.65504 41.6527 4.37504C41.746 4.09504 41.921 3.86171 42.1777 3.67504C42.4344 3.48838 42.7727 3.39504 43.1927 3.39504L48.9327 3.32504C50.0994 3.30171 51.0794 3.22004 51.8727 3.08004C52.6894 2.91671 53.4127 2.66004 54.0427 2.31004C54.6727 1.93671 55.3027 1.42337 55.9327 0.770041C56.236 0.513374 56.5044 0.326707 56.7377 0.21004C56.971 0.0700418 57.1927 4.26769e-05 57.4027 4.26769e-05C57.776 4.26769e-05 58.0327 0.105042 58.1727 0.315041C58.336 0.501708 58.3477 0.793374 58.2077 1.19004L45.7827 46.375C45.6427 46.8417 45.6427 47.2267 45.7827 47.53C45.9227 47.8334 46.3077 48.02 46.9377 48.09L52.1177 48.685C52.3977 48.7317 52.6077 48.825 52.7477 48.965C52.8877 49.0817 52.946 49.2334 52.9227 49.42C52.8994 49.7 52.771 49.9217 52.5377 50.085C52.3277 50.225 52.036 50.295 51.6627 50.295H30.0677C29.7177 50.295 29.461 50.225 29.2977 50.085C29.1344 49.945 29.0644 49.7467 29.0877 49.49C29.111 49.2567 29.2277 49.07 29.4377 48.93C29.6244 48.7667 29.881 48.6617 30.2077 48.615L36.2627 48.02C36.7527 47.9734 37.1727 47.81 37.5227 47.53C37.896 47.2267 38.1644 46.8067 38.3277 46.27L49.0727 7.31504C49.2827 6.61504 49.306 6.12504 49.1427 5.84504C48.9794 5.56504 48.6294 5.42504 48.0927 5.42504L42.5977 5.32004Z" fill="#E5E5E5"/>
</svg>
