<svg width="40" height="40" viewBox="0 0 40 40" fill="none" xmlns="http://www.w3.org/2000/svg">
<rect x="0.6" y="0.6" width="38.8" height="38.8" rx="19.4" stroke="url(#paint0_linear_11876_7023)" stroke-width="1.2"/>
<path d="M29.6688 16.9485L20.2938 11.9485C20.2034 11.9003 20.1025 11.8751 20 11.8751C19.8976 11.8751 19.7967 11.9003 19.7063 11.9485L10.3313 16.9485C10.2313 17.0017 10.1477 17.0812 10.0894 17.1784C10.031 17.2755 10.0002 17.3867 10.0002 17.5C10.0002 17.6133 10.031 17.7245 10.0894 17.8217C10.1477 17.9188 10.2313 17.9983 10.3313 18.0516L12.5 19.2086V22.9914C12.4994 23.2984 12.6124 23.5948 12.8172 23.8235C13.8407 24.9633 16.1336 26.875 20 26.875C21.282 26.8856 22.5544 26.6534 23.75 26.1906V28.75C23.75 28.9158 23.8159 29.0748 23.9331 29.192C24.0503 29.3092 24.2093 29.375 24.375 29.375C24.5408 29.375 24.6998 29.3092 24.817 29.192C24.9342 29.0748 25 28.9158 25 28.75V25.5867C25.8151 25.1163 26.5515 24.5213 27.1829 23.8235C27.3877 23.5948 27.5007 23.2984 27.5 22.9914V19.2086L29.6688 18.0516C29.7688 17.9983 29.8524 17.9188 29.9107 17.8217C29.969 17.7245 29.9999 17.6133 29.9999 17.5C29.9999 17.3867 29.969 17.2755 29.9107 17.1784C29.8524 17.0812 29.7688 17.0017 29.6688 16.9485ZM20 25.625C16.6196 25.625 14.6313 23.9735 13.75 22.9914V19.875L19.7063 23.0516C19.7967 23.0997 19.8976 23.1249 20 23.1249C20.1025 23.1249 20.2034 23.0997 20.2938 23.0516L23.75 21.2086V24.8289C22.7657 25.2883 21.525 25.625 20 25.625ZM26.25 22.9883C25.8754 23.404 25.4562 23.7774 25 24.1016V20.5414L26.25 19.875V22.9883ZM24.6875 19.2922L24.6704 19.282L20.2954 16.9485C20.1494 16.8739 19.98 16.8597 19.8236 16.9088C19.6673 16.958 19.5365 17.0666 19.4594 17.2113C19.3824 17.3559 19.3652 17.5251 19.4117 17.6823C19.4582 17.8394 19.5645 17.9721 19.7079 18.0516L23.3594 20L20 21.7914L11.9532 17.5L20 13.2086L28.0469 17.5L24.6875 19.2922Z" fill="#090909"/>
<defs>
<linearGradient id="paint0_linear_11876_7023" x1="9.9686e-08" y1="33.75" x2="40.0137" y2="34.624" gradientUnits="userSpaceOnUse">
<stop stop-color="#39B5D7"/>
<stop offset="0.502211" stop-color="#F7D544"/>
<stop offset="1" stop-color="#E38330"/>
</linearGradient>
</defs>
</svg>
