<svg width="40" height="40" viewBox="0 0 40 40" fill="none" xmlns="http://www.w3.org/2000/svg">
<rect x="0.6" y="0.6" width="38.8" height="38.8" rx="19.4" stroke="url(#paint0_linear_11876_7045)" stroke-width="1.2"/>
<path d="M27.5 25.625H26.875V13.125C26.875 12.9592 26.8092 12.8003 26.6919 12.6831C26.5747 12.5658 26.4158 12.5 26.25 12.5H21.875C21.7092 12.5 21.5503 12.5658 21.4331 12.6831C21.3158 12.8003 21.25 12.9592 21.25 13.125V16.25H17.5C17.3342 16.25 17.1753 16.3158 17.0581 16.4331C16.9408 16.5503 16.875 16.7092 16.875 16.875V20H13.75C13.5842 20 13.4253 20.0658 13.3081 20.1831C13.1908 20.3003 13.125 20.4592 13.125 20.625V25.625H12.5C12.3342 25.625 12.1753 25.6908 12.0581 25.8081C11.9408 25.9253 11.875 26.0842 11.875 26.25C11.875 26.4158 11.9408 26.5747 12.0581 26.6919C12.1753 26.8092 12.3342 26.875 12.5 26.875H27.5C27.6658 26.875 27.8247 26.8092 27.9419 26.6919C28.0592 26.5747 28.125 26.4158 28.125 26.25C28.125 26.0842 28.0592 25.9253 27.9419 25.8081C27.8247 25.6908 27.6658 25.625 27.5 25.625ZM22.5 13.75H25.625V25.625H22.5V13.75ZM18.125 17.5H21.25V25.625H18.125V17.5ZM14.375 21.25H16.875V25.625H14.375V21.25Z" fill="#090909"/>
<defs>
<linearGradient id="paint0_linear_11876_7045" x1="9.9686e-08" y1="33.75" x2="40.0137" y2="34.624" gradientUnits="userSpaceOnUse">
<stop stop-color="#39B5D7"/>
<stop offset="0.502211" stop-color="#F7D544"/>
<stop offset="1" stop-color="#E38330"/>
</linearGradient>
</defs>
</svg>
