<svg width="37" height="37" viewBox="0 0 37 37" fill="none" xmlns="http://www.w3.org/2000/svg">
<path d="M4.27666 17.808C4.3374 17.8536 4.40651 17.8867 4.48006 17.9055C4.5536 17.9244 4.63014 17.9286 4.7053 17.9178C4.78045 17.9071 4.85276 17.8816 4.91809 17.843C4.98342 17.8043 5.04049 17.7531 5.08604 17.6924C5.83995 16.6872 6.81754 15.8713 7.9414 15.3094C9.06526 14.7474 10.3045 14.4549 11.561 14.4549C12.8176 14.4549 14.0568 14.7474 15.1807 15.3094C16.3045 15.8713 17.2821 16.6872 18.036 17.6924C18.0886 17.7655 18.1579 17.8251 18.2381 17.8661C18.3182 17.9072 18.407 17.9286 18.4971 17.9286C18.5872 17.9286 18.676 17.9072 18.7561 17.8661C18.8363 17.8251 18.9055 17.7655 18.9581 17.6924C19.7121 16.6872 20.6896 15.8713 21.8135 15.3094C22.9374 14.7474 24.1766 14.4549 25.4331 14.4549C26.6897 14.4549 27.9289 14.7474 29.0528 15.3094C30.1766 15.8713 31.1542 16.6872 31.9081 17.6924C31.9537 17.7531 32.0108 17.8043 32.0761 17.843C32.1414 17.8816 32.2137 17.9071 32.2889 17.9178C32.364 17.9286 32.4406 17.9244 32.5141 17.9055C32.5877 17.8867 32.6568 17.8536 32.7175 17.808C32.7783 17.7625 32.8294 17.7054 32.8681 17.6401C32.9068 17.5747 32.9322 17.5024 32.943 17.4273C32.9537 17.3521 32.9495 17.2756 32.9307 17.202C32.9118 17.1285 32.8787 17.0594 32.8331 16.9986C31.6606 15.4241 30.0143 14.2667 28.1359 13.6961C29.106 13.1064 29.8566 12.2155 30.2733 11.1594C30.6899 10.1033 30.7497 8.93987 30.4434 7.84662C30.1372 6.75338 29.4818 5.79029 28.5772 5.10425C27.6726 4.41821 26.5685 4.04688 25.4331 4.04688C24.2978 4.04687 23.1937 4.41821 22.2891 5.10425C21.3845 5.79029 20.7291 6.75338 20.4229 7.84662C20.1166 8.93987 20.1764 10.1033 20.593 11.1594C21.0097 12.2155 21.7603 13.1064 22.7304 13.6961C21.0896 14.1969 19.6223 15.1484 18.4956 16.4422C17.3693 15.1481 15.9019 14.1966 14.2609 13.6961C15.231 13.1064 15.9816 12.2155 16.3983 11.1594C16.8149 10.1033 16.8747 8.93987 16.5684 7.84662C16.2622 6.75338 15.6068 5.79029 14.7022 5.10425C13.7976 4.41821 12.6935 4.04687 11.5581 4.04688C10.4228 4.04687 9.31866 4.41821 8.41406 5.10425C7.50946 5.79029 6.85407 6.75338 6.54785 7.84662C6.24164 8.93987 6.3014 10.1033 6.71803 11.1594C7.13465 12.2155 7.88528 13.1064 8.85541 13.6961C6.97828 14.2678 5.33329 15.425 4.16104 16.9986C4.11549 17.0594 4.08234 17.1285 4.0635 17.202C4.04466 17.2756 4.04049 17.3521 4.05122 17.4273C4.06196 17.5024 4.08739 17.5747 4.12608 17.6401C4.16476 17.7054 4.21593 17.7625 4.27666 17.808ZM21.3892 9.25176C21.3892 8.45136 21.6265 7.66894 22.0712 7.00343C22.5159 6.33793 23.1479 5.81923 23.8874 5.51293C24.6268 5.20663 25.4405 5.12649 26.2255 5.28264C27.0106 5.43879 27.7316 5.82422 28.2976 6.39018C28.8636 6.95615 29.249 7.67723 29.4052 8.46225C29.5613 9.24727 29.4812 10.061 29.1749 10.8004C28.8686 11.5399 28.3499 12.1719 27.6844 12.6166C27.0189 13.0613 26.2364 13.2986 25.436 13.2986C24.3627 13.2986 23.3334 12.8723 22.5745 12.1133C21.8155 11.3544 21.3892 10.3251 21.3892 9.25176ZM7.51416 9.25176C7.51416 8.45136 7.75151 7.66894 8.19618 7.00343C8.64086 6.33793 9.2729 5.81923 10.0124 5.51293C10.7518 5.20663 11.5655 5.12649 12.3505 5.28264C13.1356 5.43879 13.8566 5.82422 14.4226 6.39018C14.9886 6.95615 15.374 7.67723 15.5302 8.46225C15.6863 9.24727 15.6062 10.061 15.2999 10.8004C14.9936 11.5399 14.4749 12.1719 13.8094 12.6166C13.1439 13.0613 12.3614 13.2986 11.561 13.2986C10.4877 13.2986 9.4584 12.8723 8.69947 12.1133C7.94053 11.3544 7.51416 10.3251 7.51416 9.25176ZM28.1388 28.7273C29.1089 28.1376 29.8595 27.2467 30.2762 26.1906C30.6928 25.1345 30.7525 23.9711 30.4463 22.8779C30.1401 21.7846 29.4847 20.8215 28.5801 20.1355C27.6755 19.4495 26.5714 19.0781 25.436 19.0781C24.3007 19.0781 23.1966 19.4495 22.292 20.1355C21.3874 20.8215 20.732 21.7846 20.4257 22.8779C20.1195 23.9711 20.1793 25.1345 20.5959 26.1906C21.0125 27.2467 21.7632 28.1376 22.7333 28.7273C21.0933 29.2262 19.6261 30.1751 18.4985 31.4662C17.3712 30.1748 15.904 29.2258 14.2638 28.7273C15.2339 28.1376 15.9845 27.2467 16.4012 26.1906C16.8178 25.1345 16.8775 23.9711 16.5713 22.8779C16.2651 21.7846 15.6097 20.8215 14.7051 20.1355C13.8005 19.4495 12.6964 19.0781 11.561 19.0781C10.4257 19.0781 9.32155 19.4495 8.41695 20.1355C7.51235 20.8215 6.85696 21.7846 6.55074 22.8779C6.24453 23.9711 6.30429 25.1345 6.72092 26.1906C7.13754 27.2467 7.88817 28.1376 8.8583 28.7273C6.98011 29.2985 5.33404 30.4558 4.16104 32.0299C4.06904 32.1525 4.02954 32.3067 4.05122 32.4585C4.07291 32.6103 4.154 32.7473 4.27666 32.8393C4.39933 32.9313 4.55351 32.9708 4.7053 32.9491C4.85708 32.9274 4.99404 32.8463 5.08604 32.7236C5.83995 31.7184 6.81754 30.9025 7.9414 30.3406C9.06526 29.7787 10.3045 29.4861 11.561 29.4861C12.8176 29.4861 14.0568 29.7787 15.1807 30.3406C16.3045 30.9025 17.2821 31.7184 18.036 32.7236C18.0886 32.7967 18.1579 32.8563 18.2381 32.8974C18.3182 32.9385 18.407 32.9599 18.4971 32.9599C18.5872 32.9599 18.676 32.9385 18.7561 32.8974C18.8363 32.8563 18.9055 32.7967 18.9581 32.7236C19.7121 31.7184 20.6896 30.9025 21.8135 30.3406C22.9374 29.7787 24.1766 29.4861 25.4331 29.4861C26.6897 29.4861 27.9289 29.7787 29.0528 30.3406C30.1766 30.9025 31.1542 31.7184 31.9081 32.7236C32.0001 32.8463 32.1371 32.9274 32.2889 32.9491C32.4407 32.9708 32.5949 32.9313 32.7175 32.8393C32.8402 32.7473 32.9213 32.6103 32.943 32.4585C32.9646 32.3067 32.9251 32.1525 32.8331 32.0299C31.6613 30.4558 30.0162 29.2985 28.1388 28.7273ZM7.51416 24.283C7.51416 23.4826 7.75151 22.7002 8.19618 22.0347C8.64086 21.3692 9.2729 20.8505 10.0124 20.5442C10.7518 20.2379 11.5655 20.1577 12.3505 20.3139C13.1356 20.47 13.8566 20.8555 14.4226 21.4214C14.9886 21.9874 15.374 22.7085 15.5302 23.4935C15.6863 24.2785 15.6062 25.0922 15.2999 25.8317C14.9936 26.5711 14.4749 27.2032 13.8094 27.6479C13.1439 28.0925 12.3614 28.3299 11.561 28.3299C10.4877 28.3299 9.4584 27.9035 8.69947 27.1446C7.94053 26.3856 7.51416 25.3563 7.51416 24.283ZM21.3892 24.283C21.3892 23.4826 21.6265 22.7002 22.0712 22.0347C22.5159 21.3692 23.1479 20.8505 23.8874 20.5442C24.6268 20.2379 25.4405 20.1577 26.2255 20.3139C27.0106 20.47 27.7316 20.8555 28.2976 21.4214C28.8636 21.9874 29.249 22.7085 29.4052 23.4935C29.5613 24.2785 29.4812 25.0922 29.1749 25.8317C28.8686 26.5711 28.3499 27.2032 27.6844 27.6479C27.0189 28.0925 26.2364 28.3299 25.436 28.3299C24.3627 28.3299 23.3334 27.9035 22.5745 27.1446C21.8155 26.3856 21.3892 25.3563 21.3892 24.283Z" fill="white"/>
</svg>
