<svg width="19" height="18" viewBox="0 0 19 18" fill="none" xmlns="http://www.w3.org/2000/svg">
<path d="M15.6875 2.8125H3.3125C3.01413 2.8125 2.72798 2.93103 2.517 3.142C2.30603 3.35298 2.1875 3.63913 2.1875 3.9375V15.1875C2.18755 15.2834 2.21211 15.3776 2.25883 15.4614C2.30556 15.5451 2.37291 15.6154 2.45448 15.6658C2.53606 15.7162 2.62915 15.7449 2.72493 15.7491C2.8207 15.7534 2.91598 15.7331 3.00172 15.6902L5 14.6911L6.99828 15.6902C7.07643 15.7293 7.16261 15.7497 7.25 15.7497C7.33739 15.7497 7.42357 15.7293 7.50172 15.6902L9.5 14.6911L11.4983 15.6902C11.5764 15.7293 11.6626 15.7497 11.75 15.7497C11.8374 15.7497 11.9236 15.7293 12.0017 15.6902L14 14.6911L15.9983 15.6902C16.084 15.7331 16.1793 15.7534 16.2751 15.7491C16.3708 15.7449 16.4639 15.7162 16.5455 15.6658C16.6271 15.6154 16.6944 15.5451 16.7412 15.4614C16.7879 15.3776 16.8124 15.2834 16.8125 15.1875V3.9375C16.8125 3.63913 16.694 3.35298 16.483 3.142C16.272 2.93103 15.9859 2.8125 15.6875 2.8125ZM15.6875 14.2777L14.2517 13.5591C14.1736 13.52 14.0874 13.4996 14 13.4996C13.9126 13.4996 13.8264 13.52 13.7483 13.5591L11.75 14.5589L9.75172 13.5591C9.67357 13.52 9.58739 13.4996 9.5 13.4996C9.41261 13.4996 9.32643 13.52 9.24828 13.5591L7.25 14.5589L5.25172 13.5591C5.17357 13.52 5.08739 13.4996 5 13.4996C4.91261 13.4996 4.82643 13.52 4.74828 13.5591L3.3125 14.2777V3.9375H15.6875V14.2777ZM10.0625 7.875C10.0625 7.72582 10.1218 7.58274 10.2273 7.47725C10.3327 7.37176 10.4758 7.3125 10.625 7.3125H14C14.1492 7.3125 14.2923 7.37176 14.3977 7.47725C14.5032 7.58274 14.5625 7.72582 14.5625 7.875C14.5625 8.02418 14.5032 8.16726 14.3977 8.27275C14.2923 8.37824 14.1492 8.4375 14 8.4375H10.625C10.4758 8.4375 10.3327 8.37824 10.2273 8.27275C10.1218 8.16726 10.0625 8.02418 10.0625 7.875ZM10.0625 10.125C10.0625 9.97582 10.1218 9.83274 10.2273 9.72725C10.3327 9.62176 10.4758 9.5625 10.625 9.5625H14C14.1492 9.5625 14.2923 9.62176 14.3977 9.72725C14.5032 9.83274 14.5625 9.97582 14.5625 10.125C14.5625 10.2742 14.5032 10.4173 14.3977 10.5227C14.2923 10.6282 14.1492 10.6875 14 10.6875H10.625C10.4758 10.6875 10.3327 10.6282 10.2273 10.5227C10.1218 10.4173 10.0625 10.2742 10.0625 10.125ZM5 11.8125H8.375C8.52418 11.8125 8.66726 11.7532 8.77275 11.6477C8.87824 11.5423 8.9375 11.3992 8.9375 11.25V6.75C8.9375 6.60082 8.87824 6.45774 8.77275 6.35225C8.66726 6.24676 8.52418 6.1875 8.375 6.1875H5C4.85082 6.1875 4.70774 6.24676 4.60225 6.35225C4.49676 6.45774 4.4375 6.60082 4.4375 6.75V11.25C4.4375 11.3992 4.49676 11.5423 4.60225 11.6477C4.70774 11.7532 4.85082 11.8125 5 11.8125ZM5.5625 7.3125H7.8125V10.6875H5.5625V7.3125Z" fill="url(#paint0_linear_11876_8280)"/>
<defs>
<linearGradient id="paint0_linear_11876_8280" x1="3.11375" y1="6.76555" x2="16.3337" y2="6.81187" gradientUnits="userSpaceOnUse">
<stop stop-color="#39B6D8"/>
<stop offset="0.5" stop-color="#F7D344"/>
<stop offset="1" stop-color="#E38330"/>
</linearGradient>
</defs>
</svg>
