<svg width="56" height="56" viewBox="0 0 56 56" fill="none" xmlns="http://www.w3.org/2000/svg">
<circle cx="28" cy="28" r="27.3333" fill="#F6F6F6" stroke="url(#paint0_linear_74_74600)" stroke-width="1.33333"/>
<path d="M38.2686 36.0931H36.7871V25.7227C36.7871 25.3298 36.631 24.953 36.3532 24.6752C36.0754 24.3974 35.6985 24.2413 35.3056 24.2413H29.3797V19.7968C29.3799 19.5285 29.3072 19.2653 29.1694 19.0351C29.0317 18.8049 28.834 18.6164 28.5975 18.4898C28.3609 18.3632 28.0945 18.3031 27.8265 18.3161C27.5586 18.3291 27.2992 18.4146 27.076 18.5635L19.6686 23.5005C19.4654 23.6361 19.2989 23.8198 19.1838 24.0353C19.0688 24.2508 19.0089 24.4914 19.0093 24.7357V36.0931H17.5279C17.3314 36.0931 17.143 36.1712 17.0041 36.3101C16.8652 36.449 16.7871 36.6374 16.7871 36.8339C16.7871 37.0303 16.8652 37.2187 17.0041 37.3576C17.143 37.4966 17.3314 37.5746 17.5279 37.5746H38.2686C38.465 37.5746 38.6535 37.4966 38.7924 37.3576C38.9313 37.2187 39.0093 37.0303 39.0093 36.8339C39.0093 36.6374 38.9313 36.449 38.7924 36.3101C38.6535 36.1712 38.465 36.0931 38.2686 36.0931ZM35.3056 25.7227V36.0931H29.3797V25.7227H35.3056ZM20.4908 24.7357L27.8982 19.7968V36.0931H20.4908V24.7357ZM26.4167 27.2042V28.6857C26.4167 28.8822 26.3387 29.0706 26.1998 29.2095C26.0609 29.3484 25.8725 29.4265 25.676 29.4265C25.4795 29.4265 25.2911 29.3484 25.1522 29.2095C25.0133 29.0706 24.9353 28.8822 24.9353 28.6857V27.2042C24.9353 27.0078 25.0133 26.8194 25.1522 26.6804C25.2911 26.5415 25.4795 26.4635 25.676 26.4635C25.8725 26.4635 26.0609 26.5415 26.1998 26.6804C26.3387 26.8194 26.4167 27.0078 26.4167 27.2042ZM23.4538 27.2042V28.6857C23.4538 28.8822 23.3757 29.0706 23.2368 29.2095C23.0979 29.3484 22.9095 29.4265 22.713 29.4265C22.5166 29.4265 22.3282 29.3484 22.1893 29.2095C22.0503 29.0706 21.9723 28.8822 21.9723 28.6857V27.2042C21.9723 27.0078 22.0503 26.8194 22.1893 26.6804C22.3282 26.5415 22.5166 26.4635 22.713 26.4635C22.9095 26.4635 23.0979 26.5415 23.2368 26.6804C23.3757 26.8194 23.4538 27.0078 23.4538 27.2042ZM23.4538 32.3894V33.8709C23.4538 34.0674 23.3757 34.2558 23.2368 34.3947C23.0979 34.5336 22.9095 34.6116 22.713 34.6116C22.5166 34.6116 22.3282 34.5336 22.1893 34.3947C22.0503 34.2558 21.9723 34.0674 21.9723 33.8709V32.3894C21.9723 32.193 22.0503 32.0045 22.1893 31.8656C22.3282 31.7267 22.5166 31.6487 22.713 31.6487C22.9095 31.6487 23.0979 31.7267 23.2368 31.8656C23.3757 32.0045 23.4538 32.193 23.4538 32.3894ZM26.4167 32.3894V33.8709C26.4167 34.0674 26.3387 34.2558 26.1998 34.3947C26.0609 34.5336 25.8725 34.6116 25.676 34.6116C25.4795 34.6116 25.2911 34.5336 25.1522 34.3947C25.0133 34.2558 24.9353 34.0674 24.9353 33.8709V32.3894C24.9353 32.193 25.0133 32.0045 25.1522 31.8656C25.2911 31.7267 25.4795 31.6487 25.676 31.6487C25.8725 31.6487 26.0609 31.7267 26.1998 31.8656C26.3387 32.0045 26.4167 32.193 26.4167 32.3894Z" fill="#060606"/>
<defs>
<linearGradient id="paint0_linear_74_74600" x1="28" y1="0" x2="28" y2="56" gradientUnits="userSpaceOnUse">
<stop stop-color="#39B6D8"/>
<stop offset="0.5" stop-color="#F7D344"/>
<stop offset="1" stop-color="#E38330"/>
</linearGradient>
</defs>
</svg>
