<svg width="60" height="60" viewBox="0 0 60 60" fill="none" xmlns="http://www.w3.org/2000/svg">
<circle cx="30" cy="30" r="30" fill="url(#paint0_linear_5_38350)"/>
<path fill-rule="evenodd" clip-rule="evenodd" d="M25.3322 18.9148H32.9155L38.1655 24.1648V37.5815C38.1655 37.8909 38.0426 38.1876 37.8238 38.4064C37.605 38.6252 37.3083 38.7481 36.9989 38.7481H25.3322C25.0228 38.7481 24.726 38.6252 24.5072 38.4064C24.2884 38.1876 24.1655 37.8909 24.1655 37.5815V20.0815C24.1655 19.772 24.2884 19.4753 24.5072 19.2565C24.726 19.0377 25.0228 18.9148 25.3322 18.9148ZM36.4155 24.1648L32.9155 20.6648V23.5815C32.9155 23.7362 32.977 23.8845 33.0864 23.9939C33.1958 24.1033 33.3442 24.1648 33.4989 24.1648H36.4155ZM35.0779 28.419C35.1873 28.5284 35.2487 28.6768 35.2487 28.8315C35.2487 28.9861 35.1873 29.1345 35.0779 29.2439L29.9989 34.323L27.2531 31.5772C27.1469 31.4672 27.0881 31.3198 27.0894 31.1669C27.0907 31.0139 27.1521 30.8676 27.2602 30.7595C27.3684 30.6513 27.5147 30.59 27.6676 30.5887C27.8206 30.5873 27.9679 30.6461 28.0779 30.7524L29.9989 32.6733L34.2531 28.419C34.3625 28.3097 34.5108 28.2483 34.6655 28.2483C34.8202 28.2483 34.9686 28.3097 35.0779 28.419Z" fill="white"/>
<path d="M22.9989 22.4148H21.8323V38.1648C21.8323 38.9383 22.1396 39.6802 22.6865 40.2272C23.2335 40.7742 23.9754 41.0815 24.7489 41.0815H35.8323V39.9148H24.7489C24.2848 39.9148 23.8397 39.7304 23.5115 39.4022C23.1833 39.074 22.9989 38.6289 22.9989 38.1648V22.4148Z" fill="white"/>
<defs>
<linearGradient id="paint0_linear_5_38350" x1="20" y1="2" x2="42.5" y2="59" gradientUnits="userSpaceOnUse">
<stop stop-color="#F7D344"/>
<stop offset="1" stop-color="#E38330"/>
</linearGradient>
</defs>
</svg>
