<svg width="40" height="40" viewBox="0 0 40 40" fill="none" xmlns="http://www.w3.org/2000/svg">
<circle cx="20" cy="20" r="19.2857" fill="#060606" stroke="url(#paint0_linear_4255_1356)" stroke-width="1.42857"/>
<path d="M16.0009 15.41C18.4089 15.41 20.0329 17.398 20.0329 20.31C20.0329 23.236 18.4089 25.21 16.0009 25.21C13.5929 25.21 11.9689 23.236 11.9689 20.31C11.9689 17.398 13.5929 15.41 16.0009 15.41ZM16.0009 23.46C17.2889 23.46 18.1009 22.172 18.1009 20.31C18.1009 18.448 17.2889 17.16 16.0009 17.16C14.7129 17.16 13.9009 18.448 13.9009 20.31C13.9009 22.172 14.7129 23.46 16.0009 23.46ZM23.4631 18.938H24.8911C26.8091 18.938 28.0971 20.114 28.0971 21.962C28.0971 23.852 26.7391 25.21 24.6391 25.21C22.7631 25.21 21.1531 24.104 21.1531 21.962L22.9871 21.598C22.9871 22.928 23.7571 23.502 24.6811 23.502C25.6331 23.502 26.2771 22.9 26.2771 21.99C26.2771 21.178 25.6611 20.632 24.7511 20.632H21.6151L21.7691 15.62H27.6631V17.342H23.5331L23.4631 18.938Z" fill="url(#paint1_linear_4255_1356)"/>
<defs>
<linearGradient id="paint0_linear_4255_1356" x1="20" y1="0" x2="20" y2="40" gradientUnits="userSpaceOnUse">
<stop stop-color="#39B6D8"/>
<stop offset="0.5" stop-color="#F7D344"/>
<stop offset="1" stop-color="#E38330"/>
</linearGradient>
<linearGradient id="paint1_linear_4255_1356" x1="12.4516" y1="13" x2="29.6691" y2="14.0523" gradientUnits="userSpaceOnUse">
<stop stop-color="#39B6D8"/>
<stop offset="0.5" stop-color="#F7D344"/>
<stop offset="1" stop-color="#E38330"/>
</linearGradient>
</defs>
</svg>
