<svg width="56" height="56" viewBox="0 0 56 56" fill="none" xmlns="http://www.w3.org/2000/svg">
<circle cx="28" cy="28" r="27.6246" stroke="url(#paint0_linear_1483_30099)" stroke-width="0.750863"/>
<g clip-path="url(#clip0_1483_30099)">
<path d="M20.363 24.2783C20.1136 23.2132 20.0979 22.1066 20.3171 21.0348C20.5363 19.9631 20.9852 18.9515 21.6328 18.0698C22.2804 17.1881 23.1114 16.4572 24.0685 15.9274C25.0256 15.3977 26.0862 15.0816 27.1772 15.0009C28.2682 14.9203 29.3637 15.0771 30.3883 15.4604C31.4129 15.8437 32.3423 16.4445 33.1125 17.2214C33.8827 17.9983 34.4753 18.9329 34.8497 19.9608C35.2241 20.9887 35.3713 22.0856 35.2812 23.1758" stroke="#404040" stroke-linecap="round" stroke-linejoin="round"/>
<path d="M20.895 19.3095H22.3289C22.8885 19.3517 23.4145 19.5932 23.8113 19.99C24.2082 20.3869 24.4496 20.9128 24.4919 21.4725V23.4873C24.4919 23.786 24.7579 24.0438 25.0507 24.2772" stroke="#404040" stroke-linecap="round" stroke-linejoin="round"/>
<path d="M29.4571 15.1807C29.4571 15.1807 28.1948 16.1747 27.7328 16.5305C27.3585 16.8189 27.1129 17.2431 27.0492 17.7113C26.9854 18.1794 27.1086 18.6539 27.3921 19.0318L28.4783 20.4808C28.6458 20.7038 28.8628 20.8848 29.1123 21.0096C29.3617 21.1343 29.6368 21.1993 29.9156 21.1995H30.9656C31.2016 21.1993 31.4353 21.2457 31.6533 21.336C31.8714 21.4262 32.0694 21.5587 32.2361 21.7257L33.0656 22.554" stroke="#404040" stroke-linecap="round" stroke-linejoin="round"/>
<path d="M37.7241 36.2938L31.9001 36.7792" stroke="#404040" stroke-linecap="round" stroke-linejoin="round"/>
<path d="M30.8338 29.4175L26.7657 30.7627C26.4507 30.8662 26.1087 30.8502 25.8047 30.7179C25.5008 30.5856 25.2561 30.3462 25.1172 30.0452C24.9678 29.724 24.9491 29.3573 25.0649 29.0226C25.1807 28.6878 25.422 28.4111 25.7378 28.2508L29.6788 26.2675C30.0147 26.0983 30.3817 25.9998 30.7572 25.9781C31.1327 25.9564 31.5086 26.012 31.8617 26.1415L37.695 28.2753" stroke="#404040" stroke-linecap="round" stroke-linejoin="round"/>
<path d="M26.3387 27.9487L25.9187 27.5987C25.5808 27.3511 25.1853 27.1937 24.7697 27.1415C24.3541 27.0892 23.932 27.1438 23.5433 27.3L18.3225 29.3883" stroke="#404040" stroke-linecap="round" stroke-linejoin="round"/>
<path d="M14.8027 27.391H17.15C17.448 27.3784 17.7389 27.4843 17.9589 27.6857C18.1789 27.8872 18.31 28.1676 18.3237 28.4655V35.9929C18.31 36.2909 18.1789 36.5714 17.9589 36.773C17.739 36.9746 17.4481 37.0809 17.15 37.0685H14.8027" stroke="#404040" stroke-linecap="round" stroke-linejoin="round"/>
<path d="M41.1973 37.0685H38.85C38.5519 37.0808 38.261 36.9746 38.0411 36.773C37.8211 36.5714 37.69 36.2909 37.6763 35.9928V28.4667C37.69 28.1687 37.8211 27.8883 38.0411 27.6869C38.2611 27.4855 38.552 27.3795 38.85 27.3922H41.1962" stroke="#404040" stroke-linecap="round" stroke-linejoin="round"/>
<path d="M29.2227 30.3333L32.256 34.4972C32.4433 34.7543 32.5514 35.0605 32.567 35.3783C32.5827 35.696 32.5052 36.0114 32.3442 36.2857C32.1831 36.56 31.9454 36.7813 31.6603 36.9225C31.3752 37.0636 31.0551 37.1184 30.7393 37.0802C30.6635 37.4856 30.4356 37.8467 30.1022 38.0896C29.7689 38.3325 29.3553 38.4388 28.9462 38.3868C28.87 38.7922 28.6421 39.1532 28.3089 39.3963C27.9757 39.6393 27.5622 39.746 27.153 39.6947C27.0913 40.0052 26.9407 40.2912 26.7194 40.5177C26.4982 40.7442 26.2158 40.9015 25.9068 40.9705C25.5978 41.0395 25.2753 41.0171 24.9788 40.9062C24.6822 40.7953 24.4242 40.6005 24.2363 40.3457L21.1762 36.5003C20.9525 36.2162 20.6697 35.9842 20.3473 35.8204C20.025 35.6566 19.6708 35.565 19.3095 35.5518L18.3225 35.5168" stroke="#404040" stroke-linecap="round" stroke-linejoin="round"/>
<path d="M27.1577 39.6923L26.3387 38.6867" stroke="#404040" stroke-linecap="round" stroke-linejoin="round"/>
<path d="M28.9509 38.3845L28.2497 37.4535" stroke="#404040" stroke-linecap="round" stroke-linejoin="round"/>
<path d="M30.744 37.0778L29.9775 36.036" stroke="#404040" stroke-linecap="round" stroke-linejoin="round"/>
</g>
<defs>
<linearGradient id="paint0_linear_1483_30099" x1="28" y1="0" x2="28" y2="56" gradientUnits="userSpaceOnUse">
<stop stop-color="#39B6D8"/>
<stop offset="0.5" stop-color="#F7D344"/>
<stop offset="1" stop-color="#E38330"/>
</linearGradient>
<clipPath id="clip0_1483_30099">
<rect width="28" height="28" fill="white" transform="translate(14 14)"/>
</clipPath>
</defs>
</svg>
