<svg width="56" height="56" viewBox="0 0 56 56" fill="none" xmlns="http://www.w3.org/2000/svg">
<circle cx="28" cy="28" r="27.3333" fill="#F6F6F6" stroke="url(#paint0_linear_74_74616)" stroke-width="1.33333"/>
<path d="M35.7608 19.6797L23.5499 17.5234C23.1581 17.4545 22.7551 17.544 22.4293 17.7722C22.1035 18.0004 21.8817 18.3486 21.8127 18.7403L19.0236 34.5841C18.9895 34.7782 18.994 34.9771 19.0368 35.1694C19.0796 35.3618 19.1598 35.5439 19.273 35.7052C19.3862 35.8665 19.5301 36.004 19.6964 36.1097C19.8627 36.2154 20.0482 36.2873 20.2424 36.3213L32.4533 38.4775C32.6475 38.5117 32.8465 38.5074 33.039 38.4647C33.2314 38.4219 33.4136 38.3417 33.575 38.2285C33.7365 38.1153 33.874 37.9714 33.9798 37.805C34.0855 37.6386 34.1575 37.453 34.1914 37.2588L36.9805 21.415C37.0488 21.0231 36.9587 20.6202 36.73 20.2948C36.5013 19.9694 36.1526 19.7481 35.7608 19.6797ZM32.7121 37L20.5002 34.8438L23.2892 19L35.5002 21.1563L32.7121 37ZM24.3758 21.4769C24.4105 21.2811 24.5216 21.1071 24.6846 20.9932C24.8475 20.8793 25.0491 20.8348 25.2449 20.8694L33.0261 22.2428C33.2111 22.2752 33.3771 22.3758 33.4915 22.5247C33.6058 22.6736 33.6602 22.8599 33.6439 23.047C33.6275 23.234 33.5416 23.4081 33.4031 23.5348C33.2646 23.6616 33.0836 23.7318 32.8958 23.7316C32.8518 23.7315 32.8079 23.7277 32.7646 23.7203L24.9833 22.3459C24.7875 22.3112 24.6136 22.2001 24.4996 22.0372C24.3857 21.8742 24.3412 21.6727 24.3758 21.4769ZM23.8564 24.4319C23.8735 24.3349 23.9096 24.2421 23.9625 24.1591C24.0154 24.076 24.0842 24.0041 24.1649 23.9476C24.2456 23.8911 24.3367 23.8511 24.4329 23.8298C24.529 23.8085 24.6285 23.8063 24.7255 23.8234L32.5067 25.1978C32.693 25.229 32.8606 25.3292 32.9762 25.4785C33.0917 25.6279 33.1467 25.8153 33.1301 26.0034C33.1136 26.1915 33.0267 26.3664 32.8868 26.4932C32.7469 26.62 32.5643 26.6894 32.3755 26.6875C32.3311 26.6876 32.2869 26.6835 32.2433 26.6753L24.4621 25.3019C24.2664 25.2667 24.0928 25.1553 23.9792 24.9922C23.8657 24.8291 23.8215 24.6275 23.8564 24.4319ZM23.3361 27.3859C23.3715 27.1907 23.4828 27.0174 23.6457 26.9041C23.8086 26.7907 24.0098 26.7466 24.2052 26.7813L28.0939 27.4647C28.2788 27.4971 28.4448 27.5976 28.5591 27.7464C28.6735 27.8952 28.7279 28.0814 28.7117 28.2684C28.6955 28.4553 28.6097 28.6294 28.4714 28.7562C28.3331 28.8831 28.1522 28.9534 27.9646 28.9534C27.9206 28.9534 27.8767 28.9497 27.8333 28.9422L23.9427 28.255C23.7471 28.22 23.5733 28.1089 23.4596 27.9459C23.3459 27.783 23.3015 27.5816 23.3361 27.3859Z" fill="black"/>
<defs>
<linearGradient id="paint0_linear_74_74616" x1="28" y1="0" x2="28" y2="56" gradientUnits="userSpaceOnUse">
<stop stop-color="#39B6D8"/>
<stop offset="0.5" stop-color="#F7D344"/>
<stop offset="1" stop-color="#E38330"/>
</linearGradient>
</defs>
</svg>
