<svg width="20" height="20" viewBox="0 0 20 20" fill="none" xmlns="http://www.w3.org/2000/svg">
<path d="M16.9 2.5H3.1C2.76812 2.5 2.5 2.76812 2.5 3.1V16.9C2.5 17.2319 2.76812 17.5 3.1 17.5H16.9C17.2319 17.5 17.5 17.2319 17.5 16.9V3.1C17.5 2.76812 17.2319 2.5 16.9 2.5ZM6.94937 15.2819H4.72375V8.12312H6.94937V15.2819ZM5.8375 7.14437C5.58236 7.14437 5.33295 7.06872 5.12081 6.92697C4.90867 6.78522 4.74333 6.58375 4.6457 6.34804C4.54806 6.11232 4.52251 5.85294 4.57229 5.60271C4.62206 5.35247 4.74492 5.12262 4.92533 4.94221C5.10574 4.7618 5.3356 4.63894 5.58583 4.58916C5.83607 4.53939 6.09544 4.56493 6.33116 4.66257C6.56688 4.76021 6.76835 4.92555 6.9101 5.13769C7.05184 5.34983 7.1275 5.59924 7.1275 5.85437C7.12562 6.56687 6.54812 7.14437 5.8375 7.14437ZM15.2819 15.2819H13.0581V11.8C13.0581 10.9694 13.0431 9.9025 11.9012 9.9025C10.7444 9.9025 10.5662 10.8062 10.5662 11.74V15.2819H8.34437V8.12312H10.4781V9.10187H10.5081C10.8044 8.53937 11.53 7.945 12.6137 7.945C14.8675 7.945 15.2819 9.42812 15.2819 11.3556V15.2819Z" fill="#060606"/>
</svg>
