<svg width="24" height="24" viewBox="0 0 24 24" fill="none" xmlns="http://www.w3.org/2000/svg">
<path d="M18 2.25C17.8011 2.25 17.6103 2.32902 17.4697 2.46967C17.329 2.61032 17.25 2.80109 17.25 3V6H6.75V3C6.75 2.80109 6.67098 2.61032 6.53033 2.46967C6.38968 2.32902 6.19891 2.25 6 2.25C5.80109 2.25 5.61032 2.32902 5.46967 2.46967C5.32902 2.61032 5.25 2.80109 5.25 3V21C5.25 21.1989 5.32902 21.3897 5.46967 21.5303C5.61032 21.671 5.80109 21.75 6 21.75C6.19891 21.75 6.38968 21.671 6.53033 21.5303C6.67098 21.3897 6.75 21.1989 6.75 21V18H17.25V21C17.25 21.1989 17.329 21.3897 17.4697 21.5303C17.6103 21.671 17.8011 21.75 18 21.75C18.1989 21.75 18.3897 21.671 18.5303 21.5303C18.671 21.3897 18.75 21.1989 18.75 21V3C18.75 2.80109 18.671 2.61032 18.5303 2.46967C18.3897 2.32902 18.1989 2.25 18 2.25ZM17.25 7.5V11.25H6.75V7.5H17.25ZM6.75 16.5V12.75H17.25V16.5H6.75Z" fill="url(#paint0_linear_4_110186)"/>
<defs>
<linearGradient id="paint0_linear_4_110186" x1="12" y1="2.25" x2="12" y2="21.75" gradientUnits="userSpaceOnUse">
<stop stop-color="#39B6D8"/>
<stop offset="0.5" stop-color="#F7D344"/>
<stop offset="1" stop-color="#E38330"/>
</linearGradient>
</defs>
</svg>
