<svg width="24" height="24" viewBox="0 0 24 24" fill="none" xmlns="http://www.w3.org/2000/svg">
<path d="M20.25 3.75H3.75C3.35218 3.75 2.97064 3.90804 2.68934 4.18934C2.40804 4.47064 2.25 4.85218 2.25 5.25V20.25C2.25007 20.3778 2.28281 20.5035 2.34511 20.6151C2.40741 20.7268 2.49721 20.8206 2.60597 20.8878C2.71474 20.9549 2.83887 20.9932 2.96657 20.9989C3.09427 21.0046 3.22131 20.9775 3.33563 20.9203L6 19.5881L8.66437 20.9203C8.76857 20.9725 8.88348 20.9996 9 20.9996C9.11652 20.9996 9.23143 20.9725 9.33563 20.9203L12 19.5881L14.6644 20.9203C14.7686 20.9725 14.8835 20.9996 15 20.9996C15.1165 20.9996 15.2314 20.9725 15.3356 20.9203L18 19.5881L20.6644 20.9203C20.7787 20.9775 20.9057 21.0046 21.0334 20.9989C21.1611 20.9932 21.2853 20.9549 21.394 20.8878C21.5028 20.8206 21.5926 20.7268 21.6549 20.6151C21.7172 20.5035 21.7499 20.3778 21.75 20.25V5.25C21.75 4.85218 21.592 4.47064 21.3107 4.18934C21.0294 3.90804 20.6478 3.75 20.25 3.75ZM20.25 19.0369L18.3356 18.0787C18.2314 18.0266 18.1165 17.9995 18 17.9995C17.8835 17.9995 17.7686 18.0266 17.6644 18.0787L15 19.4119L12.3356 18.0787C12.2314 18.0266 12.1165 17.9995 12 17.9995C11.8835 17.9995 11.7686 18.0266 11.6644 18.0787L9 19.4119L6.33563 18.0787C6.23143 18.0266 6.11651 17.9995 6 17.9995C5.88349 17.9995 5.76857 18.0266 5.66437 18.0787L3.75 19.0369V5.25H20.25V19.0369ZM12.75 10.5C12.75 10.3011 12.829 10.1103 12.9697 9.96967C13.1103 9.82902 13.3011 9.75 13.5 9.75H18C18.1989 9.75 18.3897 9.82902 18.5303 9.96967C18.671 10.1103 18.75 10.3011 18.75 10.5C18.75 10.6989 18.671 10.8897 18.5303 11.0303C18.3897 11.171 18.1989 11.25 18 11.25H13.5C13.3011 11.25 13.1103 11.171 12.9697 11.0303C12.829 10.8897 12.75 10.6989 12.75 10.5ZM12.75 13.5C12.75 13.3011 12.829 13.1103 12.9697 12.9697C13.1103 12.829 13.3011 12.75 13.5 12.75H18C18.1989 12.75 18.3897 12.829 18.5303 12.9697C18.671 13.1103 18.75 13.3011 18.75 13.5C18.75 13.6989 18.671 13.8897 18.5303 14.0303C18.3897 14.171 18.1989 14.25 18 14.25H13.5C13.3011 14.25 13.1103 14.171 12.9697 14.0303C12.829 13.8897 12.75 13.6989 12.75 13.5ZM6 15.75H10.5C10.6989 15.75 10.8897 15.671 11.0303 15.5303C11.171 15.3897 11.25 15.1989 11.25 15V9C11.25 8.80109 11.171 8.61032 11.0303 8.46967C10.8897 8.32902 10.6989 8.25 10.5 8.25H6C5.80109 8.25 5.61032 8.32902 5.46967 8.46967C5.32902 8.61032 5.25 8.80109 5.25 9V15C5.25 15.1989 5.32902 15.3897 5.46967 15.5303C5.61032 15.671 5.80109 15.75 6 15.75ZM6.75 9.75H9.75V14.25H6.75V9.75Z" fill="url(#paint0_linear_4_49150)"/>
<defs>
<linearGradient id="paint0_linear_4_49150" x1="12" y1="3.75" x2="12" y2="20.9996" gradientUnits="userSpaceOnUse">
<stop stop-color="#39B6D8"/>
<stop offset="0.5" stop-color="#F7D344"/>
<stop offset="1" stop-color="#E38330"/>
</linearGradient>
</defs>
</svg>
