<svg width="56" height="56" viewBox="0 0 56 56" fill="none" xmlns="http://www.w3.org/2000/svg">
<circle cx="28" cy="28" r="27.2857" fill="#060606" stroke="url(#paint0_linear_5_340815)" stroke-width="1.42857"/>
<path d="M22.2186 19.56C26.3466 19.56 29.1306 22.968 29.1306 27.96C29.1306 32.976 26.3466 36.36 22.2186 36.36C18.0906 36.36 15.3066 32.976 15.3066 27.96C15.3066 22.968 18.0906 19.56 22.2186 19.56ZM22.2186 33.36C24.4266 33.36 25.8186 31.152 25.8186 27.96C25.8186 24.768 24.4266 22.56 22.2186 22.56C20.0106 22.56 18.6186 24.768 18.6186 27.96C18.6186 31.152 20.0106 33.36 22.2186 33.36ZM41.9229 33.048V36H30.9789V33.888L36.4029 28.512C37.3869 27.528 38.6829 26.448 38.6829 24.648C38.6829 23.304 37.6989 22.368 36.3069 22.368C34.7469 22.368 33.8109 23.28 33.6669 25.32L30.6909 24.696C30.8349 21.528 33.0909 19.56 36.3549 19.56C39.5949 19.56 41.8269 21.6 41.8269 24.576C41.8269 26.808 40.6749 28.32 38.3229 30.624L35.8509 33.048H41.9229Z" fill="url(#paint1_linear_5_340815)"/>
<defs>
<linearGradient id="paint0_linear_5_340815" x1="28" y1="0" x2="28" y2="56" gradientUnits="userSpaceOnUse">
<stop stop-color="#39B6D8"/>
<stop offset="0.5" stop-color="#F7D344"/>
<stop offset="1" stop-color="#E38330"/>
</linearGradient>
<linearGradient id="paint1_linear_5_340815" x1="16.3387" y1="21" x2="43.9143" y2="23.7154" gradientUnits="userSpaceOnUse">
<stop stop-color="#39B6D8"/>
<stop offset="0.5" stop-color="#F7D344"/>
<stop offset="1" stop-color="#E38330"/>
</linearGradient>
</defs>
</svg>
