<svg width="18" height="18" viewBox="0 0 18 18" fill="none" xmlns="http://www.w3.org/2000/svg">
<path d="M9.56255 5.62501V8.68149L12.1022 10.2052C12.2302 10.282 12.3223 10.4065 12.3585 10.5513C12.3946 10.6961 12.3717 10.8493 12.2949 10.9772C12.2181 11.1051 12.0936 11.1973 11.9488 11.2334C11.804 11.2695 11.6508 11.2467 11.5229 11.1699L8.71037 9.48235C8.62713 9.43234 8.55825 9.36163 8.51044 9.27711C8.46263 9.19258 8.43752 9.09712 8.43755 9.00001V5.62501C8.43755 5.47582 8.49682 5.33275 8.60231 5.22726C8.7078 5.12177 8.85087 5.06251 9.00005 5.06251C9.14924 5.06251 9.29231 5.12177 9.3978 5.22726C9.50329 5.33275 9.56255 5.47582 9.56255 5.62501ZM15.7501 3.93751C15.6009 3.93751 15.4578 3.99677 15.3523 4.10226C15.2468 4.20775 15.1876 4.35082 15.1876 4.50001V5.76563C14.7411 5.24813 14.2854 4.74962 13.7729 4.23071C12.8348 3.29254 11.6411 2.6516 10.3408 2.388C9.04054 2.1244 7.69143 2.24981 6.46204 2.74857C5.23266 3.24733 4.17751 4.09732 3.42845 5.19234C2.67938 6.28735 2.26961 7.57882 2.25035 8.90539C2.23108 10.232 2.60316 11.5348 3.32011 12.6511C4.03706 13.7674 5.06708 14.6477 6.28146 15.1819C7.49584 15.7162 8.84074 15.8807 10.1481 15.655C11.4555 15.4293 12.6673 14.8233 13.6322 13.9127C13.686 13.862 13.7292 13.8011 13.7594 13.7336C13.7896 13.6661 13.8062 13.5933 13.8083 13.5194C13.8104 13.4455 13.7979 13.3719 13.7716 13.3028C13.7452 13.2338 13.7055 13.1705 13.6547 13.1168C13.604 13.0631 13.5431 13.0199 13.4756 12.9896C13.4081 12.9594 13.3353 12.9428 13.2614 12.9407C13.1875 12.9386 13.1139 12.9511 13.0448 12.9775C12.9758 13.0038 12.9125 13.0435 12.8588 13.0943C12.0545 13.8523 11.0446 14.3566 9.95541 14.5441C8.86619 14.7317 7.74585 14.5942 6.73431 14.1488C5.72277 13.7034 4.86485 12.9699 4.26768 12.0399C3.67051 11.1099 3.36056 10.0245 3.37654 8.91939C3.39252 7.81426 3.73371 6.73833 4.35751 5.82594C4.98131 4.91356 5.86008 4.20517 6.88407 3.78923C7.90806 3.37329 9.0319 3.26823 10.1152 3.48717C11.1986 3.70612 12.1934 4.23936 12.9755 5.02032C13.5479 5.5997 14.0492 6.15798 14.5547 6.75001H12.9376C12.7884 6.75001 12.6453 6.80927 12.5398 6.91476C12.4343 7.02025 12.3751 7.16332 12.3751 7.31251C12.3751 7.46169 12.4343 7.60477 12.5398 7.71026C12.6453 7.81575 12.7884 7.87501 12.9376 7.87501H15.7501C15.8992 7.87501 16.0423 7.81575 16.1478 7.71026C16.2533 7.60477 16.3126 7.46169 16.3126 7.31251V4.50001C16.3126 4.35082 16.2533 4.20775 16.1478 4.10226C16.0423 3.99677 15.8992 3.93751 15.7501 3.93751Z" fill="url(#paint0_linear_3181_12807)"/>
<defs>
<linearGradient id="paint0_linear_3181_12807" x1="1.70876" y1="7.11108" x2="16.8533" y2="7.11108" gradientUnits="userSpaceOnUse">
<stop stop-color="#39B6D8"/>
<stop offset="0.5" stop-color="#F7D344"/>
<stop offset="1" stop-color="#E38330"/>
</linearGradient>
</defs>
</svg>
