<svg width="56" height="56" viewBox="0 0 56 56" fill="none" xmlns="http://www.w3.org/2000/svg">
<circle cx="28" cy="28" r="27.6246" stroke="url(#paint0_linear_7871_4594)" stroke-width="0.750863"/>
<path d="M41.7165 26.9269C41.6267 26.8443 41.5201 26.7787 41.4028 26.734C41.2854 26.6893 41.1596 26.6662 41.0326 26.6662C40.9056 26.6662 40.7798 26.6893 40.6625 26.734C40.5451 26.7787 40.4385 26.8443 40.3487 26.9269L34.2663 32.5213L24.0334 23.1115L30.1171 17.5182C30.2069 17.4357 30.2781 17.3376 30.3267 17.2297C30.3753 17.1218 30.4003 17.0062 30.4003 16.8894C30.4003 16.7726 30.3753 16.6569 30.3267 16.549C30.2781 16.4411 30.2069 16.3431 30.1171 16.2605C30.0272 16.1779 29.9206 16.1124 29.8033 16.0677C29.6859 16.023 29.5602 16 29.4332 16C29.3062 16 29.1804 16.023 29.0631 16.0677C28.9457 16.1124 28.8391 16.1779 28.7493 16.2605L22.6668 21.8548C22.3744 22.1238 22.1834 22.472 22.1221 22.8482C22.0608 23.2244 22.1323 23.6087 22.3261 23.9448L19.767 26.2992C19.4047 26.6325 19.2012 27.0845 19.2012 27.5558C19.2012 28.0271 19.4047 28.4791 19.767 28.8125L20.3336 29.3336L13.2834 35.8156C13.1668 35.9228 13.0819 36.0556 13.0368 36.2014C12.9918 36.3472 12.988 36.5012 13.0259 36.6487C13.0638 36.7963 13.1421 36.9324 13.2533 37.0443C13.3646 37.1562 13.5051 37.24 13.6616 37.2878L22.3611 39.9544C22.4596 39.9849 22.5629 40.0003 22.6668 40C22.7938 40.0001 22.9196 39.9772 23.0369 39.9326C23.1542 39.888 23.2609 39.8225 23.3507 39.74L27.4999 35.9234L28.0666 36.4445C28.4291 36.7777 28.9207 36.9648 29.4332 36.9648C29.9457 36.9648 30.4372 36.7777 30.7997 36.4445L33.3601 34.0912C33.7255 34.2695 34.1435 34.3352 34.5526 34.2788C34.9617 34.2224 35.3403 34.0469 35.6328 33.7779L41.7165 28.1847C41.8064 28.1021 41.8777 28.0041 41.9263 27.8962C41.975 27.7883 42 27.6726 42 27.5558C42 27.439 41.975 27.3233 41.9263 27.2154C41.8777 27.1075 41.8064 27.0095 41.7165 26.9269ZM22.4058 38.0945L15.7603 36.0556L21.7002 30.5902L26.1334 34.6668L22.4058 38.0945ZM29.4332 35.1879L21.1335 27.5558L23.6334 25.257L31.9331 32.889L29.4332 35.1879Z" fill="black"/>
<defs>
<linearGradient id="paint0_linear_7871_4594" x1="28" y1="0" x2="28" y2="56" gradientUnits="userSpaceOnUse">
<stop stop-color="#39B6D8"/>
<stop offset="0.5" stop-color="#F7D344"/>
<stop offset="1" stop-color="#E38330"/>
</linearGradient>
</defs>
</svg>
