<svg width="200" height="35" viewBox="0 0 200 35" fill="none" xmlns="http://www.w3.org/2000/svg">
<g clip-path="url(#clip0_7271_3361)">
<path d="M29.8411 9.10938H17.1221V31.9603H29.8411V9.10938Z" fill="#818181"/>
<path d="M17.9685 20.5346C17.9685 15.892 20.151 11.7715 23.5001 9.10919C21.0353 7.17124 17.9261 6 14.5347 6C6.50063 6 0 12.5006 0 20.5346C0 28.5687 6.50063 35.0693 14.5347 35.0693C17.9261 35.0693 21.0353 33.898 23.5001 31.9601C20.1463 29.3354 17.9685 25.1772 17.9685 20.5346Z" fill="#3C3C3C"/>
<path d="M47.0001 20.5346C47.0001 28.5687 40.4995 35.0693 32.4654 35.0693C29.074 35.0693 25.9648 33.898 23.5 31.9601C26.8914 29.293 29.0316 25.1772 29.0316 20.5346C29.0316 15.892 26.8491 11.7715 23.5 9.10919C25.9601 7.17124 29.0693 6 32.4607 6C40.4995 6 47.0001 12.5429 47.0001 20.5346Z" fill="#747474"/>
<path d="M68.7515 27.7961V21.6178C68.7515 19.2545 67.3119 17.7069 64.8406 17.7069C63.605 17.7069 62.2614 18.1148 61.3376 19.4584C60.6178 18.3308 59.5861 17.7069 58.0386 17.7069C57.0069 17.7069 55.9752 18.0189 55.1594 19.1465V17.9109H53V27.7961H55.1594V22.3376C55.1594 20.5861 56.0831 19.7584 57.5227 19.7584C58.9623 19.7584 59.6821 20.6821 59.6821 22.3376V27.7961H61.8415V22.3376C61.8415 20.5861 62.8732 19.7584 64.2048 19.7584C65.6444 19.7584 66.3642 20.6821 66.3642 22.3376V27.7961H68.7515ZM100.782 17.9109H97.2793V14.9237H95.12V17.9109H93.1645V19.8663H95.12V24.401C95.12 26.6684 96.0437 28 98.515 28C99.4387 28 100.47 27.6881 101.19 27.2802L100.566 25.4207C99.9426 25.8286 99.2228 25.9366 98.7069 25.9366C97.6752 25.9366 97.2673 25.3128 97.2673 24.2931V19.8663H100.77V17.9109H100.782ZM119.113 17.6949C117.877 17.6949 117.05 18.3188 116.534 19.1345V17.8989H114.374V27.7841H116.534V22.2177C116.534 20.5741 117.254 19.6384 118.597 19.6384C119.005 19.6384 119.521 19.7464 119.941 19.8423L120.565 17.7789C120.133 17.6949 119.521 17.6949 119.113 17.6949ZM91.413 18.7267C90.3813 18.0069 88.9417 17.6949 87.3942 17.6949C84.9229 17.6949 83.2793 18.9306 83.2793 20.886C83.2793 22.5296 84.515 23.4653 86.6744 23.7652L87.7061 23.8732C88.8338 24.0771 89.4576 24.389 89.4576 24.9049C89.4576 25.6247 88.6298 26.1405 87.1902 26.1405C85.7506 26.1405 84.611 25.6247 83.8912 25.1088L82.8595 26.7524C83.9871 27.5801 85.5347 27.988 87.0823 27.988C89.9614 27.988 91.617 26.6444 91.617 24.7969C91.617 23.0454 90.2733 22.1217 88.2219 21.8098L87.1902 21.7018C86.2665 21.5938 85.5467 21.3899 85.5467 20.7781C85.5467 20.0583 86.2665 19.6504 87.4062 19.6504C88.6418 19.6504 89.8775 20.1662 90.5013 20.4781L91.413 18.7267ZM148.865 17.6949C147.629 17.6949 146.801 18.3188 146.285 19.1345V17.8989H144.126V27.7841H146.285V22.2177C146.285 20.5741 147.005 19.6384 148.349 19.6384C148.757 19.6384 149.272 19.7464 149.692 19.8423L150.316 17.8029C149.896 17.6949 149.284 17.6949 148.865 17.6949ZM121.272 22.8535C121.272 25.8406 123.336 28 126.527 28C127.967 28 128.998 27.6881 130.03 26.8723L128.998 25.1208C128.171 25.7446 127.355 26.0446 126.419 26.0446C124.668 26.0446 123.432 24.8089 123.432 22.8535C123.432 20.994 124.668 19.7584 126.419 19.6624C127.343 19.6624 128.171 19.9743 128.998 20.5861L130.03 18.8346C128.998 18.0069 127.967 17.7069 126.527 17.7069C123.336 17.6949 121.272 19.8663 121.272 22.8535ZM141.247 22.8535V17.9109H139.087V19.1465C138.368 18.2228 137.336 17.7069 135.992 17.7069C133.209 17.7069 131.05 19.8663 131.05 22.8535C131.05 25.8406 133.209 28 135.992 28C137.432 28 138.464 27.4841 139.087 26.5604V27.7961H141.247V22.8535ZM133.317 22.8535C133.317 21.102 134.445 19.6624 136.304 19.6624C138.056 19.6624 139.291 21.006 139.291 22.8535C139.291 24.605 138.056 26.0446 136.304 26.0446C134.457 25.9366 133.317 24.593 133.317 22.8535ZM107.476 17.6949C104.597 17.6949 102.534 19.7584 102.534 22.8415C102.534 25.9366 104.597 27.988 107.584 27.988C109.024 27.988 110.464 27.5801 111.603 26.6444L110.572 25.0968C109.744 25.7206 108.712 26.1285 107.692 26.1285C106.349 26.1285 105.017 25.5047 104.705 23.7652H112.011C112.011 23.4533 112.011 23.2494 112.011 22.9374C112.107 19.7584 110.248 17.6949 107.476 17.6949ZM107.476 19.5544C108.82 19.5544 109.744 20.3822 109.948 21.9177H104.801C105.005 20.5861 105.929 19.5544 107.476 19.5544ZM161.125 22.8535V14H158.966V19.1465C158.246 18.2228 157.214 17.7069 155.871 17.7069C153.087 17.7069 150.928 19.8663 150.928 22.8535C150.928 25.8406 153.087 28 155.871 28C157.31 28 158.342 27.4841 158.966 26.5604V27.7961H161.125V22.8535ZM153.195 22.8535C153.195 21.102 154.323 19.6624 156.183 19.6624C157.934 19.6624 159.17 21.006 159.17 22.8535C159.17 24.605 157.934 26.0446 156.183 26.0446C154.323 25.9366 153.195 24.593 153.195 22.8535ZM80.904 22.8535V17.9109H78.7446V19.1465C78.0248 18.2228 76.9931 17.7069 75.6495 17.7069C72.8663 17.7069 70.7069 19.8663 70.7069 22.8535C70.7069 25.8406 72.8663 28 75.6495 28C77.0891 28 78.1208 27.4841 78.7446 26.5604V27.7961H80.904V22.8535ZM72.8783 22.8535C72.8783 21.102 74.006 19.6624 75.8655 19.6624C77.617 19.6624 78.8526 21.006 78.8526 22.8535C78.8526 24.605 77.617 26.0446 75.8655 26.0446C74.006 25.9366 72.8783 24.593 72.8783 22.8535Z" fill="white"/>
</g>
<defs>
<clipPath id="clip0_7271_3361">
<rect width="200" height="35" fill="white"/>
</clipPath>
</defs>
</svg>
