<svg width="200" height="35" viewBox="0 0 200 35" fill="none" xmlns="http://www.w3.org/2000/svg">
<g style="mix-blend-mode:luminosity">
<path d="M9.06002 28.7508C9.22323 29.1724 9.17148 29.7125 9.09187 30.0399C8.95254 30.621 8.57038 31.2144 7.43984 31.2144C6.38095 31.2144 5.73607 30.5842 5.73607 29.6348V27.9447H1.18604V29.2869C1.18604 33.1746 4.15968 34.3491 7.34828 34.3491C10.4135 34.3491 12.9373 33.277 13.3394 30.3673C13.5464 28.8613 13.3951 27.8751 13.3234 27.5109C12.6069 23.8605 6.17395 22.772 5.69228 20.7299C5.6254 20.4287 5.61983 20.1165 5.67636 19.8132C5.79578 19.2526 6.16599 18.6428 7.22488 18.6428C8.22008 18.6428 8.79729 19.273 8.79729 20.2225V21.3028H13.0289V20.0751C13.0289 16.2775 9.71287 15.6841 7.31644 15.6841C4.29901 15.6841 1.8349 16.7113 1.38507 19.5554C1.26565 20.333 1.24575 21.0286 1.42488 21.9044C2.16133 25.4647 8.18425 26.496 9.06002 28.7508Z" fill="white"/>
<path d="M19.3382 16.2404L16.1934 33.6696H20.7752L23.096 17.8528H23.1916L25.4487 33.6696H30.0067L26.8818 16.2363L19.3382 16.2404ZM44.9545 16.2404L42.8646 29.565H42.7651L40.6791 16.2404H33.7645L33.3903 33.6696H37.6338L37.7374 18.0001H37.8329L40.6632 33.6696H44.9664L47.8008 18.0042H47.8923L47.9998 33.6696H52.2393L51.8651 16.2363L44.9545 16.2404Z" fill="white"/>
<path d="M64.1821 28.7181C64.3453 29.1396 64.2936 29.6798 64.2139 30.0072C64.0746 30.5883 63.6925 31.1817 62.5619 31.1817C61.503 31.1817 60.8581 30.5515 60.8581 29.6021V27.9119H56.3081V29.2542C56.3081 33.1419 59.2817 34.3164 62.4704 34.3164C65.5356 34.3164 68.0594 33.2442 68.4614 30.3346C68.6684 28.8286 68.5172 27.8424 68.4455 27.4782C67.729 23.8278 61.296 22.7393 60.8144 20.6972C60.7475 20.396 60.7419 20.0838 60.7984 19.7805C60.9179 19.2199 61.2881 18.6101 62.347 18.6101C63.3421 18.6101 63.9194 19.2403 63.9194 20.1897V21.2701H68.1509V20.0424C68.1509 16.2448 64.8349 15.6514 62.4385 15.6514C59.4211 15.6514 56.957 16.6785 56.5071 19.5227C56.3877 20.3002 56.3678 20.9959 56.547 21.8717C57.2834 25.432 63.3063 26.4633 64.1821 28.7181Z" fill="white"/>
<path d="M78.4132 31.0591C79.5915 31.0591 79.9537 30.2243 80.0373 29.7987C80.0732 29.6104 80.0771 29.3567 80.0771 29.1316V16.2408H84.3684V28.7347C84.3692 29.1169 84.3561 29.4991 84.3286 29.8805C84.0301 33.1339 81.5301 34.1897 78.4132 34.1897C75.2923 34.1897 72.7923 33.1339 72.4938 29.8805C72.4818 29.7086 72.45 29.0539 72.454 28.7347V16.2367H76.7452V29.1275C76.7413 29.3567 76.7492 29.6104 76.785 29.7987C76.8647 30.2243 77.2309 31.0591 78.4132 31.0591ZM99.1451 16.2408L99.376 29.9214H99.2844L95.3833 16.2408H89.0936V33.4858H93.2615L93.0306 19.3305H93.1222L97.306 33.4858H103.345V16.2408H99.1451ZM113.774 30.879C115.001 30.879 115.43 30.081 115.506 29.6104C115.542 29.4181 115.546 29.1725 115.546 28.9557V26.4184H113.806V23.8812H119.813V28.5546C119.813 28.882 119.805 29.1193 119.754 29.7005C119.475 32.8761 116.796 34.0097 113.79 34.0097C110.785 34.0097 108.11 32.8761 107.827 29.7005C107.779 29.1193 107.767 28.882 107.767 28.5546V21.2212C107.767 20.9102 107.807 20.3618 107.839 20.0753C108.217 16.8137 110.785 15.7661 113.79 15.7661C116.796 15.7661 119.431 16.8056 119.742 20.0712C119.797 20.6278 119.781 21.2171 119.781 21.2171V21.8023H115.506V20.8242C115.506 20.8242 115.506 20.415 115.454 20.1613C115.375 19.7766 115.056 18.8926 113.759 18.8926C112.525 18.8926 112.162 19.7316 112.071 20.1613C112.019 20.3904 111.999 20.7014 111.999 20.9838V28.9516C111.999 29.1725 112.007 29.4181 112.039 29.6145C112.118 30.081 112.548 30.879 113.774 30.879Z" fill="white"/>
</g>
</svg>
