<svg width="18" height="18" viewBox="0 0 18 18" fill="none" xmlns="http://www.w3.org/2000/svg">
<g id="ClockCounterClockwise">
<path id="Vector" d="M9.5625 5.62502V8.68151L12.1022 10.2052C12.2301 10.282 12.3223 10.4065 12.3584 10.5513C12.3945 10.6961 12.3717 10.8493 12.2948 10.9772C12.218 11.1051 12.0935 11.1973 11.9487 11.2334C11.8039 11.2696 11.6507 11.2467 11.5228 11.1699L8.71031 9.48236C8.62707 9.43235 8.5582 9.36164 8.51039 9.27712C8.46258 9.19259 8.43747 9.09713 8.4375 9.00002V5.62502C8.4375 5.47584 8.49676 5.33276 8.60225 5.22727C8.70774 5.12178 8.85082 5.06252 9 5.06252C9.14918 5.06252 9.29226 5.12178 9.39775 5.22727C9.50324 5.33276 9.5625 5.47584 9.5625 5.62502ZM9 2.25002C8.11265 2.24781 7.23368 2.42161 6.41395 2.76135C5.59421 3.1011 4.85 3.60004 4.22438 4.22932C3.7132 4.74682 3.25898 5.24463 2.8125 5.76565V4.50002C2.8125 4.35084 2.75324 4.20776 2.64775 4.10227C2.54226 3.99678 2.39918 3.93752 2.25 3.93752C2.10082 3.93752 1.95774 3.99678 1.85225 4.10227C1.74676 4.20776 1.6875 4.35084 1.6875 4.50002V7.31252C1.6875 7.46171 1.74676 7.60478 1.85225 7.71027C1.95774 7.81576 2.10082 7.87502 2.25 7.87502H5.0625C5.21168 7.87502 5.35476 7.81576 5.46025 7.71027C5.56574 7.60478 5.625 7.46171 5.625 7.31252C5.625 7.16334 5.56574 7.02026 5.46025 6.91477C5.35476 6.80928 5.21168 6.75002 5.0625 6.75002H3.44531C3.94805 6.15799 4.44867 5.60041 5.01961 5.02244C5.80138 4.24067 6.7962 3.70662 7.87976 3.48701C8.96332 3.26741 10.0876 3.37198 11.112 3.78767C12.1365 4.20337 13.0157 4.91175 13.6399 5.82429C14.2641 6.73684 14.6055 7.81309 14.6215 8.91856C14.6375 10.024 14.3273 11.1097 13.7298 12.0399C13.1323 12.9702 12.2739 13.7037 11.2619 14.1488C10.2499 14.594 9.12915 14.731 8.0397 14.5429C6.95024 14.3547 5.94039 13.8496 5.13633 13.0908C5.08259 13.04 5.01937 13.0003 4.95029 12.974C4.88121 12.9476 4.80761 12.9351 4.7337 12.9372C4.65979 12.9393 4.58702 12.9559 4.51953 12.9861C4.45205 13.0164 4.39118 13.0596 4.34039 13.1133C4.28961 13.167 4.2499 13.2303 4.22355 13.2993C4.1972 13.3684 4.18471 13.442 4.1868 13.5159C4.18889 13.5898 4.20551 13.6626 4.23573 13.7301C4.26594 13.7976 4.30915 13.8585 4.36289 13.9092C5.16407 14.6653 6.13811 15.2138 7.2 15.5068C8.2619 15.7998 9.37938 15.8285 10.4549 15.5904C11.5304 15.3522 12.5314 14.8545 13.3703 14.1405C14.2092 13.4266 14.8606 12.5182 15.2677 11.4946C15.6748 10.471 15.8252 9.36329 15.7058 8.2682C15.5864 7.1731 15.2008 6.12388 14.5826 5.2121C13.9644 4.30032 13.1324 3.55369 12.1594 3.03737C11.1863 2.52105 10.1016 2.25074 9 2.25002Z" fill="url(#paint0_linear_3181_12524)"/>
</g>
<defs>
<linearGradient id="paint0_linear_3181_12524" x1="1.14681" y1="7.10766" x2="16.2862" y2="7.10766" gradientUnits="userSpaceOnUse">
<stop stop-color="#39B6D8"/>
<stop offset="0.5" stop-color="#F7D344"/>
<stop offset="1" stop-color="#E38330"/>
</linearGradient>
</defs>
</svg>
