<svg width="52" height="52" viewBox="0 0 52 52" fill="none" xmlns="http://www.w3.org/2000/svg">
<rect x="0.75" y="0.75" width="50.5" height="50.5" rx="25.25" stroke="#404040" stroke-width="1.5"/>
<path d="M33.5 17.75H18.5C18.1022 17.75 17.7206 17.908 17.4393 18.1893C17.158 18.4706 17 18.8522 17 19.25V24.5C17 29.4425 19.3925 32.4378 21.3997 34.0803C23.5616 35.8484 25.7122 36.4494 25.8059 36.4738C25.9348 36.5088 26.0708 36.5088 26.1997 36.4738C26.2934 36.4494 28.4413 35.8484 30.6059 34.0803C32.6075 32.4378 35 29.4425 35 24.5V19.25C35 18.8522 34.842 18.4706 34.5607 18.1893C34.2794 17.908 33.8978 17.75 33.5 17.75ZM33.5 24.5C33.5 27.9753 32.2194 30.7963 29.6938 32.8831C28.5943 33.7885 27.344 34.493 26 34.9644C24.6736 34.5012 23.4387 33.8092 22.3513 32.9197C19.7956 30.8291 18.5 27.9969 18.5 24.5V19.25H33.5V24.5Z" fill="white"/>
</svg>
