<svg width="22" height="22" viewBox="0 0 22 22" fill="none" xmlns="http://www.w3.org/2000/svg">
<g clip-path="url(#clip0_10593_3269)">
<path d="M16.0831 5.06611L3.4375 17.6676L4.32808 18.5625L16.9737 5.96104L16.0831 5.06611Z" fill="#090909"/>
<path d="M17.2247 15.8021C14.6247 12.4931 14.4228 7.76954 16.846 4.32159C16.7955 4.27107 17.6412 5.16779 17.6285 5.15516C14.2335 7.52957 9.50055 7.31486 6.24431 4.71311L7.39283 3.4375C9.75297 6.17818 14.1073 6.25395 16.9596 4.19529C16.947 4.19529 17.8052 5.06675 17.7421 5.02886C15.3189 7.6685 15.5965 12.4047 18.5625 14.4886L17.212 15.8147L17.2247 15.8021Z" fill="#090909"/>
<path d="M-1.91691 23.0661L-14.5625 35.6676L-13.6719 36.5625L-1.02633 23.961L-1.91691 23.0661Z" fill="#090909"/>
<path d="M-0.775336 33.8021C-3.37528 30.4931 -3.57722 25.7695 -1.15397 22.3216C-1.20445 22.2711 -0.358841 23.1678 -0.371462 23.1552C-3.76654 25.5296 -8.49945 25.3149 -11.7557 22.7131L-10.6072 21.4375C-8.24703 24.1782 -3.89275 24.254 -1.04038 22.1953C-1.053 22.1953 -0.194766 23.0667 -0.257872 23.0289C-2.68112 25.6685 -2.40346 30.4047 0.5625 32.4886L-0.787959 33.8147L-0.775336 33.8021Z" fill="#090909"/>
</g>
<defs>
<clipPath id="clip0_10593_3269">
<rect width="22" height="22" fill="white"/>
</clipPath>
</defs>
</svg>
