<svg width="13" height="14" viewBox="0 0 13 14" fill="none" xmlns="http://www.w3.org/2000/svg">
<path d="M6.5 0.5C5.21442 0.5 3.95772 0.881218 2.8888 1.59545C1.81988 2.30968 0.986756 3.32484 0.494786 4.51256C0.00281635 5.70028 -0.125905 7.00721 0.124899 8.26809C0.375703 9.52896 0.994767 10.6872 1.90381 11.5962C2.81285 12.5052 3.97104 13.1243 5.23192 13.3751C6.49279 13.6259 7.79973 13.4972 8.98744 13.0052C10.1752 12.5132 11.1903 11.6801 11.9046 10.6112C12.6188 9.54229 13 8.28558 13 7C12.998 5.2767 12.3126 3.62455 11.094 2.406C9.87545 1.18744 8.2233 0.501985 6.5 0.5ZM12 7C12.0004 7.50723 11.9304 8.01205 11.7919 8.5H9.385C9.53834 7.50588 9.53834 6.49412 9.385 5.5H11.7919C11.9304 5.98795 12.0004 6.49277 12 7ZM4.875 9.5H8.125C7.80482 10.5491 7.24899 11.5111 6.5 12.3125C5.7513 11.5109 5.19551 10.549 4.875 9.5ZM4.63125 8.5C4.45959 7.50737 4.45959 6.49263 4.63125 5.5H8.37375C8.54541 6.49263 8.54541 7.50737 8.37375 8.5H4.63125ZM1 7C0.999568 6.49277 1.06961 5.98795 1.20813 5.5H3.615C3.46167 6.49412 3.46167 7.50588 3.615 8.5H1.20813C1.06961 8.01205 0.999568 7.50723 1 7ZM8.125 4.5H4.875C5.19518 3.45088 5.75102 2.48886 6.5 1.6875C7.24871 2.48908 7.8045 3.45102 8.125 4.5ZM11.3956 4.5H9.16938C8.88879 3.47057 8.41588 2.50355 7.77563 1.65C8.5492 1.83583 9.27344 2.18674 9.8987 2.67866C10.524 3.17058 11.0355 3.79189 11.3981 4.5H11.3956ZM5.22438 1.65C4.58413 2.50355 4.11122 3.47057 3.83063 4.5H1.60188C1.96455 3.79189 2.47605 3.17058 3.10131 2.67866C3.72657 2.18674 4.45081 1.83583 5.22438 1.65ZM1.60188 9.5H3.83063C4.11122 10.5294 4.58413 11.4965 5.22438 12.35C4.45081 12.1642 3.72657 11.8133 3.10131 11.3213C2.47605 10.8294 1.96455 10.2081 1.60188 9.5ZM7.77563 12.35C8.41588 11.4965 8.88879 10.5294 9.16938 9.5H11.3981C11.0355 10.2081 10.524 10.8294 9.8987 11.3213C9.27344 11.8133 8.5492 12.1642 7.77563 12.35Z" fill="url(#paint0_linear_11319_32865)"/>
<defs>
<linearGradient id="paint0_linear_11319_32865" x1="3.23979e-08" y1="11.4688" x2="13.0044" y2="11.7528" gradientUnits="userSpaceOnUse">
<stop stop-color="#39B5D7"/>
<stop offset="0.502211" stop-color="#F7D544"/>
<stop offset="1" stop-color="#E38330"/>
</linearGradient>
</defs>
</svg>
