<svg width="24" height="24" viewBox="0 0 24 24" fill="none" xmlns="http://www.w3.org/2000/svg">
<circle cx="11.5" cy="11.5" r="11.5" fill="#F5F5F5"/>
<path d="M16.3125 11.1562C16.3119 10.6094 16.0944 10.0851 15.7078 9.69844C15.3211 9.31177 14.7968 9.09428 14.25 9.09372H12.5398C12.4148 9.08641 10.2359 8.93301 8.1609 7.19278C8.0607 7.10862 7.93856 7.05481 7.80884 7.03767C7.67912 7.02052 7.5472 7.04075 7.42857 7.09598C7.30995 7.15121 7.20955 7.23914 7.13917 7.34945C7.06879 7.45976 7.03135 7.58787 7.03125 7.71872V14.5937C7.03127 14.7246 7.06865 14.8528 7.139 14.9631C7.20935 15.0735 7.30974 15.1615 7.42838 15.2168C7.54702 15.2721 7.67897 15.2923 7.80874 15.2752C7.9385 15.2581 8.06067 15.2043 8.1609 15.1201C9.78383 13.7588 11.4695 13.3687 12.1875 13.2595V14.6225C12.1874 14.7358 12.2152 14.8474 12.2686 14.9473C12.322 15.0472 12.3992 15.1324 12.4934 15.1953L12.9661 15.5102C13.0575 15.5712 13.1621 15.6094 13.2712 15.6216C13.3804 15.6339 13.4909 15.6198 13.5935 15.5805C13.6961 15.5412 13.7877 15.478 13.8609 15.396C13.934 15.314 13.9864 15.2157 14.0137 15.1093L14.5194 13.2032C15.0156 13.1372 15.4709 12.8933 15.8007 12.5168C16.1305 12.1402 16.3124 11.6568 16.3125 11.1562ZM7.71875 14.5907V7.71872C9.55824 9.26172 11.4411 9.65231 12.1875 9.74856V12.5622C11.442 12.6601 9.55953 13.0498 7.71875 14.5907ZM13.3477 14.9345V14.9392L12.875 14.6242V13.2187H13.8031L13.3477 14.9345ZM14.25 12.5312H12.875V9.78122H14.25C14.6147 9.78122 14.9644 9.92608 15.2223 10.1839C15.4801 10.4418 15.625 10.7915 15.625 11.1562C15.625 11.5209 15.4801 11.8706 15.2223 12.1285C14.9644 12.3863 14.6147 12.5312 14.25 12.5312Z" fill="#090909"/>
</svg>
