<svg width="41" height="40" viewBox="0 0 41 40" fill="none" xmlns="http://www.w3.org/2000/svg">
<rect x="1" y="0.5" width="39" height="39" rx="19.5" stroke="url(#paint0_linear_2_11)"/>
<path d="M22.7753 11.5561C22.8008 11.4609 22.8447 11.3717 22.9047 11.2935C22.9647 11.2153 23.0394 11.1497 23.1248 11.1004C23.2101 11.0512 23.3043 11.0192 23.402 11.0063C23.4996 10.9935 23.5989 11 23.6941 11.0255C25.0844 11.3883 26.353 12.1151 27.369 13.1311C28.3851 14.1472 29.1119 15.4157 29.4747 16.8061C29.5002 16.9013 29.5067 17.0005 29.4939 17.0982C29.481 17.1959 29.449 17.2901 29.3997 17.3754C29.3505 17.4608 29.2849 17.5355 29.2067 17.5955C29.1285 17.6554 29.0393 17.6994 28.9441 17.7249C28.8807 17.7415 28.8155 17.75 28.75 17.7502C28.5847 17.7502 28.4241 17.6956 28.293 17.5949C28.162 17.4942 28.0679 17.353 28.0253 17.1933C27.7295 16.0583 27.1363 15.0227 26.3069 14.1933C25.4775 13.3639 24.4419 12.7707 23.3069 12.4749C23.2116 12.4495 23.1223 12.4056 23.044 12.3457C22.9657 12.2858 22.9 12.211 22.8506 12.1257C22.8013 12.0404 22.7692 11.9461 22.7563 11.8484C22.7433 11.7507 22.7498 11.6513 22.7753 11.5561ZM22.5569 15.4749C23.8497 15.8199 24.6803 16.6505 25.0253 17.9433C25.0679 18.103 25.162 18.2442 25.293 18.3449C25.4241 18.4456 25.5847 18.5002 25.75 18.5002C25.8155 18.5 25.8807 18.4915 25.9441 18.4749C26.0393 18.4494 26.1285 18.4054 26.2067 18.3455C26.2849 18.2855 26.3505 18.2108 26.3997 18.1254C26.449 18.0401 26.481 17.9459 26.4939 17.8482C26.5067 17.7505 26.5002 17.6513 26.4747 17.5561C25.9947 15.7599 24.7403 14.5055 22.9441 14.0255C22.8489 14.0001 22.7497 13.9936 22.652 14.0066C22.5544 14.0195 22.4602 14.0515 22.3749 14.1009C22.2897 14.1502 22.2149 14.2158 22.155 14.294C22.0951 14.3722 22.0512 14.4614 22.0258 14.5566C22.0004 14.6518 21.9939 14.751 22.0069 14.8486C22.0198 14.9463 22.0518 15.0404 22.1012 15.1257C22.1505 15.211 22.2161 15.2857 22.2943 15.3456C22.3725 15.4055 22.4617 15.4494 22.5569 15.4749ZM30.2388 24.4139C30.0716 25.6843 29.4477 26.8503 28.4837 27.6943C27.5196 28.5383 26.2813 29.0025 25 29.0002C17.5563 29.0002 11.5 22.9439 11.5 15.5002C11.4977 14.2189 11.9619 12.9806 12.8059 12.0165C13.6499 11.0525 14.8159 10.4286 16.0863 10.2614C16.4075 10.2222 16.7328 10.2879 17.0136 10.4488C17.2944 10.6096 17.5157 10.857 17.6444 11.1539L19.6244 15.5742V15.5855C19.7229 15.8128 19.7636 16.061 19.7428 16.3078C19.722 16.5547 19.6404 16.7925 19.5053 17.0002C19.4884 17.0255 19.4706 17.0489 19.4519 17.0724L17.5 19.3861C18.2022 20.813 19.6947 22.2924 21.1403 22.9964L23.4222 21.0549C23.4446 21.036 23.4681 21.0185 23.4925 21.0024C23.7 20.864 23.9387 20.7795 24.187 20.7566C24.4353 20.7337 24.6854 20.773 24.9147 20.8711L24.9269 20.8767L29.3434 22.8558C29.6409 22.984 29.8889 23.2051 30.0503 23.486C30.2116 23.7668 30.2778 24.0924 30.2388 24.4139ZM28.75 24.2264C28.75 24.2264 28.7434 24.2264 28.7397 24.2264L24.3334 22.253L22.0506 24.1946C22.0285 24.2133 22.0053 24.2308 21.9813 24.2471C21.7654 24.3911 21.5159 24.4766 21.2571 24.4953C20.9983 24.5141 20.739 24.4653 20.5047 24.3539C18.7488 23.5055 16.9984 21.7683 16.1491 20.0311C16.0366 19.7985 15.9861 19.5407 16.0026 19.2829C16.019 19.025 16.1017 18.7757 16.2428 18.5592C16.2587 18.5338 16.2766 18.5097 16.2963 18.4871L18.25 16.1705L16.2813 11.7642C16.2809 11.7605 16.2809 11.7567 16.2813 11.753C15.3721 11.8716 14.5374 12.3175 13.9334 13.0073C13.3294 13.6971 12.9976 14.5833 13 15.5002C13.0035 18.6817 14.2689 21.7319 16.5186 23.9816C18.7682 26.2313 21.8185 27.4967 25 27.5002C25.9163 27.5033 26.8023 27.1726 27.4925 26.57C28.1827 25.9673 28.6297 25.1338 28.75 24.2255V24.2264Z" fill="white"/>
<defs>
<linearGradient id="paint0_linear_2_11" x1="3.03333" y1="12.2223" x2="39.1904" y2="12.3343" gradientUnits="userSpaceOnUse">
<stop stop-color="#39B6D8"/>
<stop offset="0.5" stop-color="#F7D344"/>
<stop offset="1" stop-color="#E38330"/>
</linearGradient>
</defs>
</svg>
