<svg width="71" height="65" viewBox="0 0 71 65" fill="none" xmlns="http://www.w3.org/2000/svg">
<path opacity="0.3" d="M0 64.3381L1.61059 51.8726C5.54758 52.1407 8.58979 51.4258 10.7372 49.728C12.8847 48.0302 14.3163 45.6622 15.0321 42.624C15.748 39.5858 15.8822 36.1455 15.4348 32.3031H0V0H29.6616V34.9838C29.6616 45.5281 27.1563 53.481 22.1455 58.8425C17.0454 64.2934 9.66352 66.1253 0 64.3381ZM41.3384 64.3381L42.949 51.8726C46.886 52.1407 49.9282 51.4258 52.0756 49.728C54.2231 48.0302 55.6547 45.6622 56.3705 42.624C57.0863 39.5858 57.2205 36.1455 56.7732 32.3031H41.3384V0H71V34.9838C71 45.5281 68.4946 53.481 63.4839 58.8425C58.3837 64.2934 51.0019 66.1253 41.3384 64.3381Z" fill="#CCCCCC"/>
</svg>
