<svg width="60" height="60" viewBox="0 0 60 60" fill="none" xmlns="http://www.w3.org/2000/svg">
<circle cx="30" cy="30" r="30" fill="#D4D4D4"/>
<path fill-rule="evenodd" clip-rule="evenodd" d="M25.3317 18.9147H32.915L38.165 24.1647V37.5814C38.165 37.8908 38.0421 38.1876 37.8233 38.4064C37.6045 38.6252 37.3078 38.7481 36.9984 38.7481H25.3317C25.0223 38.7481 24.7255 38.6252 24.5067 38.4064C24.288 38.1876 24.165 37.8908 24.165 37.5814V20.0814C24.165 19.772 24.288 19.4752 24.5067 19.2564C24.7255 19.0377 25.0223 18.9147 25.3317 18.9147ZM36.415 24.1647L32.915 20.6647V23.5814C32.915 23.7361 32.9765 23.8845 33.0859 23.9939C33.1953 24.1033 33.3437 24.1647 33.4984 24.1647H36.415ZM35.0775 28.419C35.1868 28.5284 35.2482 28.6767 35.2482 28.8314C35.2482 28.9861 35.1868 29.1344 35.0775 29.2438L29.9984 34.3229L27.2526 31.5772C27.1464 31.4671 27.0876 31.3198 27.0889 31.1668C27.0902 31.0139 27.1516 30.8676 27.2597 30.7594C27.3679 30.6513 27.5142 30.5899 27.6671 30.5886C27.8201 30.5873 27.9674 30.6461 28.0775 30.7523L29.9984 32.6732L34.2526 28.419C34.362 28.3096 34.5104 28.2482 34.665 28.2482C34.8197 28.2482 34.9681 28.3096 35.0775 28.419Z" fill="white"/>
<path d="M22.9987 22.4147H21.832V38.1647C21.832 38.9383 22.1393 39.6801 22.6863 40.2271C23.2333 40.7741 23.9751 41.0814 24.7487 41.0814H35.832V39.9147H24.7487C24.2846 39.9147 23.8394 39.7304 23.5113 39.4022C23.1831 39.074 22.9987 38.6289 22.9987 38.1647V22.4147Z" fill="white"/>
</svg>
