<svg width="56" height="56" viewBox="0 0 56 56" fill="none" xmlns="http://www.w3.org/2000/svg">
<circle cx="28" cy="28" r="27.2857" fill="#060606" stroke="url(#paint0_linear_5_340811)" stroke-width="1.42857"/>
<path d="M23.4412 19.56C27.5692 19.56 30.3532 22.968 30.3532 27.96C30.3532 32.976 27.5692 36.36 23.4412 36.36C19.3132 36.36 16.5292 32.976 16.5292 27.96C16.5292 22.968 19.3132 19.56 23.4412 19.56ZM23.4412 33.36C25.6492 33.36 27.0412 31.152 27.0412 27.96C27.0412 24.768 25.6492 22.56 23.4412 22.56C21.2332 22.56 19.8412 24.768 19.8412 27.96C19.8412 31.152 21.2332 33.36 23.4412 33.36ZM38.748 19.92V36H35.58V23.736L31.62 25.776V22.872L36.732 19.92H38.748Z" fill="url(#paint1_linear_5_340811)"/>
<defs>
<linearGradient id="paint0_linear_5_340811" x1="28" y1="0" x2="28" y2="56" gradientUnits="userSpaceOnUse">
<stop stop-color="#39B6D8"/>
<stop offset="0.5" stop-color="#F7D344"/>
<stop offset="1" stop-color="#E38330"/>
</linearGradient>
<linearGradient id="paint1_linear_5_340811" x1="17.0968" y1="21" x2="41.8664" y2="23.1868" gradientUnits="userSpaceOnUse">
<stop stop-color="#39B6D8"/>
<stop offset="0.5" stop-color="#F7D344"/>
<stop offset="1" stop-color="#E38330"/>
</linearGradient>
</defs>
</svg>
