<svg width="56" height="56" viewBox="0 0 56 56" fill="none" xmlns="http://www.w3.org/2000/svg">
<circle cx="28" cy="28" r="27.2857" fill="#060606" stroke="url(#paint0_linear_5_340819)" stroke-width="1.42857"/>
<path d="M21.1443 19.56C25.2723 19.56 28.0563 22.968 28.0563 27.96C28.0563 32.976 25.2723 36.36 21.1443 36.36C17.0163 36.36 14.2323 32.976 14.2323 27.96C14.2323 22.968 17.0163 19.56 21.1443 19.56ZM21.1443 33.36C23.3523 33.36 24.7443 31.152 24.7443 27.96C24.7443 24.768 23.3523 22.56 21.1443 22.56C18.9363 22.56 17.5443 24.768 17.5443 27.96C17.5443 31.152 18.9363 33.36 21.1443 33.36ZM39.7207 27.912C40.9927 28.464 41.7607 29.664 41.7607 31.224C41.7607 34.32 39.4567 36.36 36.0727 36.36C32.7127 36.36 30.3847 34.32 30.1207 31.272L33.1687 30.672C33.4087 32.448 34.3447 33.528 36.0727 33.528C37.6327 33.528 38.7847 32.616 38.7847 31.248C38.7847 30.048 37.9447 29.304 36.3607 29.304H34.0327V26.472H36.1687C37.6807 26.472 38.5207 25.752 38.5207 24.576C38.5207 23.28 37.5607 22.416 36.0727 22.416C34.5847 22.416 33.4567 23.304 33.3127 25.32L30.3367 24.72C30.6007 21.672 32.8087 19.56 36.0727 19.56C39.3367 19.56 41.5207 21.6 41.5207 24.576C41.5207 26.136 40.8487 27.312 39.7207 27.912Z" fill="url(#paint1_linear_5_340819)"/>
<defs>
<linearGradient id="paint0_linear_5_340819" x1="28" y1="0" x2="28" y2="56" gradientUnits="userSpaceOnUse">
<stop stop-color="#39B6D8"/>
<stop offset="0.5" stop-color="#F7D344"/>
<stop offset="1" stop-color="#E38330"/>
</linearGradient>
<linearGradient id="paint1_linear_5_340819" x1="15.4194" y1="21" x2="43.9266" y2="23.904" gradientUnits="userSpaceOnUse">
<stop stop-color="#39B6D8"/>
<stop offset="0.5" stop-color="#F7D344"/>
<stop offset="1" stop-color="#E38330"/>
</linearGradient>
</defs>
</svg>
