<svg width="52" height="52" viewBox="0 0 52 52" fill="none" xmlns="http://www.w3.org/2000/svg">
<rect x="0.75" y="0.75" width="50.5" height="50.5" rx="25.25" stroke="#404040" stroke-width="1.5"/>
<path d="M26.7506 21.4994V25.5747L30.1368 27.6062C30.3074 27.7087 30.4303 27.8747 30.4784 28.0677C30.5266 28.2608 30.4961 28.465 30.3937 28.6356C30.2912 28.8062 30.1252 28.9291 29.9322 28.9772C29.7392 29.0254 29.5349 28.9949 29.3643 28.8925L25.6143 26.6425C25.5033 26.5758 25.4115 26.4815 25.3477 26.3688C25.284 26.2561 25.2505 26.1288 25.2506 25.9994V21.4994C25.2506 21.3004 25.3296 21.1097 25.4702 20.969C25.6109 20.8284 25.8016 20.7494 26.0006 20.7494C26.1995 20.7494 26.3902 20.8284 26.5309 20.969C26.6715 21.1097 26.7506 21.3004 26.7506 21.4994ZM35.0006 19.2494C34.8016 19.2494 34.6109 19.3284 34.4702 19.469C34.3296 19.6097 34.2506 19.8004 34.2506 19.9994V21.6869C33.6552 20.9969 33.0478 20.3322 32.3643 19.6403C31.1135 18.3894 29.5219 17.5348 27.7882 17.1833C26.0545 16.8319 24.2557 16.9991 22.6165 17.6641C20.9774 18.3291 19.5705 19.4624 18.5718 20.9225C17.573 22.3825 17.0266 24.1044 17.0009 25.8732C16.9753 27.642 17.4714 29.3791 18.4273 30.8675C19.3832 32.3559 20.7566 33.5296 22.3758 34.2419C23.9949 34.9543 25.7881 35.1737 27.5313 34.8727C29.2744 34.5717 30.8902 33.7637 32.1768 32.5497C32.2485 32.482 32.3061 32.4008 32.3464 32.3108C32.3866 32.2208 32.4088 32.1238 32.4116 32.0253C32.4144 31.9267 32.3977 31.8286 32.3626 31.7365C32.3275 31.6444 32.2745 31.5601 32.2068 31.4884C32.1391 31.4168 32.0579 31.3592 31.968 31.3189C31.878 31.2786 31.7809 31.2564 31.6824 31.2536C31.5839 31.2508 31.4857 31.2675 31.3936 31.3026C31.3015 31.3378 31.2172 31.3907 31.1456 31.4584C30.0731 32.4691 28.7267 33.1415 27.2744 33.3915C25.8221 33.6416 24.3283 33.4582 22.9796 32.8644C21.6308 32.2706 20.487 31.2926 19.6907 30.0526C18.8945 28.8125 18.4812 27.3654 18.5025 25.8919C18.5238 24.4184 18.9788 22.9838 19.8105 21.7673C20.6422 20.5508 21.8139 19.6062 23.1793 19.0517C24.5446 18.4971 26.043 18.357 27.4875 18.6489C28.9319 18.9408 30.2584 19.6518 31.3012 20.6931C32.0643 21.4656 32.7327 22.21 33.4068 22.9994H31.2506C31.0516 22.9994 30.8609 23.0784 30.7202 23.219C30.5796 23.3597 30.5006 23.5504 30.5006 23.7494C30.5006 23.9483 30.5796 24.139 30.7202 24.2797C30.8609 24.4203 31.0516 24.4994 31.2506 24.4994H35.0006C35.1995 24.4994 35.3902 24.4203 35.5309 24.2797C35.6715 24.139 35.7506 23.9483 35.7506 23.7494V19.9994C35.7506 19.8004 35.6715 19.6097 35.5309 19.469C35.3902 19.3284 35.1995 19.2494 35.0006 19.2494Z" fill="white"/>
</svg>
