<svg width="46" height="46" viewBox="0 0 46 46" fill="none" xmlns="http://www.w3.org/2000/svg">
<rect x="0.575" y="0.575" width="44.85" height="44.85" rx="22.425" fill="white" fill-opacity="0.15"/>
<rect x="0.575" y="0.575" width="44.85" height="44.85" rx="22.425" stroke="url(#paint0_linear_4619_660)" stroke-width="1.15"/>
<path fill-rule="evenodd" clip-rule="evenodd" d="M20.5249 17.3542C19.5858 16.7998 18.3999 17.4767 18.3999 18.5673V28.5798C18.3999 29.6708 19.5867 30.3477 20.5258 29.7923L28.9979 24.7818C29.9204 24.2362 29.9199 22.9011 28.997 22.3562L20.5249 17.3542Z" fill="white"/>
<path d="M31.0499 23.0008C31.0504 23.196 31.0003 23.388 30.9046 23.5582C30.8089 23.7283 30.6708 23.8708 30.5037 23.9718L20.1479 30.3068C19.9733 30.4138 19.7733 30.4721 19.5686 30.4759C19.364 30.4797 19.162 30.4288 18.9835 30.3284C18.8068 30.2296 18.6596 30.0855 18.557 29.9109C18.4544 29.7363 18.4002 29.5376 18.3999 29.3351V16.6664C18.4002 16.4639 18.4544 16.2652 18.557 16.0906C18.6596 15.916 18.8068 15.7719 18.9835 15.6731C19.162 15.5727 19.364 15.5218 19.5686 15.5256C19.7733 15.5294 19.9733 15.5877 20.1479 15.6947L30.5037 22.0297C30.6708 22.1307 30.8089 22.2732 30.9046 22.4433C31.0003 22.6135 31.0504 22.8055 31.0499 23.0008Z" fill="white"/>
<defs>
<linearGradient id="paint0_linear_4619_660" x1="1.14639e-07" y1="38.8125" x2="46.0157" y2="39.8176" gradientUnits="userSpaceOnUse">
<stop stop-color="#39B5D7"/>
<stop offset="0.502211" stop-color="#F7D544"/>
<stop offset="1" stop-color="#E38330"/>
</linearGradient>
</defs>
</svg>
