<svg width="15" height="15" viewBox="0 0 15 15" fill="none" xmlns="http://www.w3.org/2000/svg">
<path d="M14.4 0H0.6C0.26812 0 0 0.26812 0 0.6V14.4C0 14.7319 0.26812 15 0.6 15H14.4C14.7319 15 15 14.7319 15 14.4V0.6C15 0.26812 14.7319 0 14.4 0ZM4.44937 12.7819H2.22375V5.62312H4.44937V12.7819ZM3.3375 4.64437C3.08236 4.64437 2.83295 4.56872 2.62081 4.42697C2.40867 4.28522 2.24333 4.08375 2.1457 3.84804C2.04806 3.61232 2.02251 3.35294 2.07229 3.10271C2.12206 2.85247 2.24492 2.62262 2.42533 2.44221C2.60574 2.2618 2.8356 2.13894 3.08583 2.08916C3.33607 2.03939 3.59544 2.06493 3.83116 2.16257C4.06688 2.26021 4.26835 2.42555 4.4101 2.63769C4.55184 2.84983 4.6275 3.09924 4.6275 3.35437C4.62562 4.06687 4.04812 4.64437 3.3375 4.64437ZM12.7819 12.7819H10.5581V9.3C10.5581 8.4694 10.5431 7.4025 9.4012 7.4025C8.2444 7.4025 8.0662 8.3062 8.0662 9.24V12.7819H5.84437V5.62312H7.9781V6.60187H8.0081C8.3044 6.03937 9.03 5.445 10.1137 5.445C12.3675 5.445 12.7819 6.92812 12.7819 8.8556V12.7819Z" fill="white"/>
</svg>
