<svg width="52" height="52" viewBox="0 0 52 52" fill="none" xmlns="http://www.w3.org/2000/svg">
<circle cx="25.5504" cy="25.5504" r="25.0504" stroke="url(#paint0_linear_2380_4879)"/>
<path d="M33.1434 18.8572H34.572C34.7614 18.8572 34.9431 18.9324 35.0771 19.0664C35.211 19.2003 35.2863 19.382 35.2863 19.5715V31C35.2863 31.1895 35.211 31.3712 35.0771 31.5051C34.9431 31.6391 34.7614 31.7143 34.572 31.7143H17.4291C17.2397 31.7143 17.058 31.6391 16.9241 31.5051C16.7901 31.3712 16.7148 31.1895 16.7148 31V19.5715C16.7148 19.382 16.7901 19.2003 16.9241 19.0664C17.058 18.9324 17.2397 18.8572 17.4291 18.8572H18.8577" stroke="#000001" stroke-width="1.3" stroke-linecap="round" stroke-linejoin="round"/>
<path d="M24.5731 31.7144L23.1445 35.2858" stroke="#000001" stroke-width="1.3" stroke-linecap="round" stroke-linejoin="round"/>
<path d="M27.4297 31.7144L28.8583 35.2858" stroke="#000001" stroke-width="1.3" stroke-linecap="round" stroke-linejoin="round"/>
<path d="M21.7148 35.2858H30.2863" stroke="#000001" stroke-width="1.3" stroke-linecap="round" stroke-linejoin="round"/>
<path d="M26.043 18.8572V21" stroke="#000001" stroke-width="1.3" stroke-linecap="round" stroke-linejoin="round"/>
<path d="M21.7148 21.3572L23.572 22.4286" stroke="#000001" stroke-width="1.3" stroke-linecap="round" stroke-linejoin="round"/>
<path d="M21.7148 26.3572L23.572 25.2858" stroke="#000001" stroke-width="1.3" stroke-linecap="round" stroke-linejoin="round"/>
<path d="M26.043 28.8572V26.7144" stroke="#000001" stroke-width="1.3" stroke-linecap="round" stroke-linejoin="round"/>
<path d="M30.3728 26.3572L28.5156 25.2858" stroke="#000001" stroke-width="1.3" stroke-linecap="round" stroke-linejoin="round"/>
<path d="M30.3728 21.3572L28.5156 22.4286" stroke="#000001" stroke-width="1.3" stroke-linecap="round" stroke-linejoin="round"/>
<path d="M26.0446 26.7143C27.6226 26.7143 28.9018 25.4351 28.9018 23.8571C28.9018 22.2792 27.6226 21 26.0446 21C24.4667 21 23.1875 22.2792 23.1875 23.8571C23.1875 25.4351 24.4667 26.7143 26.0446 26.7143Z" stroke="#000001" stroke-width="1.3" stroke-linecap="round" stroke-linejoin="round"/>
<defs>
<linearGradient id="paint0_linear_2380_4879" x1="-4.38008" y1="15.6142" x2="55.6488" y2="17.8973" gradientUnits="userSpaceOnUse">
<stop stop-color="#39B5D7"/>
<stop offset="0.502211" stop-color="#F7D544"/>
<stop offset="1" stop-color="#E38330"/>
</linearGradient>
</defs>
</svg>
