<svg width="17" height="16" viewBox="0 0 17 16" fill="none" xmlns="http://www.w3.org/2000/svg">
<path d="M13.1875 2H3.8125C3.56386 2 3.3254 2.10536 3.14959 2.29289C2.97377 2.48043 2.875 2.73478 2.875 3V13C2.875 13.2652 2.97377 13.5196 3.14959 13.7071C3.3254 13.8946 3.56386 14 3.8125 14H13.1875C13.4361 14 13.6746 13.8946 13.8504 13.7071C14.0262 13.5196 14.125 13.2652 14.125 13V3C14.125 2.73478 14.0262 2.48043 13.8504 2.29289C13.6746 2.10536 13.4361 2 13.1875 2ZM12.25 6.5H13.1875V9.5H12.25V6.5ZM13.1875 5.5H12.25V3H13.1875V5.5ZM3.8125 3H11.3125V13H3.8125V3ZM13.1875 13H12.25V10.5H13.1875V13ZM9.8916 10.375C9.73991 9.77088 9.38025 9.24998 8.88437 8.91625C9.14771 8.63702 9.3274 8.28068 9.40065 7.89239C9.4739 7.50411 9.43742 7.10136 9.29584 6.73522C9.15425 6.36907 8.91394 6.05601 8.60535 5.83572C8.29677 5.61543 7.93382 5.49784 7.5625 5.49784C7.19118 5.49784 6.82823 5.61543 6.51965 5.83572C6.21106 6.05601 5.97075 6.36907 5.82916 6.73522C5.68757 7.10136 5.6511 7.50411 5.72435 7.89239C5.7976 8.28068 5.97729 8.63702 6.24063 8.91625C5.74507 9.25034 5.38551 9.77109 5.2334 10.375C5.20232 10.5035 5.22035 10.6398 5.28354 10.7541C5.34672 10.8684 5.44988 10.9512 5.57031 10.9844C5.69075 11.0175 5.8186 10.9983 5.92573 10.9309C6.03287 10.8635 6.11052 10.7535 6.1416 10.625C6.29629 9.98438 6.90684 9.5 7.5625 9.5C8.21816 9.5 8.8293 9.98312 8.9834 10.625C9.01448 10.7535 9.09213 10.8635 9.19927 10.9309C9.3064 10.9983 9.43425 11.0175 9.55469 10.9844C9.67512 10.9512 9.77828 10.8684 9.84146 10.7541C9.90465 10.6398 9.92268 10.5035 9.8916 10.375ZM6.625 7.5C6.625 7.30222 6.67998 7.10888 6.783 6.94443C6.88601 6.77998 7.03243 6.65181 7.20373 6.57612C7.37504 6.50043 7.56354 6.48063 7.7454 6.51921C7.92725 6.5578 8.0943 6.65304 8.22541 6.79289C8.35652 6.93275 8.44581 7.11093 8.48199 7.30491C8.51816 7.49889 8.49959 7.69996 8.42864 7.88268C8.35768 8.06541 8.23752 8.22159 8.08335 8.33147C7.92918 8.44135 7.74792 8.5 7.5625 8.5C7.31386 8.5 7.0754 8.39464 6.89959 8.20711C6.72377 8.01957 6.625 7.76522 6.625 7.5Z" fill="url(#paint0_linear_7551_1371)"/>
<defs>
<linearGradient id="paint0_linear_7551_1371" x1="4.08034" y1="2" x2="8.23683" y2="17.3467" gradientUnits="userSpaceOnUse">
<stop stop-color="#39B6D8"/>
<stop offset="0.5" stop-color="#F7D344"/>
<stop offset="1" stop-color="#E38330"/>
</linearGradient>
</defs>
</svg>
