<svg width="17" height="16" viewBox="0 0 17 16" fill="none" xmlns="http://www.w3.org/2000/svg">
<path d="M14.9231 3H3.07692C2.79131 3 2.51739 3.10536 2.31542 3.29289C2.11346 3.48043 2 3.73478 2 4V13C2 13.2652 2.11346 13.5196 2.31542 13.7071C2.51739 13.8946 2.79131 14 3.07692 14H3.97817C4.08008 14 4.17991 13.9732 4.26605 13.9226C4.35219 13.8721 4.42111 13.7999 4.46481 13.7144C4.72665 13.201 5.14005 12.7673 5.65693 12.4635C6.1738 12.1598 6.77293 11.9986 7.38462 11.9986C7.9963 11.9986 8.59543 12.1598 9.11231 12.4635C9.62919 12.7673 10.0426 13.201 10.3044 13.7144C10.3481 13.7999 10.417 13.8721 10.5032 13.9226C10.5893 13.9732 10.6891 14 10.7911 14H14.9231C15.2087 14 15.4826 13.8946 15.6846 13.7071C15.8865 13.5196 16 13.2652 16 13V4C16 3.73478 15.8865 3.48043 15.6846 3.29289C15.4826 3.10536 15.2087 3 14.9231 3ZM5.76923 9.5C5.76923 9.20333 5.86397 8.91332 6.04147 8.66665C6.21897 8.41997 6.47126 8.22771 6.76643 8.11418C7.06161 8.00065 7.38641 7.97094 7.69976 8.02882C8.01312 8.0867 8.30095 8.22956 8.52687 8.43934C8.75278 8.64912 8.90663 8.91639 8.96896 9.20736C9.03129 9.49834 8.9993 9.79994 8.87704 10.074C8.75477 10.3481 8.54772 10.5824 8.28208 10.7472C8.01643 10.912 7.70411 11 7.38462 11C6.95619 11 6.54531 10.842 6.24237 10.5607C5.93942 10.2794 5.76923 9.89782 5.76923 9.5ZM14.9231 13H11.1155C10.6658 12.2821 9.98801 11.711 9.175 11.365C9.58261 11.028 9.87028 10.5839 9.9999 10.0916C10.1295 9.59932 10.0949 9.08208 9.90077 8.60845C9.70659 8.13482 9.36199 7.72717 8.91263 7.43954C8.46327 7.15191 7.93039 6.99789 7.38462 6.99789C6.83884 6.99789 6.30596 7.15191 5.8566 7.43954C5.40725 7.72717 5.06264 8.13482 4.86846 8.60845C4.67429 9.08208 4.63972 9.59932 4.76933 10.0916C4.89895 10.5839 5.18662 11.028 5.59423 11.365C4.78122 11.711 4.10341 12.2821 3.65375 13H3.07692V4H14.9231V13ZM4.15385 6.5V5.5C4.15385 5.36739 4.21058 5.24022 4.31156 5.14645C4.41254 5.05268 4.5495 5 4.69231 5H13.3077C13.4505 5 13.5875 5.05268 13.6884 5.14645C13.7894 5.24022 13.8462 5.36739 13.8462 5.5V11.5C13.8462 11.6326 13.7894 11.7598 13.6884 11.8536C13.5875 11.9473 13.4505 12 13.3077 12H12.2308C12.088 12 11.951 11.9473 11.85 11.8536C11.749 11.7598 11.6923 11.6326 11.6923 11.5C11.6923 11.3674 11.749 11.2402 11.85 11.1464C11.951 11.0527 12.088 11 12.2308 11H12.7692V6H5.23077V6.5C5.23077 6.63261 5.17404 6.75979 5.07306 6.85355C4.97208 6.94732 4.83512 7 4.69231 7C4.5495 7 4.41254 6.94732 4.31156 6.85355C4.21058 6.75979 4.15385 6.63261 4.15385 6.5Z" fill="url(#paint0_linear_7551_1349)"/>
<defs>
<linearGradient id="paint0_linear_7551_1349" x1="5.00001" y1="0.999999" x2="6.43227" y2="18.7636" gradientUnits="userSpaceOnUse">
<stop stop-color="#39B6D8"/>
<stop offset="0.5" stop-color="#F7D344"/>
<stop offset="1" stop-color="#E38330"/>
</linearGradient>
</defs>
</svg>
