<svg width="17" height="16" viewBox="0 0 17 16" fill="none" xmlns="http://www.w3.org/2000/svg">
<path d="M9.99989 4.99977C9.99989 4.86716 10.0526 4.73998 10.1463 4.64622C10.2401 4.55245 10.3673 4.49977 10.4999 4.49977H15.9999C16.1325 4.49977 16.2597 4.55245 16.3534 4.64622C16.4472 4.73998 16.4999 4.86716 16.4999 4.99977C16.4999 5.13238 16.4472 5.25955 16.3534 5.35332C16.2597 5.44709 16.1325 5.49977 15.9999 5.49977H10.4999C10.3673 5.49977 10.2401 5.44709 10.1463 5.35332C10.0526 5.25955 9.99989 5.13238 9.99989 4.99977ZM15.9999 7.49977H10.4999C10.3673 7.49977 10.2401 7.55245 10.1463 7.64622C10.0526 7.73998 9.99989 7.86716 9.99989 7.99977C9.99989 8.13238 10.0526 8.25956 10.1463 8.35332C10.2401 8.44709 10.3673 8.49977 10.4999 8.49977H15.9999C16.1325 8.49977 16.2597 8.44709 16.3534 8.35332C16.4472 8.25956 16.4999 8.13238 16.4999 7.99977C16.4999 7.86716 16.4472 7.73998 16.3534 7.64622C16.2597 7.55245 16.1325 7.49977 15.9999 7.49977ZM15.9999 10.4998H11.9999C11.8673 10.4998 11.7401 10.5524 11.6463 10.6462C11.5526 10.74 11.4999 10.8672 11.4999 10.9998C11.4999 11.1324 11.5526 11.2596 11.6463 11.3533C11.7401 11.4471 11.8673 11.4998 11.9999 11.4998H15.9999C16.1325 11.4998 16.2597 11.4471 16.3534 11.3533C16.4472 11.2596 16.4999 11.1324 16.4999 10.9998C16.4999 10.8672 16.4472 10.74 16.3534 10.6462C16.2597 10.5524 16.1325 10.4998 15.9999 10.4998ZM9.98427 11.8748C10.0006 11.9384 10.0043 12.0046 9.99502 12.0696C9.98577 12.1346 9.96381 12.1972 9.93038 12.2537C9.89695 12.3103 9.85271 12.3596 9.80018 12.3991C9.74766 12.4385 9.68788 12.4672 9.62427 12.4835C9.58352 12.4945 9.54148 12.5 9.49927 12.4998C9.38838 12.4998 9.28061 12.463 9.19293 12.3951C9.10525 12.3272 9.04262 12.2321 9.01489 12.1248C8.62989 10.6285 7.11864 9.49977 5.49927 9.49977C3.87989 9.49977 2.36864 10.6279 1.98364 12.1248C1.95049 12.2532 1.86767 12.3633 1.75339 12.4307C1.63911 12.4981 1.50273 12.5173 1.37427 12.4841C1.2458 12.451 1.13577 12.3682 1.06838 12.2539C1.00098 12.1396 0.981742 12.0032 1.01489 11.8748C1.36427 10.5179 2.37989 9.41915 3.66864 8.87477C3.17241 8.49256 2.80826 7.96461 2.62726 7.36497C2.44626 6.76533 2.45748 6.12407 2.65936 5.53114C2.86124 4.9382 3.24365 4.42332 3.75295 4.05871C4.26225 3.6941 4.87291 3.49805 5.49927 3.49805C6.12563 3.49805 6.73629 3.6941 7.24559 4.05871C7.75489 4.42332 8.1373 4.9382 8.33918 5.53114C8.54106 6.12407 8.55228 6.76533 8.37128 7.36497C8.19028 7.96461 7.82612 8.49256 7.32989 8.87477C8.61927 9.41915 9.63489 10.5179 9.98427 11.8748ZM5.49989 8.49977C5.89546 8.49977 6.28214 8.38247 6.61103 8.16271C6.93993 7.94295 7.19628 7.63059 7.34765 7.26514C7.49903 6.89968 7.53864 6.49755 7.46146 6.10959C7.38429 5.72163 7.19381 5.36526 6.91411 5.08556C6.6344 4.80585 6.27804 4.61537 5.89007 4.5382C5.50211 4.46103 5.09998 4.50064 4.73453 4.65201C4.36907 4.80339 4.05672 5.05973 3.83695 5.38863C3.61719 5.71753 3.49989 6.10421 3.49989 6.49977C3.49989 7.0302 3.71061 7.53891 4.08568 7.91398C4.46075 8.28906 4.96946 8.49977 5.49989 8.49977Z" fill="#737373"/>
</svg>
