<svg width="16" height="16" viewBox="0 0 16 16" fill="none" xmlns="http://www.w3.org/2000/svg">
<path d="M9.49989 4.99977C9.49989 4.86716 9.55257 4.73998 9.64634 4.64622C9.74011 4.55245 9.86729 4.49977 9.99989 4.49977H15.4999C15.6325 4.49977 15.7597 4.55245 15.8534 4.64622C15.9472 4.73998 15.9999 4.86716 15.9999 4.99977C15.9999 5.13238 15.9472 5.25956 15.8534 5.35332C15.7597 5.44709 15.6325 5.49977 15.4999 5.49977H9.99989C9.86729 5.49977 9.74011 5.44709 9.64634 5.35332C9.55257 5.25956 9.49989 5.13238 9.49989 4.99977ZM15.4999 7.49977H9.99989C9.86729 7.49977 9.74011 7.55245 9.64634 7.64622C9.55257 7.73998 9.49989 7.86716 9.49989 7.99977C9.49989 8.13238 9.55257 8.25956 9.64634 8.35332C9.74011 8.44709 9.86729 8.49977 9.99989 8.49977H15.4999C15.6325 8.49977 15.7597 8.44709 15.8534 8.35332C15.9472 8.25956 15.9999 8.13238 15.9999 7.99977C15.9999 7.86716 15.9472 7.73998 15.8534 7.64622C15.7597 7.55245 15.6325 7.49977 15.4999 7.49977ZM15.4999 10.4998H11.4999C11.3673 10.4998 11.2401 10.5524 11.1463 10.6462C11.0526 10.74 10.9999 10.8672 10.9999 10.9998C10.9999 11.1324 11.0526 11.2596 11.1463 11.3533C11.2401 11.4471 11.3673 11.4998 11.4999 11.4998H15.4999C15.6325 11.4998 15.7597 11.4471 15.8534 11.3533C15.9472 11.2596 15.9999 11.1324 15.9999 10.9998C15.9999 10.8672 15.9472 10.74 15.8534 10.6462C15.7597 10.5524 15.6325 10.4998 15.4999 10.4998ZM9.48427 11.8748C9.50061 11.9384 9.50427 12.0046 9.49502 12.0696C9.48577 12.1346 9.46381 12.1972 9.43038 12.2537C9.39695 12.3103 9.35271 12.3596 9.30018 12.3991C9.24766 12.4385 9.18788 12.4672 9.12427 12.4835C9.08352 12.4945 9.04148 12.5 8.99927 12.4998C8.88838 12.4998 8.78061 12.463 8.69293 12.3951C8.60525 12.3272 8.54262 12.2321 8.51489 12.1248C8.12989 10.6285 6.61864 9.49977 4.99927 9.49977C3.37989 9.49977 1.86864 10.6279 1.48364 12.1248C1.45049 12.2532 1.36767 12.3633 1.25339 12.4307C1.13911 12.4981 1.00273 12.5173 0.874269 12.4841C0.745805 12.451 0.635772 12.3682 0.568376 12.2539C0.50098 12.1396 0.481742 12.0032 0.514894 11.8748C0.864269 10.5179 1.87989 9.41915 3.16864 8.87477C2.67241 8.49256 2.30826 7.96461 2.12726 7.36497C1.94626 6.76533 1.95748 6.12407 2.15936 5.53114C2.36124 4.9382 2.74365 4.42332 3.25295 4.05871C3.76225 3.6941 4.37291 3.49805 4.99927 3.49805C5.62563 3.49805 6.23629 3.6941 6.74559 4.05871C7.25489 4.42332 7.6373 4.9382 7.83918 5.53114C8.04106 6.12407 8.05228 6.76533 7.87128 7.36497C7.69028 7.96461 7.32612 8.49256 6.82989 8.87477C8.11927 9.41915 9.13489 10.5179 9.48427 11.8748ZM4.99989 8.49977C5.39546 8.49977 5.78214 8.38247 6.11103 8.16271C6.43993 7.94295 6.69628 7.63059 6.84765 7.26514C6.99903 6.89968 7.03864 6.49755 6.96146 6.10959C6.88429 5.72163 6.69381 5.36526 6.41411 5.08556C6.1344 4.80585 5.77804 4.61537 5.39007 4.5382C5.00211 4.46103 4.59998 4.50064 4.23453 4.65201C3.86907 4.80339 3.55672 5.05973 3.33695 5.38863C3.11719 5.71753 2.99989 6.10421 2.99989 6.49977C2.99989 7.0302 3.21061 7.53891 3.58568 7.91398C3.96075 8.28906 4.46946 8.49977 4.99989 8.49977Z" fill="url(#paint0_linear_147_114)"/>
<defs>
<linearGradient id="paint0_linear_147_114" x1="1.48075" y1="6.24866" x2="15.4921" y2="6.32344" gradientUnits="userSpaceOnUse">
<stop stop-color="#39B6D8"/>
<stop offset="0.5" stop-color="#F7D344"/>
<stop offset="1" stop-color="#E38330"/>
</linearGradient>
</defs>
</svg>
