<svg width="1440" height="670" viewBox="0 0 1440 670" fill="none" xmlns="http://www.w3.org/2000/svg">
<path opacity="0.63" d="M-7598.31 252.162C-7468.46 204.602 -7301.21 178.515 -7159.22 144.961C-6469.68 -17.9907 -5803.17 -204.225 -5141.43 -396.408C-4746.08 -511.228 -4350.22 -622.772 -3941.27 -723.374C-3939.59 -723.785 -3706.03 -790.397 -3729.62 -754.462C-3795.09 -654.748 -3937.55 -551.05 -4030.02 -459.657C-4445.39 -49.1505 -4872.85 358.097 -5301.9 764.587C-5577.48 1025.68 -5867 1282.51 -6141.36 1543.94C-6233.01 1631.28 -6337.61 1711.06 -6094.44 1609.34C-4738.87 1042.28 -3464.08 417.605 -2149.08 -175.573C-1872.15 -300.488 -1589.97 -434.384 -1272 -530.411C-1115.44 -577.693 -1226.29 -476.076 -1259.22 -443.577C-1374.99 -329.317 -1507.06 -219.592 -1638.02 -110.18C-1699.79 -58.5735 -1974.2 135.841 -1659.22 18.4626C-1059.63 -204.976 -526.677 -475.81 76.726 -696.573C235.336 -754.603 451.327 -832.475 648.57 -858.448C1078.36 -915.042 617.468 -520.727 600.892 -502.538C239.452 -105.948 -171.757 277.506 -532.114 674.537C-541.707 685.106 -711.856 876.253 -724.07 901.805C-789.263 1038.19 -433.744 982.078 -326.02 967.198C216.903 892.203 682.396 727.153 1154.13 573.768C1192.4 561.324 1660.03 388.06 1535.14 524.455C1429.73 639.571 1268.24 741.241 1132.03 846.06C1115.77 858.577 817.659 1088.85 984.17 1034.74C1609.42 831.553 2149.58 530.587 2703.65 278.963C3179.76 62.7442 3655.1 -156.289 4161.76 -352.456C4190.77 -363.687 4427.91 -472.048 4379.54 -373.896C4307.99 -228.722 4119.56 -103.117 4015.46 35.6148C3909.74 176.493 3952.76 252.827 4267.39 254.306C4759.75 256.621 5245.61 182.978 5727.52 140.673C5874.72 127.75 6167.81 88.262 6274.64 173.905C6396.64 271.701 6221.55 416.206 6186.48 513.735C6037.85 927.17 9098.16 266.913 9364.47 213.57" stroke="#171717" stroke-width="187" stroke-linecap="round"/>
</svg>
