<svg width="56" height="56" viewBox="0 0 56 56" fill="none" xmlns="http://www.w3.org/2000/svg">
<circle cx="28" cy="28" r="27.6246" stroke="url(#paint0_linear_7871_4601)" stroke-width="0.750863"/>
<path d="M40.25 35H39.375V20.125C39.375 19.6609 39.1906 19.2158 38.8624 18.8876C38.5342 18.5594 38.0891 18.375 37.625 18.375H18.375C17.9109 18.375 17.4658 18.5594 17.1376 18.8876C16.8094 19.2158 16.625 19.6609 16.625 20.125V35H15.75C15.5179 35 15.2954 35.0922 15.1313 35.2563C14.9672 35.4204 14.875 35.6429 14.875 35.875C14.875 36.1071 14.9672 36.3296 15.1313 36.4937C15.2954 36.6578 15.5179 36.75 15.75 36.75H40.25C40.4821 36.75 40.7046 36.6578 40.8687 36.4937C41.0328 36.3296 41.125 36.1071 41.125 35.875C41.125 35.6429 41.0328 35.4204 40.8687 35.2563C40.7046 35.0922 40.4821 35 40.25 35ZM18.375 20.125H37.625V35H35.875V32.375C35.875 32.1429 35.7828 31.9204 35.6187 31.7563C35.4546 31.5922 35.2321 31.5 35 31.5H27.125C26.8929 31.5 26.6704 31.5922 26.5063 31.7563C26.3422 31.9204 26.25 32.1429 26.25 32.375V35H21.875V23.625H34.125V28.875C34.125 29.1071 34.2172 29.3296 34.3813 29.4937C34.5454 29.6578 34.7679 29.75 35 29.75C35.2321 29.75 35.4546 29.6578 35.6187 29.4937C35.7828 29.3296 35.875 29.1071 35.875 28.875V22.75C35.875 22.5179 35.7828 22.2954 35.6187 22.1313C35.4546 21.9672 35.2321 21.875 35 21.875H21C20.7679 21.875 20.5454 21.9672 20.3813 22.1313C20.2172 22.2954 20.125 22.5179 20.125 22.75V35H18.375V20.125ZM34.125 35H28V33.25H34.125V35Z" fill="black"/>
<defs>
<linearGradient id="paint0_linear_7871_4601" x1="28" y1="0" x2="28" y2="56" gradientUnits="userSpaceOnUse">
<stop stop-color="#39B6D8"/>
<stop offset="0.5" stop-color="#F7D344"/>
<stop offset="1" stop-color="#E38330"/>
</linearGradient>
</defs>
</svg>
