<svg width="56" height="56" viewBox="0 0 56 56" fill="none" xmlns="http://www.w3.org/2000/svg">
<circle cx="28" cy="28" r="27.6246" stroke="url(#paint0_linear_7871_4609)" stroke-width="0.750863"/>
<path d="M37.625 18.375H18.375C17.9109 18.375 17.4658 18.5594 17.1376 18.8876C16.8094 19.2158 16.625 19.6609 16.625 20.125V35.875C16.625 36.3391 16.8094 36.7842 17.1376 37.1124C17.4658 37.4406 17.9109 37.625 18.375 37.625H19.8395C20.0051 37.6251 20.1673 37.5781 20.3073 37.4896C20.4473 37.4012 20.5593 37.2748 20.6303 37.1252C21.0558 36.2268 21.7276 35.4678 22.5675 34.9362C23.4074 34.4047 24.381 34.1225 25.375 34.1225C26.369 34.1225 27.3426 34.4047 28.1825 34.9362C29.0224 35.4678 29.6942 36.2268 30.1197 37.1252C30.1907 37.2748 30.3027 37.4012 30.4427 37.4896C30.5827 37.5781 30.7449 37.6251 30.9105 37.625H37.625C38.0891 37.625 38.5342 37.4406 38.8624 37.1124C39.1906 36.7842 39.375 36.3391 39.375 35.875V20.125C39.375 19.6609 39.1906 19.2158 38.8624 18.8876C38.5342 18.5594 38.0891 18.375 37.625 18.375ZM22.75 29.75C22.75 29.2308 22.904 28.7233 23.1924 28.2916C23.4808 27.86 23.8908 27.5235 24.3705 27.3248C24.8501 27.1261 25.3779 27.0742 25.8871 27.1754C26.3963 27.2767 26.864 27.5267 27.2312 27.8938C27.5983 28.261 27.8483 28.7287 27.9496 29.2379C28.0508 29.7471 27.9989 30.2749 27.8002 30.7545C27.6015 31.2342 27.2651 31.6442 26.8334 31.9326C26.4017 32.221 25.8942 32.375 25.375 32.375C24.6788 32.375 24.0111 32.0984 23.5188 31.6062C23.0266 31.1139 22.75 30.4462 22.75 29.75ZM37.625 35.875H31.4377C30.707 34.6187 29.6055 33.6193 28.2844 33.0138C28.9467 32.424 29.4142 31.6468 29.6248 30.7853C29.8355 29.9238 29.7793 29.0186 29.4637 28.1898C29.1482 27.3609 28.5882 26.6475 27.858 26.1442C27.1278 25.6408 26.2619 25.3713 25.375 25.3713C24.4881 25.3713 23.6222 25.6408 22.892 26.1442C22.1618 26.6475 21.6018 27.3609 21.2863 28.1898C20.9707 29.0186 20.9145 29.9238 21.1252 30.7853C21.3358 31.6468 21.8033 32.424 22.4656 33.0138C21.1445 33.6193 20.043 34.6187 19.3123 35.875H18.375V20.125H37.625V35.875ZM20.125 24.5V22.75C20.125 22.5179 20.2172 22.2954 20.3813 22.1313C20.5454 21.9672 20.7679 21.875 21 21.875H35C35.2321 21.875 35.4546 21.9672 35.6187 22.1313C35.7828 22.2954 35.875 22.5179 35.875 22.75V33.25C35.875 33.4821 35.7828 33.7046 35.6187 33.8687C35.4546 34.0328 35.2321 34.125 35 34.125H33.25C33.0179 34.125 32.7954 34.0328 32.6313 33.8687C32.4672 33.7046 32.375 33.4821 32.375 33.25C32.375 33.0179 32.4672 32.7954 32.6313 32.6313C32.7954 32.4672 33.0179 32.375 33.25 32.375H34.125V23.625H21.875V24.5C21.875 24.7321 21.7828 24.9546 21.6187 25.1187C21.4546 25.2828 21.2321 25.375 21 25.375C20.7679 25.375 20.5454 25.2828 20.3813 25.1187C20.2172 24.9546 20.125 24.7321 20.125 24.5Z" fill="black"/>
<defs>
<linearGradient id="paint0_linear_7871_4609" x1="28" y1="0" x2="28" y2="56" gradientUnits="userSpaceOnUse">
<stop stop-color="#39B6D8"/>
<stop offset="0.5" stop-color="#F7D344"/>
<stop offset="1" stop-color="#E38330"/>
</linearGradient>
</defs>
</svg>
