<svg width="52" height="52" viewBox="0 0 52 52" fill="none" xmlns="http://www.w3.org/2000/svg">
<rect x="0.75" y="0.75" width="50.5" height="50.5" rx="25.25" stroke="url(#paint0_linear_14438_34235)" stroke-width="1.5"/>
<path d="M26.75 25.25V34.25C26.75 34.4489 26.671 34.6397 26.5303 34.7803C26.3897 34.921 26.1989 35 26 35C25.8011 35 25.6103 34.921 25.4697 34.7803C25.329 34.6397 25.25 34.4489 25.25 34.25V25.25C25.25 25.0511 25.329 24.8603 25.4697 24.7197C25.6103 24.579 25.8011 24.5 26 24.5C26.1989 24.5 26.3897 24.579 26.5303 24.7197C26.671 24.8603 26.75 25.0511 26.75 25.25ZM32.75 32C32.5511 32 32.3603 32.079 32.2197 32.2197C32.079 32.3603 32 32.5511 32 32.75V34.25C32 34.4489 32.079 34.6397 32.2197 34.7803C32.3603 34.921 32.5511 35 32.75 35C32.9489 35 33.1397 34.921 33.2803 34.7803C33.421 34.6397 33.5 34.4489 33.5 34.25V32.75C33.5 32.5511 33.421 32.3603 33.2803 32.2197C33.1397 32.079 32.9489 32 32.75 32ZM35 29H33.5V17.75C33.5 17.5511 33.421 17.3603 33.2803 17.2197C33.1397 17.079 32.9489 17 32.75 17C32.5511 17 32.3603 17.079 32.2197 17.2197C32.079 17.3603 32 17.5511 32 17.75V29H30.5C30.3011 29 30.1103 29.079 29.9697 29.2197C29.829 29.3603 29.75 29.5511 29.75 29.75C29.75 29.9489 29.829 30.1397 29.9697 30.2803C30.1103 30.421 30.3011 30.5 30.5 30.5H35C35.1989 30.5 35.3897 30.421 35.5303 30.2803C35.671 30.1397 35.75 29.9489 35.75 29.75C35.75 29.5511 35.671 29.3603 35.5303 29.2197C35.3897 29.079 35.1989 29 35 29ZM19.25 29C19.0511 29 18.8603 29.079 18.7197 29.2197C18.579 29.3603 18.5 29.5511 18.5 29.75V34.25C18.5 34.4489 18.579 34.6397 18.7197 34.7803C18.8603 34.921 19.0511 35 19.25 35C19.4489 35 19.6397 34.921 19.7803 34.7803C19.921 34.6397 20 34.4489 20 34.25V29.75C20 29.5511 19.921 29.3603 19.7803 29.2197C19.6397 29.079 19.4489 29 19.25 29ZM21.5 26H20V17.75C20 17.5511 19.921 17.3603 19.7803 17.2197C19.6397 17.079 19.4489 17 19.25 17C19.0511 17 18.8603 17.079 18.7197 17.2197C18.579 17.3603 18.5 17.5511 18.5 17.75V26H17C16.8011 26 16.6103 26.079 16.4697 26.2197C16.329 26.3603 16.25 26.5511 16.25 26.75C16.25 26.9489 16.329 27.1397 16.4697 27.2803C16.6103 27.421 16.8011 27.5 17 27.5H21.5C21.6989 27.5 21.8897 27.421 22.0303 27.2803C22.171 27.1397 22.25 26.9489 22.25 26.75C22.25 26.5511 22.171 26.3603 22.0303 26.2197C21.8897 26.079 21.6989 26 21.5 26ZM28.25 21.5H26.75V17.75C26.75 17.5511 26.671 17.3603 26.5303 17.2197C26.3897 17.079 26.1989 17 26 17C25.8011 17 25.6103 17.079 25.4697 17.2197C25.329 17.3603 25.25 17.5511 25.25 17.75V21.5H23.75C23.5511 21.5 23.3603 21.579 23.2197 21.7197C23.079 21.8603 23 22.0511 23 22.25C23 22.4489 23.079 22.6397 23.2197 22.7803C23.3603 22.921 23.5511 23 23.75 23H28.25C28.4489 23 28.6397 22.921 28.7803 22.7803C28.921 22.6397 29 22.4489 29 22.25C29 22.0511 28.921 21.8603 28.7803 21.7197C28.6397 21.579 28.4489 21.5 28.25 21.5Z" fill="#343330"/>
<defs>
<linearGradient id="paint0_linear_14438_34235" x1="1.29592e-07" y1="43.875" x2="52.0178" y2="45.0112" gradientUnits="userSpaceOnUse">
<stop stop-color="#39B5D7"/>
<stop offset="0.502211" stop-color="#F7D544"/>
<stop offset="1" stop-color="#E38330"/>
</linearGradient>
</defs>
</svg>
