<svg width="52" height="52" viewBox="0 0 52 52" fill="none" xmlns="http://www.w3.org/2000/svg">
<rect x="0.75" y="0.75" width="50.5" height="50.5" rx="25.25" stroke="url(#paint0_linear_14438_48454)" stroke-width="1.5"/>
<path d="M37.6023 22.338L26.3523 16.338C26.2438 16.2802 26.1227 16.25 25.9998 16.25C25.8768 16.25 25.7558 16.2802 25.6473 16.338L14.3973 22.338C14.2773 22.402 14.1769 22.4973 14.1069 22.6139C14.037 22.7305 14 22.8639 14 22.9999C14 23.1358 14.037 23.2693 14.1069 23.3858C14.1769 23.5024 14.2773 23.5978 14.3973 23.6618L16.9998 25.0502V29.5896C16.999 29.958 17.1346 30.3136 17.3804 30.588C18.6085 31.9558 21.3601 34.2499 25.9998 34.2499C27.5382 34.2626 29.065 33.9839 30.4998 33.4286V36.4999C30.4998 36.6988 30.5788 36.8896 30.7194 37.0302C30.8601 37.1709 31.0509 37.2499 31.2498 37.2499C31.4487 37.2499 31.6394 37.1709 31.7801 37.0302C31.9207 36.8896 31.9998 36.6988 31.9998 36.4999V32.7039C32.9778 32.1394 33.8616 31.4254 34.6191 30.588C34.865 30.3136 35.0005 29.958 34.9998 29.5896V25.0502L37.6023 23.6618C37.7223 23.5978 37.8226 23.5024 37.8926 23.3858C37.9626 23.2693 37.9995 23.1358 37.9995 22.9999C37.9995 22.8639 37.9626 22.7305 37.8926 22.6139C37.8226 22.4973 37.7223 22.402 37.6023 22.338ZM25.9998 32.7499C21.9432 32.7499 19.5573 30.768 18.4998 29.5896V25.8499L25.6473 29.6618C25.7558 29.7195 25.8768 29.7498 25.9998 29.7498C26.1227 29.7498 26.2438 29.7195 26.3523 29.6618L30.4998 27.4502V31.7946C29.3185 32.3458 27.8298 32.7499 25.9998 32.7499ZM33.4998 29.5858C33.0502 30.0847 32.5472 30.5327 31.9998 30.9218V26.6496L33.4998 25.8499V29.5858ZM31.6248 25.1505L31.6041 25.1383L26.3541 22.338C26.179 22.2485 25.9757 22.2315 25.7881 22.2904C25.6004 22.3494 25.4435 22.4798 25.351 22.6534C25.2586 22.827 25.238 23.0299 25.2938 23.2186C25.3495 23.4072 25.4772 23.5663 25.6491 23.6618L30.031 25.9999L25.9998 28.1496L16.3435 22.9999L25.9998 17.8502L35.656 22.9999L31.6248 25.1505Z" fill="#343330"/>
<defs>
<linearGradient id="paint0_linear_14438_48454" x1="1.29592e-07" y1="43.875" x2="52.0178" y2="45.0112" gradientUnits="userSpaceOnUse">
<stop stop-color="#39B5D7"/>
<stop offset="0.502211" stop-color="#F7D544"/>
<stop offset="1" stop-color="#E38330"/>
</linearGradient>
</defs>
</svg>
