<svg width="52" height="52" viewBox="0 0 52 52" fill="none" xmlns="http://www.w3.org/2000/svg">
<rect x="0.75" y="0.75" width="50.5" height="50.5" rx="25.25" stroke="url(#paint0_linear_14438_48484)" stroke-width="1.5"/>
<path d="M16.25 23.75H18.5V29.75H17C16.8011 29.75 16.6103 29.829 16.4697 29.9697C16.329 30.1103 16.25 30.3011 16.25 30.5C16.25 30.6989 16.329 30.8897 16.4697 31.0304C16.6103 31.171 16.8011 31.25 17 31.25H35C35.1989 31.25 35.3897 31.171 35.5303 31.0304C35.671 30.8897 35.75 30.6989 35.75 30.5C35.75 30.3011 35.671 30.1103 35.5303 29.9697C35.3897 29.829 35.1989 29.75 35 29.75H33.5V23.75H35.75C35.9132 23.7499 36.0719 23.6965 36.202 23.598C36.3321 23.4995 36.4265 23.3612 36.4709 23.2042C36.5153 23.0472 36.5073 22.8799 36.4481 22.7279C36.3889 22.5758 36.2817 22.4472 36.1428 22.3616L26.3928 16.3616C26.2747 16.2889 26.1387 16.2505 26 16.2505C25.8613 16.2505 25.7253 16.2889 25.6072 16.3616L15.8572 22.3616C15.7183 22.4472 15.6111 22.5758 15.5519 22.7279C15.4927 22.8799 15.4847 23.0472 15.5291 23.2042C15.5735 23.3612 15.6679 23.4995 15.798 23.598C15.9281 23.6965 16.0868 23.7499 16.25 23.75ZM20 23.75H23V29.75H20V23.75ZM27.5 23.75V29.75H24.5V23.75H27.5ZM32 29.75H29V23.75H32V29.75ZM26 17.8803L33.1006 22.25H18.8994L26 17.8803ZM37.25 33.5C37.25 33.6989 37.171 33.8897 37.0303 34.0304C36.8897 34.171 36.6989 34.25 36.5 34.25H15.5C15.3011 34.25 15.1103 34.171 14.9697 34.0304C14.829 33.8897 14.75 33.6989 14.75 33.5C14.75 33.3011 14.829 33.1103 14.9697 32.9697C15.1103 32.829 15.3011 32.75 15.5 32.75H36.5C36.6989 32.75 36.8897 32.829 37.0303 32.9697C37.171 33.1103 37.25 33.3011 37.25 33.5Z" fill="#343330"/>
<defs>
<linearGradient id="paint0_linear_14438_48484" x1="1.29592e-07" y1="43.875" x2="52.0178" y2="45.0112" gradientUnits="userSpaceOnUse">
<stop stop-color="#39B5D7"/>
<stop offset="0.502211" stop-color="#F7D544"/>
<stop offset="1" stop-color="#E38330"/>
</linearGradient>
</defs>
</svg>
