<svg width="52" height="52" viewBox="0 0 52 52" fill="none" xmlns="http://www.w3.org/2000/svg">
<rect x="0.75" y="0.75" width="50.5" height="50.5" rx="25.25" stroke="url(#paint0_linear_14438_34225)" stroke-width="1.5"/>
<path d="M26 16.25C24.0716 16.25 22.1866 16.8218 20.5832 17.8932C18.9798 18.9645 17.7301 20.4873 16.9922 22.2688C16.2542 24.0504 16.0611 26.0108 16.4373 27.9021C16.8136 29.7934 17.7422 31.5307 19.1057 32.8943C20.4693 34.2579 22.2066 35.1865 24.0979 35.5627C25.9892 35.9389 27.9496 35.7458 29.7312 35.0078C31.5127 34.2699 33.0355 33.0202 34.1068 31.4168C35.1782 29.8134 35.75 27.9284 35.75 26C35.7473 23.415 34.7192 20.9366 32.8913 19.1087C31.0634 17.2808 28.585 16.2527 26 16.25ZM26 34.25C24.3683 34.25 22.7733 33.7661 21.4166 32.8596C20.0598 31.9531 19.0024 30.6646 18.378 29.1571C17.7536 27.6496 17.5902 25.9908 17.9085 24.3905C18.2269 22.7902 19.0126 21.3202 20.1664 20.1664C21.3202 19.0126 22.7902 18.2268 24.3905 17.9085C25.9909 17.5902 27.6497 17.7536 29.1571 18.378C30.6646 19.0024 31.9531 20.0598 32.8596 21.4165C33.7662 22.7733 34.25 24.3683 34.25 26C34.2475 28.1873 33.3775 30.2843 31.8309 31.8309C30.2843 33.3775 28.1873 34.2475 26 34.25ZM29.75 27.875C29.75 28.5712 29.4734 29.2389 28.9812 29.7312C28.4889 30.2234 27.8212 30.5 27.125 30.5H26.75V31.25C26.75 31.4489 26.671 31.6397 26.5303 31.7803C26.3897 31.921 26.1989 32 26 32C25.8011 32 25.6103 31.921 25.4697 31.7803C25.329 31.6397 25.25 31.4489 25.25 31.25V30.5H23.75C23.5511 30.5 23.3603 30.421 23.2197 30.2803C23.079 30.1397 23 29.9489 23 29.75C23 29.5511 23.079 29.3603 23.2197 29.2197C23.3603 29.079 23.5511 29 23.75 29H27.125C27.4234 29 27.7095 28.8815 27.9205 28.6705C28.1315 28.4595 28.25 28.1734 28.25 27.875C28.25 27.5766 28.1315 27.2905 27.9205 27.0795C27.7095 26.8685 27.4234 26.75 27.125 26.75H24.875C24.1788 26.75 23.5111 26.4734 23.0188 25.9812C22.5266 25.4889 22.25 24.8212 22.25 24.125C22.25 23.4288 22.5266 22.7611 23.0188 22.2688C23.5111 21.7766 24.1788 21.5 24.875 21.5H25.25V20.75C25.25 20.5511 25.329 20.3603 25.4697 20.2197C25.6103 20.079 25.8011 20 26 20C26.1989 20 26.3897 20.079 26.5303 20.2197C26.671 20.3603 26.75 20.5511 26.75 20.75V21.5H28.25C28.4489 21.5 28.6397 21.579 28.7803 21.7197C28.921 21.8603 29 22.0511 29 22.25C29 22.4489 28.921 22.6397 28.7803 22.7803C28.6397 22.921 28.4489 23 28.25 23H24.875C24.5766 23 24.2905 23.1185 24.0795 23.3295C23.8685 23.5405 23.75 23.8266 23.75 24.125C23.75 24.4234 23.8685 24.7095 24.0795 24.9205C24.2905 25.1315 24.5766 25.25 24.875 25.25H27.125C27.8212 25.25 28.4889 25.5266 28.9812 26.0188C29.4734 26.5111 29.75 27.1788 29.75 27.875Z" fill="#343330"/>
<defs>
<linearGradient id="paint0_linear_14438_34225" x1="1.29592e-07" y1="43.875" x2="52.0178" y2="45.0112" gradientUnits="userSpaceOnUse">
<stop stop-color="#39B5D7"/>
<stop offset="0.502211" stop-color="#F7D544"/>
<stop offset="1" stop-color="#E38330"/>
</linearGradient>
</defs>
</svg>
