<svg width="52" height="52" viewBox="0 0 52 52" fill="none" xmlns="http://www.w3.org/2000/svg">
<circle cx="25.5504" cy="26" r="25.0504" stroke="url(#paint0_linear_2380_4928)"/>
<g clip-path="url(#clip0_2380_4928)">
<path d="M26 22.4285V20.2856" stroke="#000001" stroke-width="1.3" stroke-linecap="round" stroke-linejoin="round"/>
<path d="M23.8594 28.1428C23.8594 29.2142 24.8165 29.5713 26.0022 29.5713C27.1879 29.5713 28.1451 29.5713 28.1451 28.1428C28.1451 25.9999 23.8594 25.9999 23.8594 23.857C23.8594 22.4285 24.8165 22.4285 26.0022 22.4285C27.1879 22.4285 28.1451 22.9713 28.1451 23.857" stroke="#000001" stroke-width="1.3" stroke-linecap="round" stroke-linejoin="round"/>
<path d="M26.0039 29.5713V31.7141" stroke="#000001" stroke-width="1.3" stroke-linecap="round" stroke-linejoin="round"/>
<path d="M26.0006 35.2857C31.1289 35.2857 35.2863 31.1283 35.2863 25.9999C35.2863 20.8716 31.1289 16.7142 26.0006 16.7142C20.8722 16.7142 16.7148 20.8716 16.7148 25.9999C16.7148 31.1283 20.8722 35.2857 26.0006 35.2857Z" stroke="#000001" stroke-width="1.3" stroke-linecap="round" stroke-linejoin="round"/>
</g>
<defs>
<linearGradient id="paint0_linear_2380_4928" x1="-4.38008" y1="16.0637" x2="55.6488" y2="18.3469" gradientUnits="userSpaceOnUse">
<stop stop-color="#39B5D7"/>
<stop offset="0.502211" stop-color="#F7D544"/>
<stop offset="1" stop-color="#E38330"/>
</linearGradient>
<clipPath id="clip0_2380_4928">
<rect width="20" height="20" fill="white" transform="translate(16 16)"/>
</clipPath>
</defs>
</svg>
