<svg width="15" height="16" viewBox="0 0 15 16" fill="none" xmlns="http://www.w3.org/2000/svg">
<path d="M14.4 0.199951H0.6C0.26812 0.199951 0 0.468071 0 0.799951V14.6C0 14.9319 0.26812 15.2 0.6 15.2H14.4C14.7319 15.2 15 14.9319 15 14.6V0.799951C15 0.468071 14.7319 0.199951 14.4 0.199951ZM4.44937 12.9819H2.22375V5.82307H4.44937V12.9819ZM3.3375 4.84432C3.08236 4.84432 2.83295 4.76867 2.62081 4.62692C2.40867 4.48517 2.24333 4.2837 2.1457 4.04799C2.04806 3.81227 2.02251 3.55289 2.07229 3.30266C2.12206 3.05242 2.24492 2.82257 2.42533 2.64216C2.60574 2.46175 2.8356 2.33889 3.08583 2.28911C3.33607 2.23934 3.59544 2.26488 3.83116 2.36252C4.06688 2.46016 4.26835 2.6255 4.4101 2.83764C4.55184 3.04978 4.6275 3.29919 4.6275 3.55432C4.62562 4.26682 4.04812 4.84432 3.3375 4.84432ZM12.7819 12.9819H10.5581V9.49995C10.5581 8.66935 10.5431 7.60245 9.4012 7.60245C8.2444 7.60245 8.0662 8.50615 8.0662 9.43995V12.9819H5.84437V5.82307H7.9781V6.80182H8.0081C8.3044 6.23932 9.03 5.64495 10.1137 5.64495C12.3675 5.64495 12.7819 7.12807 12.7819 9.05555V12.9819Z" fill="white"/>
</svg>
