<svg width="52" height="52" viewBox="0 0 52 52" fill="none" xmlns="http://www.w3.org/2000/svg">
<g clip-path="url(#clip0_6595_41547)">
<path d="M45.0831 6.06611L32.4375 18.6676L33.3281 19.5625L45.9737 6.96104L45.0831 6.06611Z" fill="white"/>
<path d="M46.2247 16.8021C43.6247 13.4931 43.4228 8.76954 45.846 5.32159C45.7955 5.27107 46.6412 6.16779 46.6285 6.15516C43.2335 8.52957 38.5006 8.31486 35.2443 5.71311L36.3928 4.4375C38.753 7.17818 43.1073 7.25395 45.9596 5.19529C45.947 5.19529 46.8052 6.06675 46.7421 6.02886C44.3189 8.6685 44.5965 13.4047 47.5625 15.4886L46.212 16.8147L46.2247 16.8021Z" fill="white"/>
<path d="M27.0831 24.0661L14.4375 36.6676L15.3281 37.5625L27.9737 24.961L27.0831 24.0661Z" fill="white"/>
<path d="M28.2247 34.8021C25.6247 31.4931 25.4228 26.7695 27.846 23.3216C27.7955 23.2711 28.6412 24.1678 28.6285 24.1552C25.2335 26.5296 20.5006 26.3149 17.2443 23.7131L18.3928 22.4375C20.753 25.1782 25.1073 25.254 27.9596 23.1953C27.947 23.1953 28.8052 24.0667 28.7421 24.0289C26.3189 26.6685 26.5965 31.4047 29.5625 33.4886L28.212 34.8147L28.2247 34.8021Z" fill="white"/>
</g>
<g clip-path="url(#clip1_6595_41547)">
<path d="M17.0831 34.0661L4.4375 46.6676L5.32808 47.5625L17.9737 34.961L17.0831 34.0661Z" fill="white"/>
<path d="M18.2247 44.8021C15.6247 41.4931 15.4228 36.7695 17.846 33.3216C17.7955 33.2711 18.6412 34.1678 18.6285 34.1552C15.2335 36.5296 10.5006 36.3149 7.24431 33.7131L8.39283 32.4375C10.753 35.1782 15.1073 35.254 17.9596 33.1953C17.947 33.1953 18.8052 34.0667 18.7421 34.0289C16.3189 36.6685 16.5965 41.4047 19.5625 43.4886L18.212 44.8147L18.2247 44.8021Z" fill="white"/>
<path d="M-0.916906 52.0661L-13.5625 64.6676L-12.6719 65.5625L-0.0263309 52.961L-0.916906 52.0661Z" fill="white"/>
<path d="M0.224664 62.8021C-2.37528 59.4931 -2.57722 54.7695 -0.15397 51.3216C-0.204454 51.2711 0.641159 52.1678 0.628538 52.1552C-2.76654 54.5296 -7.49945 54.3149 -10.7557 51.7131L-9.60717 50.4375C-7.24703 53.1782 -2.89275 53.254 -0.0403805 51.1953C-0.0530014 51.1953 0.805234 52.0667 0.742128 52.0289C-1.68112 54.6685 -1.40346 59.4047 1.5625 61.4886L0.212041 62.8147L0.224664 62.8021Z" fill="white"/>
</g>
<defs>
<clipPath id="clip0_6595_41547">
<rect width="22" height="22" fill="white" transform="translate(29 1)"/>
</clipPath>
<clipPath id="clip1_6595_41547">
<rect width="22" height="22" fill="white" transform="translate(1 29)"/>
</clipPath>
</defs>
</svg>
