<svg width="52" height="52" viewBox="0 0 52 52" fill="none" xmlns="http://www.w3.org/2000/svg">
<rect x="0.75" y="0.75" width="50.5" height="50.5" rx="25.25" stroke="#404040" stroke-width="1.5"/>
<path d="M35.75 29.75H35V20.75C35 20.1533 34.7629 19.581 34.341 19.159C33.919 18.7371 33.3467 18.5 32.75 18.5H19.25C18.6533 18.5 18.081 18.7371 17.659 19.159C17.2371 19.581 17 20.1533 17 20.75V29.75H16.25C16.0511 29.75 15.8603 29.829 15.7197 29.9697C15.579 30.1103 15.5 30.3011 15.5 30.5V32C15.5 32.5967 15.7371 33.169 16.159 33.591C16.581 34.0129 17.1533 34.25 17.75 34.25H34.25C34.8467 34.25 35.419 34.0129 35.841 33.591C36.2629 33.169 36.5 32.5967 36.5 32V30.5C36.5 30.3011 36.421 30.1103 36.2803 29.9697C36.1397 29.829 35.9489 29.75 35.75 29.75ZM18.5 20.75C18.5 20.5511 18.579 20.3603 18.7197 20.2197C18.8603 20.079 19.0511 20 19.25 20H32.75C32.9489 20 33.1397 20.079 33.2803 20.2197C33.421 20.3603 33.5 20.5511 33.5 20.75V29.75H18.5V20.75ZM35 32C35 32.1989 34.921 32.3897 34.7803 32.5303C34.6397 32.671 34.4489 32.75 34.25 32.75H17.75C17.5511 32.75 17.3603 32.671 17.2197 32.5303C17.079 32.3897 17 32.1989 17 32V31.25H35V32ZM28.25 22.25C28.25 22.4489 28.171 22.6397 28.0303 22.7803C27.8897 22.921 27.6989 23 27.5 23H24.5C24.3011 23 24.1103 22.921 23.9697 22.7803C23.829 22.6397 23.75 22.4489 23.75 22.25C23.75 22.0511 23.829 21.8603 23.9697 21.7197C24.1103 21.579 24.3011 21.5 24.5 21.5H27.5C27.6989 21.5 27.8897 21.579 28.0303 21.7197C28.171 21.8603 28.25 22.0511 28.25 22.25Z" fill="white"/>
</svg>
