<svg width="52" height="52" viewBox="0 0 52 52" fill="none" xmlns="http://www.w3.org/2000/svg">
<rect x="0.75" y="0.75" width="50.5" height="50.5" rx="25.25" stroke="#404040" stroke-width="1.5"/>
<path d="M35.75 24.5H26.75V22.25H27.5C27.8978 22.25 28.2794 22.092 28.5607 21.8107C28.842 21.5294 29 21.1478 29 20.75V17.75C29 17.3522 28.842 16.9706 28.5607 16.6893C28.2794 16.408 27.8978 16.25 27.5 16.25H24.5C24.1022 16.25 23.7206 16.408 23.4393 16.6893C23.158 16.9706 23 17.3522 23 17.75V20.75C23 21.1478 23.158 21.5294 23.4393 21.8107C23.7206 22.092 24.1022 22.25 24.5 22.25H25.25V24.5H16.25C16.0511 24.5 15.8603 24.579 15.7197 24.7197C15.579 24.8603 15.5 25.0511 15.5 25.25C15.5 25.4489 15.579 25.6397 15.7197 25.7803C15.8603 25.921 16.0511 26 16.25 26H19.25V29H18.5C18.1022 29 17.7206 29.158 17.4393 29.4393C17.158 29.7206 17 30.1022 17 30.5V33.5C17 33.8978 17.158 34.2794 17.4393 34.5607C17.7206 34.842 18.1022 35 18.5 35H21.5C21.8978 35 22.2794 34.842 22.5607 34.5607C22.842 34.2794 23 33.8978 23 33.5V30.5C23 30.1022 22.842 29.7206 22.5607 29.4393C22.2794 29.158 21.8978 29 21.5 29H20.75V26H31.25V29H30.5C30.1022 29 29.7206 29.158 29.4393 29.4393C29.158 29.7206 29 30.1022 29 30.5V33.5C29 33.8978 29.158 34.2794 29.4393 34.5607C29.7206 34.842 30.1022 35 30.5 35H33.5C33.8978 35 34.2794 34.842 34.5607 34.5607C34.842 34.2794 35 33.8978 35 33.5V30.5C35 30.1022 34.842 29.7206 34.5607 29.4393C34.2794 29.158 33.8978 29 33.5 29H32.75V26H35.75C35.9489 26 36.1397 25.921 36.2803 25.7803C36.421 25.6397 36.5 25.4489 36.5 25.25C36.5 25.0511 36.421 24.8603 36.2803 24.7197C36.1397 24.579 35.9489 24.5 35.75 24.5ZM24.5 17.75H27.5V20.75H24.5V17.75ZM21.5 33.5H18.5V30.5H21.5V33.5ZM33.5 33.5H30.5V30.5H33.5V33.5Z" fill="white"/>
</svg>
