<svg width="20" height="20" viewBox="0 0 20 20" fill="none" xmlns="http://www.w3.org/2000/svg">
<path d="M1.25 16.8737H18.75" stroke="#585858" stroke-linecap="round" stroke-linejoin="round"/>
<path d="M11.2495 16.8737V3.12372C11.2495 2.95796 11.1837 2.79899 11.0665 2.68178C10.9492 2.56457 10.7903 2.49872 10.6245 2.49872H3.12451C2.95875 2.49872 2.79978 2.56457 2.68257 2.68178C2.56536 2.79899 2.49951 2.95796 2.49951 3.12372V16.8737" stroke="#585858" stroke-linecap="round" stroke-linejoin="round"/>
<path d="M17.4995 16.8737V8.12372C17.4995 7.95796 17.4337 7.79899 17.3165 7.68178C17.1992 7.56457 17.0403 7.49872 16.8745 7.49872H11.2495" stroke="#585858" stroke-linecap="round" stroke-linejoin="round"/>
<path d="M4.99951 5.62372H7.49951" stroke="#585858" stroke-linecap="round" stroke-linejoin="round"/>
<path d="M6.24951 10.6237H8.74951" stroke="#585858" stroke-linecap="round" stroke-linejoin="round"/>
<path d="M4.99951 13.7487H7.49951" stroke="#585858" stroke-linecap="round" stroke-linejoin="round"/>
<path d="M13.7495 13.7487H14.9995" stroke="#585858" stroke-linecap="round" stroke-linejoin="round"/>
<path d="M13.7495 10.6237H14.9995" stroke="#585858" stroke-linecap="round" stroke-linejoin="round"/>
</svg>
