<svg width="18" height="18" viewBox="0 0 18 18" fill="none" xmlns="http://www.w3.org/2000/svg">
<path fill-rule="evenodd" clip-rule="evenodd" d="M9 2.8125C6.82538 2.8125 5.0625 4.57538 5.0625 6.75C5.0625 8.92462 6.82538 10.6875 9 10.6875C11.1746 10.6875 12.9375 8.92462 12.9375 6.75C12.9375 4.57538 11.1746 2.8125 9 2.8125ZM3.9375 6.75C3.9375 3.95406 6.20406 1.6875 9 1.6875C11.7959 1.6875 14.0625 3.95406 14.0625 6.75C14.0625 9.54594 11.7959 11.8125 9 11.8125C6.20406 11.8125 3.9375 9.54594 3.9375 6.75Z" fill="#585858"/>
<path fill-rule="evenodd" clip-rule="evenodd" d="M9.00021 11.8125C7.71648 11.8125 6.45535 12.1503 5.34352 12.792C4.23168 13.4337 3.30829 14.3567 2.66611 15.4682C2.5107 15.7372 2.16665 15.8293 1.89766 15.6739C1.62866 15.5185 1.53658 15.1744 1.69199 14.9055C2.43294 13.623 3.49834 12.558 4.78116 11.8176C6.06399 11.0772 7.51907 10.6875 9.00022 10.6875C10.4814 10.6875 11.9364 11.0773 13.2192 11.8177C14.5021 12.5581 15.5674 13.6231 16.3084 14.9056C16.4638 15.1746 16.3717 15.5186 16.1027 15.674C15.8337 15.8294 15.4896 15.7374 15.3342 15.4684C14.6921 14.3568 13.7687 13.4338 12.6569 12.7921C11.5451 12.1503 10.2839 11.8125 9.00021 11.8125Z" fill="#585858"/>
</svg>
