<svg width="17" height="16" viewBox="0 0 17 16" fill="none" xmlns="http://www.w3.org/2000/svg">
<path d="M15.5333 13.0833H15.0667V6.20833C15.0667 6.08678 15.0175 5.9702 14.93 5.88424C14.8425 5.79829 14.7238 5.75 14.6 5.75H10.8667C10.7429 5.75 10.6242 5.79829 10.5367 5.88424C10.4492 5.9702 10.4 6.08678 10.4 6.20833V8.5H7.6V3.45833C7.6 3.33678 7.55083 3.2202 7.46332 3.13424C7.3758 3.04829 7.2571 3 7.13333 3H3.4C3.27623 3 3.15753 3.04829 3.07002 3.13424C2.9825 3.2202 2.93333 3.33678 2.93333 3.45833V13.0833H2.46667C2.3429 13.0833 2.2242 13.1316 2.13668 13.2176C2.04917 13.3035 2 13.4201 2 13.5417C2 13.6632 2.04917 13.7798 2.13668 13.8658C2.2242 13.9517 2.3429 14 2.46667 14H15.5333C15.6571 14 15.7758 13.9517 15.8633 13.8658C15.9508 13.7798 16 13.6632 16 13.5417C16 13.4201 15.9508 13.3035 15.8633 13.2176C15.7758 13.1316 15.6571 13.0833 15.5333 13.0833ZM11.3333 6.66667H14.1333V13.0833H11.3333V6.66667ZM10.4 9.41667V13.0833H7.6V9.41667H10.4ZM3.86667 3.91667H6.66667V13.0833H3.86667V3.91667ZM5.73333 5.29167V6.20833C5.73333 6.32989 5.68417 6.44647 5.59665 6.53242C5.50913 6.61838 5.39043 6.66667 5.26667 6.66667C5.1429 6.66667 5.0242 6.61838 4.93668 6.53242C4.84917 6.44647 4.8 6.32989 4.8 6.20833V5.29167C4.8 5.17011 4.84917 5.05353 4.93668 4.96758C5.0242 4.88162 5.1429 4.83333 5.26667 4.83333C5.39043 4.83333 5.50913 4.88162 5.59665 4.96758C5.68417 5.05353 5.73333 5.17011 5.73333 5.29167ZM5.73333 8.04167V8.95833C5.73333 9.07989 5.68417 9.19647 5.59665 9.28242C5.50913 9.36838 5.39043 9.41667 5.26667 9.41667C5.1429 9.41667 5.0242 9.36838 4.93668 9.28242C4.84917 9.19647 4.8 9.07989 4.8 8.95833V8.04167C4.8 7.92011 4.84917 7.80353 4.93668 7.71758C5.0242 7.63162 5.1429 7.58333 5.26667 7.58333C5.39043 7.58333 5.50913 7.63162 5.59665 7.71758C5.68417 7.80353 5.73333 7.92011 5.73333 8.04167ZM5.73333 10.7917V11.7083C5.73333 11.8299 5.68417 11.9465 5.59665 12.0324C5.50913 12.1184 5.39043 12.1667 5.26667 12.1667C5.1429 12.1667 5.0242 12.1184 4.93668 12.0324C4.84917 11.9465 4.8 11.8299 4.8 11.7083V10.7917C4.8 10.6701 4.84917 10.5535 4.93668 10.4676C5.0242 10.3816 5.1429 10.3333 5.26667 10.3333C5.39043 10.3333 5.50913 10.3816 5.59665 10.4676C5.68417 10.5535 5.73333 10.6701 5.73333 10.7917ZM8.53333 11.7083V10.7917C8.53333 10.6701 8.5825 10.5535 8.67002 10.4676C8.75753 10.3816 8.87623 10.3333 9 10.3333C9.12377 10.3333 9.24247 10.3816 9.32998 10.4676C9.4175 10.5535 9.46667 10.6701 9.46667 10.7917V11.7083C9.46667 11.8299 9.4175 11.9465 9.32998 12.0324C9.24247 12.1184 9.12377 12.1667 9 12.1667C8.87623 12.1667 8.75753 12.1184 8.67002 12.0324C8.5825 11.9465 8.53333 11.8299 8.53333 11.7083ZM12.2667 11.7083V10.7917C12.2667 10.6701 12.3158 10.5535 12.4033 10.4676C12.4909 10.3816 12.6096 10.3333 12.7333 10.3333C12.8571 10.3333 12.9758 10.3816 13.0633 10.4676C13.1508 10.5535 13.2 10.6701 13.2 10.7917V11.7083C13.2 11.8299 13.1508 11.9465 13.0633 12.0324C12.9758 12.1184 12.8571 12.1667 12.7333 12.1667C12.6096 12.1667 12.4909 12.1184 12.4033 12.0324C12.3158 11.9465 12.2667 11.8299 12.2667 11.7083ZM12.2667 8.95833V8.04167C12.2667 7.92011 12.3158 7.80353 12.4033 7.71758C12.4909 7.63162 12.6096 7.58333 12.7333 7.58333C12.8571 7.58333 12.9758 7.63162 13.0633 7.71758C13.1508 7.80353 13.2 7.92011 13.2 8.04167V8.95833C13.2 9.07989 13.1508 9.19647 13.0633 9.28242C12.9758 9.36838 12.8571 9.41667 12.7333 9.41667C12.6096 9.41667 12.4909 9.36838 12.4033 9.28242C12.3158 9.19647 12.2667 9.07989 12.2667 8.95833Z" fill="url(#paint0_linear_7536_179074)"/>
<defs>
<linearGradient id="paint0_linear_7536_179074" x1="3.49998" y1="3" x2="6.3971" y2="17.5218" gradientUnits="userSpaceOnUse">
<stop stop-color="#39B6D8"/>
<stop offset="0.5" stop-color="#F7D344"/>
<stop offset="1" stop-color="#E38330"/>
</linearGradient>
</defs>
</svg>
